<?xml version="1.0" encoding="UTF-8" standalone="no"?>
<!-- Creator: fig2dev Version 3.2.8b -->
<!-- CreationDate: 2025-10-30 19:43:16 -->
<!-- Magnification: 1 -->
<svg	xmlns="http://www.w3.org/2000/svg"
	xmlns:xlink="http://www.w3.org/1999/xlink"
	width="192pt" height="111pt"
	viewBox="3578 4605 3184 1843">
<g fill="none">
<!-- Line -->
<defs>
<clipPath id="cp0">
	<path clip-rule="evenodd" d="M 3578,4605 H 6762 V 6448 H 3578 z
		M 5153,4782 5175,4760 5198,4782 5182,4643 5168,4643z"/>
</clipPath>
</defs>
<polyline points=" 5175,6300 5175,4650" clip-path="url(#cp0)"
	stroke="#000000" stroke-width="8px"/>
<!-- Forward arrow to point 5175,4650 -->
<polygon points=" 5198,4782 5175,4670 5153,4782 5175,4760 5198,4782"
	stroke="#000000" stroke-width="8px" stroke-miterlimit="8" fill="#000000"/>
<!-- Line -->
<defs>
<clipPath id="cp1">
	<path clip-rule="evenodd" d="M 3578,4605 H 6762 V 6448 H 3578 z
		M 6618,6128 6640,6150 6618,6173 6757,6157 6757,6143z"/>
</clipPath>
</defs>
<polyline points=" 3600,6150 6750,6150" clip-path="url(#cp1)"
	stroke="#000000" stroke-width="8px"/>
<!-- Forward arrow to point 6750,6150 -->
<polygon points=" 6618,6173 6730,6150 6618,6128 6640,6150 6618,6173"
	stroke="#000000" stroke-width="8px" stroke-miterlimit="8" fill="#000000"/>
<!-- Line -->
<polyline points=" 3600,5550 6600,5550"
	stroke="#000000" stroke-width="15px"/>
<!-- Text -->
<text xml:space="preserve" x="5325" y="4800" fill="#000000" font-family="Times" font-style="normal" font-weight="normal" font-size="168" text-anchor="start">x(t)</text>
<!-- Text -->
<text xml:space="preserve" x="5250" y="6375" fill="#000000" font-family="Times" font-style="normal" font-weight="normal" font-size="168" text-anchor="start">0</text>
<!-- Text -->
<text xml:space="preserve" x="6675" y="6075" fill="#000000" font-family="Times" font-style="normal" font-weight="normal" font-size="168" text-anchor="start">t</text>
<!-- Text -->
<text xml:space="preserve" x="5250" y="5475" fill="#000000" font-family="Times" font-style="normal" font-weight="normal" font-size="168" text-anchor="start">2</text>
</g>
</svg>
