<?xml version="1.0" encoding="UTF-8" standalone="no"?>
<!-- Creator: fig2dev Version 3.2.8b -->
<!-- CreationDate: 2025-10-30 19:43:16 -->
<!-- Magnification: 1.05 -->
<svg	xmlns="http://www.w3.org/2000/svg"
	xmlns:xlink="http://www.w3.org/1999/xlink"
	width="149pt" height="64pt"
	viewBox="348 1473 2364 1008">
<g fill="none">
<!-- Line -->
<defs>
<clipPath id="cp0">
	<path clip-rule="evenodd" d="M 348,1473 H 2712 V 2481 H 348 z
		M 1605,1580 1620,1565 1635,1580 1627,1478 1613,1478z"/>
</clipPath>
</defs>
<polyline points=" 1620,2385 1620,1485" clip-path="url(#cp0)"
	stroke="#000000" stroke-width="8px"/>
<!-- Forward arrow to point 1620,1485 -->
<polygon points=" 1635,1580 1620,1505 1605,1580 1620,1565 1635,1580"
	stroke="#000000" stroke-width="8px" stroke-miterlimit="8" fill="#000000"/>
<!-- Line -->
<defs>
<clipPath id="cp1">
	<path clip-rule="evenodd" d="M 348,1473 H 2712 V 2481 H 348 z
		M 2605,2235 2620,2250 2605,2265 2707,2257 2707,2243z"/>
</clipPath>
</defs>
<polyline points=" 360,2250 2700,2250" clip-path="url(#cp1)"
	stroke="#000000" stroke-width="8px"/>
<!-- Forward arrow to point 2700,2250 -->
<polygon points=" 2605,2265 2680,2250 2605,2235 2620,2250 2605,2265"
	stroke="#000000" stroke-width="8px" stroke-miterlimit="8" fill="#000000"/>
<!-- Text -->
<text xml:space="preserve" x="1305" y="2430" fill="#000000" font-family="Times" font-style="normal" font-weight="normal" font-size="96" text-anchor="middle">-1</text>
<!-- Text -->
<text xml:space="preserve" x="1575" y="2430" fill="#000000" font-family="Times" font-style="normal" font-weight="normal" font-size="96" text-anchor="middle">0</text>
<!-- Text -->
<text xml:space="preserve" x="1035" y="2430" fill="#000000" font-family="Times" font-style="normal" font-weight="normal" font-size="96" text-anchor="middle">-2</text>
<!-- Text -->
<text xml:space="preserve" x="1890" y="2430" fill="#000000" font-family="Times" font-style="normal" font-weight="normal" font-size="96" text-anchor="middle">1</text>
<!-- Text -->
<text xml:space="preserve" x="2160" y="2430" fill="#000000" font-family="Times" font-style="normal" font-weight="normal" font-size="96" text-anchor="middle">2</text>
<!-- Text -->
<text xml:space="preserve" x="765" y="2430" fill="#000000" font-family="Times" font-style="normal" font-weight="normal" font-size="96" text-anchor="middle">-3</text>
<!-- Line -->
<defs>
<clipPath id="cp2">
	<path clip-rule="evenodd" d="M 348,1473 H 2712 V 2481 H 348 z
		M 1583,1889 1584,1895 1586,1901 1588,1906 1592,1911 1596,1915 1601,1919 1607,1921 1612,1923 1618,1924 1625,1923 1630,1922 1636,1920 1641,1917 1646,1913 1650,1909 1653,1904 1656,1898 1657,1892 1658,1886 1631,1838 1610,1838z"/>
</clipPath>
</defs>
<polyline points=" 1620,2250 1620,1845" clip-path="url(#cp2)"
	stroke="#000000" stroke-width="15px"/>
<!-- Forward arrow to point 1620,1845 -->
<polygon points=" 1658,1886 1657,1880 1656,1874 1653,1869 1650,1864 1646,1859
 1641,1855 1636,1852 1630,1850 1625,1849 1618,1849 1612,1850 1607,1851 1601,1854
 1596,1857 1592,1861 1588,1866 1586,1872 1584,1877 1583,1883 1583,1889 1584,1895
 1586,1901 1588,1906 1592,1911 1596,1915 1601,1919 1607,1921 1612,1923 1618,1924
 1625,1923 1630,1922 1636,1920 1641,1917 1646,1913 1650,1909 1653,1904 1656,1898
 1657,1892 1658,1886"
	stroke="#000000" stroke-width="8px" stroke-miterlimit="8"/>
<!-- Line -->
<defs>
<clipPath id="cp3">
	<path clip-rule="evenodd" d="M 348,1473 H 2712 V 2481 H 348 z
		M 2161,2213 2155,2214 2149,2216 2144,2218 2139,2222 2135,2226 2131,2231 2129,2237 2127,2242 2126,2248 2127,2255 2128,2260 2130,2266 2133,2271 2137,2276 2141,2280 2146,2283 2152,2286 2158,2287 2164,2288 2208,2257 2208,2243z
		M 1889,2287 1895,2286 1901,2284 1906,2282 1911,2278 1915,2274 1919,2269 1921,2263 1923,2258 1924,2252 1923,2245 1922,2240 1920,2234 1917,2229 1913,2224 1909,2220 1904,2217 1898,2214 1892,2213 1886,2213 1842,2243 1842,2257z"/>
</clipPath>
</defs>
<polyline points=" 1845,2250 2205,2250" clip-path="url(#cp3)"
	stroke="#000000" stroke-width="8px"/>
<!-- Forward arrow to point 2205,2250 -->
<polygon points=" 2164,2288 2170,2287 2176,2286 2181,2283 2186,2280 2191,2276
 2195,2271 2198,2266 2200,2260 2201,2255 2201,2248 2200,2242 2199,2237 2196,2231
 2193,2226 2189,2222 2184,2218 2178,2216 2173,2214 2167,2213 2161,2213 2155,2214
 2149,2216 2144,2218 2139,2222 2135,2226 2131,2231 2129,2237 2127,2242 2126,2248
 2127,2255 2128,2260 2130,2266 2133,2271 2137,2276 2141,2280 2146,2283 2152,2286
 2158,2287 2164,2288"
	stroke="#000000" stroke-width="8px" stroke-miterlimit="8"/>
<!-- Backward arrow to point 1845,2250 -->
<polygon points=" 1886,2213 1880,2213 1874,2214 1869,2217 1864,2220 1859,2224
 1855,2229 1852,2234 1850,2240 1849,2245 1849,2252 1850,2258 1851,2263 1854,2269
 1857,2274 1861,2278 1866,2282 1872,2284 1877,2286 1883,2287 1889,2287 1895,2286
 1901,2284 1906,2282 1911,2278 1915,2274 1919,2269 1921,2263 1923,2258 1924,2252
 1923,2245 1922,2240 1920,2234 1917,2229 1913,2224 1909,2220 1904,2217 1898,2214
 1892,2213 1886,2213"
	stroke="#000000" stroke-width="8px" stroke-miterlimit="8"/>
<!-- Line -->
<defs>
<clipPath id="cp4">
	<path clip-rule="evenodd" d="M 348,1473 H 2712 V 2481 H 348 z
		M 1313,1889 1314,1895 1316,1901 1318,1906 1322,1911 1326,1915 1331,1919 1337,1921 1342,1923 1348,1924 1355,1923 1360,1922 1366,1920 1371,1917 1376,1913 1380,1909 1383,1904 1386,1898 1387,1892 1388,1886 1361,1838 1340,1838z
		M 1889,2287 1895,2286 1901,2284 1906,2282 1911,2278 1915,2274 1919,2269 1921,2263 1923,2258 1924,2252 1923,2245 1922,2240 1920,2234 1917,2229 1913,2224 1909,2220 1904,2217 1898,2214 1892,2213 1886,2213 1842,2243 1842,2257z"/>
</clipPath>
</defs>
<polyline points=" 1350,2250 1350,1845" clip-path="url(#cp4)"
	stroke="#000000" stroke-width="15px"/>
<!-- Forward arrow to point 1350,1845 -->
<polygon points=" 1388,1886 1387,1880 1386,1874 1383,1869 1380,1864 1376,1859
 1371,1855 1366,1852 1360,1850 1355,1849 1348,1849 1342,1850 1337,1851 1331,1854
 1326,1857 1322,1861 1318,1866 1316,1872 1314,1877 1313,1883 1313,1889 1314,1895
 1316,1901 1318,1906 1322,1911 1326,1915 1331,1919 1337,1921 1342,1923 1348,1924
 1355,1923 1360,1922 1366,1920 1371,1917 1376,1913 1380,1909 1383,1904 1386,1898
 1387,1892 1388,1886"
	stroke="#000000" stroke-width="8px" stroke-miterlimit="8"/>
<!-- Line -->
<defs>
<clipPath id="cp5">
	<path clip-rule="evenodd" d="M 348,1473 H 2712 V 2481 H 348 z
		M 1043,1889 1044,1895 1046,1901 1048,1906 1052,1911 1056,1915 1061,1919 1067,1921 1072,1923 1078,1924 1085,1923 1090,1922 1096,1920 1101,1917 1106,1913 1110,1909 1113,1904 1116,1898 1117,1892 1118,1886 1091,1838 1070,1838z
		M 1889,2287 1895,2286 1901,2284 1906,2282 1911,2278 1915,2274 1919,2269 1921,2263 1923,2258 1924,2252 1923,2245 1922,2240 1920,2234 1917,2229 1913,2224 1909,2220 1904,2217 1898,2214 1892,2213 1886,2213 1842,2243 1842,2257z"/>
</clipPath>
</defs>
<polyline points=" 1080,2250 1080,1845" clip-path="url(#cp5)"
	stroke="#000000" stroke-width="15px"/>
<!-- Forward arrow to point 1080,1845 -->
<polygon points=" 1118,1886 1117,1880 1116,1874 1113,1869 1110,1864 1106,1859
 1101,1855 1096,1852 1090,1850 1085,1849 1078,1849 1072,1850 1067,1851 1061,1854
 1056,1857 1052,1861 1048,1866 1046,1872 1044,1877 1043,1883 1043,1889 1044,1895
 1046,1901 1048,1906 1052,1911 1056,1915 1061,1919 1067,1921 1072,1923 1078,1924
 1085,1923 1090,1922 1096,1920 1101,1917 1106,1913 1110,1909 1113,1904 1116,1898
 1117,1892 1118,1886"
	stroke="#000000" stroke-width="8px" stroke-miterlimit="8"/>
<!-- Line -->
<defs>
<clipPath id="cp6">
	<path clip-rule="evenodd" d="M 348,1473 H 2712 V 2481 H 348 z
		M 773,1889 774,1895 776,1901 778,1906 782,1911 786,1915 791,1919 797,1921 802,1923 808,1924 815,1923 820,1922 826,1920 831,1917 836,1913 840,1909 843,1904 846,1898 847,1892 848,1886 821,1838 800,1838z
		M 1889,2287 1895,2286 1901,2284 1906,2282 1911,2278 1915,2274 1919,2269 1921,2263 1923,2258 1924,2252 1923,2245 1922,2240 1920,2234 1917,2229 1913,2224 1909,2220 1904,2217 1898,2214 1892,2213 1886,2213 1842,2243 1842,2257z"/>
</clipPath>
</defs>
<polyline points=" 810,2250 810,1845" clip-path="url(#cp6)"
	stroke="#000000" stroke-width="15px"/>
<!-- Forward arrow to point 810,1845 -->
<polygon points=" 848,1886 847,1880 846,1874 843,1869 840,1864 836,1859 831,1855
 826,1852 820,1850 815,1849 808,1849 802,1850 797,1851 791,1854 786,1857 782,1861
 778,1866 776,1872 774,1877 773,1883 773,1889 774,1895 776,1901 778,1906 782,1911
 786,1915 791,1919 797,1921 802,1923 808,1924 815,1923 820,1922 826,1920 831,1917
 836,1913 840,1909 843,1904 846,1898 847,1892 848,1886"
	stroke="#000000" stroke-width="8px" stroke-miterlimit="8"/>
<!-- Text -->
<text xml:space="preserve" x="1710" y="1620" fill="#000000" font-family="Times" font-style="normal" font-weight="normal" font-size="108" text-anchor="start">x[-n]</text>
<!-- Text -->
<text xml:space="preserve" x="675" y="2070" fill="#000000" font-family="Times" font-style="normal" font-weight="normal" font-size="108" text-anchor="end">\cdots</text>
<!-- Text -->
<text xml:space="preserve" x="2250" y="2115" fill="#000000" font-family="Times" font-style="normal" font-weight="normal" font-size="108" text-anchor="start">\cdots</text>
<!-- Text -->
<text xml:space="preserve" x="1710" y="1890" fill="#000000" font-family="Times" font-style="normal" font-weight="normal" font-size="108" text-anchor="start">1</text>
<!-- Text -->
<text xml:space="preserve" x="2610" y="2205" fill="#000000" font-family="Times" font-style="normal" font-weight="normal" font-size="108" text-anchor="start">n</text>
</g>
</svg>
