<?xml version="1.0" encoding="UTF-8" standalone="no"?>
<!-- Creator: fig2dev Version 3.2.8b -->
<!-- CreationDate: 2025-10-30 19:43:16 -->
<!-- Magnification: 1 -->
<svg	xmlns="http://www.w3.org/2000/svg"
	xmlns:xlink="http://www.w3.org/1999/xlink"
	width="142pt" height="66pt"
	viewBox="503 4830 2359 1093">
<g fill="none">
<!-- Line -->
<polyline points=" 525,5400 1200,5400 1275,5250 1350,5550 1425,5250 1500,5550 1575,5250 1650,5550
 1725,5250 1800,5550 1875,5400 2550,5400"
	stroke="#000000" stroke-width="15px"/>
<!-- Line -->
<defs>
<clipPath id="cp0">
	<path clip-rule="evenodd" d="M 503,4830 H 2862 V 5923 H 503 z
		M 1765,5078 1783,5100 1765,5123 1882,5107 1882,5093z
		M 1310,5123 1292,5100 1310,5078 1193,5093 1193,5107z"/>
</clipPath>
</defs>
<polyline points=" 1200,5100 1875,5100" clip-path="url(#cp0)"
	stroke="#000000" stroke-width="8px"/>
<!-- Forward arrow to point 1875,5100 -->
<polygon points=" 1765,5123 1858,5100 1765,5078 1783,5100 1765,5123"
	stroke="#000000" stroke-width="8px" stroke-miterlimit="8" fill="#000000"/>
<!-- Backward arrow to point 1200,5100 -->
<polygon points=" 1310,5078 1217,5100 1310,5123 1292,5100 1310,5078"
	stroke="#000000" stroke-width="8px" stroke-miterlimit="8" fill="#000000"/>
<!-- Line -->
<defs>
<clipPath id="cp1">
	<path clip-rule="evenodd" d="M 503,4830 H 2862 V 5923 H 503 z
		M 2740,5228 2758,5250 2740,5273 2857,5257 2857,5243z
		M 1310,5123 1292,5100 1310,5078 1193,5093 1193,5107z"/>
</clipPath>
</defs>
<polyline points=" 2400,5250 2850,5250" clip-path="url(#cp1)"
	stroke="#000000" stroke-width="8px"/>
<!-- Forward arrow to point 2850,5250 -->
<polygon points=" 2740,5273 2833,5250 2740,5228 2758,5250 2740,5273"
	stroke="#000000" stroke-width="8px" stroke-miterlimit="8" fill="#000000"/>
<!-- Text -->
<text xml:space="preserve" x="1191" y="5184" fill="#000000" font-family="Times" font-style="normal" font-weight="normal" font-size="132" text-anchor="end">-</text>
<!-- Text -->
<text xml:space="preserve" x="1500" y="5850" fill="#000000" font-family="Times" font-style="normal" font-weight="normal" font-size="168" text-anchor="middle">R</text>
<!-- Text -->
<text xml:space="preserve" x="1500" y="5025" fill="#000000" font-family="Times" font-style="normal" font-weight="normal" font-size="168" text-anchor="middle">v(t)</text>
<!-- Text -->
<text xml:space="preserve" x="1901" y="5184" fill="#000000" font-family="Times" font-style="normal" font-weight="normal" font-size="132" text-anchor="start">+</text>
<!-- Text -->
<text xml:space="preserve" x="2625" y="5175" fill="#000000" font-family="Times" font-style="normal" font-weight="normal" font-size="168" text-anchor="middle">i(t)</text>
</g>
</svg>
