<?xml version="1.0" encoding="UTF-8" standalone="no"?>
<!-- Creator: fig2dev Version 3.2.8b -->
<!-- CreationDate: 2025-10-30 19:43:16 -->
<!-- Magnification: 1.05 -->
<svg	xmlns="http://www.w3.org/2000/svg"
	xmlns:xlink="http://www.w3.org/1999/xlink"
	width="155pt" height="105pt"
	viewBox="78 1326 2454 1656">
<g fill="none">
<!-- Line -->
<defs>
<clipPath id="cp0">
	<path clip-rule="evenodd" d="M 78,1326 H 2532 V 2982 H 78 z
		M 1148,1482 1170,1460 1193,1482 1177,1343 1163,1343z"/>
</clipPath>
</defs>
<polyline points=" 1170,2970 1170,1350" clip-path="url(#cp0)"
	stroke="#000000" stroke-width="8px"/>
<!-- Forward arrow to point 1170,1350 -->
<polygon points=" 1193,1482 1170,1370 1148,1482 1170,1460 1193,1482"
	stroke="#000000" stroke-width="8px" stroke-miterlimit="8" fill="#000000"/>
<!-- Line -->
<defs>
<clipPath id="cp1">
	<path clip-rule="evenodd" d="M 78,1326 H 2532 V 2982 H 78 z
		M 2388,2228 2410,2250 2388,2273 2527,2257 2527,2243z"/>
</clipPath>
</defs>
<polyline points=" 90,2250 2520,2250" clip-path="url(#cp1)"
	stroke="#000000" stroke-width="8px"/>
<!-- Forward arrow to point 2520,2250 -->
<polygon points=" 2388,2273 2500,2250 2388,2228 2410,2250 2388,2273"
	stroke="#000000" stroke-width="8px" stroke-miterlimit="8" fill="#000000"/>
<!-- Line -->
<polyline points=" 1170,2250 1172,2248 1177,2244 1186,2236 1198,2225 1213,2211 1231,2195 1249,2177
 1268,2159 1286,2140 1303,2122 1319,2104 1334,2087 1347,2069 1360,2052 1372,2034
 1384,2015 1395,1995 1406,1974 1418,1951 1430,1928 1442,1903 1455,1878 1468,1852
 1481,1827 1495,1802 1509,1778 1522,1756 1536,1736 1550,1718 1563,1703 1577,1692
 1590,1683 1602,1678 1615,1677 1628,1680 1637,1685 1647,1692 1657,1701 1667,1714
 1678,1730 1689,1749 1701,1772 1714,1798 1727,1828 1742,1862 1758,1898 1774,1938
 1790,1980 1807,2024 1823,2067 1839,2108 1853,2146 1865,2179 1874,2206 1881,2226
 1886,2239 1889,2247 1890,2250"
	stroke="#000000" stroke-width="15px" stroke-linejoin="bevel"/>
<!-- Line -->
<polyline points=" 1170,2250 1168,2252 1163,2256 1154,2264 1142,2275 1127,2289 1109,2305 1091,2323
 1072,2341 1054,2360 1037,2378 1021,2396 1006,2413 993,2431 980,2448 968,2466
 956,2485 945,2505 934,2526 922,2549 910,2572 898,2597 885,2622 872,2648 859,2673
 845,2698 831,2722 818,2744 804,2764 790,2782 777,2797 763,2808 750,2817 738,2822
 725,2823 713,2820 703,2815 693,2808 683,2799 673,2786 662,2770 651,2751 639,2728
 626,2702 613,2672 598,2638 582,2602 566,2562 550,2520 533,2476 517,2433 501,2392
 487,2354 475,2321 466,2294 459,2274 454,2261 451,2253 450,2250"
	stroke="#000000" stroke-width="15px" stroke-linejoin="bevel"/>
<!-- Text -->
<text xml:space="preserve" x="2430" y="2160" fill="#000000" font-family="Times" font-style="normal" font-weight="normal" font-size="144" text-anchor="start">t</text>
<!-- Text -->
<text xml:space="preserve" x="1260" y="1485" fill="#000000" font-family="Times" font-style="normal" font-weight="normal" font-size="144" text-anchor="start">x(t)</text>
<!-- Text -->
<text xml:space="preserve" x="1215" y="2475" fill="#000000" font-family="Times" font-style="normal" font-weight="normal" font-size="144" text-anchor="start">0</text>
</g>
</svg>
