<?xml version="1.0" encoding="UTF-8" standalone="no"?>
<!-- Creator: fig2dev Version 3.2.8b -->
<!-- CreationDate: 2025-10-30 19:43:16 -->
<!-- Magnification: 1.05 -->
<svg	xmlns="http://www.w3.org/2000/svg"
	xmlns:xlink="http://www.w3.org/1999/xlink"
	width="300pt" height="492pt"
	viewBox="-1137 348 4749 7801">
<g fill="none">
<!-- Line -->
<defs>
<clipPath id="cp0">
	<path clip-rule="evenodd" d="M -1137,348 H 3612 V 8149 H -1137 z
		M 775,510 805,540 775,570 952,547 952,533z"/>
</clipPath>
</defs>
<polyline points=" 405,540 945,540" clip-path="url(#cp0)"
	stroke="#000000" stroke-width="8px"/>
<!-- Forward arrow to point 945,540 -->
<polygon points=" 775,570 925,540 775,510 805,540 775,570"
	stroke="#000000" stroke-width="8px" stroke-miterlimit="8" fill="#000000"/>
<!-- Line -->
<defs>
<clipPath id="cp1">
	<path clip-rule="evenodd" d="M -1137,348 H 3612 V 8149 H -1137 z
		M 1675,510 1705,540 1675,570 1852,547 1852,533z"/>
</clipPath>
</defs>
<polyline points=" 1395,540 1845,540" clip-path="url(#cp1)"
	stroke="#000000" stroke-width="8px"/>
<!-- Forward arrow to point 1845,540 -->
<polygon points=" 1675,570 1825,540 1675,510 1705,540 1675,570"
	stroke="#000000" stroke-width="8px" stroke-miterlimit="8" fill="#000000"/>
<!-- Line -->
<rect x="945" y="360" width="450" height="360"
	stroke="#000000" stroke-width="8px"/>
<!-- Text -->
<text xml:space="preserve" x="1170" y="585" fill="#000000" font-family="Times" font-style="normal" font-weight="normal" font-size="144" text-anchor="middle">T</text>
<!-- Text -->
<text xml:space="preserve" x="360" y="585" fill="#000000" font-family="Times" font-style="normal" font-weight="normal" font-size="144" text-anchor="end">x[n]</text>
<!-- Text -->
<text xml:space="preserve" x="1935" y="585" fill="#000000" font-family="Times" font-style="normal" font-weight="normal" font-size="144" text-anchor="start">x[n-n<tspan font-size="96" baseline-shift="sub">0</tspan>]</text>
<!-- Line -->
<defs>
<clipPath id="cp2">
	<path clip-rule="evenodd" d="M -1137,348 H 3612 V 8149 H -1137 z
		M 1155,1160 1170,1145 1185,1160 1177,1058 1163,1058z"/>
</clipPath>
</defs>
<polyline points=" 1170,2190 1170,1065" clip-path="url(#cp2)"
	stroke="#000000" stroke-width="8px"/>
<!-- Forward arrow to point 1170,1065 -->
<polygon points=" 1185,1160 1170,1085 1155,1160 1170,1145 1185,1160"
	stroke="#000000" stroke-width="8px" stroke-miterlimit="8" fill="#000000"/>
<!-- Line -->
<defs>
<clipPath id="cp3">
	<path clip-rule="evenodd" d="M -1137,348 H 3612 V 8149 H -1137 z
		M 2785,2040 2800,2055 2785,2070 2887,2062 2887,2048z"/>
</clipPath>
</defs>
<polyline points=" -225,2055 2880,2055" clip-path="url(#cp3)"
	stroke="#000000" stroke-width="8px"/>
<!-- Forward arrow to point 2880,2055 -->
<polygon points=" 2785,2070 2860,2055 2785,2040 2800,2055 2785,2070"
	stroke="#000000" stroke-width="8px" stroke-miterlimit="8" fill="#000000"/>
<!-- Text -->
<text xml:space="preserve" x="1170" y="2325" fill="#000000" font-family="Times" font-style="normal" font-weight="normal" font-size="144" text-anchor="middle">0</text>
<!-- Line -->
<defs>
<clipPath id="cp4">
	<path clip-rule="evenodd" d="M -1137,348 H 3612 V 8149 H -1137 z
		M 775,3435 805,3465 775,3495 952,3472 952,3458z"/>
</clipPath>
</defs>
<polyline points=" 405,3465 945,3465" clip-path="url(#cp4)"
	stroke="#000000" stroke-width="8px"/>
<!-- Forward arrow to point 945,3465 -->
<polygon points=" 775,3495 925,3465 775,3435 805,3465 775,3495"
	stroke="#000000" stroke-width="8px" stroke-miterlimit="8" fill="#000000"/>
<!-- Line -->
<defs>
<clipPath id="cp5">
	<path clip-rule="evenodd" d="M -1137,348 H 3612 V 8149 H -1137 z
		M 1675,3435 1705,3465 1675,3495 1852,3472 1852,3458z"/>
</clipPath>
</defs>
<polyline points=" 1395,3465 1845,3465" clip-path="url(#cp5)"
	stroke="#000000" stroke-width="8px"/>
<!-- Forward arrow to point 1845,3465 -->
<polygon points=" 1675,3495 1825,3465 1675,3435 1705,3465 1675,3495"
	stroke="#000000" stroke-width="8px" stroke-miterlimit="8" fill="#000000"/>
<!-- Line -->
<rect x="945" y="3285" width="450" height="360"
	stroke="#000000" stroke-width="8px"/>
<!-- Text -->
<text xml:space="preserve" x="1170" y="3510" fill="#000000" font-family="Times" font-style="normal" font-weight="normal" font-size="144" text-anchor="middle">T</text>
<!-- Text -->
<text xml:space="preserve" x="360" y="3510" fill="#000000" font-family="Times" font-style="normal" font-weight="normal" font-size="144" text-anchor="end">x[n]</text>
<!-- Text -->
<text xml:space="preserve" x="1935" y="3510" fill="#000000" font-family="Times" font-style="normal" font-weight="normal" font-size="144" text-anchor="start">x[kn],\ k\in\mathbb{N}</text>
<!-- Line -->
<defs>
<clipPath id="cp6">
	<path clip-rule="evenodd" d="M -1137,348 H 3612 V 8149 H -1137 z
		M 1155,4130 1170,4115 1185,4130 1177,4028 1163,4028z"/>
</clipPath>
</defs>
<polyline points=" 1170,5160 1170,4035" clip-path="url(#cp6)"
	stroke="#000000" stroke-width="8px"/>
<!-- Forward arrow to point 1170,4035 -->
<polygon points=" 1185,4130 1170,4055 1155,4130 1170,4115 1185,4130"
	stroke="#000000" stroke-width="8px" stroke-miterlimit="8" fill="#000000"/>
<!-- Line -->
<defs>
<clipPath id="cp7">
	<path clip-rule="evenodd" d="M -1137,348 H 3612 V 8149 H -1137 z
		M 2110,5010 2125,5025 2110,5040 2212,5032 2212,5018z"/>
</clipPath>
</defs>
<polyline points=" 315,5025 2205,5025" clip-path="url(#cp7)"
	stroke="#000000" stroke-width="8px"/>
<!-- Forward arrow to point 2205,5025 -->
<polygon points=" 2110,5040 2185,5025 2110,5010 2125,5025 2110,5040"
	stroke="#000000" stroke-width="8px" stroke-miterlimit="8" fill="#000000"/>
<!-- Text -->
<text xml:space="preserve" x="1170" y="5295" fill="#000000" font-family="Times" font-style="normal" font-weight="normal" font-size="144" text-anchor="middle">0</text>
<!-- Line -->
<defs>
<clipPath id="cp8">
	<path clip-rule="evenodd" d="M -1137,348 H 3612 V 8149 H -1137 z
		M 760,6180 790,6210 760,6240 937,6217 937,6203z"/>
</clipPath>
</defs>
<polyline points=" 390,6210 930,6210" clip-path="url(#cp8)"
	stroke="#000000" stroke-width="8px"/>
<!-- Forward arrow to point 930,6210 -->
<polygon points=" 760,6240 910,6210 760,6180 790,6210 760,6240"
	stroke="#000000" stroke-width="8px" stroke-miterlimit="8" fill="#000000"/>
<!-- Line -->
<defs>
<clipPath id="cp9">
	<path clip-rule="evenodd" d="M -1137,348 H 3612 V 8149 H -1137 z
		M 1660,6180 1690,6210 1660,6240 1837,6217 1837,6203z"/>
</clipPath>
</defs>
<polyline points=" 1380,6210 1830,6210" clip-path="url(#cp9)"
	stroke="#000000" stroke-width="8px"/>
<!-- Forward arrow to point 1830,6210 -->
<polygon points=" 1660,6240 1810,6210 1660,6180 1690,6210 1660,6240"
	stroke="#000000" stroke-width="8px" stroke-miterlimit="8" fill="#000000"/>
<!-- Line -->
<rect x="930" y="6030" width="450" height="360"
	stroke="#000000" stroke-width="8px"/>
<!-- Text -->
<text xml:space="preserve" x="1155" y="6255" fill="#000000" font-family="Times" font-style="normal" font-weight="normal" font-size="144" text-anchor="middle">T</text>
<!-- Text -->
<text xml:space="preserve" x="345" y="6255" fill="#000000" font-family="Times" font-style="normal" font-weight="normal" font-size="144" text-anchor="end">x[n]</text>
<!-- Text -->
<text xml:space="preserve" x="1920" y="6255" fill="#000000" font-family="Times" font-style="normal" font-weight="normal" font-size="144" text-anchor="start">x[n/k],\ k\in\mathbb{N}</text>
<!-- Line -->
<defs>
<clipPath id="cp10">
	<path clip-rule="evenodd" d="M -1137,348 H 3612 V 8149 H -1137 z
		M 1155,6920 1170,6905 1185,6920 1177,6818 1163,6818z"/>
</clipPath>
</defs>
<polyline points=" 1170,7950 1170,6825" clip-path="url(#cp10)"
	stroke="#000000" stroke-width="8px"/>
<!-- Forward arrow to point 1170,6825 -->
<polygon points=" 1185,6920 1170,6845 1155,6920 1170,6905 1185,6920"
	stroke="#000000" stroke-width="8px" stroke-miterlimit="8" fill="#000000"/>
<!-- Line -->
<defs>
<clipPath id="cp11">
	<path clip-rule="evenodd" d="M -1137,348 H 3612 V 8149 H -1137 z
		M 3505,7800 3520,7815 3505,7830 3607,7822 3607,7808z"/>
</clipPath>
</defs>
<polyline points=" -1125,7815 3600,7815" clip-path="url(#cp11)"
	stroke="#000000" stroke-width="8px"/>
<!-- Forward arrow to point 3600,7815 -->
<polygon points=" 3505,7830 3580,7815 3505,7800 3520,7815 3505,7830"
	stroke="#000000" stroke-width="8px" stroke-miterlimit="8" fill="#000000"/>
<!-- Text -->
<text xml:space="preserve" x="1170" y="8085" fill="#000000" font-family="Times" font-style="normal" font-weight="normal" font-size="144" text-anchor="middle">0</text>
<!-- Text -->
<text xml:space="preserve" x="-900" y="3015" fill="#000000" font-family="Times" font-style="normal" font-weight="normal" font-size="144" text-anchor="start">* {\bf Compresi\'on o diezmado}:</text>
<!-- Text -->
<text xml:space="preserve" x="-900" y="5760" fill="#000000" font-family="Times" font-style="normal" font-weight="normal" font-size="144" text-anchor="start">* {\bf Expansi\'on o inserci\'on de ceros}:</text>
<!-- Line -->
<defs>
<clipPath id="cp12">
	<path clip-rule="evenodd" d="M -1137,348 H 3612 V 8149 H -1137 z
		M 593,1709 594,1715 596,1721 598,1726 602,1731 606,1735 611,1739 617,1741 622,1743 628,1744 635,1743 640,1742 646,1740 651,1737 656,1733 660,1729 663,1724 666,1718 667,1712 668,1706 641,1658 620,1658z"/>
</clipPath>
</defs>
<polyline points=" 630,2055 630,1665" clip-path="url(#cp12)"
	stroke="#000000" stroke-width="15px"/>
<!-- Forward arrow to point 630,1665 -->
<polygon points=" 668,1706 667,1700 666,1694 663,1689 660,1684 656,1679 651,1675
 646,1672 640,1670 635,1669 628,1669 622,1670 617,1671 611,1674 606,1677 602,1681
 598,1686 596,1692 594,1697 593,1703 593,1709 594,1715 596,1721 598,1726 602,1731
 606,1735 611,1739 617,1741 622,1743 628,1744 635,1743 640,1742 646,1740 651,1737
 656,1733 660,1729 663,1724 666,1718 667,1712 668,1706"
	stroke="#000000" stroke-width="8px" stroke-miterlimit="8"/>
<!-- Line -->
<defs>
<clipPath id="cp13">
	<path clip-rule="evenodd" d="M -1137,348 H 3612 V 8149 H -1137 z
		M 1133,1349 1134,1355 1136,1361 1138,1366 1142,1371 1146,1375 1151,1379 1157,1381 1162,1383 1168,1384 1175,1383 1180,1382 1186,1380 1191,1377 1196,1373 1200,1369 1203,1364 1206,1358 1207,1352 1208,1346 1181,1298 1160,1298z"/>
</clipPath>
</defs>
<polyline points=" 1170,2055 1170,1305" clip-path="url(#cp13)"
	stroke="#000000" stroke-width="15px"/>
<!-- Forward arrow to point 1170,1305 -->
<polygon points=" 1208,1346 1207,1340 1206,1334 1203,1329 1200,1324 1196,1319
 1191,1315 1186,1312 1180,1310 1175,1309 1168,1309 1162,1310 1157,1311 1151,1314
 1146,1317 1142,1321 1138,1326 1136,1332 1134,1337 1133,1343 1133,1349 1134,1355
 1136,1361 1138,1366 1142,1371 1146,1375 1151,1379 1157,1381 1162,1383 1168,1384
 1175,1383 1180,1382 1186,1380 1191,1377 1196,1373 1200,1369 1203,1364 1206,1358
 1207,1352 1208,1346"
	stroke="#000000" stroke-width="8px" stroke-miterlimit="8"/>
<!-- Line -->
<defs>
<clipPath id="cp14">
	<path clip-rule="evenodd" d="M -1137,348 H 3612 V 8149 H -1137 z
		M 1403,1484 1404,1490 1406,1496 1408,1501 1412,1506 1416,1510 1421,1514 1427,1516 1432,1518 1438,1519 1445,1518 1450,1517 1456,1515 1461,1512 1466,1508 1470,1504 1473,1499 1476,1493 1477,1487 1478,1481 1451,1433 1430,1433z"/>
</clipPath>
</defs>
<polyline points=" 1440,2055 1440,1440" clip-path="url(#cp14)"
	stroke="#000000" stroke-width="15px"/>
<!-- Forward arrow to point 1440,1440 -->
<polygon points=" 1478,1481 1477,1475 1476,1469 1473,1464 1470,1459 1466,1454
 1461,1450 1456,1447 1450,1445 1445,1444 1438,1444 1432,1445 1427,1446 1421,1449
 1416,1452 1412,1456 1408,1461 1406,1467 1404,1472 1403,1478 1403,1484 1404,1490
 1406,1496 1408,1501 1412,1506 1416,1510 1421,1514 1427,1516 1432,1518 1438,1519
 1445,1518 1450,1517 1456,1515 1461,1512 1466,1508 1470,1504 1473,1499 1476,1493
 1477,1487 1478,1481"
	stroke="#000000" stroke-width="8px" stroke-miterlimit="8"/>
<!-- Line -->
<defs>
<clipPath id="cp15">
	<path clip-rule="evenodd" d="M -1137,348 H 3612 V 8149 H -1137 z
		M 1673,1709 1674,1715 1676,1721 1678,1726 1682,1731 1686,1735 1691,1739 1697,1741 1702,1743 1708,1744 1715,1743 1720,1742 1726,1740 1731,1737 1736,1733 1740,1729 1743,1724 1746,1718 1747,1712 1748,1706 1721,1658 1700,1658z"/>
</clipPath>
</defs>
<polyline points=" 1710,2055 1710,1665" clip-path="url(#cp15)"
	stroke="#000000" stroke-width="15px"/>
<!-- Forward arrow to point 1710,1665 -->
<polygon points=" 1748,1706 1747,1700 1746,1694 1743,1689 1740,1684 1736,1679
 1731,1675 1726,1672 1720,1670 1715,1669 1708,1669 1702,1670 1697,1671 1691,1674
 1686,1677 1682,1681 1678,1686 1676,1692 1674,1697 1673,1703 1673,1709 1674,1715
 1676,1721 1678,1726 1682,1731 1686,1735 1691,1739 1697,1741 1702,1743 1708,1744
 1715,1743 1720,1742 1726,1740 1731,1737 1736,1733 1740,1729 1743,1724 1746,1718
 1747,1712 1748,1706"
	stroke="#000000" stroke-width="8px" stroke-miterlimit="8"/>
<!-- Line -->
<defs>
<clipPath id="cp16">
	<path clip-rule="evenodd" d="M -1137,348 H 3612 V 8149 H -1137 z
		M 863,1484 864,1490 866,1496 868,1501 872,1506 876,1510 881,1514 887,1516 892,1518 898,1519 905,1518 910,1517 916,1515 921,1512 926,1508 930,1504 933,1499 936,1493 937,1487 938,1481 911,1433 890,1433z"/>
</clipPath>
</defs>
<polyline points=" 900,2055 900,1440" clip-path="url(#cp16)"
	stroke="#000000" stroke-width="15px"/>
<!-- Forward arrow to point 900,1440 -->
<polygon points=" 938,1481 937,1475 936,1469 933,1464 930,1459 926,1454 921,1450
 916,1447 910,1445 905,1444 898,1444 892,1445 887,1446 881,1449 876,1452 872,1456
 868,1461 866,1467 864,1472 863,1478 863,1484 864,1490 866,1496 868,1501 872,1506
 876,1510 881,1514 887,1516 892,1518 898,1519 905,1518 910,1517 916,1515 921,1512
 926,1508 930,1504 933,1499 936,1493 937,1487 938,1481"
	stroke="#000000" stroke-width="8px" stroke-miterlimit="8"/>
<!-- Line -->
<defs>
<clipPath id="cp17">
	<path clip-rule="evenodd" d="M -1137,348 H 3612 V 8149 H -1137 z
		M 323,1754 324,1760 326,1766 328,1771 332,1776 336,1780 341,1784 347,1786 352,1788 358,1789 365,1788 370,1787 376,1785 381,1782 386,1778 390,1774 393,1769 396,1763 397,1757 398,1751 371,1703 350,1703z"/>
</clipPath>
</defs>
<polyline points=" 360,2055 360,1710" clip-path="url(#cp17)"
	stroke="#000000" stroke-width="15px"/>
<!-- Forward arrow to point 360,1710 -->
<polygon points=" 398,1751 397,1745 396,1739 393,1734 390,1729 386,1724 381,1720
 376,1717 370,1715 365,1714 358,1714 352,1715 347,1716 341,1719 336,1722 332,1726
 328,1731 326,1737 324,1742 323,1748 323,1754 324,1760 326,1766 328,1771 332,1776
 336,1780 341,1784 347,1786 352,1788 358,1789 365,1788 370,1787 376,1785 381,1782
 386,1778 390,1774 393,1769 396,1763 397,1757 398,1751"
	stroke="#000000" stroke-width="8px" stroke-miterlimit="8"/>
<!-- Line -->
<defs>
<clipPath id="cp18">
	<path clip-rule="evenodd" d="M -1137,348 H 3612 V 8149 H -1137 z
		M 1943,1754 1944,1760 1946,1766 1948,1771 1952,1776 1956,1780 1961,1784 1967,1786 1972,1788 1978,1789 1985,1788 1990,1787 1996,1785 2001,1782 2006,1778 2010,1774 2013,1769 2016,1763 2017,1757 2018,1751 1991,1703 1970,1703z"/>
</clipPath>
</defs>
<polyline points=" 1980,2055 1980,1710" clip-path="url(#cp18)"
	stroke="#000000" stroke-width="15px"/>
<!-- Forward arrow to point 1980,1710 -->
<polygon points=" 2018,1751 2017,1745 2016,1739 2013,1734 2010,1729 2006,1724
 2001,1720 1996,1717 1990,1715 1985,1714 1978,1714 1972,1715 1967,1716 1961,1719
 1956,1722 1952,1726 1948,1731 1946,1737 1944,1742 1943,1748 1943,1754 1944,1760
 1946,1766 1948,1771 1952,1776 1956,1780 1961,1784 1967,1786 1972,1788 1978,1789
 1985,1788 1990,1787 1996,1785 2001,1782 2006,1778 2010,1774 2013,1769 2016,1763
 2017,1757 2018,1751"
	stroke="#000000" stroke-width="8px" stroke-miterlimit="8"/>
<!-- Line -->
<defs>
<clipPath id="cp19">
	<path clip-rule="evenodd" d="M -1137,348 H 3612 V 8149 H -1137 z
		M 188,1889 189,1895 191,1901 193,1906 197,1911 201,1915 206,1919 212,1921 217,1923 223,1924 230,1923 235,1922 241,1920 246,1917 251,1913 255,1909 258,1904 261,1898 262,1892 263,1886 236,1838 215,1838z"/>
</clipPath>
</defs>
<polyline points=" 225,2055 225,1845" clip-path="url(#cp19)"
	stroke="#000000" stroke-width="15px"/>
<!-- Forward arrow to point 225,1845 -->
<polygon points=" 263,1886 262,1880 261,1874 258,1869 255,1864 251,1859 246,1855
 241,1852 235,1850 230,1849 223,1849 217,1850 212,1851 206,1854 201,1857 197,1861
 193,1866 191,1872 189,1877 188,1883 188,1889 189,1895 191,1901 193,1906 197,1911
 201,1915 206,1919 212,1921 217,1923 223,1924 230,1923 235,1922 241,1920 246,1917
 251,1913 255,1909 258,1904 261,1898 262,1892 263,1886"
	stroke="#000000" stroke-width="8px" stroke-miterlimit="8"/>
<!-- Line -->
<defs>
<clipPath id="cp20">
	<path clip-rule="evenodd" d="M -1137,348 H 3612 V 8149 H -1137 z
		M 458,1709 459,1715 461,1721 463,1726 467,1731 471,1735 476,1739 482,1741 487,1743 493,1744 500,1743 505,1742 511,1740 516,1737 521,1733 525,1729 528,1724 531,1718 532,1712 533,1706 506,1658 485,1658z"/>
</clipPath>
</defs>
<polyline points=" 495,2055 495,1665" clip-path="url(#cp20)"
	stroke="#000000" stroke-width="15px"/>
<!-- Forward arrow to point 495,1665 -->
<polygon points=" 533,1706 532,1700 531,1694 528,1689 525,1684 521,1679 516,1675
 511,1672 505,1670 500,1669 493,1669 487,1670 482,1671 476,1674 471,1677 467,1681
 463,1686 461,1692 459,1697 458,1703 458,1709 459,1715 461,1721 463,1726 467,1731
 471,1735 476,1739 482,1741 487,1743 493,1744 500,1743 505,1742 511,1740 516,1737
 521,1733 525,1729 528,1724 531,1718 532,1712 533,1706"
	stroke="#000000" stroke-width="8px" stroke-miterlimit="8"/>
<!-- Line -->
<defs>
<clipPath id="cp21">
	<path clip-rule="evenodd" d="M -1137,348 H 3612 V 8149 H -1137 z
		M 728,1574 729,1580 731,1586 733,1591 737,1596 741,1600 746,1604 752,1606 757,1608 763,1609 770,1608 775,1607 781,1605 786,1602 791,1598 795,1594 798,1589 801,1583 802,1577 803,1571 776,1523 755,1523z"/>
</clipPath>
</defs>
<polyline points=" 765,2055 765,1530" clip-path="url(#cp21)"
	stroke="#000000" stroke-width="15px"/>
<!-- Forward arrow to point 765,1530 -->
<polygon points=" 803,1571 802,1565 801,1559 798,1554 795,1549 791,1544 786,1540
 781,1537 775,1535 770,1534 763,1534 757,1535 752,1536 746,1539 741,1542 737,1546
 733,1551 731,1557 729,1562 728,1568 728,1574 729,1580 731,1586 733,1591 737,1596
 741,1600 746,1604 752,1606 757,1608 763,1609 770,1608 775,1607 781,1605 786,1602
 791,1598 795,1594 798,1589 801,1583 802,1577 803,1571"
	stroke="#000000" stroke-width="8px" stroke-miterlimit="8"/>
<!-- Line -->
<defs>
<clipPath id="cp22">
	<path clip-rule="evenodd" d="M -1137,348 H 3612 V 8149 H -1137 z
		M 998,1394 999,1400 1001,1406 1003,1411 1007,1416 1011,1420 1016,1424 1022,1426 1027,1428 1033,1429 1040,1428 1045,1427 1051,1425 1056,1422 1061,1418 1065,1414 1068,1409 1071,1403 1072,1397 1073,1391 1046,1343 1025,1343z"/>
</clipPath>
</defs>
<polyline points=" 1035,2055 1035,1350" clip-path="url(#cp22)"
	stroke="#000000" stroke-width="15px"/>
<!-- Forward arrow to point 1035,1350 -->
<polygon points=" 1073,1391 1072,1385 1071,1379 1068,1374 1065,1369 1061,1364
 1056,1360 1051,1357 1045,1355 1040,1354 1033,1354 1027,1355 1022,1356 1016,1359
 1011,1362 1007,1366 1003,1371 1001,1377 999,1382 998,1388 998,1394 999,1400 1001,1406
 1003,1411 1007,1416 1011,1420 1016,1424 1022,1426 1027,1428 1033,1429 1040,1428
 1045,1427 1051,1425 1056,1422 1061,1418 1065,1414 1068,1409 1071,1403 1072,1397
 1073,1391"
	stroke="#000000" stroke-width="8px" stroke-miterlimit="8"/>
<!-- Line -->
<defs>
<clipPath id="cp23">
	<path clip-rule="evenodd" d="M -1137,348 H 3612 V 8149 H -1137 z
		M 1268,1394 1269,1400 1271,1406 1273,1411 1277,1416 1281,1420 1286,1424 1292,1426 1297,1428 1303,1429 1310,1428 1315,1427 1321,1425 1326,1422 1331,1418 1335,1414 1338,1409 1341,1403 1342,1397 1343,1391 1316,1343 1295,1343z"/>
</clipPath>
</defs>
<polyline points=" 1305,2055 1305,1350" clip-path="url(#cp23)"
	stroke="#000000" stroke-width="15px"/>
<!-- Forward arrow to point 1305,1350 -->
<polygon points=" 1343,1391 1342,1385 1341,1379 1338,1374 1335,1369 1331,1364
 1326,1360 1321,1357 1315,1355 1310,1354 1303,1354 1297,1355 1292,1356 1286,1359
 1281,1362 1277,1366 1273,1371 1271,1377 1269,1382 1268,1388 1268,1394 1269,1400
 1271,1406 1273,1411 1277,1416 1281,1420 1286,1424 1292,1426 1297,1428 1303,1429
 1310,1428 1315,1427 1321,1425 1326,1422 1331,1418 1335,1414 1338,1409 1341,1403
 1342,1397 1343,1391"
	stroke="#000000" stroke-width="8px" stroke-miterlimit="8"/>
<!-- Line -->
<defs>
<clipPath id="cp24">
	<path clip-rule="evenodd" d="M -1137,348 H 3612 V 8149 H -1137 z
		M 1538,1574 1539,1580 1541,1586 1543,1591 1547,1596 1551,1600 1556,1604 1562,1606 1567,1608 1573,1609 1580,1608 1585,1607 1591,1605 1596,1602 1601,1598 1605,1594 1608,1589 1611,1583 1612,1577 1613,1571 1586,1523 1565,1523z"/>
</clipPath>
</defs>
<polyline points=" 1575,2055 1575,1530" clip-path="url(#cp24)"
	stroke="#000000" stroke-width="15px"/>
<!-- Forward arrow to point 1575,1530 -->
<polygon points=" 1613,1571 1612,1565 1611,1559 1608,1554 1605,1549 1601,1544
 1596,1540 1591,1537 1585,1535 1580,1534 1573,1534 1567,1535 1562,1536 1556,1539
 1551,1542 1547,1546 1543,1551 1541,1557 1539,1562 1538,1568 1538,1574 1539,1580
 1541,1586 1543,1591 1547,1596 1551,1600 1556,1604 1562,1606 1567,1608 1573,1609
 1580,1608 1585,1607 1591,1605 1596,1602 1601,1598 1605,1594 1608,1589 1611,1583
 1612,1577 1613,1571"
	stroke="#000000" stroke-width="8px" stroke-miterlimit="8"/>
<!-- Line -->
<defs>
<clipPath id="cp25">
	<path clip-rule="evenodd" d="M -1137,348 H 3612 V 8149 H -1137 z
		M 1808,1709 1809,1715 1811,1721 1813,1726 1817,1731 1821,1735 1826,1739 1832,1741 1837,1743 1843,1744 1850,1743 1855,1742 1861,1740 1866,1737 1871,1733 1875,1729 1878,1724 1881,1718 1882,1712 1883,1706 1856,1658 1835,1658z"/>
</clipPath>
</defs>
<polyline points=" 1845,2055 1845,1665" clip-path="url(#cp25)"
	stroke="#000000" stroke-width="15px"/>
<!-- Forward arrow to point 1845,1665 -->
<polygon points=" 1883,1706 1882,1700 1881,1694 1878,1689 1875,1684 1871,1679
 1866,1675 1861,1672 1855,1670 1850,1669 1843,1669 1837,1670 1832,1671 1826,1674
 1821,1677 1817,1681 1813,1686 1811,1692 1809,1697 1808,1703 1808,1709 1809,1715
 1811,1721 1813,1726 1817,1731 1821,1735 1826,1739 1832,1741 1837,1743 1843,1744
 1850,1743 1855,1742 1861,1740 1866,1737 1871,1733 1875,1729 1878,1724 1881,1718
 1882,1712 1883,1706"
	stroke="#000000" stroke-width="8px" stroke-miterlimit="8"/>
<!-- Line -->
<defs>
<clipPath id="cp26">
	<path clip-rule="evenodd" d="M -1137,348 H 3612 V 8149 H -1137 z
		M 2078,1889 2079,1895 2081,1901 2083,1906 2087,1911 2091,1915 2096,1919 2102,1921 2107,1923 2113,1924 2120,1923 2125,1922 2131,1920 2136,1917 2141,1913 2145,1909 2148,1904 2151,1898 2152,1892 2153,1886 2126,1838 2105,1838z"/>
</clipPath>
</defs>
<polyline points=" 2115,2055 2115,1845" clip-path="url(#cp26)"
	stroke="#000000" stroke-width="15px"/>
<!-- Forward arrow to point 2115,1845 -->
<polygon points=" 2153,1886 2152,1880 2151,1874 2148,1869 2145,1864 2141,1859
 2136,1855 2131,1852 2125,1850 2120,1849 2113,1849 2107,1850 2102,1851 2096,1854
 2091,1857 2087,1861 2083,1866 2081,1872 2079,1877 2078,1883 2078,1889 2079,1895
 2081,1901 2083,1906 2087,1911 2091,1915 2096,1919 2102,1921 2107,1923 2113,1924
 2120,1923 2125,1922 2131,1920 2136,1917 2141,1913 2145,1909 2148,1904 2151,1898
 2152,1892 2153,1886"
	stroke="#000000" stroke-width="8px" stroke-miterlimit="8"/>
<!-- Line -->
<defs>
<clipPath id="cp27">
	<path clip-rule="evenodd" d="M -1137,348 H 3612 V 8149 H -1137 z
		M 2386,2018 2380,2019 2374,2021 2369,2023 2364,2027 2360,2031 2356,2036 2354,2042 2352,2047 2351,2053 2352,2060 2353,2065 2355,2071 2358,2076 2362,2081 2366,2085 2371,2088 2377,2091 2383,2092 2389,2093 2433,2062 2433,2048z
		M 2249,2092 2255,2091 2261,2089 2266,2087 2271,2083 2275,2079 2279,2074 2281,2068 2283,2063 2284,2057 2283,2050 2282,2045 2280,2039 2277,2034 2273,2029 2269,2025 2264,2022 2258,2019 2252,2018 2246,2018 2202,2048 2202,2062z"/>
</clipPath>
</defs>
<polyline points=" 2205,2055 2430,2055" clip-path="url(#cp27)"
	stroke="#000000" stroke-width="8px"/>
<!-- Forward arrow to point 2430,2055 -->
<polygon points=" 2389,2093 2395,2092 2401,2091 2406,2088 2411,2085 2416,2081
 2420,2076 2423,2071 2425,2065 2426,2060 2426,2053 2425,2047 2424,2042 2421,2036
 2418,2031 2414,2027 2409,2023 2403,2021 2398,2019 2392,2018 2386,2018 2380,2019
 2374,2021 2369,2023 2364,2027 2360,2031 2356,2036 2354,2042 2352,2047 2351,2053
 2352,2060 2353,2065 2355,2071 2358,2076 2362,2081 2366,2085 2371,2088 2377,2091
 2383,2092 2389,2093"
	stroke="#000000" stroke-width="8px" stroke-miterlimit="8"/>
<!-- Backward arrow to point 2205,2055 -->
<polygon points=" 2246,2018 2240,2018 2234,2019 2229,2022 2224,2025 2219,2029
 2215,2034 2212,2039 2210,2045 2209,2050 2209,2057 2210,2063 2211,2068 2214,2074
 2217,2079 2221,2083 2226,2087 2232,2089 2237,2091 2243,2092 2249,2092 2255,2091
 2261,2089 2266,2087 2271,2083 2275,2079 2279,2074 2281,2068 2283,2063 2284,2057
 2283,2050 2282,2045 2280,2039 2277,2034 2273,2029 2269,2025 2264,2022 2258,2019
 2252,2018 2246,2018"
	stroke="#000000" stroke-width="8px" stroke-miterlimit="8"/>
<!-- Line -->
<defs>
<clipPath id="cp28">
	<path clip-rule="evenodd" d="M -1137,348 H 3612 V 8149 H -1137 z
		M 91,2018 85,2019 79,2021 74,2023 69,2027 65,2031 61,2036 59,2042 57,2047 56,2053 57,2060 58,2065 60,2071 63,2076 67,2081 71,2085 76,2088 82,2091 88,2092 94,2093 138,2062 138,2048z
		M -46,2092 -40,2091 -34,2089 -29,2087 -24,2083 -20,2079 -16,2074 -14,2068 -12,2063 -11,2057 -12,2050 -13,2045 -15,2039 -18,2034 -22,2029 -26,2025 -31,2022 -37,2019 -43,2018 -49,2018 -93,2048 -93,2062z"/>
</clipPath>
</defs>
<polyline points=" -90,2055 135,2055" clip-path="url(#cp28)"
	stroke="#000000" stroke-width="8px"/>
<!-- Forward arrow to point 135,2055 -->
<polygon points=" 94,2093 100,2092 106,2091 111,2088 116,2085 121,2081 125,2076
 128,2071 130,2065 131,2060 131,2053 130,2047 129,2042 126,2036 123,2031 119,2027
 114,2023 108,2021 103,2019 97,2018 91,2018 85,2019 79,2021 74,2023 69,2027 65,2031
 61,2036 59,2042 57,2047 56,2053 57,2060 58,2065 60,2071 63,2076 67,2081 71,2085
 76,2088 82,2091 88,2092 94,2093"
	stroke="#000000" stroke-width="8px" stroke-miterlimit="8"/>
<!-- Backward arrow to point -90,2055 -->
<polygon points=" -49,2018 -55,2018 -61,2019 -66,2022 -71,2025 -76,2029 -80,2034
 -83,2039 -85,2045 -86,2050 -86,2057 -85,2063 -84,2068 -81,2074 -78,2079 -74,2083
 -69,2087 -63,2089 -58,2091 -52,2092 -46,2092 -40,2091 -34,2089 -29,2087 -24,2083
 -20,2079 -16,2074 -14,2068 -12,2063 -11,2057 -12,2050 -13,2045 -15,2039 -18,2034
 -22,2029 -26,2025 -31,2022 -37,2019 -43,2018 -49,2018"
	stroke="#000000" stroke-width="8px" stroke-miterlimit="8"/>
<!-- Line -->
<defs>
<clipPath id="cp29">
	<path clip-rule="evenodd" d="M -1137,348 H 3612 V 8149 H -1137 z
		M 1133,4319 1134,4325 1136,4331 1138,4336 1142,4341 1146,4345 1151,4349 1157,4351 1162,4353 1168,4354 1175,4353 1180,4352 1186,4350 1191,4347 1196,4343 1200,4339 1203,4334 1206,4328 1207,4322 1208,4316 1181,4268 1160,4268z
		M -46,2092 -40,2091 -34,2089 -29,2087 -24,2083 -20,2079 -16,2074 -14,2068 -12,2063 -11,2057 -12,2050 -13,2045 -15,2039 -18,2034 -22,2029 -26,2025 -31,2022 -37,2019 -43,2018 -49,2018 -93,2048 -93,2062z"/>
</clipPath>
</defs>
<polyline points=" 1170,5025 1170,4275" clip-path="url(#cp29)"
	stroke="#000000" stroke-width="15px"/>
<!-- Forward arrow to point 1170,4275 -->
<polygon points=" 1208,4316 1207,4310 1206,4304 1203,4299 1200,4294 1196,4289
 1191,4285 1186,4282 1180,4280 1175,4279 1168,4279 1162,4280 1157,4281 1151,4284
 1146,4287 1142,4291 1138,4296 1136,4302 1134,4307 1133,4313 1133,4319 1134,4325
 1136,4331 1138,4336 1142,4341 1146,4345 1151,4349 1157,4351 1162,4353 1168,4354
 1175,4353 1180,4352 1186,4350 1191,4347 1196,4343 1200,4339 1203,4334 1206,4328
 1207,4322 1208,4316"
	stroke="#000000" stroke-width="8px" stroke-miterlimit="8"/>
<!-- Line -->
<defs>
<clipPath id="cp30">
	<path clip-rule="evenodd" d="M -1137,348 H 3612 V 8149 H -1137 z
		M 998,4454 999,4460 1001,4466 1003,4471 1007,4476 1011,4480 1016,4484 1022,4486 1027,4488 1033,4489 1040,4488 1045,4487 1051,4485 1056,4482 1061,4478 1065,4474 1068,4469 1071,4463 1072,4457 1073,4451 1046,4403 1025,4403z
		M -46,2092 -40,2091 -34,2089 -29,2087 -24,2083 -20,2079 -16,2074 -14,2068 -12,2063 -11,2057 -12,2050 -13,2045 -15,2039 -18,2034 -22,2029 -26,2025 -31,2022 -37,2019 -43,2018 -49,2018 -93,2048 -93,2062z"/>
</clipPath>
</defs>
<polyline points=" 1035,5025 1035,4410" clip-path="url(#cp30)"
	stroke="#000000" stroke-width="15px"/>
<!-- Forward arrow to point 1035,4410 -->
<polygon points=" 1073,4451 1072,4445 1071,4439 1068,4434 1065,4429 1061,4424
 1056,4420 1051,4417 1045,4415 1040,4414 1033,4414 1027,4415 1022,4416 1016,4419
 1011,4422 1007,4426 1003,4431 1001,4437 999,4442 998,4448 998,4454 999,4460 1001,4466
 1003,4471 1007,4476 1011,4480 1016,4484 1022,4486 1027,4488 1033,4489 1040,4488
 1045,4487 1051,4485 1056,4482 1061,4478 1065,4474 1068,4469 1071,4463 1072,4457
 1073,4451"
	stroke="#000000" stroke-width="8px" stroke-miterlimit="8"/>
<!-- Line -->
<defs>
<clipPath id="cp31">
	<path clip-rule="evenodd" d="M -1137,348 H 3612 V 8149 H -1137 z
		M 863,4679 864,4685 866,4691 868,4696 872,4701 876,4705 881,4709 887,4711 892,4713 898,4714 905,4713 910,4712 916,4710 921,4707 926,4703 930,4699 933,4694 936,4688 937,4682 938,4676 911,4628 890,4628z
		M -46,2092 -40,2091 -34,2089 -29,2087 -24,2083 -20,2079 -16,2074 -14,2068 -12,2063 -11,2057 -12,2050 -13,2045 -15,2039 -18,2034 -22,2029 -26,2025 -31,2022 -37,2019 -43,2018 -49,2018 -93,2048 -93,2062z"/>
</clipPath>
</defs>
<polyline points=" 900,5025 900,4635" clip-path="url(#cp31)"
	stroke="#000000" stroke-width="15px"/>
<!-- Forward arrow to point 900,4635 -->
<polygon points=" 938,4676 937,4670 936,4664 933,4659 930,4654 926,4649 921,4645
 916,4642 910,4640 905,4639 898,4639 892,4640 887,4641 881,4644 876,4647 872,4651
 868,4656 866,4662 864,4667 863,4673 863,4679 864,4685 866,4691 868,4696 872,4701
 876,4705 881,4709 887,4711 892,4713 898,4714 905,4713 910,4712 916,4710 921,4707
 926,4703 930,4699 933,4694 936,4688 937,4682 938,4676"
	stroke="#000000" stroke-width="8px" stroke-miterlimit="8"/>
<!-- Line -->
<defs>
<clipPath id="cp32">
	<path clip-rule="evenodd" d="M -1137,348 H 3612 V 8149 H -1137 z
		M 728,4724 729,4730 731,4736 733,4741 737,4746 741,4750 746,4754 752,4756 757,4758 763,4759 770,4758 775,4757 781,4755 786,4752 791,4748 795,4744 798,4739 801,4733 802,4727 803,4721 776,4673 755,4673z
		M -46,2092 -40,2091 -34,2089 -29,2087 -24,2083 -20,2079 -16,2074 -14,2068 -12,2063 -11,2057 -12,2050 -13,2045 -15,2039 -18,2034 -22,2029 -26,2025 -31,2022 -37,2019 -43,2018 -49,2018 -93,2048 -93,2062z"/>
</clipPath>
</defs>
<polyline points=" 765,5025 765,4680" clip-path="url(#cp32)"
	stroke="#000000" stroke-width="15px"/>
<!-- Forward arrow to point 765,4680 -->
<polygon points=" 803,4721 802,4715 801,4709 798,4704 795,4699 791,4694 786,4690
 781,4687 775,4685 770,4684 763,4684 757,4685 752,4686 746,4689 741,4692 737,4696
 733,4701 731,4707 729,4712 728,4718 728,4724 729,4730 731,4736 733,4741 737,4746
 741,4750 746,4754 752,4756 757,4758 763,4759 770,4758 775,4757 781,4755 786,4752
 791,4748 795,4744 798,4739 801,4733 802,4727 803,4721"
	stroke="#000000" stroke-width="8px" stroke-miterlimit="8"/>
<!-- Line -->
<defs>
<clipPath id="cp33">
	<path clip-rule="evenodd" d="M -1137,348 H 3612 V 8149 H -1137 z
		M 1268,4454 1269,4460 1271,4466 1273,4471 1277,4476 1281,4480 1286,4484 1292,4486 1297,4488 1303,4489 1310,4488 1315,4487 1321,4485 1326,4482 1331,4478 1335,4474 1338,4469 1341,4463 1342,4457 1343,4451 1316,4403 1295,4403z
		M -46,2092 -40,2091 -34,2089 -29,2087 -24,2083 -20,2079 -16,2074 -14,2068 -12,2063 -11,2057 -12,2050 -13,2045 -15,2039 -18,2034 -22,2029 -26,2025 -31,2022 -37,2019 -43,2018 -49,2018 -93,2048 -93,2062z"/>
</clipPath>
</defs>
<polyline points=" 1305,5025 1305,4410" clip-path="url(#cp33)"
	stroke="#000000" stroke-width="15px"/>
<!-- Forward arrow to point 1305,4410 -->
<polygon points=" 1343,4451 1342,4445 1341,4439 1338,4434 1335,4429 1331,4424
 1326,4420 1321,4417 1315,4415 1310,4414 1303,4414 1297,4415 1292,4416 1286,4419
 1281,4422 1277,4426 1273,4431 1271,4437 1269,4442 1268,4448 1268,4454 1269,4460
 1271,4466 1273,4471 1277,4476 1281,4480 1286,4484 1292,4486 1297,4488 1303,4489
 1310,4488 1315,4487 1321,4485 1326,4482 1331,4478 1335,4474 1338,4469 1341,4463
 1342,4457 1343,4451"
	stroke="#000000" stroke-width="8px" stroke-miterlimit="8"/>
<!-- Line -->
<defs>
<clipPath id="cp34">
	<path clip-rule="evenodd" d="M -1137,348 H 3612 V 8149 H -1137 z
		M 1403,4679 1404,4685 1406,4691 1408,4696 1412,4701 1416,4705 1421,4709 1427,4711 1432,4713 1438,4714 1445,4713 1450,4712 1456,4710 1461,4707 1466,4703 1470,4699 1473,4694 1476,4688 1477,4682 1478,4676 1451,4628 1430,4628z
		M -46,2092 -40,2091 -34,2089 -29,2087 -24,2083 -20,2079 -16,2074 -14,2068 -12,2063 -11,2057 -12,2050 -13,2045 -15,2039 -18,2034 -22,2029 -26,2025 -31,2022 -37,2019 -43,2018 -49,2018 -93,2048 -93,2062z"/>
</clipPath>
</defs>
<polyline points=" 1440,5025 1440,4635" clip-path="url(#cp34)"
	stroke="#000000" stroke-width="15px"/>
<!-- Forward arrow to point 1440,4635 -->
<polygon points=" 1478,4676 1477,4670 1476,4664 1473,4659 1470,4654 1466,4649
 1461,4645 1456,4642 1450,4640 1445,4639 1438,4639 1432,4640 1427,4641 1421,4644
 1416,4647 1412,4651 1408,4656 1406,4662 1404,4667 1403,4673 1403,4679 1404,4685
 1406,4691 1408,4696 1412,4701 1416,4705 1421,4709 1427,4711 1432,4713 1438,4714
 1445,4713 1450,4712 1456,4710 1461,4707 1466,4703 1470,4699 1473,4694 1476,4688
 1477,4682 1478,4676"
	stroke="#000000" stroke-width="8px" stroke-miterlimit="8"/>
<!-- Line -->
<defs>
<clipPath id="cp35">
	<path clip-rule="evenodd" d="M -1137,348 H 3612 V 8149 H -1137 z
		M 1538,4724 1539,4730 1541,4736 1543,4741 1547,4746 1551,4750 1556,4754 1562,4756 1567,4758 1573,4759 1580,4758 1585,4757 1591,4755 1596,4752 1601,4748 1605,4744 1608,4739 1611,4733 1612,4727 1613,4721 1586,4673 1565,4673z
		M -46,2092 -40,2091 -34,2089 -29,2087 -24,2083 -20,2079 -16,2074 -14,2068 -12,2063 -11,2057 -12,2050 -13,2045 -15,2039 -18,2034 -22,2029 -26,2025 -31,2022 -37,2019 -43,2018 -49,2018 -93,2048 -93,2062z"/>
</clipPath>
</defs>
<polyline points=" 1575,5025 1575,4680" clip-path="url(#cp35)"
	stroke="#000000" stroke-width="15px"/>
<!-- Forward arrow to point 1575,4680 -->
<polygon points=" 1613,4721 1612,4715 1611,4709 1608,4704 1605,4699 1601,4694
 1596,4690 1591,4687 1585,4685 1580,4684 1573,4684 1567,4685 1562,4686 1556,4689
 1551,4692 1547,4696 1543,4701 1541,4707 1539,4712 1538,4718 1538,4724 1539,4730
 1541,4736 1543,4741 1547,4746 1551,4750 1556,4754 1562,4756 1567,4758 1573,4759
 1580,4758 1585,4757 1591,4755 1596,4752 1601,4748 1605,4744 1608,4739 1611,4733
 1612,4727 1613,4721"
	stroke="#000000" stroke-width="8px" stroke-miterlimit="8"/>
<!-- Line -->
<defs>
<clipPath id="cp36">
	<path clip-rule="evenodd" d="M -1137,348 H 3612 V 8149 H -1137 z
		M 1709,5062 1715,5061 1721,5059 1726,5057 1731,5053 1735,5049 1739,5044 1741,5038 1743,5033 1744,5027 1743,5020 1742,5015 1740,5009 1737,5004 1733,4999 1729,4995 1724,4992 1718,4989 1712,4988 1706,4988 1662,5018 1662,5032z
		M -46,2092 -40,2091 -34,2089 -29,2087 -24,2083 -20,2079 -16,2074 -14,2068 -12,2063 -11,2057 -12,2050 -13,2045 -15,2039 -18,2034 -22,2029 -26,2025 -31,2022 -37,2019 -43,2018 -49,2018 -93,2048 -93,2062z"/>
</clipPath>
</defs>
<polyline points=" 1890,5025 1665,5025" clip-path="url(#cp36)"
	stroke="#000000" stroke-width="8px"/>
<!-- Forward arrow to point 1665,5025 -->
<polygon points=" 1706,4988 1700,4988 1694,4989 1689,4992 1684,4995 1679,4999
 1675,5004 1672,5009 1670,5015 1669,5020 1669,5027 1670,5033 1671,5038 1674,5044
 1677,5049 1681,5053 1686,5057 1692,5059 1697,5061 1703,5062 1709,5062 1715,5061
 1721,5059 1726,5057 1731,5053 1735,5049 1739,5044 1741,5038 1743,5033 1744,5027
 1743,5020 1742,5015 1740,5009 1737,5004 1733,4999 1729,4995 1724,4992 1718,4989
 1712,4988 1706,4988"
	stroke="#000000" stroke-width="8px" stroke-miterlimit="8"/>
<!-- Line -->
<defs>
<clipPath id="cp37">
	<path clip-rule="evenodd" d="M -1137,348 H 3612 V 8149 H -1137 z
		M 1709,5062 1715,5061 1721,5059 1726,5057 1731,5053 1735,5049 1739,5044 1741,5038 1743,5033 1744,5027 1743,5020 1742,5015 1740,5009 1737,5004 1733,4999 1729,4995 1724,4992 1718,4989 1712,4988 1706,4988 1662,5018 1662,5032z
		M 631,4988 625,4989 619,4991 614,4993 609,4997 605,5001 601,5006 599,5012 597,5017 596,5023 597,5030 598,5035 600,5041 603,5046 607,5051 611,5055 616,5058 622,5061 628,5062 634,5063 678,5032 678,5018z"/>
</clipPath>
</defs>
<polyline points=" 675,5025 450,5025" clip-path="url(#cp37)"
	stroke="#000000" stroke-width="8px"/>
<!-- Backward arrow to point 675,5025 -->
<polygon points=" 634,5063 640,5062 646,5061 651,5058 656,5055 661,5051 665,5046
 668,5041 670,5035 671,5030 671,5023 670,5017 669,5012 666,5006 663,5001 659,4997
 654,4993 648,4991 643,4989 637,4988 631,4988 625,4989 619,4991 614,4993 609,4997
 605,5001 601,5006 599,5012 597,5017 596,5023 597,5030 598,5035 600,5041 603,5046
 607,5051 611,5055 616,5058 622,5061 628,5062 634,5063"
	stroke="#000000" stroke-width="8px" stroke-miterlimit="8"/>
<!-- Line -->
<defs>
<clipPath id="cp38">
	<path clip-rule="evenodd" d="M -1137,348 H 3612 V 8149 H -1137 z
		M 1133,7109 1134,7115 1136,7121 1138,7126 1142,7131 1146,7135 1151,7139 1157,7141 1162,7143 1168,7144 1175,7143 1180,7142 1186,7140 1191,7137 1196,7133 1200,7129 1203,7124 1206,7118 1207,7112 1208,7106 1181,7058 1160,7058z
		M 631,4988 625,4989 619,4991 614,4993 609,4997 605,5001 601,5006 599,5012 597,5017 596,5023 597,5030 598,5035 600,5041 603,5046 607,5051 611,5055 616,5058 622,5061 628,5062 634,5063 678,5032 678,5018z"/>
</clipPath>
</defs>
<polyline points=" 1170,7815 1170,7065" clip-path="url(#cp38)"
	stroke="#000000" stroke-width="15px"/>
<!-- Forward arrow to point 1170,7065 -->
<polygon points=" 1208,7106 1207,7100 1206,7094 1203,7089 1200,7084 1196,7079
 1191,7075 1186,7072 1180,7070 1175,7069 1168,7069 1162,7070 1157,7071 1151,7074
 1146,7077 1142,7081 1138,7086 1136,7092 1134,7097 1133,7103 1133,7109 1134,7115
 1136,7121 1138,7126 1142,7131 1146,7135 1151,7139 1157,7141 1162,7143 1168,7144
 1175,7143 1180,7142 1186,7140 1191,7137 1196,7133 1200,7129 1203,7124 1206,7118
 1207,7112 1208,7106"
	stroke="#000000" stroke-width="8px" stroke-miterlimit="8"/>
<!-- Line -->
<defs>
<clipPath id="cp39">
	<path clip-rule="evenodd" d="M -1137,348 H 3612 V 8149 H -1137 z
		M 1673,7244 1674,7250 1676,7256 1678,7261 1682,7266 1686,7270 1691,7274 1697,7276 1702,7278 1708,7279 1715,7278 1720,7277 1726,7275 1731,7272 1736,7268 1740,7264 1743,7259 1746,7253 1747,7247 1748,7241 1721,7193 1700,7193z
		M 631,4988 625,4989 619,4991 614,4993 609,4997 605,5001 601,5006 599,5012 597,5017 596,5023 597,5030 598,5035 600,5041 603,5046 607,5051 611,5055 616,5058 622,5061 628,5062 634,5063 678,5032 678,5018z"/>
</clipPath>
</defs>
<polyline points=" 1710,7815 1710,7200" clip-path="url(#cp39)"
	stroke="#000000" stroke-width="15px"/>
<!-- Forward arrow to point 1710,7200 -->
<polygon points=" 1748,7241 1747,7235 1746,7229 1743,7224 1740,7219 1736,7214
 1731,7210 1726,7207 1720,7205 1715,7204 1708,7204 1702,7205 1697,7206 1691,7209
 1686,7212 1682,7216 1678,7221 1676,7227 1674,7232 1673,7238 1673,7244 1674,7250
 1676,7256 1678,7261 1682,7266 1686,7270 1691,7274 1697,7276 1702,7278 1708,7279
 1715,7278 1720,7277 1726,7275 1731,7272 1736,7268 1740,7264 1743,7259 1746,7253
 1747,7247 1748,7241"
	stroke="#000000" stroke-width="8px" stroke-miterlimit="8"/>
<!-- Line -->
<defs>
<clipPath id="cp40">
	<path clip-rule="evenodd" d="M -1137,348 H 3612 V 8149 H -1137 z
		M 1943,7334 1944,7340 1946,7346 1948,7351 1952,7356 1956,7360 1961,7364 1967,7366 1972,7368 1978,7369 1985,7368 1990,7367 1996,7365 2001,7362 2006,7358 2010,7354 2013,7349 2016,7343 2017,7337 2018,7331 1991,7283 1970,7283z
		M 631,4988 625,4989 619,4991 614,4993 609,4997 605,5001 601,5006 599,5012 597,5017 596,5023 597,5030 598,5035 600,5041 603,5046 607,5051 611,5055 616,5058 622,5061 628,5062 634,5063 678,5032 678,5018z"/>
</clipPath>
</defs>
<polyline points=" 1980,7815 1980,7290" clip-path="url(#cp40)"
	stroke="#000000" stroke-width="15px"/>
<!-- Forward arrow to point 1980,7290 -->
<polygon points=" 2018,7331 2017,7325 2016,7319 2013,7314 2010,7309 2006,7304
 2001,7300 1996,7297 1990,7295 1985,7294 1978,7294 1972,7295 1967,7296 1961,7299
 1956,7302 1952,7306 1948,7311 1946,7317 1944,7322 1943,7328 1943,7334 1944,7340
 1946,7346 1948,7351 1952,7356 1956,7360 1961,7364 1967,7366 1972,7368 1978,7369
 1985,7368 1990,7367 1996,7365 2001,7362 2006,7358 2010,7354 2013,7349 2016,7343
 2017,7337 2018,7331"
	stroke="#000000" stroke-width="8px" stroke-miterlimit="8"/>
<!-- Line -->
<defs>
<clipPath id="cp41">
	<path clip-rule="evenodd" d="M -1137,348 H 3612 V 8149 H -1137 z
		M 1403,7154 1404,7160 1406,7166 1408,7171 1412,7176 1416,7180 1421,7184 1427,7186 1432,7188 1438,7189 1445,7188 1450,7187 1456,7185 1461,7182 1466,7178 1470,7174 1473,7169 1476,7163 1477,7157 1478,7151 1451,7103 1430,7103z
		M 631,4988 625,4989 619,4991 614,4993 609,4997 605,5001 601,5006 599,5012 597,5017 596,5023 597,5030 598,5035 600,5041 603,5046 607,5051 611,5055 616,5058 622,5061 628,5062 634,5063 678,5032 678,5018z"/>
</clipPath>
</defs>
<polyline points=" 1440,7815 1440,7110" clip-path="url(#cp41)"
	stroke="#000000" stroke-width="15px"/>
<!-- Forward arrow to point 1440,7110 -->
<polygon points=" 1478,7151 1477,7145 1476,7139 1473,7134 1470,7129 1466,7124
 1461,7120 1456,7117 1450,7115 1445,7114 1438,7114 1432,7115 1427,7116 1421,7119
 1416,7122 1412,7126 1408,7131 1406,7137 1404,7142 1403,7148 1403,7154 1404,7160
 1406,7166 1408,7171 1412,7176 1416,7180 1421,7184 1427,7186 1432,7188 1438,7189
 1445,7188 1450,7187 1456,7185 1461,7182 1466,7178 1470,7174 1473,7169 1476,7163
 1477,7157 1478,7151"
	stroke="#000000" stroke-width="8px" stroke-miterlimit="8"/>
<!-- Line -->
<defs>
<clipPath id="cp42">
	<path clip-rule="evenodd" d="M -1137,348 H 3612 V 8149 H -1137 z
		M 1576,7778 1570,7779 1564,7781 1559,7783 1554,7787 1550,7791 1546,7796 1544,7802 1542,7807 1541,7813 1542,7820 1543,7825 1545,7831 1548,7836 1552,7841 1556,7845 1561,7848 1567,7851 1573,7852 1579,7853 1623,7822 1623,7808z
		M 1304,7852 1310,7851 1316,7849 1321,7847 1326,7843 1330,7839 1334,7834 1336,7828 1338,7823 1339,7817 1338,7810 1337,7805 1335,7799 1332,7794 1328,7789 1324,7785 1319,7782 1313,7779 1307,7778 1301,7778 1257,7808 1257,7822z"/>
</clipPath>
</defs>
<polyline points=" 1260,7815 1620,7815" clip-path="url(#cp42)"
	stroke="#000000" stroke-width="8px"/>
<!-- Forward arrow to point 1620,7815 -->
<polygon points=" 1579,7853 1585,7852 1591,7851 1596,7848 1601,7845 1606,7841
 1610,7836 1613,7831 1615,7825 1616,7820 1616,7813 1615,7807 1614,7802 1611,7796
 1608,7791 1604,7787 1599,7783 1593,7781 1588,7779 1582,7778 1576,7778 1570,7779
 1564,7781 1559,7783 1554,7787 1550,7791 1546,7796 1544,7802 1542,7807 1541,7813
 1542,7820 1543,7825 1545,7831 1548,7836 1552,7841 1556,7845 1561,7848 1567,7851
 1573,7852 1579,7853"
	stroke="#000000" stroke-width="8px" stroke-miterlimit="8"/>
<!-- Backward arrow to point 1260,7815 -->
<polygon points=" 1301,7778 1295,7778 1289,7779 1284,7782 1279,7785 1274,7789
 1270,7794 1267,7799 1265,7805 1264,7810 1264,7817 1265,7823 1266,7828 1269,7834
 1272,7839 1276,7843 1281,7847 1287,7849 1292,7851 1298,7852 1304,7852 1310,7851
 1316,7849 1321,7847 1326,7843 1330,7839 1334,7834 1336,7828 1338,7823 1339,7817
 1338,7810 1337,7805 1335,7799 1332,7794 1328,7789 1324,7785 1319,7782 1313,7779
 1307,7778 1301,7778"
	stroke="#000000" stroke-width="8px" stroke-miterlimit="8"/>
<!-- Line -->
<defs>
<clipPath id="cp43">
	<path clip-rule="evenodd" d="M -1137,348 H 3612 V 8149 H -1137 z
		M 2213,7469 2214,7475 2216,7481 2218,7486 2222,7491 2226,7495 2231,7499 2237,7501 2242,7503 2248,7504 2255,7503 2260,7502 2266,7500 2271,7497 2276,7493 2280,7489 2283,7484 2286,7478 2287,7472 2288,7466 2261,7418 2240,7418z
		M 1304,7852 1310,7851 1316,7849 1321,7847 1326,7843 1330,7839 1334,7834 1336,7828 1338,7823 1339,7817 1338,7810 1337,7805 1335,7799 1332,7794 1328,7789 1324,7785 1319,7782 1313,7779 1307,7778 1301,7778 1257,7808 1257,7822z"/>
</clipPath>
</defs>
<polyline points=" 2250,7815 2250,7425" clip-path="url(#cp43)"
	stroke="#000000" stroke-width="15px"/>
<!-- Forward arrow to point 2250,7425 -->
<polygon points=" 2288,7466 2287,7460 2286,7454 2283,7449 2280,7444 2276,7439
 2271,7435 2266,7432 2260,7430 2255,7429 2248,7429 2242,7430 2237,7431 2231,7434
 2226,7437 2222,7441 2218,7446 2216,7452 2214,7457 2213,7463 2213,7469 2214,7475
 2216,7481 2218,7486 2222,7491 2226,7495 2231,7499 2237,7501 2242,7503 2248,7504
 2255,7503 2260,7502 2266,7500 2271,7497 2276,7493 2280,7489 2283,7484 2286,7478
 2287,7472 2288,7466"
	stroke="#000000" stroke-width="8px" stroke-miterlimit="8"/>
<!-- Line -->
<defs>
<clipPath id="cp44">
	<path clip-rule="evenodd" d="M -1137,348 H 3612 V 8149 H -1137 z
		M 2483,7469 2484,7475 2486,7481 2488,7486 2492,7491 2496,7495 2501,7499 2507,7501 2512,7503 2518,7504 2525,7503 2530,7502 2536,7500 2541,7497 2546,7493 2550,7489 2553,7484 2556,7478 2557,7472 2558,7466 2531,7418 2510,7418z
		M 1304,7852 1310,7851 1316,7849 1321,7847 1326,7843 1330,7839 1334,7834 1336,7828 1338,7823 1339,7817 1338,7810 1337,7805 1335,7799 1332,7794 1328,7789 1324,7785 1319,7782 1313,7779 1307,7778 1301,7778 1257,7808 1257,7822z"/>
</clipPath>
</defs>
<polyline points=" 2520,7815 2520,7425" clip-path="url(#cp44)"
	stroke="#000000" stroke-width="15px"/>
<!-- Forward arrow to point 2520,7425 -->
<polygon points=" 2558,7466 2557,7460 2556,7454 2553,7449 2550,7444 2546,7439
 2541,7435 2536,7432 2530,7430 2525,7429 2518,7429 2512,7430 2507,7431 2501,7434
 2496,7437 2492,7441 2488,7446 2486,7452 2484,7457 2483,7463 2483,7469 2484,7475
 2486,7481 2488,7486 2492,7491 2496,7495 2501,7499 2507,7501 2512,7503 2518,7504
 2525,7503 2530,7502 2536,7500 2541,7497 2546,7493 2550,7489 2553,7484 2556,7478
 2557,7472 2558,7466"
	stroke="#000000" stroke-width="8px" stroke-miterlimit="8"/>
<!-- Line -->
<defs>
<clipPath id="cp45">
	<path clip-rule="evenodd" d="M -1137,348 H 3612 V 8149 H -1137 z
		M 2753,7514 2754,7520 2756,7526 2758,7531 2762,7536 2766,7540 2771,7544 2777,7546 2782,7548 2788,7549 2795,7548 2800,7547 2806,7545 2811,7542 2816,7538 2820,7534 2823,7529 2826,7523 2827,7517 2828,7511 2801,7463 2780,7463z
		M 1304,7852 1310,7851 1316,7849 1321,7847 1326,7843 1330,7839 1334,7834 1336,7828 1338,7823 1339,7817 1338,7810 1337,7805 1335,7799 1332,7794 1328,7789 1324,7785 1319,7782 1313,7779 1307,7778 1301,7778 1257,7808 1257,7822z"/>
</clipPath>
</defs>
<polyline points=" 2790,7815 2790,7470" clip-path="url(#cp45)"
	stroke="#000000" stroke-width="15px"/>
<!-- Forward arrow to point 2790,7470 -->
<polygon points=" 2828,7511 2827,7505 2826,7499 2823,7494 2820,7489 2816,7484
 2811,7480 2806,7477 2800,7475 2795,7474 2788,7474 2782,7475 2777,7476 2771,7479
 2766,7482 2762,7486 2758,7491 2756,7497 2754,7502 2753,7508 2753,7514 2754,7520
 2756,7526 2758,7531 2762,7536 2766,7540 2771,7544 2777,7546 2782,7548 2788,7549
 2795,7548 2800,7547 2806,7545 2811,7542 2816,7538 2820,7534 2823,7529 2826,7523
 2827,7517 2828,7511"
	stroke="#000000" stroke-width="8px" stroke-miterlimit="8"/>
<!-- Line -->
<defs>
<clipPath id="cp46">
	<path clip-rule="evenodd" d="M -1137,348 H 3612 V 8149 H -1137 z
		M 3023,7649 3024,7655 3026,7661 3028,7666 3032,7671 3036,7675 3041,7679 3047,7681 3052,7683 3058,7684 3065,7683 3070,7682 3076,7680 3081,7677 3086,7673 3090,7669 3093,7664 3096,7658 3097,7652 3098,7646 3071,7598 3050,7598z
		M 1304,7852 1310,7851 1316,7849 1321,7847 1326,7843 1330,7839 1334,7834 1336,7828 1338,7823 1339,7817 1338,7810 1337,7805 1335,7799 1332,7794 1328,7789 1324,7785 1319,7782 1313,7779 1307,7778 1301,7778 1257,7808 1257,7822z"/>
</clipPath>
</defs>
<polyline points=" 3060,7815 3060,7605" clip-path="url(#cp46)"
	stroke="#000000" stroke-width="15px"/>
<!-- Forward arrow to point 3060,7605 -->
<polygon points=" 3098,7646 3097,7640 3096,7634 3093,7629 3090,7624 3086,7619
 3081,7615 3076,7612 3070,7610 3065,7609 3058,7609 3052,7610 3047,7611 3041,7614
 3036,7617 3032,7621 3028,7626 3026,7632 3024,7637 3023,7643 3023,7649 3024,7655
 3026,7661 3028,7666 3032,7671 3036,7675 3041,7679 3047,7681 3052,7683 3058,7684
 3065,7683 3070,7682 3076,7680 3081,7677 3086,7673 3090,7669 3093,7664 3096,7658
 3097,7652 3098,7646"
	stroke="#000000" stroke-width="8px" stroke-miterlimit="8"/>
<!-- Line -->
<defs>
<clipPath id="cp47">
	<path clip-rule="evenodd" d="M -1137,348 H 3612 V 8149 H -1137 z
		M 2116,7778 2110,7779 2104,7781 2099,7783 2094,7787 2090,7791 2086,7796 2084,7802 2082,7807 2081,7813 2082,7820 2083,7825 2085,7831 2088,7836 2092,7841 2096,7845 2101,7848 2107,7851 2113,7852 2119,7853 2163,7822 2163,7808z
		M 1844,7852 1850,7851 1856,7849 1861,7847 1866,7843 1870,7839 1874,7834 1876,7828 1878,7823 1879,7817 1878,7810 1877,7805 1875,7799 1872,7794 1868,7789 1864,7785 1859,7782 1853,7779 1847,7778 1841,7778 1797,7808 1797,7822z"/>
</clipPath>
</defs>
<polyline points=" 1800,7815 2160,7815" clip-path="url(#cp47)"
	stroke="#000000" stroke-width="8px"/>
<!-- Forward arrow to point 2160,7815 -->
<polygon points=" 2119,7853 2125,7852 2131,7851 2136,7848 2141,7845 2146,7841
 2150,7836 2153,7831 2155,7825 2156,7820 2156,7813 2155,7807 2154,7802 2151,7796
 2148,7791 2144,7787 2139,7783 2133,7781 2128,7779 2122,7778 2116,7778 2110,7779
 2104,7781 2099,7783 2094,7787 2090,7791 2086,7796 2084,7802 2082,7807 2081,7813
 2082,7820 2083,7825 2085,7831 2088,7836 2092,7841 2096,7845 2101,7848 2107,7851
 2113,7852 2119,7853"
	stroke="#000000" stroke-width="8px" stroke-miterlimit="8"/>
<!-- Backward arrow to point 1800,7815 -->
<polygon points=" 1841,7778 1835,7778 1829,7779 1824,7782 1819,7785 1814,7789
 1810,7794 1807,7799 1805,7805 1804,7810 1804,7817 1805,7823 1806,7828 1809,7834
 1812,7839 1816,7843 1821,7847 1827,7849 1832,7851 1838,7852 1844,7852 1850,7851
 1856,7849 1861,7847 1866,7843 1870,7839 1874,7834 1876,7828 1878,7823 1879,7817
 1878,7810 1877,7805 1875,7799 1872,7794 1868,7789 1864,7785 1859,7782 1853,7779
 1847,7778 1841,7778"
	stroke="#000000" stroke-width="8px" stroke-miterlimit="8"/>
<!-- Line -->
<defs>
<clipPath id="cp48">
	<path clip-rule="evenodd" d="M -1137,348 H 3612 V 8149 H -1137 z
		M 2656,7778 2650,7779 2644,7781 2639,7783 2634,7787 2630,7791 2626,7796 2624,7802 2622,7807 2621,7813 2622,7820 2623,7825 2625,7831 2628,7836 2632,7841 2636,7845 2641,7848 2647,7851 2653,7852 2659,7853 2703,7822 2703,7808z
		M 2384,7852 2390,7851 2396,7849 2401,7847 2406,7843 2410,7839 2414,7834 2416,7828 2418,7823 2419,7817 2418,7810 2417,7805 2415,7799 2412,7794 2408,7789 2404,7785 2399,7782 2393,7779 2387,7778 2381,7778 2337,7808 2337,7822z"/>
</clipPath>
</defs>
<polyline points=" 2340,7815 2700,7815" clip-path="url(#cp48)"
	stroke="#000000" stroke-width="8px"/>
<!-- Forward arrow to point 2700,7815 -->
<polygon points=" 2659,7853 2665,7852 2671,7851 2676,7848 2681,7845 2686,7841
 2690,7836 2693,7831 2695,7825 2696,7820 2696,7813 2695,7807 2694,7802 2691,7796
 2688,7791 2684,7787 2679,7783 2673,7781 2668,7779 2662,7778 2656,7778 2650,7779
 2644,7781 2639,7783 2634,7787 2630,7791 2626,7796 2624,7802 2622,7807 2621,7813
 2622,7820 2623,7825 2625,7831 2628,7836 2632,7841 2636,7845 2641,7848 2647,7851
 2653,7852 2659,7853"
	stroke="#000000" stroke-width="8px" stroke-miterlimit="8"/>
<!-- Backward arrow to point 2340,7815 -->
<polygon points=" 2381,7778 2375,7778 2369,7779 2364,7782 2359,7785 2354,7789
 2350,7794 2347,7799 2345,7805 2344,7810 2344,7817 2345,7823 2346,7828 2349,7834
 2352,7839 2356,7843 2361,7847 2367,7849 2372,7851 2378,7852 2384,7852 2390,7851
 2396,7849 2401,7847 2406,7843 2410,7839 2414,7834 2416,7828 2418,7823 2419,7817
 2418,7810 2417,7805 2415,7799 2412,7794 2408,7789 2404,7785 2399,7782 2393,7779
 2387,7778 2381,7778"
	stroke="#000000" stroke-width="8px" stroke-miterlimit="8"/>
<!-- Line -->
<defs>
<clipPath id="cp49">
	<path clip-rule="evenodd" d="M -1137,348 H 3612 V 8149 H -1137 z
		M 3196,7778 3190,7779 3184,7781 3179,7783 3174,7787 3170,7791 3166,7796 3164,7802 3162,7807 3161,7813 3162,7820 3163,7825 3165,7831 3168,7836 3172,7841 3176,7845 3181,7848 3187,7851 3193,7852 3199,7853 3243,7822 3243,7808z
		M 2924,7852 2930,7851 2936,7849 2941,7847 2946,7843 2950,7839 2954,7834 2956,7828 2958,7823 2959,7817 2958,7810 2957,7805 2955,7799 2952,7794 2948,7789 2944,7785 2939,7782 2933,7779 2927,7778 2921,7778 2877,7808 2877,7822z"/>
</clipPath>
</defs>
<polyline points=" 2880,7815 3240,7815" clip-path="url(#cp49)"
	stroke="#000000" stroke-width="8px"/>
<!-- Forward arrow to point 3240,7815 -->
<polygon points=" 3199,7853 3205,7852 3211,7851 3216,7848 3221,7845 3226,7841
 3230,7836 3233,7831 3235,7825 3236,7820 3236,7813 3235,7807 3234,7802 3231,7796
 3228,7791 3224,7787 3219,7783 3213,7781 3208,7779 3202,7778 3196,7778 3190,7779
 3184,7781 3179,7783 3174,7787 3170,7791 3166,7796 3164,7802 3162,7807 3161,7813
 3162,7820 3163,7825 3165,7831 3168,7836 3172,7841 3176,7845 3181,7848 3187,7851
 3193,7852 3199,7853"
	stroke="#000000" stroke-width="8px" stroke-miterlimit="8"/>
<!-- Backward arrow to point 2880,7815 -->
<polygon points=" 2921,7778 2915,7778 2909,7779 2904,7782 2899,7785 2894,7789
 2890,7794 2887,7799 2885,7805 2884,7810 2884,7817 2885,7823 2886,7828 2889,7834
 2892,7839 2896,7843 2901,7847 2907,7849 2912,7851 2918,7852 2924,7852 2930,7851
 2936,7849 2941,7847 2946,7843 2950,7839 2954,7834 2956,7828 2958,7823 2959,7817
 2958,7810 2957,7805 2955,7799 2952,7794 2948,7789 2944,7785 2939,7782 2933,7779
 2927,7778 2921,7778"
	stroke="#000000" stroke-width="8px" stroke-miterlimit="8"/>
<!-- Line -->
<defs>
<clipPath id="cp50">
	<path clip-rule="evenodd" d="M -1137,348 H 3612 V 8149 H -1137 z
		M 863,7154 864,7160 866,7166 868,7171 872,7176 876,7180 881,7184 887,7186 892,7188 898,7189 905,7188 910,7187 916,7185 921,7182 926,7178 930,7174 933,7169 936,7163 937,7157 938,7151 911,7103 890,7103z
		M 2924,7852 2930,7851 2936,7849 2941,7847 2946,7843 2950,7839 2954,7834 2956,7828 2958,7823 2959,7817 2958,7810 2957,7805 2955,7799 2952,7794 2948,7789 2944,7785 2939,7782 2933,7779 2927,7778 2921,7778 2877,7808 2877,7822z"/>
</clipPath>
</defs>
<polyline points=" 900,7815 900,7110" clip-path="url(#cp50)"
	stroke="#000000" stroke-width="15px"/>
<!-- Forward arrow to point 900,7110 -->
<polygon points=" 938,7151 937,7145 936,7139 933,7134 930,7129 926,7124 921,7120
 916,7117 910,7115 905,7114 898,7114 892,7115 887,7116 881,7119 876,7122 872,7126
 868,7131 866,7137 864,7142 863,7148 863,7154 864,7160 866,7166 868,7171 872,7176
 876,7180 881,7184 887,7186 892,7188 898,7189 905,7188 910,7187 916,7185 921,7182
 926,7178 930,7174 933,7169 936,7163 937,7157 938,7151"
	stroke="#000000" stroke-width="8px" stroke-miterlimit="8"/>
<!-- Line -->
<defs>
<clipPath id="cp51">
	<path clip-rule="evenodd" d="M -1137,348 H 3612 V 8149 H -1137 z
		M 593,7244 594,7250 596,7256 598,7261 602,7266 606,7270 611,7274 617,7276 622,7278 628,7279 635,7278 640,7277 646,7275 651,7272 656,7268 660,7264 663,7259 666,7253 667,7247 668,7241 641,7193 620,7193z
		M 2924,7852 2930,7851 2936,7849 2941,7847 2946,7843 2950,7839 2954,7834 2956,7828 2958,7823 2959,7817 2958,7810 2957,7805 2955,7799 2952,7794 2948,7789 2944,7785 2939,7782 2933,7779 2927,7778 2921,7778 2877,7808 2877,7822z"/>
</clipPath>
</defs>
<polyline points=" 630,7815 630,7200" clip-path="url(#cp51)"
	stroke="#000000" stroke-width="15px"/>
<!-- Forward arrow to point 630,7200 -->
<polygon points=" 668,7241 667,7235 666,7229 663,7224 660,7219 656,7214 651,7210
 646,7207 640,7205 635,7204 628,7204 622,7205 617,7206 611,7209 606,7212 602,7216
 598,7221 596,7227 594,7232 593,7238 593,7244 594,7250 596,7256 598,7261 602,7266
 606,7270 611,7274 617,7276 622,7278 628,7279 635,7278 640,7277 646,7275 651,7272
 656,7268 660,7264 663,7259 666,7253 667,7247 668,7241"
	stroke="#000000" stroke-width="8px" stroke-miterlimit="8"/>
<!-- Line -->
<defs>
<clipPath id="cp52">
	<path clip-rule="evenodd" d="M -1137,348 H 3612 V 8149 H -1137 z
		M 323,7334 324,7340 326,7346 328,7351 332,7356 336,7360 341,7364 347,7366 352,7368 358,7369 365,7368 370,7367 376,7365 381,7362 386,7358 390,7354 393,7349 396,7343 397,7337 398,7331 371,7283 350,7283z
		M 2924,7852 2930,7851 2936,7849 2941,7847 2946,7843 2950,7839 2954,7834 2956,7828 2958,7823 2959,7817 2958,7810 2957,7805 2955,7799 2952,7794 2948,7789 2944,7785 2939,7782 2933,7779 2927,7778 2921,7778 2877,7808 2877,7822z"/>
</clipPath>
</defs>
<polyline points=" 360,7815 360,7290" clip-path="url(#cp52)"
	stroke="#000000" stroke-width="15px"/>
<!-- Forward arrow to point 360,7290 -->
<polygon points=" 398,7331 397,7325 396,7319 393,7314 390,7309 386,7304 381,7300
 376,7297 370,7295 365,7294 358,7294 352,7295 347,7296 341,7299 336,7302 332,7306
 328,7311 326,7317 324,7322 323,7328 323,7334 324,7340 326,7346 328,7351 332,7356
 336,7360 341,7364 347,7366 352,7368 358,7369 365,7368 370,7367 376,7365 381,7362
 386,7358 390,7354 393,7349 396,7343 397,7337 398,7331"
	stroke="#000000" stroke-width="8px" stroke-miterlimit="8"/>
<!-- Line -->
<defs>
<clipPath id="cp53">
	<path clip-rule="evenodd" d="M -1137,348 H 3612 V 8149 H -1137 z
		M 53,7469 54,7475 56,7481 58,7486 62,7491 66,7495 71,7499 77,7501 82,7503 88,7504 95,7503 100,7502 106,7500 111,7497 116,7493 120,7489 123,7484 126,7478 127,7472 128,7466 101,7418 80,7418z
		M 2924,7852 2930,7851 2936,7849 2941,7847 2946,7843 2950,7839 2954,7834 2956,7828 2958,7823 2959,7817 2958,7810 2957,7805 2955,7799 2952,7794 2948,7789 2944,7785 2939,7782 2933,7779 2927,7778 2921,7778 2877,7808 2877,7822z"/>
</clipPath>
</defs>
<polyline points=" 90,7815 90,7425" clip-path="url(#cp53)"
	stroke="#000000" stroke-width="15px"/>
<!-- Forward arrow to point 90,7425 -->
<polygon points=" 128,7466 127,7460 126,7454 123,7449 120,7444 116,7439 111,7435
 106,7432 100,7430 95,7429 88,7429 82,7430 77,7431 71,7434 66,7437 62,7441 58,7446
 56,7452 54,7457 53,7463 53,7469 54,7475 56,7481 58,7486 62,7491 66,7495 71,7499
 77,7501 82,7503 88,7504 95,7503 100,7502 106,7500 111,7497 116,7493 120,7489
 123,7484 126,7478 127,7472 128,7466"
	stroke="#000000" stroke-width="8px" stroke-miterlimit="8"/>
<!-- Line -->
<defs>
<clipPath id="cp54">
	<path clip-rule="evenodd" d="M -1137,348 H 3612 V 8149 H -1137 z
		M -217,7469 -216,7475 -214,7481 -212,7486 -208,7491 -204,7495 -199,7499 -193,7501 -188,7503 -182,7504 -175,7503 -170,7502 -164,7500 -159,7497 -154,7493 -150,7489 -147,7484 -144,7478 -143,7472 -142,7466 -169,7418 -190,7418z
		M 2924,7852 2930,7851 2936,7849 2941,7847 2946,7843 2950,7839 2954,7834 2956,7828 2958,7823 2959,7817 2958,7810 2957,7805 2955,7799 2952,7794 2948,7789 2944,7785 2939,7782 2933,7779 2927,7778 2921,7778 2877,7808 2877,7822z"/>
</clipPath>
</defs>
<polyline points=" -180,7815 -180,7425" clip-path="url(#cp54)"
	stroke="#000000" stroke-width="15px"/>
<!-- Forward arrow to point -180,7425 -->
<polygon points=" -142,7466 -143,7460 -144,7454 -147,7449 -150,7444 -154,7439
 -159,7435 -164,7432 -170,7430 -175,7429 -182,7429 -188,7430 -193,7431 -199,7434
 -204,7437 -208,7441 -212,7446 -214,7452 -216,7457 -217,7463 -217,7469 -216,7475
 -214,7481 -212,7486 -208,7491 -204,7495 -199,7499 -193,7501 -188,7503 -182,7504
 -175,7503 -170,7502 -164,7500 -159,7497 -154,7493 -150,7489 -147,7484 -144,7478
 -143,7472 -142,7466"
	stroke="#000000" stroke-width="8px" stroke-miterlimit="8"/>
<!-- Line -->
<defs>
<clipPath id="cp55">
	<path clip-rule="evenodd" d="M -1137,348 H 3612 V 8149 H -1137 z
		M -487,7514 -486,7520 -484,7526 -482,7531 -478,7536 -474,7540 -469,7544 -463,7546 -458,7548 -452,7549 -445,7548 -440,7547 -434,7545 -429,7542 -424,7538 -420,7534 -417,7529 -414,7523 -413,7517 -412,7511 -439,7463 -460,7463z
		M 2924,7852 2930,7851 2936,7849 2941,7847 2946,7843 2950,7839 2954,7834 2956,7828 2958,7823 2959,7817 2958,7810 2957,7805 2955,7799 2952,7794 2948,7789 2944,7785 2939,7782 2933,7779 2927,7778 2921,7778 2877,7808 2877,7822z"/>
</clipPath>
</defs>
<polyline points=" -450,7815 -450,7470" clip-path="url(#cp55)"
	stroke="#000000" stroke-width="15px"/>
<!-- Forward arrow to point -450,7470 -->
<polygon points=" -412,7511 -413,7505 -414,7499 -417,7494 -420,7489 -424,7484
 -429,7480 -434,7477 -440,7475 -445,7474 -452,7474 -458,7475 -463,7476 -469,7479
 -474,7482 -478,7486 -482,7491 -484,7497 -486,7502 -487,7508 -487,7514 -486,7520
 -484,7526 -482,7531 -478,7536 -474,7540 -469,7544 -463,7546 -458,7548 -452,7549
 -445,7548 -440,7547 -434,7545 -429,7542 -424,7538 -420,7534 -417,7529 -414,7523
 -413,7517 -412,7511"
	stroke="#000000" stroke-width="8px" stroke-miterlimit="8"/>
<!-- Line -->
<defs>
<clipPath id="cp56">
	<path clip-rule="evenodd" d="M -1137,348 H 3612 V 8149 H -1137 z
		M -757,7649 -756,7655 -754,7661 -752,7666 -748,7671 -744,7675 -739,7679 -733,7681 -728,7683 -722,7684 -715,7683 -710,7682 -704,7680 -699,7677 -694,7673 -690,7669 -687,7664 -684,7658 -683,7652 -682,7646 -709,7598 -730,7598z
		M 2924,7852 2930,7851 2936,7849 2941,7847 2946,7843 2950,7839 2954,7834 2956,7828 2958,7823 2959,7817 2958,7810 2957,7805 2955,7799 2952,7794 2948,7789 2944,7785 2939,7782 2933,7779 2927,7778 2921,7778 2877,7808 2877,7822z"/>
</clipPath>
</defs>
<polyline points=" -720,7815 -720,7605" clip-path="url(#cp56)"
	stroke="#000000" stroke-width="15px"/>
<!-- Forward arrow to point -720,7605 -->
<polygon points=" -682,7646 -683,7640 -684,7634 -687,7629 -690,7624 -694,7619
 -699,7615 -704,7612 -710,7610 -715,7609 -722,7609 -728,7610 -733,7611 -739,7614
 -744,7617 -748,7621 -752,7626 -754,7632 -756,7637 -757,7643 -757,7649 -756,7655
 -754,7661 -752,7666 -748,7671 -744,7675 -739,7679 -733,7681 -728,7683 -722,7684
 -715,7683 -710,7682 -704,7680 -699,7677 -694,7673 -690,7669 -687,7664 -684,7658
 -683,7652 -682,7646"
	stroke="#000000" stroke-width="8px" stroke-miterlimit="8"/>
<!-- Line -->
<defs>
<clipPath id="cp57">
	<path clip-rule="evenodd" d="M -1137,348 H 3612 V 8149 H -1137 z
		M 1036,7778 1030,7779 1024,7781 1019,7783 1014,7787 1010,7791 1006,7796 1004,7802 1002,7807 1001,7813 1002,7820 1003,7825 1005,7831 1008,7836 1012,7841 1016,7845 1021,7848 1027,7851 1033,7852 1039,7853 1083,7822 1083,7808z
		M 764,7852 770,7851 776,7849 781,7847 786,7843 790,7839 794,7834 796,7828 798,7823 799,7817 798,7810 797,7805 795,7799 792,7794 788,7789 784,7785 779,7782 773,7779 767,7778 761,7778 717,7808 717,7822z"/>
</clipPath>
</defs>
<polyline points=" 720,7815 1080,7815" clip-path="url(#cp57)"
	stroke="#000000" stroke-width="8px"/>
<!-- Forward arrow to point 1080,7815 -->
<polygon points=" 1039,7853 1045,7852 1051,7851 1056,7848 1061,7845 1066,7841
 1070,7836 1073,7831 1075,7825 1076,7820 1076,7813 1075,7807 1074,7802 1071,7796
 1068,7791 1064,7787 1059,7783 1053,7781 1048,7779 1042,7778 1036,7778 1030,7779
 1024,7781 1019,7783 1014,7787 1010,7791 1006,7796 1004,7802 1002,7807 1001,7813
 1002,7820 1003,7825 1005,7831 1008,7836 1012,7841 1016,7845 1021,7848 1027,7851
 1033,7852 1039,7853"
	stroke="#000000" stroke-width="8px" stroke-miterlimit="8"/>
<!-- Backward arrow to point 720,7815 -->
<polygon points=" 761,7778 755,7778 749,7779 744,7782 739,7785 734,7789 730,7794
 727,7799 725,7805 724,7810 724,7817 725,7823 726,7828 729,7834 732,7839 736,7843
 741,7847 747,7849 752,7851 758,7852 764,7852 770,7851 776,7849 781,7847 786,7843
 790,7839 794,7834 796,7828 798,7823 799,7817 798,7810 797,7805 795,7799 792,7794
 788,7789 784,7785 779,7782 773,7779 767,7778 761,7778"
	stroke="#000000" stroke-width="8px" stroke-miterlimit="8"/>
<!-- Line -->
<defs>
<clipPath id="cp58">
	<path clip-rule="evenodd" d="M -1137,348 H 3612 V 8149 H -1137 z
		M 496,7778 490,7779 484,7781 479,7783 474,7787 470,7791 466,7796 464,7802 462,7807 461,7813 462,7820 463,7825 465,7831 468,7836 472,7841 476,7845 481,7848 487,7851 493,7852 499,7853 543,7822 543,7808z
		M 224,7852 230,7851 236,7849 241,7847 246,7843 250,7839 254,7834 256,7828 258,7823 259,7817 258,7810 257,7805 255,7799 252,7794 248,7789 244,7785 239,7782 233,7779 227,7778 221,7778 177,7808 177,7822z"/>
</clipPath>
</defs>
<polyline points=" 180,7815 540,7815" clip-path="url(#cp58)"
	stroke="#000000" stroke-width="8px"/>
<!-- Forward arrow to point 540,7815 -->
<polygon points=" 499,7853 505,7852 511,7851 516,7848 521,7845 526,7841 530,7836
 533,7831 535,7825 536,7820 536,7813 535,7807 534,7802 531,7796 528,7791 524,7787
 519,7783 513,7781 508,7779 502,7778 496,7778 490,7779 484,7781 479,7783 474,7787
 470,7791 466,7796 464,7802 462,7807 461,7813 462,7820 463,7825 465,7831 468,7836
 472,7841 476,7845 481,7848 487,7851 493,7852 499,7853"
	stroke="#000000" stroke-width="8px" stroke-miterlimit="8"/>
<!-- Backward arrow to point 180,7815 -->
<polygon points=" 221,7778 215,7778 209,7779 204,7782 199,7785 194,7789 190,7794
 187,7799 185,7805 184,7810 184,7817 185,7823 186,7828 189,7834 192,7839 196,7843
 201,7847 207,7849 212,7851 218,7852 224,7852 230,7851 236,7849 241,7847 246,7843
 250,7839 254,7834 256,7828 258,7823 259,7817 258,7810 257,7805 255,7799 252,7794
 248,7789 244,7785 239,7782 233,7779 227,7778 221,7778"
	stroke="#000000" stroke-width="8px" stroke-miterlimit="8"/>
<!-- Line -->
<defs>
<clipPath id="cp59">
	<path clip-rule="evenodd" d="M -1137,348 H 3612 V 8149 H -1137 z
		M -44,7778 -50,7779 -56,7781 -61,7783 -66,7787 -70,7791 -74,7796 -76,7802 -78,7807 -79,7813 -78,7820 -77,7825 -75,7831 -72,7836 -68,7841 -64,7845 -59,7848 -53,7851 -47,7852 -41,7853 3,7822 3,7808z
		M -316,7852 -310,7851 -304,7849 -299,7847 -294,7843 -290,7839 -286,7834 -284,7828 -282,7823 -281,7817 -282,7810 -283,7805 -285,7799 -288,7794 -292,7789 -296,7785 -301,7782 -307,7779 -313,7778 -319,7778 -363,7808 -363,7822z"/>
</clipPath>
</defs>
<polyline points=" -360,7815 0,7815" clip-path="url(#cp59)"
	stroke="#000000" stroke-width="8px"/>
<!-- Forward arrow to point 0,7815 -->
<polygon points=" -41,7853 -35,7852 -29,7851 -24,7848 -19,7845 -14,7841 -10,7836
 -7,7831 -5,7825 -4,7820 -4,7813 -5,7807 -6,7802 -9,7796 -12,7791 -16,7787 -21,7783
 -27,7781 -32,7779 -38,7778 -44,7778 -50,7779 -56,7781 -61,7783 -66,7787 -70,7791
 -74,7796 -76,7802 -78,7807 -79,7813 -78,7820 -77,7825 -75,7831 -72,7836 -68,7841
 -64,7845 -59,7848 -53,7851 -47,7852 -41,7853"
	stroke="#000000" stroke-width="8px" stroke-miterlimit="8"/>
<!-- Backward arrow to point -360,7815 -->
<polygon points=" -319,7778 -325,7778 -331,7779 -336,7782 -341,7785 -346,7789
 -350,7794 -353,7799 -355,7805 -356,7810 -356,7817 -355,7823 -354,7828 -351,7834
 -348,7839 -344,7843 -339,7847 -333,7849 -328,7851 -322,7852 -316,7852 -310,7851
 -304,7849 -299,7847 -294,7843 -290,7839 -286,7834 -284,7828 -282,7823 -281,7817
 -282,7810 -283,7805 -285,7799 -288,7794 -292,7789 -296,7785 -301,7782 -307,7779
 -313,7778 -319,7778"
	stroke="#000000" stroke-width="8px" stroke-miterlimit="8"/>
<!-- Line -->
<defs>
<clipPath id="cp60">
	<path clip-rule="evenodd" d="M -1137,348 H 3612 V 8149 H -1137 z
		M -584,7778 -590,7779 -596,7781 -601,7783 -606,7787 -610,7791 -614,7796 -616,7802 -618,7807 -619,7813 -618,7820 -617,7825 -615,7831 -612,7836 -608,7841 -604,7845 -599,7848 -593,7851 -587,7852 -581,7853 -537,7822 -537,7808z
		M -856,7852 -850,7851 -844,7849 -839,7847 -834,7843 -830,7839 -826,7834 -824,7828 -822,7823 -821,7817 -822,7810 -823,7805 -825,7799 -828,7794 -832,7789 -836,7785 -841,7782 -847,7779 -853,7778 -859,7778 -903,7808 -903,7822z"/>
</clipPath>
</defs>
<polyline points=" -900,7815 -540,7815" clip-path="url(#cp60)"
	stroke="#000000" stroke-width="8px"/>
<!-- Forward arrow to point -540,7815 -->
<polygon points=" -581,7853 -575,7852 -569,7851 -564,7848 -559,7845 -554,7841
 -550,7836 -547,7831 -545,7825 -544,7820 -544,7813 -545,7807 -546,7802 -549,7796
 -552,7791 -556,7787 -561,7783 -567,7781 -572,7779 -578,7778 -584,7778 -590,7779
 -596,7781 -601,7783 -606,7787 -610,7791 -614,7796 -616,7802 -618,7807 -619,7813
 -618,7820 -617,7825 -615,7831 -612,7836 -608,7841 -604,7845 -599,7848 -593,7851
 -587,7852 -581,7853"
	stroke="#000000" stroke-width="8px" stroke-miterlimit="8"/>
<!-- Backward arrow to point -900,7815 -->
<polygon points=" -859,7778 -865,7778 -871,7779 -876,7782 -881,7785 -886,7789
 -890,7794 -893,7799 -895,7805 -896,7810 -896,7817 -895,7823 -894,7828 -891,7834
 -888,7839 -884,7843 -879,7847 -873,7849 -868,7851 -862,7852 -856,7852 -850,7851
 -844,7849 -839,7847 -834,7843 -830,7839 -826,7834 -824,7828 -822,7823 -821,7817
 -822,7810 -823,7805 -825,7799 -828,7794 -832,7789 -836,7785 -841,7782 -847,7779
 -853,7778 -859,7778"
	stroke="#000000" stroke-width="8px" stroke-miterlimit="8"/>
<!-- Text -->
<text xml:space="preserve" x="1260" y="1155" fill="#000000" font-family="Times" font-style="normal" font-weight="normal" font-size="144" text-anchor="start">x[n]</text>
<!-- Text -->
<text xml:space="preserve" x="2745" y="1965" fill="#000000" font-family="Times" font-style="normal" font-weight="normal" font-size="144" text-anchor="start">n</text>
<!-- Text -->
<text xml:space="preserve" x="1260" y="4125" fill="#000000" font-family="Times" font-style="normal" font-weight="normal" font-size="144" text-anchor="start">x[2n]</text>
<!-- Text -->
<text xml:space="preserve" x="2070" y="4935" fill="#000000" font-family="Times" font-style="normal" font-weight="normal" font-size="144" text-anchor="start">n</text>
<!-- Text -->
<text xml:space="preserve" x="1260" y="6915" fill="#000000" font-family="Times" font-style="normal" font-weight="normal" font-size="144" text-anchor="start">x[n/2]</text>
<!-- Text -->
<text xml:space="preserve" x="3465" y="7725" fill="#000000" font-family="Times" font-style="normal" font-weight="normal" font-size="144" text-anchor="start">n</text>
</g>
</svg>
