<?xml version="1.0" encoding="UTF-8" standalone="no"?>
<!-- Creator: fig2dev Version 3.2.8b -->
<!-- CreationDate: 2025-10-30 19:43:16 -->
<!-- Magnification: 1.05 -->
<svg	xmlns="http://www.w3.org/2000/svg"
	xmlns:xlink="http://www.w3.org/1999/xlink"
	width="133pt" height="85pt"
	viewBox="1200 1338 2100 1336">
<g fill="none">
<!-- Line -->
<polyline points=" 2152,1681 2303,1530"
	stroke="#000000" stroke-width="8px"/>
<!-- Line -->
<polyline points=" 2302,1677 2151,1526"
	stroke="#000000" stroke-width="8px"/>
<!-- Line -->
<defs>
<clipPath id="cp0">
	<path clip-rule="evenodd" d="M 1200,1338 H 3300 V 2674 H 1200 z
		M 1900,1590 1930,1620 1900,1650 2077,1627 2077,1613z"/>
</clipPath>
</defs>
<polyline points=" 1260,1620 2070,1620" clip-path="url(#cp0)"
	stroke="#000000" stroke-width="8px"/>
<!-- Forward arrow to point 2070,1620 -->
<polygon points=" 1900,1650 2050,1620 1900,1590 1930,1620 1900,1650"
	stroke="#000000" stroke-width="8px" stroke-miterlimit="8" fill="#000000"/>
<!-- Line -->
<defs>
<clipPath id="cp1">
	<path clip-rule="evenodd" d="M 1200,1338 H 3300 V 2674 H 1200 z
		M 3070,1590 3100,1620 3070,1650 3247,1627 3247,1613z"/>
</clipPath>
</defs>
<polyline points=" 2385,1620 3240,1620" clip-path="url(#cp1)"
	stroke="#000000" stroke-width="8px"/>
<!-- Forward arrow to point 3240,1620 -->
<polygon points=" 3070,1650 3220,1620 3070,1590 3100,1620 3070,1650"
	stroke="#000000" stroke-width="8px" stroke-miterlimit="8" fill="#000000"/>
<!-- Line -->
<defs>
<clipPath id="cp2">
	<path clip-rule="evenodd" d="M 1200,1338 H 3300 V 2674 H 1200 z
		M 2220,1925 2250,1895 2280,1925 2257,1748 2243,1748z"/>
</clipPath>
</defs>
<polyline points=" 2250,2430 2250,1755" clip-path="url(#cp2)"
	stroke="#000000" stroke-width="8px"/>
<!-- Forward arrow to point 2250,1755 -->
<polygon points=" 2280,1925 2250,1775 2220,1925 2250,1895 2280,1925"
	stroke="#000000" stroke-width="8px" stroke-miterlimit="8" fill="#000000"/>
<!-- Line -->
<rect x="1755" y="1350" width="1035" height="720"
	stroke="#000000" stroke-width="8px" stroke-dasharray="30 30"/>
<!-- Text -->
<text xml:space="preserve" x="1215" y="1665" fill="#000000" font-family="Times" font-style="normal" font-weight="normal" font-size="144" text-anchor="end">x[n]</text>
<!-- Text -->
<text xml:space="preserve" x="3285" y="1665" fill="#000000" font-family="Times" font-style="normal" font-weight="normal" font-size="144" text-anchor="start">A x[n]</text>
<!-- Text -->
<text xml:space="preserve" x="2250" y="2610" fill="#000000" font-family="Times" font-style="normal" font-weight="normal" font-size="144" text-anchor="middle">A</text>
<!-- Circle -->
<circle cx="2230" cy="1603" r="157"
	stroke="#000000" stroke-width="8px"/>
</g>
</svg>
