<?xml version="1.0" encoding="UTF-8" standalone="no"?>
<!-- Creator: fig2dev Version 3.2.8b -->
<!-- CreationDate: 2025-10-30 19:43:16 -->
<!-- Magnification: 1.05 -->
<svg	xmlns="http://www.w3.org/2000/svg"
	xmlns:xlink="http://www.w3.org/1999/xlink"
	width="104pt" height="34pt"
	viewBox="-687 249 1644 528">
<g fill="none">
<!-- Line -->
<polyline points=" -90,360 270,360"
	stroke="#000000" stroke-width="8px"/>
<!-- Line -->
<polyline points=" -90,630 270,630"
	stroke="#000000" stroke-width="8px"/>
<!-- Line -->
<polyline points=" -90,630 -90,360 0,270 360,270 360,540 270,630 -90,630"
	stroke="#000000" stroke-width="8px"/>
<!-- Line -->
<polyline points=" 270,630 270,360 360,270"
	stroke="#000000" stroke-width="8px"/>
<!-- Line -->
<defs>
<clipPath id="cp0">
	<path clip-rule="evenodd" d="M -687,249 H 957 V 777 H -687 z
		M 520,428 538,450 520,473 641,461 641,440z"/>
</clipPath>
</defs>
<polyline points=" 315,450 630,450" clip-path="url(#cp0)"
	stroke="#000000" stroke-width="15px"/>
<!-- Forward arrow to point 630,450 -->
<polygon points=" 520,473 613,450 520,428 538,450 520,473"
	stroke="#000000" stroke-width="8px" stroke-miterlimit="8" fill="#000000"/>
<!-- Line -->
<defs>
<clipPath id="cp1">
	<path clip-rule="evenodd" d="M -687,249 H 957 V 777 H -687 z
		M -250,608 -268,585 -250,563 -370,575 -370,596z"/>
</clipPath>
</defs>
<polyline points=" -90,585 -360,585" clip-path="url(#cp1)"
	stroke="#000000" stroke-width="15px"/>
<!-- Forward arrow to point -360,585 -->
<polygon points=" -250,563 -343,585 -250,608 -268,585 -250,563"
	stroke="#000000" stroke-width="8px" stroke-miterlimit="8" fill="#000000"/>
<!-- Line -->
<polyline points=" -675,765 810,765"
	stroke="#000000" stroke-width="8px"/>
<!-- Line -->
<polyline points=" 360,405 945,405"
	stroke="#000000" stroke-width="8px"/>
<!-- Line -->
<polyline points=" -540,405 -90,405"
	stroke="#000000" stroke-width="8px"/>
<!-- Line -->
<polyline points=" 810,765 811,764 817,760 829,751 845,738 862,723 878,709 890,696 899,684 904,672
 908,660 909,649 908,638 907,626 905,613 902,599 899,585 896,571 892,557 889,544
 887,532 886,521 885,510 886,498 889,486 894,474 901,461 911,447 922,432 933,419
 941,410 944,406 945,405"
	stroke="#000000" stroke-width="8px" stroke-linejoin="bevel"/>
<!-- Line -->
<polyline points=" -675,765 -674,764 -671,761 -663,752 -651,739 -636,723 -621,706 -608,690 -596,676
 -587,663 -580,651 -574,640 -570,630 -567,618 -565,605 -564,591 -564,577 -565,564
 -566,550 -567,537 -569,524 -570,513 -570,503 -570,492 -568,482 -566,471 -562,459
 -557,446 -551,431 -546,419 -542,410 -540,406 -540,405"
	stroke="#000000" stroke-width="8px" stroke-linejoin="bevel"/>
<!-- Text -->
<text xml:space="preserve" x="90" y="540" fill="#000000" font-family="Times" font-style="normal" font-weight="normal" font-size="96" text-anchor="middle">m</text>
<!-- Text -->
<text xml:space="preserve" x="540" y="360" fill="#000000" font-family="Times" font-style="normal" font-weight="normal" font-size="96" text-anchor="middle">f</text>
<!-- Text -->
<text xml:space="preserve" x="-315" y="540" fill="#000000" font-family="Times" font-style="normal" font-weight="normal" font-size="96" text-anchor="middle">\rho v</text>
</g>
</svg>
