<?xml version="1.0" encoding="UTF-8" standalone="no"?>
<!-- Creator: fig2dev Version 3.2.8b -->
<!-- CreationDate: 2025-10-30 19:43:16 -->
<!-- Magnification: 1.05 -->
<svg	xmlns="http://www.w3.org/2000/svg"
	xmlns:xlink="http://www.w3.org/1999/xlink"
	width="393pt" height="289pt"
	viewBox="-1632 348 6234 4579">
<g fill="none">
<!-- Line -->
<defs>
<clipPath id="cp0">
	<path clip-rule="evenodd" d="M -1632,348 H 4602 V 4927 H -1632 z
		M 775,510 805,540 775,570 952,547 952,533z"/>
</clipPath>
</defs>
<polyline points=" 405,540 945,540" clip-path="url(#cp0)"
	stroke="#000000" stroke-width="8px"/>
<!-- Forward arrow to point 945,540 -->
<polygon points=" 775,570 925,540 775,510 805,540 775,570"
	stroke="#000000" stroke-width="8px" stroke-miterlimit="8" fill="#000000"/>
<!-- Line -->
<defs>
<clipPath id="cp1">
	<path clip-rule="evenodd" d="M -1632,348 H 4602 V 4927 H -1632 z
		M 1675,510 1705,540 1675,570 1852,547 1852,533z"/>
</clipPath>
</defs>
<polyline points=" 1395,540 1845,540" clip-path="url(#cp1)"
	stroke="#000000" stroke-width="8px"/>
<!-- Forward arrow to point 1845,540 -->
<polygon points=" 1675,570 1825,540 1675,510 1705,540 1675,570"
	stroke="#000000" stroke-width="8px" stroke-miterlimit="8" fill="#000000"/>
<!-- Line -->
<rect x="945" y="360" width="450" height="360"
	stroke="#000000" stroke-width="8px"/>
<!-- Text -->
<text xml:space="preserve" x="1170" y="585" fill="#000000" font-family="Times" font-style="normal" font-weight="normal" font-size="144" text-anchor="middle">T</text>
<!-- Text -->
<text xml:space="preserve" x="360" y="585" fill="#000000" font-family="Times" font-style="normal" font-weight="normal" font-size="144" text-anchor="end">x[n]</text>
<!-- Text -->
<text xml:space="preserve" x="1935" y="585" fill="#000000" font-family="Times" font-style="normal" font-weight="normal" font-size="144" text-anchor="start">x[n-n<tspan font-size="96" baseline-shift="sub">0</tspan>]</text>
<!-- Text -->
<text xml:space="preserve" x="3060" y="4545" fill="#000000" font-family="Times" font-style="normal" font-weight="normal" font-size="144" text-anchor="middle">n<tspan font-size="96" baseline-shift="sub">0</tspan></text>
<!-- Line -->
<defs>
<clipPath id="cp2">
	<path clip-rule="evenodd" d="M -1632,348 H 4602 V 4927 H -1632 z
		M 4495,4335 4510,4350 4495,4365 4597,4357 4597,4343z"/>
</clipPath>
</defs>
<polyline points=" 1710,4350 4590,4350" clip-path="url(#cp2)"
	stroke="#000000" stroke-width="8px"/>
<!-- Forward arrow to point 4590,4350 -->
<polygon points=" 4495,4365 4570,4350 4495,4335 4510,4350 4495,4365"
	stroke="#000000" stroke-width="8px" stroke-miterlimit="8" fill="#000000"/>
<!-- Line -->
<defs>
<clipPath id="cp3">
	<path clip-rule="evenodd" d="M -1632,348 H 4602 V 4927 H -1632 z
		M 3585,3455 3600,3440 3615,3455 3607,3353 3593,3353z"/>
</clipPath>
</defs>
<polyline points=" 3600,4485 3600,3360" clip-path="url(#cp3)"
	stroke="#000000" stroke-width="8px"/>
<!-- Forward arrow to point 3600,3360 -->
<polygon points=" 3615,3455 3600,3380 3585,3455 3600,3440 3615,3455"
	stroke="#000000" stroke-width="8px" stroke-miterlimit="8" fill="#000000"/>
<!-- Text -->
<text xml:space="preserve" x="-270" y="4545" fill="#000000" font-family="Times" font-style="normal" font-weight="normal" font-size="144" text-anchor="middle">n<tspan font-size="96" baseline-shift="sub">0</tspan></text>
<!-- Line -->
<defs>
<clipPath id="cp4">
	<path clip-rule="evenodd" d="M -1632,348 H 4602 V 4927 H -1632 z
		M 1165,4335 1180,4350 1165,4365 1267,4357 1267,4343z"/>
</clipPath>
</defs>
<polyline points=" -1620,4350 1260,4350" clip-path="url(#cp4)"
	stroke="#000000" stroke-width="8px"/>
<!-- Forward arrow to point 1260,4350 -->
<polygon points=" 1165,4365 1240,4350 1165,4335 1180,4350 1165,4365"
	stroke="#000000" stroke-width="8px" stroke-miterlimit="8" fill="#000000"/>
<!-- Line -->
<defs>
<clipPath id="cp5">
	<path clip-rule="evenodd" d="M -1632,348 H 4602 V 4927 H -1632 z
		M -825,3455 -810,3440 -795,3455 -803,3353 -817,3353z"/>
</clipPath>
</defs>
<polyline points=" -810,4485 -810,3360" clip-path="url(#cp5)"
	stroke="#000000" stroke-width="8px"/>
<!-- Forward arrow to point -810,3360 -->
<polygon points=" -795,3455 -810,3380 -825,3455 -810,3440 -795,3455"
	stroke="#000000" stroke-width="8px" stroke-miterlimit="8" fill="#000000"/>
<!-- Line -->
<defs>
<clipPath id="cp6">
	<path clip-rule="evenodd" d="M -1632,348 H 4602 V 4927 H -1632 z
		M 2785,2040 2800,2055 2785,2070 2887,2062 2887,2048z"/>
</clipPath>
</defs>
<polyline points=" -225,2055 2880,2055" clip-path="url(#cp6)"
	stroke="#000000" stroke-width="8px"/>
<!-- Forward arrow to point 2880,2055 -->
<polygon points=" 2785,2070 2860,2055 2785,2040 2800,2055 2785,2070"
	stroke="#000000" stroke-width="8px" stroke-miterlimit="8" fill="#000000"/>
<!-- Line -->
<defs>
<clipPath id="cp7">
	<path clip-rule="evenodd" d="M -1632,348 H 4602 V 4927 H -1632 z
		M 1155,1160 1170,1145 1185,1160 1177,1058 1163,1058z"/>
</clipPath>
</defs>
<polyline points=" 1170,2190 1170,1065" clip-path="url(#cp7)"
	stroke="#000000" stroke-width="8px"/>
<!-- Forward arrow to point 1170,1065 -->
<polygon points=" 1185,1160 1170,1085 1155,1160 1170,1145 1185,1160"
	stroke="#000000" stroke-width="8px" stroke-miterlimit="8" fill="#000000"/>
<!-- Text -->
<text xml:space="preserve" x="1170" y="2325" fill="#000000" font-family="Times" font-style="normal" font-weight="normal" font-size="144" text-anchor="middle">0</text>
<!-- Text -->
<text xml:space="preserve" x="1800" y="3015" fill="#000000" font-family="Times" font-style="normal" font-weight="normal" font-size="144" text-anchor="start">* {\bf Adelanto}: n<tspan font-size="96" baseline-shift="sub">0</tspan>&lt;0.</text>
<!-- Text -->
<text xml:space="preserve" x="-1530" y="3015" fill="#000000" font-family="Times" font-style="normal" font-weight="normal" font-size="144" text-anchor="start">* {\bf Retardo}: n<tspan font-size="96" baseline-shift="sub">0</tspan>&gt;0.</text>
<!-- Line -->
<defs>
<clipPath id="cp8">
	<path clip-rule="evenodd" d="M -1632,348 H 4602 V 4927 H -1632 z
		M 2483,4034 2484,4040 2486,4046 2488,4051 2492,4056 2496,4060 2501,4064 2507,4066 2512,4068 2518,4069 2525,4068 2530,4067 2536,4065 2541,4062 2546,4058 2550,4054 2553,4049 2556,4043 2557,4037 2558,4031 2531,3983 2510,3983z"/>
</clipPath>
</defs>
<polyline points=" 2520,4350 2520,3990" clip-path="url(#cp8)"
	stroke="#000000" stroke-width="15px"/>
<!-- Forward arrow to point 2520,3990 -->
<polygon points=" 2558,4031 2557,4025 2556,4019 2553,4014 2550,4009 2546,4004
 2541,4000 2536,3997 2530,3995 2525,3994 2518,3994 2512,3995 2507,3996 2501,3999
 2496,4002 2492,4006 2488,4011 2486,4017 2484,4022 2483,4028 2483,4034 2484,4040
 2486,4046 2488,4051 2492,4056 2496,4060 2501,4064 2507,4066 2512,4068 2518,4069
 2525,4068 2530,4067 2536,4065 2541,4062 2546,4058 2550,4054 2553,4049 2556,4043
 2557,4037 2558,4031"
	stroke="#000000" stroke-width="8px" stroke-miterlimit="8"/>
<!-- Line -->
<defs>
<clipPath id="cp9">
	<path clip-rule="evenodd" d="M -1632,348 H 4602 V 4927 H -1632 z
		M 3023,4214 3024,4220 3026,4226 3028,4231 3032,4236 3036,4240 3041,4244 3047,4246 3052,4248 3058,4249 3065,4248 3070,4247 3076,4245 3081,4242 3086,4238 3090,4234 3093,4229 3096,4223 3097,4217 3098,4211 3071,4163 3050,4163z"/>
</clipPath>
</defs>
<polyline points=" 3060,4350 3060,4170" clip-path="url(#cp9)"
	stroke="#000000" stroke-width="15px"/>
<!-- Forward arrow to point 3060,4170 -->
<polygon points=" 3098,4211 3097,4205 3096,4199 3093,4194 3090,4189 3086,4184
 3081,4180 3076,4177 3070,4175 3065,4174 3058,4174 3052,4175 3047,4176 3041,4179
 3036,4182 3032,4186 3028,4191 3026,4197 3024,4202 3023,4208 3023,4214 3024,4220
 3026,4226 3028,4231 3032,4236 3036,4240 3041,4244 3047,4246 3052,4248 3058,4249
 3065,4248 3070,4247 3076,4245 3081,4242 3086,4238 3090,4234 3093,4229 3096,4223
 3097,4217 3098,4211"
	stroke="#000000" stroke-width="8px" stroke-miterlimit="8"/>
<!-- Line -->
<defs>
<clipPath id="cp10">
	<path clip-rule="evenodd" d="M -1632,348 H 4602 V 4927 H -1632 z
		M 3367,4486 3366,4480 3364,4474 3362,4469 3358,4464 3354,4460 3349,4456 3343,4454 3338,4452 3332,4451 3325,4452 3320,4453 3314,4455 3309,4458 3304,4462 3300,4466 3297,4471 3294,4477 3293,4483 3293,4489 3320,4537 3341,4537z"/>
</clipPath>
</defs>
<polyline points=" 3330,4350 3330,4530" clip-path="url(#cp10)"
	stroke="#000000" stroke-width="15px"/>
<!-- Forward arrow to point 3330,4530 -->
<polygon points=" 3293,4489 3293,4495 3294,4501 3297,4506 3300,4511 3304,4516
 3309,4520 3314,4523 3320,4525 3325,4526 3332,4526 3338,4525 3343,4524 3349,4521
 3354,4518 3358,4514 3362,4509 3364,4503 3366,4498 3367,4492 3367,4486 3366,4480
 3364,4474 3362,4469 3358,4464 3354,4460 3349,4456 3343,4454 3338,4452 3332,4451
 3325,4452 3320,4453 3314,4455 3309,4458 3304,4462 3300,4466 3297,4471 3294,4477
 3293,4483 3293,4489"
	stroke="#000000" stroke-width="8px" stroke-miterlimit="8"/>
<!-- Line -->
<defs>
<clipPath id="cp11">
	<path clip-rule="evenodd" d="M -1632,348 H 4602 V 4927 H -1632 z
		M 3637,4591 3636,4585 3634,4579 3632,4574 3628,4569 3624,4565 3619,4561 3613,4559 3608,4557 3602,4556 3595,4557 3590,4558 3584,4560 3579,4563 3574,4567 3570,4571 3567,4576 3564,4582 3563,4588 3563,4594 3590,4642 3611,4642z"/>
</clipPath>
</defs>
<polyline points=" 3600,4350 3600,4635" clip-path="url(#cp11)"
	stroke="#000000" stroke-width="15px"/>
<!-- Forward arrow to point 3600,4635 -->
<polygon points=" 3563,4594 3563,4600 3564,4606 3567,4611 3570,4616 3574,4621
 3579,4625 3584,4628 3590,4630 3595,4631 3602,4631 3608,4630 3613,4629 3619,4626
 3624,4623 3628,4619 3632,4614 3634,4608 3636,4603 3637,4597 3637,4591 3636,4585
 3634,4579 3632,4574 3628,4569 3624,4565 3619,4561 3613,4559 3608,4557 3602,4556
 3595,4557 3590,4558 3584,4560 3579,4563 3574,4567 3570,4571 3567,4576 3564,4582
 3563,4588 3563,4594"
	stroke="#000000" stroke-width="8px" stroke-miterlimit="8"/>
<!-- Line -->
<defs>
<clipPath id="cp12">
	<path clip-rule="evenodd" d="M -1632,348 H 4602 V 4927 H -1632 z
		M 2753,4124 2754,4130 2756,4136 2758,4141 2762,4146 2766,4150 2771,4154 2777,4156 2782,4158 2788,4159 2795,4158 2800,4157 2806,4155 2811,4152 2816,4148 2820,4144 2823,4139 2826,4133 2827,4127 2828,4121 2801,4073 2780,4073z"/>
</clipPath>
</defs>
<polyline points=" 2790,4350 2790,4080" clip-path="url(#cp12)"
	stroke="#000000" stroke-width="15px"/>
<!-- Forward arrow to point 2790,4080 -->
<polygon points=" 2828,4121 2827,4115 2826,4109 2823,4104 2820,4099 2816,4094
 2811,4090 2806,4087 2800,4085 2795,4084 2788,4084 2782,4085 2777,4086 2771,4089
 2766,4092 2762,4096 2758,4101 2756,4107 2754,4112 2753,4118 2753,4124 2754,4130
 2756,4136 2758,4141 2762,4146 2766,4150 2771,4154 2777,4156 2782,4158 2788,4159
 2795,4158 2800,4157 2806,4155 2811,4152 2816,4148 2820,4144 2823,4139 2826,4133
 2827,4127 2828,4121"
	stroke="#000000" stroke-width="8px" stroke-miterlimit="8"/>
<!-- Line -->
<defs>
<clipPath id="cp13">
	<path clip-rule="evenodd" d="M -1632,348 H 4602 V 4927 H -1632 z
		M 2213,3854 2214,3860 2216,3866 2218,3871 2222,3876 2226,3880 2231,3884 2237,3886 2242,3888 2248,3889 2255,3888 2260,3887 2266,3885 2271,3882 2276,3878 2280,3874 2283,3869 2286,3863 2287,3857 2288,3851 2261,3803 2240,3803z"/>
</clipPath>
</defs>
<polyline points=" 2250,4350 2250,3810" clip-path="url(#cp13)"
	stroke="#000000" stroke-width="15px"/>
<!-- Forward arrow to point 2250,3810 -->
<polygon points=" 2288,3851 2287,3845 2286,3839 2283,3834 2280,3829 2276,3824
 2271,3820 2266,3817 2260,3815 2255,3814 2248,3814 2242,3815 2237,3816 2231,3819
 2226,3822 2222,3826 2218,3831 2216,3837 2214,3842 2213,3848 2213,3854 2214,3860
 2216,3866 2218,3871 2222,3876 2226,3880 2231,3884 2237,3886 2242,3888 2248,3889
 2255,3888 2260,3887 2266,3885 2271,3882 2276,3878 2280,3874 2283,3869 2286,3863
 2287,3857 2288,3851"
	stroke="#000000" stroke-width="8px" stroke-miterlimit="8"/>
<!-- Line -->
<defs>
<clipPath id="cp14">
	<path clip-rule="evenodd" d="M -1632,348 H 4602 V 4927 H -1632 z
		M 1943,3674 1944,3680 1946,3686 1948,3691 1952,3696 1956,3700 1961,3704 1967,3706 1972,3708 1978,3709 1985,3708 1990,3707 1996,3705 2001,3702 2006,3698 2010,3694 2013,3689 2016,3683 2017,3677 2018,3671 1991,3623 1970,3623z"/>
</clipPath>
</defs>
<polyline points=" 1980,4350 1980,3630" clip-path="url(#cp14)"
	stroke="#000000" stroke-width="15px"/>
<!-- Forward arrow to point 1980,3630 -->
<polygon points=" 2018,3671 2017,3665 2016,3659 2013,3654 2010,3649 2006,3644
 2001,3640 1996,3637 1990,3635 1985,3634 1978,3634 1972,3635 1967,3636 1961,3639
 1956,3642 1952,3646 1948,3651 1946,3657 1944,3662 1943,3668 1943,3674 1944,3680
 1946,3686 1948,3691 1952,3696 1956,3700 1961,3704 1967,3706 1972,3708 1978,3709
 1985,3708 1990,3707 1996,3705 2001,3702 2006,3698 2010,3694 2013,3689 2016,3683
 2017,3677 2018,3671"
	stroke="#000000" stroke-width="8px" stroke-miterlimit="8"/>
<!-- Line -->
<defs>
<clipPath id="cp15">
	<path clip-rule="evenodd" d="M -1632,348 H 4602 V 4927 H -1632 z
		M 4222,4861 4221,4855 4219,4849 4217,4844 4213,4839 4209,4835 4204,4831 4198,4829 4193,4827 4187,4826 4180,4827 4175,4828 4169,4830 4164,4833 4159,4837 4155,4841 4152,4846 4149,4852 4148,4858 4148,4864 4175,4912 4196,4912z"/>
</clipPath>
</defs>
<polyline points=" 4185,4350 4185,4905" clip-path="url(#cp15)"
	stroke="#000000" stroke-width="15px"/>
<!-- Forward arrow to point 4185,4905 -->
<polygon points=" 4148,4864 4148,4870 4149,4876 4152,4881 4155,4886 4159,4891
 4164,4895 4169,4898 4175,4900 4180,4901 4187,4901 4193,4900 4198,4899 4204,4896
 4209,4893 4213,4889 4217,4884 4219,4878 4221,4873 4222,4867 4222,4861 4221,4855
 4219,4849 4217,4844 4213,4839 4209,4835 4204,4831 4198,4829 4193,4827 4187,4826
 4180,4827 4175,4828 4169,4830 4164,4833 4159,4837 4155,4841 4152,4846 4149,4852
 4148,4858 4148,4864"
	stroke="#000000" stroke-width="8px" stroke-miterlimit="8"/>
<!-- Line -->
<defs>
<clipPath id="cp16">
	<path clip-rule="evenodd" d="M -1632,348 H 4602 V 4927 H -1632 z
		M 3907,4726 3906,4720 3904,4714 3902,4709 3898,4704 3894,4700 3889,4696 3883,4694 3878,4692 3872,4691 3865,4692 3860,4693 3854,4695 3849,4698 3844,4702 3840,4706 3837,4711 3834,4717 3833,4723 3833,4729 3860,4777 3881,4777z"/>
</clipPath>
</defs>
<polyline points=" 3870,4350 3870,4770" clip-path="url(#cp16)"
	stroke="#000000" stroke-width="15px"/>
<!-- Forward arrow to point 3870,4770 -->
<polygon points=" 3833,4729 3833,4735 3834,4741 3837,4746 3840,4751 3844,4756
 3849,4760 3854,4763 3860,4765 3865,4766 3872,4766 3878,4765 3883,4764 3889,4761
 3894,4758 3898,4754 3902,4749 3904,4743 3906,4738 3907,4732 3907,4726 3906,4720
 3904,4714 3902,4709 3898,4704 3894,4700 3889,4696 3883,4694 3878,4692 3872,4691
 3865,4692 3860,4693 3854,4695 3849,4698 3844,4702 3840,4706 3837,4711 3834,4717
 3833,4723 3833,4729"
	stroke="#000000" stroke-width="8px" stroke-miterlimit="8"/>
<!-- Line -->
<defs>
<clipPath id="cp17">
	<path clip-rule="evenodd" d="M -1632,348 H 4602 V 4927 H -1632 z
		M -847,4034 -846,4040 -844,4046 -842,4051 -838,4056 -834,4060 -829,4064 -823,4066 -818,4068 -812,4069 -805,4068 -800,4067 -794,4065 -789,4062 -784,4058 -780,4054 -777,4049 -774,4043 -773,4037 -772,4031 -799,3983 -820,3983z"/>
</clipPath>
</defs>
<polyline points=" -810,4350 -810,3990" clip-path="url(#cp17)"
	stroke="#000000" stroke-width="15px"/>
<!-- Forward arrow to point -810,3990 -->
<polygon points=" -772,4031 -773,4025 -774,4019 -777,4014 -780,4009 -784,4004
 -789,4000 -794,3997 -800,3995 -805,3994 -812,3994 -818,3995 -823,3996 -829,3999
 -834,4002 -838,4006 -842,4011 -844,4017 -846,4022 -847,4028 -847,4034 -846,4040
 -844,4046 -842,4051 -838,4056 -834,4060 -829,4064 -823,4066 -818,4068 -812,4069
 -805,4068 -800,4067 -794,4065 -789,4062 -784,4058 -780,4054 -777,4049 -774,4043
 -773,4037 -772,4031"
	stroke="#000000" stroke-width="8px" stroke-miterlimit="8"/>
<!-- Line -->
<defs>
<clipPath id="cp18">
	<path clip-rule="evenodd" d="M -1632,348 H 4602 V 4927 H -1632 z
		M -307,4214 -306,4220 -304,4226 -302,4231 -298,4236 -294,4240 -289,4244 -283,4246 -278,4248 -272,4249 -265,4248 -260,4247 -254,4245 -249,4242 -244,4238 -240,4234 -237,4229 -234,4223 -233,4217 -232,4211 -259,4163 -280,4163z"/>
</clipPath>
</defs>
<polyline points=" -270,4350 -270,4170" clip-path="url(#cp18)"
	stroke="#000000" stroke-width="15px"/>
<!-- Forward arrow to point -270,4170 -->
<polygon points=" -232,4211 -233,4205 -234,4199 -237,4194 -240,4189 -244,4184
 -249,4180 -254,4177 -260,4175 -265,4174 -272,4174 -278,4175 -283,4176 -289,4179
 -294,4182 -298,4186 -302,4191 -304,4197 -306,4202 -307,4208 -307,4214 -306,4220
 -304,4226 -302,4231 -298,4236 -294,4240 -289,4244 -283,4246 -278,4248 -272,4249
 -265,4248 -260,4247 -254,4245 -249,4242 -244,4238 -240,4234 -237,4229 -234,4223
 -233,4217 -232,4211"
	stroke="#000000" stroke-width="8px" stroke-miterlimit="8"/>
<!-- Line -->
<defs>
<clipPath id="cp19">
	<path clip-rule="evenodd" d="M -1632,348 H 4602 V 4927 H -1632 z
		M 37,4486 36,4480 34,4474 32,4469 28,4464 24,4460 19,4456 13,4454 8,4452 2,4451 -5,4452 -10,4453 -16,4455 -21,4458 -26,4462 -30,4466 -33,4471 -36,4477 -37,4483 -37,4489 -10,4537 11,4537z"/>
</clipPath>
</defs>
<polyline points=" 0,4350 0,4530" clip-path="url(#cp19)"
	stroke="#000000" stroke-width="15px"/>
<!-- Forward arrow to point 0,4530 -->
<polygon points=" -37,4489 -37,4495 -36,4501 -33,4506 -30,4511 -26,4516 -21,4520
 -16,4523 -10,4525 -5,4526 2,4526 8,4525 13,4524 19,4521 24,4518 28,4514 32,4509
 34,4503 36,4498 37,4492 37,4486 36,4480 34,4474 32,4469 28,4464 24,4460 19,4456
 13,4454 8,4452 2,4451 -5,4452 -10,4453 -16,4455 -21,4458 -26,4462 -30,4466 -33,4471
 -36,4477 -37,4483 -37,4489"
	stroke="#000000" stroke-width="8px" stroke-miterlimit="8"/>
<!-- Line -->
<defs>
<clipPath id="cp20">
	<path clip-rule="evenodd" d="M -1632,348 H 4602 V 4927 H -1632 z
		M 307,4591 306,4585 304,4579 302,4574 298,4569 294,4565 289,4561 283,4559 278,4557 272,4556 265,4557 260,4558 254,4560 249,4563 244,4567 240,4571 237,4576 234,4582 233,4588 233,4594 260,4642 281,4642z"/>
</clipPath>
</defs>
<polyline points=" 270,4350 270,4635" clip-path="url(#cp20)"
	stroke="#000000" stroke-width="15px"/>
<!-- Forward arrow to point 270,4635 -->
<polygon points=" 233,4594 233,4600 234,4606 237,4611 240,4616 244,4621 249,4625
 254,4628 260,4630 265,4631 272,4631 278,4630 283,4629 289,4626 294,4623 298,4619
 302,4614 304,4608 306,4603 307,4597 307,4591 306,4585 304,4579 302,4574 298,4569
 294,4565 289,4561 283,4559 278,4557 272,4556 265,4557 260,4558 254,4560 249,4563
 244,4567 240,4571 237,4576 234,4582 233,4588 233,4594"
	stroke="#000000" stroke-width="8px" stroke-miterlimit="8"/>
<!-- Line -->
<defs>
<clipPath id="cp21">
	<path clip-rule="evenodd" d="M -1632,348 H 4602 V 4927 H -1632 z
		M -577,4124 -576,4130 -574,4136 -572,4141 -568,4146 -564,4150 -559,4154 -553,4156 -548,4158 -542,4159 -535,4158 -530,4157 -524,4155 -519,4152 -514,4148 -510,4144 -507,4139 -504,4133 -503,4127 -502,4121 -529,4073 -550,4073z"/>
</clipPath>
</defs>
<polyline points=" -540,4350 -540,4080" clip-path="url(#cp21)"
	stroke="#000000" stroke-width="15px"/>
<!-- Forward arrow to point -540,4080 -->
<polygon points=" -502,4121 -503,4115 -504,4109 -507,4104 -510,4099 -514,4094
 -519,4090 -524,4087 -530,4085 -535,4084 -542,4084 -548,4085 -553,4086 -559,4089
 -564,4092 -568,4096 -572,4101 -574,4107 -576,4112 -577,4118 -577,4124 -576,4130
 -574,4136 -572,4141 -568,4146 -564,4150 -559,4154 -553,4156 -548,4158 -542,4159
 -535,4158 -530,4157 -524,4155 -519,4152 -514,4148 -510,4144 -507,4139 -504,4133
 -503,4127 -502,4121"
	stroke="#000000" stroke-width="8px" stroke-miterlimit="8"/>
<!-- Line -->
<defs>
<clipPath id="cp22">
	<path clip-rule="evenodd" d="M -1632,348 H 4602 V 4927 H -1632 z
		M -1117,3854 -1116,3860 -1114,3866 -1112,3871 -1108,3876 -1104,3880 -1099,3884 -1093,3886 -1088,3888 -1082,3889 -1075,3888 -1070,3887 -1064,3885 -1059,3882 -1054,3878 -1050,3874 -1047,3869 -1044,3863 -1043,3857 -1042,3851 -1069,3803 -1090,3803z"/>
</clipPath>
</defs>
<polyline points=" -1080,4350 -1080,3810" clip-path="url(#cp22)"
	stroke="#000000" stroke-width="15px"/>
<!-- Forward arrow to point -1080,3810 -->
<polygon points=" -1042,3851 -1043,3845 -1044,3839 -1047,3834 -1050,3829 -1054,3824
 -1059,3820 -1064,3817 -1070,3815 -1075,3814 -1082,3814 -1088,3815 -1093,3816
 -1099,3819 -1104,3822 -1108,3826 -1112,3831 -1114,3837 -1116,3842 -1117,3848
 -1117,3854 -1116,3860 -1114,3866 -1112,3871 -1108,3876 -1104,3880 -1099,3884
 -1093,3886 -1088,3888 -1082,3889 -1075,3888 -1070,3887 -1064,3885 -1059,3882
 -1054,3878 -1050,3874 -1047,3869 -1044,3863 -1043,3857 -1042,3851"
	stroke="#000000" stroke-width="8px" stroke-miterlimit="8"/>
<!-- Line -->
<defs>
<clipPath id="cp23">
	<path clip-rule="evenodd" d="M -1632,348 H 4602 V 4927 H -1632 z
		M -1387,3674 -1386,3680 -1384,3686 -1382,3691 -1378,3696 -1374,3700 -1369,3704 -1363,3706 -1358,3708 -1352,3709 -1345,3708 -1340,3707 -1334,3705 -1329,3702 -1324,3698 -1320,3694 -1317,3689 -1314,3683 -1313,3677 -1312,3671 -1339,3623 -1360,3623z"/>
</clipPath>
</defs>
<polyline points=" -1350,4350 -1350,3630" clip-path="url(#cp23)"
	stroke="#000000" stroke-width="15px"/>
<!-- Forward arrow to point -1350,3630 -->
<polygon points=" -1312,3671 -1313,3665 -1314,3659 -1317,3654 -1320,3649 -1324,3644
 -1329,3640 -1334,3637 -1340,3635 -1345,3634 -1352,3634 -1358,3635 -1363,3636
 -1369,3639 -1374,3642 -1378,3646 -1382,3651 -1384,3657 -1386,3662 -1387,3668
 -1387,3674 -1386,3680 -1384,3686 -1382,3691 -1378,3696 -1374,3700 -1369,3704
 -1363,3706 -1358,3708 -1352,3709 -1345,3708 -1340,3707 -1334,3705 -1329,3702
 -1324,3698 -1320,3694 -1317,3689 -1314,3683 -1313,3677 -1312,3671"
	stroke="#000000" stroke-width="8px" stroke-miterlimit="8"/>
<!-- Line -->
<defs>
<clipPath id="cp24">
	<path clip-rule="evenodd" d="M -1632,348 H 4602 V 4927 H -1632 z
		M 892,4861 891,4855 889,4849 887,4844 883,4839 879,4835 874,4831 868,4829 863,4827 857,4826 850,4827 845,4828 839,4830 834,4833 829,4837 825,4841 822,4846 819,4852 818,4858 818,4864 845,4912 866,4912z"/>
</clipPath>
</defs>
<polyline points=" 855,4350 855,4905" clip-path="url(#cp24)"
	stroke="#000000" stroke-width="15px"/>
<!-- Forward arrow to point 855,4905 -->
<polygon points=" 818,4864 818,4870 819,4876 822,4881 825,4886 829,4891 834,4895
 839,4898 845,4900 850,4901 857,4901 863,4900 868,4899 874,4896 879,4893 883,4889
 887,4884 889,4878 891,4873 892,4867 892,4861 891,4855 889,4849 887,4844 883,4839
 879,4835 874,4831 868,4829 863,4827 857,4826 850,4827 845,4828 839,4830 834,4833
 829,4837 825,4841 822,4846 819,4852 818,4858 818,4864"
	stroke="#000000" stroke-width="8px" stroke-miterlimit="8"/>
<!-- Line -->
<defs>
<clipPath id="cp25">
	<path clip-rule="evenodd" d="M -1632,348 H 4602 V 4927 H -1632 z
		M 577,4726 576,4720 574,4714 572,4709 568,4704 564,4700 559,4696 553,4694 548,4692 542,4691 535,4692 530,4693 524,4695 519,4698 514,4702 510,4706 507,4711 504,4717 503,4723 503,4729 530,4777 551,4777z"/>
</clipPath>
</defs>
<polyline points=" 540,4350 540,4770" clip-path="url(#cp25)"
	stroke="#000000" stroke-width="15px"/>
<!-- Forward arrow to point 540,4770 -->
<polygon points=" 503,4729 503,4735 504,4741 507,4746 510,4751 514,4756 519,4760
 524,4763 530,4765 535,4766 542,4766 548,4765 553,4764 559,4761 564,4758 568,4754
 572,4749 574,4743 576,4738 577,4732 577,4726 576,4720 574,4714 572,4709 568,4704
 564,4700 559,4696 553,4694 548,4692 542,4691 535,4692 530,4693 524,4695 519,4698
 514,4702 510,4706 507,4711 504,4717 503,4723 503,4729"
	stroke="#000000" stroke-width="8px" stroke-miterlimit="8"/>
<!-- Line -->
<defs>
<clipPath id="cp26">
	<path clip-rule="evenodd" d="M -1632,348 H 4602 V 4927 H -1632 z
		M 593,1739 594,1745 596,1751 598,1756 602,1761 606,1765 611,1769 617,1771 622,1773 628,1774 635,1773 640,1772 646,1770 651,1767 656,1763 660,1759 663,1754 666,1748 667,1742 668,1736 641,1688 620,1688z"/>
</clipPath>
</defs>
<polyline points=" 630,2055 630,1695" clip-path="url(#cp26)"
	stroke="#000000" stroke-width="15px"/>
<!-- Forward arrow to point 630,1695 -->
<polygon points=" 668,1736 667,1730 666,1724 663,1719 660,1714 656,1709 651,1705
 646,1702 640,1700 635,1699 628,1699 622,1700 617,1701 611,1704 606,1707 602,1711
 598,1716 596,1722 594,1727 593,1733 593,1739 594,1745 596,1751 598,1756 602,1761
 606,1765 611,1769 617,1771 622,1773 628,1774 635,1773 640,1772 646,1770 651,1767
 656,1763 660,1759 663,1754 666,1748 667,1742 668,1736"
	stroke="#000000" stroke-width="8px" stroke-miterlimit="8"/>
<!-- Line -->
<defs>
<clipPath id="cp27">
	<path clip-rule="evenodd" d="M -1632,348 H 4602 V 4927 H -1632 z
		M 1133,1919 1134,1925 1136,1931 1138,1936 1142,1941 1146,1945 1151,1949 1157,1951 1162,1953 1168,1954 1175,1953 1180,1952 1186,1950 1191,1947 1196,1943 1200,1939 1203,1934 1206,1928 1207,1922 1208,1916 1181,1868 1160,1868z"/>
</clipPath>
</defs>
<polyline points=" 1170,2055 1170,1875" clip-path="url(#cp27)"
	stroke="#000000" stroke-width="15px"/>
<!-- Forward arrow to point 1170,1875 -->
<polygon points=" 1208,1916 1207,1910 1206,1904 1203,1899 1200,1894 1196,1889
 1191,1885 1186,1882 1180,1880 1175,1879 1168,1879 1162,1880 1157,1881 1151,1884
 1146,1887 1142,1891 1138,1896 1136,1902 1134,1907 1133,1913 1133,1919 1134,1925
 1136,1931 1138,1936 1142,1941 1146,1945 1151,1949 1157,1951 1162,1953 1168,1954
 1175,1953 1180,1952 1186,1950 1191,1947 1196,1943 1200,1939 1203,1934 1206,1928
 1207,1922 1208,1916"
	stroke="#000000" stroke-width="8px" stroke-miterlimit="8"/>
<!-- Line -->
<defs>
<clipPath id="cp28">
	<path clip-rule="evenodd" d="M -1632,348 H 4602 V 4927 H -1632 z
		M 1477,2191 1476,2185 1474,2179 1472,2174 1468,2169 1464,2165 1459,2161 1453,2159 1448,2157 1442,2156 1435,2157 1430,2158 1424,2160 1419,2163 1414,2167 1410,2171 1407,2176 1404,2182 1403,2188 1403,2194 1430,2242 1451,2242z"/>
</clipPath>
</defs>
<polyline points=" 1440,2055 1440,2235" clip-path="url(#cp28)"
	stroke="#000000" stroke-width="15px"/>
<!-- Forward arrow to point 1440,2235 -->
<polygon points=" 1403,2194 1403,2200 1404,2206 1407,2211 1410,2216 1414,2221
 1419,2225 1424,2228 1430,2230 1435,2231 1442,2231 1448,2230 1453,2229 1459,2226
 1464,2223 1468,2219 1472,2214 1474,2208 1476,2203 1477,2197 1477,2191 1476,2185
 1474,2179 1472,2174 1468,2169 1464,2165 1459,2161 1453,2159 1448,2157 1442,2156
 1435,2157 1430,2158 1424,2160 1419,2163 1414,2167 1410,2171 1407,2176 1404,2182
 1403,2188 1403,2194"
	stroke="#000000" stroke-width="8px" stroke-miterlimit="8"/>
<!-- Line -->
<defs>
<clipPath id="cp29">
	<path clip-rule="evenodd" d="M -1632,348 H 4602 V 4927 H -1632 z
		M 1747,2296 1746,2290 1744,2284 1742,2279 1738,2274 1734,2270 1729,2266 1723,2264 1718,2262 1712,2261 1705,2262 1700,2263 1694,2265 1689,2268 1684,2272 1680,2276 1677,2281 1674,2287 1673,2293 1673,2299 1700,2347 1721,2347z"/>
</clipPath>
</defs>
<polyline points=" 1710,2055 1710,2340" clip-path="url(#cp29)"
	stroke="#000000" stroke-width="15px"/>
<!-- Forward arrow to point 1710,2340 -->
<polygon points=" 1673,2299 1673,2305 1674,2311 1677,2316 1680,2321 1684,2326
 1689,2330 1694,2333 1700,2335 1705,2336 1712,2336 1718,2335 1723,2334 1729,2331
 1734,2328 1738,2324 1742,2319 1744,2313 1746,2308 1747,2302 1747,2296 1746,2290
 1744,2284 1742,2279 1738,2274 1734,2270 1729,2266 1723,2264 1718,2262 1712,2261
 1705,2262 1700,2263 1694,2265 1689,2268 1684,2272 1680,2276 1677,2281 1674,2287
 1673,2293 1673,2299"
	stroke="#000000" stroke-width="8px" stroke-miterlimit="8"/>
<!-- Line -->
<defs>
<clipPath id="cp30">
	<path clip-rule="evenodd" d="M -1632,348 H 4602 V 4927 H -1632 z
		M 863,1829 864,1835 866,1841 868,1846 872,1851 876,1855 881,1859 887,1861 892,1863 898,1864 905,1863 910,1862 916,1860 921,1857 926,1853 930,1849 933,1844 936,1838 937,1832 938,1826 911,1778 890,1778z"/>
</clipPath>
</defs>
<polyline points=" 900,2055 900,1785" clip-path="url(#cp30)"
	stroke="#000000" stroke-width="15px"/>
<!-- Forward arrow to point 900,1785 -->
<polygon points=" 938,1826 937,1820 936,1814 933,1809 930,1804 926,1799 921,1795
 916,1792 910,1790 905,1789 898,1789 892,1790 887,1791 881,1794 876,1797 872,1801
 868,1806 866,1812 864,1817 863,1823 863,1829 864,1835 866,1841 868,1846 872,1851
 876,1855 881,1859 887,1861 892,1863 898,1864 905,1863 910,1862 916,1860 921,1857
 926,1853 930,1849 933,1844 936,1838 937,1832 938,1826"
	stroke="#000000" stroke-width="8px" stroke-miterlimit="8"/>
<!-- Line -->
<defs>
<clipPath id="cp31">
	<path clip-rule="evenodd" d="M -1632,348 H 4602 V 4927 H -1632 z
		M 323,1559 324,1565 326,1571 328,1576 332,1581 336,1585 341,1589 347,1591 352,1593 358,1594 365,1593 370,1592 376,1590 381,1587 386,1583 390,1579 393,1574 396,1568 397,1562 398,1556 371,1508 350,1508z"/>
</clipPath>
</defs>
<polyline points=" 360,2055 360,1515" clip-path="url(#cp31)"
	stroke="#000000" stroke-width="15px"/>
<!-- Forward arrow to point 360,1515 -->
<polygon points=" 398,1556 397,1550 396,1544 393,1539 390,1534 386,1529 381,1525
 376,1522 370,1520 365,1519 358,1519 352,1520 347,1521 341,1524 336,1527 332,1531
 328,1536 326,1542 324,1547 323,1553 323,1559 324,1565 326,1571 328,1576 332,1581
 336,1585 341,1589 347,1591 352,1593 358,1594 365,1593 370,1592 376,1590 381,1587
 386,1583 390,1579 393,1574 396,1568 397,1562 398,1556"
	stroke="#000000" stroke-width="8px" stroke-miterlimit="8"/>
<!-- Line -->
<defs>
<clipPath id="cp32">
	<path clip-rule="evenodd" d="M -1632,348 H 4602 V 4927 H -1632 z
		M 53,1379 54,1385 56,1391 58,1396 62,1401 66,1405 71,1409 77,1411 82,1413 88,1414 95,1413 100,1412 106,1410 111,1407 116,1403 120,1399 123,1394 126,1388 127,1382 128,1376 101,1328 80,1328z"/>
</clipPath>
</defs>
<polyline points=" 90,2055 90,1335" clip-path="url(#cp32)"
	stroke="#000000" stroke-width="15px"/>
<!-- Forward arrow to point 90,1335 -->
<polygon points=" 128,1376 127,1370 126,1364 123,1359 120,1354 116,1349 111,1345
 106,1342 100,1340 95,1339 88,1339 82,1340 77,1341 71,1344 66,1347 62,1351 58,1356
 56,1362 54,1367 53,1373 53,1379 54,1385 56,1391 58,1396 62,1401 66,1405 71,1409
 77,1411 82,1413 88,1414 95,1413 100,1412 106,1410 111,1407 116,1403 120,1399
 123,1394 126,1388 127,1382 128,1376"
	stroke="#000000" stroke-width="8px" stroke-miterlimit="8"/>
<!-- Line -->
<defs>
<clipPath id="cp33">
	<path clip-rule="evenodd" d="M -1632,348 H 4602 V 4927 H -1632 z
		M 2332,2566 2331,2560 2329,2554 2327,2549 2323,2544 2319,2540 2314,2536 2308,2534 2303,2532 2297,2531 2290,2532 2285,2533 2279,2535 2274,2538 2269,2542 2265,2546 2262,2551 2259,2557 2258,2563 2258,2569 2285,2617 2306,2617z"/>
</clipPath>
</defs>
<polyline points=" 2295,2055 2295,2610" clip-path="url(#cp33)"
	stroke="#000000" stroke-width="15px"/>
<!-- Forward arrow to point 2295,2610 -->
<polygon points=" 2258,2569 2258,2575 2259,2581 2262,2586 2265,2591 2269,2596
 2274,2600 2279,2603 2285,2605 2290,2606 2297,2606 2303,2605 2308,2604 2314,2601
 2319,2598 2323,2594 2327,2589 2329,2583 2331,2578 2332,2572 2332,2566 2331,2560
 2329,2554 2327,2549 2323,2544 2319,2540 2314,2536 2308,2534 2303,2532 2297,2531
 2290,2532 2285,2533 2279,2535 2274,2538 2269,2542 2265,2546 2262,2551 2259,2557
 2258,2563 2258,2569"
	stroke="#000000" stroke-width="8px" stroke-miterlimit="8"/>
<!-- Line -->
<defs>
<clipPath id="cp34">
	<path clip-rule="evenodd" d="M -1632,348 H 4602 V 4927 H -1632 z
		M 2017,2431 2016,2425 2014,2419 2012,2414 2008,2409 2004,2405 1999,2401 1993,2399 1988,2397 1982,2396 1975,2397 1970,2398 1964,2400 1959,2403 1954,2407 1950,2411 1947,2416 1944,2422 1943,2428 1943,2434 1970,2482 1991,2482z"/>
</clipPath>
</defs>
<polyline points=" 1980,2055 1980,2475" clip-path="url(#cp34)"
	stroke="#000000" stroke-width="15px"/>
<!-- Forward arrow to point 1980,2475 -->
<polygon points=" 1943,2434 1943,2440 1944,2446 1947,2451 1950,2456 1954,2461
 1959,2465 1964,2468 1970,2470 1975,2471 1982,2471 1988,2470 1993,2469 1999,2466
 2004,2463 2008,2459 2012,2454 2014,2448 2016,2443 2017,2437 2017,2431 2016,2425
 2014,2419 2012,2414 2008,2409 2004,2405 1999,2401 1993,2399 1988,2397 1982,2396
 1975,2397 1970,2398 1964,2400 1959,2403 1954,2407 1950,2411 1947,2416 1944,2422
 1943,2428 1943,2434"
	stroke="#000000" stroke-width="8px" stroke-miterlimit="8"/>
<!-- Text -->
<text xml:space="preserve" x="4500" y="4260" fill="#000000" font-family="Times" font-style="normal" font-weight="normal" font-size="144" text-anchor="start">n</text>
<!-- Text -->
<text xml:space="preserve" x="3690" y="3450" fill="#000000" font-family="Times" font-style="normal" font-weight="normal" font-size="144" text-anchor="start">x[n-n<tspan font-size="96" baseline-shift="sub">0</tspan>]</text>
<!-- Text -->
<text xml:space="preserve" x="-720" y="3450" fill="#000000" font-family="Times" font-style="normal" font-weight="normal" font-size="144" text-anchor="start">x[n-n<tspan font-size="96" baseline-shift="sub">0</tspan>]</text>
<!-- Text -->
<text xml:space="preserve" x="1170" y="4260" fill="#000000" font-family="Times" font-style="normal" font-weight="normal" font-size="144" text-anchor="start">n</text>
<!-- Text -->
<text xml:space="preserve" x="1260" y="1155" fill="#000000" font-family="Times" font-style="normal" font-weight="normal" font-size="144" text-anchor="start">x[n]</text>
<!-- Text -->
<text xml:space="preserve" x="2745" y="1965" fill="#000000" font-family="Times" font-style="normal" font-weight="normal" font-size="144" text-anchor="start">n</text>
</g>
</svg>
