<?xml version="1.0" encoding="UTF-8" standalone="no"?>
<!-- Creator: fig2dev Version 3.2.8b -->
<!-- CreationDate: 2025-10-30 19:43:16 -->
<!-- Magnification: 1.05 -->
<svg	xmlns="http://www.w3.org/2000/svg"
	xmlns:xlink="http://www.w3.org/1999/xlink"
	width="102pt" height="25pt"
	viewBox="1380 1428 1605 384">
<g fill="none">
<!-- Line -->
<defs>
<clipPath id="cp0">
	<path clip-rule="evenodd" d="M 1380,1428 H 2985 V 1812 H 1380 z
		M 1810,1590 1840,1620 1810,1650 1987,1627 1987,1613z"/>
</clipPath>
</defs>
<polyline points=" 1440,1620 1980,1620" clip-path="url(#cp0)"
	stroke="#000000" stroke-width="8px"/>
<!-- Forward arrow to point 1980,1620 -->
<polygon points=" 1810,1650 1960,1620 1810,1590 1840,1620 1810,1650"
	stroke="#000000" stroke-width="8px" stroke-miterlimit="8" fill="#000000"/>
<!-- Line -->
<defs>
<clipPath id="cp1">
	<path clip-rule="evenodd" d="M 1380,1428 H 2985 V 1812 H 1380 z
		M 2710,1590 2740,1620 2710,1650 2887,1627 2887,1613z"/>
</clipPath>
</defs>
<polyline points=" 2430,1620 2880,1620" clip-path="url(#cp1)"
	stroke="#000000" stroke-width="8px"/>
<!-- Forward arrow to point 2880,1620 -->
<polygon points=" 2710,1650 2860,1620 2710,1590 2740,1620 2710,1650"
	stroke="#000000" stroke-width="8px" stroke-miterlimit="8" fill="#000000"/>
<!-- Line -->
<rect x="1980" y="1440" width="450" height="360"
	stroke="#000000" stroke-width="8px"/>
<!-- Text -->
<text xml:space="preserve" x="2205" y="1665" fill="#000000" font-family="Times" font-style="normal" font-weight="normal" font-size="144" text-anchor="middle">T</text>
<!-- Text -->
<text xml:space="preserve" x="1395" y="1665" fill="#000000" font-family="Times" font-style="normal" font-weight="normal" font-size="144" text-anchor="end">x(t)</text>
<!-- Text -->
<text xml:space="preserve" x="2970" y="1665" fill="#000000" font-family="Times" font-style="normal" font-weight="normal" font-size="144" text-anchor="start">\int<tspan font-size="96" baseline-shift="sub">-\infty</tspan><tspan font-size="96" baseline-shift="super">t</tspan> x(\tau)d\tau</text>
</g>
</svg>
