<?xml version="1.0" encoding="UTF-8" standalone="no"?>
<!-- Creator: fig2dev Version 3.2.8b -->
<!-- CreationDate: 2025-10-30 19:43:16 -->
<!-- Magnification: 1 -->
<svg	xmlns="http://www.w3.org/2000/svg"
	xmlns:xlink="http://www.w3.org/1999/xlink"
	width="375pt" height="250pt"
	viewBox="2175 4605 6237 4159">
<g fill="none">
<!-- Line -->
<!-- polyline -->
<defs>
<clipPath id="cp0">
	<path clip-rule="evenodd" d="M 2175,4605 H 8412 V 8764 H 2175 z
		M 8230,8339 8260,8369 8230,8399 8407,8376 8407,8362z"/>
</clipPath>
</defs>
<polyline points=" 2400,8369 8400,8369" clip-path="url(#cp0)"
	stroke="#000000" stroke-width="8px" stroke-linejoin="round"/>
<!-- Forward arrow to point 8400,8369 -->
<polygon points=" 8230,8399 8380,8369 8230,8339 8260,8369 8230,8399"
	stroke="#000000" stroke-width="8px" stroke-miterlimit="8" fill="#000000"/>
<!-- Line -->
<!-- polyline -->
<polyline points=" 2187,8369 7974,8369"
	stroke="#000000" stroke-width="8px" stroke-linejoin="round"/>
<!-- Line -->
<!-- polyline -->
<defs>
<clipPath id="cp1">
	<path clip-rule="evenodd" d="M 2175,4605 H 8412 V 8764 H 2175 z
		M 8230,8339 8260,8369 8230,8399 8407,8376 8407,8362z
		M 5051,4820 5081,4790 5111,4820 5088,4643 5074,4643z"/>
</clipPath>
</defs>
<polyline points=" 5081,4650 5081,8475" clip-path="url(#cp1)"
	stroke="#000000" stroke-width="8px" stroke-linejoin="round"/>
<!-- Backward arrow to point 5081,4650 -->
<polygon points=" 5111,4820 5081,4670 5051,4820 5081,4790 5111,4820"
	stroke="#000000" stroke-width="8px" stroke-miterlimit="8" fill="#000000"/>
<!-- Text -->
<!-- text -->
<text xml:space="preserve" x="5100" y="8700" fill="#000000" font-family="Times" font-style="italic" font-weight="normal" font-size="144" text-anchor="middle">0</text>
<!-- Text -->
<!-- text -->
<text xml:space="preserve" x="5100" y="7725" fill="#000000" font-family="Times" font-style="italic" font-weight="normal" font-size="144" text-anchor="start">C</text>
<!-- Text -->
<!-- text -->
<text xml:space="preserve" x="7350" y="8175" fill="#000000" font-family="Times" font-style="italic" font-weight="normal" font-size="144" text-anchor="start">\sigma&lt;0</text>
<!-- Text -->
<!-- text -->
<text xml:space="preserve" x="7350" y="7725" fill="#000000" font-family="Times" font-style="italic" font-weight="normal" font-size="144" text-anchor="start">\sigma=0</text>
<!-- Text -->
<!-- text -->
<text xml:space="preserve" x="7350" y="5850" fill="#000000" font-family="Times" font-style="italic" font-weight="normal" font-size="144" text-anchor="start">\sigma&gt;0</text>
<!-- Text -->
<!-- text -->
<text xml:space="preserve" x="5175" y="4800" fill="#000000" font-family="Times" font-style="italic" font-weight="normal" font-size="168" text-anchor="start">x(t)</text>
<!-- Text -->
<!-- text -->
<text xml:space="preserve" x="8250" y="8250" fill="#000000" font-family="Times" font-style="italic" font-weight="normal" font-size="168" text-anchor="start">t</text>
<!-- Line -->
<!-- polyline -->
<polyline points=" 2187,8369 7974,8369"
	stroke="#000000" stroke-width="8px" stroke-linejoin="round"/>
<!-- Line -->
<!-- polyline -->
<polyline points=" 3637,8158 3651,8156 3665,8154 3681,8151 3694,8150 3710,8147 3724,8146 3739,8143
 3753,8140 3768,8139 3782,8136 3796,8133 3811,8132 3825,8129 3840,8126 3854,8124
 3869,8122 3883,8119 3899,8117 3912,8114 3926,8111 3942,8108 3956,8107 3971,8104
 3985,8101 4000,8099 4014,8096 4029,8093 4043,8090 4057,8088 4072,8085 4086,8082
 4101,8079 4115,8076 4131,8072 4144,8069 4158,8067 4174,8064 4187,8061 4203,8057
 4217,8054 4232,8051 4246,8049 4261,8044 4275,8042 4289,8039 4304,8035 4318,8032
 4333,8028 4347,8025 4362,8021 4376,8018 4392,8014 4406,8011 4419,8007 4435,8003
 4449,8000 4464,7996 4478,7992 4493,7989 4507,7985 4522,7981 4536,7976 4550,7974
 4565,7969 4579,7965 4594,7961 4608,7957 4624,7953 4637,7949 4651,7944 4667,7940
 4681,7936 4696,7931 4710,7926 4725,7922 4739,7918 4754,7914 4768,7908 4782,7904
 4797,7900 4811,7894 4826,7890 4840,7885 4856,7881 4869,7875 4885,7871 4899,7865
 4912,7860 4928,7856 4942,7850 4957,7844 4971,7839 4986,7835 5000,7829 5015,7824
 5029,7818 5043,7813 5058,7807 5072,7801 5087,7796 5101,7789 5117,7783 5131,7778
 5144,7772 5160,7765 5174,7760 5189,7754 5203,7747 5218,7742 5232,7735 5247,7728
 5261,7722 5275,7715 5290,7708 5304,7703 5319,7696 5333,7689 5349,7682 5362,7675
 5378,7668 5392,7661 5406,7654 5421,7646 5435,7639 5450,7632 5464,7625 5479,7617
 5493,7610 5508,7601 5522,7594 5536,7586 5551,7578 5565,7571 5581,7563 5594,7554
 5610,7546 5624,7538 5637,7529 5653,7521 5667,7513 5682,7504 5696,7494 5711,7486
 5725,7478 5740,7468 5754,7460 5768,7450 5783,7440 5797,7432 5812,7422 5826,7413
 5842,7403 5856,7393 5871,7383 5885,7374 5899,7364 5914,7353 5928,7343 5943,7332
 5957,7322 5972,7311 5986,7301 6001,7290 6015,7279 6029,7268 6044,7257 6058,7246
 6074,7235 6087,7224 6103,7211 6117,7200 6131,7189 6146,7176 6160,7164 6175,7153
 6189,7140 6204,7128 6218,7115 6233,7103 6247,7090 6261,7076 6276,7064 6290,7051
 6306,7038 6319,7024 6335,7011 6349,6997 6364,6983 6378,6969 6392,6956 6407,6940
 6421,6926 6436,6911 6450,6897 6465,6882 6479,6867 6494,6853 6508,6838 6522,6821
 6537,6806 6551,6790 6567,6774 6581,6758 6596,6742 6610,6725 6624,6708 6639,6692
 6653,6675 6668,6658 6682,6642 6697,6624 6711,6606 6726,6589 6740,6571 6754,6553
 6769,6533 6783,6515 6799,6497 6812,6478 6828,6458 6842,6440 6857,6421 6871,6400
 6885,6381 6900,6361 6914,6340 6929,6319 6943,6300 6958,6279 6972,6257 6987,6236
 7001,6215 7015,6193 7031,6171 7044,6149 7060,6126 7074,6104 7089,6081 7103,6058
 7117,6035 7132,6011 7146,5988 7161,5964 7175,5939 7190,5915 7204,5890 7219,5865
 7233,5840 7247,5814 7262,5789 7276,5763 7292,5736 7306,5710 7321,5683 7335,5656
 7350,5629 7364,5601 7378,5574 7393,5544 7407,5517 7422,5488 7436,5458 7451,5429
 7465,5400 7481,5369 7494,5340 7508,5310 7524,5279 7537,5247 7553,5215 7567,5185
 7582,5151 7596,5119 7610,5088 7625,5054 7639,5021 7654,4986"
	stroke="#000000" stroke-width="15px" stroke-linejoin="round"/>
<!-- Line -->
<!-- polyline -->
<polyline points=" 2535,8271 2550,8269 2564,8268 2578,8268 2593,8267 2607,8265 2622,8264 2636,8264
 2651,8263 2665,8261 2679,8260 2694,8260 2708,8258 2724,8257 2737,8256 2753,8254
 2767,8253 2782,8253 2796,8251 2810,8250 2825,8249 2839,8247 2854,8246 2868,8244
 2883,8244 2897,8243 2912,8242 2926,8240 2940,8239 2956,8238 2969,8236 2985,8235
 2999,8233 3014,8232 3028,8231 3043,8229 3057,8228 3071,8226 3086,8225 3100,8224
 3115,8222 3129,8221 3144,8219 3158,8218 3172,8217 3187,8214 3201,8213 3217,8211
 3231,8210 3246,8208 3260,8207 3275,8206 3289,8203 3303,8201 3318,8200 3332,8199
 3347,8196 3361,8194 3376,8193 3390,8192 3406,8189 3419,8188 3433,8186 3449,8183
 3462,8182 3478,8181 3492,8178 3507,8176 3521,8175 3536,8172 3550,8171 3564,8168
 3579,8167 3593,8164 3608,8163 3622,8160 3637,8158"
	stroke="#000000" stroke-width="15px" stroke-linejoin="round"/>
<!-- Line -->
<!-- polyline -->
<polyline points=" 3637,6821 3651,6838 3665,6853 3681,6867 3694,6882 3710,6897 3724,6911 3739,6926
 3753,6940 3768,6956 3782,6969 3796,6983 3811,6997 3825,7011 3840,7024 3854,7038
 3869,7051 3883,7064 3899,7076 3912,7090 3926,7103 3942,7115 3956,7128 3971,7140
 3985,7153 4000,7164 4014,7176 4029,7189 4043,7200 4057,7211 4072,7224 4086,7235
 4101,7246 4115,7257 4131,7268 4144,7279 4158,7290 4174,7301 4187,7311 4203,7322
 4217,7332 4232,7343 4246,7353 4261,7364 4275,7374 4289,7383 4304,7393 4318,7403
 4333,7413 4347,7422 4362,7432 4376,7440 4392,7450 4406,7460 4419,7468 4435,7478
 4449,7486 4464,7494 4478,7504 4493,7513 4507,7521 4522,7529 4536,7538 4550,7546
 4565,7554 4579,7563 4594,7571 4608,7578 4624,7586 4637,7594 4651,7601 4667,7610
 4681,7617 4696,7625 4710,7632 4725,7639 4739,7646 4754,7654 4768,7661 4782,7668
 4797,7675 4811,7682 4826,7689 4840,7696 4856,7703 4869,7708 4885,7715 4899,7722
 4912,7728 4928,7735 4942,7742 4957,7747 4971,7754 4986,7760 5000,7765 5015,7772
 5029,7778 5043,7783 5058,7789 5072,7796 5087,7801 5101,7807 5117,7813 5131,7818
 5144,7824 5160,7829 5174,7835 5189,7839 5203,7844 5218,7850 5232,7856 5247,7860
 5261,7865 5275,7871 5290,7875 5304,7881 5319,7885 5333,7890 5349,7894 5362,7900
 5378,7904 5392,7908 5406,7914 5421,7918 5435,7922 5450,7926 5464,7931 5479,7936
 5493,7940 5508,7944 5522,7949 5536,7953 5551,7957 5565,7961 5581,7965 5594,7969
 5610,7974 5624,7976 5637,7981 5653,7985 5667,7989 5682,7992 5696,7996 5711,8000
 5725,8003 5740,8007 5754,8011 5768,8014 5783,8018 5797,8021 5812,8025 5826,8028
 5842,8032 5856,8035 5871,8039 5885,8042 5899,8044 5914,8049 5928,8051 5943,8054
 5957,8057 5972,8061 5986,8064 6001,8067 6015,8069 6029,8072 6044,8076 6058,8079
 6074,8082 6087,8085 6103,8088 6117,8090 6131,8093 6146,8096 6160,8099 6175,8101
 6189,8104 6204,8107 6218,8108 6233,8111 6247,8114 6261,8117 6276,8119 6290,8122
 6306,8124 6319,8126 6335,8129 6349,8132 6364,8133 6378,8136 6392,8139 6407,8140
 6421,8143 6436,8146 6450,8147 6465,8150 6479,8151 6494,8154 6508,8156 6522,8158
 6537,8160 6551,8163 6567,8164 6581,8167 6596,8168 6610,8171 6624,8172 6639,8175
 6653,8176 6668,8178 6682,8181 6697,8182 6711,8183 6726,8186 6740,8188 6754,8189
 6769,8192 6783,8193 6799,8194 6812,8196 6828,8199 6842,8200 6857,8201 6871,8203
 6885,8206 6900,8207 6914,8208 6929,8210 6943,8211 6958,8213 6972,8214 6987,8217
 7001,8218 7015,8219 7031,8221 7044,8222 7060,8224 7074,8225 7089,8226 7103,8228
 7117,8229 7132,8231 7146,8232 7161,8233 7175,8235 7190,8236 7204,8238 7219,8239
 7233,8240 7247,8242 7262,8243 7276,8244 7292,8244 7306,8246 7321,8247 7335,8249
 7350,8250 7364,8251 7378,8253 7393,8253 7407,8254 7422,8256 7436,8257 7451,8258
 7465,8260 7481,8260 7494,8261 7508,8263 7524,8264 7537,8264 7553,8265 7567,8267
 7582,8268 7596,8268 7610,8269 7625,8271 7639,8271 7654,8272 7668,8274"
	stroke="#000000" stroke-width="15px" stroke-linejoin="round"/>
<!-- Line -->
<!-- polyline -->
<polyline points=" 2506,4986 2521,5021 2535,5054 2550,5088 2564,5119 2578,5151 2593,5185 2607,5215
 2622,5247 2636,5279 2651,5310 2665,5340 2679,5369 2694,5400 2708,5429 2724,5458
 2737,5488 2753,5517 2767,5544 2782,5574 2796,5601 2810,5629 2825,5656 2839,5683
 2854,5710 2868,5736 2883,5763 2897,5789 2912,5814 2926,5840 2940,5865 2956,5890
 2969,5915 2985,5939 2999,5964 3014,5988 3028,6011 3043,6035 3057,6058 3071,6081
 3086,6104 3100,6126 3115,6149 3129,6171 3144,6193 3158,6215 3172,6236 3187,6257
 3201,6279 3217,6300 3231,6319 3246,6340 3260,6361 3275,6381 3289,6400 3303,6421
 3318,6440 3332,6458 3347,6478 3361,6497 3376,6515 3390,6533 3406,6553 3419,6571
 3433,6589 3449,6606 3462,6624 3478,6642 3492,6658 3507,6675 3521,6692 3536,6708
 3550,6725 3564,6742 3579,6758 3593,6774 3608,6790 3622,6806 3637,6821"
	stroke="#000000" stroke-width="15px" stroke-linejoin="round"/>
<!-- Line -->
<!-- polyline -->
<polyline points=" 3637,7799 3651,7799 3665,7799 3681,7799 3694,7799 3710,7799 3724,7799 3739,7799
 3753,7799 3768,7799 3782,7799 3796,7799 3811,7799 3825,7799 3840,7799 3854,7799
 3869,7799 3883,7799 3899,7799 3912,7799 3926,7799 3942,7799 3956,7799 3971,7799
 3985,7799 4000,7799 4014,7799 4029,7799 4043,7799 4057,7799 4072,7799 4086,7799
 4101,7799 4115,7799 4131,7799 4144,7799 4158,7799 4174,7799 4187,7799 4203,7799
 4217,7799 4232,7799 4246,7799 4261,7799 4275,7799 4289,7799 4304,7799 4318,7799
 4333,7799 4347,7799 4362,7799 4376,7799 4392,7799 4406,7799 4419,7799 4435,7799
 4449,7799 4464,7799 4478,7799 4493,7799 4507,7799 4522,7799 4536,7799 4550,7799
 4565,7799 4579,7799 4594,7799 4608,7799 4624,7799 4637,7799 4651,7799 4667,7799
 4681,7799 4696,7799 4710,7799 4725,7799 4739,7799 4754,7799 4768,7799 4782,7799
 4797,7799 4811,7799 4826,7799 4840,7799 4856,7799 4869,7799 4885,7799 4899,7799
 4912,7799 4928,7799 4942,7799 4957,7799 4971,7799 4986,7799 5000,7799 5015,7799
 5029,7799 5043,7799 5058,7799 5072,7799 5087,7799 5101,7799 5117,7799 5131,7799
 5144,7799 5160,7799 5174,7799 5189,7799 5203,7799 5218,7799 5232,7799 5247,7799
 5261,7799 5275,7799 5290,7799 5304,7799 5319,7799 5333,7799 5349,7799 5362,7799
 5378,7799 5392,7799 5406,7799 5421,7799 5435,7799 5450,7799 5464,7799 5479,7799
 5493,7799 5508,7799 5522,7799 5536,7799 5551,7799 5565,7799 5581,7799 5594,7799
 5610,7799 5624,7799 5637,7799 5653,7799 5667,7799 5682,7799 5696,7799 5711,7799
 5725,7799 5740,7799 5754,7799 5768,7799 5783,7799 5797,7799 5812,7799 5826,7799
 5842,7799 5856,7799 5871,7799 5885,7799 5899,7799 5914,7799 5928,7799 5943,7799
 5957,7799 5972,7799 5986,7799 6001,7799 6015,7799 6029,7799 6044,7799 6058,7799
 6074,7799 6087,7799 6103,7799 6117,7799 6131,7799 6146,7799 6160,7799 6175,7799
 6189,7799 6204,7799 6218,7799 6233,7799 6247,7799 6261,7799 6276,7799 6290,7799
 6306,7799 6319,7799 6335,7799 6349,7799 6364,7799 6378,7799 6392,7799 6407,7799
 6421,7799 6436,7799 6450,7799 6465,7799 6479,7799 6494,7799 6508,7799 6522,7799
 6537,7799 6551,7799 6567,7799 6581,7799 6596,7799 6610,7799 6624,7799 6639,7799
 6653,7799 6668,7799 6682,7799 6697,7799 6711,7799 6726,7799 6740,7799 6754,7799
 6769,7799 6783,7799 6799,7799 6812,7799 6828,7799 6842,7799 6857,7799 6871,7799
 6885,7799 6900,7799 6914,7799 6929,7799 6943,7799 6958,7799 6972,7799 6987,7799
 7001,7799 7015,7799 7031,7799 7044,7799 7060,7799 7074,7799 7089,7799 7103,7799
 7117,7799 7132,7799 7146,7799 7161,7799 7175,7799 7190,7799 7204,7799 7219,7799
 7233,7799 7247,7799 7262,7799 7276,7799 7292,7799 7306,7799 7321,7799 7335,7799
 7350,7799 7364,7799 7378,7799 7393,7799 7407,7799 7422,7799 7436,7799 7451,7799
 7465,7799 7481,7799 7494,7799 7508,7799 7524,7799 7537,7799 7553,7799 7567,7799
 7582,7799 7596,7799 7610,7799 7625,7799 7639,7799 7654,7799"
	stroke="#000000" stroke-width="15px" stroke-linejoin="round"/>
<!-- Line -->
<!-- polyline -->
<polyline points=" 2506,7799 2521,7799 2535,7799 2550,7799 2564,7799 2578,7799 2593,7799 2607,7799
 2622,7799 2636,7799 2651,7799 2665,7799 2679,7799 2694,7799 2708,7799 2724,7799
 2737,7799 2753,7799 2767,7799 2782,7799 2796,7799 2810,7799 2825,7799 2839,7799
 2854,7799 2868,7799 2883,7799 2897,7799 2912,7799 2926,7799 2940,7799 2956,7799
 2969,7799 2985,7799 2999,7799 3014,7799 3028,7799 3043,7799 3057,7799 3071,7799
 3086,7799 3100,7799 3115,7799 3129,7799 3144,7799 3158,7799 3172,7799 3187,7799
 3201,7799 3217,7799 3231,7799 3246,7799 3260,7799 3275,7799 3289,7799 3303,7799
 3318,7799 3332,7799 3347,7799 3361,7799 3376,7799 3390,7799 3406,7799 3419,7799
 3433,7799 3449,7799 3462,7799 3478,7799 3492,7799 3507,7799 3521,7799 3536,7799
 3550,7799 3564,7799 3579,7799 3593,7799 3608,7799 3622,7799 3637,7799"
	stroke="#000000" stroke-width="15px" stroke-linejoin="round"/>
</g>
</svg>
