<?xml version="1.0" encoding="UTF-8" standalone="no"?>
<!-- Creator: fig2dev Version 3.2.8b -->
<!-- CreationDate: 2025-10-30 19:43:16 -->
<!-- Magnification: 1 -->
<svg	xmlns="http://www.w3.org/2000/svg"
	xmlns:xlink="http://www.w3.org/1999/xlink"
	width="450pt" height="251pt"
	viewBox="1188 3792 7498 4170">
<g fill="none">
<!-- Line -->
<!-- polyline -->
<polyline points=" 1532,7671 1532,7598"
	stroke="#000000" stroke-width="15px" stroke-linejoin="round"/>
<!-- Line -->
<!-- polyline -->
<defs>
<clipPath id="cp0">
	<path clip-rule="evenodd" d="M 1188,3792 H 8686 V 7962 H 1188 z
		M 2930,3995 2960,3965 2990,3995 2967,3818 2953,3818z"/>
</clipPath>
</defs>
<polyline points=" 2960,3825 2960,7950" clip-path="url(#cp0)"
	stroke="#000000" stroke-width="8px" stroke-linejoin="round"/>
<!-- Backward arrow to point 2960,3825 -->
<polygon points=" 2990,3995 2960,3845 2930,3995 2960,3965 2990,3995"
	stroke="#000000" stroke-width="8px" stroke-miterlimit="8" fill="#000000"/>
<!-- Line -->
<!-- polyline -->
<polyline points=" 2960,4551 2960,4622"
	stroke="#000000" stroke-width="15px" stroke-linejoin="round"/>
<!-- Line -->
<!-- polyline -->
<polyline points=" 4387,7671 4387,7598"
	stroke="#000000" stroke-width="15px" stroke-linejoin="round"/>
<!-- Line -->
<!-- polyline -->
<polyline points=" 5817,4551 5817,4622"
	stroke="#000000" stroke-width="15px" stroke-linejoin="round"/>
<!-- Line -->
<!-- spline -->
<polyline points=" 1582,7654 1582,7655 1581,7659 1580,7665 1579,7669 1579,7670 1578,7672 1577,7675
 1575,7679 1572,7683 1569,7687 1567,7689 1565,7691 1561,7694 1557,7697 1555,7698
 1553,7699 1548,7701 1543,7703 1538,7703 1535,7704 1532,7704 1531,7704 1527,7703
 1521,7702 1517,7701 1516,7701 1514,7700 1510,7699 1507,7697 1502,7694 1498,7691
 1497,7689 1496,7689 1495,7687 1492,7683 1489,7679 1488,7677 1487,7675 1485,7670
 1483,7665 1483,7660 1482,7657 1482,7654 1482,7653 1483,7649 1484,7643 1485,7639
 1485,7638 1486,7636 1487,7632 1489,7629 1492,7624 1495,7620 1496,7619 1497,7618
 1498,7617 1502,7614 1506,7611 1508,7610 1509,7610 1511,7609 1516,7607 1522,7605
 1526,7605 1529,7604 1532,7604 1533,7604 1537,7605 1543,7606 1547,7607 1548,7607
 1550,7608 1553,7609 1557,7611 1561,7614 1565,7617 1567,7618 1567,7619 1569,7620
 1572,7624 1575,7628 1576,7630 1576,7631 1577,7633 1579,7638 1581,7644 1581,7648
 1582,7651 1582,7654"
	stroke="#000000" stroke-width="15px" stroke-linejoin="bevel"/>
<!-- Line -->
<!-- spline -->
<polyline points=" 1867,7261 1867,7262 1866,7266 1865,7272 1864,7276 1864,7277 1863,7279 1862,7282
 1860,7286 1857,7290 1854,7294 1852,7296 1850,7298 1846,7301 1842,7304 1840,7305
 1839,7305 1837,7306 1832,7308 1827,7310 1823,7310 1819,7311 1817,7311 1816,7311
 1812,7310 1806,7309 1802,7308 1801,7308 1799,7307 1796,7306 1792,7304 1787,7301
 1783,7298 1781,7296 1779,7294 1776,7290 1773,7286 1772,7284 1771,7282 1769,7277
 1768,7272 1767,7267 1767,7264 1767,7261 1767,7260 1768,7256 1768,7250 1769,7246
 1769,7245 1770,7243 1771,7239 1773,7236 1776,7231 1779,7227 1781,7226 1781,7225
 1783,7224 1787,7221 1791,7218 1793,7217 1794,7216 1796,7215 1801,7213 1807,7212
 1811,7211 1814,7211 1817,7211 1818,7211 1822,7212 1827,7212 1831,7213 1832,7213
 1834,7214 1837,7216 1841,7218 1846,7221 1850,7224 1852,7225 1852,7226 1854,7227
 1857,7231 1860,7235 1861,7237 1861,7238 1862,7240 1864,7245 1866,7251 1866,7255
 1867,7258 1867,7261"
	stroke="#000000" stroke-width="15px" stroke-linejoin="bevel"/>
<!-- Line -->
<!-- spline -->
<polyline points=" 2153,6465 2153,6466 2152,6470 2151,6476 2150,6480 2150,6481 2149,6483 2148,6487
 2146,6490 2143,6495 2140,6499 2138,6500 2138,6501 2136,6502 2132,6505 2128,6508
 2126,6509 2124,6510 2119,6512 2114,6514 2109,6514 2106,6515 2103,6515 2102,6515
 2098,6514 2092,6513 2088,6512 2087,6512 2085,6511 2082,6510 2078,6508 2073,6505
 2069,6502 2067,6501 2067,6500 2065,6499 2062,6495 2059,6491 2058,6489 2058,6488
 2057,6486 2055,6481 2054,6475 2053,6471 2053,6468 2053,6465 2053,6464 2054,6460
 2054,6454 2055,6450 2055,6449 2056,6447 2057,6444 2059,6440 2062,6436 2065,6432
 2067,6430 2069,6428 2073,6425 2077,6422 2079,6421 2080,6421 2082,6420 2087,6418
 2093,6416 2097,6416 2100,6415 2103,6415 2104,6415 2108,6416 2114,6417 2118,6418
 2119,6418 2121,6419 2124,6420 2128,6422 2132,6425 2136,6428 2138,6430 2140,6432
 2143,6436 2146,6440 2147,6442 2148,6444 2150,6449 2152,6454 2152,6459 2153,6462
 2153,6465"
	stroke="#000000" stroke-width="15px" stroke-linejoin="bevel"/>
<!-- Line -->
<!-- spline -->
<polyline points=" 2439,5546 2439,5547 2438,5551 2437,5556 2436,5560 2436,5561 2435,5563 2434,5566
 2432,5570 2429,5575 2426,5579 2424,5581 2422,5583 2418,5586 2414,5589 2412,5590
 2410,5591 2405,5593 2400,5595 2395,5595 2392,5596 2389,5596 2388,5596 2384,5595
 2378,5594 2374,5593 2373,5593 2371,5592 2367,5591 2364,5589 2359,5586 2355,5583
 2354,5581 2353,5581 2352,5579 2349,5575 2346,5571 2345,5569 2344,5568 2343,5566
 2341,5561 2340,5556 2339,5552 2339,5548 2339,5546 2339,5545 2340,5541 2340,5535
 2341,5531 2341,5530 2342,5528 2344,5525 2346,5521 2349,5516 2352,5512 2353,5510
 2354,5510 2355,5508 2359,5505 2363,5502 2365,5501 2366,5501 2368,5500 2373,5498
 2379,5497 2383,5496 2386,5496 2389,5496 2390,5496 2394,5497 2400,5497 2404,5498
 2405,5498 2407,5499 2410,5500 2414,5502 2418,5505 2422,5508 2424,5510 2426,5512
 2429,5516 2432,5520 2433,5522 2433,5523 2434,5525 2436,5530 2438,5536 2438,5540
 2439,5543 2439,5546"
	stroke="#000000" stroke-width="15px" stroke-linejoin="bevel"/>
<!-- Line -->
<!-- spline -->
<polyline points=" 2724,4823 2724,4824 2723,4828 2722,4834 2721,4838 2721,4839 2720,4841 2719,4844
 2717,4848 2714,4853 2711,4857 2709,4859 2707,4861 2703,4864 2699,4867 2697,4868
 2696,4868 2694,4869 2689,4871 2684,4872 2680,4873 2676,4873 2674,4873 2673,4873
 2669,4872 2663,4872 2659,4871 2658,4871 2656,4870 2653,4869 2649,4867 2644,4864
 2640,4861 2638,4859 2636,4857 2633,4853 2630,4849 2629,4847 2629,4846 2628,4844
 2626,4839 2625,4833 2624,4829 2624,4826 2624,4823 2624,4822 2625,4818 2625,4813
 2626,4809 2626,4808 2627,4806 2628,4803 2630,4799 2633,4794 2636,4790 2638,4788
 2640,4786 2644,4783 2648,4780 2650,4779 2651,4779 2653,4778 2658,4776 2664,4774
 2668,4774 2671,4773 2674,4773 2675,4773 2679,4774 2684,4775 2688,4776 2689,4776
 2691,4777 2694,4778 2698,4780 2703,4783 2707,4786 2709,4788 2711,4790 2714,4794
 2717,4798 2718,4800 2718,4801 2719,4803 2721,4808 2723,4813 2723,4817 2724,4821
 2724,4823"
	stroke="#000000" stroke-width="15px" stroke-linejoin="bevel"/>
<!-- Line -->
<!-- spline -->
<polyline points=" 3010,4551 3010,4552 3009,4556 3008,4562 3007,4566 3007,4567 3006,4569 3005,4572
 3003,4576 3000,4581 2997,4585 2995,4587 2993,4589 2989,4592 2985,4595 2983,4596
 2982,4596 2980,4597 2975,4599 2970,4600 2966,4601 2962,4601 2960,4601 2959,4601
 2955,4600 2949,4600 2945,4599 2944,4599 2942,4598 2939,4597 2935,4595 2930,4592
 2926,4589 2924,4587 2922,4585 2919,4581 2916,4577 2915,4575 2915,4574 2914,4572
 2912,4567 2911,4561 2910,4557 2910,4554 2910,4551 2910,4550 2911,4546 2911,4540
 2912,4536 2912,4535 2913,4533 2914,4530 2916,4526 2919,4522 2922,4518 2924,4516
 2926,4514 2930,4511 2934,4508 2936,4507 2937,4507 2939,4506 2944,4504 2950,4502
 2954,4502 2957,4501 2960,4501 2961,4501 2965,4502 2970,4503 2974,4504 2975,4504
 2977,4505 2980,4506 2984,4508 2989,4511 2993,4514 2995,4516 2997,4518 3000,4522
 3003,4526 3004,4528 3005,4530 3007,4535 3009,4540 3009,4545 3010,4548 3010,4551
"
	stroke="#000000" stroke-width="15px" stroke-linejoin="bevel"/>
<!-- Line -->
<!-- spline -->
<polyline points=" 3296,4823 3296,4824 3295,4828 3294,4834 3293,4838 3293,4839 3292,4841 3291,4844
 3289,4848 3286,4853 3283,4857 3281,4859 3279,4861 3275,4864 3271,4867 3269,4868
 3267,4869 3262,4871 3257,4872 3252,4873 3249,4873 3246,4873 3245,4873 3241,4872
 3235,4872 3231,4871 3230,4871 3228,4870 3225,4869 3221,4867 3216,4864 3212,4861
 3210,4859 3208,4857 3205,4853 3202,4849 3201,4847 3201,4846 3200,4844 3198,4839
 3197,4833 3196,4829 3196,4826 3196,4823 3196,4822 3197,4818 3197,4813 3198,4809
 3198,4808 3199,4806 3200,4803 3202,4799 3205,4794 3208,4790 3210,4788 3212,4786
 3216,4783 3220,4780 3222,4779 3223,4779 3225,4778 3230,4776 3236,4774 3240,4774
 3243,4773 3246,4773 3247,4773 3251,4774 3257,4775 3261,4776 3262,4776 3264,4777
 3267,4778 3271,4780 3275,4783 3279,4786 3281,4788 3283,4790 3286,4794 3289,4798
 3290,4800 3290,4801 3291,4803 3293,4808 3295,4813 3295,4817 3296,4821 3296,4823
"
	stroke="#000000" stroke-width="15px" stroke-linejoin="bevel"/>
<!-- Line -->
<!-- spline -->
<polyline points=" 3581,5546 3581,5547 3580,5551 3579,5556 3578,5560 3578,5561 3577,5563 3576,5566
 3574,5570 3571,5575 3568,5579 3566,5581 3564,5583 3560,5586 3556,5589 3554,5590
 3553,5590 3551,5591 3546,5593 3541,5595 3537,5595 3533,5596 3531,5596 3530,5596
 3526,5595 3520,5594 3516,5593 3515,5593 3513,5592 3510,5591 3506,5589 3501,5586
 3497,5583 3495,5581 3493,5579 3490,5575 3487,5571 3486,5569 3486,5568 3485,5566
 3483,5561 3482,5556 3481,5552 3481,5548 3481,5546 3481,5545 3482,5541 3482,5535
 3483,5531 3483,5530 3484,5528 3485,5525 3487,5521 3490,5516 3493,5512 3495,5510
 3497,5508 3501,5505 3505,5502 3507,5501 3508,5501 3510,5500 3515,5498 3521,5497
 3525,5496 3528,5496 3531,5496 3532,5496 3536,5497 3541,5497 3545,5498 3546,5498
 3548,5499 3551,5500 3555,5502 3560,5505 3564,5508 3566,5510 3568,5512 3571,5516
 3574,5520 3575,5522 3575,5523 3576,5525 3578,5530 3580,5536 3580,5540 3581,5543
 3581,5546"
	stroke="#000000" stroke-width="15px" stroke-linejoin="bevel"/>
<!-- Line -->
<!-- spline -->
<polyline points=" 3867,6465 3867,6466 3866,6470 3865,6476 3864,6480 3864,6481 3863,6483 3862,6487
 3860,6490 3857,6495 3854,6499 3852,6500 3852,6501 3850,6502 3846,6505 3842,6508
 3840,6509 3839,6509 3837,6510 3832,6512 3827,6514 3823,6514 3819,6515 3817,6515
 3816,6515 3812,6514 3806,6513 3802,6512 3801,6512 3799,6511 3796,6510 3792,6508
 3787,6505 3783,6502 3781,6501 3781,6500 3779,6499 3776,6495 3773,6491 3772,6489
 3772,6488 3771,6486 3769,6481 3768,6475 3767,6471 3767,6468 3767,6465 3767,6464
 3768,6460 3768,6454 3769,6450 3769,6449 3770,6447 3771,6444 3773,6440 3776,6436
 3779,6432 3781,6430 3783,6428 3787,6425 3791,6422 3793,6421 3794,6421 3796,6420
 3801,6418 3807,6416 3811,6416 3814,6415 3817,6415 3818,6415 3822,6416 3827,6417
 3831,6418 3832,6418 3834,6419 3837,6420 3841,6422 3846,6425 3850,6428 3852,6430
 3854,6432 3857,6436 3860,6440 3861,6442 3862,6444 3864,6449 3866,6454 3866,6459
 3867,6462 3867,6465"
	stroke="#000000" stroke-width="15px" stroke-linejoin="bevel"/>
<!-- Line -->
<!-- spline -->
<polyline points=" 4153,7261 4153,7262 4152,7266 4151,7272 4150,7276 4150,7277 4149,7279 4148,7282
 4146,7286 4143,7290 4140,7294 4138,7296 4136,7298 4132,7301 4128,7304 4126,7305
 4124,7306 4119,7308 4114,7310 4109,7310 4106,7311 4103,7311 4102,7311 4098,7310
 4092,7309 4088,7308 4087,7308 4085,7307 4082,7306 4078,7304 4073,7301 4069,7298
 4067,7296 4065,7294 4062,7290 4059,7286 4058,7284 4057,7282 4055,7277 4054,7272
 4053,7267 4053,7264 4053,7261 4053,7260 4054,7256 4054,7250 4055,7246 4055,7245
 4056,7243 4057,7239 4059,7236 4062,7231 4065,7227 4067,7226 4067,7225 4069,7224
 4073,7221 4077,7218 4079,7217 4080,7216 4082,7215 4087,7213 4093,7212 4097,7211
 4100,7211 4103,7211 4104,7211 4108,7212 4114,7212 4118,7213 4119,7213 4121,7214
 4124,7216 4128,7218 4132,7221 4136,7224 4138,7225 4138,7226 4140,7227 4143,7231
 4146,7235 4147,7237 4147,7238 4148,7240 4150,7245 4152,7251 4152,7255 4153,7258
 4153,7261"
	stroke="#000000" stroke-width="15px" stroke-linejoin="bevel"/>
<!-- Line -->
<!-- spline -->
<polyline points=" 4437,7654 4437,7655 4436,7659 4436,7665 4435,7669 4435,7670 4434,7672 4433,7675
 4431,7679 4428,7683 4425,7687 4423,7689 4421,7691 4417,7694 4413,7697 4411,7698
 4410,7698 4408,7699 4403,7701 4397,7703 4393,7703 4390,7704 4387,7704 4386,7704
 4382,7703 4377,7702 4373,7701 4372,7701 4370,7700 4367,7699 4363,7697 4358,7694
 4354,7691 4352,7689 4350,7687 4347,7683 4344,7679 4343,7677 4342,7675 4340,7670
 4338,7665 4338,7660 4337,7657 4337,7654 4337,7653 4338,7649 4339,7643 4340,7639
 4340,7638 4341,7636 4342,7632 4344,7629 4347,7624 4350,7620 4352,7619 4352,7618
 4354,7617 4358,7614 4362,7611 4364,7610 4365,7610 4367,7609 4372,7607 4377,7605
 4381,7605 4385,7604 4387,7604 4388,7604 4392,7605 4398,7606 4402,7607 4403,7607
 4405,7608 4408,7609 4412,7611 4417,7614 4421,7617 4423,7618 4423,7619 4425,7620
 4428,7624 4431,7628 4432,7630 4432,7631 4433,7633 4435,7638 4436,7644 4437,7648
 4437,7651 4437,7654"
	stroke="#000000" stroke-width="15px" stroke-linejoin="bevel"/>
<!-- Line -->
<!-- spline -->
<polyline points=" 4724,7510 4724,7511 4723,7515 4722,7520 4721,7524 4721,7525 4720,7527 4719,7530
 4717,7534 4714,7539 4711,7543 4709,7545 4707,7547 4703,7550 4699,7553 4697,7554
 4696,7554 4694,7555 4689,7557 4684,7559 4680,7559 4676,7560 4674,7560 4673,7560
 4669,7559 4663,7558 4659,7557 4658,7557 4656,7556 4653,7555 4649,7553 4644,7550
 4640,7547 4638,7545 4636,7543 4633,7539 4630,7535 4629,7533 4629,7532 4628,7530
 4626,7525 4625,7520 4624,7516 4624,7512 4624,7510 4624,7509 4625,7505 4625,7499
 4626,7495 4626,7494 4627,7492 4628,7489 4630,7485 4633,7480 4636,7476 4638,7474
 4640,7472 4644,7469 4648,7466 4650,7465 4651,7465 4653,7464 4658,7462 4664,7461
 4668,7460 4671,7460 4674,7460 4675,7460 4679,7461 4684,7461 4688,7462 4689,7462
 4691,7463 4694,7464 4698,7466 4703,7469 4707,7472 4709,7474 4711,7476 4714,7480
 4717,7484 4718,7486 4718,7487 4719,7489 4721,7494 4723,7500 4723,7504 4724,7507
 4724,7510"
	stroke="#000000" stroke-width="15px" stroke-linejoin="bevel"/>
<!-- Line -->
<!-- spline -->
<polyline points=" 5010,6875 5010,6876 5009,6880 5008,6886 5007,6890 5007,6891 5006,6893 5005,6896
 5003,6900 5000,6904 4997,6908 4995,6910 4993,6912 4989,6915 4985,6918 4983,6919
 4982,6919 4980,6920 4975,6922 4970,6924 4966,6924 4962,6925 4960,6925 4959,6925
 4955,6924 4949,6923 4945,6922 4944,6922 4942,6921 4939,6920 4935,6918 4930,6915
 4926,6912 4924,6910 4922,6908 4919,6904 4916,6900 4915,6898 4914,6896 4912,6891
 4911,6886 4910,6881 4910,6878 4910,6875 4910,6874 4911,6870 4911,6864 4912,6860
 4912,6859 4913,6857 4914,6854 4916,6850 4919,6845 4922,6841 4924,6839 4926,6837
 4930,6834 4934,6831 4936,6830 4937,6830 4939,6829 4944,6827 4950,6826 4954,6825
 4957,6825 4960,6825 4961,6825 4965,6826 4970,6826 4974,6827 4975,6827 4977,6828
 4980,6829 4984,6831 4989,6834 4993,6837 4995,6839 4997,6841 5000,6845 5003,6849
 5004,6851 5004,6852 5005,6854 5007,6859 5009,6865 5009,6869 5010,6872 5010,6875
"
	stroke="#000000" stroke-width="15px" stroke-linejoin="bevel"/>
<!-- Line -->
<!-- spline -->
<polyline points=" 5294,5973 5294,5974 5293,5978 5293,5984 5292,5988 5292,5989 5291,5991 5290,5994
 5288,5998 5285,6003 5282,6007 5280,6009 5278,6011 5274,6014 5270,6017 5268,6018
 5267,6018 5265,6019 5260,6021 5254,6022 5250,6023 5247,6023 5244,6023 5243,6023
 5239,6022 5234,6022 5230,6021 5229,6021 5227,6020 5224,6019 5220,6017 5215,6014
 5211,6011 5209,6009 5207,6007 5204,6003 5201,5999 5200,5997 5200,5996 5199,5994
 5197,5989 5195,5983 5195,5979 5194,5976 5194,5973 5194,5972 5195,5968 5196,5963
 5197,5959 5197,5958 5198,5956 5199,5953 5201,5949 5204,5944 5207,5940 5209,5938
 5211,5936 5215,5933 5219,5930 5221,5929 5222,5929 5224,5928 5229,5926 5234,5924
 5238,5924 5242,5923 5244,5923 5245,5923 5249,5924 5255,5925 5259,5926 5260,5926
 5262,5927 5265,5928 5269,5930 5274,5933 5278,5936 5280,5938 5282,5940 5285,5944
 5288,5948 5289,5950 5289,5951 5290,5953 5292,5958 5293,5963 5294,5967 5294,5971
 5294,5973"
	stroke="#000000" stroke-width="15px" stroke-linejoin="bevel"/>
<!-- Line -->
<!-- spline -->
<polyline points=" 5581,5121 5581,5122 5580,5126 5579,5131 5578,5135 5578,5136 5577,5138 5576,5141
 5574,5145 5571,5150 5568,5154 5566,5156 5564,5158 5560,5161 5556,5164 5554,5165
 5553,5165 5551,5166 5546,5168 5541,5170 5537,5170 5533,5171 5531,5171 5530,5171
 5526,5170 5520,5169 5516,5168 5515,5168 5513,5167 5510,5166 5506,5164 5501,5161
 5497,5158 5495,5156 5493,5154 5490,5150 5487,5146 5486,5144 5486,5143 5485,5141
 5483,5136 5482,5131 5481,5127 5481,5123 5481,5121 5481,5120 5482,5116 5482,5110
 5483,5106 5483,5105 5484,5103 5485,5100 5487,5096 5490,5091 5493,5087 5495,5085
 5497,5083 5501,5080 5505,5077 5507,5076 5508,5076 5510,5075 5515,5073 5521,5072
 5525,5071 5528,5071 5531,5071 5532,5071 5536,5072 5541,5072 5545,5073 5546,5073
 5548,5074 5551,5075 5555,5077 5560,5080 5564,5083 5566,5085 5568,5087 5571,5091
 5574,5095 5575,5097 5575,5098 5576,5100 5578,5105 5580,5111 5580,5115 5581,5118
 5581,5121"
	stroke="#000000" stroke-width="15px" stroke-linejoin="bevel"/>
<!-- Line -->
<!-- spline -->
<polyline points=" 5867,4612 5867,4613 5866,4617 5865,4623 5864,4627 5864,4628 5863,4630 5862,4633
 5860,4637 5857,4642 5854,4646 5852,4648 5850,4650 5846,4653 5842,4656 5840,4657
 5839,4657 5837,4658 5832,4660 5827,4661 5823,4662 5819,4662 5817,4662 5816,4662
 5812,4661 5806,4661 5802,4660 5801,4660 5799,4659 5796,4658 5792,4656 5787,4653
 5783,4650 5781,4648 5779,4646 5776,4642 5773,4638 5772,4636 5772,4635 5771,4633
 5769,4628 5768,4622 5767,4618 5767,4615 5767,4612 5767,4611 5768,4607 5768,4602
 5769,4598 5769,4597 5770,4595 5771,4592 5773,4588 5776,4583 5779,4579 5781,4577
 5783,4575 5787,4572 5791,4569 5793,4568 5794,4568 5796,4567 5801,4565 5807,4563
 5811,4563 5814,4562 5817,4562 5818,4562 5822,4563 5827,4564 5831,4565 5832,4565
 5834,4566 5837,4567 5841,4569 5846,4572 5850,4575 5852,4577 5854,4579 5857,4583
 5860,4587 5861,4589 5861,4590 5862,4592 5864,4597 5866,4602 5866,4606 5867,4610
 5867,4612"
	stroke="#000000" stroke-width="15px" stroke-linejoin="bevel"/>
<!-- Line -->
<!-- spline -->
<polyline points=" 6151,4628 6151,4629 6150,4633 6150,4638 6149,4642 6149,4643 6148,4645 6147,4648
 6145,4652 6142,4657 6139,4661 6137,4663 6135,4665 6131,4668 6127,4671 6125,4672
 6124,4672 6122,4673 6117,4675 6111,4677 6107,4677 6104,4678 6101,4678 6100,4678
 6096,4677 6091,4676 6087,4675 6086,4675 6084,4674 6081,4673 6077,4671 6072,4668
 6068,4665 6066,4663 6064,4661 6061,4657 6058,4653 6057,4651 6057,4650 6056,4648
 6054,4643 6052,4638 6052,4634 6051,4630 6051,4628 6051,4627 6052,4623 6053,4617
 6054,4613 6054,4612 6055,4610 6056,4607 6058,4603 6061,4598 6064,4594 6066,4592
 6068,4590 6072,4587 6076,4584 6078,4583 6079,4583 6081,4582 6086,4580 6091,4579
 6095,4578 6099,4578 6101,4578 6102,4578 6106,4579 6112,4579 6116,4580 6117,4580
 6119,4581 6122,4582 6126,4584 6131,4587 6135,4590 6137,4592 6139,4594 6142,4598
 6145,4602 6146,4604 6146,4605 6147,4607 6149,4612 6150,4618 6151,4622 6151,4625
 6151,4628"
	stroke="#000000" stroke-width="15px" stroke-linejoin="bevel"/>
<!-- Line -->
<!-- spline -->
<polyline points=" 6437,5161 6437,5162 6436,5166 6436,5172 6435,5176 6435,5177 6434,5179 6433,5182
 6431,5186 6428,5190 6425,5194 6423,5196 6421,5198 6417,5201 6413,5204 6411,5205
 6410,5205 6408,5206 6403,5208 6397,5210 6393,5210 6390,5211 6387,5211 6386,5211
 6382,5210 6377,5209 6373,5208 6372,5208 6370,5207 6367,5206 6363,5204 6358,5201
 6354,5198 6352,5196 6350,5194 6347,5190 6344,5186 6343,5184 6342,5182 6340,5177
 6338,5172 6338,5167 6337,5164 6337,5161 6337,5160 6338,5156 6339,5150 6340,5146
 6340,5145 6341,5143 6342,5139 6344,5136 6347,5131 6350,5127 6352,5126 6352,5125
 6354,5124 6358,5121 6362,5118 6364,5117 6365,5116 6367,5115 6372,5113 6377,5112
 6381,5111 6385,5111 6387,5111 6388,5111 6392,5112 6398,5112 6402,5113 6403,5113
 6405,5114 6408,5116 6412,5118 6417,5121 6421,5124 6423,5125 6423,5126 6425,5127
 6428,5131 6431,5135 6432,5137 6432,5138 6433,5140 6435,5145 6436,5151 6437,5155
 6437,5158 6437,5161"
	stroke="#000000" stroke-width="15px" stroke-linejoin="bevel"/>
<!-- Line -->
<!-- spline -->
<polyline points=" 6724,6026 6724,6027 6723,6031 6722,6037 6721,6041 6721,6042 6720,6044 6719,6047
 6717,6051 6714,6056 6711,6060 6709,6062 6707,6064 6703,6067 6699,6070 6697,6071
 6696,6071 6694,6072 6689,6074 6684,6075 6680,6076 6676,6076 6674,6076 6673,6076
 6669,6075 6663,6075 6659,6074 6658,6074 6656,6073 6653,6072 6649,6070 6644,6067
 6640,6064 6638,6062 6636,6060 6633,6056 6630,6052 6629,6050 6629,6049 6628,6047
 6626,6042 6625,6036 6624,6032 6624,6029 6624,6026 6624,6025 6625,6021 6625,6015
 6626,6011 6626,6010 6627,6008 6628,6005 6630,6001 6633,5997 6636,5993 6638,5991
 6640,5989 6644,5986 6648,5983 6650,5982 6651,5982 6653,5981 6658,5979 6664,5977
 6668,5977 6671,5976 6674,5976 6675,5976 6679,5977 6684,5978 6688,5979 6689,5979
 6691,5980 6694,5981 6698,5983 6703,5986 6707,5989 6709,5991 6711,5993 6714,5997
 6717,6001 6718,6003 6719,6005 6721,6010 6723,6015 6723,6020 6724,6023 6724,6026
"
	stroke="#000000" stroke-width="15px" stroke-linejoin="bevel"/>
<!-- Line -->
<!-- spline -->
<polyline points=" 7008,6921 7008,6922 7007,6926 7007,6931 7006,6935 7006,6936 7005,6938 7004,6941
 7002,6945 6999,6950 6996,6954 6994,6956 6992,6958 6988,6961 6984,6964 6982,6965
 6981,6965 6979,6966 6974,6968 6968,6970 6964,6970 6961,6971 6958,6971 6957,6971
 6953,6970 6948,6969 6944,6968 6943,6968 6941,6967 6938,6966 6934,6964 6929,6961
 6925,6958 6923,6956 6921,6954 6918,6950 6915,6946 6914,6944 6914,6943 6913,6941
 6911,6936 6909,6931 6909,6927 6908,6923 6908,6921 6908,6920 6909,6916 6910,6910
 6911,6906 6911,6905 6912,6903 6913,6900 6915,6896 6918,6891 6921,6887 6923,6885
 6925,6883 6929,6880 6933,6877 6935,6876 6936,6876 6938,6875 6943,6873 6948,6872
 6952,6871 6956,6871 6958,6871 6959,6871 6963,6872 6969,6872 6973,6873 6974,6873
 6976,6874 6979,6875 6983,6877 6988,6880 6992,6883 6994,6885 6996,6887 6999,6891
 7002,6895 7003,6897 7003,6898 7004,6900 7006,6905 7007,6911 7008,6915 7008,6918
 7008,6921"
	stroke="#000000" stroke-width="15px" stroke-linejoin="bevel"/>
<!-- Line -->
<!-- spline -->
<polyline points=" 7294,7532 7294,7533 7293,7537 7293,7542 7292,7546 7292,7547 7291,7549 7290,7552
 7288,7556 7285,7561 7282,7565 7280,7567 7278,7569 7274,7572 7270,7575 7268,7576
 7267,7576 7265,7577 7260,7579 7254,7581 7250,7581 7247,7582 7244,7582 7243,7582
 7239,7581 7234,7580 7230,7579 7229,7579 7227,7578 7224,7577 7220,7575 7215,7572
 7211,7569 7209,7567 7207,7565 7204,7561 7201,7557 7200,7555 7200,7554 7199,7552
 7197,7547 7195,7542 7195,7538 7194,7534 7194,7532 7194,7531 7195,7527 7196,7521
 7197,7517 7197,7516 7198,7514 7199,7511 7201,7507 7204,7502 7207,7498 7209,7496
 7211,7494 7215,7491 7219,7488 7221,7487 7222,7487 7224,7486 7229,7484 7234,7483
 7238,7482 7242,7482 7244,7482 7245,7482 7249,7483 7255,7483 7259,7484 7260,7484
 7262,7485 7265,7486 7269,7488 7274,7491 7278,7494 7280,7496 7282,7498 7285,7502
 7288,7506 7289,7508 7289,7509 7290,7511 7292,7516 7293,7522 7294,7526 7294,7529
 7294,7532"
	stroke="#000000" stroke-width="15px" stroke-linejoin="bevel"/>
<!-- Line -->
<!-- spline -->
<polyline points=" 7581,7646 7581,7647 7580,7651 7579,7656 7578,7660 7578,7661 7577,7663 7576,7666
 7574,7670 7571,7675 7568,7679 7566,7681 7564,7683 7560,7686 7556,7689 7554,7690
 7553,7690 7551,7691 7546,7693 7541,7695 7537,7695 7533,7696 7531,7696 7530,7696
 7526,7695 7520,7694 7516,7693 7515,7693 7513,7692 7510,7691 7506,7689 7501,7686
 7497,7683 7495,7681 7493,7679 7490,7675 7487,7671 7486,7669 7486,7668 7485,7666
 7483,7661 7482,7656 7481,7652 7481,7648 7481,7646 7481,7645 7482,7641 7482,7635
 7483,7631 7483,7630 7484,7628 7485,7625 7487,7621 7490,7616 7493,7612 7495,7610
 7497,7608 7501,7605 7505,7602 7507,7601 7508,7601 7510,7600 7515,7598 7521,7597
 7525,7596 7528,7596 7531,7596 7532,7596 7536,7597 7541,7597 7545,7598 7546,7598
 7548,7599 7551,7600 7555,7602 7560,7605 7564,7608 7566,7610 7568,7612 7571,7616
 7574,7620 7575,7622 7575,7623 7576,7625 7578,7630 7580,7636 7580,7640 7581,7643
 7581,7646"
	stroke="#000000" stroke-width="15px" stroke-linejoin="bevel"/>
<!-- Line -->
<!-- spline -->
<polyline points=" 7865,7225 7865,7226 7864,7230 7864,7236 7863,7240 7863,7241 7862,7243 7861,7246
 7859,7250 7856,7254 7853,7258 7851,7260 7849,7262 7845,7265 7841,7268 7839,7269
 7838,7269 7836,7270 7831,7272 7825,7274 7821,7274 7818,7275 7815,7275 7814,7275
 7810,7274 7805,7273 7801,7272 7800,7272 7798,7271 7795,7270 7791,7268 7786,7265
 7782,7262 7780,7260 7778,7258 7775,7254 7772,7250 7771,7248 7770,7246 7768,7241
 7766,7236 7766,7231 7765,7228 7765,7225 7765,7224 7766,7220 7767,7214 7768,7210
 7768,7209 7769,7207 7770,7204 7772,7200 7775,7195 7778,7191 7780,7189 7782,7187
 7786,7184 7790,7181 7792,7180 7793,7180 7795,7179 7800,7177 7805,7176 7809,7175
 7813,7175 7815,7175 7816,7175 7820,7176 7826,7176 7830,7177 7831,7177 7833,7178
 7836,7179 7840,7181 7845,7184 7849,7187 7851,7189 7853,7191 7856,7195 7859,7199
 7860,7201 7860,7202 7861,7204 7863,7209 7864,7215 7865,7219 7865,7222 7865,7225
"
	stroke="#000000" stroke-width="15px" stroke-linejoin="bevel"/>
<!-- Line -->
<!-- spline -->
<polyline points=" 8151,6414 8151,6415 8150,6419 8150,6424 8149,6428 8149,6429 8148,6431 8147,6434
 8145,6438 8142,6443 8139,6447 8137,6449 8135,6451 8131,6454 8127,6457 8125,6458
 8124,6458 8122,6459 8117,6461 8111,6463 8107,6463 8104,6464 8101,6464 8100,6464
 8096,6463 8091,6462 8087,6461 8086,6461 8084,6460 8081,6459 8077,6457 8072,6454
 8068,6451 8066,6449 8064,6447 8061,6443 8058,6439 8057,6437 8057,6436 8056,6434
 8054,6429 8052,6424 8052,6420 8051,6416 8051,6414 8051,6413 8052,6409 8053,6403
 8054,6399 8054,6398 8055,6396 8056,6393 8058,6389 8061,6384 8064,6380 8066,6378
 8068,6376 8072,6373 8076,6370 8078,6369 8079,6369 8081,6368 8086,6366 8091,6365
 8095,6364 8099,6364 8101,6364 8102,6364 8106,6365 8112,6365 8116,6366 8117,6366
 8119,6367 8122,6368 8126,6370 8131,6373 8135,6376 8137,6378 8139,6380 8142,6384
 8145,6388 8146,6390 8146,6391 8147,6393 8149,6398 8150,6404 8151,6408 8151,6411
 8151,6414"
	stroke="#000000" stroke-width="15px" stroke-linejoin="bevel"/>
<!-- Line -->
<!-- polyline -->
<polyline points=" 1532,6111 1532,7654"
	stroke="#000000" stroke-width="15px" stroke-linejoin="round"/>
<!-- Line -->
<!-- polyline -->
<polyline points=" 1817,6111 1817,7261"
	stroke="#000000" stroke-width="15px" stroke-linejoin="round"/>
<!-- Line -->
<!-- polyline -->
<polyline points=" 2103,6111 2103,6465"
	stroke="#000000" stroke-width="15px" stroke-linejoin="round"/>
<!-- Line -->
<!-- polyline -->
<polyline points=" 2389,6111 2389,5546"
	stroke="#000000" stroke-width="15px" stroke-linejoin="round"/>
<!-- Line -->
<!-- polyline -->
<polyline points=" 2674,6111 2674,4823"
	stroke="#000000" stroke-width="15px" stroke-linejoin="round"/>
<!-- Line -->
<!-- polyline -->
<polyline points=" 2960,6111 2960,4551"
	stroke="#000000" stroke-width="15px" stroke-linejoin="round"/>
<!-- Line -->
<!-- polyline -->
<polyline points=" 3246,6111 3246,4823"
	stroke="#000000" stroke-width="15px" stroke-linejoin="round"/>
<!-- Line -->
<!-- polyline -->
<polyline points=" 3531,6111 3531,5546"
	stroke="#000000" stroke-width="15px" stroke-linejoin="round"/>
<!-- Line -->
<!-- polyline -->
<polyline points=" 3817,6111 3817,6465"
	stroke="#000000" stroke-width="15px" stroke-linejoin="round"/>
<!-- Line -->
<!-- polyline -->
<polyline points=" 4103,6111 4103,7261"
	stroke="#000000" stroke-width="15px" stroke-linejoin="round"/>
<!-- Line -->
<!-- polyline -->
<polyline points=" 4387,6111 4387,7654"
	stroke="#000000" stroke-width="15px" stroke-linejoin="round"/>
<!-- Line -->
<!-- polyline -->
<polyline points=" 4674,6111 4674,7510"
	stroke="#000000" stroke-width="15px" stroke-linejoin="round"/>
<!-- Line -->
<!-- polyline -->
<polyline points=" 4960,6111 4960,6875"
	stroke="#000000" stroke-width="15px" stroke-linejoin="round"/>
<!-- Line -->
<!-- polyline -->
<polyline points=" 5244,6111 5244,5973"
	stroke="#000000" stroke-width="15px" stroke-linejoin="round"/>
<!-- Line -->
<!-- polyline -->
<polyline points=" 5531,6111 5531,5121"
	stroke="#000000" stroke-width="15px" stroke-linejoin="round"/>
<!-- Line -->
<!-- polyline -->
<polyline points=" 5817,6111 5817,4612"
	stroke="#000000" stroke-width="15px" stroke-linejoin="round"/>
<!-- Line -->
<!-- polyline -->
<polyline points=" 6101,6111 6101,4628"
	stroke="#000000" stroke-width="15px" stroke-linejoin="round"/>
<!-- Line -->
<!-- polyline -->
<polyline points=" 6387,6111 6387,5161"
	stroke="#000000" stroke-width="15px" stroke-linejoin="round"/>
<!-- Line -->
<!-- polyline -->
<polyline points=" 6674,6111 6674,6026"
	stroke="#000000" stroke-width="15px" stroke-linejoin="round"/>
<!-- Line -->
<!-- polyline -->
<polyline points=" 6958,6111 6958,6921"
	stroke="#000000" stroke-width="15px" stroke-linejoin="round"/>
<!-- Line -->
<!-- polyline -->
<polyline points=" 7244,6111 7244,7532"
	stroke="#000000" stroke-width="15px" stroke-linejoin="round"/>
<!-- Line -->
<!-- polyline -->
<polyline points=" 7531,6111 7531,7646"
	stroke="#000000" stroke-width="15px" stroke-linejoin="round"/>
<!-- Line -->
<!-- polyline -->
<polyline points=" 7815,6111 7815,7225"
	stroke="#000000" stroke-width="15px" stroke-linejoin="round"/>
<!-- Line -->
<!-- polyline -->
<polyline points=" 8100,6111 8100,6375"
	stroke="#000000" stroke-width="15px" stroke-linejoin="round"/>
<!-- Line -->
<!-- polyline -->
<defs>
<clipPath id="cp1">
	<path clip-rule="evenodd" d="M 1188,3792 H 8686 V 7962 H 1188 z
		M 8504,6084 8534,6114 8504,6144 8681,6121 8681,6107z
		M 2930,3995 2960,3965 2990,3995 2967,3818 2953,3818z"/>
</clipPath>
</defs>
<polyline points=" 1200,6114 8674,6114" clip-path="url(#cp1)"
	stroke="#000000" stroke-width="8px" stroke-linejoin="round"/>
<!-- Forward arrow to point 8674,6114 -->
<polygon points=" 8504,6144 8654,6114 8504,6084 8534,6114 8504,6144"
	stroke="#000000" stroke-width="8px" stroke-miterlimit="8" fill="#000000"/>
<!-- Line -->
<!-- polyline -->
<polyline points=" 1532,7654 1560,7639 1589,7616 1617,7590 1646,7558 1674,7521 1703,7478 1731,7430
 1760,7378 1789,7322 1817,7261 1846,7196 1874,7126 1903,7053 1931,6978 1960,6897
 1989,6815 2017,6730 2046,6644 2074,6555 2103,6465 2131,6373 2160,6280 2189,6187
 2217,6093 2246,6000 2274,5907 2303,5815 2331,5723 2360,5633 2389,5546 2417,5460
 2446,5375 2474,5294 2503,5215 2531,5140 2560,5069 2589,5001 2617,4937 2646,4878
 2674,4823 2703,4772 2731,4726 2760,4686 2787,4650 2817,4621 2846,4596 2874,4576
 2903,4562 2931,4554 2960,4551 2987,4554 3017,4562 3046,4576 3074,4596 3103,4621
 3131,4650 3160,4686 3187,4726 3217,4772 3246,4823 3274,4878 3303,4937 3331,5001
 3360,5069 3387,5140 3417,5215 3446,5294 3474,5375 3503,5460 3531,5546 3560,5633
 3587,5723 3617,5815 3646,5907 3674,6000 3703,6093 3731,6187 3760,6280 3787,6373
 3817,6465 3846,6555 3874,6644 3903,6730 3931,6815 3960,6897 3987,6978 4017,7053
 4044,7126 4074,7196 4103,7261 4131,7322 4160,7378 4187,7430 4217,7478 4244,7521
 4274,7558 4303,7590 4331,7616 4360,7639 4387,7654 4417,7665 4444,7669 4474,7669
 4503,7662 4531,7650 4560,7633 4587,7610 4617,7582 4644,7548 4674,7510 4703,7465
 4731,7416 4760,7362 4787,7305 4817,7243 4844,7176 4874,7105 4903,7032 4931,6955
 4960,6875 4987,6791 5017,6707 5044,6619 5074,6530 5103,6439 5131,6347 5160,6254
 5187,6161 5217,6066 5244,5973 5274,5880 5301,5789 5331,5698 5360,5608 5387,5521
 5417,5435 5444,5353 5474,5272 5501,5194 5531,5121 5560,5050 5587,4983 5617,4921
 5644,4862 5674,4808 5701,4760 5731,4715 5760,4676 5787,4641 5817,4612 5844,4589
 5874,4571 5901,4558 5931,4553 5960,4551 5987,4555 6017,4565 6044,4580 6074,4601
 6101,4628 6131,4660 6160,4697 6187,4739 6217,4786 6244,4837 6274,4894 6301,4955
 6331,5021 6358,5089 6387,5161 6417,5237 6444,5316 6474,5398 6501,5483 6531,5569
 6558,5658 6587,5748 6617,5840 6644,5933 6674,6026 6701,6119 6731,6214 6758,6307
 6787,6398 6817,6490 6844,6580 6874,6668 6901,6755 6931,6839 6958,6921 6987,6998
 7017,7073 7044,7146 7074,7214 7101,7278 7131,7337 7158,7393 7187,7444 7217,7490
 7244,7532 7274,7568 7301,7598 7331,7623 7358,7643 7387,7658 7417,7666 7444,7669
 7474,7668 7501,7660 7531,7646 7558,7628 7587,7603 7615,7572 7644,7537 7674,7497
 7701,7451 7731,7401 7758,7347 7787,7287 7815,7225 7844,7157 7874,7086 7901,7011
 7931,6933 7958,6853 7987,6768 8015,6682 8044,6594 8074,6504 8101,6414"
	stroke="#000000" stroke-width="8px" stroke-linejoin="round" stroke-dasharray="40 40"/>
<!-- Text -->
<text xml:space="preserve" x="3150" y="3975" fill="#000000" font-family="Times" font-style="italic" font-weight="normal" font-size="168" text-anchor="start">x[n]</text>
<!-- Text -->
<text xml:space="preserve" x="8550" y="6000" fill="#000000" font-family="Times" font-style="italic" font-weight="normal" font-size="168" text-anchor="start">n</text>
<!-- Text -->
<text xml:space="preserve" x="2925" y="6375" fill="#000000" font-family="Times" font-style="italic" font-weight="normal" font-size="144" text-anchor="middle">0</text>
<!-- Text -->
<text xml:space="preserve" x="3525" y="6375" fill="#000000" font-family="Times" font-style="italic" font-weight="normal" font-size="144" text-anchor="middle">2</text>
<!-- Text -->
<text xml:space="preserve" x="4125" y="6000" fill="#000000" font-family="Times" font-style="italic" font-weight="normal" font-size="144" text-anchor="middle">4</text>
<!-- Text -->
<text xml:space="preserve" x="4650" y="6000" fill="#000000" font-family="Times" font-style="italic" font-weight="normal" font-size="144" text-anchor="middle">6</text>
<!-- Text -->
<text xml:space="preserve" x="1725" y="6000" fill="#000000" font-family="Times" font-style="italic" font-weight="normal" font-size="144" text-anchor="middle">-4</text>
<!-- Text -->
<text xml:space="preserve" x="2325" y="6375" fill="#000000" font-family="Times" font-style="italic" font-weight="normal" font-size="144" text-anchor="middle">-2</text>
</g>
</svg>
