<?xml version="1.0" encoding="UTF-8" standalone="no"?>
<!-- Creator: fig2dev Version 3.2.8b -->
<!-- CreationDate: 2025-10-30 19:43:16 -->
<!-- Magnification: 1 -->
<svg	xmlns="http://www.w3.org/2000/svg"
	xmlns:xlink="http://www.w3.org/1999/xlink"
	width="728pt" height="276pt"
	viewBox="513 3594 12121 4584">
<g fill="none">
<!-- Line -->
<!-- polyline -->
<defs>
<clipPath id="cp0">
	<path clip-rule="evenodd" d="M 513,3594 H 12634 V 8178 H 513 z
		M 720,3871 750,3841 780,3871 757,3694 743,3694z"/>
</clipPath>
</defs>
<polyline points=" 750,8100 750,3701" clip-path="url(#cp0)"
	stroke="#000000" stroke-width="8px" stroke-linejoin="round"/>
<!-- Forward arrow to point 750,3701 -->
<polygon points=" 780,3871 750,3721 720,3871 750,3841 780,3871"
	stroke="#000000" stroke-width="8px" stroke-miterlimit="8" fill="#000000"/>
<!-- Line -->
<!-- polyline -->
<polyline points=" 748,4471 748,4584"
	stroke="#000000" stroke-width="8px" stroke-linejoin="round"/>
<!-- Text -->
<!-- text -->
<text xml:space="preserve" x="704" y="6375" fill="#000000" font-family="Times" font-style="italic" font-weight="normal" font-size="168" text-anchor="start">0</text>
<!-- Text -->
<!-- text -->
<text xml:space="preserve" x="4875" y="6375" fill="#000000" font-family="Times" font-style="italic" font-weight="normal" font-size="168" text-anchor="start">15</text>
<!-- Text -->
<!-- text -->
<text xml:space="preserve" x="3493" y="6000" fill="#000000" font-family="Times" font-style="italic" font-weight="normal" font-size="168" text-anchor="start">10</text>
<!-- Text -->
<!-- text -->
<text xml:space="preserve" x="6290" y="6000" fill="#000000" font-family="Times" font-style="italic" font-weight="normal" font-size="168" text-anchor="start">20</text>
<!-- Text -->
<!-- text -->
<text xml:space="preserve" x="7669" y="6011" fill="#000000" font-family="Times" font-style="italic" font-weight="normal" font-size="168" text-anchor="start">25</text>
<!-- Text -->
<!-- text -->
<text xml:space="preserve" x="9044" y="6405" fill="#000000" font-family="Times" font-style="italic" font-weight="normal" font-size="168" text-anchor="start">30</text>
<!-- Text -->
<!-- text -->
<text xml:space="preserve" x="10500" y="6405" fill="#000000" font-family="Times" font-style="italic" font-weight="normal" font-size="168" text-anchor="start">35</text>
<!-- Text -->
<!-- text -->
<text xml:space="preserve" x="11862" y="6375" fill="#000000" font-family="Times" font-style="italic" font-weight="normal" font-size="168" text-anchor="start">40</text>
<!-- Text -->
<!-- text -->
<text xml:space="preserve" x="7350" y="8100" fill="#000000" font-family="Times" font-style="italic" font-weight="normal" font-size="168" text-anchor="middle">N<tspan font-size="112" baseline-shift="sub">0</tspan>=24</text>
<!-- Text -->
<!-- text -->
<text xml:space="preserve" x="600" y="7851" fill="#000000" font-family="Times" font-style="italic" font-weight="normal" font-size="168" text-anchor="end">-1</text>
<!-- Text -->
<!-- text -->
<text xml:space="preserve" x="600" y="4540" fill="#000000" font-family="Times" font-style="italic" font-weight="normal" font-size="168" text-anchor="end">1</text>
<!-- Line -->
<!-- spline -->
<polyline points=" 798,4471 798,4472 797,4476 796,4482 795,4486 795,4487 794,4489 793,4493 791,4496
 788,4501 785,4505 783,4506 783,4507 781,4508 777,4511 773,4514 771,4515 771,4516
 769,4517 764,4519 759,4520 754,4521 751,4521 748,4521 747,4521 743,4520 737,4520
 733,4519 732,4519 730,4518 726,4516 723,4514 718,4511 714,4508 713,4507 712,4506
 711,4505 708,4501 705,4497 704,4495 703,4494 702,4492 700,4487 699,4481 698,4477
 698,4474 698,4471 698,4470 699,4466 699,4460 700,4456 700,4455 701,4453 703,4450
 705,4446 708,4442 711,4438 712,4436 713,4436 714,4434 718,4431 722,4428 724,4427
 725,4427 727,4426 732,4424 738,4422 742,4422 745,4421 748,4421 749,4421 753,4422
 759,4423 763,4424 764,4424 766,4425 769,4426 773,4428 777,4431 781,4434 783,4436
 785,4438 788,4442 791,4446 792,4448 793,4450 795,4455 797,4460 797,4465 798,4468
 798,4471"
	stroke="#000000" stroke-width="8px" stroke-linejoin="bevel"/>
<!-- Line -->
<!-- spline -->
<polyline points=" 1078,7102 1078,7103 1077,7107 1077,7112 1076,7116 1076,7117 1075,7119 1074,7122
 1072,7126 1069,7131 1066,7135 1064,7137 1062,7139 1058,7142 1054,7145 1052,7146
 1051,7146 1049,7147 1044,7149 1038,7151 1034,7151 1031,7152 1028,7152 1027,7152
 1023,7151 1018,7150 1014,7149 1013,7149 1011,7148 1008,7147 1004,7145 999,7142
 995,7139 993,7137 991,7135 988,7131 985,7127 984,7125 984,7124 983,7122 981,7117
 979,7112 979,7108 978,7104 978,7102 978,7101 979,7097 980,7091 981,7087 981,7086
 982,7084 983,7081 985,7077 988,7072 991,7068 993,7066 995,7064 999,7061 1003,7058
 1005,7057 1006,7057 1008,7056 1013,7054 1018,7053 1022,7052 1026,7052 1028,7052
 1029,7052 1033,7053 1039,7053 1043,7054 1044,7054 1046,7055 1049,7056 1053,7058
 1058,7061 1062,7064 1064,7066 1066,7068 1069,7072 1072,7076 1073,7078 1073,7079
 1074,7081 1076,7086 1077,7092 1078,7096 1078,7099 1078,7102"
	stroke="#000000" stroke-width="8px" stroke-linejoin="bevel"/>
<!-- Line -->
<!-- spline -->
<polyline points=" 1359,6521 1359,6522 1358,6526 1358,6532 1357,6536 1357,6537 1356,6539 1355,6543
 1353,6546 1350,6551 1347,6555 1345,6556 1345,6557 1343,6558 1339,6561 1335,6564
 1333,6565 1332,6566 1330,6567 1325,6569 1319,6570 1315,6571 1312,6571 1309,6571
 1308,6571 1304,6570 1299,6570 1295,6569 1294,6569 1292,6568 1289,6566 1285,6564
 1280,6561 1276,6558 1274,6557 1274,6556 1272,6555 1269,6551 1266,6547 1265,6545
 1265,6544 1264,6542 1262,6537 1260,6531 1260,6527 1259,6524 1259,6521 1259,6520
 1260,6516 1261,6510 1262,6506 1262,6505 1263,6503 1264,6500 1266,6496 1269,6492
 1272,6488 1274,6486 1276,6484 1280,6481 1284,6478 1286,6477 1287,6477 1289,6476
 1294,6474 1299,6472 1303,6472 1307,6471 1309,6471 1310,6471 1314,6472 1320,6473
 1324,6474 1325,6474 1327,6475 1330,6476 1334,6478 1339,6481 1343,6484 1345,6486
 1347,6488 1350,6492 1353,6496 1354,6498 1355,6500 1357,6505 1358,6510 1359,6515
 1359,6518 1359,6521"
	stroke="#000000" stroke-width="8px" stroke-linejoin="bevel"/>
<!-- Line -->
<!-- spline -->
<polyline points=" 1641,4711 1641,4712 1640,4716 1640,4722 1639,4726 1639,4727 1638,4729 1637,4732
 1635,4736 1632,4741 1629,4745 1627,4747 1625,4749 1621,4752 1617,4755 1615,4756
 1614,4756 1612,4757 1607,4759 1601,4760 1597,4761 1594,4761 1591,4761 1590,4761
 1586,4760 1581,4760 1577,4759 1576,4759 1574,4758 1571,4757 1567,4755 1562,4752
 1558,4749 1556,4747 1554,4745 1551,4741 1548,4737 1547,4735 1547,4734 1546,4732
 1544,4727 1542,4721 1542,4717 1541,4714 1541,4711 1541,4710 1542,4706 1543,4701
 1544,4697 1544,4696 1545,4694 1546,4691 1548,4687 1551,4682 1554,4678 1556,4676
 1558,4674 1562,4671 1566,4668 1568,4667 1569,4667 1571,4666 1576,4664 1581,4662
 1585,4662 1589,4661 1591,4661 1592,4661 1596,4662 1602,4663 1606,4664 1607,4664
 1609,4665 1612,4666 1616,4668 1621,4671 1625,4674 1627,4676 1629,4678 1632,4682
 1635,4686 1636,4688 1636,4689 1637,4691 1639,4696 1640,4701 1641,4705 1641,4709
 1641,4711"
	stroke="#000000" stroke-width="8px" stroke-linejoin="bevel"/>
<!-- Line -->
<!-- spline -->
<polyline points=" 1923,7342 1923,7343 1922,7347 1922,7353 1921,7357 1921,7358 1920,7360 1919,7363
 1917,7367 1914,7371 1911,7375 1909,7377 1907,7379 1903,7382 1899,7385 1897,7386
 1896,7386 1894,7387 1889,7389 1883,7391 1879,7391 1876,7392 1873,7392 1872,7392
 1868,7391 1862,7390 1858,7389 1857,7389 1855,7388 1852,7387 1848,7385 1844,7382
 1840,7379 1838,7377 1836,7375 1833,7371 1830,7367 1829,7365 1828,7363 1826,7358
 1824,7353 1824,7348 1823,7345 1823,7342 1823,7341 1824,7337 1825,7331 1826,7327
 1826,7326 1827,7324 1828,7320 1830,7317 1833,7312 1836,7308 1838,7307 1838,7306
 1840,7305 1844,7302 1848,7299 1850,7298 1852,7297 1857,7295 1862,7293 1867,7293
 1870,7292 1873,7292 1874,7292 1878,7293 1884,7294 1888,7295 1889,7295 1891,7296
 1894,7297 1898,7299 1903,7302 1907,7305 1909,7306 1909,7307 1911,7308 1914,7312
 1917,7316 1918,7318 1918,7319 1919,7321 1921,7326 1922,7332 1923,7336 1923,7339
 1923,7342"
	stroke="#000000" stroke-width="8px" stroke-linejoin="bevel"/>
<!-- Line -->
<!-- spline -->
<polyline points=" 2204,5942 2204,5943 2203,5947 2202,5953 2201,5957 2201,5958 2200,5960 2199,5963
 2197,5967 2194,5971 2191,5975 2189,5977 2187,5979 2183,5982 2179,5985 2177,5986
 2175,5987 2170,5989 2165,5991 2160,5991 2157,5992 2154,5992 2153,5992 2149,5991
 2143,5990 2139,5989 2138,5989 2136,5988 2133,5987 2129,5985 2124,5982 2120,5979
 2118,5977 2116,5975 2113,5971 2110,5967 2109,5965 2108,5963 2106,5958 2105,5953
 2104,5948 2104,5945 2104,5942 2104,5941 2105,5937 2105,5931 2106,5927 2106,5926
 2107,5924 2108,5920 2110,5917 2113,5912 2116,5908 2118,5907 2118,5906 2120,5905
 2124,5902 2128,5899 2130,5898 2131,5898 2133,5897 2138,5895 2144,5893 2148,5893
 2151,5892 2154,5892 2155,5892 2159,5893 2165,5894 2169,5895 2170,5895 2172,5896
 2175,5897 2179,5899 2183,5902 2187,5905 2189,5906 2189,5907 2191,5908 2194,5912
 2197,5916 2198,5918 2198,5919 2199,5921 2201,5926 2203,5932 2203,5936 2204,5939
 2204,5942"
	stroke="#000000" stroke-width="8px" stroke-linejoin="bevel"/>
<!-- Line -->
<!-- spline -->
<polyline points=" 2486,5291 2486,5292 2485,5296 2484,5301 2483,5305 2483,5306 2482,5308 2481,5311
 2479,5315 2476,5320 2473,5324 2471,5326 2469,5328 2465,5331 2461,5334 2459,5335
 2457,5336 2452,5338 2447,5340 2442,5340 2439,5341 2436,5341 2435,5341 2431,5340
 2425,5339 2421,5338 2420,5338 2418,5337 2415,5336 2411,5334 2406,5331 2402,5328
 2400,5326 2398,5324 2395,5320 2392,5316 2391,5314 2391,5313 2390,5311 2388,5306
 2387,5301 2386,5297 2386,5293 2386,5291 2386,5290 2387,5286 2387,5280 2388,5276
 2388,5275 2389,5273 2390,5270 2392,5266 2395,5261 2398,5257 2400,5255 2402,5253
 2406,5250 2410,5247 2412,5246 2413,5246 2415,5245 2420,5243 2426,5242 2430,5241
 2433,5241 2436,5241 2437,5241 2441,5242 2447,5242 2451,5243 2452,5243 2454,5244
 2457,5245 2461,5247 2465,5250 2469,5253 2471,5255 2473,5257 2476,5261 2479,5265
 2480,5267 2480,5268 2481,5270 2483,5275 2485,5281 2485,5285 2486,5288 2486,5291
"
	stroke="#000000" stroke-width="8px" stroke-linejoin="bevel"/>
<!-- Line -->
<!-- spline -->
<polyline points=" 2768,7102 2768,7103 2767,7107 2766,7112 2765,7116 2765,7117 2764,7119 2763,7122
 2761,7126 2758,7131 2755,7135 2753,7137 2751,7139 2747,7142 2743,7145 2741,7146
 2739,7147 2734,7149 2729,7151 2724,7151 2721,7152 2718,7152 2717,7152 2713,7151
 2707,7150 2703,7149 2702,7149 2700,7148 2697,7147 2693,7145 2688,7142 2684,7139
 2682,7137 2680,7135 2677,7131 2674,7127 2673,7125 2673,7124 2672,7122 2670,7117
 2669,7112 2668,7108 2668,7104 2668,7102 2668,7101 2669,7097 2669,7091 2670,7087
 2670,7086 2671,7084 2672,7081 2674,7077 2677,7072 2680,7068 2682,7066 2684,7064
 2688,7061 2692,7058 2694,7057 2695,7057 2697,7056 2702,7054 2708,7053 2712,7052
 2715,7052 2718,7052 2719,7052 2723,7053 2729,7053 2733,7054 2734,7054 2736,7055
 2739,7056 2743,7058 2747,7061 2751,7064 2753,7066 2755,7068 2758,7072 2761,7076
 2762,7078 2762,7079 2763,7081 2765,7086 2767,7092 2767,7096 2768,7099 2768,7102
"
	stroke="#000000" stroke-width="8px" stroke-linejoin="bevel"/>
<!-- Line -->
<!-- spline -->
<polyline points=" 3050,5702 3050,5703 3049,5707 3048,5712 3047,5716 3047,5717 3046,5719 3045,5722
 3043,5726 3040,5731 3037,5735 3035,5737 3033,5739 3029,5742 3025,5745 3023,5746
 3022,5746 3020,5747 3015,5749 3010,5751 3006,5751 3002,5752 3000,5752 2999,5752
 2995,5751 2989,5750 2985,5749 2984,5749 2982,5748 2979,5747 2975,5745 2970,5742
 2966,5739 2964,5737 2962,5735 2959,5731 2956,5727 2955,5725 2955,5724 2954,5722
 2952,5717 2951,5712 2950,5708 2950,5704 2950,5702 2950,5701 2951,5697 2951,5691
 2952,5687 2952,5686 2953,5684 2954,5681 2956,5677 2959,5672 2962,5668 2964,5666
 2966,5664 2970,5661 2974,5658 2976,5657 2977,5657 2979,5656 2984,5654 2990,5653
 2994,5652 2997,5652 3000,5652 3001,5652 3005,5653 3010,5653 3014,5654 3015,5654
 3017,5655 3020,5656 3024,5658 3029,5661 3033,5664 3035,5666 3037,5668 3040,5672
 3043,5676 3044,5678 3044,5679 3045,5681 3047,5686 3049,5692 3049,5696 3050,5699
 3050,5702"
	stroke="#000000" stroke-width="8px" stroke-linejoin="bevel"/>
<!-- Line -->
<!-- spline -->
<polyline points=" 3330,5871 3330,5872 3329,5876 3329,5882 3328,5886 3328,5887 3327,5889 3326,5893
 3324,5896 3321,5901 3318,5905 3316,5906 3316,5907 3314,5908 3310,5911 3306,5914
 3304,5915 3303,5916 3301,5917 3296,5919 3290,5920 3286,5921 3283,5921 3280,5921
 3279,5921 3275,5920 3269,5920 3265,5919 3264,5919 3262,5918 3259,5916 3255,5914
 3251,5911 3247,5908 3245,5907 3245,5906 3243,5905 3240,5901 3237,5897 3236,5895
 3236,5894 3235,5892 3233,5887 3231,5881 3231,5877 3230,5874 3230,5871 3230,5870
 3231,5866 3232,5860 3233,5856 3233,5855 3234,5853 3235,5850 3237,5846 3240,5842
 3243,5838 3245,5836 3247,5834 3251,5831 3255,5828 3257,5827 3259,5826 3264,5824
 3269,5822 3274,5822 3277,5821 3280,5821 3281,5821 3285,5822 3291,5823 3295,5824
 3296,5824 3298,5825 3301,5826 3305,5828 3310,5831 3314,5834 3316,5836 3318,5838
 3321,5842 3324,5846 3325,5848 3326,5850 3328,5855 3329,5860 3330,5865 3330,5868
 3330,5871"
	stroke="#000000" stroke-width="8px" stroke-linejoin="bevel"/>
<!-- Line -->
<!-- spline -->
<polyline points=" 3612,6521 3612,6522 3611,6526 3611,6532 3610,6536 3610,6537 3609,6539 3608,6543
 3606,6546 3603,6551 3600,6555 3598,6556 3598,6557 3596,6558 3592,6561 3588,6564
 3586,6565 3585,6566 3583,6567 3578,6569 3572,6570 3568,6571 3565,6571 3562,6571
 3561,6571 3557,6570 3551,6570 3547,6569 3546,6569 3544,6568 3541,6566 3537,6564
 3533,6561 3529,6558 3527,6557 3527,6556 3525,6555 3522,6551 3519,6547 3518,6545
 3518,6544 3517,6542 3515,6537 3513,6531 3513,6527 3512,6524 3512,6521 3512,6520
 3513,6516 3514,6510 3515,6506 3515,6505 3516,6503 3517,6500 3519,6496 3522,6492
 3525,6488 3527,6486 3529,6484 3533,6481 3537,6478 3539,6477 3541,6476 3546,6474
 3551,6472 3556,6472 3559,6471 3562,6471 3563,6471 3567,6472 3573,6473 3577,6474
 3578,6474 3580,6475 3583,6476 3587,6478 3592,6481 3596,6484 3598,6486 3600,6488
 3603,6492 3606,6496 3607,6498 3608,6500 3610,6505 3611,6510 3612,6515 3612,6518
 3612,6521"
	stroke="#000000" stroke-width="8px" stroke-linejoin="bevel"/>
<!-- Line -->
<!-- spline -->
<polyline points=" 3894,5942 3894,5943 3893,5947 3893,5953 3892,5957 3892,5958 3891,5960 3889,5963
 3887,5967 3884,5971 3881,5975 3880,5977 3879,5977 3878,5979 3874,5982 3870,5985
 3868,5986 3867,5986 3865,5987 3860,5989 3854,5991 3850,5991 3847,5992 3844,5992
 3843,5992 3839,5991 3833,5990 3829,5989 3828,5989 3826,5988 3823,5987 3819,5985
 3815,5982 3811,5979 3809,5977 3807,5975 3804,5971 3801,5967 3800,5965 3799,5963
 3797,5958 3795,5953 3795,5948 3794,5945 3794,5942 3794,5941 3795,5937 3796,5931
 3797,5927 3797,5926 3798,5924 3799,5920 3801,5917 3804,5912 3807,5908 3809,5907
 3809,5906 3811,5905 3815,5902 3819,5899 3821,5898 3823,5897 3828,5895 3833,5893
 3838,5893 3841,5892 3844,5892 3845,5892 3849,5893 3855,5894 3859,5895 3860,5895
 3862,5896 3866,5897 3869,5899 3874,5902 3878,5905 3879,5906 3880,5907 3881,5908
 3884,5912 3887,5916 3888,5918 3889,5919 3890,5921 3892,5926 3893,5932 3894,5936
 3894,5939 3894,5942"
	stroke="#000000" stroke-width="8px" stroke-linejoin="bevel"/>
<!-- Line -->
<!-- spline -->
<polyline points=" 4176,6111 4176,6112 4175,6116 4174,6122 4173,6126 4173,6127 4172,6129 4171,6132
 4169,6136 4166,6141 4163,6145 4162,6147 4161,6147 4160,6149 4156,6152 4152,6155
 4150,6156 4149,6156 4147,6157 4142,6159 4136,6160 4132,6161 4129,6161 4126,6161
 4125,6161 4121,6160 4115,6160 4111,6159 4110,6159 4108,6158 4105,6157 4101,6155
 4097,6152 4093,6149 4091,6147 4089,6145 4086,6141 4083,6137 4082,6135 4082,6134
 4081,6132 4079,6127 4077,6121 4077,6117 4076,6114 4076,6111 4076,6110 4077,6106
 4078,6101 4079,6097 4079,6096 4080,6094 4081,6091 4083,6087 4086,6082 4089,6078
 4091,6076 4093,6074 4097,6071 4101,6068 4103,6067 4105,6066 4110,6064 4115,6062
 4120,6062 4123,6061 4126,6061 4127,6061 4131,6062 4137,6063 4141,6064 4142,6064
 4144,6065 4148,6066 4151,6068 4156,6071 4160,6074 4161,6076 4162,6076 4163,6078
 4166,6082 4169,6086 4170,6088 4170,6089 4171,6091 4173,6096 4175,6101 4175,6105
 4176,6109 4176,6111"
	stroke="#000000" stroke-width="8px" stroke-linejoin="bevel"/>
<!-- Line -->
<!-- spline -->
<polyline points=" 4458,5942 4458,5943 4457,5947 4456,5953 4455,5957 4455,5958 4454,5960 4453,5963
 4451,5967 4448,5971 4445,5975 4444,5977 4443,5977 4442,5979 4438,5982 4434,5985
 4432,5986 4431,5986 4429,5987 4424,5989 4418,5991 4414,5991 4411,5992 4408,5992
 4407,5992 4403,5991 4397,5990 4393,5989 4392,5989 4390,5988 4386,5987 4383,5985
 4378,5982 4374,5979 4373,5977 4372,5977 4371,5975 4368,5971 4365,5967 4364,5965
 4363,5963 4361,5958 4359,5953 4359,5948 4358,5945 4358,5942 4358,5941 4359,5937
 4360,5931 4361,5927 4361,5926 4362,5924 4363,5920 4365,5917 4368,5912 4371,5908
 4372,5907 4373,5906 4374,5905 4378,5902 4382,5899 4384,5898 4385,5898 4387,5897
 4392,5895 4398,5893 4402,5893 4405,5892 4408,5892 4409,5892 4413,5893 4419,5894
 4423,5895 4424,5895 4426,5896 4430,5897 4433,5899 4438,5902 4442,5905 4443,5906
 4444,5907 4445,5908 4448,5912 4451,5916 4452,5918 4452,5919 4453,5921 4455,5926
 4457,5932 4457,5936 4458,5939 4458,5942"
	stroke="#000000" stroke-width="8px" stroke-linejoin="bevel"/>
<!-- Line -->
<!-- spline -->
<polyline points=" 4739,6521 4739,6522 4738,6526 4737,6532 4736,6536 4736,6537 4735,6539 4734,6543
 4732,6546 4729,6551 4726,6555 4724,6556 4724,6557 4722,6558 4718,6561 4714,6564
 4712,6565 4711,6566 4709,6567 4704,6569 4699,6570 4695,6571 4691,6571 4689,6571
 4688,6571 4684,6570 4678,6570 4674,6569 4673,6569 4671,6568 4668,6566 4664,6564
 4659,6561 4655,6558 4653,6557 4653,6556 4651,6555 4648,6551 4645,6547 4644,6545
 4644,6544 4643,6542 4641,6537 4640,6531 4639,6527 4639,6524 4639,6521 4639,6520
 4640,6516 4640,6510 4641,6506 4641,6505 4642,6503 4643,6500 4645,6496 4648,6492
 4651,6488 4653,6486 4655,6484 4659,6481 4663,6478 4665,6477 4666,6477 4668,6476
 4673,6474 4679,6472 4683,6472 4686,6471 4689,6471 4690,6471 4694,6472 4699,6473
 4703,6474 4704,6474 4706,6475 4709,6476 4713,6478 4718,6481 4722,6484 4724,6486
 4726,6488 4729,6492 4732,6496 4733,6498 4734,6500 4736,6505 4738,6510 4738,6515
 4739,6518 4739,6521"
	stroke="#000000" stroke-width="8px" stroke-linejoin="bevel"/>
<!-- Line -->
<!-- spline -->
<polyline points=" 5020,5871 5020,5872 5019,5876 5019,5882 5018,5886 5018,5887 5017,5889 5016,5893
 5014,5896 5011,5901 5008,5905 5006,5906 5006,5907 5004,5908 5000,5911 4996,5914
 4994,5915 4993,5916 4991,5917 4986,5919 4980,5920 4976,5921 4973,5921 4970,5921
 4969,5921 4965,5920 4960,5920 4956,5919 4955,5919 4953,5918 4950,5916 4946,5914
 4941,5911 4937,5908 4935,5907 4935,5906 4933,5905 4930,5901 4927,5897 4926,5895
 4926,5894 4925,5892 4923,5887 4921,5881 4921,5877 4920,5874 4920,5871 4920,5870
 4921,5866 4922,5860 4923,5856 4923,5855 4924,5853 4925,5850 4927,5846 4930,5842
 4933,5838 4935,5836 4937,5834 4941,5831 4945,5828 4947,5827 4948,5827 4950,5826
 4955,5824 4960,5822 4964,5822 4968,5821 4970,5821 4971,5821 4975,5822 4981,5823
 4985,5824 4986,5824 4988,5825 4991,5826 4995,5828 5000,5831 5004,5834 5006,5836
 5008,5838 5011,5842 5014,5846 5015,5848 5016,5850 5018,5855 5019,5860 5020,5865
 5020,5868 5020,5871"
	stroke="#000000" stroke-width="8px" stroke-linejoin="bevel"/>
<!-- Line -->
<!-- spline -->
<polyline points=" 5302,5702 5302,5703 5301,5707 5301,5712 5300,5716 5300,5717 5299,5719 5298,5722
 5296,5726 5293,5731 5290,5735 5288,5737 5286,5739 5282,5742 5278,5745 5276,5746
 5275,5746 5273,5747 5268,5749 5262,5751 5258,5751 5255,5752 5252,5752 5251,5752
 5247,5751 5242,5750 5238,5749 5237,5749 5235,5748 5232,5747 5228,5745 5223,5742
 5219,5739 5217,5737 5215,5735 5212,5731 5209,5727 5208,5725 5208,5724 5207,5722
 5205,5717 5203,5712 5203,5708 5202,5704 5202,5702 5202,5701 5203,5697 5204,5691
 5205,5687 5205,5686 5206,5684 5207,5681 5209,5677 5212,5672 5215,5668 5217,5666
 5219,5664 5223,5661 5227,5658 5229,5657 5230,5657 5232,5656 5237,5654 5242,5653
 5246,5652 5250,5652 5252,5652 5253,5652 5257,5653 5263,5653 5267,5654 5268,5654
 5270,5655 5273,5656 5277,5658 5282,5661 5286,5664 5288,5666 5290,5668 5293,5672
 5296,5676 5297,5678 5297,5679 5298,5681 5300,5686 5301,5692 5302,5696 5302,5699
 5302,5702"
	stroke="#000000" stroke-width="8px" stroke-linejoin="bevel"/>
<!-- Line -->
<!-- spline -->
<polyline points=" 5584,7102 5584,7103 5583,7107 5583,7112 5582,7116 5582,7117 5581,7119 5580,7122
 5578,7126 5575,7131 5572,7135 5570,7137 5568,7139 5564,7142 5560,7145 5558,7146
 5557,7146 5555,7147 5550,7149 5544,7151 5540,7151 5537,7152 5534,7152 5533,7152
 5529,7151 5524,7150 5520,7149 5519,7149 5517,7148 5514,7147 5510,7145 5505,7142
 5501,7139 5499,7137 5497,7135 5494,7131 5491,7127 5490,7125 5490,7124 5489,7122
 5487,7117 5485,7112 5485,7108 5484,7104 5484,7102 5484,7101 5485,7097 5486,7091
 5487,7087 5487,7086 5488,7084 5489,7081 5491,7077 5494,7072 5497,7068 5499,7066
 5501,7064 5505,7061 5509,7058 5511,7057 5512,7057 5514,7056 5519,7054 5524,7053
 5528,7052 5532,7052 5534,7052 5535,7052 5539,7053 5545,7053 5549,7054 5550,7054
 5552,7055 5555,7056 5559,7058 5564,7061 5568,7064 5570,7066 5572,7068 5575,7072
 5578,7076 5579,7078 5579,7079 5580,7081 5582,7086 5583,7092 5584,7096 5584,7099
 5584,7102"
	stroke="#000000" stroke-width="8px" stroke-linejoin="bevel"/>
<!-- Line -->
<!-- spline -->
<polyline points=" 5865,5291 5865,5292 5864,5296 5863,5301 5862,5305 5862,5306 5861,5308 5860,5311
 5858,5315 5855,5320 5852,5324 5850,5326 5848,5328 5844,5331 5840,5334 5838,5335
 5836,5336 5831,5338 5826,5340 5821,5340 5818,5341 5815,5341 5814,5341 5810,5340
 5804,5339 5800,5338 5799,5338 5797,5337 5793,5336 5790,5334 5785,5331 5781,5328
 5780,5326 5779,5326 5778,5324 5775,5320 5772,5316 5771,5314 5771,5313 5770,5311
 5768,5306 5766,5301 5766,5297 5765,5293 5765,5291 5765,5290 5766,5286 5767,5280
 5768,5276 5768,5275 5769,5273 5770,5270 5772,5266 5775,5261 5778,5257 5779,5255
 5780,5255 5781,5253 5785,5250 5789,5247 5791,5246 5792,5246 5794,5245 5799,5243
 5805,5242 5809,5241 5812,5241 5815,5241 5816,5241 5820,5242 5826,5242 5830,5243
 5831,5243 5833,5244 5836,5245 5840,5247 5844,5250 5848,5253 5850,5255 5852,5257
 5855,5261 5858,5265 5859,5267 5859,5268 5860,5270 5862,5275 5864,5281 5864,5285
 5865,5288 5865,5291"
	stroke="#000000" stroke-width="8px" stroke-linejoin="bevel"/>
<!-- Line -->
<!-- spline -->
<polyline points=" 6147,5942 6147,5943 6146,5947 6145,5953 6144,5957 6144,5958 6143,5960 6142,5963
 6140,5967 6137,5971 6134,5975 6132,5977 6130,5979 6126,5982 6122,5985 6120,5986
 6118,5987 6113,5989 6108,5991 6103,5991 6100,5992 6097,5992 6096,5992 6092,5991
 6086,5990 6082,5989 6081,5989 6079,5988 6075,5987 6072,5985 6067,5982 6063,5979
 6062,5977 6061,5977 6060,5975 6057,5971 6054,5967 6053,5965 6052,5965 6051,5963
 6049,5958 6048,5953 6047,5948 6047,5945 6047,5942 6047,5941 6048,5937 6048,5931
 6049,5927 6049,5926 6050,5924 6052,5920 6054,5917 6057,5912 6060,5908 6061,5907
 6062,5906 6063,5905 6067,5902 6071,5899 6073,5898 6074,5898 6076,5897 6081,5895
 6087,5893 6091,5893 6094,5892 6097,5892 6098,5892 6102,5893 6108,5894 6112,5895
 6113,5895 6115,5896 6118,5897 6122,5899 6126,5902 6130,5905 6132,5906 6132,5907
 6134,5908 6137,5912 6140,5916 6141,5918 6141,5919 6142,5921 6144,5926 6146,5932
 6146,5936 6147,5939 6147,5942"
	stroke="#000000" stroke-width="8px" stroke-linejoin="bevel"/>
<!-- Line -->
<!-- spline -->
<polyline points=" 6429,7342 6429,7343 6428,7347 6427,7353 6426,7357 6426,7358 6425,7360 6424,7363
 6422,7367 6419,7371 6416,7375 6414,7377 6412,7379 6408,7382 6404,7385 6402,7386
 6400,7387 6395,7389 6390,7391 6385,7391 6382,7392 6379,7392 6378,7392 6374,7391
 6368,7390 6364,7389 6363,7389 6361,7388 6358,7387 6354,7385 6349,7382 6345,7379
 6343,7377 6341,7375 6338,7371 6335,7367 6334,7365 6333,7363 6331,7358 6330,7353
 6329,7348 6329,7345 6329,7342 6329,7341 6330,7337 6330,7331 6331,7327 6331,7326
 6332,7324 6333,7320 6335,7317 6338,7312 6341,7308 6343,7307 6343,7306 6345,7305
 6349,7302 6353,7299 6355,7298 6356,7298 6358,7297 6363,7295 6369,7293 6373,7293
 6376,7292 6379,7292 6380,7292 6384,7293 6390,7294 6394,7295 6395,7295 6397,7296
 6400,7297 6404,7299 6408,7302 6412,7305 6414,7306 6414,7307 6416,7308 6419,7312
 6422,7316 6423,7318 6423,7319 6424,7321 6426,7326 6428,7332 6428,7336 6429,7339
 6429,7342"
	stroke="#000000" stroke-width="8px" stroke-linejoin="bevel"/>
<!-- Line -->
<!-- spline -->
<polyline points=" 6711,4711 6711,4712 6710,4716 6709,4722 6708,4726 6708,4727 6707,4729 6706,4732
 6704,4736 6701,4741 6698,4745 6696,4747 6694,4749 6690,4752 6686,4755 6684,4756
 6682,4757 6677,4759 6672,4760 6667,4761 6664,4761 6661,4761 6660,4761 6656,4760
 6650,4760 6646,4759 6645,4759 6643,4758 6640,4757 6636,4755 6631,4752 6627,4749
 6625,4747 6623,4745 6620,4741 6617,4737 6616,4735 6616,4734 6615,4732 6613,4727
 6612,4721 6611,4717 6611,4714 6611,4711 6611,4710 6612,4706 6612,4701 6613,4697
 6613,4696 6614,4694 6615,4691 6617,4687 6620,4682 6623,4678 6625,4676 6627,4674
 6631,4671 6635,4668 6637,4667 6638,4667 6640,4666 6645,4664 6651,4662 6655,4662
 6658,4661 6661,4661 6662,4661 6666,4662 6672,4663 6676,4664 6677,4664 6679,4665
 6682,4666 6686,4668 6690,4671 6694,4674 6696,4676 6698,4678 6701,4682 6704,4686
 6705,4688 6705,4689 6706,4691 6708,4696 6710,4701 6710,4705 6711,4709 6711,4711
"
	stroke="#000000" stroke-width="8px" stroke-linejoin="bevel"/>
<!-- Line -->
<!-- spline -->
<polyline points=" 6993,6521 6993,6522 6992,6526 6991,6532 6990,6536 6990,6537 6989,6539 6988,6543
 6986,6546 6983,6551 6980,6555 6978,6556 6978,6557 6976,6558 6972,6561 6968,6564
 6966,6565 6965,6566 6963,6567 6958,6569 6953,6570 6949,6571 6945,6571 6943,6571
 6942,6571 6938,6570 6932,6570 6928,6569 6927,6569 6925,6568 6922,6566 6918,6564
 6913,6561 6909,6558 6907,6557 6907,6556 6905,6555 6902,6551 6899,6547 6898,6545
 6898,6544 6897,6542 6895,6537 6894,6531 6893,6527 6893,6524 6893,6521 6893,6520
 6894,6516 6894,6510 6895,6506 6895,6505 6896,6503 6897,6500 6899,6496 6902,6492
 6905,6488 6907,6486 6909,6484 6913,6481 6917,6478 6919,6477 6920,6477 6922,6476
 6927,6474 6933,6472 6937,6472 6940,6471 6943,6471 6944,6471 6948,6472 6953,6473
 6957,6474 6958,6474 6960,6475 6963,6476 6967,6478 6972,6481 6976,6484 6978,6486
 6980,6488 6983,6492 6986,6496 6987,6498 6988,6500 6990,6505 6992,6510 6992,6515
 6993,6518 6993,6521"
	stroke="#000000" stroke-width="8px" stroke-linejoin="bevel"/>
<!-- Line -->
<!-- spline -->
<polyline points=" 7273,7102 7273,7103 7272,7107 7272,7112 7271,7116 7271,7117 7270,7119 7269,7122
 7267,7126 7264,7131 7261,7135 7259,7137 7257,7139 7253,7142 7249,7145 7247,7146
 7246,7146 7244,7147 7239,7149 7233,7151 7229,7151 7226,7152 7223,7152 7222,7152
 7218,7151 7213,7150 7209,7149 7208,7149 7206,7148 7203,7147 7199,7145 7194,7142
 7190,7139 7188,7137 7186,7135 7183,7131 7180,7127 7179,7125 7179,7124 7178,7122
 7176,7117 7174,7112 7174,7108 7173,7104 7173,7102 7173,7101 7174,7097 7175,7091
 7176,7087 7176,7086 7177,7084 7178,7081 7180,7077 7183,7072 7186,7068 7188,7066
 7190,7064 7194,7061 7198,7058 7200,7057 7201,7057 7203,7056 7208,7054 7213,7053
 7217,7052 7221,7052 7223,7052 7224,7052 7228,7053 7234,7053 7238,7054 7239,7054
 7241,7055 7244,7056 7248,7058 7253,7061 7257,7064 7259,7066 7261,7068 7264,7072
 7267,7076 7268,7078 7268,7079 7269,7081 7271,7086 7272,7092 7273,7096 7273,7099
 7273,7102"
	stroke="#000000" stroke-width="8px" stroke-linejoin="bevel"/>
<!-- Line -->
<!-- spline -->
<polyline points=" 7555,4471 7555,4472 7554,4476 7554,4482 7553,4486 7553,4487 7552,4489 7551,4493
 7549,4496 7546,4501 7543,4505 7541,4506 7541,4507 7539,4508 7535,4511 7531,4514
 7529,4515 7528,4516 7526,4517 7521,4519 7515,4520 7511,4521 7508,4521 7505,4521
 7504,4521 7500,4520 7494,4520 7490,4519 7489,4519 7487,4518 7484,4516 7480,4514
 7476,4511 7472,4508 7470,4507 7470,4506 7468,4505 7465,4501 7462,4497 7461,4495
 7461,4494 7460,4492 7458,4487 7456,4481 7456,4477 7455,4474 7455,4471 7455,4470
 7456,4466 7457,4460 7458,4456 7458,4455 7459,4453 7460,4450 7462,4446 7465,4442
 7468,4438 7470,4436 7472,4434 7476,4431 7480,4428 7482,4427 7484,4426 7489,4424
 7494,4422 7499,4422 7502,4421 7505,4421 7506,4421 7510,4422 7516,4423 7520,4424
 7521,4424 7523,4425 7526,4426 7530,4428 7535,4431 7539,4434 7541,4436 7543,4438
 7546,4442 7549,4446 7550,4448 7551,4450 7553,4455 7554,4460 7555,4465 7555,4468
 7555,4471"
	stroke="#000000" stroke-width="8px" stroke-linejoin="bevel"/>
<!-- Line -->
<!-- spline -->
<polyline points=" 7837,7102 7837,7103 7836,7107 7836,7112 7835,7116 7835,7117 7834,7119 7833,7122
 7831,7126 7828,7131 7825,7135 7823,7137 7821,7139 7817,7142 7813,7145 7811,7146
 7810,7146 7808,7147 7803,7149 7797,7151 7793,7151 7790,7152 7787,7152 7786,7152
 7782,7151 7776,7150 7772,7149 7771,7149 7769,7148 7766,7147 7762,7145 7758,7142
 7754,7139 7752,7137 7750,7135 7747,7131 7744,7127 7743,7125 7743,7124 7742,7122
 7740,7117 7738,7112 7738,7108 7737,7104 7737,7102 7737,7101 7738,7097 7739,7091
 7740,7087 7740,7086 7741,7084 7742,7081 7744,7077 7747,7072 7750,7068 7752,7066
 7754,7064 7758,7061 7762,7058 7764,7057 7766,7056 7771,7054 7776,7053 7781,7052
 7784,7052 7787,7052 7788,7052 7792,7053 7798,7053 7802,7054 7803,7054 7805,7055
 7808,7056 7812,7058 7817,7061 7821,7064 7823,7066 7825,7068 7828,7072 7831,7076
 7832,7078 7832,7079 7833,7081 7835,7086 7836,7092 7837,7096 7837,7099 7837,7102
"
	stroke="#000000" stroke-width="8px" stroke-linejoin="bevel"/>
<!-- Line -->
<!-- spline -->
<polyline points=" 8119,6521 8119,6522 8118,6526 8118,6532 8117,6536 8117,6537 8116,6539 8114,6543
 8112,6546 8109,6551 8106,6555 8105,6556 8104,6557 8103,6558 8099,6561 8095,6564
 8093,6565 8092,6566 8090,6567 8085,6569 8079,6570 8075,6571 8072,6571 8069,6571
 8068,6571 8064,6570 8058,6570 8054,6569 8053,6569 8051,6568 8048,6566 8044,6564
 8040,6561 8036,6558 8034,6557 8034,6556 8032,6555 8029,6551 8026,6547 8025,6545
 8025,6544 8024,6542 8022,6537 8020,6531 8020,6527 8019,6524 8019,6521 8019,6520
 8020,6516 8021,6510 8022,6506 8022,6505 8023,6503 8024,6500 8026,6496 8029,6492
 8032,6488 8034,6486 8036,6484 8040,6481 8044,6478 8046,6477 8048,6476 8053,6474
 8058,6472 8063,6472 8066,6471 8069,6471 8070,6471 8074,6472 8080,6473 8084,6474
 8085,6474 8087,6475 8091,6476 8094,6478 8099,6481 8103,6484 8104,6486 8105,6486
 8106,6488 8109,6492 8112,6496 8113,6498 8114,6498 8115,6500 8117,6505 8118,6510
 8119,6515 8119,6518 8119,6521"
	stroke="#000000" stroke-width="8px" stroke-linejoin="bevel"/>
<!-- Line -->
<!-- spline -->
<polyline points=" 8400,4711 8400,4712 8399,4716 8398,4722 8397,4726 8397,4727 8396,4729 8395,4732
 8393,4736 8390,4741 8387,4745 8385,4747 8383,4749 8379,4752 8375,4755 8373,4756
 8372,4756 8370,4757 8365,4759 8360,4760 8356,4761 8352,4761 8350,4761 8349,4761
 8345,4760 8339,4760 8335,4759 8334,4759 8332,4758 8329,4757 8325,4755 8320,4752
 8316,4749 8314,4747 8312,4745 8309,4741 8306,4737 8305,4735 8305,4734 8304,4732
 8302,4727 8301,4721 8300,4717 8300,4714 8300,4711 8300,4710 8301,4706 8301,4701
 8302,4697 8302,4696 8303,4694 8304,4691 8306,4687 8309,4682 8312,4678 8314,4676
 8316,4674 8320,4671 8324,4668 8326,4667 8327,4667 8329,4666 8334,4664 8340,4662
 8344,4662 8347,4661 8350,4661 8351,4661 8355,4662 8360,4663 8364,4664 8365,4664
 8367,4665 8370,4666 8374,4668 8379,4671 8383,4674 8385,4676 8387,4678 8390,4682
 8393,4686 8394,4688 8394,4689 8395,4691 8397,4696 8399,4701 8399,4705 8400,4709
 8400,4711"
	stroke="#000000" stroke-width="8px" stroke-linejoin="bevel"/>
<!-- Line -->
<!-- spline -->
<polyline points=" 8682,7342 8682,7343 8681,7347 8680,7353 8679,7357 8679,7358 8678,7360 8677,7363
 8675,7367 8672,7371 8669,7375 8667,7377 8665,7379 8661,7382 8657,7385 8655,7386
 8654,7386 8652,7387 8647,7389 8642,7391 8638,7391 8634,7392 8632,7392 8631,7392
 8627,7391 8621,7390 8617,7389 8616,7389 8614,7388 8611,7387 8607,7385 8602,7382
 8598,7379 8596,7377 8594,7375 8591,7371 8588,7367 8587,7365 8586,7363 8584,7358
 8583,7353 8582,7348 8582,7345 8582,7342 8582,7341 8583,7337 8583,7331 8584,7327
 8584,7326 8585,7324 8586,7320 8588,7317 8591,7312 8594,7308 8596,7307 8596,7306
 8598,7305 8602,7302 8606,7299 8608,7298 8609,7298 8611,7297 8616,7295 8622,7293
 8626,7293 8629,7292 8632,7292 8633,7292 8637,7293 8642,7294 8646,7295 8647,7295
 8649,7296 8652,7297 8656,7299 8661,7302 8665,7305 8667,7306 8667,7307 8669,7308
 8672,7312 8675,7316 8676,7318 8676,7319 8677,7321 8679,7326 8681,7332 8681,7336
 8682,7339 8682,7342"
	stroke="#000000" stroke-width="8px" stroke-linejoin="bevel"/>
<!-- Line -->
<!-- spline -->
<polyline points=" 8964,5942 8964,5943 8963,5947 8962,5953 8961,5957 8961,5958 8960,5960 8959,5963
 8957,5967 8954,5971 8951,5975 8949,5977 8947,5979 8943,5982 8939,5985 8937,5986
 8936,5986 8934,5987 8929,5989 8924,5991 8920,5991 8916,5992 8914,5992 8913,5992
 8909,5991 8903,5990 8899,5989 8898,5989 8896,5988 8893,5987 8889,5985 8884,5982
 8880,5979 8878,5977 8876,5975 8873,5971 8870,5967 8869,5965 8868,5963 8866,5958
 8865,5953 8864,5948 8864,5945 8864,5942 8864,5941 8865,5937 8865,5931 8866,5927
 8866,5926 8867,5924 8868,5920 8870,5917 8873,5912 8876,5908 8878,5907 8878,5906
 8880,5905 8884,5902 8888,5899 8890,5898 8891,5898 8893,5897 8898,5895 8904,5893
 8908,5893 8911,5892 8914,5892 8915,5892 8919,5893 8924,5894 8928,5895 8929,5895
 8931,5896 8934,5897 8938,5899 8943,5902 8947,5905 8949,5906 8949,5907 8951,5908
 8954,5912 8957,5916 8958,5918 8958,5919 8959,5921 8961,5926 8963,5932 8963,5936
 8964,5939 8964,5942"
	stroke="#000000" stroke-width="8px" stroke-linejoin="bevel"/>
<!-- Line -->
<!-- spline -->
<polyline points=" 9245,5291 9245,5292 9244,5296 9244,5301 9243,5305 9243,5306 9242,5308 9241,5311
 9239,5315 9236,5320 9233,5324 9231,5326 9229,5328 9225,5331 9221,5334 9219,5335
 9218,5335 9216,5336 9211,5338 9205,5340 9201,5340 9198,5341 9195,5341 9194,5341
 9190,5340 9185,5339 9181,5338 9180,5338 9178,5337 9175,5336 9171,5334 9166,5331
 9162,5328 9160,5326 9158,5324 9155,5320 9152,5316 9151,5314 9151,5313 9150,5311
 9148,5306 9146,5301 9146,5297 9145,5293 9145,5291 9145,5290 9146,5286 9147,5280
 9148,5276 9148,5275 9149,5273 9150,5270 9152,5266 9155,5261 9158,5257 9160,5255
 9162,5253 9166,5250 9170,5247 9172,5246 9173,5246 9175,5245 9180,5243 9185,5242
 9189,5241 9193,5241 9195,5241 9196,5241 9200,5242 9206,5242 9210,5243 9211,5243
 9213,5244 9216,5245 9220,5247 9225,5250 9229,5253 9231,5255 9233,5257 9236,5261
 9239,5265 9240,5267 9240,5268 9241,5270 9243,5275 9244,5281 9245,5285 9245,5288
 9245,5291"
	stroke="#000000" stroke-width="8px" stroke-linejoin="bevel"/>
<!-- Line -->
<!-- spline -->
<polyline points=" 9527,7102 9527,7103 9526,7107 9526,7112 9525,7116 9525,7117 9524,7119 9523,7122
 9521,7126 9518,7131 9515,7135 9513,7137 9511,7139 9507,7142 9503,7145 9501,7146
 9500,7146 9498,7147 9493,7149 9487,7151 9483,7151 9480,7152 9477,7152 9476,7152
 9472,7151 9467,7150 9463,7149 9462,7149 9460,7148 9457,7147 9453,7145 9448,7142
 9444,7139 9442,7137 9440,7135 9437,7131 9434,7127 9433,7125 9433,7124 9432,7122
 9430,7117 9428,7112 9428,7108 9427,7104 9427,7102 9427,7101 9428,7097 9429,7091
 9430,7087 9430,7086 9431,7084 9432,7081 9434,7077 9437,7072 9440,7068 9442,7066
 9444,7064 9448,7061 9452,7058 9454,7057 9455,7057 9457,7056 9462,7054 9467,7053
 9471,7052 9475,7052 9477,7052 9478,7052 9482,7053 9488,7053 9492,7054 9493,7054
 9495,7055 9498,7056 9502,7058 9507,7061 9511,7064 9513,7066 9515,7068 9518,7072
 9521,7076 9522,7078 9522,7079 9523,7081 9525,7086 9526,7092 9527,7096 9527,7099
 9527,7102"
	stroke="#000000" stroke-width="8px" stroke-linejoin="bevel"/>
<!-- Line -->
<!-- spline -->
<polyline points=" 9808,5702 9808,5703 9807,5707 9806,5712 9805,5716 9805,5717 9804,5719 9803,5722
 9801,5726 9798,5731 9795,5735 9794,5737 9793,5737 9792,5739 9788,5742 9784,5745
 9782,5746 9781,5746 9779,5747 9774,5749 9768,5751 9764,5751 9761,5752 9758,5752
 9757,5752 9753,5751 9747,5750 9743,5749 9742,5749 9740,5748 9736,5747 9733,5745
 9728,5742 9724,5739 9723,5737 9722,5737 9721,5735 9718,5731 9715,5727 9714,5725
 9714,5724 9713,5722 9711,5717 9709,5712 9709,5708 9708,5704 9708,5702 9708,5701
 9709,5697 9710,5691 9711,5687 9711,5686 9712,5684 9713,5681 9715,5677 9718,5672
 9721,5668 9722,5666 9723,5666 9724,5664 9728,5661 9732,5658 9734,5657 9735,5657
 9737,5656 9742,5654 9748,5653 9752,5652 9755,5652 9758,5652 9759,5652 9763,5653
 9769,5653 9773,5654 9774,5654 9776,5655 9780,5656 9783,5658 9788,5661 9792,5664
 9793,5666 9794,5666 9795,5668 9798,5672 9801,5676 9802,5678 9802,5679 9803,5681
 9805,5686 9807,5692 9807,5696 9808,5699 9808,5702"
	stroke="#000000" stroke-width="8px" stroke-linejoin="bevel"/>
<!-- Line -->
<!-- spline -->
<polyline points=" 10090,5871 10090,5872 10089,5876 10088,5882 10087,5886 10087,5887 10086,5889
 10085,5893 10083,5896 10080,5901 10077,5905 10075,5906 10075,5907 10073,5908
 10069,5911 10065,5914 10063,5915 10063,5916 10061,5917 10056,5919 10051,5920
 10046,5921 10043,5921 10040,5921 10039,5921 10035,5920 10029,5920 10025,5919
 10024,5919 10022,5918 10018,5916 10015,5914 10010,5911 10006,5908 10005,5907
 10004,5906 10003,5905 10000,5901 9997,5897 9996,5895 9996,5894 9995,5892 9993,5887
 9991,5881 9991,5877 9990,5874 9990,5871 9990,5870 9991,5866 9992,5860 9993,5856
 9993,5855 9994,5853 9995,5850 9997,5846 10000,5842 10003,5838 10004,5836 10005,5836
 10006,5834 10010,5831 10014,5828 10016,5827 10017,5827 10019,5826 10024,5824
 10030,5822 10034,5822 10037,5821 10040,5821 10041,5821 10045,5822 10051,5823
 10055,5824 10056,5824 10058,5825 10061,5826 10065,5828 10069,5831 10073,5834
 10075,5836 10077,5838 10080,5842 10083,5846 10084,5848 10085,5850 10087,5855
 10089,5860 10089,5865 10090,5868 10090,5871"
	stroke="#000000" stroke-width="8px" stroke-linejoin="bevel"/>
<!-- Line -->
<!-- spline -->
<polyline points=" 10372,6521 10372,6522 10371,6526 10370,6532 10369,6536 10369,6537 10368,6539
 10367,6543 10365,6546 10362,6551 10359,6555 10357,6556 10357,6557 10355,6558
 10351,6561 10347,6564 10345,6565 10345,6566 10343,6567 10338,6569 10333,6570
 10328,6571 10325,6571 10322,6571 10321,6571 10317,6570 10311,6570 10307,6569
 10306,6569 10304,6568 10300,6566 10297,6564 10292,6561 10288,6558 10287,6557
 10286,6556 10285,6555 10282,6551 10279,6547 10278,6545 10277,6544 10276,6542
 10274,6537 10273,6531 10272,6527 10272,6524 10272,6521 10272,6520 10273,6516
 10273,6510 10274,6506 10274,6505 10275,6503 10277,6500 10279,6496 10282,6492
 10285,6488 10286,6486 10287,6486 10288,6484 10292,6481 10296,6478 10298,6477
 10299,6477 10301,6476 10306,6474 10312,6472 10316,6472 10319,6471 10322,6471
 10323,6471 10327,6472 10333,6473 10337,6474 10338,6474 10340,6475 10343,6476
 10347,6478 10351,6481 10355,6484 10357,6486 10359,6488 10362,6492 10365,6496
 10366,6498 10367,6500 10369,6505 10371,6510 10371,6515 10372,6518 10372,6521
"
	stroke="#000000" stroke-width="8px" stroke-linejoin="bevel"/>
<!-- Line -->
<!-- spline -->
<polyline points=" 10654,5942 10654,5943 10653,5947 10652,5953 10651,5957 10651,5958 10650,5960
 10649,5963 10647,5967 10644,5971 10641,5975 10639,5977 10637,5979 10633,5982
 10629,5985 10627,5986 10625,5987 10620,5989 10615,5991 10610,5991 10607,5992
 10604,5992 10603,5992 10599,5991 10593,5990 10589,5989 10588,5989 10586,5988
 10583,5987 10579,5985 10574,5982 10570,5979 10568,5977 10566,5975 10563,5971
 10560,5967 10559,5965 10558,5963 10556,5958 10555,5953 10554,5948 10554,5945
 10554,5942 10554,5941 10555,5937 10555,5931 10556,5927 10556,5926 10557,5924
 10558,5920 10560,5917 10563,5912 10566,5908 10568,5907 10568,5906 10570,5905
 10574,5902 10578,5899 10580,5898 10581,5898 10583,5897 10588,5895 10594,5893
 10598,5893 10601,5892 10604,5892 10605,5892 10609,5893 10615,5894 10619,5895
 10620,5895 10622,5896 10625,5897 10629,5899 10633,5902 10637,5905 10639,5906
 10639,5907 10641,5908 10644,5912 10647,5916 10648,5918 10648,5919 10649,5921
 10651,5926 10653,5932 10653,5936 10654,5939 10654,5942"
	stroke="#000000" stroke-width="8px" stroke-linejoin="bevel"/>
<!-- Line -->
<!-- spline -->
<polyline points=" 10934,6111 10934,6112 10933,6116 10933,6122 10932,6126 10932,6127 10931,6129
 10930,6132 10928,6136 10925,6141 10922,6145 10920,6147 10918,6149 10914,6152
 10910,6155 10908,6156 10907,6156 10905,6157 10900,6159 10894,6160 10890,6161
 10887,6161 10884,6161 10883,6161 10879,6160 10874,6160 10870,6159 10869,6159
 10867,6158 10864,6157 10860,6155 10855,6152 10851,6149 10849,6147 10847,6145
 10844,6141 10841,6137 10840,6135 10840,6134 10839,6132 10837,6127 10835,6121
 10835,6117 10834,6114 10834,6111 10834,6110 10835,6106 10836,6101 10837,6097
 10837,6096 10838,6094 10839,6091 10841,6087 10844,6082 10847,6078 10849,6076
 10851,6074 10855,6071 10859,6068 10861,6067 10862,6067 10864,6066 10869,6064
 10874,6062 10878,6062 10882,6061 10884,6061 10885,6061 10889,6062 10895,6063
 10899,6064 10900,6064 10902,6065 10905,6066 10909,6068 10914,6071 10918,6074
 10920,6076 10922,6078 10925,6082 10928,6086 10929,6088 10929,6089 10930,6091
 10932,6096 10933,6101 10934,6105 10934,6109 10934,6111"
	stroke="#000000" stroke-width="8px" stroke-linejoin="bevel"/>
<!-- Line -->
<!-- spline -->
<polyline points=" 11216,5942 11216,5943 11215,5947 11215,5953 11214,5957 11214,5958 11213,5960
 11212,5963 11210,5967 11207,5971 11204,5975 11202,5977 11200,5979 11196,5982
 11192,5985 11190,5986 11189,5986 11187,5987 11182,5989 11176,5991 11172,5991
 11169,5992 11166,5992 11165,5992 11161,5991 11156,5990 11152,5989 11151,5989
 11149,5988 11146,5987 11142,5985 11137,5982 11133,5979 11131,5977 11129,5975
 11126,5971 11123,5967 11122,5965 11121,5963 11119,5958 11117,5953 11117,5948
 11116,5945 11116,5942 11116,5941 11117,5937 11118,5931 11119,5927 11119,5926
 11120,5924 11121,5920 11123,5917 11126,5912 11129,5908 11131,5907 11131,5906
 11133,5905 11137,5902 11141,5899 11143,5898 11144,5898 11146,5897 11151,5895
 11156,5893 11160,5893 11164,5892 11166,5892 11167,5892 11171,5893 11177,5894
 11181,5895 11182,5895 11184,5896 11187,5897 11191,5899 11196,5902 11200,5905
 11202,5906 11202,5907 11204,5908 11207,5912 11210,5916 11211,5918 11211,5919
 11212,5921 11214,5926 11215,5932 11216,5936 11216,5939 11216,5942"
	stroke="#000000" stroke-width="8px" stroke-linejoin="bevel"/>
<!-- Line -->
<!-- spline -->
<polyline points=" 11498,6521 11498,6522 11497,6526 11497,6532 11496,6536 11496,6537 11495,6539
 11494,6543 11492,6546 11489,6551 11486,6555 11484,6556 11484,6557 11482,6558
 11478,6561 11474,6564 11472,6565 11471,6566 11469,6567 11464,6569 11458,6570
 11454,6571 11451,6571 11448,6571 11447,6571 11443,6570 11438,6570 11434,6569
 11433,6569 11431,6568 11428,6566 11424,6564 11419,6561 11415,6558 11413,6557
 11413,6556 11411,6555 11408,6551 11405,6547 11404,6545 11404,6544 11403,6542
 11401,6537 11399,6531 11399,6527 11398,6524 11398,6521 11398,6520 11399,6516
 11400,6510 11401,6506 11401,6505 11402,6503 11403,6500 11405,6496 11408,6492
 11411,6488 11413,6486 11415,6484 11419,6481 11423,6478 11425,6477 11426,6477
 11428,6476 11433,6474 11438,6472 11442,6472 11446,6471 11448,6471 11449,6471
 11453,6472 11459,6473 11463,6474 11464,6474 11466,6475 11469,6476 11473,6478
 11478,6481 11482,6484 11484,6486 11486,6488 11489,6492 11492,6496 11493,6498
 11494,6500 11496,6505 11497,6510 11498,6515 11498,6518 11498,6521"
	stroke="#000000" stroke-width="8px" stroke-linejoin="bevel"/>
<!-- Line -->
<!-- spline -->
<polyline points=" 11780,5871 11780,5872 11779,5876 11779,5882 11778,5886 11778,5887 11777,5889
 11776,5893 11774,5896 11771,5901 11768,5905 11766,5906 11766,5907 11764,5908
 11760,5911 11756,5914 11754,5915 11753,5916 11751,5917 11746,5919 11740,5920
 11736,5921 11733,5921 11730,5921 11729,5921 11725,5920 11719,5920 11715,5919
 11714,5919 11712,5918 11709,5916 11705,5914 11701,5911 11697,5908 11695,5907
 11695,5906 11693,5905 11690,5901 11687,5897 11686,5895 11686,5894 11685,5892
 11683,5887 11681,5881 11681,5877 11680,5874 11680,5871 11680,5870 11681,5866
 11682,5860 11683,5856 11683,5855 11684,5853 11685,5850 11687,5846 11690,5842
 11693,5838 11695,5836 11697,5834 11701,5831 11705,5828 11707,5827 11709,5826
 11714,5824 11719,5822 11724,5822 11727,5821 11730,5821 11731,5821 11735,5822
 11741,5823 11745,5824 11746,5824 11748,5825 11751,5826 11755,5828 11760,5831
 11764,5834 11766,5836 11768,5838 11771,5842 11774,5846 11775,5848 11776,5850
 11778,5855 11779,5860 11780,5865 11780,5868 11780,5871"
	stroke="#000000" stroke-width="8px" stroke-linejoin="bevel"/>
<!-- Line -->
<!-- spline -->
<polyline points=" 12062,5702 12062,5703 12061,5707 12061,5712 12060,5716 12060,5717 12059,5719
 12058,5722 12056,5726 12053,5731 12050,5735 12048,5737 12046,5739 12042,5742
 12038,5745 12036,5746 12035,5746 12033,5747 12028,5749 12022,5751 12018,5751
 12015,5752 12012,5752 12011,5752 12007,5751 12001,5750 11997,5749 11996,5749
 11994,5748 11991,5747 11987,5745 11983,5742 11979,5739 11977,5737 11975,5735
 11972,5731 11969,5727 11968,5725 11968,5724 11967,5722 11965,5717 11963,5712
 11963,5708 11962,5704 11962,5702 11962,5701 11963,5697 11964,5691 11965,5687
 11965,5686 11966,5684 11967,5681 11969,5677 11972,5672 11975,5668 11977,5666
 11979,5664 11983,5661 11987,5658 11989,5657 11991,5656 11996,5654 12001,5653
 12006,5652 12009,5652 12012,5652 12013,5652 12017,5653 12023,5653 12027,5654
 12028,5654 12030,5655 12033,5656 12037,5658 12042,5661 12046,5664 12048,5666
 12050,5668 12053,5672 12056,5676 12057,5678 12057,5679 12058,5681 12060,5686
 12061,5692 12062,5696 12062,5699 12062,5702"
	stroke="#000000" stroke-width="8px" stroke-linejoin="bevel"/>
<!-- Line -->
<!-- polyline -->
<polyline points=" 748,6111 748,4471"
	stroke="#000000" stroke-width="15px" stroke-linejoin="round"/>
<!-- Line -->
<!-- polyline -->
<polyline points=" 1028,6111 1028,7102"
	stroke="#000000" stroke-width="15px" stroke-linejoin="round"/>
<!-- Line -->
<!-- polyline -->
<polyline points=" 1309,6111 1309,6521"
	stroke="#000000" stroke-width="15px" stroke-linejoin="round"/>
<!-- Line -->
<!-- polyline -->
<polyline points=" 1591,6111 1591,4711"
	stroke="#000000" stroke-width="15px" stroke-linejoin="round"/>
<!-- Line -->
<!-- polyline -->
<polyline points=" 1873,6111 1873,7342"
	stroke="#000000" stroke-width="15px" stroke-linejoin="round"/>
<!-- Line -->
<!-- polyline -->
<polyline points=" 2154,6111 2154,5942"
	stroke="#000000" stroke-width="15px" stroke-linejoin="round"/>
<!-- Line -->
<!-- polyline -->
<polyline points=" 2436,6111 2436,5291"
	stroke="#000000" stroke-width="15px" stroke-linejoin="round"/>
<!-- Line -->
<!-- polyline -->
<polyline points=" 2718,6111 2718,7102"
	stroke="#000000" stroke-width="15px" stroke-linejoin="round"/>
<!-- Line -->
<!-- polyline -->
<polyline points=" 3000,6111 3000,5702"
	stroke="#000000" stroke-width="15px" stroke-linejoin="round"/>
<!-- Line -->
<!-- polyline -->
<polyline points=" 3280,6111 3280,5871"
	stroke="#000000" stroke-width="15px" stroke-linejoin="round"/>
<!-- Line -->
<!-- polyline -->
<polyline points=" 3562,6111 3562,6521"
	stroke="#000000" stroke-width="15px" stroke-linejoin="round"/>
<!-- Line -->
<!-- polyline -->
<polyline points=" 3844,6111 3844,5942"
	stroke="#000000" stroke-width="15px" stroke-linejoin="round"/>
<!-- Line -->
<!-- spline -->
<polyline points=" 4143,6111 4143,6113 4142,6115 4142,6117 4142,6118 4141,6118 4140,6120 4139,6121
 4138,6122 4138,6123 4137,6124 4136,6125 4135,6126 4134,6126 4133,6126 4131,6127
 4129,6127 4128,6128 4127,6128 4126,6128 4124,6128 4123,6127 4121,6127 4120,6127
 4119,6127 4118,6126 4116,6125 4115,6124 4114,6123 4114,6122 4113,6121 4112,6120
 4111,6119 4110,6117 4109,6115 4109,6113 4109,6112 4109,6111 4109,6109 4110,6108
 4110,6106 4110,6105 4111,6105 4112,6103 4113,6102 4114,6101 4114,6100 4115,6099
 4116,6098 4117,6097 4118,6097 4119,6097 4121,6096 4123,6096 4124,6095 4125,6095
 4126,6095 4128,6095 4129,6096 4131,6096 4132,6096 4133,6096 4134,6097 4136,6098
 4137,6099 4138,6100 4138,6101 4139,6102 4140,6103 4141,6104 4141,6105 4142,6106
 4143,6108 4143,6109 4143,6110 4143,6111" fill="#000000"
	stroke="#000000" stroke-width="8px" stroke-linejoin="bevel"/>
<!-- Line -->
<!-- polyline -->
<polyline points=" 4408,6111 4408,5942"
	stroke="#000000" stroke-width="15px" stroke-linejoin="round"/>
<!-- Line -->
<!-- polyline -->
<polyline points=" 4689,6111 4689,6521"
	stroke="#000000" stroke-width="15px" stroke-linejoin="round"/>
<!-- Line -->
<!-- polyline -->
<polyline points=" 4970,6111 4970,5871"
	stroke="#000000" stroke-width="15px" stroke-linejoin="round"/>
<!-- Line -->
<!-- polyline -->
<polyline points=" 5252,6111 5252,5702"
	stroke="#000000" stroke-width="15px" stroke-linejoin="round"/>
<!-- Line -->
<!-- polyline -->
<polyline points=" 5534,6111 5534,7102"
	stroke="#000000" stroke-width="15px" stroke-linejoin="round"/>
<!-- Line -->
<!-- polyline -->
<polyline points=" 5815,6111 5815,5291"
	stroke="#000000" stroke-width="15px" stroke-linejoin="round"/>
<!-- Line -->
<!-- polyline -->
<polyline points=" 6097,6111 6097,5942"
	stroke="#000000" stroke-width="15px" stroke-linejoin="round"/>
<!-- Line -->
<!-- polyline -->
<polyline points=" 6379,6111 6379,7342"
	stroke="#000000" stroke-width="15px" stroke-linejoin="round"/>
<!-- Line -->
<!-- polyline -->
<polyline points=" 6661,6111 6661,4711"
	stroke="#000000" stroke-width="15px" stroke-linejoin="round"/>
<!-- Line -->
<!-- polyline -->
<polyline points=" 6943,6111 6943,6521"
	stroke="#000000" stroke-width="15px" stroke-linejoin="round"/>
<!-- Line -->
<!-- polyline -->
<defs>
<clipPath id="cp1">
	<path clip-rule="evenodd" d="M 513,3594 H 12634 V 8178 H 513 z
		M 12452,6087 12482,6117 12452,6147 12629,6124 12629,6110z"/>
</clipPath>
</defs>
<polyline points=" 525,6117 12622,6117" clip-path="url(#cp1)"
	stroke="#000000" stroke-width="8px" stroke-linejoin="round"/>
<!-- Forward arrow to point 12622,6117 -->
<polygon points=" 12452,6147 12602,6117 12452,6087 12482,6117 12452,6147"
	stroke="#000000" stroke-width="8px" stroke-miterlimit="8" fill="#000000"/>
<!-- Line -->
<!-- polyline -->
<polyline points=" 7223,6111 7223,7102"
	stroke="#000000" stroke-width="15px" stroke-linejoin="round"/>
<!-- Line -->
<!-- polyline -->
<polyline points=" 7505,6111 7505,4471"
	stroke="#000000" stroke-width="15px" stroke-linejoin="round"/>
<!-- Line -->
<!-- polyline -->
<polyline points=" 7787,6111 7787,7102"
	stroke="#000000" stroke-width="15px" stroke-linejoin="round"/>
<!-- Line -->
<!-- polyline -->
<polyline points=" 8069,6111 8069,6521"
	stroke="#000000" stroke-width="15px" stroke-linejoin="round"/>
<!-- Line -->
<!-- polyline -->
<polyline points=" 8350,6111 8350,4711"
	stroke="#000000" stroke-width="15px" stroke-linejoin="round"/>
<!-- Line -->
<!-- polyline -->
<polyline points=" 8632,6111 8632,7342"
	stroke="#000000" stroke-width="15px" stroke-linejoin="round"/>
<!-- Line -->
<!-- polyline -->
<polyline points=" 8914,6111 8914,5942"
	stroke="#000000" stroke-width="15px" stroke-linejoin="round"/>
<!-- Line -->
<!-- polyline -->
<polyline points=" 9195,6111 9195,5291"
	stroke="#000000" stroke-width="15px" stroke-linejoin="round"/>
<!-- Line -->
<!-- polyline -->
<polyline points=" 9477,6111 9477,7102"
	stroke="#000000" stroke-width="15px" stroke-linejoin="round"/>
<!-- Line -->
<!-- polyline -->
<polyline points=" 9758,6111 9758,5702"
	stroke="#000000" stroke-width="15px" stroke-linejoin="round"/>
<!-- Line -->
<!-- polyline -->
<polyline points=" 10040,6111 10040,5871"
	stroke="#000000" stroke-width="15px" stroke-linejoin="round"/>
<!-- Line -->
<!-- polyline -->
<polyline points=" 10322,6111 10322,6521"
	stroke="#000000" stroke-width="15px" stroke-linejoin="round"/>
<!-- Line -->
<!-- polyline -->
<polyline points=" 10604,6111 10604,5942"
	stroke="#000000" stroke-width="15px" stroke-linejoin="round"/>
<!-- Line -->
<!-- spline -->
<polyline points=" 10901,6111 10901,6113 10900,6115 10900,6117 10900,6118 10899,6120 10898,6121
 10897,6122 10896,6123 10895,6124 10894,6125 10893,6126 10892,6126 10890,6127
 10888,6127 10886,6128 10885,6128 10884,6128 10882,6128 10881,6127 10879,6127
 10878,6127 10876,6126 10875,6125 10874,6124 10873,6123 10872,6122 10871,6121
 10870,6120 10870,6119 10869,6117 10869,6115 10868,6113 10868,6112 10868,6111
 10868,6109 10869,6108 10869,6106 10869,6105 10870,6103 10871,6102 10872,6101
 10873,6100 10874,6099 10875,6098 10876,6097 10877,6097 10878,6097 10879,6096
 10881,6096 10882,6095 10883,6095 10884,6095 10886,6095 10888,6096 10890,6096
 10891,6096 10893,6097 10894,6098 10895,6099 10896,6100 10897,6101 10898,6102
 10899,6103 10899,6104 10899,6105 10900,6106 10900,6108 10901,6109 10901,6110
 10901,6111" fill="#000000"
	stroke="#000000" stroke-width="8px" stroke-linejoin="bevel"/>
<!-- Line -->
<!-- polyline -->
<polyline points=" 11166,6111 11166,5942"
	stroke="#000000" stroke-width="15px" stroke-linejoin="round"/>
<!-- Line -->
<!-- polyline -->
<polyline points=" 11448,6111 11448,6521"
	stroke="#000000" stroke-width="15px" stroke-linejoin="round"/>
<!-- Line -->
<!-- polyline -->
<polyline points=" 11730,6111 11730,5871"
	stroke="#000000" stroke-width="15px" stroke-linejoin="round"/>
<!-- Line -->
<!-- polyline -->
<polyline points=" 12012,6111 12012,5702"
	stroke="#000000" stroke-width="15px" stroke-linejoin="round"/>
<!-- Line -->
<!-- polyline -->
<polyline points=" 3591,6468 3619,6403 3647,6328 3675,6250 3704,6174 3732,6103 3759,6043 3787,5995
 3816,5961 3844,5942 3872,5936 3901,5943 3929,5961 3957,5986 3984,6016 4014,6045
 4041,6071 4069,6093 4098,6107 4126,6111 4154,6107 4182,6093 4211,6071 4239,6045
 4266,6016 4294,5986 4323,5961 4351,5943 4379,5936 4408,5942 4436,5961 4464,5995
 4491,6043 4520,6103 4548,6174 4576,6250 4605,6328 4633,6403 4661,6468 4689,6521
 4718,6556 4745,6570 4773,6559 4801,6521 4830,6459 4858,6373 4886,6266 4915,6142
 4943,6009 4970,5871 4998,5738 5027,5616 5055,5511 5083,5434 5112,5388 5140,5375
 5168,5402 5195,5466 5225,5567 5252,5702 5280,5863 5308,6045 5337,6236 5365,6432
 5393,6618 5422,6785 5450,6925 5477,7028 5505,7089 5534,7102 5562,7064 5590,6978
 5619,6843 5647,6668 5675,6459 5702,6227 5732,5981 5759,5735 5787,5500 5815,5291
 5844,5117 5872,4989 5900,4914 5929,4899 5957,4943 5984,5048 6012,5207 6041,5417
 6069,5666 6097,5942 6126,6232 6154,6521 6182,6796 6209,7042 6239,7246 6266,7396
 6294,7485 6322,7506 6351,7459 6379,7342 6407,7163 6436,6928 6464,6649 6491,6341
 6519,6016 6548,5691 6576,5384 6604,5109 6632,4879 6661,4711 6689,4609 6716,4581
 6745,4629 6773,4752 6801,4943 6829,5195 6858,5493 6886,5825 6914,6174 6943,6521
 6970,6852 6998,7148 7026,7393 7055,7578 7083,7691 7111,7724 7139,7679 7168,7556
 7195,7360 7223,7102 7252,6793 7280,6450 7308,6091 7336,5729 7365,5388 7393,5079
 7420,4824 7450,4631 7477,4511 7505,4471 7533,4511 7562,4631 7590,4824 7618,5079
 7645,5388 7675,5729 7702,6091 7730,6450 7759,6793 7787,7102 7815,7360 7843,7556
 7872,7679 7900,7724 7927,7691 7957,7578 7984,7393 8012,7148 8040,6852 8069,6521
 8097,6174 8125,5825 8152,5493 8182,5195 8209,4943 8237,4752 8266,4629 8294,4581
 8322,4609 8350,4711 8379,4879 8407,5109 8434,5384 8464,5691 8491,6016 8519,6341
 8547,6649 8576,6928 8604,7163 8632,7342 8659,7459 8689,7506 8716,7485 8744,7396
 8773,7246 8801,7042 8829,6796 8857,6521 8886,6232 8914,5942 8941,5666 8970,5417
 8998,5207 9026,5048 9054,4943 9083,4899 9111,4914 9139,4989 9166,5117 9195,5291
 9223,5500 9251,5735 9280,5981 9308,6227 9336,6459 9364,6668 9393,6843 9420,6978
 9448,7064 9477,7102 9505,7089 9533,7028 9561,6925 9590,6785 9618,6618 9645,6432
 9673,6236 9702,6045 9730,5863 9758,5702 9787,5567 9815,5466 9843,5402 9870,5375
 9900,5388 9927,5434 9955,5511 9984,5616 10012,5738 10040,5871 10068,6009 10097,6142
 10125,6266 10152,6373 10180,6459 10209,6521 10237,6559 10265,6570 10294,6556
 10322,6521 10350,6468 10377,6403 10407,6328 10434,6250 10462,6174 10491,6103
 10519,6043 10547,5995 10575,5961 10604,5942 10632,5936 10659,5943 10687,5961
 10716,5986 10744,6016 10772,6045 10801,6071 10829,6093 10857,6107 10884,6111
 10914,6107 10941,6093 10969,6071 10998,6045 11026,6016 11054,5986 11082,5961
 11111,5943 11139,5936 11166,5942 11194,5961 11223,5995 11251,6043 11279,6103
 11308,6174 11336,6250 11364,6328 11391,6403 11420,6468 11448,6521 11476,6556
 11505,6570 11533,6559 11561,6521 11589,6459 11618,6373 11645,6266 11673,6142
 11701,6009 11730,5871 11758,5738 11786,5616 11815,5511 11843,5434 11870,5388
 11898,5375 11927,5402 11955,5466 11983,5567 12012,5702"
	stroke="#000000" stroke-width="8px" stroke-linejoin="round" stroke-dasharray="40 40"/>
<!-- Line -->
<!-- polyline -->
<polyline points=" 748,4471 776,4511 803,4631 831,4824 860,5079 888,5388 916,5729 944,6091 973,6450
 1001,6793 1028,7102 1058,7360 1085,7556 1113,7679 1141,7724 1169,7691 1197,7578
 1225,7393 1252,7148 1282,6852 1309,6521 1337,6174 1366,5825 1394,5493 1422,5195
 1450,4943 1479,4752 1507,4629 1534,4581 1564,4609 1591,4711 1619,4879 1647,5109
 1676,5384 1704,5691 1732,6016 1759,6341 1789,6649 1816,6928 1844,7163 1873,7342
 1901,7459 1929,7506 1957,7485 1986,7396 2014,7246 2041,7042 2070,6796 2098,6521
 2126,6232 2154,5942 2183,5666 2211,5417 2239,5207 2266,5048 2295,4943 2323,4899
 2351,4914 2380,4989 2408,5117 2436,5291 2464,5500 2493,5735 2520,5981 2548,6227
 2577,6459 2605,6668 2633,6843 2661,6978 2690,7064 2718,7102 2745,7089 2773,7028
 2802,6925 2830,6785 2858,6618 2887,6432 2915,6236 2943,6045 2970,5863 3000,5702
 3027,5567 3055,5466 3084,5402 3112,5375 3140,5388 3168,5434 3197,5511 3225,5616
 3252,5738 3280,5871 3309,6009 3337,6142 3365,6266 3394,6373 3422,6459 3450,6521
 3477,6559 3507,6570 3534,6556 3562,6521 3591,6468"
	stroke="#000000" stroke-width="8px" stroke-linejoin="round" stroke-dasharray="40 40"/>
<!-- Line -->
<polyline points=" 689,7788 810,7788"
	stroke="#000000" stroke-width="8px"/>
<!-- Line -->
<defs>
<clipPath id="cp2">
	<path clip-rule="evenodd" d="M 513,3594 H 12634 V 8178 H 513 z
		M 7468,6333 7492,6316 7512,6337 7507,6219 7494,6218z"/>
</clipPath>
</defs>
<polyline points=" 7350,7875 7500,6225" clip-path="url(#cp2)"
	stroke="#000000" stroke-width="8px"/>
<!-- Forward arrow to point 7500,6225 -->
<polygon points=" 7512,6337 7498,6242 7468,6333 7492,6316 7512,6337"
	stroke="#000000" stroke-width="8px" stroke-miterlimit="8" fill="#000000"/>
<!-- Text -->
<text xml:space="preserve" x="12474" y="6000" fill="#000000" font-family="Times" font-style="italic" font-weight="normal" font-size="216" text-anchor="start">n</text>
<!-- Text -->
<text xml:space="preserve" x="900" y="3825" fill="#000000" font-family="Times" font-style="italic" font-weight="normal" font-size="216" text-anchor="start">x<tspan font-size="144" baseline-shift="sub">4</tspan>[n]</text>
</g>
</svg>
