<?xml version="1.0" encoding="UTF-8" standalone="no"?>
<!-- Creator: fig2dev Version 3.2.8b -->
<!-- CreationDate: 2025-10-30 19:43:16 -->
<!-- Magnification: 1 -->
<svg	xmlns="http://www.w3.org/2000/svg"
	xmlns:xlink="http://www.w3.org/1999/xlink"
	width="645pt" height="483pt"
	viewBox="-87 1869 10749 8043">
<g fill="none">
<!-- Line -->
<!-- polyline -->
<polyline points=" 169,4292 169,2344 10225,2344 10225,4292 169,4292"
	stroke="#ffffff" stroke-width="8px" stroke-linejoin="round"/>
<!-- Line -->
<!-- polyline -->
<defs>
<clipPath id="cp0">
	<path clip-rule="evenodd" d="M -87,1869 H 10662 V 9912 H -87 z
		M 5167,2120 5197,2090 5227,2120 5204,1943 5190,1943z"/>
</clipPath>
</defs>
<polyline points=" 5197,1950 5197,4500" clip-path="url(#cp0)"
	stroke="#000000" stroke-width="8px" stroke-linejoin="round"/>
<!-- Backward arrow to point 5197,1950 -->
<polygon points=" 5227,2120 5197,1970 5167,2120 5197,2090 5227,2120"
	stroke="#000000" stroke-width="8px" stroke-miterlimit="8" fill="#000000"/>
<!-- Line -->
<!-- polyline -->
<defs>
<clipPath id="cp1">
	<path clip-rule="evenodd" d="M -87,1869 H 10662 V 9912 H -87 z
		M 10480,3288 10510,3318 10480,3348 10657,3325 10657,3311z
		M 5167,2120 5197,2090 5227,2120 5204,1943 5190,1943z"/>
</clipPath>
</defs>
<polyline points=" -75,3318 10650,3318" clip-path="url(#cp1)"
	stroke="#000000" stroke-width="8px" stroke-linejoin="round"/>
<!-- Forward arrow to point 10650,3318 -->
<polygon points=" 10480,3348 10630,3318 10480,3288 10510,3318 10480,3348"
	stroke="#000000" stroke-width="8px" stroke-miterlimit="8" fill="#000000"/>
<!-- Line -->
<!-- polyline -->
<polyline points=" 2689,3299 2714,3222 2739,3146 2764,3071 2790,2997 2815,2926 2840,2857 2865,2792
 2890,2729 2915,2669 2940,2614 2967,2564 2992,2517 3017,2476 3042,2440 3067,2410
 3092,2385 3118,2365 3143,2353 3168,2346 3193,2344 3218,2349 3243,2360 3268,2376
 3294,2399 3319,2428 3344,2461 3369,2500 3394,2544 3419,2593 3444,2647 3471,2704
 3496,2765 3521,2831 3546,2899 3571,2969 3596,3042 3621,3115 3647,3192 3672,3268
 3697,3344 3722,3421 3747,3496 3772,3571 3797,3644 3824,3715 3849,3785 3874,3850
 3899,3913 3924,3971 3949,4026 3974,4076 4000,4122 4025,4163 4050,4197 4075,4228
 4100,4253 4125,4271 4150,4283 4176,4290 4201,4290 4226,4285 4251,4274 4276,4257
 4301,4233 4326,4204 4353,4169 4378,4131 4403,4086 4428,4036 4453,3982 4478,3925
 4504,3863 4529,3797 4554,3729 4579,3658 4604,3586 4629,3511 4654,3436 4681,3360
 4706,3283 4731,3207 4756,3131 4781,3056 4806,2983 4831,2913 4857,2844 4882,2778
 4907,2717 4932,2658 4957,2604 4982,2554 5007,2508 5033,2468 5058,2433 5083,2404
 5108,2381 5133,2363 5158,2350 5183,2344 5210,2344 5235,2350 5260,2363 5285,2381
 5310,2404 5335,2433 5360,2468 5386,2508 5411,2554 5436,2604 5461,2658 5486,2717
 5511,2778 5536,2844 5562,2913 5587,2983 5612,3056 5637,3131 5662,3207 5687,3283
 5712,3360 5739,3436 5764,3511 5789,3586 5814,3658 5839,3729 5864,3797 5889,3863
 5915,3925 5940,3982 5965,4036 5990,4086 6015,4131 6040,4169 6067,4204 6092,4233
 6117,4257 6142,4274 6167,4285 6192,4290 6217,4290 6243,4283 6268,4271 6293,4253
 6318,4228 6343,4197 6368,4163 6393,4122 6419,4076 6444,4026 6469,3971 6494,3913
 6519,3850 6544,3785 6569,3715 6596,3644 6621,3571 6646,3496 6671,3421 6696,3344
 6721,3268 6746,3192 6772,3115 6797,3042 6822,2969 6847,2899 6872,2831 6897,2765
 6922,2704 6949,2647 6974,2593 6999,2544 7024,2500 7049,2461 7074,2428 7099,2399
 7125,2376 7150,2360 7175,2349 7200,2344 7225,2346 7250,2353 7275,2365 7301,2385
 7326,2410 7351,2440 7376,2476 7401,2517 7426,2564 7453,2614 7478,2669 7503,2729
 7528,2792 7553,2857 7578,2926 7603,2997 7629,3071 7654,3146 7679,3222 7704,3299
 7729,3375 7754,3451 7779,3526 7806,3600 7831,3674 7856,3743 7881,3811 7906,3875
 7931,3936 7956,3993 7982,4046 8007,4094 8032,4139 8057,4178 8082,4211 8107,4239
 8132,4260 8158,4276 8183,4286 8208,4290 8233,4289 8258,4281 8283,4268 8308,4247
 8335,4222 8360,4192 8385,4154 8410,4113 8435,4067 8460,4015 8485,3960 8511,3900
 8536,3838 8561,3771 8586,3701 8611,3631 8636,3557 8661,3482 8687,3406 8712,3329
 8737,3253 8762,3176 8787,3101 8812,3026 8839,2954 8864,2885 8889,2817 8914,2753
 8939,2693 8964,2636 8989,2583 9015,2535 9040,2492 9065,2454 9090,2421 9115,2394
 9140,2372 9165,2357 9192,2347 9217,2344 9242,2346 9267,2354 9292,2369 9317,2389
 9342,2415 9368,2447 9393,2483 9418,2526 9443,2574 9468,2625 9493,2681 9518,2740
 9544,2804 9569,2871 9594,2940 9619,3013 9644,3086 9669,3161 9694,3238 9721,3314
 9746,3390 9771,3467 9796,3542 9821,3615 9846,3688 9871,3757 9897,3824 9922,3888
 9947,3949 9972,4004 9997,4057 10022,4104 10047,4147 10074,4185 10099,4217 10124,4243
 10149,4264 10174,4279 10199,4288 10225,4292"
	stroke="#000000" stroke-width="30px" stroke-linejoin="round"/>
<!-- Line -->
<!-- polyline -->
<polyline points=" 169,4292 194,4288 219,4279 244,4264 269,4243 294,4217 319,4185 346,4147 371,4104
 396,4057 421,4004 446,3949 471,3888 496,3824 522,3757 547,3688 572,3615 597,3542
 622,3467 647,3390 672,3314 699,3238 724,3161 749,3086 774,3013 799,2940 824,2871
 849,2804 875,2740 900,2681 925,2625 950,2574 975,2526 1000,2483 1025,2447 1051,2415
 1076,2389 1101,2369 1126,2354 1151,2346 1176,2344 1201,2347 1228,2357 1253,2372
 1278,2394 1303,2421 1328,2454 1353,2492 1378,2535 1404,2583 1429,2636 1454,2693
 1479,2753 1504,2817 1529,2885 1554,2954 1581,3026 1606,3101 1631,3176 1656,3253
 1681,3329 1706,3406 1732,3482 1757,3557 1782,3631 1807,3701 1832,3771 1857,3838
 1882,3900 1908,3960 1933,4015 1958,4067 1983,4113 2008,4154 2033,4192 2058,4222
 2085,4247 2110,4268 2135,4281 2160,4289 2185,4290 2210,4286 2235,4276 2261,4260
 2286,4239 2311,4211 2336,4178 2361,4139 2386,4094 2411,4046 2437,3993 2462,3936
 2487,3875 2512,3811 2537,3743 2562,3674 2587,3600 2614,3526 2639,3451 2664,3375
 2689,3299"
	stroke="#000000" stroke-width="30px" stroke-linejoin="round"/>
<!-- Line -->
<!-- polyline -->
<polyline points=" 169,6999 169,5050 10225,5050 10225,6999 169,6999"
	stroke="#ffffff" stroke-width="8px" stroke-linejoin="round"/>
<!-- Line -->
<!-- polyline -->
<defs>
<clipPath id="cp2">
	<path clip-rule="evenodd" d="M -87,1869 H 10662 V 9912 H -87 z
		M 5167,4820 5197,4790 5227,4820 5204,4643 5190,4643z
		M 5167,2120 5197,2090 5227,2120 5204,1943 5190,1943z"/>
</clipPath>
</defs>
<polyline points=" 5197,7200 5197,4650" clip-path="url(#cp2)"
	stroke="#000000" stroke-width="8px" stroke-linejoin="round"/>
<!-- Forward arrow to point 5197,4650 -->
<polygon points=" 5227,4820 5197,4670 5167,4820 5197,4790 5227,4820"
	stroke="#000000" stroke-width="8px" stroke-miterlimit="8" fill="#000000"/>
<!-- Line -->
<!-- polyline -->
<defs>
<clipPath id="cp3">
	<path clip-rule="evenodd" d="M -87,1869 H 10662 V 9912 H -87 z
		M 10480,5994 10510,6024 10480,6054 10657,6031 10657,6017z
		M 5167,2120 5197,2090 5227,2120 5204,1943 5190,1943z"/>
</clipPath>
</defs>
<polyline points=" -75,6024 10650,6024" clip-path="url(#cp3)"
	stroke="#000000" stroke-width="8px" stroke-linejoin="round"/>
<!-- Forward arrow to point 10650,6024 -->
<polygon points=" 10480,6054 10630,6024 10480,5994 10510,6024 10480,6054"
	stroke="#000000" stroke-width="8px" stroke-miterlimit="8" fill="#000000"/>
<!-- Line -->
<!-- polyline -->
<polyline points=" 2689,6997 2714,6979 2739,6938 2764,6874 2790,6788 2815,6683 2840,6563 2865,6429
 2890,6285 2915,6135 2940,5982 2967,5829 2992,5682 3017,5543 3042,5417 3067,5304
 3092,5210 3118,5136 3143,5083 3168,5056 3193,5050 3218,5069 3243,5113 3268,5178
 3294,5264 3319,5369 3344,5490 3369,5625 3394,5769 3419,5921 3444,6074 3471,6225
 3496,6372 3521,6511 3546,6638 3571,6749 3596,6842 3621,6914 3647,6965 3672,6993
 3697,6996 3722,6976 3747,6932 3772,6865 3797,6778 3824,6672 3849,6550 3874,6415
 3899,6271 3924,6119 3949,5967 3974,5814 4000,5668 4025,5529 4050,5404 4075,5294
 4100,5201 4125,5129 4150,5081 4176,5054 4201,5051 4226,5072 4251,5118 4276,5186
 4301,5274 4326,5381 4353,5504 4378,5639 4403,5785 4428,5936 4453,6089 4478,6240
 4504,6386 4529,6524 4554,6649 4579,6758 4604,6850 4629,6921 4654,6969 4681,6994
 4706,6996 4731,6972 4756,6926 4781,6857 4806,6768 4831,6661 4857,6538 4882,6401
 4907,6256 4932,6104 4957,5951 4982,5800 5007,5653 5033,5517 5058,5393 5083,5283
 5108,5193 5133,5124 5158,5076 5183,5053 5210,5053 5235,5076 5260,5124 5285,5193
 5310,5283 5335,5393 5360,5517 5386,5653 5411,5800 5436,5951 5461,6104 5486,6256
 5511,6401 5536,6538 5562,6661 5587,6768 5612,6857 5637,6926 5662,6972 5687,6996
 5712,6994 5739,6969 5764,6921 5789,6850 5814,6758 5839,6649 5864,6524 5889,6386
 5915,6240 5940,6089 5965,5936 5990,5785 6015,5639 6040,5504 6067,5381 6092,5274
 6117,5186 6142,5118 6167,5072 6192,5051 6217,5054 6243,5081 6268,5129 6293,5201
 6318,5294 6343,5404 6368,5529 6393,5668 6419,5814 6444,5967 6469,6119 6494,6271
 6519,6415 6544,6550 6569,6672 6596,6778 6621,6865 6646,6932 6671,6976 6696,6996
 6721,6993 6746,6965 6772,6914 6797,6842 6822,6749 6847,6638 6872,6511 6897,6372
 6922,6225 6949,6074 6974,5921 6999,5769 7024,5625 7049,5490 7074,5369 7099,5264
 7125,5178 7150,5113 7175,5069 7200,5050 7225,5056 7250,5083 7275,5136 7301,5210
 7326,5304 7351,5417 7376,5543 7401,5682 7426,5829 7453,5982 7478,6135 7503,6285
 7528,6429 7553,6563 7578,6683 7603,6788 7629,6874 7654,6938 7679,6979 7704,6997
 7729,6992 7754,6961 7779,6908 7806,6833 7831,6738 7856,6625 7881,6497 7906,6358
 7931,6210 7956,6058 7982,5906 8007,5754 8032,5611 8057,5478 8082,5358 8107,5254
 8132,5171 8158,5107 8183,5067 8208,5050 8233,5057 8258,5088 8283,5143 8308,5218
 8335,5315 8360,5428 8385,5557 8410,5696 8435,5844 8460,5997 8485,6150 8511,6300
 8536,6443 8561,6575 8586,6694 8611,6797 8636,6881 8661,6943 8687,6982 8712,6997
 8737,6989 8762,6957 8787,6901 8812,6824 8839,6728 8864,6613 8889,6483 8914,6343
 8939,6196 8964,6043 8989,5890 9015,5740 9040,5597 9065,5465 9090,5347 9115,5246
 9140,5163 9165,5103 9192,5064 9217,5050 9242,5060 9267,5093 9292,5149 9317,5228
 9342,5325 9368,5440 9393,5569 9418,5711 9443,5860 9468,6013 9493,6165 9518,6314
 9544,6457 9569,6589 9594,6706 9619,6807 9644,6888 9669,6947 9694,6985 9721,6997
 9746,6988 9771,6953 9796,6894 9821,6815 9846,6717 9871,6600 9897,6471 9922,6329
 9947,6181 9972,6028 9997,5875 10022,5725 10047,5583 10074,5453 10099,5336 10124,5236
 10149,5156 10174,5097 10199,5061 10225,5050"
	stroke="#000000" stroke-width="30px" stroke-linejoin="round"/>
<!-- Line -->
<!-- polyline -->
<polyline points=" 169,5050 194,5061 219,5097 244,5156 269,5236 294,5336 319,5453 346,5583 371,5725
 396,5875 421,6028 446,6181 471,6329 496,6471 522,6600 547,6717 572,6815 597,6894
 622,6953 647,6988 672,6997 699,6985 724,6947 749,6888 774,6807 799,6706 824,6589
 849,6457 875,6314 900,6165 925,6013 950,5860 975,5711 1000,5569 1025,5440 1051,5325
 1076,5228 1101,5149 1126,5093 1151,5060 1176,5050 1201,5064 1228,5103 1253,5163
 1278,5246 1303,5347 1328,5465 1353,5597 1378,5740 1404,5890 1429,6043 1454,6196
 1479,6343 1504,6483 1529,6613 1554,6728 1581,6824 1606,6901 1631,6957 1656,6989
 1681,6997 1706,6982 1732,6943 1757,6881 1782,6797 1807,6694 1832,6575 1857,6443
 1882,6300 1908,6150 1933,5997 1958,5844 1983,5696 2008,5557 2033,5428 2058,5315
 2085,5218 2110,5143 2135,5088 2160,5057 2185,5050 2210,5067 2235,5107 2261,5171
 2286,5254 2311,5358 2336,5478 2361,5611 2386,5754 2411,5906 2437,6058 2462,6210
 2487,6358 2512,6497 2537,6625 2562,6738 2587,6833 2614,6908 2639,6961 2664,6992
 2689,6997"
	stroke="#000000" stroke-width="30px" stroke-linejoin="round"/>
<!-- Line -->
<!-- polyline -->
<polyline points=" 169,9704 169,7756 10225,7756 10225,9704 169,9704"
	stroke="#ffffff" stroke-width="8px" stroke-linejoin="round"/>
<!-- Line -->
<!-- polyline -->
<defs>
<clipPath id="cp4">
	<path clip-rule="evenodd" d="M -87,1869 H 10662 V 9912 H -87 z
		M 5167,7520 5197,7490 5227,7520 5204,7343 5190,7343z
		M 5167,2120 5197,2090 5227,2120 5204,1943 5190,1943z"/>
</clipPath>
</defs>
<polyline points=" 5197,9900 5197,7350" clip-path="url(#cp4)"
	stroke="#000000" stroke-width="8px" stroke-linejoin="round"/>
<!-- Forward arrow to point 5197,7350 -->
<polygon points=" 5227,7520 5197,7370 5167,7520 5197,7490 5227,7520"
	stroke="#000000" stroke-width="8px" stroke-miterlimit="8" fill="#000000"/>
<!-- Line -->
<!-- polyline -->
<defs>
<clipPath id="cp5">
	<path clip-rule="evenodd" d="M -87,1869 H 10662 V 9912 H -87 z
		M 10480,8699 10510,8729 10480,8759 10657,8736 10657,8722z
		M 5167,2120 5197,2090 5227,2120 5204,1943 5190,1943z"/>
</clipPath>
</defs>
<polyline points=" -75,8729 10650,8729" clip-path="url(#cp5)"
	stroke="#000000" stroke-width="8px" stroke-linejoin="round"/>
<!-- Forward arrow to point 10650,8729 -->
<polygon points=" 10480,8759 10630,8729 10480,8699 10510,8729 10480,8759"
	stroke="#000000" stroke-width="8px" stroke-miterlimit="8" fill="#000000"/>
<!-- Line -->
<!-- polyline -->
<polyline points=" 2689,8786 2714,9013 2739,9224 2764,9406 2790,9551 2815,9650 2840,9699 2865,9693
 2890,9635 2915,9525 2940,9372 2967,9183 2992,8968 3017,8740 3042,8513 3067,8296
 3092,8104 3118,7946 3143,7832 3168,7768 3193,7757 3218,7800 3243,7896 3268,8036
 3294,8215 3319,8424 3344,8649 3369,8878 3394,9100 3419,9300 3444,9469 3471,9597
 3496,9676 3521,9704 3546,9676 3571,9597 3596,9469 3621,9300 3647,9100 3672,8878
 3697,8649 3722,8424 3747,8215 3772,8036 3797,7896 3824,7800 3849,7757 3874,7768
 3899,7832 3924,7946 3949,8104 3974,8296 4000,8513 4025,8740 4050,8968 4075,9183
 4100,9372 4125,9525 4150,9635 4176,9693 4201,9699 4226,9650 4251,9551 4276,9406
 4301,9224 4326,9013 4353,8786 4378,8557 4403,8338 4428,8140 4453,7975 4478,7851
 4504,7776 4529,7756 4554,7788 4579,7872 4604,8004 4629,8178 4654,8381 4681,8603
 4706,8832 4731,9057 4756,9263 4781,9438 4806,9575 4831,9665 4857,9703 4882,9686
 4907,9617 4932,9499 4957,9336 4982,9142 5007,8924 5033,8694 5058,8468 5083,8256
 5108,8069 5133,7919 5158,7815 5183,7761 5210,7761 5235,7815 5260,7919 5285,8069
 5310,8256 5335,8468 5360,8694 5386,8924 5411,9142 5436,9336 5461,9499 5486,9617
 5511,9686 5536,9703 5562,9665 5587,9575 5612,9438 5637,9263 5662,9057 5687,8832
 5712,8603 5739,8381 5764,8178 5789,8004 5814,7872 5839,7788 5864,7756 5889,7776
 5915,7851 5940,7975 5965,8140 5990,8338 6015,8557 6040,8786 6067,9013 6092,9224
 6117,9406 6142,9551 6167,9650 6192,9699 6217,9693 6243,9635 6268,9525 6293,9372
 6318,9183 6343,8968 6368,8740 6393,8513 6419,8296 6444,8104 6469,7946 6494,7832
 6519,7768 6544,7757 6569,7800 6596,7896 6621,8036 6646,8215 6671,8424 6696,8649
 6721,8878 6746,9100 6772,9300 6797,9469 6822,9597 6847,9676 6872,9704 6897,9676
 6922,9597 6949,9469 6974,9300 6999,9100 7024,8878 7049,8649 7074,8424 7099,8215
 7125,8036 7150,7896 7175,7800 7200,7757 7225,7768 7250,7832 7275,7946 7301,8104
 7326,8296 7351,8513 7376,8740 7401,8968 7426,9183 7453,9372 7478,9525 7503,9635
 7528,9693 7553,9699 7578,9650 7603,9551 7629,9406 7654,9224 7679,9013 7704,8786
 7729,8557 7754,8338 7779,8140 7806,7975 7831,7851 7856,7776 7881,7756 7906,7788
 7931,7872 7956,8004 7982,8178 8007,8381 8032,8603 8057,8832 8082,9057 8107,9263
 8132,9438 8158,9575 8183,9665 8208,9703 8233,9686 8258,9617 8283,9499 8308,9336
 8335,9142 8360,8924 8385,8694 8410,8468 8435,8256 8460,8069 8485,7919 8511,7815
 8536,7761 8561,7761 8586,7815 8611,7919 8636,8069 8661,8256 8687,8468 8712,8694
 8737,8924 8762,9142 8787,9336 8812,9499 8839,9617 8864,9686 8889,9703 8914,9665
 8939,9575 8964,9438 8989,9263 9015,9057 9040,8832 9065,8603 9090,8381 9115,8178
 9140,8004 9165,7872 9192,7788 9217,7756 9242,7776 9267,7851 9292,7975 9317,8140
 9342,8338 9368,8557 9393,8786 9418,9013 9443,9224 9468,9406 9493,9551 9518,9650
 9544,9699 9569,9693 9594,9635 9619,9525 9644,9372 9669,9183 9694,8968 9721,8740
 9746,8513 9771,8296 9796,8104 9821,7946 9846,7832 9871,7768 9897,7757 9922,7800
 9947,7896 9972,8036 9997,8215 10022,8424 10047,8649 10074,8878 10099,9100 10124,9300
 10149,9469 10174,9597 10199,9676 10225,9704"
	stroke="#000000" stroke-width="30px" stroke-linejoin="round"/>
<!-- Line -->
<!-- polyline -->
<polyline points=" 169,9704 194,9676 219,9597 244,9469 269,9300 294,9100 319,8878 346,8649 371,8424
 396,8215 421,8036 446,7896 471,7800 496,7757 522,7768 547,7832 572,7946 597,8104
 622,8296 647,8513 672,8740 699,8968 724,9183 749,9372 774,9525 799,9635 824,9693
 849,9699 875,9650 900,9551 925,9406 950,9224 975,9013 1000,8786 1025,8557 1051,8338
 1076,8140 1101,7975 1126,7851 1151,7776 1176,7756 1201,7788 1228,7872 1253,8004
 1278,8178 1303,8381 1328,8603 1353,8832 1378,9057 1404,9263 1429,9438 1454,9575
 1479,9665 1504,9703 1529,9686 1554,9617 1581,9499 1606,9336 1631,9142 1656,8924
 1681,8694 1706,8468 1732,8256 1757,8069 1782,7919 1807,7815 1832,7761 1857,7761
 1882,7815 1908,7919 1933,8069 1958,8256 1983,8468 2008,8694 2033,8924 2058,9142
 2085,9336 2110,9499 2135,9617 2160,9686 2185,9703 2210,9665 2235,9575 2261,9438
 2286,9263 2311,9057 2336,8832 2361,8603 2386,8381 2411,8178 2437,8004 2462,7872
 2487,7788 2512,7756 2537,7776 2562,7851 2587,7975 2614,8140 2639,8338 2664,8557
 2689,8786"
	stroke="#000000" stroke-width="30px" stroke-linejoin="round"/>
<!-- Text -->
<text xml:space="preserve" x="5325" y="7500" fill="#000000" font-family="Times" font-style="normal" font-weight="normal" font-size="216" text-anchor="start">\phi<tspan font-size="144" baseline-shift="sub">3</tspan>(t)=\cos(3\omega<tspan font-size="144" baseline-shift="sub">0</tspan> t)</text>
<!-- Text -->
<text xml:space="preserve" x="5325" y="4800" fill="#000000" font-family="Times" font-style="normal" font-weight="normal" font-size="216" text-anchor="start">\phi<tspan font-size="144" baseline-shift="sub">2</tspan>(t)=\cos(2\omega<tspan font-size="144" baseline-shift="sub">0</tspan> t)</text>
<!-- Text -->
<text xml:space="preserve" x="5325" y="2100" fill="#000000" font-family="Times" font-style="normal" font-weight="normal" font-size="216" text-anchor="start">\phi<tspan font-size="144" baseline-shift="sub">1</tspan>(t)=\cos(\omega<tspan font-size="144" baseline-shift="sub">0</tspan> t)</text>
<!-- Text -->
<text xml:space="preserve" x="10500" y="3225" fill="#000000" font-family="Times" font-style="normal" font-weight="normal" font-size="216" text-anchor="start">t</text>
<!-- Text -->
<text xml:space="preserve" x="10500" y="5925" fill="#000000" font-family="Times" font-style="normal" font-weight="normal" font-size="216" text-anchor="start">t</text>
<!-- Text -->
<text xml:space="preserve" x="10500" y="8625" fill="#000000" font-family="Times" font-style="normal" font-weight="normal" font-size="216" text-anchor="start">t</text>
</g>
</svg>
