<?xml version="1.0" encoding="UTF-8" standalone="no"?>
<!-- Creator: fig2dev Version 3.2.8b -->
<!-- CreationDate: 2025-10-30 19:43:16 -->
<!-- Magnification: 1 -->
<svg	xmlns="http://www.w3.org/2000/svg"
	xmlns:xlink="http://www.w3.org/1999/xlink"
	width="573pt" height="272pt"
	viewBox="513 3594 9549 4518">
<g fill="none">
<!-- Line -->
<!-- polyline -->
<defs>
<clipPath id="cp0">
	<path clip-rule="evenodd" d="M 513,3594 H 10062 V 8112 H 513 z
		M 720,3871 750,3841 780,3871 757,3694 743,3694z"/>
</clipPath>
</defs>
<polyline points=" 750,8100 750,3701" clip-path="url(#cp0)"
	stroke="#000000" stroke-width="8px" stroke-linejoin="round"/>
<!-- Forward arrow to point 750,3701 -->
<polygon points=" 780,3871 750,3721 720,3871 750,3841 780,3871"
	stroke="#000000" stroke-width="8px" stroke-miterlimit="8" fill="#000000"/>
<!-- Line -->
<!-- polyline -->
<polyline points=" 750,4301 750,4389"
	stroke="#000000" stroke-width="8px" stroke-linejoin="round"/>
<!-- Text -->
<!-- text -->
<text xml:space="preserve" x="704" y="6375" fill="#000000" font-family="Times" font-style="italic" font-weight="normal" font-size="168" text-anchor="start">0</text>
<!-- Text -->
<!-- text -->
<text xml:space="preserve" x="2178" y="6000" fill="#000000" font-family="Times" font-style="italic" font-weight="normal" font-size="168" text-anchor="start">5</text>
<!-- Text -->
<!-- text -->
<text xml:space="preserve" x="3606" y="6375" fill="#000000" font-family="Times" font-style="italic" font-weight="normal" font-size="168" text-anchor="start">10</text>
<!-- Text -->
<!-- text -->
<text xml:space="preserve" x="4275" y="6525" fill="#000000" font-family="Times" font-style="italic" font-weight="normal" font-size="168" text-anchor="middle">N<tspan font-size="112" baseline-shift="sub">0</tspan>=12</text>
<!-- Text -->
<!-- text -->
<text xml:space="preserve" x="5081" y="6375" fill="#000000" font-family="Times" font-style="italic" font-weight="normal" font-size="168" text-anchor="start">15</text>
<!-- Text -->
<!-- text -->
<text xml:space="preserve" x="6554" y="6000" fill="#000000" font-family="Times" font-style="italic" font-weight="normal" font-size="168" text-anchor="start">20</text>
<!-- Text -->
<!-- text -->
<text xml:space="preserve" x="8028" y="6375" fill="#000000" font-family="Times" font-style="italic" font-weight="normal" font-size="168" text-anchor="start">25</text>
<!-- Line -->
<!-- polyline -->
<polyline points=" 9594,7932 9594,7843"
	stroke="#000000" stroke-width="8px" stroke-linejoin="round"/>
<!-- Text -->
<!-- text -->
<text xml:space="preserve" x="9503" y="6000" fill="#000000" font-family="Times" font-style="italic" font-weight="normal" font-size="168" text-anchor="start">30</text>
<!-- Line -->
<!-- polyline -->
<polyline points=" 750,7932 837,7932"
	stroke="#000000" stroke-width="8px" stroke-linejoin="round"/>
<!-- Line -->
<!-- polyline -->
<polyline points=" 9594,7932 9506,7932"
	stroke="#000000" stroke-width="8px" stroke-linejoin="round"/>
<!-- Text -->
<!-- text -->
<text xml:space="preserve" x="600" y="4350" fill="#000000" font-family="Times" font-style="italic" font-weight="normal" font-size="168" text-anchor="end">1</text>
<!-- Text -->
<!-- text -->
<text xml:space="preserve" x="600" y="7993" fill="#000000" font-family="Times" font-style="italic" font-weight="normal" font-size="168" text-anchor="end">-1</text>
<!-- Line -->
<!-- polyline -->
<polyline points=" 750,4301 837,4301"
	stroke="#000000" stroke-width="8px" stroke-linejoin="round"/>
<!-- Line -->
<!-- spline -->
<polyline points=" 800,4301 800,4302 799,4306 798,4312 797,4316 797,4317 796,4319 795,4322 793,4326
 790,4331 787,4335 786,4337 785,4337 784,4339 780,4342 776,4345 774,4346 773,4346
 771,4347 766,4349 760,4350 756,4351 753,4351 750,4351 749,4351 745,4350 739,4350
 735,4349 734,4349 732,4348 728,4347 725,4345 720,4342 716,4339 715,4337 714,4337
 713,4335 710,4331 707,4327 706,4325 706,4324 705,4322 703,4317 701,4311 701,4307
 700,4304 700,4301 700,4300 701,4296 702,4291 703,4287 703,4286 704,4284 705,4281
 707,4277 710,4272 713,4268 714,4266 715,4266 716,4264 720,4261 724,4258 726,4257
 727,4257 729,4256 734,4254 740,4252 744,4252 747,4251 750,4251 751,4251 755,4252
 761,4253 765,4254 766,4254 768,4255 772,4256 775,4258 780,4261 784,4264 785,4266
 786,4266 787,4268 790,4272 793,4276 794,4278 794,4279 795,4281 797,4286 799,4291
 799,4295 800,4299 800,4301"
	stroke="#000000" stroke-width="8px" stroke-linejoin="bevel"/>
<!-- Line -->
<!-- spline -->
<polyline points=" 1094,4544 1094,4545 1093,4549 1093,4555 1092,4559 1092,4560 1091,4562 1090,4565
 1088,4569 1085,4574 1082,4578 1080,4580 1078,4582 1074,4585 1070,4588 1068,4589
 1067,4589 1065,4590 1060,4592 1054,4593 1050,4594 1047,4594 1044,4594 1043,4594
 1039,4593 1034,4593 1030,4592 1029,4592 1027,4591 1024,4590 1020,4588 1015,4585
 1011,4582 1009,4580 1007,4578 1004,4574 1001,4570 1000,4568 1000,4567 999,4565
 997,4560 995,4554 995,4550 994,4547 994,4544 994,4543 995,4539 996,4534 997,4530
 997,4529 998,4527 999,4524 1001,4520 1004,4515 1007,4511 1009,4509 1011,4507
 1015,4504 1019,4501 1021,4500 1022,4500 1024,4499 1029,4497 1034,4495 1038,4495
 1042,4494 1044,4494 1045,4494 1049,4495 1055,4496 1059,4497 1060,4497 1062,4498
 1065,4499 1069,4501 1074,4504 1078,4507 1080,4509 1082,4511 1085,4515 1088,4519
 1089,4521 1089,4522 1090,4524 1092,4529 1093,4534 1094,4538 1094,4542 1094,4544
"
	stroke="#000000" stroke-width="8px" stroke-linejoin="bevel"/>
<!-- Line -->
<!-- spline -->
<polyline points=" 1389,5208 1389,5209 1388,5213 1387,5219 1386,5223 1386,5224 1385,5226 1384,5229
 1382,5233 1379,5238 1376,5242 1374,5244 1372,5246 1368,5249 1364,5252 1362,5253
 1360,5254 1355,5256 1350,5257 1345,5258 1342,5258 1339,5258 1338,5258 1334,5257
 1328,5257 1324,5256 1323,5256 1321,5255 1317,5254 1314,5252 1309,5249 1305,5246
 1304,5244 1303,5244 1302,5242 1299,5238 1296,5234 1295,5232 1294,5231 1293,5229
 1291,5224 1290,5218 1289,5214 1289,5211 1289,5208 1289,5207 1290,5203 1290,5198
 1291,5194 1291,5193 1292,5191 1294,5188 1296,5184 1299,5179 1302,5175 1303,5173
 1304,5173 1305,5171 1309,5168 1313,5165 1315,5164 1316,5164 1318,5163 1323,5161
 1329,5159 1333,5159 1336,5158 1339,5158 1340,5158 1344,5159 1350,5160 1354,5161
 1355,5161 1357,5162 1360,5163 1364,5165 1368,5168 1372,5171 1374,5173 1376,5175
 1379,5179 1382,5183 1383,5185 1383,5186 1384,5188 1386,5193 1388,5198 1388,5202
 1389,5206 1389,5208"
	stroke="#000000" stroke-width="8px" stroke-linejoin="bevel"/>
<!-- Line -->
<!-- spline -->
<polyline points=" 1683,6117 1683,6118 1682,6122 1682,6127 1681,6131 1681,6132 1680,6134 1679,6137
 1677,6141 1674,6146 1671,6150 1669,6152 1667,6154 1663,6157 1659,6160 1657,6161
 1656,6161 1654,6162 1649,6164 1643,6166 1639,6166 1636,6167 1633,6167 1632,6167
 1628,6166 1623,6165 1619,6164 1618,6164 1616,6163 1613,6162 1609,6160 1604,6157
 1600,6154 1598,6152 1596,6150 1593,6146 1590,6142 1589,6140 1589,6139 1588,6137
 1586,6132 1584,6127 1584,6123 1583,6119 1583,6117 1583,6116 1584,6112 1585,6106
 1586,6102 1586,6101 1587,6099 1588,6096 1590,6092 1593,6087 1596,6083 1598,6081
 1600,6079 1604,6076 1608,6073 1610,6072 1611,6072 1613,6071 1618,6069 1623,6068
 1627,6067 1631,6067 1633,6067 1634,6067 1638,6068 1644,6068 1648,6069 1649,6069
 1651,6070 1654,6071 1658,6073 1663,6076 1667,6079 1669,6081 1671,6083 1674,6087
 1677,6091 1678,6093 1678,6094 1679,6096 1681,6101 1682,6107 1683,6111 1683,6114
 1683,6117"
	stroke="#000000" stroke-width="8px" stroke-linejoin="bevel"/>
<!-- Line -->
<!-- spline -->
<polyline points=" 1979,7024 1979,7025 1978,7029 1978,7034 1977,7038 1977,7039 1976,7041 1975,7044
 1973,7048 1970,7053 1967,7057 1965,7059 1963,7061 1959,7064 1955,7067 1953,7068
 1952,7068 1950,7069 1945,7071 1939,7073 1935,7073 1932,7074 1929,7074 1928,7074
 1924,7073 1918,7072 1914,7071 1913,7071 1911,7070 1908,7069 1904,7067 1900,7064
 1896,7061 1894,7059 1892,7057 1889,7053 1886,7049 1885,7047 1885,7046 1884,7044
 1882,7039 1880,7034 1880,7030 1879,7026 1879,7024 1879,7023 1880,7019 1881,7013
 1882,7009 1882,7008 1883,7006 1884,7003 1886,6999 1889,6994 1892,6990 1894,6988
 1896,6986 1900,6983 1904,6980 1906,6979 1908,6978 1913,6976 1918,6975 1923,6974
 1926,6974 1929,6974 1930,6974 1934,6975 1940,6975 1944,6976 1945,6976 1947,6977
 1950,6978 1954,6980 1959,6983 1963,6986 1965,6988 1967,6990 1970,6994 1973,6998
 1974,7000 1974,7001 1975,7003 1977,7008 1978,7014 1979,7018 1979,7021 1979,7024
"
	stroke="#000000" stroke-width="8px" stroke-linejoin="bevel"/>
<!-- Line -->
<!-- spline -->
<polyline points=" 2274,7688 2274,7689 2273,7693 2272,7698 2271,7702 2271,7703 2270,7705 2269,7708
 2267,7712 2264,7717 2261,7721 2259,7723 2257,7725 2253,7728 2249,7731 2247,7732
 2246,7732 2244,7733 2239,7735 2234,7737 2230,7737 2226,7738 2224,7738 2223,7738
 2219,7737 2213,7736 2209,7735 2208,7735 2206,7734 2203,7733 2199,7731 2194,7728
 2190,7725 2188,7723 2186,7721 2183,7717 2180,7713 2179,7711 2179,7710 2178,7708
 2176,7703 2175,7698 2174,7694 2174,7690 2174,7688 2174,7687 2175,7683 2175,7677
 2176,7673 2176,7672 2177,7670 2178,7667 2180,7663 2183,7658 2186,7654 2188,7652
 2190,7650 2194,7647 2198,7644 2200,7643 2201,7643 2203,7642 2208,7640 2214,7639
 2218,7638 2221,7638 2224,7638 2225,7638 2229,7639 2234,7639 2238,7640 2239,7640
 2241,7641 2244,7642 2248,7644 2253,7647 2257,7650 2259,7652 2261,7654 2264,7658
 2267,7662 2268,7664 2268,7665 2269,7667 2271,7672 2273,7678 2273,7682 2274,7685
 2274,7688"
	stroke="#000000" stroke-width="8px" stroke-linejoin="bevel"/>
<!-- Line -->
<!-- spline -->
<polyline points=" 2568,7932 2568,7933 2567,7937 2566,7943 2565,7947 2565,7948 2564,7950 2563,7953
 2561,7957 2558,7961 2555,7965 2554,7967 2553,7967 2552,7969 2548,7972 2544,7975
 2542,7976 2541,7976 2539,7977 2534,7979 2528,7981 2524,7981 2521,7982 2518,7982
 2517,7982 2513,7981 2507,7980 2503,7979 2502,7979 2500,7978 2497,7977 2493,7975
 2489,7972 2485,7969 2483,7967 2481,7965 2478,7961 2475,7957 2474,7955 2473,7953
 2471,7948 2469,7943 2469,7938 2468,7935 2468,7932 2468,7931 2469,7927 2470,7921
 2471,7917 2471,7916 2472,7914 2473,7910 2475,7907 2478,7902 2481,7898 2483,7897
 2483,7896 2485,7895 2489,7892 2493,7889 2495,7888 2497,7887 2502,7885 2507,7883
 2512,7883 2515,7882 2518,7882 2519,7882 2523,7883 2529,7884 2533,7885 2534,7885
 2536,7886 2540,7887 2543,7889 2548,7892 2552,7895 2553,7896 2554,7897 2555,7898
 2558,7902 2561,7906 2562,7908 2562,7909 2563,7911 2565,7916 2567,7922 2567,7926
 2568,7929 2568,7932"
	stroke="#000000" stroke-width="8px" stroke-linejoin="bevel"/>
<!-- Line -->
<!-- spline -->
<polyline points=" 2862,7688 2862,7689 2861,7693 2861,7698 2860,7702 2860,7703 2859,7705 2858,7708
 2856,7712 2853,7717 2850,7721 2848,7723 2846,7725 2842,7728 2838,7731 2836,7732
 2835,7732 2833,7733 2828,7735 2822,7737 2818,7737 2815,7738 2812,7738 2811,7738
 2807,7737 2802,7736 2798,7735 2797,7735 2795,7734 2792,7733 2788,7731 2783,7728
 2779,7725 2777,7723 2775,7721 2772,7717 2769,7713 2768,7711 2768,7710 2767,7708
 2765,7703 2763,7698 2763,7694 2762,7690 2762,7688 2762,7687 2763,7683 2764,7677
 2765,7673 2765,7672 2766,7670 2767,7667 2769,7663 2772,7658 2775,7654 2777,7652
 2779,7650 2783,7647 2787,7644 2789,7643 2790,7643 2792,7642 2797,7640 2802,7639
 2806,7638 2810,7638 2812,7638 2813,7638 2817,7639 2823,7639 2827,7640 2828,7640
 2830,7641 2833,7642 2837,7644 2842,7647 2846,7650 2848,7652 2850,7654 2853,7658
 2856,7662 2857,7664 2857,7665 2858,7667 2860,7672 2861,7678 2862,7682 2862,7685
 2862,7688"
	stroke="#000000" stroke-width="8px" stroke-linejoin="bevel"/>
<!-- Line -->
<!-- spline -->
<polyline points=" 3158,7024 3158,7025 3157,7029 3157,7034 3156,7038 3156,7039 3155,7041 3154,7044
 3152,7048 3149,7053 3146,7057 3144,7059 3142,7061 3138,7064 3134,7067 3132,7068
 3131,7068 3129,7069 3124,7071 3118,7073 3114,7073 3111,7074 3108,7074 3107,7074
 3103,7073 3098,7072 3094,7071 3093,7071 3091,7070 3088,7069 3084,7067 3079,7064
 3075,7061 3073,7059 3071,7057 3068,7053 3065,7049 3064,7047 3064,7046 3063,7044
 3061,7039 3059,7034 3059,7030 3058,7026 3058,7024 3058,7023 3059,7019 3060,7013
 3061,7009 3061,7008 3062,7006 3063,7003 3065,6999 3068,6994 3071,6990 3073,6988
 3075,6986 3079,6983 3083,6980 3085,6979 3086,6979 3088,6978 3093,6976 3098,6975
 3102,6974 3106,6974 3108,6974 3109,6974 3113,6975 3119,6975 3123,6976 3124,6976
 3126,6977 3129,6978 3133,6980 3138,6983 3142,6986 3144,6988 3146,6990 3149,6994
 3152,6998 3153,7000 3153,7001 3154,7003 3156,7008 3157,7014 3158,7018 3158,7021
 3158,7024"
	stroke="#000000" stroke-width="8px" stroke-linejoin="bevel"/>
<!-- Line -->
<!-- spline -->
<polyline points=" 3453,6117 3453,6118 3452,6122 3451,6127 3450,6131 3450,6132 3449,6134 3448,6137
 3446,6141 3443,6146 3440,6150 3438,6152 3436,6154 3432,6157 3428,6160 3426,6161
 3424,6162 3419,6164 3414,6166 3409,6166 3406,6167 3403,6167 3402,6167 3398,6166
 3392,6165 3388,6164 3387,6164 3385,6163 3382,6162 3378,6160 3373,6157 3369,6154
 3367,6152 3365,6150 3362,6146 3359,6142 3358,6140 3358,6139 3357,6137 3355,6132
 3354,6127 3353,6123 3353,6119 3353,6117 3353,6116 3354,6112 3354,6106 3355,6102
 3355,6101 3356,6099 3357,6096 3359,6092 3362,6087 3365,6083 3367,6081 3369,6079
 3373,6076 3377,6073 3379,6072 3380,6072 3382,6071 3387,6069 3393,6068 3397,6067
 3400,6067 3403,6067 3404,6067 3408,6068 3414,6068 3418,6069 3419,6069 3421,6070
 3424,6071 3428,6073 3432,6076 3436,6079 3438,6081 3440,6083 3443,6087 3446,6091
 3447,6093 3447,6094 3448,6096 3450,6101 3452,6107 3452,6111 3453,6114 3453,6117
"
	stroke="#000000" stroke-width="8px" stroke-linejoin="bevel"/>
<!-- Line -->
<!-- spline -->
<polyline points=" 3747,5208 3747,5209 3746,5213 3746,5219 3745,5223 3745,5224 3744,5226 3743,5229
 3741,5233 3738,5238 3735,5242 3733,5244 3731,5246 3727,5249 3723,5252 3721,5253
 3720,5253 3718,5254 3713,5256 3707,5257 3703,5258 3700,5258 3697,5258 3696,5258
 3692,5257 3686,5257 3682,5256 3681,5256 3679,5255 3676,5254 3672,5252 3668,5249
 3664,5246 3662,5244 3660,5242 3657,5238 3654,5234 3653,5232 3653,5231 3652,5229
 3650,5224 3648,5218 3648,5214 3647,5211 3647,5208 3647,5207 3648,5203 3649,5198
 3650,5194 3650,5193 3651,5191 3652,5188 3654,5184 3657,5179 3660,5175 3662,5173
 3664,5171 3668,5168 3672,5165 3674,5164 3676,5163 3681,5161 3686,5159 3691,5159
 3694,5158 3697,5158 3698,5158 3702,5159 3708,5160 3712,5161 3713,5161 3715,5162
 3718,5163 3722,5165 3727,5168 3731,5171 3733,5173 3735,5175 3738,5179 3741,5183
 3742,5185 3742,5186 3743,5188 3745,5193 3746,5198 3747,5202 3747,5206 3747,5208
"
	stroke="#000000" stroke-width="8px" stroke-linejoin="bevel"/>
<!-- Line -->
<!-- spline -->
<polyline points=" 4042,4544 4042,4545 4041,4549 4040,4555 4039,4559 4039,4560 4038,4562 4037,4565
 4035,4569 4032,4574 4029,4578 4027,4580 4025,4582 4021,4585 4017,4588 4015,4589
 4014,4589 4012,4590 4007,4592 4002,4593 3998,4594 3994,4594 3992,4594 3991,4594
 3987,4593 3981,4593 3977,4592 3976,4592 3974,4591 3971,4590 3967,4588 3962,4585
 3958,4582 3956,4580 3954,4578 3951,4574 3948,4570 3947,4568 3947,4567 3946,4565
 3944,4560 3943,4554 3942,4550 3942,4547 3942,4544 3942,4543 3943,4539 3943,4534
 3944,4530 3944,4529 3945,4527 3946,4524 3948,4520 3951,4515 3954,4511 3956,4509
 3958,4507 3962,4504 3966,4501 3968,4500 3969,4500 3971,4499 3976,4497 3982,4495
 3986,4495 3989,4494 3992,4494 3993,4494 3997,4495 4002,4496 4006,4497 4007,4497
 4009,4498 4012,4499 4016,4501 4021,4504 4025,4507 4027,4509 4029,4511 4032,4515
 4035,4519 4036,4521 4036,4522 4037,4524 4039,4529 4041,4534 4041,4538 4042,4542
 4042,4544"
	stroke="#000000" stroke-width="8px" stroke-linejoin="bevel"/>
<!-- Line -->
<!-- spline -->
<polyline points=" 4337,4301 4337,4302 4336,4306 4336,4312 4335,4316 4335,4317 4334,4319 4333,4322
 4331,4326 4328,4331 4325,4335 4323,4337 4321,4339 4317,4342 4313,4345 4311,4346
 4310,4346 4308,4347 4303,4349 4297,4350 4293,4351 4290,4351 4287,4351 4286,4351
 4282,4350 4277,4350 4273,4349 4272,4349 4270,4348 4267,4347 4263,4345 4258,4342
 4254,4339 4252,4337 4250,4335 4247,4331 4244,4327 4243,4325 4243,4324 4242,4322
 4240,4317 4238,4311 4238,4307 4237,4304 4237,4301 4237,4300 4238,4296 4239,4291
 4240,4287 4240,4286 4241,4284 4242,4281 4244,4277 4247,4272 4250,4268 4252,4266
 4254,4264 4258,4261 4262,4258 4264,4257 4265,4257 4267,4256 4272,4254 4277,4252
 4281,4252 4285,4251 4287,4251 4288,4251 4292,4252 4298,4253 4302,4254 4303,4254
 4305,4255 4308,4256 4312,4258 4317,4261 4321,4264 4323,4266 4325,4268 4328,4272
 4331,4276 4332,4278 4332,4279 4333,4281 4335,4286 4336,4291 4337,4295 4337,4299
 4337,4301"
	stroke="#000000" stroke-width="8px" stroke-linejoin="bevel"/>
<!-- Line -->
<!-- spline -->
<polyline points=" 4632,4544 4632,4545 4631,4549 4630,4555 4629,4559 4629,4560 4628,4562 4627,4565
 4625,4569 4622,4574 4619,4578 4617,4580 4615,4582 4611,4585 4607,4588 4605,4589
 4603,4590 4598,4592 4593,4593 4588,4594 4585,4594 4582,4594 4581,4594 4577,4593
 4571,4593 4567,4592 4566,4592 4564,4591 4560,4590 4557,4588 4552,4585 4548,4582
 4547,4580 4546,4580 4545,4578 4542,4574 4539,4570 4538,4568 4538,4567 4537,4565
 4535,4560 4533,4554 4533,4550 4532,4547 4532,4544 4532,4543 4533,4539 4534,4534
 4535,4530 4535,4529 4536,4527 4537,4524 4539,4520 4542,4515 4545,4511 4546,4509
 4547,4509 4548,4507 4552,4504 4556,4501 4558,4500 4559,4500 4561,4499 4566,4497
 4572,4495 4576,4495 4579,4494 4582,4494 4583,4494 4587,4495 4593,4496 4597,4497
 4598,4497 4600,4498 4603,4499 4607,4501 4611,4504 4615,4507 4617,4509 4619,4511
 4622,4515 4625,4519 4626,4521 4626,4522 4627,4524 4629,4529 4631,4534 4631,4538
 4632,4542 4632,4544"
	stroke="#000000" stroke-width="8px" stroke-linejoin="bevel"/>
<!-- Line -->
<!-- spline -->
<polyline points=" 4926,5208 4926,5209 4925,5213 4925,5219 4924,5223 4924,5224 4923,5226 4922,5229
 4920,5233 4917,5238 4914,5242 4912,5244 4910,5246 4906,5249 4902,5252 4900,5253
 4899,5253 4897,5254 4892,5256 4886,5257 4882,5258 4879,5258 4876,5258 4875,5258
 4871,5257 4866,5257 4862,5256 4861,5256 4859,5255 4856,5254 4852,5252 4847,5249
 4843,5246 4841,5244 4839,5242 4836,5238 4833,5234 4832,5232 4832,5231 4831,5229
 4829,5224 4827,5218 4827,5214 4826,5211 4826,5208 4826,5207 4827,5203 4828,5198
 4829,5194 4829,5193 4830,5191 4831,5188 4833,5184 4836,5179 4839,5175 4841,5173
 4843,5171 4847,5168 4851,5165 4853,5164 4854,5164 4856,5163 4861,5161 4866,5159
 4870,5159 4874,5158 4876,5158 4877,5158 4881,5159 4887,5160 4891,5161 4892,5161
 4894,5162 4897,5163 4901,5165 4906,5168 4910,5171 4912,5173 4914,5175 4917,5179
 4920,5183 4921,5185 4921,5186 4922,5188 4924,5193 4925,5198 4926,5202 4926,5206
 4926,5208"
	stroke="#000000" stroke-width="8px" stroke-linejoin="bevel"/>
<!-- Line -->
<!-- spline -->
<polyline points=" 5222,6115 5222,6116 5221,6120 5221,6126 5220,6130 5220,6131 5219,6133 5218,6136
 5216,6140 5213,6145 5210,6149 5208,6151 5206,6153 5202,6156 5198,6159 5196,6160
 5195,6160 5193,6161 5188,6163 5182,6164 5178,6165 5175,6165 5172,6165 5171,6165
 5167,6164 5161,6164 5157,6163 5156,6163 5154,6162 5151,6161 5147,6159 5143,6156
 5139,6153 5137,6151 5135,6149 5132,6145 5129,6141 5128,6139 5128,6138 5127,6136
 5125,6131 5123,6125 5123,6121 5122,6118 5122,6115 5122,6114 5123,6110 5124,6105
 5125,6101 5125,6100 5126,6098 5127,6095 5129,6091 5132,6086 5135,6082 5137,6080
 5139,6078 5143,6075 5147,6072 5149,6071 5151,6070 5156,6068 5161,6066 5166,6066
 5169,6065 5172,6065 5173,6065 5177,6066 5183,6067 5187,6068 5188,6068 5190,6069
 5193,6070 5197,6072 5202,6075 5206,6078 5208,6080 5210,6082 5213,6086 5216,6090
 5217,6092 5217,6093 5218,6095 5220,6100 5221,6105 5222,6109 5222,6113 5222,6115
"
	stroke="#000000" stroke-width="8px" stroke-linejoin="bevel"/>
<!-- Line -->
<!-- spline -->
<polyline points=" 5517,7024 5517,7025 5516,7029 5515,7034 5514,7038 5514,7039 5513,7041 5512,7044
 5510,7048 5507,7053 5504,7057 5502,7059 5500,7061 5496,7064 5492,7067 5490,7068
 5489,7068 5487,7069 5482,7071 5477,7073 5473,7073 5469,7074 5467,7074 5466,7074
 5462,7073 5456,7072 5452,7071 5451,7071 5449,7070 5446,7069 5442,7067 5437,7064
 5433,7061 5431,7059 5429,7057 5426,7053 5423,7049 5422,7047 5422,7046 5421,7044
 5419,7039 5418,7034 5417,7030 5417,7026 5417,7024 5417,7023 5418,7019 5418,7013
 5419,7009 5419,7008 5420,7006 5421,7003 5423,6999 5426,6994 5429,6990 5431,6988
 5433,6986 5437,6983 5441,6980 5443,6979 5444,6979 5446,6978 5451,6976 5457,6975
 5461,6974 5464,6974 5467,6974 5468,6974 5472,6975 5477,6975 5481,6976 5482,6976
 5484,6977 5487,6978 5491,6980 5496,6983 5500,6986 5502,6988 5504,6990 5507,6994
 5510,6998 5511,7000 5511,7001 5512,7003 5514,7008 5516,7014 5516,7018 5517,7021
 5517,7024"
	stroke="#000000" stroke-width="8px" stroke-linejoin="bevel"/>
<!-- Line -->
<!-- spline -->
<polyline points=" 5811,7688 5811,7689 5810,7693 5810,7698 5809,7702 5809,7703 5808,7705 5806,7708
 5804,7712 5801,7717 5798,7721 5797,7723 5796,7723 5795,7725 5791,7728 5787,7731
 5785,7732 5784,7732 5782,7733 5777,7735 5771,7737 5767,7737 5764,7738 5761,7738
 5760,7738 5756,7737 5750,7736 5746,7735 5745,7735 5743,7734 5740,7733 5736,7731
 5732,7728 5728,7725 5726,7723 5724,7721 5721,7717 5718,7713 5717,7711 5717,7710
 5716,7708 5714,7703 5712,7698 5712,7694 5711,7690 5711,7688 5711,7687 5712,7683
 5713,7677 5714,7673 5714,7672 5715,7670 5716,7667 5718,7663 5721,7658 5724,7654
 5726,7652 5728,7650 5732,7647 5736,7644 5738,7643 5740,7642 5745,7640 5750,7639
 5755,7638 5758,7638 5761,7638 5762,7638 5766,7639 5772,7639 5776,7640 5777,7640
 5779,7641 5783,7642 5786,7644 5791,7647 5795,7650 5796,7652 5797,7652 5798,7654
 5801,7658 5804,7662 5805,7664 5806,7665 5807,7667 5809,7672 5810,7678 5811,7682
 5811,7685 5811,7688"
	stroke="#000000" stroke-width="8px" stroke-linejoin="bevel"/>
<!-- Line -->
<!-- spline -->
<polyline points=" 6106,7932 6106,7933 6105,7937 6104,7943 6103,7947 6103,7948 6102,7950 6101,7953
 6099,7957 6096,7961 6093,7965 6091,7967 6089,7969 6085,7972 6081,7975 6079,7976
 6078,7976 6076,7977 6071,7979 6066,7981 6062,7981 6058,7982 6056,7982 6055,7982
 6051,7981 6045,7980 6041,7979 6040,7979 6038,7978 6035,7977 6031,7975 6026,7972
 6022,7969 6020,7967 6018,7965 6015,7961 6012,7957 6011,7955 6010,7953 6008,7948
 6007,7943 6006,7938 6006,7935 6006,7932 6006,7931 6007,7927 6007,7921 6008,7917
 6008,7916 6009,7914 6010,7910 6012,7907 6015,7902 6018,7898 6020,7897 6020,7896
 6022,7895 6026,7892 6030,7889 6032,7888 6033,7888 6035,7887 6040,7885 6046,7883
 6050,7883 6053,7882 6056,7882 6057,7882 6061,7883 6066,7884 6070,7885 6071,7885
 6073,7886 6076,7887 6080,7889 6085,7892 6089,7895 6091,7896 6091,7897 6093,7898
 6096,7902 6099,7906 6100,7908 6100,7909 6101,7911 6103,7916 6105,7922 6105,7926
 6106,7929 6106,7932"
	stroke="#000000" stroke-width="8px" stroke-linejoin="bevel"/>
<!-- Line -->
<!-- spline -->
<polyline points=" 6401,7688 6401,7689 6400,7693 6400,7698 6399,7702 6399,7703 6398,7705 6397,7708
 6395,7712 6392,7717 6389,7721 6387,7723 6385,7725 6381,7728 6377,7731 6375,7732
 6374,7732 6372,7733 6367,7735 6361,7737 6357,7737 6354,7738 6351,7738 6350,7738
 6346,7737 6341,7736 6337,7735 6336,7735 6334,7734 6331,7733 6327,7731 6322,7728
 6318,7725 6316,7723 6314,7721 6311,7717 6308,7713 6307,7711 6307,7710 6306,7708
 6304,7703 6302,7698 6302,7694 6301,7690 6301,7688 6301,7687 6302,7683 6303,7677
 6304,7673 6304,7672 6305,7670 6306,7667 6308,7663 6311,7658 6314,7654 6316,7652
 6318,7650 6322,7647 6326,7644 6328,7643 6329,7643 6331,7642 6336,7640 6341,7639
 6345,7638 6349,7638 6351,7638 6352,7638 6356,7639 6362,7639 6366,7640 6367,7640
 6369,7641 6372,7642 6376,7644 6381,7647 6385,7650 6387,7652 6389,7654 6392,7658
 6395,7662 6396,7664 6396,7665 6397,7667 6399,7672 6400,7678 6401,7682 6401,7685
 6401,7688"
	stroke="#000000" stroke-width="8px" stroke-linejoin="bevel"/>
<!-- Line -->
<!-- spline -->
<polyline points=" 6696,7024 6696,7025 6695,7029 6694,7034 6693,7038 6693,7039 6692,7041 6691,7044
 6689,7048 6686,7053 6683,7057 6681,7059 6679,7061 6675,7064 6671,7067 6669,7068
 6667,7069 6662,7071 6657,7073 6652,7073 6649,7074 6646,7074 6645,7074 6641,7073
 6635,7072 6631,7071 6630,7071 6628,7070 6625,7069 6621,7067 6616,7064 6612,7061
 6610,7059 6608,7057 6605,7053 6602,7049 6601,7047 6601,7046 6600,7044 6598,7039
 6597,7034 6596,7030 6596,7026 6596,7024 6596,7023 6597,7019 6597,7013 6598,7009
 6598,7008 6599,7006 6600,7003 6602,6999 6605,6994 6608,6990 6610,6988 6612,6986
 6616,6983 6620,6980 6622,6979 6623,6979 6625,6978 6630,6976 6636,6975 6640,6974
 6643,6974 6646,6974 6647,6974 6651,6975 6657,6975 6661,6976 6662,6976 6664,6977
 6667,6978 6671,6980 6675,6983 6679,6986 6681,6988 6683,6990 6686,6994 6689,6998
 6690,7000 6690,7001 6691,7003 6693,7008 6695,7014 6695,7018 6696,7021 6696,7024
"
	stroke="#000000" stroke-width="8px" stroke-linejoin="bevel"/>
<!-- Line -->
<!-- spline -->
<polyline points=" 6990,6117 6990,6118 6989,6122 6989,6127 6988,6131 6988,6132 6987,6134 6986,6137
 6984,6141 6981,6146 6978,6150 6976,6152 6974,6154 6970,6157 6966,6160 6964,6161
 6963,6161 6961,6162 6956,6164 6950,6166 6946,6166 6943,6167 6940,6167 6939,6167
 6935,6166 6930,6165 6926,6164 6925,6164 6923,6163 6920,6162 6916,6160 6911,6157
 6907,6154 6905,6152 6903,6150 6900,6146 6897,6142 6896,6140 6896,6139 6895,6137
 6893,6132 6891,6127 6891,6123 6890,6119 6890,6117 6890,6116 6891,6112 6892,6106
 6893,6102 6893,6101 6894,6099 6895,6096 6897,6092 6900,6087 6903,6083 6905,6081
 6907,6079 6911,6076 6915,6073 6917,6072 6918,6072 6920,6071 6925,6069 6930,6068
 6934,6067 6938,6067 6940,6067 6941,6067 6945,6068 6951,6068 6955,6069 6956,6069
 6958,6070 6961,6071 6965,6073 6970,6076 6974,6079 6976,6081 6978,6083 6981,6087
 6984,6091 6985,6093 6985,6094 6986,6096 6988,6101 6989,6107 6990,6111 6990,6114
 6990,6117"
	stroke="#000000" stroke-width="8px" stroke-linejoin="bevel"/>
<!-- Line -->
<!-- spline -->
<polyline points=" 7285,5208 7285,5209 7284,5213 7283,5219 7282,5223 7282,5224 7281,5226 7280,5229
 7278,5233 7275,5238 7272,5242 7270,5244 7268,5246 7264,5249 7260,5252 7258,5253
 7257,5253 7255,5254 7250,5256 7245,5257 7241,5258 7237,5258 7235,5258 7234,5258
 7230,5257 7224,5257 7220,5256 7219,5256 7217,5255 7214,5254 7210,5252 7205,5249
 7201,5246 7199,5244 7197,5242 7194,5238 7191,5234 7190,5232 7190,5231 7189,5229
 7187,5224 7186,5218 7185,5214 7185,5211 7185,5208 7185,5207 7186,5203 7186,5198
 7187,5194 7187,5193 7188,5191 7189,5188 7191,5184 7194,5179 7197,5175 7199,5173
 7201,5171 7205,5168 7209,5165 7211,5164 7212,5164 7214,5163 7219,5161 7225,5159
 7229,5159 7232,5158 7235,5158 7236,5158 7240,5159 7245,5160 7249,5161 7250,5161
 7252,5162 7255,5163 7259,5165 7264,5168 7268,5171 7270,5173 7272,5175 7275,5179
 7278,5183 7279,5185 7279,5186 7280,5188 7282,5193 7284,5198 7284,5202 7285,5206
 7285,5208"
	stroke="#000000" stroke-width="8px" stroke-linejoin="bevel"/>
<!-- Line -->
<!-- spline -->
<polyline points=" 7581,4544 7581,4545 7580,4549 7579,4555 7578,4559 7578,4560 7577,4562 7576,4565
 7574,4569 7571,4574 7568,4578 7566,4580 7564,4582 7560,4585 7556,4588 7554,4589
 7553,4589 7551,4590 7546,4592 7541,4593 7537,4594 7533,4594 7531,4594 7530,4594
 7526,4593 7520,4593 7516,4592 7515,4592 7513,4591 7510,4590 7506,4588 7501,4585
 7497,4582 7495,4580 7493,4578 7490,4574 7487,4570 7486,4568 7486,4567 7485,4565
 7483,4560 7482,4554 7481,4550 7481,4547 7481,4544 7481,4543 7482,4539 7482,4534
 7483,4530 7483,4529 7484,4527 7485,4524 7487,4520 7490,4515 7493,4511 7495,4509
 7497,4507 7501,4504 7505,4501 7507,4500 7508,4500 7510,4499 7515,4497 7521,4495
 7525,4495 7528,4494 7531,4494 7532,4494 7536,4495 7541,4496 7545,4497 7546,4497
 7548,4498 7551,4499 7555,4501 7560,4504 7564,4507 7566,4509 7568,4511 7571,4515
 7574,4519 7575,4521 7575,4522 7576,4524 7578,4529 7580,4534 7580,4538 7581,4542
 7581,4544"
	stroke="#000000" stroke-width="8px" stroke-linejoin="bevel"/>
<!-- Line -->
<!-- spline -->
<polyline points=" 7875,4301 7875,4302 7874,4306 7873,4312 7872,4316 7872,4317 7871,4319 7870,4322
 7868,4326 7865,4331 7862,4335 7861,4337 7860,4337 7859,4339 7855,4342 7851,4345
 7849,4346 7848,4346 7846,4347 7841,4349 7835,4350 7831,4351 7828,4351 7825,4351
 7824,4351 7820,4350 7814,4350 7810,4349 7809,4349 7807,4348 7803,4347 7800,4345
 7795,4342 7791,4339 7790,4337 7789,4337 7788,4335 7785,4331 7782,4327 7781,4325
 7781,4324 7780,4322 7778,4317 7776,4311 7776,4307 7775,4304 7775,4301 7775,4300
 7776,4296 7777,4291 7778,4287 7778,4286 7779,4284 7780,4281 7782,4277 7785,4272
 7788,4268 7789,4266 7790,4266 7791,4264 7795,4261 7799,4258 7801,4257 7802,4257
 7804,4256 7809,4254 7815,4252 7819,4252 7822,4251 7825,4251 7826,4251 7830,4252
 7836,4253 7840,4254 7841,4254 7843,4255 7847,4256 7850,4258 7855,4261 7859,4264
 7860,4266 7861,4266 7862,4268 7865,4272 7868,4276 7869,4278 7869,4279 7870,4281
 7872,4286 7874,4291 7874,4295 7875,4299 7875,4301"
	stroke="#000000" stroke-width="8px" stroke-linejoin="bevel"/>
<!-- Line -->
<!-- spline -->
<polyline points=" 8169,4544 8169,4545 8168,4549 8168,4555 8167,4559 8167,4560 8166,4562 8165,4565
 8163,4569 8160,4574 8157,4578 8155,4580 8153,4582 8149,4585 8145,4588 8143,4589
 8142,4589 8140,4590 8135,4592 8129,4593 8125,4594 8122,4594 8119,4594 8118,4594
 8114,4593 8109,4593 8105,4592 8104,4592 8102,4591 8099,4590 8095,4588 8090,4585
 8086,4582 8084,4580 8082,4578 8079,4574 8076,4570 8075,4568 8075,4567 8074,4565
 8072,4560 8070,4554 8070,4550 8069,4547 8069,4544 8069,4543 8070,4539 8071,4534
 8072,4530 8072,4529 8073,4527 8074,4524 8076,4520 8079,4515 8082,4511 8084,4509
 8086,4507 8090,4504 8094,4501 8096,4500 8097,4500 8099,4499 8104,4497 8109,4495
 8113,4495 8117,4494 8119,4494 8120,4494 8124,4495 8130,4496 8134,4497 8135,4497
 8137,4498 8140,4499 8144,4501 8149,4504 8153,4507 8155,4509 8157,4511 8160,4515
 8163,4519 8164,4521 8164,4522 8165,4524 8167,4529 8168,4534 8169,4538 8169,4542
 8169,4544"
	stroke="#000000" stroke-width="8px" stroke-linejoin="bevel"/>
<!-- Line -->
<!-- spline -->
<polyline points=" 8464,5208 8464,5209 8463,5213 8462,5219 8461,5223 8461,5224 8460,5226 8459,5229
 8457,5233 8454,5238 8451,5242 8449,5244 8447,5246 8443,5249 8439,5252 8437,5253
 8435,5254 8430,5256 8425,5257 8420,5258 8417,5258 8414,5258 8413,5258 8409,5257
 8403,5257 8399,5256 8398,5256 8396,5255 8392,5254 8389,5252 8384,5249 8380,5246
 8379,5244 8378,5244 8377,5242 8374,5238 8371,5234 8370,5232 8369,5231 8368,5229
 8366,5224 8365,5218 8364,5214 8364,5211 8364,5208 8364,5207 8365,5203 8365,5198
 8366,5194 8366,5193 8367,5191 8369,5188 8371,5184 8374,5179 8377,5175 8378,5173
 8379,5173 8380,5171 8384,5168 8388,5165 8390,5164 8391,5164 8393,5163 8398,5161
 8404,5159 8408,5159 8411,5158 8414,5158 8415,5158 8419,5159 8425,5160 8429,5161
 8430,5161 8432,5162 8435,5163 8439,5165 8443,5168 8447,5171 8449,5173 8451,5175
 8454,5179 8457,5183 8458,5185 8458,5186 8459,5188 8461,5193 8463,5198 8463,5202
 8464,5206 8464,5208"
	stroke="#000000" stroke-width="8px" stroke-linejoin="bevel"/>
<!-- Line -->
<!-- spline -->
<polyline points=" 8760,6115 8760,6116 8759,6120 8758,6126 8757,6130 8757,6131 8756,6133 8755,6136
 8753,6140 8750,6145 8747,6149 8745,6151 8743,6153 8739,6156 8735,6159 8733,6160
 8732,6160 8730,6161 8725,6163 8720,6164 8716,6165 8712,6165 8710,6165 8709,6165
 8705,6164 8699,6164 8695,6163 8694,6163 8692,6162 8689,6161 8685,6159 8680,6156
 8676,6153 8674,6151 8672,6149 8669,6145 8666,6141 8665,6139 8665,6138 8664,6136
 8662,6131 8661,6125 8660,6121 8660,6118 8660,6115 8660,6114 8661,6110 8661,6105
 8662,6101 8662,6100 8663,6098 8664,6095 8666,6091 8669,6086 8672,6082 8674,6080
 8676,6078 8680,6075 8684,6072 8686,6071 8687,6071 8689,6070 8694,6068 8700,6066
 8704,6066 8707,6065 8710,6065 8711,6065 8715,6066 8720,6067 8724,6068 8725,6068
 8727,6069 8730,6070 8734,6072 8739,6075 8743,6078 8745,6080 8747,6082 8750,6086
 8753,6090 8754,6092 8754,6093 8755,6095 8757,6100 8759,6105 8759,6109 8760,6113
 8760,6115"
	stroke="#000000" stroke-width="8px" stroke-linejoin="bevel"/>
<!-- Line -->
<!-- spline -->
<polyline points=" 9054,7024 9054,7025 9053,7029 9053,7034 9052,7038 9052,7039 9051,7041 9050,7044
 9048,7048 9045,7053 9042,7057 9040,7059 9038,7061 9034,7064 9030,7067 9028,7068
 9027,7068 9025,7069 9020,7071 9014,7073 9010,7073 9007,7074 9004,7074 9003,7074
 8999,7073 8993,7072 8989,7071 8988,7071 8986,7070 8983,7069 8979,7067 8975,7064
 8971,7061 8969,7059 8967,7057 8964,7053 8961,7049 8960,7047 8960,7046 8959,7044
 8957,7039 8955,7034 8955,7030 8954,7026 8954,7024 8954,7023 8955,7019 8956,7013
 8957,7009 8957,7008 8958,7006 8959,7003 8961,6999 8964,6994 8967,6990 8969,6988
 8971,6986 8975,6983 8979,6980 8981,6979 8983,6978 8988,6976 8993,6975 8998,6974
 9001,6974 9004,6974 9005,6974 9009,6975 9015,6975 9019,6976 9020,6976 9022,6977
 9025,6978 9029,6980 9034,6983 9038,6986 9040,6988 9042,6990 9045,6994 9048,6998
 9049,7000 9049,7001 9050,7003 9052,7008 9053,7014 9054,7018 9054,7021 9054,7024
"
	stroke="#000000" stroke-width="8px" stroke-linejoin="bevel"/>
<!-- Line -->
<!-- spline -->
<polyline points=" 9349,7688 9349,7689 9348,7693 9347,7698 9346,7702 9346,7703 9345,7705 9344,7708
 9342,7712 9339,7717 9336,7721 9334,7723 9332,7725 9328,7728 9324,7731 9322,7732
 9321,7732 9319,7733 9314,7735 9309,7737 9305,7737 9301,7738 9299,7738 9298,7738
 9294,7737 9288,7736 9284,7735 9283,7735 9281,7734 9278,7733 9274,7731 9269,7728
 9265,7725 9263,7723 9261,7721 9258,7717 9255,7713 9254,7711 9254,7710 9253,7708
 9251,7703 9250,7698 9249,7694 9249,7690 9249,7688 9249,7687 9250,7683 9250,7677
 9251,7673 9251,7672 9252,7670 9253,7667 9255,7663 9258,7658 9261,7654 9263,7652
 9265,7650 9269,7647 9273,7644 9275,7643 9276,7643 9278,7642 9283,7640 9289,7639
 9293,7638 9296,7638 9299,7638 9300,7638 9304,7639 9309,7639 9313,7640 9314,7640
 9316,7641 9319,7642 9323,7644 9328,7647 9332,7650 9334,7652 9336,7654 9339,7658
 9342,7662 9343,7664 9343,7665 9344,7667 9346,7672 9348,7678 9348,7682 9349,7685
 9349,7688"
	stroke="#000000" stroke-width="8px" stroke-linejoin="bevel"/>
<!-- Line -->
<!-- spline -->
<polyline points=" 9644,7932 9644,7933 9643,7937 9643,7943 9642,7947 9642,7948 9641,7950 9640,7953
 9638,7957 9635,7961 9632,7965 9630,7967 9628,7969 9624,7972 9620,7975 9618,7976
 9617,7976 9615,7977 9610,7979 9604,7981 9600,7981 9597,7982 9594,7982 9593,7982
 9589,7981 9584,7980 9580,7979 9579,7979 9577,7978 9574,7977 9570,7975 9565,7972
 9561,7969 9559,7967 9557,7965 9554,7961 9551,7957 9550,7955 9549,7953 9547,7948
 9545,7943 9545,7938 9544,7935 9544,7932 9544,7931 9545,7927 9546,7921 9547,7917
 9547,7916 9548,7914 9549,7910 9551,7907 9554,7902 9557,7898 9559,7897 9559,7896
 9561,7895 9565,7892 9569,7889 9571,7888 9572,7888 9574,7887 9579,7885 9584,7883
 9588,7883 9592,7882 9594,7882 9595,7882 9599,7883 9605,7884 9609,7885 9610,7885
 9612,7886 9615,7887 9619,7889 9624,7892 9628,7895 9630,7896 9630,7897 9632,7898
 9635,7902 9638,7906 9639,7908 9639,7909 9640,7911 9642,7916 9643,7922 9644,7926
 9644,7929 9644,7932"
	stroke="#000000" stroke-width="8px" stroke-linejoin="bevel"/>
<!-- Line -->
<!-- polyline -->
<polyline points=" 750,6117 750,4301"
	stroke="#000000" stroke-width="15px" stroke-linejoin="round"/>
<!-- Line -->
<!-- polyline -->
<polyline points=" 1044,6117 1044,4544"
	stroke="#000000" stroke-width="15px" stroke-linejoin="round"/>
<!-- Line -->
<!-- polyline -->
<polyline points=" 1339,6117 1339,5208"
	stroke="#000000" stroke-width="15px" stroke-linejoin="round"/>
<!-- Line -->
<!-- spline -->
<polyline points=" 1650,6117 1650,6119 1649,6120 1649,6122 1649,6123 1649,6124 1648,6125 1647,6127
 1646,6128 1645,6129 1644,6129 1643,6130 1642,6131 1641,6131 1639,6132 1637,6132
 1635,6133 1634,6133 1633,6133 1631,6133 1630,6132 1628,6132 1627,6132 1627,6131
 1625,6131 1624,6130 1623,6129 1622,6129 1621,6128 1620,6127 1619,6126 1619,6125
 1619,6124 1618,6122 1618,6120 1617,6119 1617,6118 1617,6117 1617,6115 1618,6113
 1618,6111 1618,6110 1619,6108 1620,6107 1621,6106 1622,6105 1623,6104 1624,6103
 1625,6102 1626,6102 1627,6102 1628,6101 1630,6101 1631,6100 1632,6100 1633,6100
 1635,6100 1637,6101 1639,6101 1640,6101 1642,6102 1643,6103 1644,6104 1645,6105
 1646,6106 1647,6107 1648,6108 1648,6109 1649,6111 1649,6113 1650,6115 1650,6116
 1650,6117" fill="#000000"
	stroke="#000000" stroke-width="8px" stroke-linejoin="bevel"/>
<!-- Line -->
<!-- polyline -->
<polyline points=" 1929,6117 1929,7024"
	stroke="#000000" stroke-width="15px" stroke-linejoin="round"/>
<!-- Line -->
<!-- polyline -->
<polyline points=" 2224,6117 2224,7688"
	stroke="#000000" stroke-width="15px" stroke-linejoin="round"/>
<!-- Line -->
<!-- polyline -->
<polyline points=" 2518,6117 2518,7932"
	stroke="#000000" stroke-width="15px" stroke-linejoin="round"/>
<!-- Line -->
<!-- polyline -->
<polyline points=" 2812,6117 2812,7688"
	stroke="#000000" stroke-width="15px" stroke-linejoin="round"/>
<!-- Line -->
<!-- polyline -->
<polyline points=" 3108,6117 3108,7024"
	stroke="#000000" stroke-width="15px" stroke-linejoin="round"/>
<!-- Line -->
<!-- spline -->
<polyline points=" 3419,6117 3419,6119 3419,6120 3419,6122 3419,6123 3418,6124 3417,6125 3416,6127
 3415,6128 3415,6129 3414,6129 3413,6130 3412,6131 3411,6131 3410,6131 3408,6132
 3406,6132 3405,6133 3404,6133 3403,6133 3401,6133 3400,6132 3398,6132 3397,6132
 3396,6131 3395,6131 3393,6130 3392,6129 3391,6129 3390,6128 3389,6127 3388,6126
 3388,6125 3388,6124 3387,6122 3387,6120 3386,6119 3386,6118 3386,6117 3386,6115
 3387,6113 3387,6111 3387,6110 3388,6108 3389,6107 3390,6106 3391,6105 3392,6104
 3393,6103 3395,6102 3396,6102 3398,6101 3400,6101 3401,6100 3402,6100 3403,6100
 3405,6100 3406,6101 3408,6101 3409,6101 3410,6101 3411,6102 3413,6103 3414,6104
 3415,6105 3415,6106 3416,6107 3417,6108 3418,6109 3419,6111 3419,6113 3419,6115
 3419,6116 3419,6117" fill="#000000"
	stroke="#000000" stroke-width="8px" stroke-linejoin="bevel"/>
<!-- Line -->
<!-- polyline -->
<polyline points=" 3697,6117 3697,5208"
	stroke="#000000" stroke-width="15px" stroke-linejoin="round"/>
<!-- Line -->
<!-- polyline -->
<polyline points=" 3992,6117 3992,4544"
	stroke="#000000" stroke-width="15px" stroke-linejoin="round"/>
<!-- Line -->
<!-- polyline -->
<polyline points=" 4287,6117 4287,4301"
	stroke="#000000" stroke-width="15px" stroke-linejoin="round"/>
<!-- Line -->
<!-- polyline -->
<polyline points=" 4582,6117 4582,4544"
	stroke="#000000" stroke-width="15px" stroke-linejoin="round"/>
<!-- Line -->
<!-- polyline -->
<polyline points=" 4876,6117 4876,5208"
	stroke="#000000" stroke-width="15px" stroke-linejoin="round"/>
<!-- Line -->
<!-- polyline -->
<polyline points=" 5172,6117 5172,6115"
	stroke="#000000" stroke-width="8px" stroke-linejoin="round"/>
<!-- Line -->
<!-- polyline -->
<polyline points=" 5467,6117 5467,7024"
	stroke="#000000" stroke-width="15px" stroke-linejoin="round"/>
<!-- Line -->
<!-- polyline -->
<polyline points=" 5761,6117 5761,7688"
	stroke="#000000" stroke-width="15px" stroke-linejoin="round"/>
<!-- Line -->
<!-- polyline -->
<polyline points=" 6056,6117 6056,7932"
	stroke="#000000" stroke-width="15px" stroke-linejoin="round"/>
<!-- Line -->
<!-- polyline -->
<polyline points=" 6351,6117 6351,7688"
	stroke="#000000" stroke-width="15px" stroke-linejoin="round"/>
<!-- Line -->
<!-- polyline -->
<polyline points=" 6646,6117 6646,7024"
	stroke="#000000" stroke-width="15px" stroke-linejoin="round"/>
<!-- Line -->
<!-- spline -->
<polyline points=" 6957,6117 6957,6119 6956,6120 6956,6122 6956,6123 6956,6124 6955,6125 6954,6127
 6953,6128 6952,6129 6951,6129 6950,6130 6949,6131 6948,6131 6946,6132 6944,6132
 6942,6133 6941,6133 6940,6133 6938,6133 6937,6132 6935,6132 6934,6132 6933,6131
 6932,6131 6930,6130 6929,6129 6928,6129 6928,6128 6927,6127 6926,6126 6925,6125
 6925,6124 6924,6122 6924,6120 6924,6119 6924,6118 6924,6117 6924,6115 6924,6113
 6924,6111 6924,6110 6925,6110 6926,6108 6927,6107 6928,6106 6928,6105 6929,6104
 6930,6103 6931,6102 6932,6102 6933,6102 6935,6101 6937,6101 6938,6100 6939,6100
 6940,6100 6942,6100 6944,6101 6946,6101 6947,6101 6949,6102 6950,6103 6951,6104
 6952,6105 6953,6106 6954,6107 6955,6108 6955,6109 6956,6111 6956,6113 6957,6115
 6957,6116 6957,6117" fill="#000000"
	stroke="#000000" stroke-width="8px" stroke-linejoin="bevel"/>
<!-- Line -->
<!-- polyline -->
<polyline points=" 7235,6117 7235,5208"
	stroke="#000000" stroke-width="15px" stroke-linejoin="round"/>
<!-- Line -->
<!-- polyline -->
<polyline points=" 7531,6117 7531,4544"
	stroke="#000000" stroke-width="15px" stroke-linejoin="round"/>
<!-- Line -->
<!-- polyline -->
<polyline points=" 7825,6117 7825,4301"
	stroke="#000000" stroke-width="15px" stroke-linejoin="round"/>
<!-- Line -->
<!-- polyline -->
<polyline points=" 8119,6117 8119,4544"
	stroke="#000000" stroke-width="15px" stroke-linejoin="round"/>
<!-- Line -->
<!-- polyline -->
<polyline points=" 8414,6117 8414,5208"
	stroke="#000000" stroke-width="15px" stroke-linejoin="round"/>
<!-- Line -->
<!-- polyline -->
<polyline points=" 8710,6117 8710,6115"
	stroke="#000000" stroke-width="8px" stroke-linejoin="round"/>
<!-- Line -->
<!-- polyline -->
<polyline points=" 9004,6117 9004,7024"
	stroke="#000000" stroke-width="15px" stroke-linejoin="round"/>
<!-- Line -->
<!-- polyline -->
<polyline points=" 9299,6117 9299,7688"
	stroke="#000000" stroke-width="15px" stroke-linejoin="round"/>
<!-- Line -->
<!-- polyline -->
<polyline points=" 9594,6117 9594,7932"
	stroke="#000000" stroke-width="15px" stroke-linejoin="round"/>
<!-- Line -->
<!-- polyline -->
<defs>
<clipPath id="cp1">
	<path clip-rule="evenodd" d="M 513,3594 H 10062 V 8112 H 513 z
		M 9880,6087 9910,6117 9880,6147 10057,6124 10057,6110z"/>
</clipPath>
</defs>
<polyline points=" 525,6117 10050,6117" clip-path="url(#cp1)"
	stroke="#000000" stroke-width="8px" stroke-linejoin="round"/>
<!-- Forward arrow to point 10050,6117 -->
<polygon points=" 9880,6147 10030,6117 9880,6087 9910,6117 9880,6147"
	stroke="#000000" stroke-width="8px" stroke-miterlimit="8" fill="#000000"/>
<!-- Line -->
<!-- polyline -->
<polyline points=" 779,4303 808,4311 837,4324 867,4340 897,4363 926,4389 956,4421 985,4457 1015,4499
 1044,4544 1074,4593 1103,4647 1132,4706 1162,4767 1192,4832 1221,4901 1250,4974
 1281,5049 1310,5128 1339,5208 1368,5292 1397,5378 1428,5465 1457,5556 1486,5646
 1515,5739 1546,5832 1575,5926 1604,6021 1633,6117 1664,6211 1693,6306 1722,6400
 1751,6493 1781,6586 1811,6676 1840,6767 1869,6854 1899,6940 1929,7024 1958,7104
 1987,7183 2017,7258 2046,7331 2076,7400 2106,7465 2135,7526 2164,7585 2194,7639
 2224,7688 2253,7733 2282,7775 2312,7811 2342,7843 2371,7869 2400,7892 2429,7908
 2460,7921 2489,7929 2518,7932 2547,7929 2578,7921 2607,7908 2636,7892 2665,7869
 2694,7843 2725,7811 2754,7775 2783,7733 2812,7688 2843,7639 2872,7585 2901,7526
 2931,7465 2961,7400 2990,7331 3019,7258 3049,7183 3078,7104 3108,7024 3137,6940
 3167,6854 3196,6767 3226,6676 3256,6586 3285,6493 3314,6400 3343,6306 3374,6211
 3403,6117 3432,6021 3461,5926 3492,5832 3521,5739 3550,5646 3579,5556 3608,5465
 3639,5378 3668,5292 3697,5208 3726,5128 3757,5049 3786,4974 3815,4901 3844,4832
 3875,4767 3904,4706 3933,4647 3962,4593 3992,4544 4022,4499 4051,4457 4081,4421
 4110,4389 4140,4363 4169,4340 4199,4324 4228,4311 4257,4303 4287,4301 4317,4303
 4346,4311 4375,4324 4406,4340 4435,4363 4464,4389 4493,4421 4524,4457 4553,4499
 4582,4544 4611,4593 4640,4647 4671,4706 4700,4767 4729,4832 4758,4901 4789,4974
 4818,5049 4847,5128 4876,5208 4906,5292 4936,5378 4965,5465 4994,5556 5024,5646
 5054,5739 5083,5832 5112,5926 5142,6021 5172,6115 5201,6211 5231,6306 5260,6400
 5289,6493 5319,6586 5349,6676 5378,6767 5407,6854 5437,6940 5467,7024 5496,7104
 5525,7183 5554,7258 5585,7331 5614,7400 5643,7465 5672,7526 5703,7585 5732,7639
 5761,7688 5790,7733 5819,7775 5850,7811 5879,7843 5908,7869 5937,7892 5968,7908
 5997,7921 6026,7929 6056,7932 6086,7929 6115,7921 6144,7908 6174,7892 6203,7869
 6233,7843 6262,7811 6292,7775 6321,7733 6351,7688 6381,7639 6410,7585 6439,7526
 6468,7465 6499,7400 6528,7331 6557,7258 6586,7183 6617,7104 6646,7024 6675,6940
 6704,6854 6735,6767 6764,6676 6793,6586 6822,6493 6851,6400 6882,6306 6911,6211
 6940,6117 6969,6021 7000,5926 7029,5832 7058,5739 7087,5646 7117,5556 7147,5465
 7176,5378 7206,5292 7235,5208 7265,5128 7294,5049 7324,4974 7353,4901 7383,4832
 7412,4767 7442,4706 7471,4647 7500,4593 7531,4544 7560,4499 7589,4457 7618,4421
 7649,4389 7678,4363 7707,4340 7736,4324 7765,4311 7796,4303 7825,4301 7854,4303
 7883,4311 7914,4324 7943,4340 7972,4363 8001,4389 8031,4421 8061,4457 8090,4499
 8119,4544 8149,4593 8179,4647 8208,4706 8237,4767 8267,4832 8297,4901 8326,4974
 8356,5049 8385,5128 8414,5208 8444,5292 8474,5378 8503,5465 8532,5556 8562,5646
 8592,5739 8621,5832 8650,5926 8679,6021 8710,6115 8739,6211 8768,6306 8797,6400
 8828,6493 8857,6586 8886,6676 8915,6767 8946,6854 8975,6940 9004,7024 9033,7104
 9062,7183 9093,7258 9122,7331 9151,7400 9181,7465 9211,7526 9240,7585 9269,7639
 9299,7688 9328,7733 9358,7775 9387,7811 9417,7843 9446,7869 9476,7892 9506,7908
 9535,7921 9564,7929 9594,7932"
	stroke="#000000" stroke-width="8px" stroke-linejoin="round" stroke-dasharray="40 40"/>
<!-- Line -->
<!-- polyline -->
<polyline points=" 750,4301 779,4303"
	stroke="#000000" stroke-width="8px" stroke-linejoin="round"/>
<!-- Line -->
<polyline points=" 4281,6212 4288,6037"
	stroke="#000000" stroke-width="8px"/>
<!-- Text -->
<text xml:space="preserve" x="900" y="3825" fill="#000000" font-family="Times" font-style="italic" font-weight="normal" font-size="216" text-anchor="start">x<tspan font-size="144" baseline-shift="sub">1</tspan>[n]</text>
<!-- Text -->
<text xml:space="preserve" x="9900" y="6000" fill="#000000" font-family="Times" font-style="italic" font-weight="normal" font-size="216" text-anchor="start">n</text>
</g>
</svg>
