<?xml version="1.0" encoding="UTF-8" standalone="no"?>
<!-- Creator: fig2dev Version 3.2.8b -->
<!-- CreationDate: 2025-10-30 19:43:16 -->
<!-- Magnification: 1 -->
<svg	xmlns="http://www.w3.org/2000/svg"
	xmlns:xlink="http://www.w3.org/1999/xlink"
	width="728pt" height="272pt"
	viewBox="513 3594 12121 4518">
<g fill="none">
<!-- Line -->
<!-- polyline -->
<defs>
<clipPath id="cp0">
	<path clip-rule="evenodd" d="M 513,3594 H 12634 V 8112 H 513 z
		M 720,3871 750,3841 780,3871 757,3694 743,3694z"/>
</clipPath>
</defs>
<polyline points=" 750,8100 750,3701" clip-path="url(#cp0)"
	stroke="#000000" stroke-width="8px" stroke-linejoin="round"/>
<!-- Forward arrow to point 750,3701 -->
<polygon points=" 780,3871 750,3721 720,3871 750,3841 780,3871"
	stroke="#000000" stroke-width="8px" stroke-miterlimit="8" fill="#000000"/>
<!-- Text -->
<!-- text -->
<text xml:space="preserve" x="704" y="6375" fill="#000000" font-family="Times" font-style="italic" font-weight="normal" font-size="168" text-anchor="start">0</text>
<!-- Text -->
<!-- text -->
<text xml:space="preserve" x="2111" y="6000" fill="#000000" font-family="Times" font-style="italic" font-weight="normal" font-size="168" text-anchor="start">5</text>
<!-- Line -->
<!-- polyline -->
<polyline points=" 4970,4471 4970,4583"
	stroke="#000000" stroke-width="8px" stroke-linejoin="round"/>
<!-- Text -->
<!-- text -->
<text xml:space="preserve" x="3493" y="6000" fill="#000000" font-family="Times" font-style="italic" font-weight="normal" font-size="168" text-anchor="start">10</text>
<!-- Text -->
<!-- text -->
<text xml:space="preserve" x="6290" y="6000" fill="#000000" font-family="Times" font-style="italic" font-weight="normal" font-size="168" text-anchor="start">20</text>
<!-- Text -->
<!-- text -->
<text xml:space="preserve" x="4831" y="6405" fill="#000000" font-family="Times" font-style="italic" font-weight="normal" font-size="168" text-anchor="start">15</text>
<!-- Text -->
<!-- text -->
<text xml:space="preserve" x="7669" y="6405" fill="#000000" font-family="Times" font-style="italic" font-weight="normal" font-size="168" text-anchor="start">25</text>
<!-- Text -->
<!-- text -->
<text xml:space="preserve" x="9482" y="6378" fill="#000000" font-family="Times" font-style="italic" font-weight="normal" font-size="168" text-anchor="middle">N<tspan font-size="112" baseline-shift="sub">0</tspan>=31</text>
<!-- Line -->
<!-- polyline -->
<polyline points=" 10604,7776 10604,7663"
	stroke="#000000" stroke-width="8px" stroke-linejoin="round"/>
<!-- Text -->
<!-- text -->
<text xml:space="preserve" x="600" y="7851" fill="#000000" font-family="Times" font-style="italic" font-weight="normal" font-size="168" text-anchor="end">-1</text>
<!-- Text -->
<!-- text -->
<text xml:space="preserve" x="600" y="4540" fill="#000000" font-family="Times" font-style="italic" font-weight="normal" font-size="168" text-anchor="end">1</text>
<!-- Line -->
<!-- spline -->
<polyline points=" 798,4471 798,4472 797,4476 796,4482 795,4486 795,4487 794,4489 793,4492 791,4496
 788,4500 785,4504 783,4506 781,4508 777,4511 773,4514 771,4515 769,4516 764,4518
 759,4520 754,4520 751,4521 748,4521 747,4521 743,4520 737,4519 733,4518 732,4518
 730,4517 726,4516 723,4514 718,4511 714,4508 713,4506 712,4506 711,4504 708,4500
 705,4496 704,4494 703,4494 702,4492 700,4487 699,4482 698,4477 698,4474 698,4471
 698,4470 699,4466 699,4460 700,4456 700,4455 701,4453 703,4450 705,4446 708,4441
 711,4437 712,4435 713,4435 714,4433 718,4430 722,4427 724,4426 725,4426 727,4425
 732,4423 738,4422 742,4421 745,4421 748,4421 749,4421 753,4422 759,4422 763,4423
 764,4423 766,4424 769,4425 773,4427 777,4430 781,4433 783,4435 785,4437 788,4441
 791,4445 792,4447 792,4448 793,4450 795,4455 797,4461 797,4465 798,4468 798,4471
"
	stroke="#000000" stroke-width="8px" stroke-linejoin="bevel"/>
<!-- Line -->
<!-- spline -->
<polyline points=" 1078,4985 1078,4986 1077,4990 1077,4995 1076,4999 1076,5000 1075,5002 1074,5005
 1072,5009 1069,5014 1066,5018 1064,5020 1062,5022 1058,5025 1054,5028 1052,5029
 1051,5029 1049,5030 1044,5032 1038,5034 1034,5034 1031,5035 1028,5035 1027,5035
 1023,5034 1018,5033 1014,5032 1013,5032 1011,5031 1008,5030 1004,5028 999,5025
 995,5022 993,5020 991,5018 988,5014 985,5010 984,5008 984,5007 983,5005 981,5000
 979,4995 979,4991 978,4987 978,4985 978,4984 979,4980 980,4974 981,4970 981,4969
 982,4967 983,4964 985,4960 988,4955 991,4951 993,4949 995,4947 999,4944 1003,4941
 1005,4940 1006,4940 1008,4939 1013,4937 1018,4936 1022,4935 1026,4935 1028,4935
 1029,4935 1033,4936 1039,4936 1043,4937 1044,4937 1046,4938 1049,4939 1053,4941
 1058,4944 1062,4947 1064,4949 1066,4951 1069,4955 1072,4959 1073,4961 1073,4962
 1074,4964 1076,4969 1077,4975 1078,4979 1078,4982 1078,4985"
	stroke="#000000" stroke-width="8px" stroke-linejoin="bevel"/>
<!-- Line -->
<!-- spline -->
<polyline points=" 1359,6207 1359,6208 1358,6212 1358,6218 1357,6222 1357,6223 1356,6225 1355,6228
 1353,6232 1350,6236 1347,6240 1345,6242 1343,6244 1339,6247 1335,6250 1333,6251
 1332,6251 1330,6252 1325,6254 1319,6256 1315,6256 1312,6257 1309,6257 1308,6257
 1304,6256 1299,6255 1295,6254 1294,6254 1292,6253 1289,6252 1285,6250 1280,6247
 1276,6244 1274,6242 1272,6240 1269,6236 1266,6232 1265,6230 1264,6228 1262,6223
 1260,6218 1260,6213 1259,6210 1259,6207 1259,6206 1260,6202 1261,6196 1262,6192
 1262,6191 1263,6189 1264,6185 1266,6182 1269,6177 1272,6173 1274,6172 1274,6171
 1276,6170 1280,6167 1284,6164 1286,6163 1287,6163 1289,6162 1294,6160 1299,6158
 1303,6158 1307,6157 1309,6157 1310,6157 1314,6158 1320,6159 1324,6160 1325,6160
 1327,6161 1330,6162 1334,6164 1339,6167 1343,6170 1345,6171 1345,6172 1347,6173
 1350,6177 1353,6181 1354,6183 1354,6184 1355,6186 1357,6191 1358,6197 1359,6201
 1359,6204 1359,6207"
	stroke="#000000" stroke-width="8px" stroke-linejoin="bevel"/>
<!-- Line -->
<!-- spline -->
<polyline points=" 1641,7376 1641,7377 1640,7381 1640,7387 1639,7391 1639,7392 1638,7394 1637,7397
 1635,7401 1632,7406 1629,7410 1627,7412 1625,7414 1621,7417 1617,7420 1615,7421
 1614,7421 1612,7422 1607,7424 1601,7425 1597,7426 1594,7426 1591,7426 1590,7426
 1586,7425 1581,7425 1577,7424 1576,7424 1574,7423 1571,7422 1567,7420 1562,7417
 1558,7414 1556,7412 1554,7410 1551,7406 1548,7402 1547,7400 1547,7399 1546,7397
 1544,7392 1542,7386 1542,7382 1541,7379 1541,7376 1541,7375 1542,7371 1543,7366
 1544,7362 1544,7361 1545,7359 1546,7356 1548,7352 1551,7347 1554,7343 1556,7341
 1558,7339 1562,7336 1566,7333 1568,7332 1569,7332 1571,7331 1576,7329 1581,7327
 1585,7327 1589,7326 1591,7326 1592,7326 1596,7327 1602,7328 1606,7329 1607,7329
 1609,7330 1612,7331 1616,7333 1621,7336 1625,7339 1627,7341 1629,7343 1632,7347
 1635,7351 1636,7353 1636,7354 1637,7356 1639,7361 1640,7366 1641,7370 1641,7374
 1641,7376"
	stroke="#000000" stroke-width="8px" stroke-linejoin="bevel"/>
<!-- Line -->
<!-- spline -->
<polyline points=" 1923,7767 1923,7768 1922,7772 1922,7777 1921,7781 1921,7782 1920,7784 1919,7787
 1917,7791 1914,7796 1911,7800 1909,7802 1907,7804 1903,7807 1899,7810 1897,7811
 1896,7811 1894,7812 1889,7814 1883,7816 1879,7816 1876,7817 1873,7817 1872,7817
 1868,7816 1862,7815 1858,7814 1857,7814 1855,7813 1852,7812 1848,7810 1844,7807
 1840,7804 1838,7802 1836,7800 1833,7796 1830,7792 1829,7790 1829,7789 1828,7787
 1826,7782 1824,7777 1824,7773 1823,7769 1823,7767 1823,7766 1824,7762 1825,7756
 1826,7752 1826,7751 1827,7749 1828,7746 1830,7742 1833,7737 1836,7733 1838,7731
 1840,7729 1844,7726 1848,7723 1850,7722 1852,7721 1857,7719 1862,7718 1867,7717
 1870,7717 1873,7717 1874,7717 1878,7718 1884,7718 1888,7719 1889,7719 1891,7720
 1894,7721 1898,7723 1903,7726 1907,7729 1909,7731 1911,7733 1914,7737 1917,7741
 1918,7743 1918,7744 1919,7746 1921,7751 1922,7757 1923,7761 1923,7764 1923,7767
"
	stroke="#000000" stroke-width="8px" stroke-linejoin="bevel"/>
<!-- Line -->
<!-- spline -->
<polyline points=" 2204,7135 2204,7136 2203,7140 2202,7145 2201,7149 2201,7150 2200,7152 2199,7155
 2197,7159 2194,7164 2191,7168 2189,7170 2187,7172 2183,7175 2179,7178 2177,7179
 2175,7180 2170,7182 2165,7184 2160,7184 2157,7185 2154,7185 2153,7185 2149,7184
 2143,7183 2139,7182 2138,7182 2136,7181 2133,7180 2129,7178 2124,7175 2120,7172
 2118,7170 2116,7168 2113,7164 2110,7160 2109,7158 2109,7157 2108,7155 2106,7150
 2105,7145 2104,7141 2104,7137 2104,7135 2104,7134 2105,7130 2105,7124 2106,7120
 2106,7119 2107,7117 2108,7114 2110,7110 2113,7105 2116,7101 2118,7099 2120,7097
 2124,7094 2128,7091 2130,7090 2131,7090 2133,7089 2138,7087 2144,7086 2148,7085
 2151,7085 2154,7085 2155,7085 2159,7086 2165,7086 2169,7087 2170,7087 2172,7088
 2175,7089 2179,7091 2183,7094 2187,7097 2189,7099 2191,7101 2194,7105 2197,7109
 2198,7111 2198,7112 2199,7114 2201,7119 2203,7125 2203,7129 2204,7132 2204,7135
"
	stroke="#000000" stroke-width="8px" stroke-linejoin="bevel"/>
<!-- Line -->
<!-- spline -->
<polyline points=" 2486,5872 2486,5873 2485,5877 2484,5883 2483,5887 2483,5888 2482,5890 2481,5893
 2479,5897 2476,5902 2473,5906 2471,5908 2469,5910 2465,5913 2461,5916 2459,5917
 2457,5918 2452,5920 2447,5921 2442,5922 2439,5922 2436,5922 2435,5922 2431,5921
 2425,5921 2421,5920 2420,5920 2418,5919 2415,5918 2411,5916 2406,5913 2402,5910
 2400,5908 2398,5906 2395,5902 2392,5898 2391,5896 2391,5895 2390,5893 2388,5888
 2387,5882 2386,5878 2386,5875 2386,5872 2386,5871 2387,5867 2387,5861 2388,5857
 2388,5856 2389,5854 2390,5851 2392,5847 2395,5843 2398,5839 2400,5837 2402,5835
 2406,5832 2410,5829 2412,5828 2413,5828 2415,5827 2420,5825 2426,5823 2430,5823
 2433,5822 2436,5822 2437,5822 2441,5823 2447,5824 2451,5825 2452,5825 2454,5826
 2457,5827 2461,5829 2465,5832 2469,5835 2471,5837 2473,5839 2476,5843 2479,5847
 2480,5849 2481,5851 2483,5856 2485,5861 2485,5866 2486,5869 2486,5872"
	stroke="#000000" stroke-width="8px" stroke-linejoin="bevel"/>
<!-- Line -->
<!-- spline -->
<polyline points=" 2768,4767 2768,4768 2767,4772 2766,4777 2765,4781 2765,4782 2764,4784 2763,4787
 2761,4791 2758,4796 2755,4800 2753,4802 2751,4804 2747,4807 2743,4810 2741,4811
 2739,4812 2734,4814 2729,4816 2724,4816 2721,4817 2718,4817 2717,4817 2713,4816
 2707,4815 2703,4814 2702,4814 2700,4813 2697,4812 2693,4810 2688,4807 2684,4804
 2682,4802 2680,4800 2677,4796 2674,4792 2673,4790 2673,4789 2672,4787 2670,4782
 2669,4777 2668,4773 2668,4769 2668,4767 2668,4766 2669,4762 2669,4756 2670,4752
 2670,4751 2671,4749 2672,4746 2674,4742 2677,4737 2680,4733 2682,4731 2684,4729
 2688,4726 2692,4723 2694,4722 2695,4722 2697,4721 2702,4719 2708,4718 2712,4717
 2715,4717 2718,4717 2719,4717 2723,4718 2729,4718 2733,4719 2734,4719 2736,4720
 2739,4721 2743,4723 2747,4726 2751,4729 2753,4731 2755,4733 2758,4737 2761,4741
 2762,4743 2762,4744 2763,4746 2765,4751 2767,4757 2767,4761 2768,4764 2768,4767
"
	stroke="#000000" stroke-width="8px" stroke-linejoin="bevel"/>
<!-- Line -->
<!-- spline -->
<polyline points=" 3050,4504 3050,4505 3049,4509 3048,4515 3047,4519 3047,4520 3046,4522 3045,4525
 3043,4529 3040,4534 3037,4538 3035,4540 3033,4542 3029,4545 3025,4548 3023,4549
 3022,4549 3020,4550 3015,4552 3010,4553 3006,4554 3002,4554 3000,4554 2999,4554
 2995,4553 2989,4553 2985,4552 2984,4552 2982,4551 2979,4550 2975,4548 2970,4545
 2966,4542 2964,4540 2962,4538 2959,4534 2956,4530 2955,4528 2955,4527 2954,4525
 2952,4520 2951,4514 2950,4510 2950,4507 2950,4504 2950,4503 2951,4499 2951,4493
 2952,4489 2952,4488 2953,4486 2954,4483 2956,4479 2959,4475 2962,4471 2964,4469
 2966,4467 2970,4464 2974,4461 2976,4460 2977,4460 2979,4459 2984,4457 2990,4455
 2994,4455 2997,4454 3000,4454 3001,4454 3005,4455 3010,4456 3014,4457 3015,4457
 3017,4458 3020,4459 3024,4461 3029,4464 3033,4467 3035,4469 3037,4471 3040,4475
 3043,4479 3044,4481 3045,4483 3047,4488 3049,4493 3049,4498 3050,4501 3050,4504
"
	stroke="#000000" stroke-width="8px" stroke-linejoin="bevel"/>
<!-- Line -->
<!-- spline -->
<polyline points=" 3330,5249 3330,5250 3329,5254 3329,5259 3328,5263 3328,5264 3327,5266 3326,5269
 3324,5273 3321,5278 3318,5282 3316,5284 3314,5286 3310,5289 3306,5292 3304,5293
 3303,5293 3301,5294 3296,5296 3290,5298 3286,5298 3283,5299 3280,5299 3279,5299
 3275,5298 3269,5297 3265,5296 3264,5296 3262,5295 3259,5294 3255,5292 3251,5289
 3247,5286 3245,5284 3243,5282 3240,5278 3237,5274 3236,5272 3236,5271 3235,5269
 3233,5264 3231,5259 3231,5255 3230,5251 3230,5249 3230,5248 3231,5244 3232,5238
 3233,5234 3233,5233 3234,5231 3235,5228 3237,5224 3240,5219 3243,5215 3245,5213
 3247,5211 3251,5208 3255,5205 3257,5204 3259,5203 3264,5201 3269,5200 3274,5199
 3277,5199 3280,5199 3281,5199 3285,5200 3291,5200 3295,5201 3296,5201 3298,5202
 3301,5203 3305,5205 3310,5208 3314,5211 3316,5213 3318,5215 3321,5219 3324,5223
 3325,5225 3325,5226 3326,5228 3328,5233 3329,5239 3330,5243 3330,5246 3330,5249
"
	stroke="#000000" stroke-width="8px" stroke-linejoin="bevel"/>
<!-- Line -->
<!-- spline -->
<polyline points=" 3612,6538 3612,6539 3611,6543 3611,6548 3610,6552 3610,6553 3609,6555 3608,6558
 3606,6562 3603,6567 3600,6571 3598,6573 3596,6575 3592,6578 3588,6581 3586,6582
 3585,6582 3583,6583 3578,6585 3572,6587 3568,6587 3565,6588 3562,6588 3561,6588
 3557,6587 3551,6586 3547,6585 3546,6585 3544,6584 3541,6583 3537,6581 3533,6578
 3529,6575 3527,6573 3525,6571 3522,6567 3519,6563 3518,6561 3518,6560 3517,6558
 3515,6553 3513,6548 3513,6544 3512,6540 3512,6538 3512,6537 3513,6533 3514,6527
 3515,6523 3515,6522 3516,6520 3517,6517 3519,6513 3522,6508 3525,6504 3527,6502
 3529,6500 3533,6497 3537,6494 3539,6493 3541,6492 3546,6490 3551,6489 3556,6488
 3559,6488 3562,6488 3563,6488 3567,6489 3573,6489 3577,6490 3578,6490 3580,6491
 3583,6492 3587,6494 3592,6497 3596,6500 3598,6502 3600,6504 3603,6508 3606,6512
 3607,6514 3607,6515 3608,6517 3610,6522 3611,6528 3612,6532 3612,6535 3612,6538
"
	stroke="#000000" stroke-width="8px" stroke-linejoin="bevel"/>
<!-- Line -->
<!-- spline -->
<polyline points=" 3894,7568 3894,7569 3893,7573 3893,7579 3892,7583 3892,7584 3891,7586 3889,7590
 3887,7593 3884,7598 3881,7602 3880,7603 3879,7604 3878,7605 3874,7608 3870,7611
 3868,7612 3867,7612 3865,7613 3860,7615 3854,7617 3850,7617 3847,7618 3844,7618
 3843,7618 3839,7617 3833,7616 3829,7615 3828,7615 3826,7614 3823,7613 3819,7611
 3815,7608 3811,7605 3809,7604 3809,7603 3807,7602 3804,7598 3801,7594 3800,7592
 3800,7591 3799,7589 3797,7584 3795,7578 3795,7574 3794,7571 3794,7568 3794,7567
 3795,7563 3796,7557 3797,7553 3797,7552 3798,7550 3799,7547 3801,7543 3804,7539
 3807,7535 3809,7533 3811,7531 3815,7528 3819,7525 3821,7524 3823,7523 3828,7521
 3833,7519 3838,7519 3841,7518 3844,7518 3845,7518 3849,7519 3855,7520 3859,7521
 3860,7521 3862,7522 3866,7523 3869,7525 3874,7528 3878,7531 3879,7533 3880,7533
 3881,7535 3884,7539 3887,7543 3888,7545 3889,7545 3890,7547 3892,7552 3893,7557
 3894,7562 3894,7565 3894,7568"
	stroke="#000000" stroke-width="8px" stroke-linejoin="bevel"/>
<!-- Line -->
<!-- spline -->
<polyline points=" 4176,7700 4176,7701 4175,7705 4174,7711 4173,7715 4173,7716 4172,7718 4171,7722
 4169,7725 4166,7730 4163,7734 4162,7735 4161,7736 4160,7737 4156,7740 4152,7743
 4150,7744 4149,7744 4147,7745 4142,7747 4136,7749 4132,7749 4129,7750 4126,7750
 4125,7750 4121,7749 4115,7748 4111,7747 4110,7747 4108,7746 4105,7745 4101,7743
 4097,7740 4093,7737 4091,7736 4091,7735 4089,7734 4086,7730 4083,7726 4082,7724
 4082,7723 4081,7721 4079,7716 4077,7710 4077,7706 4076,7703 4076,7700 4076,7699
 4077,7695 4078,7689 4079,7685 4079,7684 4080,7682 4081,7678 4083,7675 4086,7670
 4089,7666 4091,7665 4091,7664 4093,7663 4097,7660 4101,7657 4103,7656 4105,7655
 4110,7653 4115,7651 4120,7651 4123,7650 4126,7650 4127,7650 4131,7651 4137,7652
 4141,7653 4142,7653 4144,7654 4148,7655 4151,7657 4156,7660 4160,7663 4161,7664
 4162,7665 4163,7666 4166,7670 4169,7674 4170,7676 4170,7677 4171,7679 4173,7684
 4175,7690 4175,7694 4176,7697 4176,7700"
	stroke="#000000" stroke-width="8px" stroke-linejoin="bevel"/>
<!-- Line -->
<!-- spline -->
<polyline points=" 4458,6851 4458,6852 4457,6856 4456,6862 4455,6866 4455,6867 4454,6869 4453,6872
 4451,6876 4448,6881 4445,6885 4444,6887 4443,6887 4442,6889 4438,6892 4434,6895
 4432,6896 4431,6896 4429,6897 4424,6899 4418,6900 4414,6901 4411,6901 4408,6901
 4407,6901 4403,6900 4397,6900 4393,6899 4392,6899 4390,6898 4386,6897 4383,6895
 4378,6892 4374,6889 4373,6887 4372,6887 4371,6885 4368,6881 4365,6877 4364,6875
 4364,6874 4363,6872 4361,6867 4359,6861 4359,6857 4358,6854 4358,6851 4358,6850
 4359,6846 4360,6841 4361,6837 4361,6836 4362,6834 4363,6831 4365,6827 4368,6822
 4371,6818 4372,6816 4373,6816 4374,6814 4378,6811 4382,6808 4384,6807 4385,6807
 4387,6806 4392,6804 4398,6802 4402,6802 4405,6801 4408,6801 4409,6801 4413,6802
 4419,6803 4423,6804 4424,6804 4426,6805 4430,6806 4433,6808 4438,6811 4442,6814
 4443,6816 4444,6816 4445,6818 4448,6822 4451,6826 4452,6828 4452,6829 4453,6831
 4455,6836 4457,6841 4457,6845 4458,6849 4458,6851"
	stroke="#000000" stroke-width="8px" stroke-linejoin="bevel"/>
<!-- Line -->
<!-- spline -->
<polyline points=" 4739,5549 4739,5550 4738,5554 4737,5559 4736,5563 4736,5564 4735,5566 4734,5569
 4732,5573 4729,5578 4726,5582 4724,5584 4722,5586 4718,5589 4714,5592 4712,5593
 4711,5593 4709,5594 4704,5596 4699,5598 4695,5598 4691,5599 4689,5599 4688,5599
 4684,5598 4678,5597 4674,5596 4673,5596 4671,5595 4668,5594 4664,5592 4659,5589
 4655,5586 4653,5584 4651,5582 4648,5578 4645,5574 4644,5572 4644,5571 4643,5569
 4641,5564 4640,5559 4639,5555 4639,5551 4639,5549 4639,5548 4640,5544 4640,5538
 4641,5534 4641,5533 4642,5531 4643,5528 4645,5524 4648,5519 4651,5515 4653,5513
 4655,5511 4659,5508 4663,5505 4665,5504 4666,5504 4668,5503 4673,5501 4679,5500
 4683,5499 4686,5499 4689,5499 4690,5499 4694,5500 4699,5500 4703,5501 4704,5501
 4706,5502 4709,5503 4713,5505 4718,5508 4722,5511 4724,5513 4726,5515 4729,5519
 4732,5523 4733,5525 4733,5526 4734,5528 4736,5533 4738,5539 4738,5543 4739,5546
 4739,5549"
	stroke="#000000" stroke-width="8px" stroke-linejoin="bevel"/>
<!-- Line -->
<!-- spline -->
<polyline points=" 5020,4604 5020,4605 5019,4609 5019,4615 5018,4619 5018,4620 5017,4622 5016,4625
 5014,4629 5011,4634 5008,4638 5006,4640 5004,4642 5000,4645 4996,4648 4994,4649
 4993,4649 4991,4650 4986,4652 4980,4653 4976,4654 4973,4654 4970,4654 4969,4654
 4965,4653 4960,4653 4956,4652 4955,4652 4953,4651 4950,4650 4946,4648 4941,4645
 4937,4642 4935,4640 4933,4638 4930,4634 4927,4630 4926,4628 4926,4627 4925,4625
 4923,4620 4921,4614 4921,4610 4920,4607 4920,4604 4920,4603 4921,4599 4922,4593
 4923,4589 4923,4588 4924,4586 4925,4583 4927,4579 4930,4575 4933,4571 4935,4569
 4937,4567 4941,4564 4945,4561 4947,4560 4948,4560 4950,4559 4955,4557 4960,4555
 4964,4555 4968,4554 4970,4554 4971,4554 4975,4555 4981,4556 4985,4557 4986,4557
 4988,4558 4991,4559 4995,4561 5000,4564 5004,4567 5006,4569 5008,4571 5011,4575
 5014,4579 5015,4581 5016,4583 5018,4588 5019,4593 5020,4598 5020,4601 5020,4604
"
	stroke="#000000" stroke-width="8px" stroke-linejoin="bevel"/>
<!-- Line -->
<!-- spline -->
<polyline points=" 5302,4604 5302,4605 5301,4609 5301,4615 5300,4619 5300,4620 5299,4622 5298,4625
 5296,4629 5293,4634 5290,4638 5288,4640 5286,4642 5282,4645 5278,4648 5276,4649
 5275,4649 5273,4650 5268,4652 5262,4653 5258,4654 5255,4654 5252,4654 5251,4654
 5247,4653 5242,4653 5238,4652 5237,4652 5235,4651 5232,4650 5228,4648 5223,4645
 5219,4642 5217,4640 5215,4638 5212,4634 5209,4630 5208,4628 5208,4627 5207,4625
 5205,4620 5203,4614 5203,4610 5202,4607 5202,4604 5202,4603 5203,4599 5204,4593
 5205,4589 5205,4588 5206,4586 5207,4583 5209,4579 5212,4575 5215,4571 5217,4569
 5219,4567 5223,4564 5227,4561 5229,4560 5230,4560 5232,4559 5237,4557 5242,4555
 5246,4555 5250,4554 5252,4554 5253,4554 5257,4555 5263,4556 5267,4557 5268,4557
 5270,4558 5273,4559 5277,4561 5282,4564 5286,4567 5288,4569 5290,4571 5293,4575
 5296,4579 5297,4581 5298,4583 5300,4588 5301,4593 5302,4598 5302,4601 5302,4604
"
	stroke="#000000" stroke-width="8px" stroke-linejoin="bevel"/>
<!-- Line -->
<!-- spline -->
<polyline points=" 5584,5549 5584,5550 5583,5554 5583,5559 5582,5563 5582,5564 5581,5566 5580,5569
 5578,5573 5575,5578 5572,5582 5570,5584 5568,5586 5564,5589 5560,5592 5558,5593
 5557,5593 5555,5594 5550,5596 5544,5598 5540,5598 5537,5599 5534,5599 5533,5599
 5529,5598 5524,5597 5520,5596 5519,5596 5517,5595 5514,5594 5510,5592 5505,5589
 5501,5586 5499,5584 5497,5582 5494,5578 5491,5574 5490,5572 5490,5571 5489,5569
 5487,5564 5485,5559 5485,5555 5484,5551 5484,5549 5484,5548 5485,5544 5486,5538
 5487,5534 5487,5533 5488,5531 5489,5528 5491,5524 5494,5519 5497,5515 5499,5513
 5501,5511 5505,5508 5509,5505 5511,5504 5512,5504 5514,5503 5519,5501 5524,5500
 5528,5499 5532,5499 5534,5499 5535,5499 5539,5500 5545,5500 5549,5501 5550,5501
 5552,5502 5555,5503 5559,5505 5564,5508 5568,5511 5570,5513 5572,5515 5575,5519
 5578,5523 5579,5525 5579,5526 5580,5528 5582,5533 5583,5539 5584,5543 5584,5546
 5584,5549"
	stroke="#000000" stroke-width="8px" stroke-linejoin="bevel"/>
<!-- Line -->
<!-- spline -->
<polyline points=" 5865,6851 5865,6852 5864,6856 5863,6862 5862,6866 5862,6867 5861,6869 5860,6872
 5858,6876 5855,6881 5852,6885 5850,6887 5848,6889 5844,6892 5840,6895 5838,6896
 5836,6897 5831,6899 5826,6900 5821,6901 5818,6901 5815,6901 5814,6901 5810,6900
 5804,6900 5800,6899 5799,6899 5797,6898 5793,6897 5790,6895 5785,6892 5781,6889
 5780,6887 5779,6887 5778,6885 5775,6881 5772,6877 5771,6875 5771,6874 5770,6872
 5768,6867 5766,6861 5766,6857 5765,6854 5765,6851 5765,6850 5766,6846 5767,6841
 5768,6837 5768,6836 5769,6834 5770,6831 5772,6827 5775,6822 5778,6818 5779,6816
 5780,6816 5781,6814 5785,6811 5789,6808 5791,6807 5792,6807 5794,6806 5799,6804
 5805,6802 5809,6802 5812,6801 5815,6801 5816,6801 5820,6802 5826,6803 5830,6804
 5831,6804 5833,6805 5836,6806 5840,6808 5844,6811 5848,6814 5850,6816 5852,6818
 5855,6822 5858,6826 5859,6828 5859,6829 5860,6831 5862,6836 5864,6841 5864,6845
 5865,6849 5865,6851"
	stroke="#000000" stroke-width="8px" stroke-linejoin="bevel"/>
<!-- Line -->
<!-- spline -->
<polyline points=" 6147,7700 6147,7701 6146,7705 6145,7711 6144,7715 6144,7716 6143,7718 6142,7722
 6140,7725 6137,7730 6134,7734 6132,7735 6132,7736 6130,7737 6126,7740 6122,7743
 6120,7744 6118,7745 6113,7747 6108,7749 6103,7749 6100,7750 6097,7750 6096,7750
 6092,7749 6086,7748 6082,7747 6081,7747 6079,7746 6075,7745 6072,7743 6067,7740
 6063,7737 6062,7736 6061,7735 6060,7734 6057,7730 6054,7726 6053,7724 6052,7723
 6051,7721 6049,7716 6048,7710 6047,7706 6047,7703 6047,7700 6047,7699 6048,7695
 6048,7689 6049,7685 6049,7684 6050,7682 6052,7678 6054,7675 6057,7670 6060,7666
 6061,7665 6062,7664 6063,7663 6067,7660 6071,7657 6073,7656 6074,7656 6076,7655
 6081,7653 6087,7651 6091,7651 6094,7650 6097,7650 6098,7650 6102,7651 6108,7652
 6112,7653 6113,7653 6115,7654 6118,7655 6122,7657 6126,7660 6130,7663 6132,7664
 6132,7665 6134,7666 6137,7670 6140,7674 6141,7676 6141,7677 6142,7679 6144,7684
 6146,7690 6146,7694 6147,7697 6147,7700"
	stroke="#000000" stroke-width="8px" stroke-linejoin="bevel"/>
<!-- Line -->
<!-- spline -->
<polyline points=" 6429,7568 6429,7569 6428,7573 6427,7579 6426,7583 6426,7584 6425,7586 6424,7590
 6422,7593 6419,7598 6416,7602 6414,7603 6414,7604 6412,7605 6408,7608 6404,7611
 6402,7612 6400,7613 6395,7615 6390,7617 6385,7617 6382,7618 6379,7618 6378,7618
 6374,7617 6368,7616 6364,7615 6363,7615 6361,7614 6358,7613 6354,7611 6349,7608
 6345,7605 6343,7604 6343,7603 6341,7602 6338,7598 6335,7594 6334,7592 6334,7591
 6333,7589 6331,7584 6330,7578 6329,7574 6329,7571 6329,7568 6329,7567 6330,7563
 6330,7557 6331,7553 6331,7552 6332,7550 6333,7547 6335,7543 6338,7539 6341,7535
 6343,7533 6345,7531 6349,7528 6353,7525 6355,7524 6356,7524 6358,7523 6363,7521
 6369,7519 6373,7519 6376,7518 6379,7518 6380,7518 6384,7519 6390,7520 6394,7521
 6395,7521 6397,7522 6400,7523 6404,7525 6408,7528 6412,7531 6414,7533 6416,7535
 6419,7539 6422,7543 6423,7545 6424,7547 6426,7552 6428,7557 6428,7562 6429,7565
 6429,7568"
	stroke="#000000" stroke-width="8px" stroke-linejoin="bevel"/>
<!-- Line -->
<!-- spline -->
<polyline points=" 6711,6538 6711,6539 6710,6543 6709,6548 6708,6552 6708,6553 6707,6555 6706,6558
 6704,6562 6701,6567 6698,6571 6696,6573 6694,6575 6690,6578 6686,6581 6684,6582
 6682,6583 6677,6585 6672,6587 6667,6587 6664,6588 6661,6588 6660,6588 6656,6587
 6650,6586 6646,6585 6645,6585 6643,6584 6640,6583 6636,6581 6631,6578 6627,6575
 6625,6573 6623,6571 6620,6567 6617,6563 6616,6561 6616,6560 6615,6558 6613,6553
 6612,6548 6611,6544 6611,6540 6611,6538 6611,6537 6612,6533 6612,6527 6613,6523
 6613,6522 6614,6520 6615,6517 6617,6513 6620,6508 6623,6504 6625,6502 6627,6500
 6631,6497 6635,6494 6637,6493 6638,6493 6640,6492 6645,6490 6651,6489 6655,6488
 6658,6488 6661,6488 6662,6488 6666,6489 6672,6489 6676,6490 6677,6490 6679,6491
 6682,6492 6686,6494 6690,6497 6694,6500 6696,6502 6698,6504 6701,6508 6704,6512
 6705,6514 6705,6515 6706,6517 6708,6522 6710,6528 6710,6532 6711,6535 6711,6538
"
	stroke="#000000" stroke-width="8px" stroke-linejoin="bevel"/>
<!-- Line -->
<!-- spline -->
<polyline points=" 6993,5249 6993,5250 6992,5254 6991,5259 6990,5263 6990,5264 6989,5266 6988,5269
 6986,5273 6983,5278 6980,5282 6978,5284 6976,5286 6972,5289 6968,5292 6966,5293
 6965,5293 6963,5294 6958,5296 6953,5298 6949,5298 6945,5299 6943,5299 6942,5299
 6938,5298 6932,5297 6928,5296 6927,5296 6925,5295 6922,5294 6918,5292 6913,5289
 6909,5286 6907,5284 6905,5282 6902,5278 6899,5274 6898,5272 6898,5271 6897,5269
 6895,5264 6894,5259 6893,5255 6893,5251 6893,5249 6893,5248 6894,5244 6894,5238
 6895,5234 6895,5233 6896,5231 6897,5228 6899,5224 6902,5219 6905,5215 6907,5213
 6909,5211 6913,5208 6917,5205 6919,5204 6920,5204 6922,5203 6927,5201 6933,5200
 6937,5199 6940,5199 6943,5199 6944,5199 6948,5200 6953,5200 6957,5201 6958,5201
 6960,5202 6963,5203 6967,5205 6972,5208 6976,5211 6978,5213 6980,5215 6983,5219
 6986,5223 6987,5225 6987,5226 6988,5228 6990,5233 6992,5239 6992,5243 6993,5246
 6993,5249"
	stroke="#000000" stroke-width="8px" stroke-linejoin="bevel"/>
<!-- Line -->
<!-- spline -->
<polyline points=" 7273,4504 7273,4505 7272,4509 7272,4515 7271,4519 7271,4520 7270,4522 7269,4525
 7267,4529 7264,4534 7261,4538 7259,4540 7257,4542 7253,4545 7249,4548 7247,4549
 7246,4549 7244,4550 7239,4552 7233,4553 7229,4554 7226,4554 7223,4554 7222,4554
 7218,4553 7213,4553 7209,4552 7208,4552 7206,4551 7203,4550 7199,4548 7194,4545
 7190,4542 7188,4540 7186,4538 7183,4534 7180,4530 7179,4528 7179,4527 7178,4525
 7176,4520 7174,4514 7174,4510 7173,4507 7173,4504 7173,4503 7174,4499 7175,4493
 7176,4489 7176,4488 7177,4486 7178,4483 7180,4479 7183,4475 7186,4471 7188,4469
 7190,4467 7194,4464 7198,4461 7200,4460 7201,4460 7203,4459 7208,4457 7213,4455
 7217,4455 7221,4454 7223,4454 7224,4454 7228,4455 7234,4456 7238,4457 7239,4457
 7241,4458 7244,4459 7248,4461 7253,4464 7257,4467 7259,4469 7261,4471 7264,4475
 7267,4479 7268,4481 7269,4483 7271,4488 7272,4493 7273,4498 7273,4501 7273,4504
"
	stroke="#000000" stroke-width="8px" stroke-linejoin="bevel"/>
<!-- Line -->
<!-- spline -->
<polyline points=" 7555,4767 7555,4768 7554,4772 7554,4777 7553,4781 7553,4782 7552,4784 7551,4787
 7549,4791 7546,4796 7543,4800 7541,4802 7539,4804 7535,4807 7531,4810 7529,4811
 7528,4811 7526,4812 7521,4814 7515,4816 7511,4816 7508,4817 7505,4817 7504,4817
 7500,4816 7494,4815 7490,4814 7489,4814 7487,4813 7484,4812 7480,4810 7476,4807
 7472,4804 7470,4802 7468,4800 7465,4796 7462,4792 7461,4790 7461,4789 7460,4787
 7458,4782 7456,4777 7456,4773 7455,4769 7455,4767 7455,4766 7456,4762 7457,4756
 7458,4752 7458,4751 7459,4749 7460,4746 7462,4742 7465,4737 7468,4733 7470,4731
 7472,4729 7476,4726 7480,4723 7482,4722 7484,4721 7489,4719 7494,4718 7499,4717
 7502,4717 7505,4717 7506,4717 7510,4718 7516,4718 7520,4719 7521,4719 7523,4720
 7526,4721 7530,4723 7535,4726 7539,4729 7541,4731 7543,4733 7546,4737 7549,4741
 7550,4743 7550,4744 7551,4746 7553,4751 7554,4757 7555,4761 7555,4764 7555,4767
"
	stroke="#000000" stroke-width="8px" stroke-linejoin="bevel"/>
<!-- Line -->
<!-- spline -->
<polyline points=" 7837,5872 7837,5873 7836,5877 7836,5883 7835,5887 7835,5888 7834,5890 7833,5893
 7831,5897 7828,5902 7825,5906 7823,5908 7821,5910 7817,5913 7813,5916 7811,5917
 7810,5917 7808,5918 7803,5920 7797,5921 7793,5922 7790,5922 7787,5922 7786,5922
 7782,5921 7776,5921 7772,5920 7771,5920 7769,5919 7766,5918 7762,5916 7758,5913
 7754,5910 7752,5908 7750,5906 7747,5902 7744,5898 7743,5896 7743,5895 7742,5893
 7740,5888 7738,5882 7738,5878 7737,5875 7737,5872 7737,5871 7738,5867 7739,5861
 7740,5857 7740,5856 7741,5854 7742,5851 7744,5847 7747,5843 7750,5839 7752,5837
 7754,5835 7758,5832 7762,5829 7764,5828 7766,5827 7771,5825 7776,5823 7781,5823
 7784,5822 7787,5822 7788,5822 7792,5823 7798,5824 7802,5825 7803,5825 7805,5826
 7808,5827 7812,5829 7817,5832 7821,5835 7823,5837 7825,5839 7828,5843 7831,5847
 7832,5849 7833,5851 7835,5856 7836,5861 7837,5866 7837,5869 7837,5872"
	stroke="#000000" stroke-width="8px" stroke-linejoin="bevel"/>
<!-- Line -->
<!-- spline -->
<polyline points=" 8119,7135 8119,7136 8118,7140 8118,7145 8117,7149 8117,7150 8116,7152 8114,7155
 8112,7159 8109,7164 8106,7168 8105,7170 8104,7170 8103,7172 8099,7175 8095,7178
 8093,7179 8092,7179 8090,7180 8085,7182 8079,7184 8075,7184 8072,7185 8069,7185
 8068,7185 8064,7184 8058,7183 8054,7182 8053,7182 8051,7181 8048,7180 8044,7178
 8040,7175 8036,7172 8034,7170 8032,7168 8029,7164 8026,7160 8025,7158 8025,7157
 8024,7155 8022,7150 8020,7145 8020,7141 8019,7137 8019,7135 8019,7134 8020,7130
 8021,7124 8022,7120 8022,7119 8023,7117 8024,7114 8026,7110 8029,7105 8032,7101
 8034,7099 8036,7097 8040,7094 8044,7091 8046,7090 8048,7089 8053,7087 8058,7086
 8063,7085 8066,7085 8069,7085 8070,7085 8074,7086 8080,7086 8084,7087 8085,7087
 8087,7088 8091,7089 8094,7091 8099,7094 8103,7097 8104,7099 8105,7099 8106,7101
 8109,7105 8112,7109 8113,7111 8114,7112 8115,7114 8117,7119 8118,7125 8119,7129
 8119,7132 8119,7135"
	stroke="#000000" stroke-width="8px" stroke-linejoin="bevel"/>
<!-- Line -->
<!-- spline -->
<polyline points=" 8400,7767 8400,7768 8399,7772 8398,7777 8397,7781 8397,7782 8396,7784 8395,7787
 8393,7791 8390,7796 8387,7800 8385,7802 8383,7804 8379,7807 8375,7810 8373,7811
 8372,7811 8370,7812 8365,7814 8360,7816 8356,7816 8352,7817 8350,7817 8349,7817
 8345,7816 8339,7815 8335,7814 8334,7814 8332,7813 8329,7812 8325,7810 8320,7807
 8316,7804 8314,7802 8312,7800 8309,7796 8306,7792 8305,7790 8305,7789 8304,7787
 8302,7782 8301,7777 8300,7773 8300,7769 8300,7767 8300,7766 8301,7762 8301,7756
 8302,7752 8302,7751 8303,7749 8304,7746 8306,7742 8309,7737 8312,7733 8314,7731
 8316,7729 8320,7726 8324,7723 8326,7722 8327,7722 8329,7721 8334,7719 8340,7718
 8344,7717 8347,7717 8350,7717 8351,7717 8355,7718 8360,7718 8364,7719 8365,7719
 8367,7720 8370,7721 8374,7723 8379,7726 8383,7729 8385,7731 8387,7733 8390,7737
 8393,7741 8394,7743 8394,7744 8395,7746 8397,7751 8399,7757 8399,7761 8400,7764
 8400,7767"
	stroke="#000000" stroke-width="8px" stroke-linejoin="bevel"/>
<!-- Line -->
<!-- spline -->
<polyline points=" 8682,7376 8682,7377 8681,7381 8680,7387 8679,7391 8679,7392 8678,7394 8677,7397
 8675,7401 8672,7406 8669,7410 8667,7412 8665,7414 8661,7417 8657,7420 8655,7421
 8654,7421 8652,7422 8647,7424 8642,7425 8638,7426 8634,7426 8632,7426 8631,7426
 8627,7425 8621,7425 8617,7424 8616,7424 8614,7423 8611,7422 8607,7420 8602,7417
 8598,7414 8596,7412 8594,7410 8591,7406 8588,7402 8587,7400 8587,7399 8586,7397
 8584,7392 8583,7386 8582,7382 8582,7379 8582,7376 8582,7375 8583,7371 8583,7366
 8584,7362 8584,7361 8585,7359 8586,7356 8588,7352 8591,7347 8594,7343 8596,7341
 8598,7339 8602,7336 8606,7333 8608,7332 8609,7332 8611,7331 8616,7329 8622,7327
 8626,7327 8629,7326 8632,7326 8633,7326 8637,7327 8642,7328 8646,7329 8647,7329
 8649,7330 8652,7331 8656,7333 8661,7336 8665,7339 8667,7341 8669,7343 8672,7347
 8675,7351 8676,7353 8676,7354 8677,7356 8679,7361 8681,7366 8681,7370 8682,7374
 8682,7376"
	stroke="#000000" stroke-width="8px" stroke-linejoin="bevel"/>
<!-- Line -->
<!-- spline -->
<polyline points=" 8964,6207 8964,6208 8963,6212 8962,6218 8961,6222 8961,6223 8960,6225 8959,6228
 8957,6232 8954,6236 8951,6240 8949,6242 8947,6244 8943,6247 8939,6250 8937,6251
 8936,6251 8934,6252 8929,6254 8924,6256 8920,6256 8916,6257 8914,6257 8913,6257
 8909,6256 8903,6255 8899,6254 8898,6254 8896,6253 8893,6252 8889,6250 8884,6247
 8880,6244 8878,6242 8876,6240 8873,6236 8870,6232 8869,6230 8868,6228 8866,6223
 8865,6218 8864,6213 8864,6210 8864,6207 8864,6206 8865,6202 8865,6196 8866,6192
 8866,6191 8867,6189 8868,6185 8870,6182 8873,6177 8876,6173 8878,6172 8878,6171
 8880,6170 8884,6167 8888,6164 8890,6163 8891,6163 8893,6162 8898,6160 8904,6158
 8908,6158 8911,6157 8914,6157 8915,6157 8919,6158 8924,6159 8928,6160 8929,6160
 8931,6161 8934,6162 8938,6164 8943,6167 8947,6170 8949,6171 8949,6172 8951,6173
 8954,6177 8957,6181 8958,6183 8958,6184 8959,6186 8961,6191 8963,6197 8963,6201
 8964,6204 8964,6207"
	stroke="#000000" stroke-width="8px" stroke-linejoin="bevel"/>
<!-- Line -->
<!-- spline -->
<polyline points=" 9245,4985 9245,4986 9244,4990 9244,4995 9243,4999 9243,5000 9242,5002 9241,5005
 9239,5009 9236,5014 9233,5018 9231,5020 9229,5022 9225,5025 9221,5028 9219,5029
 9218,5029 9216,5030 9211,5032 9205,5034 9201,5034 9198,5035 9195,5035 9194,5035
 9190,5034 9185,5033 9181,5032 9180,5032 9178,5031 9175,5030 9171,5028 9166,5025
 9162,5022 9160,5020 9158,5018 9155,5014 9152,5010 9151,5008 9151,5007 9150,5005
 9148,5000 9146,4995 9146,4991 9145,4987 9145,4985 9145,4984 9146,4980 9147,4974
 9148,4970 9148,4969 9149,4967 9150,4964 9152,4960 9155,4955 9158,4951 9160,4949
 9162,4947 9166,4944 9170,4941 9172,4940 9173,4940 9175,4939 9180,4937 9185,4936
 9189,4935 9193,4935 9195,4935 9196,4935 9200,4936 9206,4936 9210,4937 9211,4937
 9213,4938 9216,4939 9220,4941 9225,4944 9229,4947 9231,4949 9233,4951 9236,4955
 9239,4959 9240,4961 9240,4962 9241,4964 9243,4969 9244,4975 9245,4979 9245,4982
 9245,4985"
	stroke="#000000" stroke-width="8px" stroke-linejoin="bevel"/>
<!-- Line -->
<!-- spline -->
<polyline points=" 9527,4471 9527,4472 9526,4476 9526,4482 9525,4486 9525,4487 9524,4489 9523,4492
 9521,4496 9518,4500 9515,4504 9513,4506 9511,4508 9507,4511 9503,4514 9501,4515
 9500,4515 9498,4516 9493,4518 9487,4520 9483,4520 9480,4521 9477,4521 9476,4521
 9472,4520 9467,4519 9463,4518 9462,4518 9460,4517 9457,4516 9453,4514 9448,4511
 9444,4508 9442,4506 9440,4504 9437,4500 9434,4496 9433,4494 9432,4492 9430,4487
 9428,4482 9428,4477 9427,4474 9427,4471 9427,4470 9428,4466 9429,4460 9430,4456
 9430,4455 9431,4453 9432,4450 9434,4446 9437,4441 9440,4437 9442,4435 9444,4433
 9448,4430 9452,4427 9454,4426 9455,4426 9457,4425 9462,4423 9467,4422 9471,4421
 9475,4421 9477,4421 9478,4421 9482,4422 9488,4422 9492,4423 9493,4423 9495,4424
 9498,4425 9502,4427 9507,4430 9511,4433 9513,4435 9515,4437 9518,4441 9521,4445
 9522,4447 9522,4448 9523,4450 9525,4455 9526,4461 9527,4465 9527,4468 9527,4471
"
	stroke="#000000" stroke-width="8px" stroke-linejoin="bevel"/>
<!-- Line -->
<!-- spline -->
<polyline points=" 9808,4985 9808,4986 9807,4990 9806,4995 9805,4999 9805,5000 9804,5002 9803,5005
 9801,5009 9798,5014 9795,5018 9794,5020 9793,5020 9792,5022 9788,5025 9784,5028
 9782,5029 9781,5029 9779,5030 9774,5032 9768,5034 9764,5034 9761,5035 9758,5035
 9757,5035 9753,5034 9747,5033 9743,5032 9742,5032 9740,5031 9736,5030 9733,5028
 9728,5025 9724,5022 9723,5020 9722,5020 9721,5018 9718,5014 9715,5010 9714,5008
 9714,5007 9713,5005 9711,5000 9709,4995 9709,4991 9708,4987 9708,4985 9708,4984
 9709,4980 9710,4974 9711,4970 9711,4969 9712,4967 9713,4964 9715,4960 9718,4955
 9721,4951 9722,4949 9723,4949 9724,4947 9728,4944 9732,4941 9734,4940 9735,4940
 9737,4939 9742,4937 9748,4936 9752,4935 9755,4935 9758,4935 9759,4935 9763,4936
 9769,4936 9773,4937 9774,4937 9776,4938 9780,4939 9783,4941 9788,4944 9792,4947
 9793,4949 9794,4949 9795,4951 9798,4955 9801,4959 9802,4961 9802,4962 9803,4964
 9805,4969 9807,4975 9807,4979 9808,4982 9808,4985"
	stroke="#000000" stroke-width="8px" stroke-linejoin="bevel"/>
<!-- Line -->
<!-- spline -->
<polyline points=" 10090,6207 10090,6208 10089,6212 10088,6218 10087,6222 10087,6223 10086,6225
 10085,6228 10083,6232 10080,6236 10077,6240 10075,6242 10073,6244 10069,6247
 10065,6250 10063,6251 10061,6252 10056,6254 10051,6256 10046,6256 10043,6257
 10040,6257 10039,6257 10035,6256 10029,6255 10025,6254 10024,6254 10022,6253
 10018,6252 10015,6250 10010,6247 10006,6244 10005,6242 10004,6242 10003,6240
 10000,6236 9997,6232 9996,6230 9995,6228 9993,6223 9991,6218 9991,6213 9990,6210
 9990,6207 9990,6206 9991,6202 9992,6196 9993,6192 9993,6191 9994,6189 9995,6185
 9997,6182 10000,6177 10003,6173 10004,6172 10005,6171 10006,6170 10010,6167 10014,6164
 10016,6163 10017,6163 10019,6162 10024,6160 10030,6158 10034,6158 10037,6157
 10040,6157 10041,6157 10045,6158 10051,6159 10055,6160 10056,6160 10058,6161
 10061,6162 10065,6164 10069,6167 10073,6170 10075,6171 10075,6172 10077,6173
 10080,6177 10083,6181 10084,6183 10084,6184 10085,6186 10087,6191 10089,6197
 10089,6201 10090,6204 10090,6207"
	stroke="#000000" stroke-width="8px" stroke-linejoin="bevel"/>
<!-- Line -->
<!-- spline -->
<polyline points=" 10372,7376 10372,7377 10371,7381 10370,7387 10369,7391 10369,7392 10368,7394
 10367,7397 10365,7401 10362,7406 10359,7410 10357,7412 10355,7414 10351,7417
 10347,7420 10345,7421 10343,7422 10338,7424 10333,7425 10328,7426 10325,7426
 10322,7426 10321,7426 10317,7425 10311,7425 10307,7424 10306,7424 10304,7423
 10300,7422 10297,7420 10292,7417 10288,7414 10287,7412 10286,7412 10285,7410
 10282,7406 10279,7402 10278,7400 10277,7399 10276,7397 10274,7392 10273,7386
 10272,7382 10272,7379 10272,7376 10272,7375 10273,7371 10273,7366 10274,7362
 10274,7361 10275,7359 10277,7356 10279,7352 10282,7347 10285,7343 10286,7341
 10287,7341 10288,7339 10292,7336 10296,7333 10298,7332 10299,7332 10301,7331
 10306,7329 10312,7327 10316,7327 10319,7326 10322,7326 10323,7326 10327,7327
 10333,7328 10337,7329 10338,7329 10340,7330 10343,7331 10347,7333 10351,7336
 10355,7339 10357,7341 10359,7343 10362,7347 10365,7351 10366,7353 10366,7354
 10367,7356 10369,7361 10371,7366 10371,7370 10372,7374 10372,7376"
	stroke="#000000" stroke-width="8px" stroke-linejoin="bevel"/>
<!-- Line -->
<!-- spline -->
<polyline points=" 10654,7767 10654,7768 10653,7772 10652,7777 10651,7781 10651,7782 10650,7784
 10649,7787 10647,7791 10644,7796 10641,7800 10639,7802 10637,7804 10633,7807
 10629,7810 10627,7811 10625,7812 10620,7814 10615,7816 10610,7816 10607,7817
 10604,7817 10603,7817 10599,7816 10593,7815 10589,7814 10588,7814 10586,7813
 10583,7812 10579,7810 10574,7807 10570,7804 10568,7802 10566,7800 10563,7796
 10560,7792 10559,7790 10559,7789 10558,7787 10556,7782 10555,7777 10554,7773
 10554,7769 10554,7767 10554,7766 10555,7762 10555,7756 10556,7752 10556,7751
 10557,7749 10558,7746 10560,7742 10563,7737 10566,7733 10568,7731 10570,7729
 10574,7726 10578,7723 10580,7722 10581,7722 10583,7721 10588,7719 10594,7718
 10598,7717 10601,7717 10604,7717 10605,7717 10609,7718 10615,7718 10619,7719
 10620,7719 10622,7720 10625,7721 10629,7723 10633,7726 10637,7729 10639,7731
 10641,7733 10644,7737 10647,7741 10648,7743 10648,7744 10649,7746 10651,7751
 10653,7757 10653,7761 10654,7764 10654,7767"
	stroke="#000000" stroke-width="8px" stroke-linejoin="bevel"/>
<!-- Line -->
<!-- spline -->
<polyline points=" 10934,7135 10934,7136 10933,7140 10933,7145 10932,7149 10932,7150 10931,7152
 10930,7155 10928,7159 10925,7164 10922,7168 10920,7170 10918,7172 10914,7175
 10910,7178 10908,7179 10907,7179 10905,7180 10900,7182 10894,7184 10890,7184
 10887,7185 10884,7185 10883,7185 10879,7184 10874,7183 10870,7182 10869,7182
 10867,7181 10864,7180 10860,7178 10855,7175 10851,7172 10849,7170 10847,7168
 10844,7164 10841,7160 10840,7158 10840,7157 10839,7155 10837,7150 10835,7145
 10835,7141 10834,7137 10834,7135 10834,7134 10835,7130 10836,7124 10837,7120
 10837,7119 10838,7117 10839,7114 10841,7110 10844,7105 10847,7101 10849,7099
 10851,7097 10855,7094 10859,7091 10861,7090 10862,7090 10864,7089 10869,7087
 10874,7086 10878,7085 10882,7085 10884,7085 10885,7085 10889,7086 10895,7086
 10899,7087 10900,7087 10902,7088 10905,7089 10909,7091 10914,7094 10918,7097
 10920,7099 10922,7101 10925,7105 10928,7109 10929,7111 10929,7112 10930,7114
 10932,7119 10933,7125 10934,7129 10934,7132 10934,7135"
	stroke="#000000" stroke-width="8px" stroke-linejoin="bevel"/>
<!-- Line -->
<!-- spline -->
<polyline points=" 11216,5872 11216,5873 11215,5877 11215,5883 11214,5887 11214,5888 11213,5890
 11212,5893 11210,5897 11207,5902 11204,5906 11202,5908 11200,5910 11196,5913
 11192,5916 11190,5917 11189,5917 11187,5918 11182,5920 11176,5921 11172,5922
 11169,5922 11166,5922 11165,5922 11161,5921 11156,5921 11152,5920 11151,5920
 11149,5919 11146,5918 11142,5916 11137,5913 11133,5910 11131,5908 11129,5906
 11126,5902 11123,5898 11122,5896 11122,5895 11121,5893 11119,5888 11117,5882
 11117,5878 11116,5875 11116,5872 11116,5871 11117,5867 11118,5861 11119,5857
 11119,5856 11120,5854 11121,5851 11123,5847 11126,5843 11129,5839 11131,5837
 11133,5835 11137,5832 11141,5829 11143,5828 11144,5828 11146,5827 11151,5825
 11156,5823 11160,5823 11164,5822 11166,5822 11167,5822 11171,5823 11177,5824
 11181,5825 11182,5825 11184,5826 11187,5827 11191,5829 11196,5832 11200,5835
 11202,5837 11204,5839 11207,5843 11210,5847 11211,5849 11212,5851 11214,5856
 11215,5861 11216,5866 11216,5869 11216,5872"
	stroke="#000000" stroke-width="8px" stroke-linejoin="bevel"/>
<!-- Line -->
<!-- spline -->
<polyline points=" 11498,4767 11498,4768 11497,4772 11497,4777 11496,4781 11496,4782 11495,4784
 11494,4787 11492,4791 11489,4796 11486,4800 11484,4802 11482,4804 11478,4807
 11474,4810 11472,4811 11471,4811 11469,4812 11464,4814 11458,4816 11454,4816
 11451,4817 11448,4817 11447,4817 11443,4816 11438,4815 11434,4814 11433,4814
 11431,4813 11428,4812 11424,4810 11419,4807 11415,4804 11413,4802 11411,4800
 11408,4796 11405,4792 11404,4790 11404,4789 11403,4787 11401,4782 11399,4777
 11399,4773 11398,4769 11398,4767 11398,4766 11399,4762 11400,4756 11401,4752
 11401,4751 11402,4749 11403,4746 11405,4742 11408,4737 11411,4733 11413,4731
 11415,4729 11419,4726 11423,4723 11425,4722 11426,4722 11428,4721 11433,4719
 11438,4718 11442,4717 11446,4717 11448,4717 11449,4717 11453,4718 11459,4718
 11463,4719 11464,4719 11466,4720 11469,4721 11473,4723 11478,4726 11482,4729
 11484,4731 11486,4733 11489,4737 11492,4741 11493,4743 11493,4744 11494,4746
 11496,4751 11497,4757 11498,4761 11498,4764 11498,4767"
	stroke="#000000" stroke-width="8px" stroke-linejoin="bevel"/>
<!-- Line -->
<!-- spline -->
<polyline points=" 11780,4504 11780,4505 11779,4509 11779,4515 11778,4519 11778,4520 11777,4522
 11776,4525 11774,4529 11771,4534 11768,4538 11766,4540 11764,4542 11760,4545
 11756,4548 11754,4549 11753,4549 11751,4550 11746,4552 11740,4553 11736,4554
 11733,4554 11730,4554 11729,4554 11725,4553 11719,4553 11715,4552 11714,4552
 11712,4551 11709,4550 11705,4548 11701,4545 11697,4542 11695,4540 11693,4538
 11690,4534 11687,4530 11686,4528 11686,4527 11685,4525 11683,4520 11681,4514
 11681,4510 11680,4507 11680,4504 11680,4503 11681,4499 11682,4493 11683,4489
 11683,4488 11684,4486 11685,4483 11687,4479 11690,4475 11693,4471 11695,4469
 11697,4467 11701,4464 11705,4461 11707,4460 11709,4459 11714,4457 11719,4455
 11724,4455 11727,4454 11730,4454 11731,4454 11735,4455 11741,4456 11745,4457
 11746,4457 11748,4458 11751,4459 11755,4461 11760,4464 11764,4467 11766,4469
 11768,4471 11771,4475 11774,4479 11775,4481 11776,4483 11778,4488 11779,4493
 11780,4498 11780,4501 11780,4504"
	stroke="#000000" stroke-width="8px" stroke-linejoin="bevel"/>
<!-- Line -->
<!-- spline -->
<polyline points=" 12062,5249 12062,5250 12061,5254 12061,5259 12060,5263 12060,5264 12059,5266
 12058,5269 12056,5273 12053,5278 12050,5282 12048,5284 12046,5286 12042,5289
 12038,5292 12036,5293 12035,5293 12033,5294 12028,5296 12022,5298 12018,5298
 12015,5299 12012,5299 12011,5299 12007,5298 12001,5297 11997,5296 11996,5296
 11994,5295 11991,5294 11987,5292 11983,5289 11979,5286 11977,5284 11975,5282
 11972,5278 11969,5274 11968,5272 11968,5271 11967,5269 11965,5264 11963,5259
 11963,5255 11962,5251 11962,5249 11962,5248 11963,5244 11964,5238 11965,5234
 11965,5233 11966,5231 11967,5228 11969,5224 11972,5219 11975,5215 11977,5213
 11979,5211 11983,5208 11987,5205 11989,5204 11991,5203 11996,5201 12001,5200
 12006,5199 12009,5199 12012,5199 12013,5199 12017,5200 12023,5200 12027,5201
 12028,5201 12030,5202 12033,5203 12037,5205 12042,5208 12046,5211 12048,5213
 12050,5215 12053,5219 12056,5223 12057,5225 12057,5226 12058,5228 12060,5233
 12061,5239 12062,5243 12062,5246 12062,5249"
	stroke="#000000" stroke-width="8px" stroke-linejoin="bevel"/>
<!-- Line -->
<!-- polyline -->
<polyline points=" 748,6124 748,4471"
	stroke="#000000" stroke-width="15px" stroke-linejoin="round"/>
<!-- Line -->
<!-- polyline -->
<polyline points=" 1028,6124 1028,4985"
	stroke="#000000" stroke-width="15px" stroke-linejoin="round"/>
<!-- Line -->
<!-- polyline -->
<polyline points=" 1309,6124 1309,6207"
	stroke="#000000" stroke-width="8px" stroke-linejoin="round"/>
<!-- Line -->
<!-- polyline -->
<polyline points=" 1591,6124 1591,7376"
	stroke="#000000" stroke-width="15px" stroke-linejoin="round"/>
<!-- Line -->
<!-- polyline -->
<polyline points=" 1873,6124 1873,7767"
	stroke="#000000" stroke-width="15px" stroke-linejoin="round"/>
<!-- Line -->
<!-- polyline -->
<polyline points=" 2154,6124 2154,7135"
	stroke="#000000" stroke-width="15px" stroke-linejoin="round"/>
<!-- Line -->
<!-- polyline -->
<polyline points=" 2436,6124 2436,5872"
	stroke="#000000" stroke-width="15px" stroke-linejoin="round"/>
<!-- Line -->
<!-- polyline -->
<polyline points=" 2718,6124 2718,4767"
	stroke="#000000" stroke-width="15px" stroke-linejoin="round"/>
<!-- Line -->
<!-- polyline -->
<polyline points=" 3000,6124 3000,4504"
	stroke="#000000" stroke-width="15px" stroke-linejoin="round"/>
<!-- Line -->
<!-- polyline -->
<polyline points=" 3280,6124 3280,5249"
	stroke="#000000" stroke-width="15px" stroke-linejoin="round"/>
<!-- Line -->
<!-- polyline -->
<polyline points=" 3562,6124 3562,6538"
	stroke="#000000" stroke-width="15px" stroke-linejoin="round"/>
<!-- Line -->
<!-- polyline -->
<polyline points=" 3844,6124 3844,7568"
	stroke="#000000" stroke-width="15px" stroke-linejoin="round"/>
<!-- Line -->
<!-- polyline -->
<polyline points=" 4126,6124 4126,7700"
	stroke="#000000" stroke-width="15px" stroke-linejoin="round"/>
<!-- Line -->
<!-- polyline -->
<polyline points=" 4408,6124 4408,6851"
	stroke="#000000" stroke-width="15px" stroke-linejoin="round"/>
<!-- Line -->
<!-- polyline -->
<polyline points=" 4689,6124 4689,5549"
	stroke="#000000" stroke-width="15px" stroke-linejoin="round"/>
<!-- Line -->
<!-- polyline -->
<polyline points=" 4970,6124 4970,4604"
	stroke="#000000" stroke-width="15px" stroke-linejoin="round"/>
<!-- Line -->
<!-- polyline -->
<polyline points=" 5252,6124 5252,4604"
	stroke="#000000" stroke-width="15px" stroke-linejoin="round"/>
<!-- Line -->
<!-- polyline -->
<polyline points=" 5534,6124 5534,5549"
	stroke="#000000" stroke-width="15px" stroke-linejoin="round"/>
<!-- Line -->
<!-- polyline -->
<polyline points=" 5815,6124 5815,6851"
	stroke="#000000" stroke-width="15px" stroke-linejoin="round"/>
<!-- Line -->
<!-- polyline -->
<polyline points=" 6097,6124 6097,7700"
	stroke="#000000" stroke-width="15px" stroke-linejoin="round"/>
<!-- Line -->
<!-- polyline -->
<polyline points=" 6379,6124 6379,7568"
	stroke="#000000" stroke-width="15px" stroke-linejoin="round"/>
<!-- Line -->
<!-- polyline -->
<polyline points=" 6661,6124 6661,6538"
	stroke="#000000" stroke-width="15px" stroke-linejoin="round"/>
<!-- Line -->
<!-- polyline -->
<polyline points=" 6943,6124 6943,5249"
	stroke="#000000" stroke-width="15px" stroke-linejoin="round"/>
<!-- Line -->
<!-- polyline -->
<polyline points=" 7223,6124 7223,4504"
	stroke="#000000" stroke-width="15px" stroke-linejoin="round"/>
<!-- Line -->
<!-- polyline -->
<polyline points=" 7505,6124 7505,4767"
	stroke="#000000" stroke-width="15px" stroke-linejoin="round"/>
<!-- Line -->
<!-- polyline -->
<polyline points=" 7787,6124 7787,5872"
	stroke="#000000" stroke-width="15px" stroke-linejoin="round"/>
<!-- Line -->
<!-- polyline -->
<polyline points=" 8069,6124 8069,7135"
	stroke="#000000" stroke-width="15px" stroke-linejoin="round"/>
<!-- Line -->
<!-- polyline -->
<polyline points=" 8350,6124 8350,7767"
	stroke="#000000" stroke-width="15px" stroke-linejoin="round"/>
<!-- Line -->
<!-- polyline -->
<polyline points=" 8632,6124 8632,7376"
	stroke="#000000" stroke-width="15px" stroke-linejoin="round"/>
<!-- Line -->
<!-- polyline -->
<polyline points=" 8914,6124 8914,6207"
	stroke="#000000" stroke-width="8px" stroke-linejoin="round"/>
<!-- Line -->
<!-- polyline -->
<polyline points=" 9195,6124 9195,4985"
	stroke="#000000" stroke-width="15px" stroke-linejoin="round"/>
<!-- Line -->
<!-- polyline -->
<polyline points=" 9477,6124 9477,4471"
	stroke="#000000" stroke-width="15px" stroke-linejoin="round"/>
<!-- Line -->
<!-- polyline -->
<polyline points=" 9758,6124 9758,4985"
	stroke="#000000" stroke-width="15px" stroke-linejoin="round"/>
<!-- Line -->
<!-- polyline -->
<polyline points=" 10040,6124 10040,6207"
	stroke="#000000" stroke-width="8px" stroke-linejoin="round"/>
<!-- Line -->
<!-- polyline -->
<polyline points=" 10322,6124 10322,7376"
	stroke="#000000" stroke-width="15px" stroke-linejoin="round"/>
<!-- Line -->
<!-- polyline -->
<polyline points=" 10604,6124 10604,7767"
	stroke="#000000" stroke-width="15px" stroke-linejoin="round"/>
<!-- Line -->
<!-- polyline -->
<polyline points=" 10884,6124 10884,7135"
	stroke="#000000" stroke-width="15px" stroke-linejoin="round"/>
<!-- Line -->
<!-- polyline -->
<polyline points=" 11166,6124 11166,5872"
	stroke="#000000" stroke-width="8px" stroke-linejoin="round"/>
<!-- Line -->
<!-- polyline -->
<defs>
<clipPath id="cp1">
	<path clip-rule="evenodd" d="M 513,3594 H 12634 V 8112 H 513 z
		M 12452,6087 12482,6117 12452,6147 12629,6124 12629,6110z"/>
</clipPath>
</defs>
<polyline points=" 525,6117 12622,6117" clip-path="url(#cp1)"
	stroke="#000000" stroke-width="8px" stroke-linejoin="round"/>
<!-- Forward arrow to point 12622,6117 -->
<polygon points=" 12452,6147 12602,6117 12452,6087 12482,6117 12452,6147"
	stroke="#000000" stroke-width="8px" stroke-miterlimit="8" fill="#000000"/>
<!-- Line -->
<!-- polyline -->
<polyline points=" 11448,6124 11448,4767"
	stroke="#000000" stroke-width="15px" stroke-linejoin="round"/>
<!-- Line -->
<!-- polyline -->
<polyline points=" 11730,6124 11730,4504"
	stroke="#000000" stroke-width="15px" stroke-linejoin="round"/>
<!-- Line -->
<!-- polyline -->
<polyline points=" 12012,6124 12012,5249"
	stroke="#000000" stroke-width="15px" stroke-linejoin="round"/>
<!-- Line -->
<!-- polyline -->
<polyline points=" 3591,6665 3619,6790 3647,6910 3675,7025 3704,7135 3732,7238 3759,7332 3787,7419
 3816,7499 3844,7568 3872,7628 3901,7679 3929,7718 3957,7749 3984,7767 4014,7775
 4041,7772 4069,7760 4098,7735 4126,7700 4154,7654 4182,7600 4211,7535 4239,7460
 4266,7376 4294,7286 4323,7186 4351,7081 4379,6968 4408,6851 4436,6728 4464,6601
 4491,6472 4520,6340 4548,6207 4576,6072 4605,5939 4633,5807 4661,5676 4689,5549
 4718,5425 4745,5306 4773,5193 4801,5085 4830,4985 4858,4890 4886,4806 4915,4729
 4943,4663 4970,4604 4998,4557 5027,4519 5055,4492 5083,4475 5112,4471 5140,4475
 5168,4492 5195,4519 5225,4557 5252,4604 5280,4663 5308,4729 5337,4806 5365,4890
 5393,4985 5422,5085 5450,5193 5477,5306 5505,5425 5534,5549 5562,5676 5590,5807
 5619,5939 5647,6072 5675,6207 5702,6340 5732,6472 5759,6601 5787,6728 5815,6851
 5844,6968 5872,7081 5900,7186 5929,7286 5957,7376 5984,7460 6012,7535 6041,7600
 6069,7654 6097,7700 6126,7735 6154,7760 6182,7772 6209,7775 6239,7767 6266,7749
 6294,7718 6322,7679 6351,7628 6379,7568 6407,7499 6436,7419 6464,7332 6491,7238
 6519,7135 6548,7025 6576,6910 6604,6790 6632,6665 6661,6538 6689,6407 6716,6274
 6745,6140 6773,6006 6801,5872 6829,5742 6858,5613 6886,5486 6914,5365 6943,5249
 6970,5138 6998,5033 7026,4936 7055,4847 7083,4767 7111,4694 7139,4632 7168,4579
 7195,4536 7223,4504 7252,4482 7280,4471 7308,4471 7336,4482 7365,4504 7393,4536
 7420,4579 7450,4632 7477,4694 7505,4767 7533,4847 7562,4936 7590,5033 7618,5138
 7645,5249 7675,5365 7702,5486 7730,5613 7759,5742 7787,5872 7815,6006 7843,6140
 7872,6274 7900,6407 7927,6538 7957,6665 7984,6790 8012,6910 8040,7025 8069,7135
 8097,7238 8125,7332 8152,7419 8182,7499 8209,7568 8237,7628 8266,7679 8294,7718
 8322,7749 8350,7767 8379,7775 8407,7772 8434,7760 8464,7735 8491,7700 8519,7654
 8547,7600 8576,7535 8604,7460 8632,7376 8659,7286 8689,7186 8716,7081 8744,6968
 8773,6851 8801,6728 8829,6601 8857,6472 8886,6340 8914,6207 8941,6072 8970,5939
 8998,5807 9026,5676 9054,5549 9083,5425 9111,5306 9139,5193 9166,5085 9195,4985
 9223,4890 9251,4806 9280,4729 9308,4663 9336,4604 9364,4557 9393,4519 9420,4492
 9448,4475 9477,4471 9505,4475 9533,4492 9561,4519 9590,4557 9618,4604 9645,4663
 9673,4729 9702,4806 9730,4890 9758,4985 9787,5085 9815,5193 9843,5306 9870,5425
 9900,5549 9927,5676 9955,5807 9984,5939 10012,6072 10040,6207 10068,6340 10097,6472
 10125,6601 10152,6728 10180,6851 10209,6968 10237,7081 10265,7186 10294,7286
 10322,7376 10350,7460 10377,7535 10407,7600 10434,7654 10462,7700 10491,7735
 10519,7760 10547,7772 10575,7775 10604,7767 10632,7749 10659,7718 10687,7679
 10716,7628 10744,7568 10772,7499 10801,7419 10829,7332 10857,7238 10884,7135
 10914,7025 10941,6910 10969,6790 10998,6665 11026,6538 11054,6407 11082,6274
 11111,6140 11139,6006 11166,5872 11194,5742 11223,5613 11251,5486 11279,5365
 11308,5249 11336,5138 11364,5033 11391,4936 11420,4847 11448,4767 11476,4694
 11505,4632 11533,4579 11561,4536 11589,4504 11618,4482 11645,4471 11673,4471
 11701,4482 11730,4504 11758,4536 11786,4579 11815,4632 11843,4694 11870,4767
 11898,4847 11927,4936 11955,5033 11983,5138 12012,5249"
	stroke="#000000" stroke-width="8px" stroke-linejoin="round" stroke-dasharray="40 40"/>
<!-- Line -->
<!-- polyline -->
<polyline points=" 748,4471 776,4475 803,4492 831,4519 860,4557 888,4604 916,4663 944,4729 973,4806
 1001,4890 1028,4985 1058,5085 1085,5193 1113,5306 1141,5425 1169,5549 1197,5676
 1225,5807 1252,5939 1282,6072 1309,6207 1337,6340 1366,6472 1394,6601 1422,6728
 1450,6851 1479,6968 1507,7081 1534,7186 1564,7286 1591,7376 1619,7460 1647,7535
 1676,7600 1704,7654 1732,7700 1759,7735 1789,7760 1816,7772 1844,7775 1873,7767
 1901,7749 1929,7718 1957,7679 1986,7628 2014,7568 2041,7499 2070,7419 2098,7332
 2126,7238 2154,7135 2183,7025 2211,6910 2239,6790 2266,6665 2295,6538 2323,6407
 2351,6274 2380,6140 2408,6006 2436,5872 2464,5742 2493,5613 2520,5486 2548,5365
 2577,5249 2605,5138 2633,5033 2661,4936 2690,4847 2718,4767 2745,4694 2773,4632
 2802,4579 2830,4536 2858,4504 2887,4482 2915,4471 2943,4471 2970,4482 3000,4504
 3027,4536 3055,4579 3084,4632 3112,4694 3140,4767 3168,4847 3197,4936 3225,5033
 3252,5138 3280,5249 3309,5365 3337,5486 3365,5613 3394,5742 3422,5872 3450,6006
 3477,6140 3507,6274 3534,6407 3562,6538 3591,6665"
	stroke="#000000" stroke-width="8px" stroke-linejoin="round" stroke-dasharray="40 40"/>
<!-- Line -->
<polyline points=" 689,7788 810,7788"
	stroke="#000000" stroke-width="8px"/>
<!-- Line -->
<polyline points=" 9476,6201 9476,6025"
	stroke="#000000" stroke-width="8px"/>
<!-- Text -->
<text xml:space="preserve" x="900" y="3825" fill="#000000" font-family="Times" font-style="italic" font-weight="normal" font-size="216" text-anchor="start">x<tspan font-size="144" baseline-shift="sub">2</tspan>[n]</text>
<!-- Text -->
<text xml:space="preserve" x="12474" y="6000" fill="#000000" font-family="Times" font-style="italic" font-weight="normal" font-size="216" text-anchor="start">n</text>
</g>
</svg>
