<?xml version="1.0" encoding="UTF-8" standalone="no"?>
<!-- Creator: fig2dev Version 3.2.8b -->
<!-- CreationDate: 2025-10-30 19:43:16 -->
<!-- Magnification: 1.05 -->
<svg	xmlns="http://www.w3.org/2000/svg"
	xmlns:xlink="http://www.w3.org/1999/xlink"
	width="234pt" height="97pt"
	viewBox="-237 945 3714 1536">
<g fill="none">
<!-- Line -->
<defs>
<clipPath id="cp0">
	<path clip-rule="evenodd" d="M -237,945 H 3477 V 2481 H -237 z
		M 795,1085 810,1070 825,1085 817,983 803,983z"/>
</clipPath>
</defs>
<polyline points=" 810,2385 810,990" clip-path="url(#cp0)"
	stroke="#000000" stroke-width="8px"/>
<!-- Forward arrow to point 810,990 -->
<polygon points=" 825,1085 810,1010 795,1085 810,1070 825,1085"
	stroke="#000000" stroke-width="8px" stroke-miterlimit="8" fill="#000000"/>
<!-- Line -->
<defs>
<clipPath id="cp1">
	<path clip-rule="evenodd" d="M -237,945 H 3477 V 2481 H -237 z
		M 3370,2235 3385,2250 3370,2265 3472,2257 3472,2243z"/>
</clipPath>
</defs>
<polyline points=" -225,2250 3465,2250" clip-path="url(#cp1)"
	stroke="#000000" stroke-width="8px"/>
<!-- Forward arrow to point 3465,2250 -->
<polygon points=" 3370,2265 3445,2250 3370,2235 3385,2250 3370,2265"
	stroke="#000000" stroke-width="8px" stroke-miterlimit="8" fill="#000000"/>
<!-- Line -->
<polyline points=" 810,2250 810,1440 990,1440 990,2250"
	stroke="#000000" stroke-width="15px"/>
<!-- Line -->
<defs>
<clipPath id="cp2">
	<path clip-rule="evenodd" d="M -237,945 H 3477 V 2481 H -237 z
		M 720,1699 741,1705 735,1725 819,1668 813,1656z"/>
</clipPath>
</defs>
<polyline points=" 495,1845 810,1665" clip-path="url(#cp2)"
	stroke="#000000" stroke-width="8px"/>
<!-- Forward arrow to point 810,1665 -->
<polygon points=" 735,1725 793,1675 720,1699 741,1705 735,1725"
	stroke="#000000" stroke-width="8px" stroke-miterlimit="8" fill="#000000"/>
<!-- Line -->
<polyline points=" -198,1831 -196,1830 -191,1826 -181,1821 -167,1812 -148,1800 -124,1786 -95,1769
 -62,1750 -27,1729 9,1708 47,1688 84,1668 120,1649 155,1631 188,1615 220,1601
 250,1589 278,1578 305,1569 331,1562 355,1557 379,1553 402,1551 424,1550 447,1550
 470,1552 492,1555 515,1559 538,1564 562,1570 586,1577 611,1585 636,1594 661,1604
 687,1614 714,1625 740,1637 767,1648 793,1660 820,1672 846,1684 873,1696 899,1708
 924,1719 950,1729 975,1739 999,1748 1023,1757 1047,1765 1071,1772 1095,1778 1119,1783
 1143,1787 1168,1790 1193,1793 1218,1795 1244,1796 1271,1796 1298,1795 1326,1793
 1354,1791 1382,1788 1411,1784 1440,1779 1469,1774 1498,1768 1526,1761 1554,1754
 1582,1746 1609,1738 1636,1730 1662,1721 1687,1712 1712,1702 1737,1693 1761,1683
 1785,1673 1811,1661 1837,1649 1862,1637 1889,1625 1915,1612 1942,1599 1969,1586
 1997,1572 2024,1559 2052,1545 2079,1532 2107,1519 2134,1506 2160,1495 2186,1483
 2212,1473 2236,1463 2260,1455 2283,1447 2305,1441 2326,1435 2346,1431 2366,1427
 2385,1425 2407,1424 2430,1424 2452,1426 2473,1429 2496,1433 2518,1439 2540,1446
 2562,1455 2585,1464 2607,1474 2629,1485 2651,1496 2672,1507 2693,1519 2714,1530
 2734,1541 2754,1552 2774,1563 2793,1573 2813,1583 2830,1591 2849,1599 2868,1606
 2888,1613 2909,1621 2932,1628 2956,1635 2983,1642 3011,1649 3041,1657 3073,1664
 3106,1672 3139,1679 3171,1686 3201,1693 3227,1698 3249,1703 3265,1706 3276,1708
 3282,1709 3285,1710"
	stroke="#000000" stroke-width="15px" stroke-linejoin="bevel"/>
<!-- Text -->
<text xml:space="preserve" x="3375" y="2205" fill="#000000" font-family="Times" font-style="normal" font-weight="normal" font-size="108" text-anchor="start">t</text>
<!-- Text -->
<text xml:space="preserve" x="810" y="2430" fill="#000000" font-family="Times" font-style="normal" font-weight="normal" font-size="96" text-anchor="middle">0</text>
<!-- Text -->
<text xml:space="preserve" x="990" y="2430" fill="#000000" font-family="Times" font-style="normal" font-weight="normal" font-size="96" text-anchor="middle">\Delta</text>
<!-- Text -->
<text xml:space="preserve" x="855" y="1080" fill="#000000" font-family="Times" font-style="normal" font-weight="normal" font-size="108" text-anchor="start">x(t)</text>
<!-- Text -->
<text xml:space="preserve" x="900" y="1350" fill="#000000" font-family="Times" font-style="normal" font-weight="normal" font-size="108" text-anchor="start">\delta<tspan font-size="72" baseline-shift="sub">\</tspan>Delta(t)</text>
<!-- Text -->
<text xml:space="preserve" x="720" y="1440" fill="#000000" font-family="Times" font-style="normal" font-weight="normal" font-size="96" text-anchor="end">\frac{1}{\Delta}</text>
<!-- Text -->
<text xml:space="preserve" x="450" y="1890" fill="#000000" font-family="Times" font-style="normal" font-weight="normal" font-size="108" text-anchor="end">x(0)</text>
</g>
</svg>
