<?xml version="1.0" encoding="UTF-8" standalone="no"?>
<!-- Creator: fig2dev Version 3.2.8b -->
<!-- CreationDate: 2025-10-30 19:43:16 -->
<!-- Magnification: 1.05 -->
<svg	xmlns="http://www.w3.org/2000/svg"
	xmlns:xlink="http://www.w3.org/1999/xlink"
	width="144pt" height="88pt"
	viewBox="4128 1101 2274 1393">
<g fill="none">
<!-- Line -->
<defs>
<clipPath id="cp0">
	<path clip-rule="evenodd" d="M 4128,1101 H 6402 V 2494 H 4128 z
		M 5205,1265 5220,1250 5235,1265 5227,1163 5213,1163z"/>
</clipPath>
</defs>
<polyline points=" 5220,2250 5220,1170" clip-path="url(#cp0)"
	stroke="#000000" stroke-width="8px"/>
<!-- Forward arrow to point 5220,1170 -->
<polygon points=" 5235,1265 5220,1190 5205,1265 5220,1250 5235,1265"
	stroke="#000000" stroke-width="8px" stroke-miterlimit="8" fill="#000000"/>
<!-- Line -->
<defs>
<clipPath id="cp1">
	<path clip-rule="evenodd" d="M 4128,1101 H 6402 V 2494 H 4128 z
		M 5190,1790 5220,1760 5250,1790 5231,1610 5210,1610z"/>
</clipPath>
</defs>
<polyline points=" 5220,2250 5220,1620" clip-path="url(#cp1)"
	stroke="#000000" stroke-width="15px"/>
<!-- Forward arrow to point 5220,1620 -->
<polygon points=" 5250,1790 5220,1640 5190,1790 5220,1760 5250,1790"
	stroke="#000000" stroke-width="8px" stroke-miterlimit="8" fill="#000000"/>
<!-- Line -->
<defs>
<clipPath id="cp2">
	<path clip-rule="evenodd" d="M 4128,1101 H 6402 V 2494 H 4128 z
		M 6295,2235 6310,2250 6295,2265 6397,2257 6397,2243z"/>
</clipPath>
</defs>
<polyline points=" 4140,2250 6390,2250" clip-path="url(#cp2)"
	stroke="#000000" stroke-width="8px"/>
<!-- Forward arrow to point 6390,2250 -->
<polygon points=" 6295,2265 6370,2250 6295,2235 6310,2250 6295,2265"
	stroke="#000000" stroke-width="8px" stroke-miterlimit="8" fill="#000000"/>
<!-- Text -->
<text xml:space="preserve" x="5175" y="2430" fill="#000000" font-family="Times" font-style="normal" font-weight="normal" font-size="144" text-anchor="middle">0</text>
<!-- Text -->
<text xml:space="preserve" x="5130" y="1755" fill="#000000" font-family="Times" font-style="normal" font-weight="normal" font-size="144" text-anchor="end">1</text>
<!-- Text -->
<text xml:space="preserve" x="5310" y="1260" fill="#000000" font-family="Times" font-style="normal" font-weight="normal" font-size="144" text-anchor="start">\delta(t)</text>
<!-- Text -->
<text xml:space="preserve" x="6300" y="2205" fill="#000000" font-family="Times" font-style="normal" font-weight="normal" font-size="144" text-anchor="start">t</text>
</g>
</svg>
