<?xml version="1.0" encoding="UTF-8" standalone="no"?>
<!-- Creator: fig2dev Version 3.2.8b -->
<!-- CreationDate: 2025-10-30 19:43:16 -->
<!-- Magnification: 1 -->
<svg	xmlns="http://www.w3.org/2000/svg"
	xmlns:xlink="http://www.w3.org/1999/xlink"
	width="515pt" height="160pt"
	viewBox="1338 4605 8574 2659">
<g fill="none">
<!-- Line -->
<!-- polyline -->
<polyline points=" 1834,6150 1907,5969 1962,5839 2014,5714 2069,5596 2121,5487 2175,5389 2230,5304
 2282,5232 2337,5175 2391,5133 2444,5108 2498,5100 2552,5108 2605,5133 2659,5175
 2713,5232 2766,5304 2820,5389 2874,5487 2927,5596 2981,5714 3035,5839 3088,5969
 3142,6103 3195,6237 3249,6371 3303,6501 3356,6626 3410,6744 3464,6853 3517,6951
 3571,7036 3625,7108 3678,7165 3732,7207 3787,7232 3839,7242 3894,7232 3948,7207
 4000,7165 4055,7108 4109,7036 4162,6951 4216,6853 4269,6744 4323,6626 4377,6501
 4430,6371 4484,6237 4538,6103 4591,5969 4645,5839 4699,5714 4752,5596 4806,5487
 4860,5389 4913,5304 4967,5232 5021,5175 5074,5133 5128,5108 5175,5088"
	stroke="#000000" stroke-width="15px" stroke-linejoin="round"/>
<!-- Line -->
<!-- polyline -->
<polyline points=" 5182,6157 5235,6022 5289,5890 5342,5762 5396,5640 5450,5526 5503,5423 5557,5330
 5612,5253 5664,5187 5719,5137 5773,5104 5825,5087 5880,5087 5934,5104 5987,5137
 6041,5187 6095,5253 6148,5330 6202,5423 6256,5526 6309,5640 6363,5762 6416,5890
 6470,6022 6524,6155 6577,6290 6631,6422 6685,6550 6738,6672 6792,6786 6846,6889
 6899,6982 6953,7060 7007,7125 7060,7175 7114,7208 7169,7225 7221,7225 7275,7208
 7330,7175 7382,7125 7437,7060 7489,6982 7544,6889 7598,6786 7650,6672 7705,6550
 7759,6422 7812,6290 7866,6157 7920,6022 7973,5890 8027,5762 8081,5640 8134,5526
 8188,5423 8242,5330 8295,5253 8349,5187 8403,5137 8456,5104 8510,5087 8563,5087
 8617,5104 8671,5137 8724,5187 8778,5253 8832,5330 8885,5423 8939,5526 8994,5640
 9046,5762 9100,5890 9155,6022 9207,6155"
	stroke="#000000" stroke-width="15px" stroke-linejoin="round"/>
<!-- Line -->
<defs>
<clipPath id="cp0">
	<path clip-rule="evenodd" d="M 1338,4605 H 9912 V 7264 H 1338 z
		M 5153,4782 5175,4760 5198,4782 5182,4643 5168,4643z"/>
</clipPath>
</defs>
<polyline points=" 5175,7200 5175,4650" clip-path="url(#cp0)"
	stroke="#000000" stroke-width="8px"/>
<!-- Forward arrow to point 5175,4650 -->
<polygon points=" 5198,4782 5175,4670 5153,4782 5175,4760 5198,4782"
	stroke="#000000" stroke-width="8px" stroke-miterlimit="8" fill="#000000"/>
<!-- Line -->
<defs>
<clipPath id="cp1">
	<path clip-rule="evenodd" d="M 1338,4605 H 9912 V 7264 H 1338 z
		M 9768,6128 9790,6150 9768,6173 9907,6157 9907,6143z"/>
</clipPath>
</defs>
<polyline points=" 1350,6150 9900,6150" clip-path="url(#cp1)"
	stroke="#000000" stroke-width="8px"/>
<!-- Forward arrow to point 9900,6150 -->
<polygon points=" 9768,6173 9880,6150 9768,6128 9790,6150 9768,6173"
	stroke="#000000" stroke-width="8px" stroke-miterlimit="8" fill="#000000"/>
<!-- Line -->
<polyline points=" 2475,6081 2475,6231"
	stroke="#000000" stroke-width="8px"/>
<!-- Line -->
<polyline points=" 7875,6075 7875,6225"
	stroke="#000000" stroke-width="8px"/>
<!-- Text -->
<text xml:space="preserve" x="9450" y="5850" fill="#000000" font-family="Times" font-style="normal" font-weight="normal" font-size="144" text-anchor="start">\ldots</text>
<!-- Text -->
<text xml:space="preserve" x="5325" y="4800" fill="#000000" font-family="Times" font-style="normal" font-weight="normal" font-size="168" text-anchor="start">x(t)</text>
<!-- Text -->
<text xml:space="preserve" x="9750" y="6075" fill="#000000" font-family="Times" font-style="normal" font-weight="normal" font-size="168" text-anchor="start">t</text>
<!-- Text -->
<text xml:space="preserve" x="5250" y="6375" fill="#000000" font-family="Times" font-style="normal" font-weight="normal" font-size="168" text-anchor="start">0</text>
<!-- Text -->
<text xml:space="preserve" x="2400" y="6525" fill="#000000" font-family="Times" font-style="normal" font-weight="normal" font-size="168" text-anchor="start">-2\pi</text>
<!-- Text -->
<text xml:space="preserve" x="7875" y="6450" fill="#000000" font-family="Times" font-style="normal" font-weight="normal" font-size="168" text-anchor="start">2\pi</text>
<!-- Text -->
<text xml:space="preserve" x="1725" y="5850" fill="#000000" font-family="Times" font-style="normal" font-weight="normal" font-size="144" text-anchor="end">\ldots</text>
</g>
</svg>
