<?xml version="1.0" encoding="UTF-8" standalone="no"?>
<!-- Creator: fig2dev Version 3.2.8b -->
<!-- CreationDate: 2025-10-30 19:43:16 -->
<!-- Magnification: 1.05 -->
<svg	xmlns="http://www.w3.org/2000/svg"
	xmlns:xlink="http://www.w3.org/1999/xlink"
	width="149pt" height="64pt"
	viewBox="618 1473 2364 1008">
<g fill="none">
<!-- Line -->
<defs>
<clipPath id="cp0">
	<path clip-rule="evenodd" d="M 618,1473 H 2982 V 2481 H 618 z
		M 1605,1580 1620,1565 1635,1580 1627,1478 1613,1478z"/>
</clipPath>
</defs>
<polyline points=" 1620,2385 1620,1485" clip-path="url(#cp0)"
	stroke="#000000" stroke-width="8px"/>
<!-- Forward arrow to point 1620,1485 -->
<polygon points=" 1635,1580 1620,1505 1605,1580 1620,1565 1635,1580"
	stroke="#000000" stroke-width="8px" stroke-miterlimit="8" fill="#000000"/>
<!-- Line -->
<defs>
<clipPath id="cp1">
	<path clip-rule="evenodd" d="M 618,1473 H 2982 V 2481 H 618 z
		M 2875,2235 2890,2250 2875,2265 2977,2257 2977,2243z"/>
</clipPath>
</defs>
<polyline points=" 630,2250 2970,2250" clip-path="url(#cp1)"
	stroke="#000000" stroke-width="8px"/>
<!-- Forward arrow to point 2970,2250 -->
<polygon points=" 2875,2265 2950,2250 2875,2235 2890,2250 2875,2265"
	stroke="#000000" stroke-width="8px" stroke-miterlimit="8" fill="#000000"/>
<!-- Text -->
<text xml:space="preserve" x="2430" y="2430" fill="#000000" font-family="Times" font-style="normal" font-weight="normal" font-size="96" text-anchor="middle">3</text>
<!-- Text -->
<text xml:space="preserve" x="1305" y="2430" fill="#000000" font-family="Times" font-style="normal" font-weight="normal" font-size="96" text-anchor="middle">-1</text>
<!-- Text -->
<text xml:space="preserve" x="1575" y="2430" fill="#000000" font-family="Times" font-style="normal" font-weight="normal" font-size="96" text-anchor="middle">0</text>
<!-- Text -->
<text xml:space="preserve" x="1035" y="2430" fill="#000000" font-family="Times" font-style="normal" font-weight="normal" font-size="96" text-anchor="middle">-2</text>
<!-- Text -->
<text xml:space="preserve" x="1890" y="2430" fill="#000000" font-family="Times" font-style="normal" font-weight="normal" font-size="96" text-anchor="middle">1</text>
<!-- Text -->
<text xml:space="preserve" x="2160" y="2430" fill="#000000" font-family="Times" font-style="normal" font-weight="normal" font-size="96" text-anchor="middle">2</text>
<!-- Line -->
<defs>
<clipPath id="cp2">
	<path clip-rule="evenodd" d="M 618,1473 H 2982 V 2481 H 618 z
		M 1583,1889 1584,1895 1586,1901 1588,1906 1592,1911 1596,1915 1601,1919 1607,1921 1612,1923 1618,1924 1625,1923 1630,1922 1636,1920 1641,1917 1646,1913 1650,1909 1653,1904 1656,1898 1657,1892 1658,1886 1631,1838 1610,1838z"/>
</clipPath>
</defs>
<polyline points=" 1620,2250 1620,1845" clip-path="url(#cp2)"
	stroke="#000000" stroke-width="15px"/>
<!-- Forward arrow to point 1620,1845 -->
<polygon points=" 1658,1886 1657,1880 1656,1874 1653,1869 1650,1864 1646,1859
 1641,1855 1636,1852 1630,1850 1625,1849 1618,1849 1612,1850 1607,1851 1601,1854
 1596,1857 1592,1861 1588,1866 1586,1872 1584,1877 1583,1883 1583,1889 1584,1895
 1586,1901 1588,1906 1592,1911 1596,1915 1601,1919 1607,1921 1612,1923 1618,1924
 1625,1923 1630,1922 1636,1920 1641,1917 1646,1913 1650,1909 1653,1904 1656,1898
 1657,1892 1658,1886"
	stroke="#000000" stroke-width="8px" stroke-miterlimit="8"/>
<!-- Line -->
<defs>
<clipPath id="cp3">
	<path clip-rule="evenodd" d="M 618,1473 H 2982 V 2481 H 618 z
		M 1853,1889 1854,1895 1856,1901 1858,1906 1862,1911 1866,1915 1871,1919 1877,1921 1882,1923 1888,1924 1895,1923 1900,1922 1906,1920 1911,1917 1916,1913 1920,1909 1923,1904 1926,1898 1927,1892 1928,1886 1901,1838 1880,1838z"/>
</clipPath>
</defs>
<polyline points=" 1890,2250 1890,1845" clip-path="url(#cp3)"
	stroke="#000000" stroke-width="15px"/>
<!-- Forward arrow to point 1890,1845 -->
<polygon points=" 1928,1886 1927,1880 1926,1874 1923,1869 1920,1864 1916,1859
 1911,1855 1906,1852 1900,1850 1895,1849 1888,1849 1882,1850 1877,1851 1871,1854
 1866,1857 1862,1861 1858,1866 1856,1872 1854,1877 1853,1883 1853,1889 1854,1895
 1856,1901 1858,1906 1862,1911 1866,1915 1871,1919 1877,1921 1882,1923 1888,1924
 1895,1923 1900,1922 1906,1920 1911,1917 1916,1913 1920,1909 1923,1904 1926,1898
 1927,1892 1928,1886"
	stroke="#000000" stroke-width="8px" stroke-miterlimit="8"/>
<!-- Line -->
<defs>
<clipPath id="cp4">
	<path clip-rule="evenodd" d="M 618,1473 H 2982 V 2481 H 618 z
		M 2123,1889 2124,1895 2126,1901 2128,1906 2132,1911 2136,1915 2141,1919 2147,1921 2152,1923 2158,1924 2165,1923 2170,1922 2176,1920 2181,1917 2186,1913 2190,1909 2193,1904 2196,1898 2197,1892 2198,1886 2171,1838 2150,1838z"/>
</clipPath>
</defs>
<polyline points=" 2160,2250 2160,1845" clip-path="url(#cp4)"
	stroke="#000000" stroke-width="15px"/>
<!-- Forward arrow to point 2160,1845 -->
<polygon points=" 2198,1886 2197,1880 2196,1874 2193,1869 2190,1864 2186,1859
 2181,1855 2176,1852 2170,1850 2165,1849 2158,1849 2152,1850 2147,1851 2141,1854
 2136,1857 2132,1861 2128,1866 2126,1872 2124,1877 2123,1883 2123,1889 2124,1895
 2126,1901 2128,1906 2132,1911 2136,1915 2141,1919 2147,1921 2152,1923 2158,1924
 2165,1923 2170,1922 2176,1920 2181,1917 2186,1913 2190,1909 2193,1904 2196,1898
 2197,1892 2198,1886"
	stroke="#000000" stroke-width="8px" stroke-miterlimit="8"/>
<!-- Line -->
<defs>
<clipPath id="cp5">
	<path clip-rule="evenodd" d="M 618,1473 H 2982 V 2481 H 618 z
		M 2393,1889 2394,1895 2396,1901 2398,1906 2402,1911 2406,1915 2411,1919 2417,1921 2422,1923 2428,1924 2435,1923 2440,1922 2446,1920 2451,1917 2456,1913 2460,1909 2463,1904 2466,1898 2467,1892 2468,1886 2441,1838 2420,1838z"/>
</clipPath>
</defs>
<polyline points=" 2430,2250 2430,1845" clip-path="url(#cp5)"
	stroke="#000000" stroke-width="15px"/>
<!-- Forward arrow to point 2430,1845 -->
<polygon points=" 2468,1886 2467,1880 2466,1874 2463,1869 2460,1864 2456,1859
 2451,1855 2446,1852 2440,1850 2435,1849 2428,1849 2422,1850 2417,1851 2411,1854
 2406,1857 2402,1861 2398,1866 2396,1872 2394,1877 2393,1883 2393,1889 2394,1895
 2396,1901 2398,1906 2402,1911 2406,1915 2411,1919 2417,1921 2422,1923 2428,1924
 2435,1923 2440,1922 2446,1920 2451,1917 2456,1913 2460,1909 2463,1904 2466,1898
 2467,1892 2468,1886"
	stroke="#000000" stroke-width="8px" stroke-miterlimit="8"/>
<!-- Line -->
<defs>
<clipPath id="cp6">
	<path clip-rule="evenodd" d="M 618,1473 H 2982 V 2481 H 618 z
		M 1351,2213 1345,2214 1339,2216 1334,2218 1329,2222 1325,2226 1321,2231 1319,2237 1317,2242 1316,2248 1317,2255 1318,2260 1320,2266 1323,2271 1327,2276 1331,2280 1336,2283 1342,2286 1348,2287 1354,2288 1398,2257 1398,2243z
		M 1079,2287 1085,2286 1091,2284 1096,2282 1101,2278 1105,2274 1109,2269 1111,2263 1113,2258 1114,2252 1113,2245 1112,2240 1110,2234 1107,2229 1103,2224 1099,2220 1094,2217 1088,2214 1082,2213 1076,2213 1032,2243 1032,2257z"/>
</clipPath>
</defs>
<polyline points=" 1035,2250 1395,2250" clip-path="url(#cp6)"
	stroke="#000000" stroke-width="8px"/>
<!-- Forward arrow to point 1395,2250 -->
<polygon points=" 1354,2288 1360,2287 1366,2286 1371,2283 1376,2280 1381,2276
 1385,2271 1388,2266 1390,2260 1391,2255 1391,2248 1390,2242 1389,2237 1386,2231
 1383,2226 1379,2222 1374,2218 1368,2216 1363,2214 1357,2213 1351,2213 1345,2214
 1339,2216 1334,2218 1329,2222 1325,2226 1321,2231 1319,2237 1317,2242 1316,2248
 1317,2255 1318,2260 1320,2266 1323,2271 1327,2276 1331,2280 1336,2283 1342,2286
 1348,2287 1354,2288"
	stroke="#000000" stroke-width="8px" stroke-miterlimit="8"/>
<!-- Backward arrow to point 1035,2250 -->
<polygon points=" 1076,2213 1070,2213 1064,2214 1059,2217 1054,2220 1049,2224
 1045,2229 1042,2234 1040,2240 1039,2245 1039,2252 1040,2258 1041,2263 1044,2269
 1047,2274 1051,2278 1056,2282 1062,2284 1067,2286 1073,2287 1079,2287 1085,2286
 1091,2284 1096,2282 1101,2278 1105,2274 1109,2269 1111,2263 1113,2258 1114,2252
 1113,2245 1112,2240 1110,2234 1107,2229 1103,2224 1099,2220 1094,2217 1088,2214
 1082,2213 1076,2213"
	stroke="#000000" stroke-width="8px" stroke-miterlimit="8"/>
<!-- Text -->
<text xml:space="preserve" x="2610" y="2070" fill="#000000" font-family="Times" font-style="normal" font-weight="normal" font-size="108" text-anchor="start">\cdots</text>
<!-- Text -->
<text xml:space="preserve" x="900" y="2115" fill="#000000" font-family="Times" font-style="normal" font-weight="normal" font-size="108" text-anchor="end">\cdots</text>
<!-- Text -->
<text xml:space="preserve" x="1710" y="1620" fill="#000000" font-family="Times" font-style="normal" font-weight="normal" font-size="108" text-anchor="start">x[n]</text>
<!-- Text -->
<text xml:space="preserve" x="1665" y="1845" fill="#000000" font-family="Times" font-style="normal" font-weight="normal" font-size="108" text-anchor="start">1</text>
<!-- Text -->
<text xml:space="preserve" x="2880" y="2205" fill="#000000" font-family="Times" font-style="normal" font-weight="normal" font-size="108" text-anchor="start">n</text>
</g>
</svg>
