<?xml version="1.0" encoding="UTF-8" standalone="no"?>
<!-- Creator: fig2dev Version 3.2.8b -->
<!-- CreationDate: 2025-10-30 19:43:16 -->
<!-- Magnification: 1.05 -->
<svg	xmlns="http://www.w3.org/2000/svg"
	xmlns:xlink="http://www.w3.org/1999/xlink"
	width="155pt" height="85pt"
	viewBox="78 1191 2454 1348">
<g fill="none">
<!-- Line -->
<defs>
<clipPath id="cp0">
	<path clip-rule="evenodd" d="M 78,1191 H 2532 V 2539 H 78 z
		M 1148,1347 1170,1325 1193,1347 1177,1208 1163,1208z"/>
</clipPath>
</defs>
<polyline points=" 1170,2385 1170,1215" clip-path="url(#cp0)"
	stroke="#000000" stroke-width="8px"/>
<!-- Forward arrow to point 1170,1215 -->
<polygon points=" 1193,1347 1170,1235 1148,1347 1170,1325 1193,1347"
	stroke="#000000" stroke-width="8px" stroke-miterlimit="8" fill="#000000"/>
<!-- Line -->
<defs>
<clipPath id="cp1">
	<path clip-rule="evenodd" d="M 78,1191 H 2532 V 2539 H 78 z
		M 2388,2228 2410,2250 2388,2273 2527,2257 2527,2243z"/>
</clipPath>
</defs>
<polyline points=" 90,2250 2520,2250" clip-path="url(#cp1)"
	stroke="#000000" stroke-width="8px"/>
<!-- Forward arrow to point 2520,2250 -->
<polygon points=" 2388,2273 2500,2250 2388,2228 2410,2250 2388,2273"
	stroke="#000000" stroke-width="8px" stroke-miterlimit="8" fill="#000000"/>
<!-- Line -->
<polyline points=" 450,2250 451,2247 454,2241 459,2230 467,2214 477,2192 490,2164 506,2131 523,2094
 542,2054 562,2014 582,1973 602,1933 621,1895 639,1860 657,1827 673,1797 688,1770
 702,1746 715,1725 728,1707 739,1691 750,1677 760,1666 770,1657 780,1650 792,1643
 804,1639 816,1637 828,1638 839,1641 851,1646 862,1653 874,1663 885,1673 896,1686
 907,1699 917,1714 927,1729 937,1744 947,1760 956,1775 965,1789 973,1804 982,1817
 990,1830 1000,1845 1011,1859 1022,1872 1033,1884 1044,1895 1056,1905 1068,1914
 1080,1923 1092,1930 1104,1936 1116,1940 1127,1944 1138,1947 1149,1949 1160,1950
 1170,1950 1180,1950 1191,1949 1202,1947 1213,1944 1224,1940 1236,1936 1248,1930
 1260,1923 1272,1914 1284,1905 1296,1895 1307,1884 1318,1872 1329,1859 1340,1845
 1350,1830 1358,1817 1367,1804 1375,1789 1384,1775 1393,1760 1403,1744 1413,1729
 1423,1714 1433,1699 1444,1686 1455,1673 1466,1663 1478,1653 1489,1646 1501,1641
 1512,1638 1524,1637 1536,1639 1548,1643 1560,1650 1570,1657 1580,1666 1590,1677
 1601,1691 1612,1707 1625,1725 1638,1746 1652,1770 1667,1797 1683,1827 1701,1860
 1719,1895 1738,1933 1758,1973 1778,2014 1798,2054 1817,2094 1834,2131 1850,2164
 1863,2192 1873,2214 1881,2230 1886,2241 1889,2247 1890,2250"
	stroke="#000000" stroke-width="15px" stroke-linejoin="bevel"/>
<!-- Text -->
<text xml:space="preserve" x="2430" y="2160" fill="#000000" font-family="Times" font-style="normal" font-weight="normal" font-size="144" text-anchor="start">t</text>
<!-- Text -->
<text xml:space="preserve" x="1260" y="1350" fill="#000000" font-family="Times" font-style="normal" font-weight="normal" font-size="144" text-anchor="start">x(t)</text>
<!-- Text -->
<text xml:space="preserve" x="1215" y="2475" fill="#000000" font-family="Times" font-style="normal" font-weight="normal" font-size="144" text-anchor="start">0</text>
</g>
</svg>
