<?xml version="1.0" encoding="UTF-8" standalone="no"?>
<!-- Creator: fig2dev Version 3.2.8b -->
<!-- CreationDate: 2025-10-30 19:43:16 -->
<!-- Magnification: 1 -->
<svg	xmlns="http://www.w3.org/2000/svg"
	xmlns:xlink="http://www.w3.org/1999/xlink"
	width="525pt" height="337pt"
	viewBox="1188 4617 8749 5609">
<g fill="none">
<!-- Line -->
<!-- polyline -->
<polyline points=" 2165,10214 2165,10105"
	stroke="#000000" stroke-width="8px" stroke-linejoin="round"/>
<!-- Line -->
<!-- polyline -->
<polyline points=" 4312,10214 4312,10105"
	stroke="#000000" stroke-width="8px" stroke-linejoin="round"/>
<!-- Line -->
<!-- polyline -->
<polyline points=" 6459,10214 6459,10105"
	stroke="#000000" stroke-width="8px" stroke-linejoin="round"/>
<!-- Line -->
<!-- polyline -->
<polyline points=" 8606,10214 8606,10105"
	stroke="#000000" stroke-width="8px" stroke-linejoin="round"/>
<!-- Line -->
<!-- spline -->
<polyline points=" 1784,9772 1784,9773 1783,9777 1782,9783 1781,9787 1781,9788 1780,9790 1779,9793
 1777,9797 1774,9801 1771,9805 1770,9807 1769,9807 1768,9809 1764,9812 1760,9815
 1758,9816 1757,9816 1755,9817 1750,9819 1744,9821 1740,9821 1737,9822 1734,9822
 1733,9822 1729,9821 1723,9820 1719,9819 1718,9819 1716,9818 1713,9817 1709,9815
 1705,9812 1701,9809 1699,9807 1697,9805 1694,9801 1691,9797 1690,9795 1689,9793
 1687,9788 1685,9783 1685,9778 1684,9775 1684,9772 1684,9771 1685,9767 1686,9761
 1687,9757 1687,9756 1688,9754 1689,9750 1691,9747 1694,9742 1697,9738 1699,9737
 1699,9736 1701,9735 1705,9732 1709,9729 1711,9728 1711,9727 1713,9726 1718,9724
 1723,9723 1728,9722 1731,9722 1734,9722 1735,9722 1739,9723 1745,9723 1749,9724
 1750,9724 1752,9725 1756,9727 1759,9729 1764,9732 1768,9735 1769,9736 1770,9737
 1771,9738 1774,9742 1777,9746 1778,9748 1778,9749 1779,9751 1781,9756 1783,9762
 1783,9766 1784,9769 1784,9772"
	stroke="#000000" stroke-width="8px" stroke-linejoin="bevel"/>
<!-- Line -->
<!-- spline -->
<polyline points=" 2215,10161 2215,10162 2214,10166 2213,10172 2212,10176 2212,10177 2211,10179
 2210,10182 2208,10186 2205,10190 2202,10194 2200,10196 2198,10198 2194,10201
 2190,10204 2188,10205 2187,10205 2185,10206 2180,10208 2175,10210 2171,10210
 2167,10211 2165,10211 2164,10211 2160,10210 2154,10209 2150,10208 2149,10208
 2147,10207 2144,10206 2140,10204 2135,10201 2131,10198 2129,10196 2127,10194
 2124,10190 2121,10186 2120,10184 2119,10182 2117,10177 2116,10172 2115,10167
 2115,10164 2115,10161 2115,10160 2116,10156 2116,10150 2117,10146 2117,10145
 2118,10143 2119,10140 2121,10136 2124,10131 2127,10127 2129,10125 2131,10123
 2135,10120 2139,10117 2141,10116 2142,10116 2144,10115 2149,10113 2155,10112
 2159,10111 2162,10111 2165,10111 2166,10111 2170,10112 2175,10112 2179,10113
 2180,10113 2182,10114 2185,10115 2189,10117 2194,10120 2198,10123 2200,10125
 2202,10127 2205,10131 2208,10135 2209,10137 2209,10138 2210,10140 2212,10145
 2214,10151 2214,10155 2215,10158 2215,10161"
	stroke="#000000" stroke-width="8px" stroke-linejoin="bevel"/>
<!-- Line -->
<!-- spline -->
<polyline points=" 2644,9141 2644,9142 2643,9146 2642,9152 2641,9156 2641,9157 2640,9159 2639,9162
 2637,9166 2634,9171 2631,9175 2629,9177 2627,9179 2623,9182 2619,9185 2617,9186
 2615,9187 2610,9189 2605,9190 2600,9191 2597,9191 2594,9191 2593,9191 2589,9190
 2583,9190 2579,9189 2578,9189 2576,9188 2573,9187 2569,9185 2564,9182 2560,9179
 2558,9177 2556,9175 2553,9171 2550,9167 2549,9165 2549,9164 2548,9162 2546,9157
 2545,9151 2544,9147 2544,9144 2544,9141 2544,9140 2545,9136 2545,9131 2546,9127
 2546,9126 2547,9124 2548,9121 2550,9117 2553,9112 2556,9108 2558,9106 2560,9104
 2564,9101 2568,9098 2570,9097 2571,9097 2573,9096 2578,9094 2584,9092 2588,9092
 2591,9091 2594,9091 2595,9091 2599,9092 2605,9093 2609,9094 2610,9094 2612,9095
 2615,9096 2619,9098 2623,9101 2627,9104 2629,9106 2631,9108 2634,9112 2637,9116
 2638,9118 2638,9119 2639,9121 2641,9126 2643,9131 2643,9135 2644,9139 2644,9141
"
	stroke="#000000" stroke-width="8px" stroke-linejoin="bevel"/>
<!-- Line -->
<!-- spline -->
<polyline points=" 3073,8123 3073,8124 3072,8128 3071,8134 3070,8138 3070,8139 3069,8141 3068,8144
 3066,8148 3063,8153 3060,8157 3058,8159 3056,8161 3052,8164 3048,8167 3046,8168
 3044,8169 3039,8171 3034,8172 3029,8173 3026,8173 3023,8173 3022,8173 3018,8172
 3012,8172 3008,8171 3007,8171 3005,8170 3001,8169 2998,8167 2993,8164 2989,8161
 2988,8159 2987,8159 2986,8157 2983,8153 2980,8149 2979,8147 2979,8146 2978,8144
 2976,8139 2974,8133 2974,8129 2973,8126 2973,8123 2973,8122 2974,8118 2975,8113
 2976,8109 2976,8108 2977,8106 2978,8103 2980,8099 2983,8094 2986,8090 2987,8088
 2988,8088 2989,8086 2993,8083 2997,8080 2999,8079 3000,8079 3002,8078 3007,8076
 3013,8074 3017,8074 3020,8073 3023,8073 3024,8073 3028,8074 3034,8075 3038,8076
 3039,8076 3041,8077 3044,8078 3048,8080 3052,8083 3056,8086 3058,8088 3060,8090
 3063,8094 3066,8098 3067,8100 3067,8101 3068,8103 3070,8108 3072,8113 3072,8117
 3073,8121 3073,8123"
	stroke="#000000" stroke-width="8px" stroke-linejoin="bevel"/>
<!-- Line -->
<!-- spline -->
<polyline points=" 3502,8512 3502,8513 3501,8517 3501,8523 3500,8527 3500,8528 3499,8530 3497,8533
 3495,8537 3492,8542 3489,8546 3488,8548 3487,8548 3486,8550 3482,8553 3478,8556
 3476,8557 3475,8557 3473,8558 3468,8560 3462,8561 3458,8562 3455,8562 3452,8562
 3451,8562 3447,8561 3441,8561 3437,8560 3436,8560 3434,8559 3431,8558 3427,8556
 3423,8553 3419,8550 3417,8548 3415,8546 3412,8542 3409,8538 3408,8536 3408,8535
 3407,8533 3405,8528 3403,8522 3403,8518 3402,8515 3402,8512 3402,8511 3403,8507
 3404,8501 3405,8497 3405,8496 3406,8494 3407,8491 3409,8487 3412,8483 3415,8479
 3417,8477 3419,8475 3423,8472 3427,8469 3429,8468 3431,8467 3436,8465 3441,8463
 3446,8463 3449,8462 3452,8462 3453,8462 3457,8463 3463,8464 3467,8465 3468,8465
 3470,8466 3474,8467 3477,8469 3482,8472 3486,8475 3487,8477 3488,8477 3489,8479
 3492,8483 3495,8487 3496,8489 3497,8489 3498,8491 3500,8496 3501,8501 3502,8506
 3502,8509 3502,8512"
	stroke="#000000" stroke-width="8px" stroke-linejoin="bevel"/>
<!-- Line -->
<!-- spline -->
<polyline points=" 3931,9772 3931,9773 3930,9777 3930,9783 3929,9787 3929,9788 3928,9790 3927,9793
 3925,9797 3922,9801 3919,9805 3917,9807 3915,9809 3911,9812 3907,9815 3905,9816
 3904,9816 3902,9817 3897,9819 3891,9821 3887,9821 3884,9822 3881,9822 3880,9822
 3876,9821 3871,9820 3867,9819 3866,9819 3864,9818 3861,9817 3857,9815 3852,9812
 3848,9809 3846,9807 3844,9805 3841,9801 3838,9797 3837,9795 3836,9793 3834,9788
 3832,9783 3832,9778 3831,9775 3831,9772 3831,9771 3832,9767 3833,9761 3834,9757
 3834,9756 3835,9754 3836,9750 3838,9747 3841,9742 3844,9738 3846,9737 3846,9736
 3848,9735 3852,9732 3856,9729 3858,9728 3859,9727 3861,9726 3866,9724 3871,9723
 3875,9722 3879,9722 3881,9722 3882,9722 3886,9723 3892,9723 3896,9724 3897,9724
 3899,9725 3902,9727 3906,9729 3911,9732 3915,9735 3917,9736 3917,9737 3919,9738
 3922,9742 3925,9746 3926,9748 3926,9749 3927,9751 3929,9756 3930,9762 3931,9766
 3931,9769 3931,9772"
	stroke="#000000" stroke-width="8px" stroke-linejoin="bevel"/>
<!-- Line -->
<!-- spline -->
<polyline points=" 4362,10161 4362,10162 4361,10166 4360,10172 4359,10176 4359,10177 4358,10179
 4357,10182 4355,10186 4352,10190 4349,10194 4347,10196 4345,10198 4341,10201
 4337,10204 4335,10205 4333,10206 4328,10208 4323,10210 4318,10210 4315,10211
 4312,10211 4311,10211 4307,10210 4301,10209 4297,10208 4296,10208 4294,10207
 4291,10206 4287,10204 4282,10201 4278,10198 4276,10196 4274,10194 4271,10190
 4268,10186 4267,10184 4266,10182 4264,10177 4263,10172 4262,10167 4262,10164
 4262,10161 4262,10160 4263,10156 4263,10150 4264,10146 4264,10145 4265,10143
 4266,10140 4268,10136 4271,10131 4274,10127 4276,10125 4278,10123 4282,10120
 4286,10117 4288,10116 4289,10116 4291,10115 4296,10113 4302,10112 4306,10111
 4309,10111 4312,10111 4313,10111 4317,10112 4323,10112 4327,10113 4328,10113
 4330,10114 4333,10115 4337,10117 4341,10120 4345,10123 4347,10125 4349,10127
 4352,10131 4355,10135 4356,10137 4356,10138 4357,10140 4359,10145 4361,10151
 4361,10155 4362,10158 4362,10161"
	stroke="#000000" stroke-width="8px" stroke-linejoin="bevel"/>
<!-- Line -->
<!-- spline -->
<polyline points=" 4791,9143 4791,9144 4790,9148 4789,9153 4788,9157 4788,9158 4787,9160 4786,9163
 4784,9167 4781,9172 4778,9176 4777,9178 4776,9178 4775,9180 4771,9183 4767,9186
 4765,9187 4764,9187 4762,9188 4757,9190 4751,9192 4747,9192 4744,9193 4741,9193
 4740,9193 4736,9192 4730,9191 4726,9190 4725,9190 4723,9189 4719,9188 4716,9186
 4711,9183 4707,9180 4706,9178 4705,9178 4704,9176 4701,9172 4698,9168 4697,9166
 4697,9165 4696,9163 4694,9158 4692,9153 4692,9149 4691,9145 4691,9143 4691,9142
 4692,9138 4693,9132 4694,9128 4694,9127 4695,9125 4696,9122 4698,9118 4701,9113
 4704,9109 4705,9107 4706,9107 4707,9105 4711,9102 4715,9099 4717,9098 4718,9098
 4720,9097 4725,9095 4731,9094 4735,9093 4738,9093 4741,9093 4742,9093 4746,9094
 4752,9094 4756,9095 4757,9095 4759,9096 4763,9097 4766,9099 4771,9102 4775,9105
 4776,9107 4777,9107 4778,9109 4781,9113 4784,9117 4785,9119 4785,9120 4786,9122
 4788,9127 4790,9133 4790,9137 4791,9140 4791,9143"
	stroke="#000000" stroke-width="8px" stroke-linejoin="bevel"/>
<!-- Line -->
<!-- spline -->
<polyline points=" 5220,8123 5220,8124 5219,8128 5219,8134 5218,8138 5218,8139 5217,8141 5216,8144
 5214,8148 5211,8153 5208,8157 5206,8159 5204,8161 5200,8164 5196,8167 5194,8168
 5193,8168 5191,8169 5186,8171 5180,8172 5176,8173 5173,8173 5170,8173 5169,8173
 5165,8172 5159,8172 5155,8171 5154,8171 5152,8170 5149,8169 5145,8167 5141,8164
 5137,8161 5135,8159 5133,8157 5130,8153 5127,8149 5126,8147 5126,8146 5125,8144
 5123,8139 5121,8133 5121,8129 5120,8126 5120,8123 5120,8122 5121,8118 5122,8113
 5123,8109 5123,8108 5124,8106 5125,8103 5127,8099 5130,8094 5133,8090 5135,8088
 5137,8086 5141,8083 5145,8080 5147,8079 5149,8078 5154,8076 5159,8074 5164,8074
 5167,8073 5170,8073 5171,8073 5175,8074 5181,8075 5185,8076 5186,8076 5188,8077
 5191,8078 5195,8080 5200,8083 5204,8086 5206,8088 5208,8090 5211,8094 5214,8098
 5215,8100 5215,8101 5216,8103 5218,8108 5219,8113 5220,8117 5220,8121 5220,8123
"
	stroke="#000000" stroke-width="8px" stroke-linejoin="bevel"/>
<!-- Line -->
<!-- spline -->
<polyline points=" 5649,8512 5649,8513 5648,8517 5648,8523 5647,8527 5647,8528 5646,8530 5645,8533
 5643,8537 5640,8542 5637,8546 5635,8548 5633,8550 5629,8553 5625,8556 5623,8557
 5622,8557 5620,8558 5615,8560 5609,8561 5605,8562 5602,8562 5599,8562 5598,8562
 5594,8561 5589,8561 5585,8560 5584,8560 5582,8559 5579,8558 5575,8556 5570,8553
 5566,8550 5564,8548 5562,8546 5559,8542 5556,8538 5555,8536 5555,8535 5554,8533
 5552,8528 5550,8522 5550,8518 5549,8515 5549,8512 5549,8511 5550,8507 5551,8501
 5552,8497 5552,8496 5553,8494 5554,8491 5556,8487 5559,8483 5562,8479 5564,8477
 5566,8475 5570,8472 5574,8469 5576,8468 5577,8468 5579,8467 5584,8465 5589,8463
 5593,8463 5597,8462 5599,8462 5600,8462 5604,8463 5610,8464 5614,8465 5615,8465
 5617,8466 5620,8467 5624,8469 5629,8472 5633,8475 5635,8477 5637,8479 5640,8483
 5643,8487 5644,8489 5645,8491 5647,8496 5648,8501 5649,8506 5649,8509 5649,8512
"
	stroke="#000000" stroke-width="8px" stroke-linejoin="bevel"/>
<!-- Line -->
<!-- spline -->
<polyline points=" 6078,9772 6078,9773 6077,9777 6077,9783 6076,9787 6076,9788 6075,9790 6074,9793
 6072,9797 6069,9801 6066,9805 6064,9807 6062,9809 6058,9812 6054,9815 6052,9816
 6051,9816 6049,9817 6044,9819 6038,9821 6034,9821 6031,9822 6028,9822 6027,9822
 6023,9821 6018,9820 6014,9819 6013,9819 6011,9818 6008,9817 6004,9815 5999,9812
 5995,9809 5993,9807 5991,9805 5988,9801 5985,9797 5984,9795 5983,9793 5981,9788
 5979,9783 5979,9778 5978,9775 5978,9772 5978,9771 5979,9767 5980,9761 5981,9757
 5981,9756 5982,9754 5983,9750 5985,9747 5988,9742 5991,9738 5993,9737 5993,9736
 5995,9735 5999,9732 6003,9729 6005,9728 6006,9727 6008,9726 6013,9724 6018,9723
 6022,9722 6026,9722 6028,9722 6029,9722 6033,9723 6039,9723 6043,9724 6044,9724
 6046,9725 6049,9727 6053,9729 6058,9732 6062,9735 6064,9736 6064,9737 6066,9738
 6069,9742 6072,9746 6073,9748 6073,9749 6074,9751 6076,9756 6077,9762 6078,9766
 6078,9769 6078,9772"
	stroke="#000000" stroke-width="8px" stroke-linejoin="bevel"/>
<!-- Line -->
<!-- spline -->
<polyline points=" 6509,10161 6509,10162 6508,10166 6507,10172 6506,10176 6506,10177 6505,10179
 6504,10182 6502,10186 6499,10190 6496,10194 6495,10196 6494,10196 6493,10198
 6489,10201 6485,10204 6483,10205 6482,10205 6480,10206 6475,10208 6469,10210
 6465,10210 6462,10211 6459,10211 6458,10211 6454,10210 6448,10209 6444,10208
 6443,10208 6441,10207 6438,10206 6434,10204 6430,10201 6426,10198 6424,10196
 6422,10194 6419,10190 6416,10186 6415,10184 6414,10182 6412,10177 6410,10172
 6410,10167 6409,10164 6409,10161 6409,10160 6410,10156 6411,10150 6412,10146
 6412,10145 6413,10143 6414,10140 6416,10136 6419,10131 6422,10127 6424,10125
 6426,10123 6430,10120 6434,10117 6436,10116 6438,10115 6443,10113 6448,10112
 6453,10111 6456,10111 6459,10111 6460,10111 6464,10112 6470,10112 6474,10113
 6475,10113 6477,10114 6481,10115 6484,10117 6489,10120 6493,10123 6494,10125
 6495,10125 6496,10127 6499,10131 6502,10135 6503,10137 6503,10138 6504,10140
 6506,10145 6508,10151 6508,10155 6509,10158 6509,10161"
	stroke="#000000" stroke-width="8px" stroke-linejoin="bevel"/>
<!-- Line -->
<!-- spline -->
<polyline points=" 6938,9143 6938,9144 6937,9148 6937,9153 6936,9157 6936,9158 6935,9160 6934,9163
 6932,9167 6929,9172 6926,9176 6924,9178 6922,9180 6918,9183 6914,9186 6912,9187
 6911,9187 6909,9188 6904,9190 6898,9192 6894,9192 6891,9193 6888,9193 6887,9193
 6883,9192 6877,9191 6873,9190 6872,9190 6870,9189 6867,9188 6863,9186 6859,9183
 6855,9180 6853,9178 6851,9176 6848,9172 6845,9168 6844,9166 6844,9165 6843,9163
 6841,9158 6839,9153 6839,9149 6838,9145 6838,9143 6838,9142 6839,9138 6840,9132
 6841,9128 6841,9127 6842,9125 6843,9122 6845,9118 6848,9113 6851,9109 6853,9107
 6855,9105 6859,9102 6863,9099 6865,9098 6867,9097 6872,9095 6877,9094 6882,9093
 6885,9093 6888,9093 6889,9093 6893,9094 6899,9094 6903,9095 6904,9095 6906,9096
 6909,9097 6913,9099 6918,9102 6922,9105 6924,9107 6926,9109 6929,9113 6932,9117
 6933,9119 6933,9120 6934,9122 6936,9127 6937,9133 6938,9137 6938,9140 6938,9143
"
	stroke="#000000" stroke-width="8px" stroke-linejoin="bevel"/>
<!-- Line -->
<!-- spline -->
<polyline points=" 7367,8123 7367,8124 7366,8128 7366,8134 7365,8138 7365,8139 7364,8141 7363,8144
 7361,8148 7358,8153 7355,8157 7353,8159 7351,8161 7347,8164 7343,8167 7341,8168
 7340,8168 7338,8169 7333,8171 7327,8172 7323,8173 7320,8173 7317,8173 7316,8173
 7312,8172 7307,8172 7303,8171 7302,8171 7300,8170 7297,8169 7293,8167 7288,8164
 7284,8161 7282,8159 7280,8157 7277,8153 7274,8149 7273,8147 7273,8146 7272,8144
 7270,8139 7268,8133 7268,8129 7267,8126 7267,8123 7267,8122 7268,8118 7269,8113
 7270,8109 7270,8108 7271,8106 7272,8103 7274,8099 7277,8094 7280,8090 7282,8088
 7284,8086 7288,8083 7292,8080 7294,8079 7295,8079 7297,8078 7302,8076 7307,8074
 7311,8074 7315,8073 7317,8073 7318,8073 7322,8074 7328,8075 7332,8076 7333,8076
 7335,8077 7338,8078 7342,8080 7347,8083 7351,8086 7353,8088 7355,8090 7358,8094
 7361,8098 7362,8100 7362,8101 7363,8103 7365,8108 7366,8113 7367,8117 7367,8121
 7367,8123"
	stroke="#000000" stroke-width="8px" stroke-linejoin="bevel"/>
<!-- Line -->
<!-- spline -->
<polyline points=" 7797,8512 7797,8513 7796,8517 7795,8523 7794,8527 7794,8528 7793,8530 7792,8533
 7790,8537 7787,8542 7784,8546 7782,8548 7780,8550 7776,8553 7772,8556 7770,8557
 7769,8557 7767,8558 7762,8560 7757,8561 7753,8562 7749,8562 7747,8562 7746,8562
 7742,8561 7736,8561 7732,8560 7731,8560 7729,8559 7726,8558 7722,8556 7717,8553
 7713,8550 7711,8548 7709,8546 7706,8542 7703,8538 7702,8536 7702,8535 7701,8533
 7699,8528 7698,8522 7697,8518 7697,8515 7697,8512 7697,8511 7698,8507 7698,8501
 7699,8497 7699,8496 7700,8494 7701,8491 7703,8487 7706,8483 7709,8479 7711,8477
 7713,8475 7717,8472 7721,8469 7723,8468 7724,8468 7726,8467 7731,8465 7737,8463
 7741,8463 7744,8462 7747,8462 7748,8462 7752,8463 7757,8464 7761,8465 7762,8465
 7764,8466 7767,8467 7771,8469 7776,8472 7780,8475 7782,8477 7784,8479 7787,8483
 7790,8487 7791,8489 7792,8491 7794,8496 7796,8501 7796,8506 7797,8509 7797,8512
"
	stroke="#000000" stroke-width="8px" stroke-linejoin="bevel"/>
<!-- Line -->
<!-- spline -->
<polyline points=" 8226,9772 8226,9773 8225,9777 8224,9783 8223,9787 8223,9788 8222,9790 8221,9793
 8219,9797 8216,9801 8213,9805 8211,9807 8209,9809 8205,9812 8201,9815 8199,9816
 8198,9816 8196,9817 8191,9819 8186,9821 8182,9821 8178,9822 8176,9822 8175,9822
 8171,9821 8165,9820 8161,9819 8160,9819 8158,9818 8155,9817 8151,9815 8146,9812
 8142,9809 8140,9807 8138,9805 8135,9801 8132,9797 8131,9795 8130,9793 8128,9788
 8127,9783 8126,9778 8126,9775 8126,9772 8126,9771 8127,9767 8127,9761 8128,9757
 8128,9756 8129,9754 8130,9750 8132,9747 8135,9742 8138,9738 8140,9737 8140,9736
 8142,9735 8146,9732 8150,9729 8152,9728 8153,9727 8155,9726 8160,9724 8166,9723
 8170,9722 8173,9722 8176,9722 8177,9722 8181,9723 8186,9723 8190,9724 8191,9724
 8193,9725 8196,9727 8200,9729 8205,9732 8209,9735 8211,9736 8211,9737 8213,9738
 8216,9742 8219,9746 8220,9748 8220,9749 8221,9751 8223,9756 8225,9762 8225,9766
 8226,9769 8226,9772"
	stroke="#000000" stroke-width="8px" stroke-linejoin="bevel"/>
<!-- Line -->
<!-- spline -->
<polyline points=" 8656,10161 8656,10162 8655,10166 8655,10172 8654,10176 8654,10177 8653,10179
 8652,10182 8650,10186 8647,10190 8644,10194 8642,10196 8640,10198 8636,10201
 8632,10204 8630,10205 8629,10205 8627,10206 8622,10208 8616,10210 8612,10210
 8609,10211 8606,10211 8605,10211 8601,10210 8596,10209 8592,10208 8591,10208
 8589,10207 8586,10206 8582,10204 8577,10201 8573,10198 8571,10196 8569,10194
 8566,10190 8563,10186 8562,10184 8561,10182 8559,10177 8557,10172 8557,10167
 8556,10164 8556,10161 8556,10160 8557,10156 8558,10150 8559,10146 8559,10145
 8560,10143 8561,10140 8563,10136 8566,10131 8569,10127 8571,10125 8573,10123
 8577,10120 8581,10117 8583,10116 8584,10116 8586,10115 8591,10113 8596,10112
 8600,10111 8604,10111 8606,10111 8607,10111 8611,10112 8617,10112 8621,10113
 8622,10113 8624,10114 8627,10115 8631,10117 8636,10120 8640,10123 8642,10125
 8644,10127 8647,10131 8650,10135 8651,10137 8651,10138 8652,10140 8654,10145
 8655,10151 8656,10155 8656,10158 8656,10161"
	stroke="#000000" stroke-width="8px" stroke-linejoin="bevel"/>
<!-- Line -->
<!-- spline -->
<polyline points=" 1632,6135 1632,6136 1631,6140 1630,6145 1629,6149 1629,6150 1628,6152 1627,6155
 1625,6159 1622,6164 1619,6168 1617,6170 1615,6172 1611,6175 1607,6178 1605,6179
 1603,6180 1598,6182 1593,6184 1588,6184 1585,6185 1582,6185 1581,6185 1577,6184
 1571,6183 1567,6182 1566,6182 1564,6181 1560,6180 1557,6178 1552,6175 1548,6172
 1547,6170 1546,6170 1545,6168 1542,6164 1539,6160 1538,6158 1538,6157 1537,6155
 1535,6150 1533,6145 1533,6141 1532,6137 1532,6135 1532,6134 1533,6130 1534,6124
 1535,6120 1535,6119 1536,6117 1537,6114 1539,6110 1542,6105 1545,6101 1546,6099
 1547,6099 1548,6097 1552,6094 1556,6091 1558,6090 1559,6090 1561,6089 1566,6087
 1572,6086 1576,6085 1579,6085 1582,6085 1583,6085 1587,6086 1593,6086 1597,6087
 1598,6087 1600,6088 1603,6089 1607,6091 1611,6094 1615,6097 1617,6099 1619,6101
 1622,6105 1625,6109 1626,6111 1626,6112 1627,6114 1629,6119 1631,6125 1631,6129
 1632,6132 1632,6135"
	stroke="#000000" stroke-width="8px" stroke-linejoin="bevel"/>
<!-- Line -->
<!-- spline -->
<polyline points=" 1871,6764 1871,6765 1870,6769 1869,6775 1868,6779 1868,6780 1867,6782 1866,6785
 1864,6789 1861,6793 1858,6797 1856,6799 1854,6801 1850,6804 1846,6807 1844,6808
 1842,6809 1837,6811 1832,6813 1827,6813 1824,6814 1821,6814 1820,6814 1816,6813
 1810,6812 1806,6811 1805,6811 1803,6810 1800,6809 1796,6807 1791,6804 1787,6801
 1785,6799 1783,6797 1780,6793 1777,6789 1776,6787 1775,6785 1773,6780 1772,6775
 1771,6770 1771,6767 1771,6764 1771,6763 1772,6759 1772,6753 1773,6749 1773,6748
 1774,6746 1775,6742 1777,6739 1780,6734 1783,6730 1785,6729 1785,6728 1787,6727
 1791,6724 1795,6721 1797,6720 1798,6719 1800,6718 1805,6716 1811,6715 1815,6714
 1818,6714 1821,6714 1822,6714 1826,6715 1832,6715 1836,6716 1837,6716 1839,6717
 1842,6719 1846,6721 1850,6724 1854,6727 1856,6728 1856,6729 1858,6730 1861,6734
 1864,6738 1865,6740 1865,6741 1866,6743 1868,6748 1870,6754 1870,6758 1871,6761
 1871,6764"
	stroke="#000000" stroke-width="8px" stroke-linejoin="bevel"/>
<!-- Line -->
<!-- spline -->
<polyline points=" 2110,7153 2110,7154 2109,7158 2108,7164 2107,7168 2107,7169 2106,7171 2105,7174
 2103,7178 2100,7182 2097,7186 2095,7188 2093,7190 2089,7193 2085,7196 2083,7197
 2082,7197 2080,7198 2075,7200 2070,7202 2066,7202 2062,7203 2060,7203 2059,7203
 2055,7202 2049,7201 2045,7200 2044,7200 2042,7199 2039,7198 2035,7196 2030,7193
 2026,7190 2024,7188 2022,7186 2019,7182 2016,7178 2015,7176 2014,7174 2012,7169
 2011,7164 2010,7159 2010,7156 2010,7153 2010,7152 2011,7148 2011,7142 2012,7138
 2012,7137 2013,7135 2014,7132 2016,7128 2019,7123 2022,7119 2024,7117 2026,7115
 2030,7112 2034,7109 2036,7108 2037,7108 2039,7107 2044,7105 2050,7104 2054,7103
 2057,7103 2060,7103 2061,7103 2065,7104 2070,7104 2074,7105 2075,7105 2077,7106
 2080,7107 2084,7109 2089,7112 2093,7115 2095,7117 2097,7119 2100,7123 2103,7127
 2104,7129 2104,7130 2105,7132 2107,7137 2109,7143 2109,7147 2110,7150 2110,7153
"
	stroke="#000000" stroke-width="8px" stroke-linejoin="bevel"/>
<!-- Line -->
<!-- spline -->
<polyline points=" 2349,7153 2349,7154 2348,7158 2347,7164 2346,7168 2346,7169 2345,7171 2344,7174
 2342,7178 2339,7182 2336,7186 2334,7188 2332,7190 2328,7193 2324,7196 2322,7197
 2321,7197 2319,7198 2314,7200 2309,7202 2305,7202 2301,7203 2299,7203 2298,7203
 2294,7202 2288,7201 2284,7200 2283,7200 2281,7199 2278,7198 2274,7196 2269,7193
 2265,7190 2263,7188 2261,7186 2258,7182 2255,7178 2254,7176 2253,7174 2251,7169
 2250,7164 2249,7159 2249,7156 2249,7153 2249,7152 2250,7148 2250,7142 2251,7138
 2251,7137 2252,7135 2253,7132 2255,7128 2258,7123 2261,7119 2263,7117 2265,7115
 2269,7112 2273,7109 2275,7108 2276,7108 2278,7107 2283,7105 2289,7104 2293,7103
 2296,7103 2299,7103 2300,7103 2304,7104 2309,7104 2313,7105 2314,7105 2316,7106
 2319,7107 2323,7109 2328,7112 2332,7115 2334,7117 2336,7119 2339,7123 2342,7127
 2343,7129 2343,7130 2344,7132 2346,7137 2348,7143 2348,7147 2349,7150 2349,7153
"
	stroke="#000000" stroke-width="8px" stroke-linejoin="bevel"/>
<!-- Line -->
<!-- polyline -->
<polyline points=" 1734,9143 1734,9772"
	stroke="#000000" stroke-width="8px" stroke-linejoin="round"/>
<!-- Line -->
<!-- spline -->
<polyline points=" 2586,6764 2586,6765 2585,6769 2585,6775 2584,6779 2584,6780 2583,6782 2581,6785
 2579,6789 2576,6793 2573,6797 2572,6799 2571,6799 2570,6801 2566,6804 2562,6807
 2560,6808 2559,6808 2557,6809 2552,6811 2546,6813 2542,6813 2539,6814 2536,6814
 2535,6814 2531,6813 2525,6812 2521,6811 2520,6811 2518,6810 2515,6809 2511,6807
 2507,6804 2503,6801 2501,6799 2499,6797 2496,6793 2493,6789 2492,6787 2491,6785
 2489,6780 2487,6775 2487,6770 2486,6767 2486,6764 2486,6763 2487,6759 2488,6753
 2489,6749 2489,6748 2490,6746 2491,6742 2493,6739 2496,6734 2499,6730 2501,6729
 2501,6728 2503,6727 2507,6724 2511,6721 2513,6720 2513,6719 2515,6718 2520,6716
 2525,6715 2530,6714 2533,6714 2536,6714 2537,6714 2541,6715 2547,6715 2551,6716
 2552,6716 2554,6717 2558,6719 2561,6721 2566,6724 2570,6727 2571,6728 2572,6729
 2573,6730 2576,6734 2579,6738 2580,6740 2581,6741 2582,6743 2584,6748 2585,6754
 2586,6758 2586,6761 2586,6764"
	stroke="#000000" stroke-width="8px" stroke-linejoin="bevel"/>
<!-- Line -->
<!-- polyline -->
<polyline points=" 2165,9143 2165,10161"
	stroke="#000000" stroke-width="8px" stroke-linejoin="round"/>
<!-- Line -->
<!-- spline -->
<polyline points=" 2825,6133 2825,6134 2824,6138 2823,6144 2822,6148 2822,6149 2821,6151 2820,6154
 2818,6158 2815,6163 2812,6167 2811,6169 2810,6169 2809,6171 2805,6174 2801,6177
 2799,6178 2798,6178 2796,6179 2791,6181 2785,6182 2781,6183 2778,6183 2775,6183
 2774,6183 2770,6182 2764,6182 2760,6181 2759,6181 2757,6180 2753,6179 2750,6177
 2745,6174 2741,6171 2740,6169 2739,6169 2738,6167 2735,6163 2732,6159 2731,6157
 2731,6156 2730,6154 2728,6149 2726,6143 2726,6139 2725,6136 2725,6133 2725,6132
 2726,6128 2727,6123 2728,6119 2728,6118 2729,6116 2730,6113 2732,6109 2735,6104
 2738,6100 2739,6098 2740,6098 2741,6096 2745,6093 2749,6090 2751,6089 2752,6089
 2754,6088 2759,6086 2765,6084 2769,6084 2772,6083 2775,6083 2776,6083 2780,6084
 2786,6085 2790,6086 2791,6086 2793,6087 2797,6088 2800,6090 2805,6093 2809,6096
 2810,6098 2811,6098 2812,6100 2815,6104 2818,6108 2819,6110 2819,6111 2820,6113
 2822,6118 2824,6123 2824,6127 2825,6131 2825,6133"
	stroke="#000000" stroke-width="8px" stroke-linejoin="bevel"/>
<!-- Line -->
<!-- polyline -->
<polyline points=" 2594,9143 2594,9141"
	stroke="#000000" stroke-width="8px" stroke-linejoin="round"/>
<!-- Line -->
<!-- spline -->
<polyline points=" 3064,5504 3064,5505 3063,5509 3062,5515 3061,5519 3061,5520 3060,5522 3059,5525
 3057,5529 3054,5534 3051,5538 3049,5540 3047,5542 3043,5545 3039,5548 3037,5549
 3035,5550 3030,5552 3025,5553 3020,5554 3017,5554 3014,5554 3013,5554 3009,5553
 3003,5553 2999,5552 2998,5552 2996,5551 2992,5550 2989,5548 2984,5545 2980,5542
 2979,5540 2978,5540 2977,5538 2974,5534 2971,5530 2970,5528 2969,5527 2968,5525
 2966,5520 2965,5514 2964,5510 2964,5507 2964,5504 2964,5503 2965,5499 2965,5493
 2966,5489 2966,5488 2967,5486 2969,5483 2971,5479 2974,5475 2977,5471 2978,5469
 2979,5469 2980,5467 2984,5464 2988,5461 2990,5460 2991,5460 2993,5459 2998,5457
 3004,5455 3008,5455 3011,5454 3014,5454 3015,5454 3019,5455 3025,5456 3029,5457
 3030,5457 3032,5458 3035,5459 3039,5461 3043,5464 3047,5467 3049,5469 3051,5471
 3054,5475 3057,5479 3058,5481 3059,5483 3061,5488 3063,5493 3063,5498 3064,5501
 3064,5504"
	stroke="#000000" stroke-width="8px" stroke-linejoin="bevel"/>
<!-- Line -->
<!-- polyline -->
<polyline points=" 3023,9143 3023,8123"
	stroke="#000000" stroke-width="8px" stroke-linejoin="round"/>
<!-- Line -->
<!-- spline -->
<polyline points=" 3303,5115 3303,5116 3302,5120 3301,5126 3300,5130 3300,5131 3299,5133 3298,5136
 3296,5140 3293,5145 3290,5149 3288,5151 3286,5153 3282,5156 3278,5159 3276,5160
 3274,5161 3269,5163 3264,5164 3259,5165 3256,5165 3253,5165 3252,5165 3248,5164
 3242,5164 3238,5163 3237,5163 3235,5162 3232,5161 3228,5159 3223,5156 3219,5153
 3217,5151 3215,5149 3212,5145 3209,5141 3208,5139 3208,5138 3207,5136 3205,5131
 3204,5125 3203,5121 3203,5118 3203,5115 3203,5114 3204,5110 3204,5105 3205,5101
 3205,5100 3206,5098 3207,5095 3209,5091 3212,5086 3215,5082 3217,5080 3219,5078
 3223,5075 3227,5072 3229,5071 3230,5071 3232,5070 3237,5068 3243,5066 3247,5066
 3250,5065 3253,5065 3254,5065 3258,5066 3264,5067 3268,5068 3269,5068 3271,5069
 3274,5070 3278,5072 3282,5075 3286,5078 3288,5080 3290,5082 3293,5086 3296,5090
 3297,5092 3297,5093 3298,5095 3300,5100 3302,5105 3302,5109 3303,5113 3303,5115
"
	stroke="#000000" stroke-width="8px" stroke-linejoin="bevel"/>
<!-- Line -->
<!-- polyline -->
<polyline points=" 3452,9143 3452,8512"
	stroke="#000000" stroke-width="8px" stroke-linejoin="round"/>
<!-- Line -->
<!-- spline -->
<polyline points=" 3540,5115 3540,5116 3539,5120 3539,5126 3538,5130 3538,5131 3537,5133 3536,5136
 3534,5140 3531,5145 3528,5149 3526,5151 3524,5153 3520,5156 3516,5159 3514,5160
 3513,5160 3511,5161 3506,5163 3500,5164 3496,5165 3493,5165 3490,5165 3489,5165
 3485,5164 3480,5164 3476,5163 3475,5163 3473,5162 3470,5161 3466,5159 3461,5156
 3457,5153 3455,5151 3453,5149 3450,5145 3447,5141 3446,5139 3446,5138 3445,5136
 3443,5131 3441,5125 3441,5121 3440,5118 3440,5115 3440,5114 3441,5110 3442,5105
 3443,5101 3443,5100 3444,5098 3445,5095 3447,5091 3450,5086 3453,5082 3455,5080
 3457,5078 3461,5075 3465,5072 3467,5071 3468,5071 3470,5070 3475,5068 3480,5066
 3484,5066 3488,5065 3490,5065 3491,5065 3495,5066 3501,5067 3505,5068 3506,5068
 3508,5069 3511,5070 3515,5072 3520,5075 3524,5078 3526,5080 3528,5082 3531,5086
 3534,5090 3535,5092 3535,5093 3536,5095 3538,5100 3539,5105 3540,5109 3540,5113
 3540,5115"
	stroke="#000000" stroke-width="8px" stroke-linejoin="bevel"/>
<!-- Line -->
<!-- polyline -->
<polyline points=" 3881,9143 3881,9772"
	stroke="#000000" stroke-width="8px" stroke-linejoin="round"/>
<!-- Line -->
<!-- spline -->
<polyline points=" 3779,5504 3779,5505 3778,5509 3778,5515 3777,5519 3777,5520 3776,5522 3775,5525
 3773,5529 3770,5534 3767,5538 3765,5540 3763,5542 3759,5545 3755,5548 3753,5549
 3752,5549 3750,5550 3745,5552 3739,5553 3735,5554 3732,5554 3729,5554 3728,5554
 3724,5553 3718,5553 3714,5552 3713,5552 3711,5551 3708,5550 3704,5548 3700,5545
 3696,5542 3694,5540 3692,5538 3689,5534 3686,5530 3685,5528 3685,5527 3684,5525
 3682,5520 3680,5514 3680,5510 3679,5507 3679,5504 3679,5503 3680,5499 3681,5493
 3682,5489 3682,5488 3683,5486 3684,5483 3686,5479 3689,5475 3692,5471 3694,5469
 3696,5467 3700,5464 3704,5461 3706,5460 3708,5459 3713,5457 3718,5455 3723,5455
 3726,5454 3729,5454 3730,5454 3734,5455 3740,5456 3744,5457 3745,5457 3747,5458
 3750,5459 3754,5461 3759,5464 3763,5467 3765,5469 3767,5471 3770,5475 3773,5479
 3774,5481 3775,5483 3777,5488 3778,5493 3779,5498 3779,5501 3779,5504"
	stroke="#000000" stroke-width="8px" stroke-linejoin="bevel"/>
<!-- Line -->
<!-- polyline -->
<polyline points=" 4312,9143 4312,10161"
	stroke="#000000" stroke-width="8px" stroke-linejoin="round"/>
<!-- Line -->
<!-- spline -->
<polyline points=" 4018,6135 4018,6136 4017,6140 4016,6145 4015,6149 4015,6150 4014,6152 4013,6155
 4011,6159 4008,6164 4005,6168 4004,6170 4003,6170 4002,6172 3998,6175 3994,6178
 3992,6179 3991,6179 3989,6180 3984,6182 3978,6184 3974,6184 3971,6185 3968,6185
 3967,6185 3963,6184 3957,6183 3953,6182 3952,6182 3950,6181 3947,6180 3943,6178
 3939,6175 3935,6172 3933,6170 3931,6168 3928,6164 3925,6160 3924,6158 3924,6157
 3923,6155 3921,6150 3919,6145 3919,6141 3918,6137 3918,6135 3918,6134 3919,6130
 3920,6124 3921,6120 3921,6119 3922,6117 3923,6114 3925,6110 3928,6105 3931,6101
 3933,6099 3935,6097 3939,6094 3943,6091 3945,6090 3947,6089 3952,6087 3957,6086
 3962,6085 3965,6085 3968,6085 3969,6085 3973,6086 3979,6086 3983,6087 3984,6087
 3986,6088 3990,6089 3993,6091 3998,6094 4002,6097 4003,6099 4004,6099 4005,6101
 4008,6105 4011,6109 4012,6111 4012,6112 4013,6114 4015,6119 4017,6125 4017,6129
 4018,6132 4018,6135"
	stroke="#000000" stroke-width="8px" stroke-linejoin="bevel"/>
<!-- Line -->
<!-- spline -->
<polyline points=" 4745,9143 4745,9144 4744,9145 4743,9146 4743,9147 4742,9147 4741,9147 4740,9147
 4739,9146 4738,9145 4737,9145 4737,9144 4737,9143 4737,9142 4737,9141 4738,9140
 4738,9139 4739,9139 4740,9139 4741,9139 4742,9139 4743,9139 4744,9139 4744,9140
 4745,9140 4745,9141 4745,9142 4745,9143" fill="#000000"/>
<!-- Line -->
<!-- spline -->
<polyline points=" 4257,6764 4257,6765 4256,6769 4255,6775 4254,6779 4254,6780 4253,6782 4252,6785
 4250,6789 4247,6793 4244,6797 4242,6799 4240,6801 4236,6804 4232,6807 4230,6808
 4228,6809 4223,6811 4218,6813 4213,6813 4210,6814 4207,6814 4206,6814 4202,6813
 4196,6812 4192,6811 4191,6811 4189,6810 4185,6809 4182,6807 4177,6804 4173,6801
 4172,6799 4171,6799 4170,6797 4167,6793 4164,6789 4163,6787 4162,6785 4160,6780
 4158,6775 4158,6770 4157,6767 4157,6764 4157,6763 4158,6759 4159,6753 4160,6749
 4160,6748 4161,6746 4162,6742 4164,6739 4167,6734 4170,6730 4171,6729 4172,6728
 4173,6727 4177,6724 4181,6721 4183,6720 4184,6719 4186,6718 4191,6716 4197,6715
 4201,6714 4204,6714 4207,6714 4208,6714 4212,6715 4218,6715 4222,6716 4223,6716
 4225,6717 4228,6719 4232,6721 4236,6724 4240,6727 4242,6728 4242,6729 4244,6730
 4247,6734 4250,6738 4251,6740 4251,6741 4252,6743 4254,6748 4256,6754 4256,6758
 4257,6761 4257,6764"
	stroke="#000000" stroke-width="8px" stroke-linejoin="bevel"/>
<!-- Line -->
<!-- polyline -->
<polyline points=" 5170,9143 5170,8123"
	stroke="#000000" stroke-width="8px" stroke-linejoin="round"/>
<!-- Line -->
<!-- spline -->
<polyline points=" 4496,7153 4496,7154 4495,7158 4494,7164 4493,7168 4493,7169 4492,7171 4491,7174
 4489,7178 4486,7182 4483,7186 4481,7188 4479,7190 4475,7193 4471,7196 4469,7197
 4467,7198 4462,7200 4457,7202 4452,7202 4449,7203 4446,7203 4445,7203 4441,7202
 4435,7201 4431,7200 4430,7200 4428,7199 4425,7198 4421,7196 4416,7193 4412,7190
 4410,7188 4408,7186 4405,7182 4402,7178 4401,7176 4400,7174 4398,7169 4397,7164
 4396,7159 4396,7156 4396,7153 4396,7152 4397,7148 4397,7142 4398,7138 4398,7137
 4399,7135 4400,7132 4402,7128 4405,7123 4408,7119 4410,7117 4412,7115 4416,7112
 4420,7109 4422,7108 4423,7108 4425,7107 4430,7105 4436,7104 4440,7103 4443,7103
 4446,7103 4447,7103 4451,7104 4457,7104 4461,7105 4462,7105 4464,7106 4467,7107
 4471,7109 4475,7112 4479,7115 4481,7117 4483,7119 4486,7123 4489,7127 4490,7129
 4490,7130 4491,7132 4493,7137 4495,7143 4495,7147 4496,7150 4496,7153"
	stroke="#000000" stroke-width="8px" stroke-linejoin="bevel"/>
<!-- Line -->
<!-- polyline -->
<polyline points=" 5599,9143 5599,8512"
	stroke="#000000" stroke-width="8px" stroke-linejoin="round"/>
<!-- Line -->
<!-- spline -->
<polyline points=" 4733,7153 4733,7154 4732,7158 4732,7164 4731,7168 4731,7169 4730,7171 4729,7174
 4727,7178 4724,7182 4721,7186 4719,7188 4717,7190 4713,7193 4709,7196 4707,7197
 4706,7197 4704,7198 4699,7200 4693,7202 4689,7202 4686,7203 4683,7203 4682,7203
 4678,7202 4673,7201 4669,7200 4668,7200 4666,7199 4663,7198 4659,7196 4654,7193
 4650,7190 4648,7188 4646,7186 4643,7182 4640,7178 4639,7176 4638,7174 4636,7169
 4634,7164 4634,7159 4633,7156 4633,7153 4633,7152 4634,7148 4635,7142 4636,7138
 4636,7137 4637,7135 4638,7132 4640,7128 4643,7123 4646,7119 4648,7117 4650,7115
 4654,7112 4658,7109 4660,7108 4661,7108 4663,7107 4668,7105 4673,7104 4677,7103
 4681,7103 4683,7103 4684,7103 4688,7104 4694,7104 4698,7105 4699,7105 4701,7106
 4704,7107 4708,7109 4713,7112 4717,7115 4719,7117 4721,7119 4724,7123 4727,7127
 4728,7129 4728,7130 4729,7132 4731,7137 4732,7143 4733,7147 4733,7150 4733,7153
"
	stroke="#000000" stroke-width="8px" stroke-linejoin="bevel"/>
<!-- Line -->
<!-- polyline -->
<polyline points=" 6028,9143 6028,9772"
	stroke="#000000" stroke-width="8px" stroke-linejoin="round"/>
<!-- Line -->
<!-- spline -->
<polyline points=" 4972,6764 4972,6765 4971,6769 4971,6775 4970,6779 4970,6780 4969,6782 4968,6785
 4966,6789 4963,6793 4960,6797 4958,6799 4956,6801 4952,6804 4948,6807 4946,6808
 4945,6808 4943,6809 4938,6811 4932,6813 4928,6813 4925,6814 4922,6814 4921,6814
 4917,6813 4911,6812 4907,6811 4906,6811 4904,6810 4901,6809 4897,6807 4893,6804
 4889,6801 4887,6799 4885,6797 4882,6793 4879,6789 4878,6787 4877,6785 4875,6780
 4873,6775 4873,6770 4872,6767 4872,6764 4872,6763 4873,6759 4874,6753 4875,6749
 4875,6748 4876,6746 4877,6742 4879,6739 4882,6734 4885,6730 4887,6729 4887,6728
 4889,6727 4893,6724 4897,6721 4899,6720 4899,6719 4901,6718 4906,6716 4911,6715
 4916,6714 4919,6714 4922,6714 4923,6714 4927,6715 4933,6715 4937,6716 4938,6716
 4940,6717 4943,6719 4947,6721 4952,6724 4956,6727 4958,6728 4958,6729 4960,6730
 4963,6734 4966,6738 4967,6740 4967,6741 4968,6743 4970,6748 4971,6754 4972,6758
 4972,6761 4972,6764"
	stroke="#000000" stroke-width="8px" stroke-linejoin="bevel"/>
<!-- Line -->
<!-- polyline -->
<polyline points=" 6459,9143 6459,10161"
	stroke="#000000" stroke-width="8px" stroke-linejoin="round"/>
<!-- Line -->
<!-- spline -->
<polyline points=" 5211,6135 5211,6136 5210,6140 5210,6145 5209,6149 5209,6150 5208,6152 5206,6155
 5204,6159 5201,6164 5198,6168 5197,6170 5196,6170 5195,6172 5191,6175 5187,6178
 5185,6179 5184,6179 5182,6180 5177,6182 5171,6184 5167,6184 5164,6185 5161,6185
 5160,6185 5156,6184 5150,6183 5146,6182 5145,6182 5143,6181 5140,6180 5136,6178
 5132,6175 5128,6172 5126,6170 5124,6168 5121,6164 5118,6160 5117,6158 5117,6157
 5116,6155 5114,6150 5112,6145 5112,6141 5111,6137 5111,6135 5111,6134 5112,6130
 5113,6124 5114,6120 5114,6119 5115,6117 5116,6114 5118,6110 5121,6105 5124,6101
 5126,6099 5128,6097 5132,6094 5136,6091 5138,6090 5140,6089 5145,6087 5150,6086
 5155,6085 5158,6085 5161,6085 5162,6085 5166,6086 5172,6086 5176,6087 5177,6087
 5179,6088 5183,6089 5186,6091 5191,6094 5195,6097 5196,6099 5197,6099 5198,6101
 5201,6105 5204,6109 5205,6111 5206,6112 5207,6114 5209,6119 5210,6125 5211,6129
 5211,6132 5211,6135"
	stroke="#000000" stroke-width="8px" stroke-linejoin="bevel"/>
<!-- Line -->
<!-- spline -->
<polyline points=" 6892,9143 6892,9144 6892,9145 6892,9146 6891,9146 6891,9147 6890,9147 6889,9147
 6888,9147 6887,9147 6886,9146 6885,9145 6884,9145 6884,9144 6884,9143 6884,9142
 6884,9141 6885,9140 6885,9139 6886,9139 6887,9139 6888,9139 6889,9139 6890,9139
 6891,9139 6892,9139 6892,9140 6892,9141 6892,9142 6892,9143" fill="#000000"/>
<!-- Line -->
<!-- spline -->
<polyline points=" 5450,5504 5450,5505 5449,5509 5448,5515 5447,5519 5447,5520 5446,5522 5445,5525
 5443,5529 5440,5534 5437,5538 5436,5540 5435,5540 5434,5542 5430,5545 5426,5548
 5424,5549 5423,5549 5421,5550 5416,5552 5410,5553 5406,5554 5403,5554 5400,5554
 5399,5554 5395,5553 5389,5553 5385,5552 5384,5552 5382,5551 5378,5550 5375,5548
 5370,5545 5366,5542 5365,5540 5364,5540 5363,5538 5360,5534 5357,5530 5356,5528
 5356,5527 5355,5525 5353,5520 5351,5514 5351,5510 5350,5507 5350,5504 5350,5503
 5351,5499 5352,5493 5353,5489 5353,5488 5354,5486 5355,5483 5357,5479 5360,5475
 5363,5471 5364,5469 5365,5469 5366,5467 5370,5464 5374,5461 5376,5460 5377,5460
 5379,5459 5384,5457 5390,5455 5394,5455 5397,5454 5400,5454 5401,5454 5405,5455
 5411,5456 5415,5457 5416,5457 5418,5458 5422,5459 5425,5461 5430,5464 5434,5467
 5435,5469 5436,5469 5437,5471 5440,5475 5443,5479 5444,5481 5445,5483 5447,5488
 5449,5493 5449,5498 5450,5501 5450,5504"
	stroke="#000000" stroke-width="8px" stroke-linejoin="bevel"/>
<!-- Line -->
<!-- polyline -->
<polyline points=" 7317,9143 7317,8123"
	stroke="#000000" stroke-width="8px" stroke-linejoin="round"/>
<!-- Line -->
<!-- spline -->
<polyline points=" 5687,5115 5687,5116 5686,5120 5686,5126 5685,5130 5685,5131 5684,5133 5683,5136
 5681,5140 5678,5145 5675,5149 5673,5151 5671,5153 5667,5156 5663,5159 5661,5160
 5660,5160 5658,5161 5653,5163 5647,5164 5643,5165 5640,5165 5637,5165 5636,5165
 5632,5164 5627,5164 5623,5163 5622,5163 5620,5162 5617,5161 5613,5159 5608,5156
 5604,5153 5602,5151 5600,5149 5597,5145 5594,5141 5593,5139 5593,5138 5592,5136
 5590,5131 5588,5125 5588,5121 5587,5118 5587,5115 5587,5114 5588,5110 5589,5105
 5590,5101 5590,5100 5591,5098 5592,5095 5594,5091 5597,5086 5600,5082 5602,5080
 5604,5078 5608,5075 5612,5072 5614,5071 5615,5071 5617,5070 5622,5068 5627,5066
 5631,5066 5635,5065 5637,5065 5638,5065 5642,5066 5648,5067 5652,5068 5653,5068
 5655,5069 5658,5070 5662,5072 5667,5075 5671,5078 5673,5080 5675,5082 5678,5086
 5681,5090 5682,5092 5682,5093 5683,5095 5685,5100 5686,5105 5687,5109 5687,5113
 5687,5115"
	stroke="#000000" stroke-width="8px" stroke-linejoin="bevel"/>
<!-- Line -->
<!-- polyline -->
<polyline points=" 7747,9143 7747,8512"
	stroke="#000000" stroke-width="8px" stroke-linejoin="round"/>
<!-- Line -->
<!-- spline -->
<polyline points=" 5926,5115 5926,5116 5925,5120 5925,5126 5924,5130 5924,5131 5923,5133 5922,5136
 5920,5140 5917,5145 5914,5149 5912,5151 5910,5153 5906,5156 5902,5159 5900,5160
 5899,5160 5897,5161 5892,5163 5886,5164 5882,5165 5879,5165 5876,5165 5875,5165
 5871,5164 5866,5164 5862,5163 5861,5163 5859,5162 5856,5161 5852,5159 5847,5156
 5843,5153 5841,5151 5839,5149 5836,5145 5833,5141 5832,5139 5832,5138 5831,5136
 5829,5131 5827,5125 5827,5121 5826,5118 5826,5115 5826,5114 5827,5110 5828,5105
 5829,5101 5829,5100 5830,5098 5831,5095 5833,5091 5836,5086 5839,5082 5841,5080
 5843,5078 5847,5075 5851,5072 5853,5071 5854,5071 5856,5070 5861,5068 5866,5066
 5870,5066 5874,5065 5876,5065 5877,5065 5881,5066 5887,5067 5891,5068 5892,5068
 5894,5069 5897,5070 5901,5072 5906,5075 5910,5078 5912,5080 5914,5082 5917,5086
 5920,5090 5921,5092 5921,5093 5922,5095 5924,5100 5925,5105 5926,5109 5926,5113
 5926,5115"
	stroke="#000000" stroke-width="8px" stroke-linejoin="bevel"/>
<!-- Line -->
<!-- polyline -->
<polyline points=" 8176,9143 8176,9772"
	stroke="#000000" stroke-width="8px" stroke-linejoin="round"/>
<!-- Line -->
<!-- spline -->
<polyline points=" 6165,5504 6165,5505 6164,5509 6164,5515 6163,5519 6163,5520 6162,5522 6161,5525
 6159,5529 6156,5534 6153,5538 6151,5540 6149,5542 6145,5545 6141,5548 6139,5549
 6138,5549 6136,5550 6131,5552 6125,5553 6121,5554 6118,5554 6115,5554 6114,5554
 6110,5553 6105,5553 6101,5552 6100,5552 6098,5551 6095,5550 6091,5548 6086,5545
 6082,5542 6080,5540 6078,5538 6075,5534 6072,5530 6071,5528 6071,5527 6070,5525
 6068,5520 6066,5514 6066,5510 6065,5507 6065,5504 6065,5503 6066,5499 6067,5493
 6068,5489 6068,5488 6069,5486 6070,5483 6072,5479 6075,5475 6078,5471 6080,5469
 6082,5467 6086,5464 6090,5461 6092,5460 6093,5460 6095,5459 6100,5457 6105,5455
 6109,5455 6113,5454 6115,5454 6116,5454 6120,5455 6126,5456 6130,5457 6131,5457
 6133,5458 6136,5459 6140,5461 6145,5464 6149,5467 6151,5469 6153,5471 6156,5475
 6159,5479 6160,5481 6161,5483 6163,5488 6164,5493 6165,5498 6165,5501 6165,5504
"
	stroke="#000000" stroke-width="8px" stroke-linejoin="bevel"/>
<!-- Line -->
<!-- polyline -->
<polyline points=" 8606,9143 8606,10161"
	stroke="#000000" stroke-width="8px" stroke-linejoin="round"/>
<!-- Line -->
<!-- spline -->
<polyline points=" 6404,6133 6404,6134 6403,6138 6403,6144 6402,6148 6402,6149 6401,6151 6400,6154
 6398,6158 6395,6163 6392,6167 6390,6169 6388,6171 6384,6174 6380,6177 6378,6178
 6377,6178 6375,6179 6370,6181 6364,6182 6360,6183 6357,6183 6354,6183 6353,6183
 6349,6182 6343,6182 6339,6181 6338,6181 6336,6180 6333,6179 6329,6177 6325,6174
 6321,6171 6319,6169 6317,6167 6314,6163 6311,6159 6310,6157 6310,6156 6309,6154
 6307,6149 6305,6143 6305,6139 6304,6136 6304,6133 6304,6132 6305,6128 6306,6123
 6307,6119 6307,6118 6308,6116 6309,6113 6311,6109 6314,6104 6317,6100 6319,6098
 6321,6096 6325,6093 6329,6090 6331,6089 6333,6088 6338,6086 6343,6084 6348,6084
 6351,6083 6354,6083 6355,6083 6359,6084 6365,6085 6369,6086 6370,6086 6372,6087
 6375,6088 6379,6090 6384,6093 6388,6096 6390,6098 6392,6100 6395,6104 6398,6108
 6399,6110 6399,6111 6400,6113 6402,6118 6403,6123 6404,6127 6404,6131 6404,6133
"
	stroke="#000000" stroke-width="8px" stroke-linejoin="bevel"/>
<!-- Line -->
<!-- spline -->
<polyline points=" 9040,9143 9039,9144 9039,9145 9039,9146 9038,9146 9038,9147 9037,9147 9036,9147
 9035,9147 9034,9147 9033,9146 9032,9146 9032,9145 9032,9144 9032,9143 9031,9143
 9031,9142 9032,9142 9032,9141 9032,9140 9032,9139 9033,9139 9034,9139 9035,9139
 9036,9139 9037,9139 9038,9139 9039,9139 9039,9140 9039,9141 9039,9142 9040,9142
 9040,9143" fill="#000000"/>
<!-- Line -->
<!-- spline -->
<polyline points=" 6643,6764 6643,6765 6642,6769 6641,6775 6640,6779 6640,6780 6639,6782 6638,6785
 6636,6789 6633,6793 6630,6797 6629,6799 6628,6799 6627,6801 6623,6804 6619,6807
 6617,6808 6616,6808 6614,6809 6609,6811 6603,6813 6599,6813 6596,6814 6593,6814
 6592,6814 6588,6813 6582,6812 6578,6811 6577,6811 6575,6810 6572,6809 6568,6807
 6564,6804 6560,6801 6558,6799 6556,6797 6553,6793 6550,6789 6549,6787 6548,6785
 6546,6780 6544,6775 6544,6770 6543,6767 6543,6764 6543,6763 6544,6759 6545,6753
 6546,6749 6546,6748 6547,6746 6548,6742 6550,6739 6553,6734 6556,6730 6558,6729
 6558,6728 6560,6727 6564,6724 6568,6721 6570,6720 6570,6719 6572,6718 6577,6716
 6582,6715 6587,6714 6590,6714 6593,6714 6594,6714 6598,6715 6604,6715 6608,6716
 6609,6716 6611,6717 6615,6719 6618,6721 6623,6724 6627,6727 6628,6728 6629,6729
 6630,6730 6633,6734 6636,6738 6637,6740 6637,6741 6638,6743 6640,6748 6642,6754
 6642,6758 6643,6761 6643,6764"
	stroke="#000000" stroke-width="8px" stroke-linejoin="bevel"/>
<!-- Line -->
<!-- spline -->
<polyline points=" 6881,7153 6881,7154 6880,7158 6879,7164 6878,7168 6878,7169 6877,7171 6876,7174
 6874,7178 6871,7182 6868,7186 6866,7188 6864,7190 6860,7193 6856,7196 6854,7197
 6853,7197 6851,7198 6846,7200 6841,7202 6837,7202 6833,7203 6831,7203 6830,7203
 6826,7202 6820,7201 6816,7200 6815,7200 6813,7199 6810,7198 6806,7196 6801,7193
 6797,7190 6795,7188 6793,7186 6790,7182 6787,7178 6786,7176 6785,7174 6783,7169
 6782,7164 6781,7159 6781,7156 6781,7153 6781,7152 6782,7148 6782,7142 6783,7138
 6783,7137 6784,7135 6785,7132 6787,7128 6790,7123 6793,7119 6795,7117 6797,7115
 6801,7112 6805,7109 6807,7108 6808,7108 6810,7107 6815,7105 6821,7104 6825,7103
 6828,7103 6831,7103 6832,7103 6836,7104 6841,7104 6845,7105 6846,7105 6848,7106
 6851,7107 6855,7109 6860,7112 6864,7115 6866,7117 6868,7119 6871,7123 6874,7127
 6875,7129 6875,7130 6876,7132 6878,7137 6880,7143 6880,7147 6881,7150 6881,7153
"
	stroke="#000000" stroke-width="8px" stroke-linejoin="bevel"/>
<!-- Line -->
<!-- spline -->
<polyline points=" 7119,7153 7119,7154 7118,7158 7118,7164 7117,7168 7117,7169 7116,7171 7115,7174
 7113,7178 7110,7182 7107,7186 7105,7188 7103,7190 7099,7193 7095,7196 7093,7197
 7092,7197 7090,7198 7085,7200 7079,7202 7075,7202 7072,7203 7069,7203 7068,7203
 7064,7202 7059,7201 7055,7200 7054,7200 7052,7199 7049,7198 7045,7196 7040,7193
 7036,7190 7034,7188 7032,7186 7029,7182 7026,7178 7025,7176 7024,7174 7022,7169
 7020,7164 7020,7159 7019,7156 7019,7153 7019,7152 7020,7148 7021,7142 7022,7138
 7022,7137 7023,7135 7024,7132 7026,7128 7029,7123 7032,7119 7034,7117 7036,7115
 7040,7112 7044,7109 7046,7108 7047,7108 7049,7107 7054,7105 7059,7104 7063,7103
 7067,7103 7069,7103 7070,7103 7074,7104 7080,7104 7084,7105 7085,7105 7087,7106
 7090,7107 7094,7109 7099,7112 7103,7115 7105,7117 7107,7119 7110,7123 7113,7127
 7114,7129 7114,7130 7115,7132 7117,7137 7118,7143 7119,7147 7119,7150 7119,7153
"
	stroke="#000000" stroke-width="8px" stroke-linejoin="bevel"/>
<!-- Line -->
<!-- spline -->
<polyline points=" 7358,6764 7358,6765 7357,6769 7357,6775 7356,6779 7356,6780 7355,6782 7354,6785
 7352,6789 7349,6793 7346,6797 7344,6799 7342,6801 7338,6804 7334,6807 7332,6808
 7331,6808 7329,6809 7324,6811 7318,6813 7314,6813 7311,6814 7308,6814 7307,6814
 7303,6813 7298,6812 7294,6811 7293,6811 7291,6810 7288,6809 7284,6807 7279,6804
 7275,6801 7273,6799 7271,6797 7268,6793 7265,6789 7264,6787 7263,6785 7261,6780
 7259,6775 7259,6770 7258,6767 7258,6764 7258,6763 7259,6759 7260,6753 7261,6749
 7261,6748 7262,6746 7263,6742 7265,6739 7268,6734 7271,6730 7273,6729 7273,6728
 7275,6727 7279,6724 7283,6721 7285,6720 7286,6719 7288,6718 7293,6716 7298,6715
 7302,6714 7306,6714 7308,6714 7309,6714 7313,6715 7319,6715 7323,6716 7324,6716
 7326,6717 7329,6719 7333,6721 7338,6724 7342,6727 7344,6728 7344,6729 7346,6730
 7349,6734 7352,6738 7353,6740 7353,6741 7354,6743 7356,6748 7357,6754 7358,6758
 7358,6761 7358,6764"
	stroke="#000000" stroke-width="8px" stroke-linejoin="bevel"/>
<!-- Line -->
<!-- spline -->
<polyline points=" 7597,6135 7597,6136 7596,6140 7596,6145 7595,6149 7595,6150 7594,6152 7593,6155
 7591,6159 7588,6164 7585,6168 7583,6170 7581,6172 7577,6175 7573,6178 7571,6179
 7570,6179 7568,6180 7563,6182 7557,6184 7553,6184 7550,6185 7547,6185 7546,6185
 7542,6184 7536,6183 7532,6182 7531,6182 7529,6181 7526,6180 7522,6178 7518,6175
 7514,6172 7512,6170 7510,6168 7507,6164 7504,6160 7503,6158 7503,6157 7502,6155
 7500,6150 7498,6145 7498,6141 7497,6137 7497,6135 7497,6134 7498,6130 7499,6124
 7500,6120 7500,6119 7501,6117 7502,6114 7504,6110 7507,6105 7510,6101 7512,6099
 7514,6097 7518,6094 7522,6091 7524,6090 7526,6089 7531,6087 7536,6086 7541,6085
 7544,6085 7547,6085 7548,6085 7552,6086 7558,6086 7562,6087 7563,6087 7565,6088
 7568,6089 7572,6091 7577,6094 7581,6097 7583,6099 7585,6101 7588,6105 7591,6109
 7592,6111 7592,6112 7593,6114 7595,6119 7596,6125 7597,6129 7597,6132 7597,6135
"
	stroke="#000000" stroke-width="8px" stroke-linejoin="bevel"/>
<!-- Line -->
<!-- spline -->
<polyline points=" 7835,5504 7835,5505 7834,5509 7833,5515 7832,5519 7832,5520 7831,5522 7830,5525
 7828,5529 7825,5534 7822,5538 7820,5540 7818,5542 7814,5545 7810,5548 7808,5549
 7807,5549 7805,5550 7800,5552 7795,5553 7791,5554 7787,5554 7785,5554 7784,5554
 7780,5553 7774,5553 7770,5552 7769,5552 7767,5551 7764,5550 7760,5548 7755,5545
 7751,5542 7749,5540 7747,5538 7744,5534 7741,5530 7740,5528 7740,5527 7739,5525
 7737,5520 7736,5514 7735,5510 7735,5507 7735,5504 7735,5503 7736,5499 7736,5493
 7737,5489 7737,5488 7738,5486 7739,5483 7741,5479 7744,5475 7747,5471 7749,5469
 7751,5467 7755,5464 7759,5461 7761,5460 7762,5460 7764,5459 7769,5457 7775,5455
 7779,5455 7782,5454 7785,5454 7786,5454 7790,5455 7795,5456 7799,5457 7800,5457
 7802,5458 7805,5459 7809,5461 7814,5464 7818,5467 7820,5469 7822,5471 7825,5475
 7828,5479 7829,5481 7830,5483 7832,5488 7834,5493 7834,5498 7835,5501 7835,5504
"
	stroke="#000000" stroke-width="8px" stroke-linejoin="bevel"/>
<!-- Line -->
<!-- spline -->
<polyline points=" 8074,5115 8074,5116 8073,5120 8072,5126 8071,5130 8071,5131 8070,5133 8069,5136
 8067,5140 8064,5145 8061,5149 8059,5151 8057,5153 8053,5156 8049,5159 8047,5160
 8046,5160 8044,5161 8039,5163 8034,5164 8030,5165 8026,5165 8024,5165 8023,5165
 8019,5164 8013,5164 8009,5163 8008,5163 8006,5162 8003,5161 7999,5159 7994,5156
 7990,5153 7988,5151 7986,5149 7983,5145 7980,5141 7979,5139 7979,5138 7978,5136
 7976,5131 7975,5125 7974,5121 7974,5118 7974,5115 7974,5114 7975,5110 7975,5105
 7976,5101 7976,5100 7977,5098 7978,5095 7980,5091 7983,5086 7986,5082 7988,5080
 7990,5078 7994,5075 7998,5072 8000,5071 8001,5071 8003,5070 8008,5068 8014,5066
 8018,5066 8021,5065 8024,5065 8025,5065 8029,5066 8034,5067 8038,5068 8039,5068
 8041,5069 8044,5070 8048,5072 8053,5075 8057,5078 8059,5080 8061,5082 8064,5086
 8067,5090 8068,5092 8068,5093 8069,5095 8071,5100 8073,5105 8073,5109 8074,5113
 8074,5115"
	stroke="#000000" stroke-width="8px" stroke-linejoin="bevel"/>
<!-- Line -->
<!-- spline -->
<polyline points=" 8312,5115 8312,5116 8311,5120 8311,5126 8310,5130 8310,5131 8309,5133 8308,5136
 8306,5140 8303,5145 8300,5149 8298,5151 8296,5153 8292,5156 8288,5159 8286,5160
 8285,5160 8283,5161 8278,5163 8272,5164 8268,5165 8265,5165 8262,5165 8261,5165
 8257,5164 8252,5164 8248,5163 8247,5163 8245,5162 8242,5161 8238,5159 8233,5156
 8229,5153 8227,5151 8225,5149 8222,5145 8219,5141 8218,5139 8218,5138 8217,5136
 8215,5131 8213,5125 8213,5121 8212,5118 8212,5115 8212,5114 8213,5110 8214,5105
 8215,5101 8215,5100 8216,5098 8217,5095 8219,5091 8222,5086 8225,5082 8227,5080
 8229,5078 8233,5075 8237,5072 8239,5071 8240,5071 8242,5070 8247,5068 8252,5066
 8256,5066 8260,5065 8262,5065 8263,5065 8267,5066 8273,5067 8277,5068 8278,5068
 8280,5069 8283,5070 8287,5072 8292,5075 8296,5078 8298,5080 8300,5082 8303,5086
 8306,5090 8307,5092 8307,5093 8308,5095 8310,5100 8311,5105 8312,5109 8312,5113
 8312,5115"
	stroke="#000000" stroke-width="8px" stroke-linejoin="bevel"/>
<!-- Line -->
<!-- spline -->
<polyline points=" 8551,5504 8551,5505 8550,5509 8550,5515 8549,5519 8549,5520 8548,5522 8547,5525
 8545,5529 8542,5534 8539,5538 8537,5540 8535,5542 8531,5545 8527,5548 8525,5549
 8524,5549 8522,5550 8517,5552 8511,5553 8507,5554 8504,5554 8501,5554 8500,5554
 8496,5553 8491,5553 8487,5552 8486,5552 8484,5551 8481,5550 8477,5548 8472,5545
 8468,5542 8466,5540 8464,5538 8461,5534 8458,5530 8457,5528 8457,5527 8456,5525
 8454,5520 8452,5514 8452,5510 8451,5507 8451,5504 8451,5503 8452,5499 8453,5493
 8454,5489 8454,5488 8455,5486 8456,5483 8458,5479 8461,5475 8464,5471 8466,5469
 8468,5467 8472,5464 8476,5461 8478,5460 8479,5460 8481,5459 8486,5457 8491,5455
 8495,5455 8499,5454 8501,5454 8502,5454 8506,5455 8512,5456 8516,5457 8517,5457
 8519,5458 8522,5459 8526,5461 8531,5464 8535,5467 8537,5469 8539,5471 8542,5475
 8545,5479 8546,5481 8547,5483 8549,5488 8550,5493 8551,5498 8551,5501 8551,5504
"
	stroke="#000000" stroke-width="8px" stroke-linejoin="bevel"/>
<!-- Line -->
<!-- spline -->
<polyline points=" 8790,6133 8790,6134 8789,6138 8789,6144 8788,6148 8788,6149 8787,6151 8786,6154
 8784,6158 8781,6163 8778,6167 8776,6169 8774,6171 8770,6174 8766,6177 8764,6178
 8763,6178 8761,6179 8756,6181 8750,6182 8746,6183 8743,6183 8740,6183 8739,6183
 8735,6182 8730,6182 8726,6181 8725,6181 8723,6180 8720,6179 8716,6177 8711,6174
 8707,6171 8705,6169 8703,6167 8700,6163 8697,6159 8696,6157 8696,6156 8695,6154
 8693,6149 8691,6143 8691,6139 8690,6136 8690,6133 8690,6132 8691,6128 8692,6123
 8693,6119 8693,6118 8694,6116 8695,6113 8697,6109 8700,6104 8703,6100 8705,6098
 8707,6096 8711,6093 8715,6090 8717,6089 8718,6089 8720,6088 8725,6086 8730,6084
 8734,6084 8738,6083 8740,6083 8741,6083 8745,6084 8751,6085 8755,6086 8756,6086
 8758,6087 8761,6088 8765,6090 8770,6093 8774,6096 8776,6098 8778,6100 8781,6104
 8784,6108 8785,6110 8785,6111 8786,6113 8788,6118 8789,6123 8790,6127 8790,6131
 8790,6133"
	stroke="#000000" stroke-width="8px" stroke-linejoin="bevel"/>
<!-- Line -->
<!-- spline -->
<polyline points=" 1586,6135 1586,6136 1585,6137 1584,6138 1584,6139 1583,6139 1582,6139 1581,6139
 1580,6138 1579,6137 1578,6137 1578,6136 1578,6135 1578,6134 1578,6133 1579,6132
 1579,6131 1580,6131 1581,6131 1582,6131 1583,6131 1584,6131 1585,6131 1585,6132
 1586,6132 1586,6133 1586,6134 1586,6135" fill="#000000"/>
<!-- Line -->
<!-- polyline -->
<polyline points=" 1821,6135 1821,6764"
	stroke="#000000" stroke-width="8px" stroke-linejoin="round"/>
<!-- Line -->
<!-- polyline -->
<polyline points=" 2060,6135 2060,7153"
	stroke="#000000" stroke-width="8px" stroke-linejoin="round"/>
<!-- Line -->
<!-- polyline -->
<polyline points=" 2299,6135 2299,7153"
	stroke="#000000" stroke-width="8px" stroke-linejoin="round"/>
<!-- Line -->
<!-- polyline -->
<polyline points=" 2536,6135 2536,6764"
	stroke="#000000" stroke-width="8px" stroke-linejoin="round"/>
<!-- Line -->
<!-- polyline -->
<polyline points=" 2775,6135 2775,6133"
	stroke="#000000" stroke-width="8px" stroke-linejoin="round"/>
<!-- Line -->
<!-- polyline -->
<polyline points=" 3014,6135 3014,5504"
	stroke="#000000" stroke-width="8px" stroke-linejoin="round"/>
<!-- Line -->
<!-- polyline -->
<polyline points=" 3253,6135 3253,5115"
	stroke="#000000" stroke-width="8px" stroke-linejoin="round"/>
<!-- Line -->
<!-- polyline -->
<polyline points=" 3490,6135 3490,5115"
	stroke="#000000" stroke-width="8px" stroke-linejoin="round"/>
<!-- Line -->
<!-- polyline -->
<polyline points=" 3729,6135 3729,5504"
	stroke="#000000" stroke-width="8px" stroke-linejoin="round"/>
<!-- Line -->
<!-- spline -->
<polyline points=" 3972,6135 3972,6136 3971,6137 3970,6138 3970,6139 3969,6139 3968,6139 3967,6139
 3966,6138 3965,6137 3964,6137 3964,6136 3964,6135 3964,6134 3964,6133 3965,6132
 3965,6131 3966,6131 3967,6131 3968,6131 3969,6131 3970,6131 3971,6131 3971,6132
 3972,6132 3972,6133 3972,6134 3972,6135" fill="#000000"/>
<!-- Line -->
<!-- polyline -->
<polyline points=" 4207,6135 4207,6764"
	stroke="#000000" stroke-width="8px" stroke-linejoin="round"/>
<!-- Line -->
<!-- polyline -->
<polyline points=" 4446,6135 4446,7153"
	stroke="#000000" stroke-width="8px" stroke-linejoin="round"/>
<!-- Line -->
<!-- polyline -->
<polyline points=" 4683,6135 4683,7153"
	stroke="#000000" stroke-width="8px" stroke-linejoin="round"/>
<!-- Line -->
<!-- polyline -->
<polyline points=" 4922,6135 4922,6764"
	stroke="#000000" stroke-width="8px" stroke-linejoin="round"/>
<!-- Line -->
<!-- spline -->
<polyline points=" 5165,6135 5165,6136 5164,6136 5164,6137 5164,6138 5163,6139 5162,6139 5161,6139
 5160,6139 5159,6138 5158,6137 5157,6137 5157,6136 5157,6135 5157,6134 5157,6133
 5158,6132 5158,6131 5159,6131 5160,6131 5161,6131 5162,6131 5163,6131 5164,6131
 5164,6132 5165,6132 5165,6133 5165,6134 5165,6135" fill="#000000"/>
<!-- Line -->
<!-- polyline -->
<polyline points=" 5400,6135 5400,5504"
	stroke="#000000" stroke-width="8px" stroke-linejoin="round"/>
<!-- Line -->
<!-- polyline -->
<polyline points=" 5637,6135 5637,5115"
	stroke="#000000" stroke-width="8px" stroke-linejoin="round"/>
<!-- Line -->
<!-- polyline -->
<polyline points=" 5876,6135 5876,5115"
	stroke="#000000" stroke-width="8px" stroke-linejoin="round"/>
<!-- Line -->
<!-- polyline -->
<polyline points=" 6115,6135 6115,5504"
	stroke="#000000" stroke-width="8px" stroke-linejoin="round"/>
<!-- Line -->
<!-- polyline -->
<polyline points=" 6354,6135 6354,6133"
	stroke="#000000" stroke-width="8px" stroke-linejoin="round"/>
<!-- Line -->
<!-- polyline -->
<polyline points=" 6593,6135 6593,6764"
	stroke="#000000" stroke-width="8px" stroke-linejoin="round"/>
<!-- Line -->
<!-- polyline -->
<polyline points=" 6831,6135 6831,7153"
	stroke="#000000" stroke-width="8px" stroke-linejoin="round"/>
<!-- Line -->
<!-- polyline -->
<polyline points=" 7069,6135 7069,7153"
	stroke="#000000" stroke-width="8px" stroke-linejoin="round"/>
<!-- Line -->
<!-- polyline -->
<polyline points=" 7308,6135 7308,6764"
	stroke="#000000" stroke-width="8px" stroke-linejoin="round"/>
<!-- Line -->
<!-- spline -->
<polyline points=" 7551,6135 7551,6136 7551,6137 7551,6138 7550,6138 7550,6139 7549,6139 7548,6139
 7547,6139 7546,6139 7545,6138 7544,6137 7543,6137 7543,6136 7543,6135 7543,6134
 7543,6133 7544,6132 7544,6131 7545,6131 7546,6131 7547,6131 7548,6131 7549,6131
 7550,6131 7551,6131 7551,6132 7551,6133 7551,6134 7551,6135" fill="#000000"/>
<!-- Line -->
<!-- polyline -->
<polyline points=" 7785,6135 7785,5504"
	stroke="#000000" stroke-width="8px" stroke-linejoin="round"/>
<!-- Line -->
<!-- polyline -->
<polyline points=" 8024,6135 8024,5115"
	stroke="#000000" stroke-width="8px" stroke-linejoin="round"/>
<!-- Line -->
<!-- polyline -->
<polyline points=" 8262,6135 8262,5115"
	stroke="#000000" stroke-width="8px" stroke-linejoin="round"/>
<!-- Line -->
<!-- polyline -->
<polyline points=" 8501,6135 8501,5504"
	stroke="#000000" stroke-width="8px" stroke-linejoin="round"/>
<!-- Line -->
<!-- polyline -->
<polyline points=" 8740,6135 8740,6133"
	stroke="#000000" stroke-width="8px" stroke-linejoin="round"/>
<!-- Line -->
<!-- spline -->
<polyline points=" 9936,6135 9936,6136 9935,6137 9934,6138 9934,6139 9933,6139 9932,6139 9931,6139
 9930,6138 9929,6137 9928,6137 9928,6136 9928,6135 9928,6134 9928,6133 9929,6132
 9929,6131 9930,6131 9931,6131 9932,6131 9933,6131 9934,6131 9935,6131 9935,6132
 9936,6132 9936,6133 9936,6134 9936,6135" fill="#000000"/>
<!-- Line -->
<defs>
<clipPath id="cp0">
	<path clip-rule="evenodd" d="M 1188,4617 H 9937 V 10226 H 1188 z
		M 9318,6128 9340,6150 9318,6173 9457,6157 9457,6143z"/>
</clipPath>
</defs>
<polyline points=" 1200,6150 9450,6150" clip-path="url(#cp0)"
	stroke="#000000" stroke-width="8px"/>
<!-- Forward arrow to point 9450,6150 -->
<polygon points=" 9318,6173 9430,6150 9318,6128 9340,6150 9318,6173"
	stroke="#000000" stroke-width="8px" stroke-miterlimit="8" fill="#000000"/>
<!-- Line -->
<defs>
<clipPath id="cp1">
	<path clip-rule="evenodd" d="M 1188,4617 H 9937 V 10226 H 1188 z
		M 5153,4782 5175,4760 5198,4782 5182,4643 5168,4643z"/>
</clipPath>
</defs>
<polyline points=" 5175,7200 5175,4650" clip-path="url(#cp1)"
	stroke="#000000" stroke-width="8px"/>
<!-- Forward arrow to point 5175,4650 -->
<polygon points=" 5198,4782 5175,4670 5153,4782 5175,4760 5198,4782"
	stroke="#000000" stroke-width="8px" stroke-miterlimit="8" fill="#000000"/>
<!-- Line -->
<defs>
<clipPath id="cp2">
	<path clip-rule="evenodd" d="M 1188,4617 H 9937 V 10226 H 1188 z
		M 5153,7857 5175,7835 5198,7857 5182,7718 5168,7718z"/>
</clipPath>
</defs>
<polyline points=" 5175,9300 5175,7725" clip-path="url(#cp2)"
	stroke="#000000" stroke-width="8px"/>
<!-- Forward arrow to point 5175,7725 -->
<polygon points=" 5198,7857 5175,7745 5153,7857 5175,7835 5198,7857"
	stroke="#000000" stroke-width="8px" stroke-miterlimit="8" fill="#000000"/>
<!-- Line -->
<defs>
<clipPath id="cp3">
	<path clip-rule="evenodd" d="M 1188,4617 H 9937 V 10226 H 1188 z
		M 9318,9128 9340,9150 9318,9173 9457,9157 9457,9143z"/>
</clipPath>
</defs>
<polyline points=" 1200,9150 9450,9150" clip-path="url(#cp3)"
	stroke="#000000" stroke-width="8px"/>
<!-- Forward arrow to point 9450,9150 -->
<polygon points=" 9318,9173 9430,9150 9318,9128 9340,9150 9318,9173"
	stroke="#000000" stroke-width="8px" stroke-miterlimit="8" fill="#000000"/>
<!-- Line -->
<polyline points=" 3525,9075 3525,9225"
	stroke="#000000" stroke-width="8px"/>
<!-- Text -->
<text xml:space="preserve" x="5325" y="4800" fill="#000000" font-family="Times" font-style="normal" font-weight="normal" font-size="168" text-anchor="start">x<tspan font-size="112" baseline-shift="sub">1</tspan>[n]</text>
<!-- Text -->
<text xml:space="preserve" x="5250" y="6375" fill="#000000" font-family="Times" font-style="normal" font-weight="normal" font-size="168" text-anchor="start">0</text>
<!-- Text -->
<text xml:space="preserve" x="7575" y="6450" fill="#000000" font-family="Times" font-style="normal" font-weight="normal" font-size="168" text-anchor="middle">N</text>
<!-- Text -->
<text xml:space="preserve" x="2700" y="6450" fill="#000000" font-family="Times" font-style="normal" font-weight="normal" font-size="168" text-anchor="middle">-N</text>
<!-- Text -->
<text xml:space="preserve" x="5250" y="9375" fill="#000000" font-family="Times" font-style="normal" font-weight="normal" font-size="168" text-anchor="start">0</text>
<!-- Text -->
<text xml:space="preserve" x="5325" y="7950" fill="#000000" font-family="Times" font-style="normal" font-weight="normal" font-size="168" text-anchor="start">x<tspan font-size="112" baseline-shift="sub">2</tspan>[n]</text>
<!-- Text -->
<text xml:space="preserve" x="1350" y="5850" fill="#000000" font-family="Times" font-style="normal" font-weight="normal" font-size="144" text-anchor="end">\ldots</text>
<!-- Text -->
<text xml:space="preserve" x="8925" y="5850" fill="#000000" font-family="Times" font-style="normal" font-weight="normal" font-size="144" text-anchor="start">\ldots</text>
<!-- Text -->
<text xml:space="preserve" x="9375" y="6075" fill="#000000" font-family="Times" font-style="normal" font-weight="normal" font-size="168" text-anchor="start">n</text>
<!-- Text -->
<text xml:space="preserve" x="8850" y="8775" fill="#000000" font-family="Times" font-style="normal" font-weight="normal" font-size="144" text-anchor="start">\ldots</text>
<!-- Text -->
<text xml:space="preserve" x="2925" y="9450" fill="#000000" font-family="Times" font-style="normal" font-weight="normal" font-size="168" text-anchor="middle">-N</text>
<!-- Text -->
<text xml:space="preserve" x="7350" y="9450" fill="#000000" font-family="Times" font-style="normal" font-weight="normal" font-size="168" text-anchor="middle">N</text>
<!-- Text -->
<text xml:space="preserve" x="9375" y="9075" fill="#000000" font-family="Times" font-style="normal" font-weight="normal" font-size="168" text-anchor="start">n</text>
<!-- Text -->
<text xml:space="preserve" x="1350" y="8775" fill="#000000" font-family="Times" font-style="normal" font-weight="normal" font-size="144" text-anchor="end">\ldots</text>
</g>
</svg>
