<?xml version="1.0" encoding="UTF-8" standalone="no"?>
<!-- Creator: fig2dev Version 3.2.8b -->
<!-- CreationDate: 2025-10-30 19:43:16 -->
<!-- Magnification: 1.05 -->
<svg	xmlns="http://www.w3.org/2000/svg"
	xmlns:xlink="http://www.w3.org/1999/xlink"
	width="133pt" height="36pt"
	viewBox="1200 1338 2100 564">
<g fill="none">
<!-- Line -->
<defs>
<clipPath id="cp0">
	<path clip-rule="evenodd" d="M 1200,1338 H 3300 V 1902 H 1200 z
		M 1540,1590 1570,1620 1540,1650 1717,1627 1717,1613z"/>
</clipPath>
</defs>
<polyline points=" 1260,1620 1710,1620" clip-path="url(#cp0)"
	stroke="#000000" stroke-width="8px"/>
<!-- Forward arrow to point 1710,1620 -->
<polygon points=" 1540,1650 1690,1620 1540,1590 1570,1620 1540,1650"
	stroke="#000000" stroke-width="8px" stroke-miterlimit="8" fill="#000000"/>
<!-- Line -->
<rect x="1710" y="1350" width="1080" height="540"
	stroke="#000000" stroke-width="8px"/>
<!-- Line -->
<defs>
<clipPath id="cp1">
	<path clip-rule="evenodd" d="M 1200,1338 H 3300 V 1902 H 1200 z
		M 3070,1590 3100,1620 3070,1650 3247,1627 3247,1613z"/>
</clipPath>
</defs>
<polyline points=" 2790,1620 3240,1620" clip-path="url(#cp1)"
	stroke="#000000" stroke-width="8px"/>
<!-- Forward arrow to point 3240,1620 -->
<polygon points=" 3070,1650 3220,1620 3070,1590 3100,1620 3070,1650"
	stroke="#000000" stroke-width="8px" stroke-miterlimit="8" fill="#000000"/>
<!-- Text -->
<text xml:space="preserve" x="1215" y="1665" fill="#000000" font-family="Times" font-style="normal" font-weight="normal" font-size="144" text-anchor="end">x(t)</text>
<!-- Text -->
<text xml:space="preserve" x="2250" y="1575" fill="#000000" font-family="Times" font-style="normal" font-weight="normal" font-size="120" text-anchor="middle">Sistema</text>
<!-- Text -->
<text xml:space="preserve" x="2250" y="1800" fill="#000000" font-family="Times" font-style="normal" font-weight="normal" font-size="120" text-anchor="middle">continuo</text>
<!-- Text -->
<text xml:space="preserve" x="3285" y="1665" fill="#000000" font-family="Times" font-style="normal" font-weight="normal" font-size="144" text-anchor="start">y(t)</text>
</g>
</svg>
