<?xml version="1.0" encoding="UTF-8" standalone="no"?>
<!-- Creator: fig2dev Version 3.2.8b -->
<!-- CreationDate: 2025-10-30 19:43:16 -->
<!-- Magnification: 1.05 -->
<svg	xmlns="http://www.w3.org/2000/svg"
	xmlns:xlink="http://www.w3.org/1999/xlink"
	width="419pt" height="265pt"
	viewBox="78 348 6639 4204">
<g fill="none">
<!-- Line -->
<defs>
<clipPath id="cp0">
	<path clip-rule="evenodd" d="M 78,348 H 6717 V 4552 H 78 z
		M 775,510 805,540 775,570 952,547 952,533z"/>
</clipPath>
</defs>
<polyline points=" 405,540 945,540" clip-path="url(#cp0)"
	stroke="#000000" stroke-width="8px"/>
<!-- Forward arrow to point 945,540 -->
<polygon points=" 775,570 925,540 775,510 805,540 775,570"
	stroke="#000000" stroke-width="8px" stroke-miterlimit="8" fill="#000000"/>
<!-- Line -->
<defs>
<clipPath id="cp1">
	<path clip-rule="evenodd" d="M 78,348 H 6717 V 4552 H 78 z
		M 1675,510 1705,540 1675,570 1852,547 1852,533z"/>
</clipPath>
</defs>
<polyline points=" 1395,540 1845,540" clip-path="url(#cp1)"
	stroke="#000000" stroke-width="8px"/>
<!-- Forward arrow to point 1845,540 -->
<polygon points=" 1675,570 1825,540 1675,510 1705,540 1675,570"
	stroke="#000000" stroke-width="8px" stroke-miterlimit="8" fill="#000000"/>
<!-- Line -->
<rect x="945" y="360" width="450" height="360"
	stroke="#000000" stroke-width="8px"/>
<!-- Text -->
<text xml:space="preserve" x="1170" y="585" fill="#000000" font-family="Times" font-style="normal" font-weight="normal" font-size="144" text-anchor="middle">T</text>
<!-- Text -->
<text xml:space="preserve" x="360" y="585" fill="#000000" font-family="Times" font-style="normal" font-weight="normal" font-size="144" text-anchor="end">x(t)</text>
<!-- Text -->
<text xml:space="preserve" x="1935" y="585" fill="#000000" font-family="Times" font-style="normal" font-weight="normal" font-size="144" text-anchor="start">x(-t)</text>
<!-- Line -->
<defs>
<clipPath id="cp2">
	<path clip-rule="evenodd" d="M 78,348 H 6717 V 4552 H 78 z
		M 4600,510 4630,540 4600,570 4777,547 4777,533z"/>
</clipPath>
</defs>
<polyline points=" 4230,540 4770,540" clip-path="url(#cp2)"
	stroke="#000000" stroke-width="8px"/>
<!-- Forward arrow to point 4770,540 -->
<polygon points=" 4600,570 4750,540 4600,510 4630,540 4600,570"
	stroke="#000000" stroke-width="8px" stroke-miterlimit="8" fill="#000000"/>
<!-- Line -->
<defs>
<clipPath id="cp3">
	<path clip-rule="evenodd" d="M 78,348 H 6717 V 4552 H 78 z
		M 5500,510 5530,540 5500,570 5677,547 5677,533z"/>
</clipPath>
</defs>
<polyline points=" 5220,540 5670,540" clip-path="url(#cp3)"
	stroke="#000000" stroke-width="8px"/>
<!-- Forward arrow to point 5670,540 -->
<polygon points=" 5500,570 5650,540 5500,510 5530,540 5500,570"
	stroke="#000000" stroke-width="8px" stroke-miterlimit="8" fill="#000000"/>
<!-- Line -->
<rect x="4770" y="360" width="450" height="360"
	stroke="#000000" stroke-width="8px"/>
<!-- Text -->
<text xml:space="preserve" x="4995" y="585" fill="#000000" font-family="Times" font-style="normal" font-weight="normal" font-size="144" text-anchor="middle">T</text>
<!-- Text -->
<text xml:space="preserve" x="4185" y="585" fill="#000000" font-family="Times" font-style="normal" font-weight="normal" font-size="144" text-anchor="end">x[n]</text>
<!-- Text -->
<text xml:space="preserve" x="5760" y="585" fill="#000000" font-family="Times" font-style="normal" font-weight="normal" font-size="144" text-anchor="start">x[-n]</text>
<!-- Line -->
<defs>
<clipPath id="cp4">
	<path clip-rule="evenodd" d="M 78,348 H 6717 V 4552 H 78 z
		M 1148,1257 1170,1235 1193,1257 1177,1118 1163,1118z"/>
</clipPath>
</defs>
<polyline points=" 1170,2295 1170,1125" clip-path="url(#cp4)"
	stroke="#000000" stroke-width="8px"/>
<!-- Forward arrow to point 1170,1125 -->
<polygon points=" 1193,1257 1170,1145 1148,1257 1170,1235 1193,1257"
	stroke="#000000" stroke-width="8px" stroke-miterlimit="8" fill="#000000"/>
<!-- Line -->
<defs>
<clipPath id="cp5">
	<path clip-rule="evenodd" d="M 78,348 H 6717 V 4552 H 78 z
		M 2388,2138 2410,2160 2388,2183 2527,2167 2527,2153z"/>
</clipPath>
</defs>
<polyline points=" 90,2160 2520,2160" clip-path="url(#cp5)"
	stroke="#000000" stroke-width="8px"/>
<!-- Forward arrow to point 2520,2160 -->
<polygon points=" 2388,2183 2500,2160 2388,2138 2410,2160 2388,2183"
	stroke="#000000" stroke-width="8px" stroke-miterlimit="8" fill="#000000"/>
<!-- Line -->
<polyline points=" 450,2160 451,2157 454,2151 459,2140 467,2124 477,2102 490,2074 506,2041 523,2004
 542,1964 562,1924 582,1883 602,1843 621,1805 639,1770 657,1737 673,1707 688,1680
 702,1656 715,1635 728,1617 739,1601 750,1587 760,1576 770,1567 780,1560 792,1553
 804,1549 816,1547 828,1548 839,1551 851,1556 862,1563 874,1573 885,1583 896,1596
 907,1609 917,1624 927,1639 937,1654 947,1670 956,1685 965,1699 973,1714 982,1727
 990,1740 1002,1757 1014,1773 1026,1787 1039,1801 1053,1813 1067,1825 1081,1836
 1095,1845 1110,1854 1124,1861 1138,1867 1151,1873 1164,1878 1178,1883 1191,1887
 1205,1891 1219,1895 1235,1899 1250,1902 1267,1906 1284,1908 1300,1911 1317,1912
 1334,1914 1350,1914 1365,1914 1380,1914 1395,1913 1410,1911 1425,1909 1441,1906
 1457,1903 1474,1901 1491,1898 1509,1896 1526,1895 1544,1895 1561,1896 1578,1898
 1595,1901 1611,1906 1628,1913 1640,1919 1653,1926 1667,1936 1681,1947 1697,1960
 1714,1975 1732,1993 1752,2013 1774,2034 1796,2057 1818,2081 1839,2103 1857,2123
 1871,2139 1881,2150 1887,2157 1890,2160"
	stroke="#000000" stroke-width="15px" stroke-linejoin="bevel"/>
<!-- Text -->
<text xml:space="preserve" x="2430" y="2070" fill="#000000" font-family="Times" font-style="normal" font-weight="normal" font-size="144" text-anchor="start">t</text>
<!-- Text -->
<text xml:space="preserve" x="1260" y="1260" fill="#000000" font-family="Times" font-style="normal" font-weight="normal" font-size="144" text-anchor="start">x(t)</text>
<!-- Text -->
<text xml:space="preserve" x="1215" y="2385" fill="#000000" font-family="Times" font-style="normal" font-weight="normal" font-size="144" text-anchor="start">0</text>
<!-- Line -->
<defs>
<clipPath id="cp6">
	<path clip-rule="evenodd" d="M 78,348 H 6717 V 4552 H 78 z
		M 6610,2160 6625,2175 6610,2190 6712,2182 6712,2168z"/>
</clipPath>
</defs>
<polyline points=" 3600,2175 6705,2175" clip-path="url(#cp6)"
	stroke="#000000" stroke-width="8px"/>
<!-- Forward arrow to point 6705,2175 -->
<polygon points=" 6610,2190 6685,2175 6610,2160 6625,2175 6610,2190"
	stroke="#000000" stroke-width="8px" stroke-miterlimit="8" fill="#000000"/>
<!-- Line -->
<defs>
<clipPath id="cp7">
	<path clip-rule="evenodd" d="M 78,348 H 6717 V 4552 H 78 z
		M 4980,1280 4995,1265 5010,1280 5002,1178 4988,1178z"/>
</clipPath>
</defs>
<polyline points=" 4995,2310 4995,1185" clip-path="url(#cp7)"
	stroke="#000000" stroke-width="8px"/>
<!-- Forward arrow to point 4995,1185 -->
<polygon points=" 5010,1280 4995,1205 4980,1280 4995,1265 5010,1280"
	stroke="#000000" stroke-width="8px" stroke-miterlimit="8" fill="#000000"/>
<!-- Text -->
<text xml:space="preserve" x="4995" y="2445" fill="#000000" font-family="Times" font-style="normal" font-weight="normal" font-size="144" text-anchor="middle">0</text>
<!-- Line -->
<defs>
<clipPath id="cp8">
	<path clip-rule="evenodd" d="M 78,348 H 6717 V 4552 H 78 z
		M 1148,3087 1170,3065 1193,3087 1177,2948 1163,2948z"/>
</clipPath>
</defs>
<polyline points=" 1170,4125 1170,2955" clip-path="url(#cp8)"
	stroke="#000000" stroke-width="8px"/>
<!-- Forward arrow to point 1170,2955 -->
<polygon points=" 1193,3087 1170,2975 1148,3087 1170,3065 1193,3087"
	stroke="#000000" stroke-width="8px" stroke-miterlimit="8" fill="#000000"/>
<!-- Line -->
<defs>
<clipPath id="cp9">
	<path clip-rule="evenodd" d="M 78,348 H 6717 V 4552 H 78 z
		M 2388,3968 2410,3990 2388,4013 2527,3997 2527,3983z"/>
</clipPath>
</defs>
<polyline points=" 90,3990 2520,3990" clip-path="url(#cp9)"
	stroke="#000000" stroke-width="8px"/>
<!-- Forward arrow to point 2520,3990 -->
<polygon points=" 2388,4013 2500,3990 2388,3968 2410,3990 2388,4013"
	stroke="#000000" stroke-width="8px" stroke-miterlimit="8" fill="#000000"/>
<!-- Line -->
<polyline points=" 1890,3990 1889,3987 1886,3981 1881,3970 1873,3954 1863,3932 1850,3904 1834,3871
 1817,3834 1798,3794 1778,3754 1758,3713 1738,3673 1719,3635 1701,3600 1683,3567
 1667,3537 1652,3510 1638,3486 1625,3465 1612,3447 1601,3431 1590,3417 1580,3406
 1570,3397 1560,3390 1548,3383 1536,3379 1524,3377 1512,3378 1501,3381 1489,3386
 1478,3393 1466,3403 1455,3413 1444,3426 1433,3439 1423,3454 1413,3469 1403,3484
 1393,3500 1384,3515 1375,3529 1367,3544 1358,3557 1350,3570 1338,3587 1326,3603
 1314,3617 1301,3631 1287,3643 1273,3655 1259,3666 1245,3675 1230,3684 1216,3691
 1202,3697 1189,3703 1176,3708 1163,3713 1149,3717 1135,3721 1121,3725 1105,3729
 1090,3732 1073,3736 1056,3738 1040,3741 1023,3742 1006,3744 990,3744 975,3744
 960,3744 945,3743 930,3741 915,3739 899,3736 883,3733 866,3731 849,3728 831,3726
 814,3725 796,3725 779,3726 762,3728 745,3731 729,3736 713,3743 700,3749 687,3756
 673,3766 659,3777 643,3790 626,3805 608,3823 588,3843 566,3864 544,3887 522,3911
 501,3933 483,3953 469,3969 459,3980 453,3987 450,3990"
	stroke="#000000" stroke-width="15px" stroke-linejoin="bevel"/>
<!-- Text -->
<text xml:space="preserve" x="2430" y="3900" fill="#000000" font-family="Times" font-style="normal" font-weight="normal" font-size="144" text-anchor="start">t</text>
<!-- Text -->
<text xml:space="preserve" x="1260" y="3090" fill="#000000" font-family="Times" font-style="normal" font-weight="normal" font-size="144" text-anchor="start">x(-t)</text>
<!-- Text -->
<text xml:space="preserve" x="1215" y="4215" fill="#000000" font-family="Times" font-style="normal" font-weight="normal" font-size="144" text-anchor="start">0</text>
<!-- Line -->
<defs>
<clipPath id="cp10">
	<path clip-rule="evenodd" d="M 78,348 H 6717 V 4552 H 78 z
		M 6610,3960 6625,3975 6610,3990 6712,3982 6712,3968z"/>
</clipPath>
</defs>
<polyline points=" 3600,3975 6705,3975" clip-path="url(#cp10)"
	stroke="#000000" stroke-width="8px"/>
<!-- Forward arrow to point 6705,3975 -->
<polygon points=" 6610,3990 6685,3975 6610,3960 6625,3975 6610,3990"
	stroke="#000000" stroke-width="8px" stroke-miterlimit="8" fill="#000000"/>
<!-- Line -->
<defs>
<clipPath id="cp11">
	<path clip-rule="evenodd" d="M 78,348 H 6717 V 4552 H 78 z
		M 4980,3080 4995,3065 5010,3080 5002,2978 4988,2978z"/>
</clipPath>
</defs>
<polyline points=" 4995,4110 4995,2985" clip-path="url(#cp11)"
	stroke="#000000" stroke-width="8px"/>
<!-- Forward arrow to point 4995,2985 -->
<polygon points=" 5010,3080 4995,3005 4980,3080 4995,3065 5010,3080"
	stroke="#000000" stroke-width="8px" stroke-miterlimit="8" fill="#000000"/>
<!-- Text -->
<text xml:space="preserve" x="4995" y="4245" fill="#000000" font-family="Times" font-style="normal" font-weight="normal" font-size="144" text-anchor="middle">0</text>
<!-- Line -->
<defs>
<clipPath id="cp12">
	<path clip-rule="evenodd" d="M 78,348 H 6717 V 4552 H 78 z
		M 4418,1859 4419,1865 4421,1871 4423,1876 4427,1881 4431,1885 4436,1889 4442,1891 4447,1893 4453,1894 4460,1893 4465,1892 4471,1890 4476,1887 4481,1883 4485,1879 4488,1874 4491,1868 4492,1862 4493,1856 4466,1808 4445,1808z"/>
</clipPath>
</defs>
<polyline points=" 4455,2175 4455,1815" clip-path="url(#cp12)"
	stroke="#000000" stroke-width="15px"/>
<!-- Forward arrow to point 4455,1815 -->
<polygon points=" 4493,1856 4492,1850 4491,1844 4488,1839 4485,1834 4481,1829
 4476,1825 4471,1822 4465,1820 4460,1819 4453,1819 4447,1820 4442,1821 4436,1824
 4431,1827 4427,1831 4423,1836 4421,1842 4419,1847 4418,1853 4418,1859 4419,1865
 4421,1871 4423,1876 4427,1881 4431,1885 4436,1889 4442,1891 4447,1893 4453,1894
 4460,1893 4465,1892 4471,1890 4476,1887 4481,1883 4485,1879 4488,1874 4491,1868
 4492,1862 4493,1856"
	stroke="#000000" stroke-width="8px" stroke-miterlimit="8"/>
<!-- Line -->
<defs>
<clipPath id="cp13">
	<path clip-rule="evenodd" d="M 78,348 H 6717 V 4552 H 78 z
		M 4958,2039 4959,2045 4961,2051 4963,2056 4967,2061 4971,2065 4976,2069 4982,2071 4987,2073 4993,2074 5000,2073 5005,2072 5011,2070 5016,2067 5021,2063 5025,2059 5028,2054 5031,2048 5032,2042 5033,2036 5006,1988 4985,1988z"/>
</clipPath>
</defs>
<polyline points=" 4995,2175 4995,1995" clip-path="url(#cp13)"
	stroke="#000000" stroke-width="15px"/>
<!-- Forward arrow to point 4995,1995 -->
<polygon points=" 5033,2036 5032,2030 5031,2024 5028,2019 5025,2014 5021,2009
 5016,2005 5011,2002 5005,2000 5000,1999 4993,1999 4987,2000 4982,2001 4976,2004
 4971,2007 4967,2011 4963,2016 4961,2022 4959,2027 4958,2033 4958,2039 4959,2045
 4961,2051 4963,2056 4967,2061 4971,2065 4976,2069 4982,2071 4987,2073 4993,2074
 5000,2073 5005,2072 5011,2070 5016,2067 5021,2063 5025,2059 5028,2054 5031,2048
 5032,2042 5033,2036"
	stroke="#000000" stroke-width="8px" stroke-miterlimit="8"/>
<!-- Line -->
<defs>
<clipPath id="cp14">
	<path clip-rule="evenodd" d="M 78,348 H 6717 V 4552 H 78 z
		M 5302,2311 5301,2305 5299,2299 5297,2294 5293,2289 5289,2285 5284,2281 5278,2279 5273,2277 5267,2276 5260,2277 5255,2278 5249,2280 5244,2283 5239,2287 5235,2291 5232,2296 5229,2302 5228,2308 5228,2314 5255,2362 5276,2362z"/>
</clipPath>
</defs>
<polyline points=" 5265,2175 5265,2355" clip-path="url(#cp14)"
	stroke="#000000" stroke-width="15px"/>
<!-- Forward arrow to point 5265,2355 -->
<polygon points=" 5228,2314 5228,2320 5229,2326 5232,2331 5235,2336 5239,2341
 5244,2345 5249,2348 5255,2350 5260,2351 5267,2351 5273,2350 5278,2349 5284,2346
 5289,2343 5293,2339 5297,2334 5299,2328 5301,2323 5302,2317 5302,2311 5301,2305
 5299,2299 5297,2294 5293,2289 5289,2285 5284,2281 5278,2279 5273,2277 5267,2276
 5260,2277 5255,2278 5249,2280 5244,2283 5239,2287 5235,2291 5232,2296 5229,2302
 5228,2308 5228,2314"
	stroke="#000000" stroke-width="8px" stroke-miterlimit="8"/>
<!-- Line -->
<defs>
<clipPath id="cp15">
	<path clip-rule="evenodd" d="M 78,348 H 6717 V 4552 H 78 z
		M 5572,2416 5571,2410 5569,2404 5567,2399 5563,2394 5559,2390 5554,2386 5548,2384 5543,2382 5537,2381 5530,2382 5525,2383 5519,2385 5514,2388 5509,2392 5505,2396 5502,2401 5499,2407 5498,2413 5498,2419 5525,2467 5546,2467z"/>
</clipPath>
</defs>
<polyline points=" 5535,2175 5535,2460" clip-path="url(#cp15)"
	stroke="#000000" stroke-width="15px"/>
<!-- Forward arrow to point 5535,2460 -->
<polygon points=" 5498,2419 5498,2425 5499,2431 5502,2436 5505,2441 5509,2446
 5514,2450 5519,2453 5525,2455 5530,2456 5537,2456 5543,2455 5548,2454 5554,2451
 5559,2448 5563,2444 5567,2439 5569,2433 5571,2428 5572,2422 5572,2416 5571,2410
 5569,2404 5567,2399 5563,2394 5559,2390 5554,2386 5548,2384 5543,2382 5537,2381
 5530,2382 5525,2383 5519,2385 5514,2388 5509,2392 5505,2396 5502,2401 5499,2407
 5498,2413 5498,2419"
	stroke="#000000" stroke-width="8px" stroke-miterlimit="8"/>
<!-- Line -->
<defs>
<clipPath id="cp16">
	<path clip-rule="evenodd" d="M 78,348 H 6717 V 4552 H 78 z
		M 4688,1949 4689,1955 4691,1961 4693,1966 4697,1971 4701,1975 4706,1979 4712,1981 4717,1983 4723,1984 4730,1983 4735,1982 4741,1980 4746,1977 4751,1973 4755,1969 4758,1964 4761,1958 4762,1952 4763,1946 4736,1898 4715,1898z"/>
</clipPath>
</defs>
<polyline points=" 4725,2175 4725,1905" clip-path="url(#cp16)"
	stroke="#000000" stroke-width="15px"/>
<!-- Forward arrow to point 4725,1905 -->
<polygon points=" 4763,1946 4762,1940 4761,1934 4758,1929 4755,1924 4751,1919
 4746,1915 4741,1912 4735,1910 4730,1909 4723,1909 4717,1910 4712,1911 4706,1914
 4701,1917 4697,1921 4693,1926 4691,1932 4689,1937 4688,1943 4688,1949 4689,1955
 4691,1961 4693,1966 4697,1971 4701,1975 4706,1979 4712,1981 4717,1983 4723,1984
 4730,1983 4735,1982 4741,1980 4746,1977 4751,1973 4755,1969 4758,1964 4761,1958
 4762,1952 4763,1946"
	stroke="#000000" stroke-width="8px" stroke-miterlimit="8"/>
<!-- Line -->
<defs>
<clipPath id="cp17">
	<path clip-rule="evenodd" d="M 78,348 H 6717 V 4552 H 78 z
		M 4148,1679 4149,1685 4151,1691 4153,1696 4157,1701 4161,1705 4166,1709 4172,1711 4177,1713 4183,1714 4190,1713 4195,1712 4201,1710 4206,1707 4211,1703 4215,1699 4218,1694 4221,1688 4222,1682 4223,1676 4196,1628 4175,1628z"/>
</clipPath>
</defs>
<polyline points=" 4185,2175 4185,1635" clip-path="url(#cp17)"
	stroke="#000000" stroke-width="15px"/>
<!-- Forward arrow to point 4185,1635 -->
<polygon points=" 4223,1676 4222,1670 4221,1664 4218,1659 4215,1654 4211,1649
 4206,1645 4201,1642 4195,1640 4190,1639 4183,1639 4177,1640 4172,1641 4166,1644
 4161,1647 4157,1651 4153,1656 4151,1662 4149,1667 4148,1673 4148,1679 4149,1685
 4151,1691 4153,1696 4157,1701 4161,1705 4166,1709 4172,1711 4177,1713 4183,1714
 4190,1713 4195,1712 4201,1710 4206,1707 4211,1703 4215,1699 4218,1694 4221,1688
 4222,1682 4223,1676"
	stroke="#000000" stroke-width="8px" stroke-miterlimit="8"/>
<!-- Line -->
<defs>
<clipPath id="cp18">
	<path clip-rule="evenodd" d="M 78,348 H 6717 V 4552 H 78 z
		M 3878,1499 3879,1505 3881,1511 3883,1516 3887,1521 3891,1525 3896,1529 3902,1531 3907,1533 3913,1534 3920,1533 3925,1532 3931,1530 3936,1527 3941,1523 3945,1519 3948,1514 3951,1508 3952,1502 3953,1496 3926,1448 3905,1448z"/>
</clipPath>
</defs>
<polyline points=" 3915,2175 3915,1455" clip-path="url(#cp18)"
	stroke="#000000" stroke-width="15px"/>
<!-- Forward arrow to point 3915,1455 -->
<polygon points=" 3953,1496 3952,1490 3951,1484 3948,1479 3945,1474 3941,1469
 3936,1465 3931,1462 3925,1460 3920,1459 3913,1459 3907,1460 3902,1461 3896,1464
 3891,1467 3887,1471 3883,1476 3881,1482 3879,1487 3878,1493 3878,1499 3879,1505
 3881,1511 3883,1516 3887,1521 3891,1525 3896,1529 3902,1531 3907,1533 3913,1534
 3920,1533 3925,1532 3931,1530 3936,1527 3941,1523 3945,1519 3948,1514 3951,1508
 3952,1502 3953,1496"
	stroke="#000000" stroke-width="8px" stroke-miterlimit="8"/>
<!-- Line -->
<defs>
<clipPath id="cp19">
	<path clip-rule="evenodd" d="M 78,348 H 6717 V 4552 H 78 z
		M 6157,2686 6156,2680 6154,2674 6152,2669 6148,2664 6144,2660 6139,2656 6133,2654 6128,2652 6122,2651 6115,2652 6110,2653 6104,2655 6099,2658 6094,2662 6090,2666 6087,2671 6084,2677 6083,2683 6083,2689 6110,2737 6131,2737z"/>
</clipPath>
</defs>
<polyline points=" 6120,2175 6120,2730" clip-path="url(#cp19)"
	stroke="#000000" stroke-width="15px"/>
<!-- Forward arrow to point 6120,2730 -->
<polygon points=" 6083,2689 6083,2695 6084,2701 6087,2706 6090,2711 6094,2716
 6099,2720 6104,2723 6110,2725 6115,2726 6122,2726 6128,2725 6133,2724 6139,2721
 6144,2718 6148,2714 6152,2709 6154,2703 6156,2698 6157,2692 6157,2686 6156,2680
 6154,2674 6152,2669 6148,2664 6144,2660 6139,2656 6133,2654 6128,2652 6122,2651
 6115,2652 6110,2653 6104,2655 6099,2658 6094,2662 6090,2666 6087,2671 6084,2677
 6083,2683 6083,2689"
	stroke="#000000" stroke-width="8px" stroke-miterlimit="8"/>
<!-- Line -->
<defs>
<clipPath id="cp20">
	<path clip-rule="evenodd" d="M 78,348 H 6717 V 4552 H 78 z
		M 5842,2551 5841,2545 5839,2539 5837,2534 5833,2529 5829,2525 5824,2521 5818,2519 5813,2517 5807,2516 5800,2517 5795,2518 5789,2520 5784,2523 5779,2527 5775,2531 5772,2536 5769,2542 5768,2548 5768,2554 5795,2602 5816,2602z"/>
</clipPath>
</defs>
<polyline points=" 5805,2175 5805,2595" clip-path="url(#cp20)"
	stroke="#000000" stroke-width="15px"/>
<!-- Forward arrow to point 5805,2595 -->
<polygon points=" 5768,2554 5768,2560 5769,2566 5772,2571 5775,2576 5779,2581
 5784,2585 5789,2588 5795,2590 5800,2591 5807,2591 5813,2590 5818,2589 5824,2586
 5829,2583 5833,2579 5837,2574 5839,2568 5841,2563 5842,2557 5842,2551 5841,2545
 5839,2539 5837,2534 5833,2529 5829,2525 5824,2521 5818,2519 5813,2517 5807,2516
 5800,2517 5795,2518 5789,2520 5784,2523 5779,2527 5775,2531 5772,2536 5769,2542
 5768,2548 5768,2554"
	stroke="#000000" stroke-width="8px" stroke-miterlimit="8"/>
<!-- Line -->
<defs>
<clipPath id="cp21">
	<path clip-rule="evenodd" d="M 78,348 H 6717 V 4552 H 78 z
		M 5498,3659 5499,3665 5501,3671 5503,3676 5507,3681 5511,3685 5516,3689 5522,3691 5527,3693 5533,3694 5540,3693 5545,3692 5551,3690 5556,3687 5561,3683 5565,3679 5568,3674 5571,3668 5572,3662 5573,3656 5546,3608 5525,3608z"/>
</clipPath>
</defs>
<polyline points=" 5535,3975 5535,3615" clip-path="url(#cp21)"
	stroke="#000000" stroke-width="15px"/>
<!-- Forward arrow to point 5535,3615 -->
<polygon points=" 5573,3656 5572,3650 5571,3644 5568,3639 5565,3634 5561,3629
 5556,3625 5551,3622 5545,3620 5540,3619 5533,3619 5527,3620 5522,3621 5516,3624
 5511,3627 5507,3631 5503,3636 5501,3642 5499,3647 5498,3653 5498,3659 5499,3665
 5501,3671 5503,3676 5507,3681 5511,3685 5516,3689 5522,3691 5527,3693 5533,3694
 5540,3693 5545,3692 5551,3690 5556,3687 5561,3683 5565,3679 5568,3674 5571,3668
 5572,3662 5573,3656"
	stroke="#000000" stroke-width="8px" stroke-miterlimit="8"/>
<!-- Line -->
<defs>
<clipPath id="cp22">
	<path clip-rule="evenodd" d="M 78,348 H 6717 V 4552 H 78 z
		M 4958,3839 4959,3845 4961,3851 4963,3856 4967,3861 4971,3865 4976,3869 4982,3871 4987,3873 4993,3874 5000,3873 5005,3872 5011,3870 5016,3867 5021,3863 5025,3859 5028,3854 5031,3848 5032,3842 5033,3836 5006,3788 4985,3788z"/>
</clipPath>
</defs>
<polyline points=" 4995,3975 4995,3795" clip-path="url(#cp22)"
	stroke="#000000" stroke-width="15px"/>
<!-- Forward arrow to point 4995,3795 -->
<polygon points=" 5033,3836 5032,3830 5031,3824 5028,3819 5025,3814 5021,3809
 5016,3805 5011,3802 5005,3800 5000,3799 4993,3799 4987,3800 4982,3801 4976,3804
 4971,3807 4967,3811 4963,3816 4961,3822 4959,3827 4958,3833 4958,3839 4959,3845
 4961,3851 4963,3856 4967,3861 4971,3865 4976,3869 4982,3871 4987,3873 4993,3874
 5000,3873 5005,3872 5011,3870 5016,3867 5021,3863 5025,3859 5028,3854 5031,3848
 5032,3842 5033,3836"
	stroke="#000000" stroke-width="8px" stroke-miterlimit="8"/>
<!-- Line -->
<defs>
<clipPath id="cp23">
	<path clip-rule="evenodd" d="M 78,348 H 6717 V 4552 H 78 z
		M 4762,4111 4761,4105 4759,4099 4757,4094 4753,4089 4749,4085 4744,4081 4738,4079 4733,4077 4727,4076 4720,4077 4715,4078 4709,4080 4704,4083 4699,4087 4695,4091 4692,4096 4689,4102 4688,4108 4688,4114 4715,4162 4736,4162z"/>
</clipPath>
</defs>
<polyline points=" 4725,3975 4725,4155" clip-path="url(#cp23)"
	stroke="#000000" stroke-width="15px"/>
<!-- Forward arrow to point 4725,4155 -->
<polygon points=" 4688,4114 4688,4120 4689,4126 4692,4131 4695,4136 4699,4141
 4704,4145 4709,4148 4715,4150 4720,4151 4727,4151 4733,4150 4738,4149 4744,4146
 4749,4143 4753,4139 4757,4134 4759,4128 4761,4123 4762,4117 4762,4111 4761,4105
 4759,4099 4757,4094 4753,4089 4749,4085 4744,4081 4738,4079 4733,4077 4727,4076
 4720,4077 4715,4078 4709,4080 4704,4083 4699,4087 4695,4091 4692,4096 4689,4102
 4688,4108 4688,4114"
	stroke="#000000" stroke-width="8px" stroke-miterlimit="8"/>
<!-- Line -->
<defs>
<clipPath id="cp24">
	<path clip-rule="evenodd" d="M 78,348 H 6717 V 4552 H 78 z
		M 4492,4216 4491,4210 4489,4204 4487,4199 4483,4194 4479,4190 4474,4186 4468,4184 4463,4182 4457,4181 4450,4182 4445,4183 4439,4185 4434,4188 4429,4192 4425,4196 4422,4201 4419,4207 4418,4213 4418,4219 4445,4267 4466,4267z"/>
</clipPath>
</defs>
<polyline points=" 4455,3975 4455,4260" clip-path="url(#cp24)"
	stroke="#000000" stroke-width="15px"/>
<!-- Forward arrow to point 4455,4260 -->
<polygon points=" 4418,4219 4418,4225 4419,4231 4422,4236 4425,4241 4429,4246
 4434,4250 4439,4253 4445,4255 4450,4256 4457,4256 4463,4255 4468,4254 4474,4251
 4479,4248 4483,4244 4487,4239 4489,4233 4491,4228 4492,4222 4492,4216 4491,4210
 4489,4204 4487,4199 4483,4194 4479,4190 4474,4186 4468,4184 4463,4182 4457,4181
 4450,4182 4445,4183 4439,4185 4434,4188 4429,4192 4425,4196 4422,4201 4419,4207
 4418,4213 4418,4219"
	stroke="#000000" stroke-width="8px" stroke-miterlimit="8"/>
<!-- Line -->
<defs>
<clipPath id="cp25">
	<path clip-rule="evenodd" d="M 78,348 H 6717 V 4552 H 78 z
		M 5228,3749 5229,3755 5231,3761 5233,3766 5237,3771 5241,3775 5246,3779 5252,3781 5257,3783 5263,3784 5270,3783 5275,3782 5281,3780 5286,3777 5291,3773 5295,3769 5298,3764 5301,3758 5302,3752 5303,3746 5276,3698 5255,3698z"/>
</clipPath>
</defs>
<polyline points=" 5265,3975 5265,3705" clip-path="url(#cp25)"
	stroke="#000000" stroke-width="15px"/>
<!-- Forward arrow to point 5265,3705 -->
<polygon points=" 5303,3746 5302,3740 5301,3734 5298,3729 5295,3724 5291,3719
 5286,3715 5281,3712 5275,3710 5270,3709 5263,3709 5257,3710 5252,3711 5246,3714
 5241,3717 5237,3721 5233,3726 5231,3732 5229,3737 5228,3743 5228,3749 5229,3755
 5231,3761 5233,3766 5237,3771 5241,3775 5246,3779 5252,3781 5257,3783 5263,3784
 5270,3783 5275,3782 5281,3780 5286,3777 5291,3773 5295,3769 5298,3764 5301,3758
 5302,3752 5303,3746"
	stroke="#000000" stroke-width="8px" stroke-miterlimit="8"/>
<!-- Line -->
<defs>
<clipPath id="cp26">
	<path clip-rule="evenodd" d="M 78,348 H 6717 V 4552 H 78 z
		M 5768,3479 5769,3485 5771,3491 5773,3496 5777,3501 5781,3505 5786,3509 5792,3511 5797,3513 5803,3514 5810,3513 5815,3512 5821,3510 5826,3507 5831,3503 5835,3499 5838,3494 5841,3488 5842,3482 5843,3476 5816,3428 5795,3428z"/>
</clipPath>
</defs>
<polyline points=" 5805,3975 5805,3435" clip-path="url(#cp26)"
	stroke="#000000" stroke-width="15px"/>
<!-- Forward arrow to point 5805,3435 -->
<polygon points=" 5843,3476 5842,3470 5841,3464 5838,3459 5835,3454 5831,3449
 5826,3445 5821,3442 5815,3440 5810,3439 5803,3439 5797,3440 5792,3441 5786,3444
 5781,3447 5777,3451 5773,3456 5771,3462 5769,3467 5768,3473 5768,3479 5769,3485
 5771,3491 5773,3496 5777,3501 5781,3505 5786,3509 5792,3511 5797,3513 5803,3514
 5810,3513 5815,3512 5821,3510 5826,3507 5831,3503 5835,3499 5838,3494 5841,3488
 5842,3482 5843,3476"
	stroke="#000000" stroke-width="8px" stroke-miterlimit="8"/>
<!-- Line -->
<defs>
<clipPath id="cp27">
	<path clip-rule="evenodd" d="M 78,348 H 6717 V 4552 H 78 z
		M 6038,3299 6039,3305 6041,3311 6043,3316 6047,3321 6051,3325 6056,3329 6062,3331 6067,3333 6073,3334 6080,3333 6085,3332 6091,3330 6096,3327 6101,3323 6105,3319 6108,3314 6111,3308 6112,3302 6113,3296 6086,3248 6065,3248z"/>
</clipPath>
</defs>
<polyline points=" 6075,3975 6075,3255" clip-path="url(#cp27)"
	stroke="#000000" stroke-width="15px"/>
<!-- Forward arrow to point 6075,3255 -->
<polygon points=" 6113,3296 6112,3290 6111,3284 6108,3279 6105,3274 6101,3269
 6096,3265 6091,3262 6085,3260 6080,3259 6073,3259 6067,3260 6062,3261 6056,3264
 6051,3267 6047,3271 6043,3276 6041,3282 6039,3287 6038,3293 6038,3299 6039,3305
 6041,3311 6043,3316 6047,3321 6051,3325 6056,3329 6062,3331 6067,3333 6073,3334
 6080,3333 6085,3332 6091,3330 6096,3327 6101,3323 6105,3319 6108,3314 6111,3308
 6112,3302 6113,3296"
	stroke="#000000" stroke-width="8px" stroke-miterlimit="8"/>
<!-- Line -->
<defs>
<clipPath id="cp28">
	<path clip-rule="evenodd" d="M 78,348 H 6717 V 4552 H 78 z
		M 3907,4486 3906,4480 3904,4474 3902,4469 3898,4464 3894,4460 3889,4456 3883,4454 3878,4452 3872,4451 3865,4452 3860,4453 3854,4455 3849,4458 3844,4462 3840,4466 3837,4471 3834,4477 3833,4483 3833,4489 3860,4537 3881,4537z"/>
</clipPath>
</defs>
<polyline points=" 3870,3975 3870,4530" clip-path="url(#cp28)"
	stroke="#000000" stroke-width="15px"/>
<!-- Forward arrow to point 3870,4530 -->
<polygon points=" 3833,4489 3833,4495 3834,4501 3837,4506 3840,4511 3844,4516
 3849,4520 3854,4523 3860,4525 3865,4526 3872,4526 3878,4525 3883,4524 3889,4521
 3894,4518 3898,4514 3902,4509 3904,4503 3906,4498 3907,4492 3907,4486 3906,4480
 3904,4474 3902,4469 3898,4464 3894,4460 3889,4456 3883,4454 3878,4452 3872,4451
 3865,4452 3860,4453 3854,4455 3849,4458 3844,4462 3840,4466 3837,4471 3834,4477
 3833,4483 3833,4489"
	stroke="#000000" stroke-width="8px" stroke-miterlimit="8"/>
<!-- Line -->
<defs>
<clipPath id="cp29">
	<path clip-rule="evenodd" d="M 78,348 H 6717 V 4552 H 78 z
		M 4222,4351 4221,4345 4219,4339 4217,4334 4213,4329 4209,4325 4204,4321 4198,4319 4193,4317 4187,4316 4180,4317 4175,4318 4169,4320 4164,4323 4159,4327 4155,4331 4152,4336 4149,4342 4148,4348 4148,4354 4175,4402 4196,4402z"/>
</clipPath>
</defs>
<polyline points=" 4185,3975 4185,4395" clip-path="url(#cp29)"
	stroke="#000000" stroke-width="15px"/>
<!-- Forward arrow to point 4185,4395 -->
<polygon points=" 4148,4354 4148,4360 4149,4366 4152,4371 4155,4376 4159,4381
 4164,4385 4169,4388 4175,4390 4180,4391 4187,4391 4193,4390 4198,4389 4204,4386
 4209,4383 4213,4379 4217,4374 4219,4368 4221,4363 4222,4357 4222,4351 4221,4345
 4219,4339 4217,4334 4213,4329 4209,4325 4204,4321 4198,4319 4193,4317 4187,4316
 4180,4317 4175,4318 4169,4320 4164,4323 4159,4327 4155,4331 4152,4336 4149,4342
 4148,4348 4148,4354"
	stroke="#000000" stroke-width="8px" stroke-miterlimit="8"/>
<!-- Text -->
<text xml:space="preserve" x="5085" y="1275" fill="#000000" font-family="Times" font-style="normal" font-weight="normal" font-size="144" text-anchor="start">x[n]</text>
<!-- Text -->
<text xml:space="preserve" x="6570" y="2085" fill="#000000" font-family="Times" font-style="normal" font-weight="normal" font-size="144" text-anchor="start">n</text>
<!-- Text -->
<text xml:space="preserve" x="5085" y="3075" fill="#000000" font-family="Times" font-style="normal" font-weight="normal" font-size="144" text-anchor="start">x[-n]</text>
<!-- Text -->
<text xml:space="preserve" x="6570" y="3885" fill="#000000" font-family="Times" font-style="normal" font-weight="normal" font-size="144" text-anchor="start">n</text>
</g>
</svg>
