<?xml version="1.0" encoding="UTF-8" standalone="no"?>
<!-- Creator: fig2dev Version 3.2.8b -->
<!-- CreationDate: 2025-10-30 19:43:16 -->
<!-- Magnification: 1 -->
<svg	xmlns="http://www.w3.org/2000/svg"
	xmlns:xlink="http://www.w3.org/1999/xlink"
	width="728pt" height="272pt"
	viewBox="513 3594 12121 4518">
<g fill="none">
<!-- Line -->
<!-- polyline -->
<defs>
<clipPath id="cp0">
	<path clip-rule="evenodd" d="M 513,3594 H 12634 V 8112 H 513 z
		M 720,3871 750,3841 780,3871 757,3694 743,3694z"/>
</clipPath>
</defs>
<polyline points=" 750,8100 750,3701" clip-path="url(#cp0)"
	stroke="#000000" stroke-width="8px" stroke-linejoin="round"/>
<!-- Forward arrow to point 750,3701 -->
<polygon points=" 780,3871 750,3721 720,3871 750,3841 780,3871"
	stroke="#000000" stroke-width="8px" stroke-miterlimit="8" fill="#000000"/>
<!-- Text -->
<!-- text -->
<text xml:space="preserve" x="704" y="6375" fill="#000000" font-family="Times" font-style="italic" font-weight="normal" font-size="168" text-anchor="start">0</text>
<!-- Text -->
<!-- text -->
<text xml:space="preserve" x="2111" y="6000" fill="#000000" font-family="Times" font-style="italic" font-weight="normal" font-size="168" text-anchor="start">5</text>
<!-- Line -->
<!-- polyline -->
<polyline points=" 4949,4487 4949,4600"
	stroke="#000000" stroke-width="8px" stroke-linejoin="round"/>
<!-- Text -->
<!-- text -->
<text xml:space="preserve" x="3493" y="6000" fill="#000000" font-family="Times" font-style="italic" font-weight="normal" font-size="168" text-anchor="start">10</text>
<!-- Text -->
<!-- text -->
<text xml:space="preserve" x="6290" y="6000" fill="#000000" font-family="Times" font-style="italic" font-weight="normal" font-size="168" text-anchor="start">20</text>
<!-- Text -->
<!-- text -->
<text xml:space="preserve" x="7669" y="6011" fill="#000000" font-family="Times" font-style="italic" font-weight="normal" font-size="168" text-anchor="start">25</text>
<!-- Text -->
<!-- text -->
<text xml:space="preserve" x="9044" y="6405" fill="#000000" font-family="Times" font-style="italic" font-weight="normal" font-size="168" text-anchor="start">30</text>
<!-- Text -->
<!-- text -->
<text xml:space="preserve" x="10437" y="6405" fill="#000000" font-family="Times" font-style="italic" font-weight="normal" font-size="168" text-anchor="start">35</text>
<!-- Text -->
<!-- text -->
<text xml:space="preserve" x="11862" y="6011" fill="#000000" font-family="Times" font-style="italic" font-weight="normal" font-size="168" text-anchor="start">40</text>
<!-- Text -->
<!-- text -->
<text xml:space="preserve" x="600" y="7851" fill="#000000" font-family="Times" font-style="italic" font-weight="normal" font-size="168" text-anchor="end">-1</text>
<!-- Text -->
<!-- text -->
<text xml:space="preserve" x="600" y="4540" fill="#000000" font-family="Times" font-style="italic" font-weight="normal" font-size="168" text-anchor="end">1</text>
<!-- Line -->
<!-- polyline -->
<polyline points=" 11983,7748 11983,7634"
	stroke="#000000" stroke-width="8px" stroke-linejoin="round"/>
<!-- Line -->
<!-- polyline -->
<polyline points=" 11983,7748 11869,7748"
	stroke="#000000" stroke-width="8px" stroke-linejoin="round"/>
<!-- Line -->
<!-- polyline -->
<polyline points=" 730,4487 843,4487"
	stroke="#000000" stroke-width="8px" stroke-linejoin="round"/>
<!-- Line -->
<!-- spline -->
<polyline points=" 780,4487 780,4488 779,4492 779,4498 778,4502 778,4503 777,4505 776,4509 774,4512
 771,4517 768,4521 766,4522 766,4523 764,4524 760,4527 756,4530 754,4531 753,4531
 751,4532 746,4534 740,4536 736,4536 733,4537 730,4537 729,4537 725,4536 719,4535
 715,4534 714,4534 712,4533 709,4532 705,4530 701,4527 697,4524 695,4523 695,4522
 693,4521 690,4517 687,4513 686,4511 686,4510 685,4508 683,4503 681,4497 681,4493
 680,4490 680,4487 680,4486 681,4482 682,4476 683,4472 683,4471 684,4469 685,4465
 687,4462 690,4457 693,4453 695,4452 695,4451 697,4450 701,4447 705,4444 707,4443
 709,4442 714,4440 719,4438 724,4438 727,4437 730,4437 731,4437 735,4438 741,4439
 745,4440 746,4440 748,4441 751,4442 755,4444 760,4447 764,4450 766,4451 766,4452
 768,4453 771,4457 774,4461 775,4463 775,4464 776,4466 778,4471 779,4477 780,4481
 780,4484 780,4487"
	stroke="#000000" stroke-width="8px" stroke-linejoin="bevel"/>
<!-- Line -->
<!-- spline -->
<polyline points=" 1061,4615 1061,4616 1060,4620 1059,4626 1058,4630 1058,4631 1057,4633 1056,4636
 1054,4640 1051,4644 1048,4648 1046,4650 1044,4652 1040,4655 1036,4658 1034,4659
 1032,4660 1027,4662 1022,4664 1017,4664 1014,4665 1011,4665 1010,4665 1006,4664
 1000,4663 996,4662 995,4662 993,4661 990,4660 986,4658 981,4655 977,4652 975,4650
 973,4648 970,4644 967,4640 966,4638 965,4636 963,4631 962,4626 961,4621 961,4618
 961,4615 961,4614 962,4610 962,4604 963,4600 963,4599 964,4597 965,4594 967,4590
 970,4585 973,4581 975,4579 977,4577 981,4574 985,4571 987,4570 988,4570 990,4569
 995,4567 1001,4566 1005,4565 1008,4565 1011,4565 1012,4565 1016,4566 1022,4566
 1026,4567 1027,4567 1029,4568 1032,4569 1036,4571 1040,4574 1044,4577 1046,4579
 1048,4581 1051,4585 1054,4589 1055,4591 1055,4592 1056,4594 1058,4599 1060,4605
 1060,4609 1061,4612 1061,4615"
	stroke="#000000" stroke-width="8px" stroke-linejoin="bevel"/>
<!-- Line -->
<!-- spline -->
<polyline points=" 1342,4981 1342,4982 1341,4986 1340,4992 1339,4996 1339,4997 1338,4999 1337,5002
 1335,5006 1332,5011 1329,5015 1327,5017 1325,5019 1321,5022 1317,5025 1315,5026
 1314,5026 1312,5027 1307,5029 1302,5030 1298,5031 1294,5031 1292,5031 1291,5031
 1287,5030 1281,5030 1277,5029 1276,5029 1274,5028 1271,5027 1267,5025 1262,5022
 1258,5019 1256,5017 1254,5015 1251,5011 1248,5007 1247,5005 1247,5004 1246,5002
 1244,4997 1243,4991 1242,4987 1242,4984 1242,4981 1242,4980 1243,4976 1243,4971
 1244,4967 1244,4966 1245,4964 1246,4961 1248,4957 1251,4952 1254,4948 1256,4946
 1258,4944 1262,4941 1266,4938 1268,4937 1269,4937 1271,4936 1276,4934 1282,4932
 1286,4932 1289,4931 1292,4931 1293,4931 1297,4932 1302,4933 1306,4934 1307,4934
 1309,4935 1312,4936 1316,4938 1321,4941 1325,4944 1327,4946 1329,4948 1332,4952
 1335,4956 1336,4958 1336,4959 1337,4961 1339,4966 1341,4971 1341,4975 1342,4979
 1342,4981"
	stroke="#000000" stroke-width="8px" stroke-linejoin="bevel"/>
<!-- Line -->
<!-- spline -->
<polyline points=" 1622,5526 1622,5527 1621,5531 1621,5537 1620,5541 1620,5542 1619,5544 1618,5547
 1616,5551 1613,5555 1610,5559 1608,5561 1606,5563 1602,5566 1598,5569 1596,5570
 1595,5570 1593,5571 1588,5573 1582,5575 1578,5575 1575,5576 1572,5576 1571,5576
 1567,5575 1561,5574 1557,5573 1556,5573 1554,5572 1551,5571 1547,5569 1543,5566
 1539,5563 1537,5561 1535,5559 1532,5555 1529,5551 1528,5549 1527,5547 1525,5542
 1523,5537 1523,5532 1522,5529 1522,5526 1522,5525 1523,5521 1524,5515 1525,5511
 1525,5510 1526,5508 1527,5504 1529,5501 1532,5496 1535,5492 1537,5491 1537,5490
 1539,5489 1543,5486 1547,5483 1549,5482 1549,5481 1551,5480 1556,5478 1561,5477
 1566,5476 1569,5476 1572,5476 1573,5476 1577,5477 1583,5477 1587,5478 1588,5478
 1590,5479 1593,5481 1597,5483 1602,5486 1606,5489 1608,5490 1608,5491 1610,5492
 1613,5496 1616,5500 1617,5502 1617,5503 1618,5505 1620,5510 1621,5516 1622,5520
 1622,5523 1622,5526"
	stroke="#000000" stroke-width="8px" stroke-linejoin="bevel"/>
<!-- Line -->
<!-- spline -->
<polyline points=" 1904,6165 1904,6166 1903,6170 1903,6176 1902,6180 1902,6181 1901,6183 1900,6186
 1898,6190 1895,6194 1892,6198 1890,6200 1888,6202 1884,6205 1880,6208 1878,6209
 1877,6209 1875,6210 1870,6212 1864,6214 1860,6214 1857,6215 1854,6215 1853,6215
 1849,6214 1843,6213 1839,6212 1838,6212 1836,6211 1833,6210 1829,6208 1825,6205
 1821,6202 1819,6200 1817,6198 1814,6194 1811,6190 1810,6188 1809,6186 1807,6181
 1805,6176 1805,6171 1804,6168 1804,6165 1804,6164 1805,6160 1806,6154 1807,6150
 1807,6149 1808,6147 1809,6144 1811,6140 1814,6135 1817,6131 1819,6129 1821,6127
 1825,6124 1829,6121 1831,6120 1833,6119 1838,6117 1843,6116 1848,6115 1851,6115
 1854,6115 1855,6115 1859,6116 1865,6116 1869,6117 1870,6117 1872,6118 1875,6119
 1879,6121 1884,6124 1888,6127 1890,6129 1892,6131 1895,6135 1898,6139 1899,6141
 1899,6142 1900,6144 1902,6149 1903,6155 1904,6159 1904,6162 1904,6165"
	stroke="#000000" stroke-width="8px" stroke-linejoin="bevel"/>
<!-- Line -->
<!-- spline -->
<polyline points=" 2185,6795 2185,6796 2184,6800 2183,6806 2182,6810 2182,6811 2181,6813 2180,6816
 2178,6820 2175,6825 2172,6829 2170,6831 2168,6833 2164,6836 2160,6839 2158,6840
 2156,6841 2151,6843 2146,6844 2141,6845 2138,6845 2135,6845 2134,6845 2130,6844
 2124,6844 2120,6843 2119,6843 2117,6842 2114,6841 2110,6839 2105,6836 2101,6833
 2099,6831 2097,6829 2094,6825 2091,6821 2090,6819 2090,6818 2089,6816 2087,6811
 2086,6805 2085,6801 2085,6798 2085,6795 2085,6794 2086,6790 2086,6785 2087,6781
 2087,6780 2088,6778 2089,6775 2091,6771 2094,6766 2097,6762 2099,6760 2101,6758
 2105,6755 2109,6752 2111,6751 2112,6751 2114,6750 2119,6748 2125,6746 2129,6746
 2132,6745 2135,6745 2136,6745 2140,6746 2146,6747 2150,6748 2151,6748 2153,6749
 2156,6750 2160,6752 2164,6755 2168,6758 2170,6760 2172,6762 2175,6766 2178,6770
 2179,6772 2179,6773 2180,6775 2182,6780 2184,6785 2184,6789 2185,6793 2185,6795
"
	stroke="#000000" stroke-width="8px" stroke-linejoin="bevel"/>
<!-- Line -->
<!-- spline -->
<polyline points=" 2467,7319 2467,7320 2466,7324 2465,7330 2464,7334 2464,7335 2463,7337 2462,7340
 2460,7344 2457,7348 2454,7352 2452,7354 2450,7356 2446,7359 2442,7362 2440,7363
 2439,7363 2437,7364 2432,7366 2427,7368 2423,7368 2419,7369 2417,7369 2416,7369
 2412,7368 2406,7367 2402,7366 2401,7366 2399,7365 2396,7364 2392,7362 2387,7359
 2383,7356 2381,7354 2379,7352 2376,7348 2373,7344 2372,7342 2371,7340 2369,7335
 2368,7330 2367,7325 2367,7322 2367,7319 2367,7318 2368,7314 2368,7308 2369,7304
 2369,7303 2370,7301 2371,7297 2373,7294 2376,7289 2379,7285 2381,7284 2381,7283
 2383,7282 2387,7279 2391,7276 2393,7275 2394,7275 2396,7274 2401,7272 2407,7270
 2411,7270 2414,7269 2417,7269 2418,7269 2422,7270 2427,7271 2431,7272 2432,7272
 2434,7273 2437,7274 2441,7276 2446,7279 2450,7282 2452,7283 2452,7284 2454,7285
 2457,7289 2460,7293 2461,7295 2461,7296 2462,7298 2464,7303 2466,7309 2466,7313
 2467,7316 2467,7319"
	stroke="#000000" stroke-width="8px" stroke-linejoin="bevel"/>
<!-- Line -->
<!-- spline -->
<polyline points=" 2749,7654 2749,7655 2748,7659 2747,7664 2746,7668 2746,7669 2745,7671 2744,7674
 2742,7678 2739,7683 2736,7687 2734,7689 2732,7691 2728,7694 2724,7697 2722,7698
 2721,7698 2719,7699 2714,7701 2709,7703 2705,7703 2701,7704 2699,7704 2698,7704
 2694,7703 2688,7702 2684,7701 2683,7701 2681,7700 2678,7699 2674,7697 2669,7694
 2665,7691 2663,7689 2661,7687 2658,7683 2655,7679 2654,7677 2654,7676 2653,7674
 2651,7669 2650,7664 2649,7660 2649,7656 2649,7654 2649,7653 2650,7649 2650,7643
 2651,7639 2651,7638 2652,7636 2653,7633 2655,7629 2658,7624 2661,7620 2663,7618
 2665,7616 2669,7613 2673,7610 2675,7609 2676,7609 2678,7608 2683,7606 2689,7605
 2693,7604 2696,7604 2699,7604 2700,7604 2704,7605 2709,7605 2713,7606 2714,7606
 2716,7607 2719,7608 2723,7610 2728,7613 2732,7616 2734,7618 2736,7620 2739,7624
 2742,7628 2743,7630 2743,7631 2744,7633 2746,7638 2748,7644 2748,7648 2749,7651
 2749,7654"
	stroke="#000000" stroke-width="8px" stroke-linejoin="bevel"/>
<!-- Line -->
<!-- spline -->
<polyline points=" 3029,7744 3029,7745 3028,7749 3028,7755 3027,7759 3027,7760 3026,7762 3025,7765
 3023,7769 3020,7773 3017,7777 3015,7779 3013,7781 3009,7784 3005,7787 3003,7788
 3002,7788 3000,7789 2995,7791 2989,7793 2985,7793 2982,7794 2979,7794 2978,7794
 2974,7793 2968,7792 2964,7791 2963,7791 2961,7790 2958,7789 2954,7787 2950,7784
 2946,7781 2944,7779 2942,7777 2939,7773 2936,7769 2935,7767 2934,7765 2932,7760
 2930,7755 2930,7750 2929,7747 2929,7744 2929,7743 2930,7739 2931,7733 2932,7729
 2932,7728 2933,7726 2934,7722 2936,7719 2939,7714 2942,7710 2944,7709 2944,7708
 2946,7707 2950,7704 2954,7701 2956,7700 2958,7699 2963,7697 2968,7695 2973,7695
 2976,7694 2979,7694 2980,7694 2984,7695 2990,7696 2994,7697 2995,7697 2997,7698
 3000,7699 3004,7701 3009,7704 3013,7707 3015,7708 3015,7709 3017,7710 3020,7714
 3023,7718 3024,7720 3024,7721 3025,7723 3027,7728 3028,7734 3029,7738 3029,7741
 3029,7744"
	stroke="#000000" stroke-width="8px" stroke-linejoin="bevel"/>
<!-- Line -->
<!-- spline -->
<polyline points=" 3311,7579 3311,7580 3310,7584 3310,7589 3309,7593 3309,7594 3308,7596 3306,7599
 3304,7603 3301,7608 3298,7612 3297,7614 3296,7614 3295,7616 3291,7619 3287,7622
 3285,7623 3284,7623 3282,7624 3277,7626 3271,7628 3267,7628 3264,7629 3261,7629
 3260,7629 3256,7628 3250,7627 3246,7626 3245,7626 3243,7625 3240,7624 3236,7622
 3232,7619 3228,7616 3226,7614 3224,7612 3221,7608 3218,7604 3217,7602 3217,7601
 3216,7599 3214,7594 3212,7589 3212,7585 3211,7581 3211,7579 3211,7578 3212,7574
 3213,7568 3214,7564 3214,7563 3215,7561 3216,7558 3218,7554 3221,7549 3224,7545
 3226,7543 3228,7541 3232,7538 3236,7535 3238,7534 3240,7533 3245,7531 3250,7530
 3255,7529 3258,7529 3261,7529 3262,7529 3266,7530 3272,7530 3276,7531 3277,7531
 3279,7532 3283,7533 3286,7535 3291,7538 3295,7541 3296,7543 3297,7543 3298,7545
 3301,7549 3304,7553 3305,7555 3306,7556 3307,7558 3309,7563 3310,7569 3311,7573
 3311,7576 3311,7579"
	stroke="#000000" stroke-width="8px" stroke-linejoin="bevel"/>
<!-- Line -->
<!-- spline -->
<polyline points=" 3592,7183 3592,7184 3591,7188 3590,7194 3589,7198 3589,7199 3588,7201 3587,7204
 3585,7208 3582,7212 3579,7216 3577,7218 3575,7220 3571,7223 3567,7226 3565,7227
 3564,7227 3562,7228 3557,7230 3552,7232 3548,7232 3544,7233 3542,7233 3541,7233
 3537,7232 3531,7231 3527,7230 3526,7230 3524,7229 3521,7228 3517,7226 3512,7223
 3508,7220 3506,7218 3504,7216 3501,7212 3498,7208 3497,7206 3496,7204 3494,7199
 3493,7194 3492,7189 3492,7186 3492,7183 3492,7182 3493,7178 3493,7172 3494,7168
 3494,7167 3495,7165 3496,7162 3498,7158 3501,7153 3504,7149 3506,7147 3508,7145
 3512,7142 3516,7139 3518,7138 3519,7138 3521,7137 3526,7135 3532,7134 3536,7133
 3539,7133 3542,7133 3543,7133 3547,7134 3552,7134 3556,7135 3557,7135 3559,7136
 3562,7137 3566,7139 3571,7142 3575,7145 3577,7147 3579,7149 3582,7153 3585,7157
 3586,7159 3586,7160 3587,7162 3589,7167 3591,7173 3591,7177 3592,7180 3592,7183
"
	stroke="#000000" stroke-width="8px" stroke-linejoin="bevel"/>
<!-- Line -->
<!-- spline -->
<polyline points=" 3874,6618 3874,6619 3873,6623 3872,6628 3871,6632 3871,6633 3870,6635 3869,6638
 3867,6642 3864,6647 3861,6651 3859,6653 3857,6655 3853,6658 3849,6661 3847,6662
 3846,6662 3844,6663 3839,6665 3834,6667 3830,6667 3826,6668 3824,6668 3823,6668
 3819,6667 3813,6666 3809,6665 3808,6665 3806,6664 3803,6663 3799,6661 3794,6658
 3790,6655 3788,6653 3786,6651 3783,6647 3780,6643 3779,6641 3779,6640 3778,6638
 3776,6633 3775,6628 3774,6624 3774,6620 3774,6618 3774,6617 3775,6613 3775,6607
 3776,6603 3776,6602 3777,6600 3778,6597 3780,6593 3783,6588 3786,6584 3788,6582
 3790,6580 3794,6577 3798,6574 3800,6573 3801,6573 3803,6572 3808,6570 3814,6569
 3818,6568 3821,6568 3824,6568 3825,6568 3829,6569 3834,6569 3838,6570 3839,6570
 3841,6571 3844,6572 3848,6574 3853,6577 3857,6580 3859,6582 3861,6584 3864,6588
 3867,6592 3868,6594 3868,6595 3869,6597 3871,6602 3873,6608 3873,6612 3874,6615
 3874,6618"
	stroke="#000000" stroke-width="8px" stroke-linejoin="bevel"/>
<!-- Line -->
<!-- spline -->
<polyline points=" 4154,5975 4154,5976 4153,5980 4153,5985 4152,5989 4152,5990 4151,5992 4150,5995
 4148,5999 4145,6004 4142,6008 4140,6010 4138,6012 4134,6015 4130,6018 4128,6019
 4127,6019 4125,6020 4120,6022 4114,6024 4110,6024 4107,6025 4104,6025 4103,6025
 4099,6024 4093,6023 4089,6022 4088,6022 4086,6021 4083,6020 4079,6018 4075,6015
 4071,6012 4069,6010 4067,6008 4064,6004 4061,6000 4060,5998 4060,5997 4059,5995
 4057,5990 4055,5985 4055,5981 4054,5977 4054,5975 4054,5974 4055,5970 4056,5964
 4057,5960 4057,5959 4058,5957 4059,5954 4061,5950 4064,5945 4067,5941 4069,5939
 4071,5937 4075,5934 4079,5931 4081,5930 4083,5929 4088,5927 4093,5926 4098,5925
 4101,5925 4104,5925 4105,5925 4109,5926 4115,5926 4119,5927 4120,5927 4122,5928
 4125,5929 4129,5931 4134,5934 4138,5937 4140,5939 4142,5941 4145,5945 4148,5949
 4149,5951 4149,5952 4150,5954 4152,5959 4153,5965 4154,5969 4154,5972 4154,5975
"
	stroke="#000000" stroke-width="8px" stroke-linejoin="bevel"/>
<!-- Line -->
<!-- spline -->
<polyline points=" 4436,5352 4436,5353 4435,5357 4435,5363 4434,5367 4434,5368 4433,5370 4431,5373
 4429,5377 4426,5382 4423,5386 4422,5388 4421,5388 4420,5390 4416,5393 4412,5396
 4410,5397 4409,5397 4407,5398 4402,5400 4396,5401 4392,5402 4389,5402 4386,5402
 4385,5402 4381,5401 4375,5401 4371,5400 4370,5400 4368,5399 4365,5398 4361,5396
 4357,5393 4353,5390 4351,5388 4349,5386 4346,5382 4343,5378 4342,5376 4342,5375
 4341,5373 4339,5368 4337,5362 4337,5358 4336,5355 4336,5352 4336,5351 4337,5347
 4338,5342 4339,5338 4339,5337 4340,5335 4341,5332 4343,5328 4346,5323 4349,5319
 4351,5317 4353,5315 4357,5312 4361,5309 4363,5308 4365,5307 4370,5305 4375,5303
 4380,5303 4383,5302 4386,5302 4387,5302 4391,5303 4397,5304 4401,5305 4402,5305
 4404,5306 4408,5307 4411,5309 4416,5312 4420,5315 4421,5317 4422,5317 4423,5319
 4426,5323 4429,5327 4430,5329 4431,5330 4432,5332 4434,5337 4435,5342 4436,5346
 4436,5350 4436,5352"
	stroke="#000000" stroke-width="8px" stroke-linejoin="bevel"/>
<!-- Line -->
<!-- spline -->
<polyline points=" 4718,4852 4718,4853 4717,4857 4716,4863 4715,4867 4715,4868 4714,4870 4713,4873
 4711,4877 4708,4882 4705,4886 4704,4888 4703,4888 4702,4890 4698,4893 4694,4896
 4692,4897 4691,4897 4689,4898 4684,4900 4678,4901 4674,4902 4671,4902 4668,4902
 4667,4902 4663,4901 4657,4901 4653,4900 4652,4900 4650,4899 4647,4898 4643,4896
 4639,4893 4635,4890 4633,4888 4631,4886 4628,4882 4625,4878 4624,4876 4624,4875
 4623,4873 4621,4868 4619,4862 4619,4858 4618,4855 4618,4852 4618,4851 4619,4847
 4620,4842 4621,4838 4621,4837 4622,4835 4623,4832 4625,4828 4628,4823 4631,4819
 4633,4817 4635,4815 4639,4812 4643,4809 4645,4808 4647,4807 4652,4805 4657,4803
 4662,4803 4665,4802 4668,4802 4669,4802 4673,4803 4679,4804 4683,4805 4684,4805
 4686,4806 4690,4807 4693,4809 4698,4812 4702,4815 4703,4817 4704,4817 4705,4819
 4708,4823 4711,4827 4712,4829 4712,4830 4713,4832 4715,4837 4717,4842 4717,4846
 4718,4850 4718,4852"
	stroke="#000000" stroke-width="8px" stroke-linejoin="bevel"/>
<!-- Line -->
<!-- spline -->
<polyline points=" 4999,4551 4999,4552 4998,4556 4997,4562 4996,4566 4996,4567 4995,4569 4994,4572
 4992,4576 4989,4580 4986,4584 4984,4586 4982,4588 4978,4591 4974,4594 4972,4595
 4971,4595 4969,4596 4964,4598 4959,4600 4955,4600 4951,4601 4949,4601 4948,4601
 4944,4600 4938,4599 4934,4598 4933,4598 4931,4597 4928,4596 4924,4594 4919,4591
 4915,4588 4913,4586 4911,4584 4908,4580 4905,4576 4904,4574 4903,4572 4901,4567
 4900,4562 4899,4557 4899,4554 4899,4551 4899,4550 4900,4546 4900,4540 4901,4536
 4901,4535 4902,4533 4903,4529 4905,4526 4908,4521 4911,4517 4913,4516 4913,4515
 4915,4514 4919,4511 4923,4508 4925,4507 4926,4506 4928,4505 4933,4503 4939,4502
 4943,4501 4946,4501 4949,4501 4950,4501 4954,4502 4959,4502 4963,4503 4964,4503
 4966,4504 4969,4506 4973,4508 4978,4511 4982,4514 4984,4515 4984,4516 4986,4517
 4989,4521 4992,4525 4993,4527 4993,4528 4994,4530 4996,4535 4998,4541 4998,4545
 4999,4548 4999,4551"
	stroke="#000000" stroke-width="8px" stroke-linejoin="bevel"/>
<!-- Line -->
<!-- spline -->
<polyline points=" 5281,4498 5281,4499 5280,4503 5279,4509 5278,4513 5278,4514 5277,4516 5276,4520
 5274,4523 5271,4528 5268,4532 5266,4533 5266,4534 5264,4535 5260,4538 5256,4541
 5254,4542 5253,4543 5251,4544 5246,4546 5241,4547 5237,4548 5233,4548 5231,4548
 5230,4548 5226,4547 5220,4547 5216,4546 5215,4546 5213,4545 5210,4543 5206,4541
 5201,4538 5197,4535 5195,4534 5195,4533 5193,4532 5190,4528 5187,4524 5186,4522
 5186,4521 5185,4519 5183,4514 5182,4508 5181,4504 5181,4501 5181,4498 5181,4497
 5182,4493 5182,4487 5183,4483 5183,4482 5184,4480 5185,4477 5187,4473 5190,4469
 5193,4465 5195,4463 5197,4461 5201,4458 5205,4455 5207,4454 5208,4454 5210,4453
 5215,4451 5221,4449 5225,4449 5228,4448 5231,4448 5232,4448 5236,4449 5241,4450
 5245,4451 5246,4451 5248,4452 5251,4453 5255,4455 5260,4458 5264,4461 5266,4463
 5268,4465 5271,4469 5274,4473 5275,4475 5276,4477 5278,4482 5280,4487 5280,4492
 5281,4495 5281,4498"
	stroke="#000000" stroke-width="8px" stroke-linejoin="bevel"/>
<!-- Line -->
<!-- spline -->
<polyline points=" 5561,4700 5561,4701 5560,4705 5560,4710 5559,4714 5559,4715 5558,4717 5556,4720
 5554,4724 5551,4729 5548,4733 5547,4735 5546,4735 5545,4737 5541,4740 5537,4743
 5535,4744 5534,4744 5532,4745 5527,4747 5521,4749 5517,4749 5514,4750 5511,4750
 5510,4750 5506,4749 5500,4748 5496,4747 5495,4747 5493,4746 5490,4745 5486,4743
 5482,4740 5478,4737 5476,4735 5474,4733 5471,4729 5468,4725 5467,4723 5467,4722
 5466,4720 5464,4715 5462,4710 5462,4706 5461,4702 5461,4700 5461,4699 5462,4695
 5463,4689 5464,4685 5464,4684 5465,4682 5466,4679 5468,4675 5471,4670 5474,4666
 5476,4664 5478,4662 5482,4659 5486,4656 5488,4655 5490,4654 5495,4652 5500,4651
 5505,4650 5508,4650 5511,4650 5512,4650 5516,4651 5522,4651 5526,4652 5527,4652
 5529,4653 5533,4654 5536,4656 5541,4659 5545,4662 5546,4664 5547,4664 5548,4666
 5551,4670 5554,4674 5555,4676 5556,4677 5557,4679 5559,4684 5560,4690 5561,4694
 5561,4697 5561,4700"
	stroke="#000000" stroke-width="8px" stroke-linejoin="bevel"/>
<!-- Line -->
<!-- spline -->
<polyline points=" 5843,5125 5843,5126 5842,5130 5841,5135 5840,5139 5840,5140 5839,5142 5838,5145
 5836,5149 5833,5154 5830,5158 5829,5160 5828,5160 5827,5162 5823,5165 5819,5168
 5817,5169 5816,5169 5814,5170 5809,5172 5803,5174 5799,5174 5796,5175 5793,5175
 5792,5175 5788,5174 5782,5173 5778,5172 5777,5172 5775,5171 5772,5170 5768,5168
 5764,5165 5760,5162 5758,5160 5756,5158 5753,5154 5750,5150 5749,5148 5749,5147
 5748,5145 5746,5140 5744,5135 5744,5131 5743,5127 5743,5125 5743,5124 5744,5120
 5745,5114 5746,5110 5746,5109 5747,5107 5748,5104 5750,5100 5753,5095 5756,5091
 5758,5089 5760,5087 5764,5084 5768,5081 5770,5080 5772,5079 5777,5077 5782,5076
 5787,5075 5790,5075 5793,5075 5794,5075 5798,5076 5804,5076 5808,5077 5809,5077
 5811,5078 5815,5079 5818,5081 5823,5084 5827,5087 5828,5089 5829,5089 5830,5091
 5833,5095 5836,5099 5837,5101 5837,5102 5838,5104 5840,5109 5842,5115 5842,5119
 5843,5122 5843,5125"
	stroke="#000000" stroke-width="8px" stroke-linejoin="bevel"/>
<!-- Line -->
<!-- spline -->
<polyline points=" 6124,5708 6124,5709 6123,5713 6122,5719 6121,5723 6121,5724 6120,5726 6119,5729
 6117,5733 6114,5737 6111,5741 6109,5743 6107,5745 6103,5748 6099,5751 6097,5752
 6096,5752 6094,5753 6089,5755 6084,5757 6080,5757 6076,5758 6074,5758 6073,5758
 6069,5757 6063,5756 6059,5755 6058,5755 6056,5754 6053,5753 6049,5751 6044,5748
 6040,5745 6038,5743 6036,5741 6033,5737 6030,5733 6029,5731 6028,5729 6026,5724
 6025,5719 6024,5714 6024,5711 6024,5708 6024,5707 6025,5703 6025,5697 6026,5693
 6026,5692 6027,5690 6028,5687 6030,5683 6033,5678 6036,5674 6038,5672 6040,5670
 6044,5667 6048,5664 6050,5663 6051,5663 6053,5662 6058,5660 6064,5659 6068,5658
 6071,5658 6074,5658 6075,5658 6079,5659 6084,5659 6088,5660 6089,5660 6091,5661
 6094,5662 6098,5664 6103,5667 6107,5670 6109,5672 6111,5674 6114,5678 6117,5682
 6118,5684 6118,5685 6119,5687 6121,5692 6123,5698 6123,5702 6124,5705 6124,5708
"
	stroke="#000000" stroke-width="8px" stroke-linejoin="bevel"/>
<!-- Line -->
<!-- spline -->
<polyline points=" 6406,6354 6406,6355 6405,6359 6404,6364 6403,6368 6403,6369 6402,6371 6401,6374
 6399,6378 6396,6383 6393,6387 6391,6389 6389,6391 6385,6394 6381,6397 6379,6398
 6378,6398 6376,6399 6371,6401 6366,6403 6362,6403 6358,6404 6356,6404 6355,6404
 6351,6403 6345,6402 6341,6401 6340,6401 6338,6400 6335,6399 6331,6397 6326,6394
 6322,6391 6320,6389 6318,6387 6315,6383 6312,6379 6311,6377 6311,6376 6310,6374
 6308,6369 6307,6364 6306,6360 6306,6356 6306,6354 6306,6353 6307,6349 6307,6343
 6308,6339 6308,6338 6309,6336 6310,6333 6312,6329 6315,6324 6318,6320 6320,6318
 6322,6316 6326,6313 6330,6310 6332,6309 6333,6309 6335,6308 6340,6306 6346,6305
 6350,6304 6353,6304 6356,6304 6357,6304 6361,6305 6366,6305 6370,6306 6371,6306
 6373,6307 6376,6308 6380,6310 6385,6313 6389,6316 6391,6318 6393,6320 6396,6324
 6399,6328 6400,6330 6400,6331 6401,6333 6403,6338 6405,6344 6405,6348 6406,6351
 6406,6354"
	stroke="#000000" stroke-width="8px" stroke-linejoin="bevel"/>
<!-- Line -->
<!-- spline -->
<polyline points=" 6687,6963 6687,6964 6686,6968 6686,6974 6685,6978 6685,6979 6684,6981 6683,6984
 6681,6988 6678,6993 6675,6997 6673,6999 6671,7001 6667,7004 6663,7007 6661,7008
 6660,7008 6658,7009 6653,7011 6647,7012 6643,7013 6640,7013 6637,7013 6636,7013
 6632,7012 6627,7012 6623,7011 6622,7011 6620,7010 6617,7009 6613,7007 6608,7004
 6604,7001 6602,6999 6600,6997 6597,6993 6594,6989 6593,6987 6593,6986 6592,6984
 6590,6979 6588,6973 6588,6969 6587,6966 6587,6963 6587,6962 6588,6958 6589,6953
 6590,6949 6590,6948 6591,6946 6592,6943 6594,6939 6597,6934 6600,6930 6602,6928
 6604,6926 6608,6923 6612,6920 6614,6919 6615,6919 6617,6918 6622,6916 6627,6914
 6631,6914 6635,6913 6637,6913 6638,6913 6642,6914 6648,6915 6652,6916 6653,6916
 6655,6917 6658,6918 6662,6920 6667,6923 6671,6926 6673,6928 6675,6930 6678,6934
 6681,6938 6682,6940 6682,6941 6683,6943 6685,6948 6686,6953 6687,6957 6687,6961
 6687,6963"
	stroke="#000000" stroke-width="8px" stroke-linejoin="bevel"/>
<!-- Line -->
<!-- spline -->
<polyline points=" 6968,7440 6968,7441 6967,7445 6966,7451 6965,7455 6965,7456 6964,7458 6963,7461
 6961,7465 6958,7469 6955,7473 6954,7475 6953,7475 6952,7477 6948,7480 6944,7483
 6942,7484 6941,7484 6939,7485 6934,7487 6928,7489 6924,7489 6921,7490 6918,7490
 6917,7490 6913,7489 6907,7488 6903,7487 6902,7487 6900,7486 6897,7485 6893,7483
 6889,7480 6885,7477 6883,7475 6881,7473 6878,7469 6875,7465 6874,7463 6873,7461
 6871,7456 6869,7451 6869,7446 6868,7443 6868,7440 6868,7439 6869,7435 6870,7429
 6871,7425 6871,7424 6872,7422 6873,7419 6875,7415 6878,7410 6881,7406 6883,7404
 6885,7402 6889,7399 6893,7396 6895,7395 6897,7394 6902,7392 6907,7391 6912,7390
 6915,7390 6918,7390 6919,7390 6923,7391 6929,7391 6933,7392 6934,7392 6936,7393
 6940,7394 6943,7396 6948,7399 6952,7402 6953,7404 6954,7404 6955,7406 6958,7410
 6961,7414 6962,7416 6962,7417 6963,7419 6965,7424 6967,7430 6967,7434 6968,7437
 6968,7440"
	stroke="#000000" stroke-width="8px" stroke-linejoin="bevel"/>
<!-- Line -->
<!-- spline -->
<polyline points=" 7250,7706 7250,7707 7249,7711 7248,7717 7247,7721 7247,7722 7246,7724 7245,7727
 7243,7731 7240,7736 7237,7740 7236,7742 7235,7742 7234,7744 7230,7747 7226,7750
 7224,7751 7223,7751 7221,7752 7216,7754 7210,7755 7206,7756 7203,7756 7200,7756
 7199,7756 7195,7755 7189,7755 7185,7754 7184,7754 7182,7753 7178,7752 7175,7750
 7170,7747 7166,7744 7165,7742 7164,7742 7163,7740 7160,7736 7157,7732 7156,7730
 7156,7729 7155,7727 7153,7722 7151,7716 7151,7712 7150,7709 7150,7706 7150,7705
 7151,7701 7152,7696 7153,7692 7153,7691 7154,7689 7155,7686 7157,7682 7160,7677
 7163,7673 7164,7671 7165,7671 7166,7669 7170,7666 7174,7663 7176,7662 7177,7662
 7179,7661 7184,7659 7190,7657 7194,7657 7197,7656 7200,7656 7201,7656 7205,7657
 7211,7658 7215,7659 7216,7659 7218,7660 7222,7661 7225,7663 7230,7666 7234,7669
 7235,7671 7236,7671 7237,7673 7240,7677 7243,7681 7244,7683 7244,7684 7245,7686
 7247,7691 7249,7696 7249,7700 7250,7704 7250,7706"
	stroke="#000000" stroke-width="8px" stroke-linejoin="bevel"/>
<!-- Line -->
<!-- spline -->
<polyline points=" 7531,7723 7531,7724 7530,7728 7529,7734 7528,7738 7528,7739 7527,7741 7526,7745
 7524,7748 7521,7753 7518,7757 7516,7758 7516,7759 7514,7760 7510,7763 7506,7766
 7504,7767 7503,7768 7501,7769 7496,7771 7491,7772 7487,7773 7483,7773 7481,7773
 7480,7773 7476,7772 7470,7772 7466,7771 7465,7771 7463,7770 7460,7768 7456,7766
 7451,7763 7447,7760 7445,7759 7445,7758 7443,7757 7440,7753 7437,7749 7436,7747
 7436,7746 7435,7744 7433,7739 7432,7733 7431,7729 7431,7726 7431,7723 7431,7722
 7432,7718 7432,7712 7433,7708 7433,7707 7434,7705 7435,7702 7437,7698 7440,7694
 7443,7690 7445,7688 7447,7686 7451,7683 7455,7680 7457,7679 7458,7679 7460,7678
 7465,7676 7471,7674 7475,7674 7478,7673 7481,7673 7482,7673 7486,7674 7491,7675
 7495,7676 7496,7676 7498,7677 7501,7678 7505,7680 7510,7683 7514,7686 7516,7688
 7518,7690 7521,7694 7524,7698 7525,7700 7526,7702 7528,7707 7530,7712 7530,7717
 7531,7720 7531,7723"
	stroke="#000000" stroke-width="8px" stroke-linejoin="bevel"/>
<!-- Line -->
<!-- spline -->
<polyline points=" 7812,7486 7812,7487 7811,7491 7811,7496 7810,7500 7810,7501 7809,7503 7808,7506
 7806,7510 7803,7515 7800,7519 7798,7521 7796,7523 7792,7526 7788,7529 7786,7530
 7785,7530 7783,7531 7778,7533 7772,7535 7768,7535 7765,7536 7762,7536 7761,7536
 7757,7535 7752,7534 7748,7533 7747,7533 7745,7532 7742,7531 7738,7529 7733,7526
 7729,7523 7727,7521 7725,7519 7722,7515 7719,7511 7718,7509 7718,7508 7717,7506
 7715,7501 7713,7496 7713,7492 7712,7488 7712,7486 7712,7485 7713,7481 7714,7475
 7715,7471 7715,7470 7716,7468 7717,7465 7719,7461 7722,7456 7725,7452 7727,7450
 7729,7448 7733,7445 7737,7442 7739,7441 7740,7441 7742,7440 7747,7438 7752,7437
 7756,7436 7760,7436 7762,7436 7763,7436 7767,7437 7773,7437 7777,7438 7778,7438
 7780,7439 7783,7440 7787,7442 7792,7445 7796,7448 7798,7450 7800,7452 7803,7456
 7806,7460 7807,7462 7807,7463 7808,7465 7810,7470 7811,7476 7812,7480 7812,7483
 7812,7486"
	stroke="#000000" stroke-width="8px" stroke-linejoin="bevel"/>
<!-- Line -->
<!-- spline -->
<polyline points=" 8093,7031 8093,7032 8092,7036 8091,7042 8090,7046 8090,7047 8089,7049 8088,7052
 8086,7056 8083,7061 8080,7065 8079,7067 8078,7067 8077,7069 8073,7072 8069,7075
 8067,7076 8066,7076 8064,7077 8059,7079 8053,7080 8049,7081 8046,7081 8043,7081
 8042,7081 8038,7080 8032,7080 8028,7079 8027,7079 8025,7078 8022,7077 8018,7075
 8014,7072 8010,7069 8008,7067 8006,7065 8003,7061 8000,7057 7999,7055 7999,7054
 7998,7052 7996,7047 7994,7041 7994,7037 7993,7034 7993,7031 7993,7030 7994,7026
 7995,7021 7996,7017 7996,7016 7997,7014 7998,7011 8000,7007 8003,7002 8006,6998
 8008,6996 8010,6994 8014,6991 8018,6988 8020,6987 8022,6986 8027,6984 8032,6982
 8037,6982 8040,6981 8043,6981 8044,6981 8048,6982 8054,6983 8058,6984 8059,6984
 8061,6985 8065,6986 8068,6988 8073,6991 8077,6994 8078,6996 8079,6996 8080,6998
 8083,7002 8086,7006 8087,7008 8087,7009 8088,7011 8090,7016 8092,7021 8092,7025
 8093,7029 8093,7031"
	stroke="#000000" stroke-width="8px" stroke-linejoin="bevel"/>
<!-- Line -->
<!-- spline -->
<polyline points=" 8375,6434 8375,6435 8374,6439 8373,6445 8372,6449 8372,6450 8371,6452 8370,6455
 8368,6459 8365,6464 8362,6468 8361,6470 8360,6470 8359,6472 8355,6475 8351,6478
 8349,6479 8348,6479 8346,6480 8341,6482 8335,6483 8331,6484 8328,6484 8325,6484
 8324,6484 8320,6483 8314,6483 8310,6482 8309,6482 8307,6481 8303,6480 8300,6478
 8295,6475 8291,6472 8290,6470 8289,6470 8288,6468 8285,6464 8282,6460 8281,6458
 8281,6457 8280,6455 8278,6450 8276,6444 8276,6440 8275,6437 8275,6434 8275,6433
 8276,6429 8277,6423 8278,6419 8278,6418 8279,6416 8280,6413 8282,6409 8285,6405
 8288,6401 8289,6399 8290,6399 8291,6397 8295,6394 8299,6391 8301,6390 8302,6390
 8304,6389 8309,6387 8315,6385 8319,6385 8322,6384 8325,6384 8326,6384 8330,6385
 8336,6386 8340,6387 8341,6387 8343,6388 8347,6389 8350,6391 8355,6394 8359,6397
 8360,6399 8361,6399 8362,6401 8365,6405 8368,6409 8369,6411 8370,6413 8372,6418
 8374,6423 8374,6428 8375,6431 8375,6434"
	stroke="#000000" stroke-width="8px" stroke-linejoin="bevel"/>
<!-- Line -->
<!-- spline -->
<polyline points=" 8657,5786 8657,5787 8656,5791 8655,5796 8654,5800 8654,5801 8653,5803 8652,5806
 8650,5810 8647,5815 8644,5819 8642,5821 8640,5823 8636,5826 8632,5829 8630,5830
 8628,5831 8623,5833 8618,5835 8613,5835 8610,5836 8607,5836 8606,5836 8602,5835
 8596,5834 8592,5833 8591,5833 8589,5832 8585,5831 8582,5829 8577,5826 8573,5823
 8572,5821 8571,5821 8570,5819 8567,5815 8564,5811 8563,5809 8563,5808 8562,5806
 8560,5801 8558,5796 8558,5792 8557,5788 8557,5786 8557,5785 8558,5781 8559,5775
 8560,5771 8560,5770 8561,5768 8562,5765 8564,5761 8567,5756 8570,5752 8571,5750
 8572,5750 8573,5748 8577,5745 8581,5742 8583,5741 8584,5741 8586,5740 8591,5738
 8597,5737 8601,5736 8604,5736 8607,5736 8608,5736 8612,5737 8618,5737 8622,5738
 8623,5738 8625,5739 8628,5740 8632,5742 8636,5745 8640,5748 8642,5750 8644,5752
 8647,5756 8650,5760 8651,5762 8651,5763 8652,5765 8654,5770 8656,5776 8656,5780
 8657,5783 8657,5786"
	stroke="#000000" stroke-width="8px" stroke-linejoin="bevel"/>
<!-- Line -->
<!-- spline -->
<polyline points=" 8937,5190 8937,5191 8936,5195 8936,5201 8935,5205 8935,5206 8934,5208 8933,5211
 8931,5215 8928,5219 8925,5223 8923,5225 8921,5227 8917,5230 8913,5233 8911,5234
 8910,5234 8908,5235 8903,5237 8897,5239 8893,5239 8890,5240 8887,5240 8886,5240
 8882,5239 8877,5238 8873,5237 8872,5237 8870,5236 8867,5235 8863,5233 8858,5230
 8854,5227 8852,5225 8850,5223 8847,5219 8844,5215 8843,5213 8842,5211 8840,5206
 8838,5201 8838,5196 8837,5193 8837,5190 8837,5189 8838,5185 8839,5179 8840,5175
 8840,5174 8841,5172 8842,5169 8844,5165 8847,5160 8850,5156 8852,5154 8854,5152
 8858,5149 8862,5146 8864,5145 8865,5145 8867,5144 8872,5142 8877,5141 8881,5140
 8885,5140 8887,5140 8888,5140 8892,5141 8898,5141 8902,5142 8903,5142 8905,5143
 8908,5144 8912,5146 8917,5149 8921,5152 8923,5154 8925,5156 8928,5160 8931,5164
 8932,5166 8932,5167 8933,5169 8935,5174 8936,5180 8937,5184 8937,5187 8937,5190
"
	stroke="#000000" stroke-width="8px" stroke-linejoin="bevel"/>
<!-- Line -->
<!-- spline -->
<polyline points=" 9219,4741 9219,4742 9218,4746 9218,4752 9217,4756 9217,4757 9216,4759 9215,4762
 9213,4766 9210,4771 9207,4775 9205,4777 9203,4779 9199,4782 9195,4785 9193,4786
 9192,4786 9190,4787 9185,4789 9179,4790 9175,4791 9172,4791 9169,4791 9168,4791
 9164,4790 9159,4790 9155,4789 9154,4789 9152,4788 9149,4787 9145,4785 9140,4782
 9136,4779 9134,4777 9132,4775 9129,4771 9126,4767 9125,4765 9125,4764 9124,4762
 9122,4757 9120,4751 9120,4747 9119,4744 9119,4741 9119,4740 9120,4736 9121,4730
 9122,4726 9122,4725 9123,4723 9124,4720 9126,4716 9129,4712 9132,4708 9134,4706
 9136,4704 9140,4701 9144,4698 9146,4697 9147,4697 9149,4696 9154,4694 9159,4692
 9163,4692 9167,4691 9169,4691 9170,4691 9174,4692 9180,4693 9184,4694 9185,4694
 9187,4695 9190,4696 9194,4698 9199,4701 9203,4704 9205,4706 9207,4708 9210,4712
 9213,4716 9214,4718 9215,4720 9217,4725 9218,4730 9219,4735 9219,4738 9219,4741
"
	stroke="#000000" stroke-width="8px" stroke-linejoin="bevel"/>
<!-- Line -->
<!-- spline -->
<polyline points=" 9500,4509 9500,4510 9499,4514 9498,4520 9497,4524 9497,4525 9496,4527 9495,4530
 9493,4534 9490,4539 9487,4543 9486,4545 9485,4545 9484,4547 9480,4550 9476,4553
 9474,4554 9473,4554 9471,4555 9466,4557 9460,4558 9456,4559 9453,4559 9450,4559
 9449,4559 9445,4558 9439,4558 9435,4557 9434,4557 9432,4556 9428,4555 9425,4553
 9420,4550 9416,4547 9415,4545 9414,4545 9413,4543 9410,4539 9407,4535 9406,4533
 9406,4532 9405,4530 9403,4525 9401,4519 9401,4515 9400,4512 9400,4509 9400,4508
 9401,4504 9402,4498 9403,4494 9403,4493 9404,4491 9405,4488 9407,4484 9410,4480
 9413,4476 9414,4474 9415,4474 9416,4472 9420,4469 9424,4466 9426,4465 9427,4465
 9429,4464 9434,4462 9440,4460 9444,4460 9447,4459 9450,4459 9451,4459 9455,4460
 9461,4461 9465,4462 9466,4462 9468,4463 9472,4464 9475,4466 9480,4469 9484,4472
 9485,4474 9486,4474 9487,4476 9490,4480 9493,4484 9494,4486 9495,4488 9497,4493
 9499,4498 9499,4503 9500,4506 9500,4509"
	stroke="#000000" stroke-width="8px" stroke-linejoin="bevel"/>
<!-- Line -->
<!-- spline -->
<polyline points=" 9782,4530 9782,4531 9781,4535 9780,4541 9779,4545 9779,4546 9778,4548 9777,4552
 9775,4555 9772,4560 9769,4564 9767,4565 9767,4566 9765,4567 9761,4570 9757,4573
 9755,4574 9753,4575 9748,4577 9743,4579 9738,4579 9735,4580 9732,4580 9731,4580
 9727,4579 9721,4578 9717,4577 9716,4577 9714,4576 9710,4575 9707,4573 9702,4570
 9698,4567 9697,4566 9696,4565 9695,4564 9692,4560 9689,4556 9688,4554 9688,4553
 9687,4551 9685,4546 9683,4540 9683,4536 9682,4533 9682,4530 9682,4529 9683,4525
 9684,4519 9685,4515 9685,4514 9686,4512 9687,4509 9689,4505 9692,4501 9695,4497
 9696,4495 9697,4495 9698,4493 9702,4490 9706,4487 9708,4486 9709,4486 9711,4485
 9716,4483 9722,4481 9726,4481 9729,4480 9732,4480 9733,4480 9737,4481 9743,4482
 9747,4483 9748,4483 9750,4484 9753,4485 9757,4487 9761,4490 9765,4493 9767,4495
 9769,4497 9772,4501 9775,4505 9776,4507 9777,4509 9779,4514 9781,4519 9781,4524
 9782,4527 9782,4530"
	stroke="#000000" stroke-width="8px" stroke-linejoin="bevel"/>
<!-- Line -->
<!-- spline -->
<polyline points=" 10062,4802 10062,4803 10061,4807 10061,4813 10060,4817 10060,4818 10059,4820
 10058,4823 10056,4827 10053,4832 10050,4836 10048,4838 10046,4840 10042,4843
 10038,4846 10036,4847 10035,4847 10033,4848 10028,4850 10022,4851 10018,4852
 10015,4852 10012,4852 10011,4852 10007,4851 10002,4851 9998,4850 9997,4850 9995,4849
 9992,4848 9988,4846 9983,4843 9979,4840 9977,4838 9975,4836 9972,4832 9969,4828
 9968,4826 9968,4825 9967,4823 9965,4818 9963,4812 9963,4808 9962,4805 9962,4802
 9962,4801 9963,4797 9964,4792 9965,4788 9965,4787 9966,4785 9967,4782 9969,4778
 9972,4773 9975,4769 9977,4767 9979,4765 9983,4762 9987,4759 9989,4758 9990,4758
 9992,4757 9997,4755 10002,4753 10006,4753 10010,4752 10012,4752 10013,4752 10017,4753
 10023,4754 10027,4755 10028,4755 10030,4756 10033,4757 10037,4759 10042,4762
 10046,4765 10048,4767 10050,4769 10053,4773 10056,4777 10057,4779 10057,4780
 10058,4782 10060,4787 10061,4792 10062,4796 10062,4800 10062,4802"
	stroke="#000000" stroke-width="8px" stroke-linejoin="bevel"/>
<!-- Line -->
<!-- spline -->
<polyline points=" 10344,5283 10344,5284 10343,5288 10343,5294 10342,5298 10342,5299 10341,5301
 10340,5304 10338,5308 10335,5312 10332,5316 10330,5318 10328,5320 10324,5323
 10320,5326 10318,5327 10317,5327 10315,5328 10310,5330 10304,5332 10300,5332
 10297,5333 10294,5333 10293,5333 10289,5332 10284,5331 10280,5330 10279,5330
 10277,5329 10274,5328 10270,5326 10265,5323 10261,5320 10259,5318 10257,5316
 10254,5312 10251,5308 10250,5306 10249,5304 10247,5299 10245,5294 10245,5289
 10244,5286 10244,5283 10244,5282 10245,5278 10246,5272 10247,5268 10247,5267
 10248,5265 10249,5262 10251,5258 10254,5253 10257,5249 10259,5247 10261,5245
 10265,5242 10269,5239 10271,5238 10272,5238 10274,5237 10279,5235 10284,5234
 10288,5233 10292,5233 10294,5233 10295,5233 10299,5234 10305,5234 10309,5235
 10310,5235 10312,5236 10315,5237 10319,5239 10324,5242 10328,5245 10330,5247
 10332,5249 10335,5253 10338,5257 10339,5259 10339,5260 10340,5262 10342,5267
 10343,5273 10344,5277 10344,5280 10344,5283"
	stroke="#000000" stroke-width="8px" stroke-linejoin="bevel"/>
<!-- Line -->
<!-- spline -->
<polyline points=" 10626,5894 10626,5895 10625,5899 10625,5905 10624,5909 10624,5910 10623,5912
 10622,5915 10620,5919 10617,5923 10614,5927 10612,5929 10610,5931 10606,5934
 10602,5937 10600,5938 10599,5938 10597,5939 10592,5941 10586,5943 10582,5943
 10579,5944 10576,5944 10575,5944 10571,5943 10566,5942 10562,5941 10561,5941
 10559,5940 10556,5939 10552,5937 10547,5934 10543,5931 10541,5929 10539,5927
 10536,5923 10533,5919 10532,5917 10531,5915 10529,5910 10527,5905 10527,5900
 10526,5897 10526,5894 10526,5893 10527,5889 10528,5883 10529,5879 10529,5878
 10530,5876 10531,5872 10533,5869 10536,5864 10539,5860 10541,5859 10541,5858
 10543,5857 10547,5854 10551,5851 10553,5850 10554,5850 10556,5849 10561,5847
 10566,5845 10570,5845 10574,5844 10576,5844 10577,5844 10581,5845 10587,5846
 10591,5847 10592,5847 10594,5848 10597,5849 10601,5851 10606,5854 10610,5857
 10612,5858 10612,5859 10614,5860 10617,5864 10620,5868 10621,5870 10621,5871
 10622,5873 10624,5878 10625,5884 10626,5888 10626,5891 10626,5894"
	stroke="#000000" stroke-width="8px" stroke-linejoin="bevel"/>
<!-- Line -->
<!-- spline -->
<polyline points=" 10907,6541 10907,6542 10906,6546 10905,6552 10904,6556 10904,6557 10903,6559
 10902,6562 10900,6566 10897,6571 10894,6575 10892,6577 10890,6579 10886,6582
 10882,6585 10880,6586 10878,6587 10873,6589 10868,6590 10863,6591 10860,6591
 10857,6591 10856,6591 10852,6590 10846,6590 10842,6589 10841,6589 10839,6588
 10835,6587 10832,6585 10827,6582 10823,6579 10822,6577 10821,6577 10820,6575
 10817,6571 10814,6567 10813,6565 10813,6564 10812,6562 10810,6557 10808,6551
 10808,6547 10807,6544 10807,6541 10807,6540 10808,6536 10809,6530 10810,6526
 10810,6525 10811,6523 10812,6520 10814,6516 10817,6512 10820,6508 10821,6506
 10822,6506 10823,6504 10827,6501 10831,6498 10833,6497 10834,6497 10836,6496
 10841,6494 10847,6492 10851,6492 10854,6491 10857,6491 10858,6491 10862,6492
 10868,6493 10872,6494 10873,6494 10875,6495 10878,6496 10882,6498 10886,6501
 10890,6504 10892,6506 10894,6508 10897,6512 10900,6516 10901,6518 10902,6520
 10904,6525 10906,6530 10906,6535 10907,6538 10907,6541"
	stroke="#000000" stroke-width="8px" stroke-linejoin="bevel"/>
<!-- Line -->
<!-- spline -->
<polyline points=" 11189,7120 11189,7121 11188,7125 11187,7131 11186,7135 11186,7136 11185,7138
 11184,7141 11182,7145 11179,7150 11176,7154 11174,7156 11172,7158 11168,7161
 11164,7164 11162,7165 11160,7166 11155,7168 11150,7169 11145,7170 11142,7170
 11139,7170 11138,7170 11134,7169 11128,7169 11124,7168 11123,7168 11121,7167
 11117,7166 11114,7164 11109,7161 11105,7158 11104,7156 11103,7156 11102,7154
 11099,7150 11096,7146 11095,7144 11094,7143 11093,7141 11091,7136 11090,7130
 11089,7126 11089,7123 11089,7120 11089,7119 11090,7115 11090,7110 11091,7106
 11091,7105 11092,7103 11094,7100 11096,7096 11099,7091 11102,7087 11103,7085
 11104,7085 11105,7083 11109,7080 11113,7077 11115,7076 11116,7076 11118,7075
 11123,7073 11129,7071 11133,7071 11136,7070 11139,7070 11140,7070 11144,7071
 11150,7072 11154,7073 11155,7073 11157,7074 11160,7075 11164,7077 11168,7080
 11172,7083 11174,7085 11176,7087 11179,7091 11182,7095 11183,7097 11183,7098
 11184,7100 11186,7105 11188,7110 11188,7114 11189,7118 11189,7120"
	stroke="#000000" stroke-width="8px" stroke-linejoin="bevel"/>
<!-- Line -->
<!-- spline -->
<polyline points=" 11469,7541 11469,7542 11468,7546 11468,7552 11467,7556 11467,7557 11466,7559
 11465,7562 11463,7566 11460,7571 11457,7575 11455,7577 11453,7579 11449,7582
 11445,7585 11443,7586 11442,7586 11440,7587 11435,7589 11429,7590 11425,7591
 11422,7591 11419,7591 11418,7591 11414,7590 11409,7590 11405,7589 11404,7589
 11402,7588 11399,7587 11395,7585 11390,7582 11386,7579 11384,7577 11382,7575
 11379,7571 11376,7567 11375,7565 11375,7564 11374,7562 11372,7557 11370,7551
 11370,7547 11369,7544 11369,7541 11369,7540 11370,7536 11371,7530 11372,7526
 11372,7525 11373,7523 11374,7520 11376,7516 11379,7512 11382,7508 11384,7506
 11386,7504 11390,7501 11394,7498 11396,7497 11397,7497 11399,7496 11404,7494
 11409,7492 11413,7492 11417,7491 11419,7491 11420,7491 11424,7492 11430,7493
 11434,7494 11435,7494 11437,7495 11440,7496 11444,7498 11449,7501 11453,7504
 11455,7506 11457,7508 11460,7512 11463,7516 11464,7518 11465,7520 11467,7525
 11468,7530 11469,7535 11469,7538 11469,7541"
	stroke="#000000" stroke-width="8px" stroke-linejoin="bevel"/>
<!-- Line -->
<!-- spline -->
<polyline points=" 11751,7738 11751,7739 11750,7743 11750,7749 11749,7753 11749,7754 11748,7756
 11747,7759 11745,7763 11742,7768 11739,7772 11737,7774 11735,7776 11731,7779
 11727,7782 11725,7783 11724,7783 11722,7784 11717,7786 11711,7787 11707,7788
 11704,7788 11701,7788 11700,7788 11696,7787 11691,7787 11687,7786 11686,7786
 11684,7785 11681,7784 11677,7782 11672,7779 11668,7776 11666,7774 11664,7772
 11661,7768 11658,7764 11657,7762 11657,7761 11656,7759 11654,7754 11652,7748
 11652,7744 11651,7741 11651,7738 11651,7737 11652,7733 11653,7728 11654,7724
 11654,7723 11655,7721 11656,7718 11658,7714 11661,7709 11664,7705 11666,7703
 11668,7701 11672,7698 11676,7695 11678,7694 11679,7694 11681,7693 11686,7691
 11691,7689 11695,7689 11699,7688 11701,7688 11702,7688 11706,7689 11712,7690
 11716,7691 11717,7691 11719,7692 11722,7693 11726,7695 11731,7698 11735,7701
 11737,7703 11739,7705 11742,7709 11745,7713 11746,7715 11746,7716 11747,7718
 11749,7723 11750,7728 11751,7732 11751,7736 11751,7738"
	stroke="#000000" stroke-width="8px" stroke-linejoin="bevel"/>
<!-- Line -->
<!-- spline -->
<polyline points=" 12033,7679 12033,7680 12032,7684 12032,7689 12031,7693 12031,7694 12030,7696
 12029,7699 12027,7703 12024,7708 12021,7712 12019,7714 12017,7716 12013,7719
 12009,7722 12007,7723 12006,7723 12004,7724 11999,7726 11993,7728 11989,7728
 11986,7729 11983,7729 11982,7729 11978,7728 11973,7727 11969,7726 11968,7726
 11966,7725 11963,7724 11959,7722 11954,7719 11950,7716 11948,7714 11946,7712
 11943,7708 11940,7704 11939,7702 11939,7701 11938,7699 11936,7694 11934,7689
 11934,7685 11933,7681 11933,7679 11933,7678 11934,7674 11935,7668 11936,7664
 11936,7663 11937,7661 11938,7658 11940,7654 11943,7649 11946,7645 11948,7643
 11950,7641 11954,7638 11958,7635 11960,7634 11961,7634 11963,7633 11968,7631
 11973,7630 11977,7629 11981,7629 11983,7629 11984,7629 11988,7630 11994,7630
 11998,7631 11999,7631 12001,7632 12004,7633 12008,7635 12013,7638 12017,7641
 12019,7643 12021,7645 12024,7649 12027,7653 12028,7655 12028,7656 12029,7658
 12031,7663 12032,7669 12033,7673 12033,7676 12033,7679"
	stroke="#000000" stroke-width="8px" stroke-linejoin="bevel"/>
<!-- Line -->
<!-- polyline -->
<polyline points=" 730,6118 730,4487"
	stroke="#000000" stroke-width="15px" stroke-linejoin="round"/>
<!-- Line -->
<!-- polyline -->
<polyline points=" 1011,6118 1011,4615"
	stroke="#000000" stroke-width="15px" stroke-linejoin="round"/>
<!-- Line -->
<!-- polyline -->
<polyline points=" 1292,6118 1292,4981"
	stroke="#000000" stroke-width="15px" stroke-linejoin="round"/>
<!-- Line -->
<!-- polyline -->
<polyline points=" 1572,6118 1572,5526"
	stroke="#000000" stroke-width="15px" stroke-linejoin="round"/>
<!-- Line -->
<!-- polyline -->
<polyline points=" 1854,6118 1854,6165"
	stroke="#000000" stroke-width="8px" stroke-linejoin="round"/>
<!-- Line -->
<!-- polyline -->
<polyline points=" 2135,6118 2135,6795"
	stroke="#000000" stroke-width="15px" stroke-linejoin="round"/>
<!-- Line -->
<!-- polyline -->
<polyline points=" 2417,6118 2417,7319"
	stroke="#000000" stroke-width="15px" stroke-linejoin="round"/>
<!-- Line -->
<!-- polyline -->
<polyline points=" 2699,6118 2699,7654"
	stroke="#000000" stroke-width="15px" stroke-linejoin="round"/>
<!-- Line -->
<!-- polyline -->
<polyline points=" 2979,6118 2979,7744"
	stroke="#000000" stroke-width="15px" stroke-linejoin="round"/>
<!-- Line -->
<!-- polyline -->
<polyline points=" 3261,6118 3261,7579"
	stroke="#000000" stroke-width="15px" stroke-linejoin="round"/>
<!-- Line -->
<!-- polyline -->
<polyline points=" 3542,6118 3542,7183"
	stroke="#000000" stroke-width="15px" stroke-linejoin="round"/>
<!-- Line -->
<!-- polyline -->
<polyline points=" 3824,6118 3824,6618"
	stroke="#000000" stroke-width="15px" stroke-linejoin="round"/>
<!-- Line -->
<!-- polyline -->
<polyline points=" 4104,6118 4104,5975"
	stroke="#000000" stroke-width="15px" stroke-linejoin="round"/>
<!-- Line -->
<!-- polyline -->
<polyline points=" 4386,6118 4386,5352"
	stroke="#000000" stroke-width="15px" stroke-linejoin="round"/>
<!-- Line -->
<!-- polyline -->
<polyline points=" 4668,6118 4668,4852"
	stroke="#000000" stroke-width="15px" stroke-linejoin="round"/>
<!-- Line -->
<!-- polyline -->
<polyline points=" 4949,6118 4949,4551"
	stroke="#000000" stroke-width="15px" stroke-linejoin="round"/>
<!-- Line -->
<!-- polyline -->
<polyline points=" 5231,6118 5231,4498"
	stroke="#000000" stroke-width="15px" stroke-linejoin="round"/>
<!-- Line -->
<!-- polyline -->
<polyline points=" 5511,6118 5511,4700"
	stroke="#000000" stroke-width="15px" stroke-linejoin="round"/>
<!-- Line -->
<!-- polyline -->
<polyline points=" 5793,6118 5793,5125"
	stroke="#000000" stroke-width="15px" stroke-linejoin="round"/>
<!-- Line -->
<!-- polyline -->
<polyline points=" 6074,6118 6074,5708"
	stroke="#000000" stroke-width="15px" stroke-linejoin="round"/>
<!-- Line -->
<!-- polyline -->
<polyline points=" 6356,6118 6356,6354"
	stroke="#000000" stroke-width="15px" stroke-linejoin="round"/>
<!-- Line -->
<!-- polyline -->
<polyline points=" 6637,6118 6637,6963"
	stroke="#000000" stroke-width="15px" stroke-linejoin="round"/>
<!-- Line -->
<!-- polyline -->
<polyline points=" 6918,6118 6918,7440"
	stroke="#000000" stroke-width="15px" stroke-linejoin="round"/>
<!-- Line -->
<!-- polyline -->
<polyline points=" 7200,6118 7200,7706"
	stroke="#000000" stroke-width="15px" stroke-linejoin="round"/>
<!-- Line -->
<!-- polyline -->
<polyline points=" 7481,6118 7481,7723"
	stroke="#000000" stroke-width="15px" stroke-linejoin="round"/>
<!-- Line -->
<!-- polyline -->
<polyline points=" 7762,6118 7762,7486"
	stroke="#000000" stroke-width="15px" stroke-linejoin="round"/>
<!-- Line -->
<!-- polyline -->
<polyline points=" 8043,6118 8043,7031"
	stroke="#000000" stroke-width="15px" stroke-linejoin="round"/>
<!-- Line -->
<!-- polyline -->
<polyline points=" 8325,6118 8325,6434"
	stroke="#000000" stroke-width="15px" stroke-linejoin="round"/>
<!-- Line -->
<!-- polyline -->
<polyline points=" 8607,6118 8607,5786"
	stroke="#000000" stroke-width="15px" stroke-linejoin="round"/>
<!-- Line -->
<!-- polyline -->
<polyline points=" 8887,6118 8887,5190"
	stroke="#000000" stroke-width="15px" stroke-linejoin="round"/>
<!-- Line -->
<!-- polyline -->
<polyline points=" 9169,6118 9169,4741"
	stroke="#000000" stroke-width="15px" stroke-linejoin="round"/>
<!-- Line -->
<!-- polyline -->
<polyline points=" 9450,6118 9450,4509"
	stroke="#000000" stroke-width="15px" stroke-linejoin="round"/>
<!-- Line -->
<!-- polyline -->
<polyline points=" 9732,6118 9732,4530"
	stroke="#000000" stroke-width="15px" stroke-linejoin="round"/>
<!-- Line -->
<!-- polyline -->
<polyline points=" 10012,6118 10012,4802"
	stroke="#000000" stroke-width="15px" stroke-linejoin="round"/>
<!-- Line -->
<!-- polyline -->
<polyline points=" 10294,6118 10294,5283"
	stroke="#000000" stroke-width="15px" stroke-linejoin="round"/>
<!-- Line -->
<!-- polyline -->
<polyline points=" 10576,6118 10576,5894"
	stroke="#000000" stroke-width="15px" stroke-linejoin="round"/>
<!-- Line -->
<!-- polyline -->
<polyline points=" 10857,6118 10857,6541"
	stroke="#000000" stroke-width="15px" stroke-linejoin="round"/>
<!-- Line -->
<!-- polyline -->
<polyline points=" 11139,6118 11139,7120"
	stroke="#000000" stroke-width="15px" stroke-linejoin="round"/>
<!-- Line -->
<!-- polyline -->
<defs>
<clipPath id="cp1">
	<path clip-rule="evenodd" d="M 513,3594 H 12634 V 8112 H 513 z
		M 12452,6087 12482,6117 12452,6147 12629,6124 12629,6110z"/>
</clipPath>
</defs>
<polyline points=" 525,6117 12622,6117" clip-path="url(#cp1)"
	stroke="#000000" stroke-width="8px" stroke-linejoin="round"/>
<!-- Forward arrow to point 12622,6117 -->
<polygon points=" 12452,6147 12602,6117 12452,6087 12482,6117 12452,6147"
	stroke="#000000" stroke-width="8px" stroke-miterlimit="8" fill="#000000"/>
<!-- Line -->
<!-- polyline -->
<polyline points=" 11419,6118 11419,7541"
	stroke="#000000" stroke-width="15px" stroke-linejoin="round"/>
<!-- Line -->
<!-- polyline -->
<polyline points=" 11701,6118 11701,7738"
	stroke="#000000" stroke-width="15px" stroke-linejoin="round"/>
<!-- Line -->
<!-- polyline -->
<polyline points=" 11983,6118 11983,7679"
	stroke="#000000" stroke-width="15px" stroke-linejoin="round"/>
<!-- Line -->
<!-- polyline -->
<polyline points=" 3571,7133 3599,7080 3626,7027 3654,6973 3683,6916 3711,6859 3739,6800 3767,6740
 3796,6680 3824,6618 3851,6555 3879,6493 3908,6429 3936,6365 3964,6300 3992,6234
 4021,6170 4049,6105 4076,6040 4104,5975 4133,5909 4161,5845 4189,5781 4217,5718
 4246,5654 4274,5593 4301,5531 4329,5470 4358,5411 4386,5352 4414,5295 4442,5240
 4471,5186 4499,5133 4526,5081 4556,5033 4583,4984 4611,4938 4639,4894 4668,4852
 4696,4812 4724,4775 4751,4738 4781,4705 4808,4673 4836,4644 4864,4618 4893,4593
 4921,4570 4949,4551 4976,4534 5006,4520 5033,4508 5061,4498 5089,4493 5118,4488
 5146,4487 5174,4487 5201,4491 5231,4498 5258,4506 5286,4518 5314,4531 5343,4548
 5371,4568 5399,4588 5428,4613 5456,4640 5483,4668 5511,4700 5540,4733 5568,4768
 5596,4806 5624,4845 5653,4887 5681,4931 5708,4977 5736,5025 5765,5075 5793,5125
 5821,5177 5849,5231 5878,5287 5906,5344 5933,5402 5961,5461 5990,5522 6018,5583
 6046,5644 6074,5708 6103,5770 6131,5834 6158,5900 6186,5963 6215,6029 6243,6094
 6271,6159 6299,6225 6328,6290 6356,6354 6383,6419 6412,6483 6440,6545 6468,6608
 6496,6670 6525,6731 6553,6791 6581,6850 6608,6908 6637,6963 6665,7019 6693,7072
 6721,7125 6750,7175 6778,7223 6806,7270 6833,7316 6862,7359 6890,7401 6918,7440
 6946,7476 6975,7512 7003,7544 7031,7575 7058,7602 7087,7629 7115,7651 7143,7672
 7171,7691 7200,7706 7228,7720 7256,7730 7283,7738 7312,7744 7340,7747 7368,7747
 7397,7745 7425,7740 7453,7733 7481,7723 7510,7709 7537,7694 7565,7677 7593,7656
 7622,7634 7650,7609 7678,7581 7706,7551 7735,7519 7762,7486 7790,7448 7818,7409
 7847,7369 7875,7326 7903,7281 7931,7236 7960,7187 7987,7137 8015,7084 8043,7031
 8072,6977 8100,6920 8128,6863 8156,6805 8185,6745 8212,6684 8240,6623 8269,6561
 8297,6498 8325,6434 8353,6369 8382,6305 8410,6240 8437,6175 8465,6109 8494,6044
 8522,5980 8550,5915 8578,5850 8607,5786 8635,5722 8662,5659 8690,5597 8719,5536
 8747,5476 8775,5416 8803,5358 8832,5301 8860,5244 8887,5190 8915,5137 8944,5086
 8972,5036 9000,4988 9028,4943 9057,4898 9085,4855 9112,4815 9140,4777 9169,4741
 9197,4706 9225,4676 9254,4647 9282,4619 9310,4594 9337,4572 9367,4552 9394,4536
 9422,4520 9450,4509 9479,4500 9507,4493 9535,4488 9562,4487 9592,4487 9619,4491
 9647,4497 9675,4505 9704,4516 9732,4530 9760,4547 9787,4566 9817,4587 9844,4611
 9872,4637 9900,4666 9929,4697 9957,4730 9985,4765 10012,4802 10042,4843 10069,4884
 10097,4927 10126,4973 10154,5020 10182,5070 10210,5120 10239,5173 10267,5227
 10294,5283 10322,5340 10351,5397 10379,5456 10407,5516 10435,5577 10464,5640
 10492,5702 10519,5766 10547,5830 10576,5894 10604,5959 10632,6023 10660,6088
 10689,6154 10717,6219 10744,6284 10772,6350 10801,6413 10829,6477 10857,6541
 10885,6604 10914,6665 10942,6726 10969,6786 10997,6845 11026,6902 11054,6959
 11082,7015 11111,7068 11139,7120 11167,7170 11194,7220 11224,7268 11251,7312
 11279,7355 11307,7397 11336,7437 11364,7473 11392,7509 11419,7541 11449,7572
 11476,7601 11504,7626 11532,7650 11561,7670 11589,7690 11617,7705 11644,7719
 11674,7730 11701,7738 11729,7744 11757,7747 11786,7747 11814,7745 11842,7741
 11869,7733 11899,7723 11926,7711 11954,7695 11983,7679"
	stroke="#000000" stroke-width="8px" stroke-linejoin="round" stroke-dasharray="40 40"/>
<!-- Line -->
<!-- polyline -->
<polyline points=" 730,4487 758,4487 786,4491 814,4498 843,4506 870,4519 898,4533 926,4550 955,4569
 983,4591 1011,4615 1039,4641 1068,4670 1095,4702 1123,4736 1150,4772 1179,4809
 1207,4850 1235,4891 1262,4936 1292,4981 1319,5029 1347,5077 1375,5129 1404,5181
 1432,5236 1460,5291 1487,5348 1517,5406 1544,5466 1572,5526 1600,5587 1629,5650
 1657,5712 1685,5776 1714,5840 1742,5904 1769,5969 1797,6034 1826,6100 1854,6165
 1882,6230 1910,6294 1939,6359 1967,6423 1994,6487 2022,6551 2051,6613 2079,6675
 2107,6736 2135,6795 2164,6854 2192,6912 2219,6968 2247,7023 2276,7076 2304,7129
 2332,7179 2360,7227 2389,7275 2417,7319 2444,7362 2472,7404 2501,7443 2529,7479
 2557,7513 2585,7547 2614,7577 2642,7605 2669,7630 2699,7654 2726,7675 2754,7693
 2782,7708 2811,7720 2839,7731 2867,7738 2894,7744 2924,7747 2951,7747 2979,7744
 3007,7740 3036,7731 3064,7722 3092,7709 3119,7694 3149,7676 3176,7655 3204,7631
 3232,7606 3261,7579 3289,7550 3317,7516 3344,7483 3374,7445 3401,7406 3429,7366
 3457,7323 3486,7277 3514,7231 3542,7183 3571,7133"
	stroke="#000000" stroke-width="8px" stroke-linejoin="round" stroke-dasharray="40 40"/>
<!-- Line -->
<polyline points=" 689,7788 810,7788"
	stroke="#000000" stroke-width="8px"/>
<!-- Text -->
<text xml:space="preserve" x="900" y="3825" fill="#000000" font-family="Times" font-style="italic" font-weight="normal" font-size="216" text-anchor="start">x<tspan font-size="144" baseline-shift="sub">3</tspan>[n]</text>
<!-- Text -->
<text xml:space="preserve" x="12474" y="6000" fill="#000000" font-family="Times" font-style="italic" font-weight="normal" font-size="216" text-anchor="start">n</text>
</g>
</svg>
