<?xml version="1.0" encoding="UTF-8" standalone="no"?>
<!-- Creator: fig2dev Version 3.2.8b -->
<!-- CreationDate: 2025-10-30 19:43:16 -->
<!-- Magnification: 1 -->
<svg	xmlns="http://www.w3.org/2000/svg"
	xmlns:xlink="http://www.w3.org/1999/xlink"
	width="326pt" height="151pt"
	viewBox="2088 4704 5424 2508">
<g fill="none">
<!-- Line -->
<!-- polyline -->
<defs>
<clipPath id="cp0">
	<path clip-rule="evenodd" d="M 2088,4704 H 7512 V 7212 H 2088 z
		M 3683,4857 3705,4835 3728,4857 3712,4718 3698,4718z"/>
</clipPath>
</defs>
<polyline points=" 3705,4725 3705,7200" clip-path="url(#cp0)"
	stroke="#000000" stroke-width="8px" stroke-linejoin="round"/>
<!-- Backward arrow to point 3705,4725 -->
<polygon points=" 3728,4857 3705,4745 3683,4857 3705,4835 3728,4857"
	stroke="#000000" stroke-width="8px" stroke-miterlimit="8" fill="#000000"/>
<!-- Line -->
<!-- polyline -->
<defs>
<clipPath id="cp1">
	<path clip-rule="evenodd" d="M 2088,4704 H 7512 V 7212 H 2088 z
		M 7368,6128 7390,6150 7368,6173 7507,6157 7507,6143z
		M 3683,4857 3705,4835 3728,4857 3712,4718 3698,4718z"/>
</clipPath>
</defs>
<polyline points=" 2100,6150 7500,6150" clip-path="url(#cp1)"
	stroke="#000000" stroke-width="8px" stroke-linejoin="round"/>
<!-- Forward arrow to point 7500,6150 -->
<polygon points=" 7368,6173 7480,6150 7368,6128 7390,6150 7368,6173"
	stroke="#000000" stroke-width="8px" stroke-miterlimit="8" fill="#000000"/>
<!-- Line -->
<!-- polyline -->
<polyline points=" 3750,5775 3666,5775"
	stroke="#000000" stroke-width="8px" stroke-linejoin="round"/>
<!-- Line -->
<!-- polyline -->
<polyline points=" 3759,5233 3675,5233"
	stroke="#000000" stroke-width="8px" stroke-linejoin="round"/>
<!-- Line -->
<!-- polyline -->
<polyline points=" 4003,5236 4018,5243 4033,5254 4047,5268 4062,5286 4076,5307 4092,5331 4107,5358
 4121,5389 4136,5422 4150,5458 4165,5497 4181,5539 4194,5583 4210,5629 4224,5678
 4239,5728 4254,5779 4268,5832 4283,5886 4297,5942 4312,5997 4328,6054 4342,6111
 4357,6168 4371,6225 4386,6282 4401,6338 4415,6393 4431,6447 4444,6500 4460,6553
 4475,6603 4489,6650 4504,6697 4519,6740 4533,6782 4549,6821 4562,6858 4578,6892
 4593,6922 4607,6950 4622,6974 4636,6996 4651,7013 4667,7028 4681,7038 4696,7046
 4710,7049 4725,7049 4740,7046 4754,7039 4769,7028 4783,7014 4799,6996 4814,6975
 4828,6951 4843,6924 4857,6893 4872,6860 4887,6824 4901,6785 4917,6743 4931,6699
 4946,6653 4961,6604 4975,6554 4990,6503 5006,6450 5019,6396 5035,6340 5049,6285
 5064,6228 5079,6171 5093,6114 5108,6057 5122,6000 5137,5944 5153,5889 5167,5835
 5182,5782 5196,5729 5211,5679 5226,5632 5240,5585 5256,5542 5269,5500 5285,5461
 5300,5424 5314,5390 5329,5360 5343,5332 5358,5308 5374,5286 5387,5269 5403,5254
 5417,5244 5432,5236 5447,5233 5461,5233 5476,5236 5492,5243 5506,5254 5521,5268
 5535,5286 5550,5307 5565,5331 5579,5358 5594,5389 5608,5422 5624,5458 5639,5497
 5653,5539 5668,5583 5682,5629 5697,5678 5712,5728 5726,5779 5742,5832 5756,5886
 5771,5942 5786,5997 5800,6054 5815,6111 5829,6168 5844,6225 5860,6282 5874,6338
 5889,6393 5903,6447 5918,6500 5933,6553 5947,6603 5962,6650 5978,6697 5992,6740
 6007,6782 6021,6821 6036,6858 6051,6892 6065,6922 6081,6950 6094,6974 6110,6996
 6125,7013 6139,7028 6154,7038 6168,7046 6183,7049 6199,7049 6212,7046 6228,7039
 6242,7028 6257,7014 6272,6996 6286,6975 6301,6951 6315,6924 6331,6893 6346,6860
 6360,6824 6375,6785 6389,6743 6404,6699 6419,6653 6433,6604 6449,6554 6464,6503
 6478,6450 6493,6396 6507,6340 6522,6285 6537,6228 6551,6171 6567,6114 6581,6057
 6596,6000 6611,5944 6625,5889 6640,5835 6654,5782 6669,5729 6685,5679 6699,5632
 6714,5585 6728,5542 6743,5500 6758,5461 6772,5424 6787,5390 6801,5360 6817,5332
 6832,5308 6846,5286 6861,5269 6875,5254 6890,5244 6906,5236 6919,5233 6935,5233
 6950,5236 6964,5243 6979,5254 6993,5268 7008,5286 7024,5307 7037,5331 7053,5358
 7067,5389 7082,5422 7097,5458 7111,5497 7126,5539 7140,5583 7156,5629 7171,5678
 7185,5728 7200,5779"
	stroke="#000000" stroke-width="15px" stroke-linejoin="round"/>
<!-- Line -->
<!-- polyline -->
<polyline points=" 2236,5782 2250,5729 2265,5679 2279,5632 2294,5585 2310,5542 2324,5500 2339,5461
 2353,5424 2368,5390 2383,5360 2397,5332 2412,5308 2426,5286 2442,5269 2457,5254
 2471,5244 2486,5236 2500,5233 2515,5233 2531,5236 2544,5243 2560,5254 2575,5268
 2589,5286 2604,5307 2618,5331 2633,5358 2649,5389 2662,5422 2678,5458 2692,5497
 2707,5539 2722,5583 2736,5629 2751,5678 2765,5728 2781,5779 2796,5832 2810,5886
 2825,5942 2839,5997 2854,6054 2869,6111 2883,6168 2899,6225 2912,6282 2928,6338
 2943,6393 2957,6447 2972,6500 2986,6553 3001,6603 3017,6650 3031,6697 3046,6740
 3061,6782 3075,6821 3090,6858 3104,6892 3119,6922 3135,6950 3149,6974 3164,6996
 3178,7013 3193,7028 3208,7038 3222,7046 3237,7049 3251,7049 3267,7046 3282,7039
 3296,7028 3311,7014 3325,6996 3340,6975 3356,6951 3369,6924 3385,6893 3399,6860
 3414,6824 3429,6785 3443,6743 3458,6699 3472,6653 3487,6604 3503,6554 3517,6503
 3532,6450 3547,6396 3561,6340 3576,6285 3590,6228 3606,6171 3621,6114 3635,6057
 3650,6000 3664,5944 3679,5889 3694,5835 3708,5782 3724,5729 3737,5679 3753,5632
 3768,5585 3782,5542 3797,5500 3811,5461 3826,5424 3842,5390 3856,5360 3871,5332
 3885,5308 3900,5286 3915,5269 3929,5254 3944,5244 3958,5236 3974,5233 3989,5233
 4003,5236"
	stroke="#000000" stroke-width="15px" stroke-linejoin="round"/>
<!-- Line -->
<polyline points=" 5462,5299 5462,4992"
	stroke="#000000" stroke-width="8px"/>
<!-- Line -->
<polyline points=" 6920,5299 6920,4992"
	stroke="#000000" stroke-width="8px"/>
<!-- Line -->
<defs>
<clipPath id="cp2">
	<path clip-rule="evenodd" d="M 2088,4704 H 7512 V 7212 H 2088 z
		M 6831,5101 6846,5116 6831,5131 6933,5123 6933,5109z
		M 5551,5131 5536,5116 5551,5101 5449,5109 5449,5123z"/>
</clipPath>
</defs>
<polyline points=" 5456,5116 6926,5116" clip-path="url(#cp2)"
	stroke="#000000" stroke-width="8px"/>
<!-- Forward arrow to point 6926,5116 -->
<polygon points=" 6831,5131 6906,5116 6831,5101 6846,5116 6831,5131"
	stroke="#000000" stroke-width="8px" stroke-miterlimit="8" fill="#000000"/>
<!-- Backward arrow to point 5456,5116 -->
<polygon points=" 5551,5101 5476,5116 5551,5131 5536,5116 5551,5101"
	stroke="#000000" stroke-width="8px" stroke-miterlimit="8" fill="#000000"/>
<!-- Text -->
<text xml:space="preserve" x="3600" y="5325" fill="#000000" font-family="Times" font-style="normal" font-weight="normal" font-size="132" text-anchor="end">A</text>
<!-- Text -->
<text xml:space="preserve" x="6150" y="5025" fill="#000000" font-family="Times" font-style="normal" font-weight="normal" font-size="144" text-anchor="middle">T<tspan font-size="96" baseline-shift="sub">0</tspan>=2\pi/\omega<tspan font-size="96" baseline-shift="sub">0</tspan></text>
<!-- Text -->
<text xml:space="preserve" x="3821" y="4875" fill="#000000" font-family="Times" font-style="normal" font-weight="normal" font-size="144" text-anchor="start">x(t)=A\cos(\omega<tspan font-size="96" baseline-shift="sub">0</tspan> t+\theta)</text>
<!-- Text -->
<text xml:space="preserve" x="7350" y="6075" fill="#000000" font-family="Times" font-style="normal" font-weight="normal" font-size="144" text-anchor="start">t</text>
<!-- Text -->
<text xml:space="preserve" x="3600" y="5850" fill="#000000" font-family="Times" font-style="normal" font-weight="normal" font-size="132" text-anchor="end">A\cos\theta</text>
</g>
</svg>
