<?xml version="1.0" encoding="UTF-8" standalone="no"?>
<!-- Creator: fig2dev Version 3.2.8b -->
<!-- CreationDate: 2025-10-30 19:43:16 -->
<!-- Magnification: 1 -->
<svg	xmlns="http://www.w3.org/2000/svg"
	xmlns:xlink="http://www.w3.org/1999/xlink"
	width="603pt" height="344pt"
	viewBox="170 3144 10046 5718">
<g fill="none">
<!-- Line -->
<!-- polyline -->
<polyline points=" 182,3804 10204,3804"
	stroke="#ffffff" stroke-width="8px" stroke-linejoin="round"/>
<!-- Line -->
<!-- polyline -->
<defs>
<clipPath id="cp0">
	<path clip-rule="evenodd" d="M 170,3144 H 10216 V 8862 H 170 z
		M 5163,3470 5193,3440 5223,3470 5200,3293 5186,3293z"/>
</clipPath>
</defs>
<polyline points=" 5193,5925 5193,3300" clip-path="url(#cp0)"
	stroke="#000000" stroke-width="8px" stroke-linejoin="round"/>
<!-- Forward arrow to point 5193,3300 -->
<polygon points=" 5223,3470 5193,3320 5163,3470 5193,3440 5223,3470"
	stroke="#000000" stroke-width="8px" stroke-miterlimit="8" fill="#000000"/>
<!-- Line -->
<!-- polyline -->
<defs>
<clipPath id="cp1">
	<path clip-rule="evenodd" d="M 170,3144 H 10216 V 8862 H 170 z
		M 9880,4730 9910,4760 9880,4790 10057,4767 10057,4753z"/>
</clipPath>
</defs>
<polyline points=" 600,4760 10050,4760" clip-path="url(#cp1)"
	stroke="#000000" stroke-width="8px" stroke-linejoin="round"/>
<!-- Forward arrow to point 10050,4760 -->
<polygon points=" 9880,4790 10030,4760 9880,4730 9910,4760 9880,4790"
	stroke="#000000" stroke-width="8px" stroke-miterlimit="8" fill="#000000"/>
<!-- Line -->
<!-- polyline -->
<polyline points=" 2693,4771 2718,4815 2743,4860 2768,4906 2793,4950 2818,4993 2844,5038 2869,5081
 2894,5122 2919,5164 2944,5204 2969,5243 2994,5282 3019,5319 3044,5354 3069,5389
 3094,5422 3119,5454 3146,5485 3171,5513 3196,5540 3221,5565 3246,5589 3271,5610
 3296,5629 3321,5647 3346,5663 3371,5676 3396,5688 3421,5697 3447,5706 3472,5710
 3497,5714 3522,5715 3547,5714 3572,5710 3597,5706 3622,5697 3647,5688 3672,5676
 3697,5663 3724,5647 3749,5629 3774,5610 3799,5589 3824,5565 3849,5540 3874,5513
 3899,5485 3924,5454 3949,5422 3974,5389 3999,5354 4025,5319 4050,5282 4075,5243
 4100,5204 4125,5164 4150,5122 4175,5081 4200,5038 4225,4993 4250,4950 4275,4906
 4300,4860 4326,4815 4351,4771 4376,4725 4401,4681 4426,4635 4451,4590 4476,4546
 4501,4503 4526,4460 4551,4417 4576,4375 4601,4335 4628,4294 4653,4256 4678,4218
 4703,4181 4728,4146 4753,4113 4778,4079 4803,4049 4828,4019 4853,3992 4878,3965
 4904,3942 4929,3918 4954,3899 4979,3879 5004,3863 5029,3849 5054,3836 5079,3825
 5104,3817 5129,3810 5154,3806 5179,3804 5206,3804 5231,3806 5256,3810 5281,3817
 5306,3825 5331,3836 5356,3849 5381,3863 5406,3879 5431,3899 5456,3918 5481,3942
 5507,3965 5532,3992 5557,4019 5582,4049 5607,4079 5632,4113 5657,4146 5682,4181
 5707,4218 5732,4256 5757,4294 5783,4335 5808,4375 5833,4417 5858,4460 5883,4503
 5908,4546 5933,4590 5958,4635 5983,4681 6008,4725 6033,4771 6058,4815 6085,4860
 6110,4906 6135,4950 6160,4993 6185,5038 6210,5081 6235,5122 6260,5164 6285,5204
 6310,5243 6335,5282 6360,5319 6386,5354 6411,5389 6436,5422 6461,5454 6486,5485
 6511,5513 6536,5540 6561,5565 6586,5589 6611,5610 6636,5629 6661,5647 6687,5663
 6712,5676 6737,5688 6762,5697 6787,5706 6812,5710 6837,5714 6862,5715 6887,5714
 6912,5710 6937,5706 6964,5697 6989,5688 7014,5676 7039,5663 7064,5647 7089,5629
 7114,5610 7139,5589 7164,5565 7189,5540 7214,5513 7239,5485 7265,5454 7290,5422
 7315,5389 7340,5354 7365,5319 7390,5282 7415,5243 7440,5204 7465,5164 7490,5122
 7515,5081 7540,5038 7567,4993 7592,4950 7617,4906 7642,4860 7667,4815 7692,4771
 7717,4725 7742,4681 7767,4635 7792,4590 7817,4546 7842,4503 7868,4460 7893,4417
 7918,4375 7943,4335 7968,4294 7993,4256 8018,4218 8043,4181 8068,4146 8093,4113
 8118,4079 8144,4049 8169,4019 8194,3992 8219,3965 8244,3942 8269,3918 8294,3899
 8319,3879 8344,3863 8369,3849 8394,3836 8419,3825 8446,3817 8471,3810 8496,3806
 8521,3804 8546,3804 8571,3806 8596,3810 8621,3817 8646,3825 8671,3836 8696,3849
 8721,3863 8747,3879 8772,3899 8797,3918 8822,3942 8847,3965 8872,3992 8897,4019
 8922,4049 8947,4079 8972,4113 8997,4146 9022,4181 9049,4218 9074,4256 9099,4294
 9124,4335 9149,4375 9174,4417 9199,4460 9224,4503 9249,4546 9274,4590 9299,4635
 9325,4681 9350,4725 9375,4771 9400,4815 9425,4860 9450,4906 9475,4950 9500,4993
 9525,5038 9550,5081"
	stroke="#000000" stroke-width="30px" stroke-linejoin="round"/>
<!-- Line -->
<!-- polyline -->
<polyline points=" 785,5164 810,5122 835,5081 860,5038 885,4993 910,4950 935,4906 960,4860 985,4815
 1010,4771 1035,4725 1060,4681 1086,4635 1111,4590 1136,4546 1161,4503 1186,4460
 1211,4417 1236,4375 1261,4335 1286,4294 1311,4256 1336,4218 1362,4181 1387,4146
 1412,4113 1437,4079 1462,4049 1487,4019 1512,3992 1537,3965 1562,3942 1587,3918
 1612,3899 1637,3879 1664,3863 1689,3849 1714,3836 1739,3825 1764,3817 1789,3810
 1814,3806 1839,3804 1864,3804 1889,3806 1914,3810 1939,3817 1965,3825 1990,3836
 2015,3849 2040,3863 2065,3879 2090,3899 2115,3918 2140,3942 2165,3965 2190,3992
 2215,4019 2240,4049 2267,4079 2292,4113 2317,4146 2342,4181 2367,4218 2392,4256
 2417,4294 2442,4335 2467,4375 2492,4417 2517,4460 2543,4503 2568,4546 2593,4590
 2618,4635 2643,4681 2668,4725 2693,4771"
	stroke="#000000" stroke-width="30px" stroke-linejoin="round"/>
<!-- Line -->
<!-- polyline -->
<polyline points=" 182,8669 10204,8669 182,8669"
	stroke="#ffffff" stroke-width="8px" stroke-linejoin="round"/>
<!-- Line -->
<!-- polyline -->
<defs>
<clipPath id="cp2">
	<path clip-rule="evenodd" d="M 170,3144 H 10216 V 8862 H 170 z
		M 5163,6470 5193,6440 5223,6470 5200,6293 5186,6293z"/>
</clipPath>
</defs>
<polyline points=" 5193,8850 5193,6300" clip-path="url(#cp2)"
	stroke="#000000" stroke-width="8px" stroke-linejoin="round"/>
<!-- Forward arrow to point 5193,6300 -->
<polygon points=" 5223,6470 5193,6320 5163,6470 5193,6440 5223,6470"
	stroke="#000000" stroke-width="8px" stroke-miterlimit="8" fill="#000000"/>
<!-- Line -->
<!-- polyline -->
<defs>
<clipPath id="cp3">
	<path clip-rule="evenodd" d="M 170,3144 H 10216 V 8862 H 170 z
		M 9880,7684 9910,7714 9880,7744 10057,7721 10057,7707z"/>
</clipPath>
</defs>
<polyline points=" 600,7714 10050,7714" clip-path="url(#cp3)"
	stroke="#000000" stroke-width="8px" stroke-linejoin="round"/>
<!-- Forward arrow to point 10050,7714 -->
<polygon points=" 9880,7744 10030,7714 9880,7684 9910,7714 9880,7744"
	stroke="#000000" stroke-width="8px" stroke-miterlimit="8" fill="#000000"/>
<!-- Line -->
<!-- polyline -->
<polyline points=" 2693,6800 2718,6783 2743,6771 2768,6763 2793,6758 2818,6758 2844,6763 2869,6771
 2894,6783 2919,6800 2944,6821 2969,6844 2994,6872 3019,6904 3044,6940 3069,6979
 3094,7021 3119,7067 3146,7114 3171,7164 3196,7217 3221,7272 3246,7329 3271,7388
 3296,7449 3321,7510 3346,7571 3371,7635 3396,7697 3421,7761 3447,7824 3472,7886
 3497,7947 3522,8008 3547,8068 3572,8126 3597,8182 3622,8236 3647,8288 3672,8336
 3697,8383 3724,8426 3749,8467 3774,8504 3799,8538 3824,8568 3849,8594 3874,8617
 3899,8636 3924,8650 3949,8660 3974,8667 3999,8669 4025,8667 4050,8660 4075,8650
 4100,8636 4125,8617 4150,8594 4175,8568 4200,8538 4225,8504 4250,8467 4275,8426
 4300,8383 4326,8336 4351,8288 4376,8236 4401,8182 4426,8126 4451,8068 4476,8008
 4501,7947 4526,7886 4551,7824 4576,7761 4601,7697 4628,7635 4653,7571 4678,7510
 4703,7449 4728,7388 4753,7329 4778,7272 4803,7217 4828,7164 4853,7114 4878,7067
 4904,7021 4929,6979 4954,6940 4979,6904 5004,6872 5029,6844 5054,6821 5079,6800
 5104,6783 5129,6771 5154,6763 5179,6758 5206,6758 5231,6763 5256,6771 5281,6783
 5306,6800 5331,6821 5356,6844 5381,6872 5406,6904 5431,6940 5456,6979 5481,7021
 5507,7067 5532,7114 5557,7164 5582,7217 5607,7272 5632,7329 5657,7388 5682,7449
 5707,7510 5732,7571 5757,7635 5783,7697 5808,7761 5833,7824 5858,7886 5883,7947
 5908,8008 5933,8068 5958,8126 5983,8182 6008,8236 6033,8288 6058,8336 6085,8383
 6110,8426 6135,8467 6160,8504 6185,8538 6210,8568 6235,8594 6260,8617 6285,8636
 6310,8650 6335,8660 6360,8667 6386,8669 6411,8667 6436,8660 6461,8650 6486,8636
 6511,8617 6536,8594 6561,8568 6586,8538 6611,8504 6636,8467 6661,8426 6687,8383
 6712,8336 6737,8288 6762,8236 6787,8182 6812,8126 6837,8068 6862,8008 6887,7947
 6912,7886 6937,7824 6964,7761 6989,7697 7014,7635 7039,7571 7064,7510 7089,7449
 7114,7388 7139,7329 7164,7272 7189,7217 7214,7164 7239,7114 7265,7067 7290,7021
 7315,6979 7340,6940 7365,6904 7390,6872 7415,6844 7440,6821 7465,6800 7490,6783
 7515,6771 7540,6763 7567,6758 7592,6758 7617,6763 7642,6771 7667,6783 7692,6800
 7717,6821 7742,6844 7767,6872 7792,6904 7817,6940 7842,6979 7868,7021 7893,7067
 7918,7114 7943,7164 7968,7217 7993,7272 8018,7329 8043,7388 8068,7449 8093,7510
 8118,7571 8144,7635 8169,7697 8194,7761 8219,7824 8244,7886 8269,7947 8294,8008
 8319,8068 8344,8126 8369,8182 8394,8236 8419,8288 8446,8336 8471,8383 8496,8426
 8521,8467 8546,8504 8571,8538 8596,8568 8621,8594 8646,8617 8671,8636 8696,8650
 8721,8660 8747,8667 8772,8669 8797,8667 8822,8660 8847,8650 8872,8636 8897,8617
 8922,8594 8947,8568 8972,8538 8997,8504 9022,8467 9049,8426 9074,8383 9099,8336
 9124,8288 9149,8236 9174,8182 9199,8126 9224,8068 9249,8008 9274,7947 9299,7886
 9325,7824 9350,7761 9375,7697 9400,7635 9425,7571 9450,7510 9475,7449 9500,7388
 9525,7329 9550,7272"
	stroke="#000000" stroke-width="30px" stroke-linejoin="round"/>
<!-- Line -->
<!-- polyline -->
<polyline points=" 758,7114 785,7164 810,7217 835,7272 860,7329 885,7388 910,7449 935,7510 960,7571
 985,7635 1010,7697 1035,7761 1060,7824 1086,7886 1111,7947 1136,8008 1161,8068
 1186,8126 1211,8182 1236,8236 1261,8288 1286,8336 1311,8383 1336,8426 1362,8467
 1387,8504 1412,8538 1437,8568 1462,8594 1487,8617 1512,8636 1537,8650 1562,8660
 1587,8667 1612,8669 1637,8667 1664,8660 1689,8650 1714,8636 1739,8617 1764,8594
 1789,8568 1814,8538 1839,8504 1864,8467 1889,8426 1914,8383 1939,8336 1965,8288
 1990,8236 2015,8182 2040,8126 2065,8068 2090,8008 2115,7947 2140,7886 2165,7824
 2190,7761 2215,7697 2240,7635 2267,7571 2292,7510 2317,7449 2342,7388 2367,7329
 2392,7272 2417,7217 2442,7164 2467,7114 2492,7067 2517,7021 2543,6979 2568,6940
 2593,6904 2618,6872 2643,6844 2668,6821 2693,6800"
	stroke="#000000" stroke-width="30px" stroke-linejoin="round"/>
<!-- Line -->
<polyline points=" 8550,4650 8550,4875"
	stroke="#000000" stroke-width="8px"/>
<!-- Line -->
<polyline points=" 7575,7621 7575,7846"
	stroke="#000000" stroke-width="8px"/>
<!-- Text -->
<text xml:space="preserve" x="5325" y="3375" fill="#000000" font-family="Times" font-style="italic" font-weight="normal" font-size="216" text-anchor="start">x<tspan font-size="144" baseline-shift="sub">1</tspan>(t)=\cos(\omega<tspan font-size="144" baseline-shift="sub">1</tspan> t)</text>
<!-- Text -->
<text xml:space="preserve" x="8550" y="5175" fill="#000000" font-family="Times" font-style="italic" font-weight="normal" font-size="216" text-anchor="middle">T<tspan font-size="144" baseline-shift="sub">1</tspan></text>
<!-- Text -->
<text xml:space="preserve" x="9900" y="4650" fill="#000000" font-family="Times" font-style="italic" font-weight="normal" font-size="216" text-anchor="start">t</text>
<!-- Text -->
<text xml:space="preserve" x="8325" y="6000" fill="#000000" font-family="Times" font-style="italic" font-weight="normal" font-size="216" text-anchor="start">\omega<tspan font-size="144" baseline-shift="sub">2</tspan>&gt;\omega<tspan font-size="144" baseline-shift="sub">1</tspan></text>
<!-- Text -->
<text xml:space="preserve" x="8325" y="6300" fill="#000000" font-family="Times" font-style="italic" font-weight="normal" font-size="216" text-anchor="start">T<tspan font-size="144" baseline-shift="sub">2</tspan>&lt;T<tspan font-size="144" baseline-shift="sub">1</tspan></text>
<!-- Text -->
<text xml:space="preserve" x="5325" y="6375" fill="#000000" font-family="Times" font-style="italic" font-weight="normal" font-size="216" text-anchor="start">x<tspan font-size="144" baseline-shift="sub">2</tspan>(t)=\cos(\omega<tspan font-size="144" baseline-shift="sub">2</tspan> t)</text>
<!-- Text -->
<text xml:space="preserve" x="7575" y="8100" fill="#000000" font-family="Times" font-style="italic" font-weight="normal" font-size="216" text-anchor="middle">T<tspan font-size="144" baseline-shift="sub">2</tspan></text>
<!-- Text -->
<text xml:space="preserve" x="9900" y="7575" fill="#000000" font-family="Times" font-style="italic" font-weight="normal" font-size="216" text-anchor="start">t</text>
</g>
</svg>
