<?xml version="1.0" encoding="UTF-8" standalone="no"?>
<!-- Creator: fig2dev Version 3.2.8b -->
<!-- CreationDate: 2025-10-30 19:43:16 -->
<!-- Magnification: 1 -->
<svg	xmlns="http://www.w3.org/2000/svg"
	xmlns:xlink="http://www.w3.org/1999/xlink"
	width="776pt" height="239pt"
	viewBox="-471 3981 12933 3981">
<g fill="none">
<!-- Line -->
<!-- polyline -->
<defs>
<clipPath id="cp0">
	<path clip-rule="evenodd" d="M -471,3981 H 12462 V 7962 H -471 z
		M 2363,4220 2393,4190 2423,4220 2400,4043 2386,4043z"/>
</clipPath>
</defs>
<polyline points=" 2393,4050 2393,7950" clip-path="url(#cp0)"
	stroke="#000000" stroke-width="8px" stroke-linejoin="round"/>
<!-- Backward arrow to point 2393,4050 -->
<polygon points=" 2423,4220 2393,4070 2363,4220 2393,4190 2423,4220"
	stroke="#000000" stroke-width="8px" stroke-miterlimit="8" fill="#000000"/>
<!-- Line -->
<!-- spline -->
<polyline points=" -93,6121 -93,6122 -94,6126 -95,6132 -96,6136 -96,6137 -97,6139 -98,6142 -100,6146
 -103,6150 -106,6154 -108,6156 -110,6158 -114,6161 -118,6164 -120,6165 -121,6165
 -123,6166 -128,6168 -133,6170 -137,6170 -141,6171 -143,6171 -144,6171 -148,6170
 -154,6169 -158,6168 -159,6168 -161,6167 -164,6166 -168,6164 -173,6161 -177,6158
 -179,6156 -181,6154 -184,6150 -187,6146 -188,6144 -189,6142 -191,6137 -192,6132
 -193,6127 -193,6124 -193,6121 -193,6120 -192,6116 -192,6110 -191,6106 -191,6105
 -190,6103 -189,6100 -187,6096 -184,6091 -181,6087 -179,6085 -177,6083 -173,6080
 -169,6077 -167,6076 -166,6076 -164,6075 -159,6073 -153,6072 -149,6071 -146,6071
 -143,6071 -142,6071 -138,6072 -133,6072 -129,6073 -128,6073 -126,6074 -123,6075
 -119,6077 -114,6080 -110,6083 -108,6085 -106,6087 -103,6091 -100,6095 -99,6097
 -99,6098 -98,6100 -96,6105 -94,6111 -94,6115 -93,6118 -93,6121"
	stroke="#000000" stroke-width="8px" stroke-linejoin="bevel"/>
<!-- Line -->
<!-- spline -->
<polyline points=" 101,6100 101,6101 100,6105 99,6111 98,6115 98,6116 97,6118 96,6122 94,6125 91,6130
 88,6134 87,6135 86,6136 85,6137 81,6140 77,6143 75,6144 74,6144 72,6145 67,6147
 61,6149 57,6149 54,6150 51,6150 50,6150 46,6149 40,6148 36,6147 35,6147 33,6146
 29,6145 26,6143 21,6140 17,6137 16,6136 15,6135 14,6134 11,6130 8,6126 7,6124
 7,6123 6,6121 4,6116 2,6110 2,6106 1,6103 1,6100 1,6099 2,6095 3,6089 4,6085
 4,6084 5,6082 6,6078 8,6075 11,6070 14,6066 15,6065 16,6064 17,6063 21,6060 25,6057
 27,6056 28,6056 30,6055 35,6053 41,6051 45,6051 48,6050 51,6050 52,6050 56,6051
 62,6052 66,6053 67,6053 69,6054 73,6055 76,6057 81,6060 85,6063 86,6064 87,6065
 88,6066 91,6070 94,6074 95,6076 95,6077 96,6079 98,6084 100,6090 100,6094 101,6097
 101,6100"
	stroke="#000000" stroke-width="8px" stroke-linejoin="bevel"/>
<!-- Line -->
<!-- spline -->
<polyline points=" 297,6078 297,6079 296,6083 295,6089 294,6093 294,6094 293,6096 292,6099 290,6103
 287,6107 284,6111 282,6113 280,6115 276,6118 272,6121 270,6122 268,6123 263,6125
 258,6127 253,6127 250,6128 247,6128 246,6128 242,6127 236,6126 232,6125 231,6125
 229,6124 226,6123 222,6121 217,6118 213,6115 211,6113 209,6111 206,6107 203,6103
 202,6101 201,6099 199,6094 198,6089 197,6084 197,6081 197,6078 197,6077 198,6073
 198,6067 199,6063 199,6062 200,6060 201,6057 203,6053 206,6048 209,6044 211,6042
 213,6040 217,6037 221,6034 223,6033 224,6033 226,6032 231,6030 237,6029 241,6028
 244,6028 247,6028 248,6028 252,6029 258,6029 262,6030 263,6030 265,6031 268,6032
 272,6034 276,6037 280,6040 282,6042 284,6044 287,6048 290,6052 291,6054 291,6055
 292,6057 294,6062 296,6068 296,6072 297,6075 297,6078"
	stroke="#000000" stroke-width="8px" stroke-linejoin="bevel"/>
<!-- Line -->
<!-- spline -->
<polyline points=" 491,6063 491,6064 490,6068 490,6073 489,6077 489,6078 488,6080 487,6083 485,6087
 482,6092 479,6096 477,6098 475,6100 471,6103 467,6106 465,6107 464,6107 462,6108
 457,6110 451,6112 447,6112 444,6113 441,6113 440,6113 436,6112 430,6111 426,6110
 425,6110 423,6109 420,6108 416,6106 412,6103 408,6100 406,6098 404,6096 401,6092
 398,6088 397,6086 397,6085 396,6083 394,6078 392,6073 392,6069 391,6065 391,6063
 391,6062 392,6058 393,6052 394,6048 394,6047 395,6045 396,6042 398,6038 401,6033
 404,6029 406,6027 408,6025 412,6022 416,6019 418,6018 420,6017 425,6015 430,6014
 435,6013 438,6013 441,6013 442,6013 446,6014 452,6014 456,6015 457,6015 459,6016
 462,6017 466,6019 471,6022 475,6025 477,6027 479,6029 482,6033 485,6037 486,6039
 486,6040 487,6042 489,6047 490,6053 491,6057 491,6060 491,6063"
	stroke="#000000" stroke-width="8px" stroke-linejoin="bevel"/>
<!-- Line -->
<!-- spline -->
<polyline points=" 687,6065 687,6066 686,6070 686,6076 685,6080 685,6081 684,6083 682,6086 680,6090
 677,6095 674,6099 673,6101 672,6101 671,6103 667,6106 663,6109 661,6110 660,6110
 658,6111 653,6113 647,6114 643,6115 640,6115 637,6115 636,6115 632,6114 626,6114
 622,6113 621,6113 619,6112 616,6111 612,6109 608,6106 604,6103 602,6101 600,6099
 597,6095 594,6091 593,6089 593,6088 592,6086 590,6081 588,6075 588,6071 587,6068
 587,6065 587,6064 588,6060 589,6055 590,6051 590,6050 591,6048 592,6045 594,6041
 597,6036 600,6032 602,6030 604,6028 608,6025 612,6022 614,6021 616,6020 621,6018
 626,6016 631,6016 634,6015 637,6015 638,6015 642,6016 648,6017 652,6018 653,6018
 655,6019 659,6020 662,6022 667,6025 671,6028 672,6030 673,6030 674,6032 677,6036
 680,6040 681,6042 682,6043 683,6045 685,6050 686,6055 687,6059 687,6063 687,6065
"
	stroke="#000000" stroke-width="8px" stroke-linejoin="bevel"/>
<!-- Line -->
<!-- spline -->
<polyline points=" 882,6090 882,6091 881,6095 880,6101 879,6105 879,6106 878,6108 877,6111 875,6115
 872,6120 869,6124 867,6126 865,6128 861,6131 857,6134 855,6135 854,6135 852,6136
 847,6138 842,6139 838,6140 834,6140 832,6140 831,6140 827,6139 821,6139 817,6138
 816,6138 814,6137 811,6136 807,6134 802,6131 798,6128 796,6126 794,6124 791,6120
 788,6116 787,6114 787,6113 786,6111 784,6106 783,6100 782,6096 782,6093 782,6090
 782,6089 783,6085 783,6080 784,6076 784,6075 785,6073 786,6070 788,6066 791,6061
 794,6057 796,6055 798,6053 802,6050 806,6047 808,6046 809,6046 811,6045 816,6043
 822,6041 826,6041 829,6040 832,6040 833,6040 837,6041 842,6042 846,6043 847,6043
 849,6044 852,6045 856,6047 861,6050 865,6053 867,6055 869,6057 872,6061 875,6065
 876,6067 876,6068 877,6070 879,6075 881,6080 881,6084 882,6088 882,6090"
	stroke="#000000" stroke-width="8px" stroke-linejoin="bevel"/>
<!-- Line -->
<!-- spline -->
<polyline points=" 1076,6136 1076,6137 1075,6141 1075,6147 1074,6151 1074,6152 1073,6154 1072,6158
 1070,6161 1067,6166 1064,6170 1062,6171 1062,6172 1060,6173 1056,6176 1052,6179
 1050,6180 1049,6181 1047,6182 1042,6184 1036,6185 1032,6186 1029,6186 1026,6186
 1025,6186 1021,6185 1016,6185 1012,6184 1011,6184 1009,6183 1006,6181 1002,6179
 997,6176 993,6173 991,6172 991,6171 989,6170 986,6166 983,6162 982,6160 982,6159
 981,6157 979,6152 977,6146 977,6142 976,6139 976,6136 976,6135 977,6131 978,6125
 979,6121 979,6120 980,6118 981,6115 983,6111 986,6107 989,6103 991,6101 993,6099
 997,6096 1001,6093 1003,6092 1004,6092 1006,6091 1011,6089 1016,6087 1020,6087
 1024,6086 1026,6086 1027,6086 1031,6087 1037,6088 1041,6089 1042,6089 1044,6090
 1047,6091 1051,6093 1056,6096 1060,6099 1062,6101 1064,6103 1067,6107 1070,6111
 1071,6113 1072,6115 1074,6120 1075,6125 1076,6130 1076,6133 1076,6136"
	stroke="#000000" stroke-width="8px" stroke-linejoin="bevel"/>
<!-- Line -->
<!-- spline -->
<polyline points=" 1271,6186 1271,6187 1270,6191 1269,6197 1268,6201 1268,6202 1267,6204 1266,6208
 1264,6211 1261,6216 1258,6220 1256,6221 1256,6222 1254,6223 1250,6226 1246,6229
 1244,6230 1244,6231 1242,6232 1237,6234 1232,6235 1227,6236 1224,6236 1221,6236
 1220,6236 1216,6235 1210,6235 1206,6234 1205,6234 1203,6233 1200,6231 1196,6229
 1191,6226 1187,6223 1185,6222 1185,6221 1183,6220 1180,6216 1177,6212 1176,6210
 1176,6209 1175,6207 1173,6202 1172,6196 1171,6192 1171,6189 1171,6186 1171,6185
 1172,6181 1172,6175 1173,6171 1173,6170 1174,6168 1175,6165 1177,6161 1180,6157
 1183,6153 1185,6151 1187,6149 1191,6146 1195,6143 1197,6142 1198,6142 1200,6141
 1205,6139 1211,6137 1215,6137 1218,6136 1221,6136 1222,6136 1226,6137 1232,6138
 1236,6139 1237,6139 1239,6140 1242,6141 1246,6143 1250,6146 1254,6149 1256,6151
 1258,6153 1261,6157 1264,6161 1265,6163 1266,6165 1268,6170 1270,6175 1270,6180
 1271,6183 1271,6186"
	stroke="#000000" stroke-width="8px" stroke-linejoin="bevel"/>
<!-- Line -->
<!-- spline -->
<polyline points=" 1467,6219 1467,6220 1466,6224 1465,6230 1464,6234 1464,6235 1463,6237 1462,6240
 1460,6244 1457,6249 1454,6253 1452,6255 1450,6257 1446,6260 1442,6263 1440,6264
 1439,6264 1437,6265 1432,6267 1427,6268 1423,6269 1419,6269 1417,6269 1416,6269
 1412,6268 1406,6268 1402,6267 1401,6267 1399,6266 1396,6265 1392,6263 1387,6260
 1383,6257 1381,6255 1379,6253 1376,6249 1373,6245 1372,6243 1372,6242 1371,6240
 1369,6235 1368,6229 1367,6225 1367,6222 1367,6219 1367,6218 1368,6214 1368,6209
 1369,6205 1369,6204 1370,6202 1371,6199 1373,6195 1376,6190 1379,6186 1381,6184
 1383,6182 1387,6179 1391,6176 1393,6175 1394,6175 1396,6174 1401,6172 1407,6170
 1411,6170 1414,6169 1417,6169 1418,6169 1422,6170 1427,6171 1431,6172 1432,6172
 1434,6173 1437,6174 1441,6176 1446,6179 1450,6182 1452,6184 1454,6186 1457,6190
 1460,6194 1461,6196 1461,6197 1462,6199 1464,6204 1466,6209 1466,6213 1467,6217
 1467,6219"
	stroke="#000000" stroke-width="8px" stroke-linejoin="bevel"/>
<!-- Line -->
<!-- spline -->
<polyline points=" 1661,6214 1661,6215 1660,6219 1660,6225 1659,6229 1659,6230 1658,6232 1656,6235
 1654,6239 1651,6243 1648,6247 1647,6249 1646,6249 1645,6251 1641,6254 1637,6257
 1635,6258 1634,6258 1632,6259 1627,6261 1621,6263 1617,6263 1614,6264 1611,6264
 1610,6264 1606,6263 1600,6262 1596,6261 1595,6261 1593,6260 1590,6259 1586,6257
 1582,6254 1578,6251 1576,6249 1574,6247 1571,6243 1568,6239 1567,6237 1566,6235
 1564,6230 1562,6225 1562,6220 1561,6217 1561,6214 1561,6213 1562,6209 1563,6203
 1564,6199 1564,6198 1565,6196 1566,6192 1568,6189 1571,6184 1574,6180 1576,6179
 1576,6178 1578,6177 1582,6174 1586,6171 1588,6170 1588,6169 1590,6168 1595,6166
 1600,6165 1605,6164 1608,6164 1611,6164 1612,6164 1616,6165 1622,6165 1626,6166
 1627,6166 1629,6167 1633,6169 1636,6171 1641,6174 1645,6177 1646,6178 1647,6179
 1648,6180 1651,6184 1654,6188 1655,6190 1656,6191 1657,6193 1659,6198 1660,6204
 1661,6208 1661,6211 1661,6214"
	stroke="#000000" stroke-width="8px" stroke-linejoin="bevel"/>
<!-- Line -->
<!-- spline -->
<polyline points=" 1857,6157 1857,6158 1856,6162 1855,6168 1854,6172 1854,6173 1853,6175 1852,6178
 1850,6182 1847,6186 1844,6190 1842,6192 1840,6194 1836,6197 1832,6200 1830,6201
 1828,6202 1823,6204 1818,6206 1813,6206 1810,6207 1807,6207 1806,6207 1802,6206
 1796,6205 1792,6204 1791,6204 1789,6203 1785,6202 1782,6200 1777,6197 1773,6194
 1772,6192 1771,6192 1770,6190 1767,6186 1764,6182 1763,6180 1762,6178 1760,6173
 1758,6168 1758,6163 1757,6160 1757,6157 1757,6156 1758,6152 1759,6146 1760,6142
 1760,6141 1761,6139 1762,6135 1764,6132 1767,6127 1770,6123 1771,6122 1772,6121
 1773,6120 1777,6117 1781,6114 1783,6113 1784,6113 1786,6112 1791,6110 1797,6108
 1801,6108 1804,6107 1807,6107 1808,6107 1812,6108 1818,6109 1822,6110 1823,6110
 1825,6111 1828,6112 1832,6114 1836,6117 1840,6120 1842,6121 1842,6122 1844,6123
 1847,6127 1850,6131 1851,6133 1851,6134 1852,6136 1854,6141 1856,6147 1856,6151
 1857,6154 1857,6157"
	stroke="#000000" stroke-width="8px" stroke-linejoin="bevel"/>
<!-- Line -->
<!-- spline -->
<polyline points=" 2051,6058 2051,6059 2050,6063 2050,6069 2049,6073 2049,6074 2048,6076 2047,6079
 2045,6083 2042,6088 2039,6092 2037,6094 2035,6096 2031,6099 2027,6102 2025,6103
 2024,6103 2022,6104 2017,6106 2011,6107 2007,6108 2004,6108 2001,6108 2000,6108
 1996,6107 1991,6107 1987,6106 1986,6106 1984,6105 1981,6104 1977,6102 1972,6099
 1968,6096 1966,6094 1964,6092 1961,6088 1958,6084 1957,6082 1957,6081 1956,6079
 1954,6074 1952,6068 1952,6064 1951,6061 1951,6058 1951,6057 1952,6053 1953,6048
 1954,6044 1954,6043 1955,6041 1956,6038 1958,6034 1961,6029 1964,6025 1966,6023
 1968,6021 1972,6018 1976,6015 1978,6014 1979,6014 1981,6013 1986,6011 1991,6009
 1995,6009 1999,6008 2001,6008 2002,6008 2006,6009 2012,6010 2016,6011 2017,6011
 2019,6012 2022,6013 2026,6015 2031,6018 2035,6021 2037,6023 2039,6025 2042,6029
 2045,6033 2046,6035 2046,6036 2047,6038 2049,6043 2050,6048 2051,6052 2051,6056
 2051,6058"
	stroke="#000000" stroke-width="8px" stroke-linejoin="bevel"/>
<!-- Line -->
<!-- spline -->
<polyline points=" 2247,5947 2247,5948 2246,5952 2246,5958 2245,5962 2245,5963 2244,5965 2243,5968
 2241,5972 2238,5977 2235,5981 2233,5983 2231,5985 2227,5988 2223,5991 2221,5992
 2220,5992 2218,5993 2213,5995 2207,5996 2203,5997 2200,5997 2197,5997 2196,5997
 2192,5996 2186,5996 2182,5995 2181,5995 2179,5994 2176,5993 2172,5991 2168,5988
 2164,5985 2162,5983 2160,5981 2157,5977 2154,5973 2153,5971 2153,5970 2152,5968
 2150,5963 2148,5957 2148,5953 2147,5950 2147,5947 2147,5946 2148,5942 2149,5936
 2150,5932 2150,5931 2151,5929 2152,5926 2154,5922 2157,5918 2160,5914 2162,5912
 2164,5910 2168,5907 2172,5904 2174,5903 2176,5902 2181,5900 2186,5898 2191,5898
 2194,5897 2197,5897 2198,5897 2202,5898 2208,5899 2212,5900 2213,5900 2215,5901
 2218,5902 2222,5904 2227,5907 2231,5910 2233,5912 2235,5914 2238,5918 2241,5922
 2242,5924 2243,5926 2245,5931 2246,5936 2247,5941 2247,5944 2247,5947"
	stroke="#000000" stroke-width="8px" stroke-linejoin="bevel"/>
<!-- Line -->
<!-- spline -->
<polyline points=" 2443,5875 2443,5876 2442,5880 2441,5886 2440,5890 2440,5891 2439,5893 2438,5897
 2436,5900 2433,5905 2430,5909 2429,5910 2428,5911 2427,5912 2423,5915 2419,5918
 2417,5919 2416,5919 2414,5920 2409,5922 2403,5924 2399,5924 2396,5925 2393,5925
 2392,5925 2388,5924 2382,5923 2378,5922 2377,5922 2375,5921 2372,5920 2368,5918
 2364,5915 2360,5912 2358,5911 2358,5910 2356,5909 2353,5905 2350,5901 2349,5899
 2349,5898 2348,5896 2346,5891 2344,5885 2344,5881 2343,5878 2343,5875 2343,5874
 2344,5870 2345,5864 2346,5860 2346,5859 2347,5857 2348,5853 2350,5850 2353,5845
 2356,5841 2358,5840 2358,5839 2360,5838 2364,5835 2368,5832 2370,5831 2372,5830
 2377,5828 2382,5826 2387,5826 2390,5825 2393,5825 2394,5825 2398,5826 2404,5827
 2408,5828 2409,5828 2411,5829 2415,5830 2418,5832 2423,5835 2427,5838 2428,5839
 2429,5840 2430,5841 2433,5845 2436,5849 2437,5851 2437,5852 2438,5854 2440,5859
 2442,5865 2442,5869 2443,5872 2443,5875"
	stroke="#000000" stroke-width="8px" stroke-linejoin="bevel"/>
<!-- Line -->
<!-- spline -->
<polyline points=" 2637,5888 2637,5889 2636,5893 2636,5898 2635,5902 2635,5903 2634,5905 2633,5908
 2631,5912 2628,5917 2625,5921 2623,5923 2621,5925 2617,5928 2613,5931 2611,5932
 2610,5932 2608,5933 2603,5935 2597,5937 2593,5937 2590,5938 2587,5938 2586,5938
 2582,5937 2577,5936 2573,5935 2572,5935 2570,5934 2567,5933 2563,5931 2558,5928
 2554,5925 2552,5923 2550,5921 2547,5917 2544,5913 2543,5911 2543,5910 2542,5908
 2540,5903 2538,5898 2538,5894 2537,5890 2537,5888 2537,5887 2538,5883 2539,5877
 2540,5873 2540,5872 2541,5870 2542,5867 2544,5863 2547,5858 2550,5854 2552,5852
 2554,5850 2558,5847 2562,5844 2564,5843 2565,5843 2567,5842 2572,5840 2577,5839
 2581,5838 2585,5838 2587,5838 2588,5838 2592,5839 2598,5839 2602,5840 2603,5840
 2605,5841 2608,5842 2612,5844 2617,5847 2621,5850 2623,5852 2625,5854 2628,5858
 2631,5862 2632,5864 2632,5865 2633,5867 2635,5872 2636,5878 2637,5882 2637,5885
 2637,5888"
	stroke="#000000" stroke-width="8px" stroke-linejoin="bevel"/>
<!-- Line -->
<!-- spline -->
<polyline points=" 2833,6011 2833,6012 2832,6016 2832,6022 2831,6026 2831,6027 2830,6029 2829,6033
 2827,6036 2824,6041 2821,6045 2819,6046 2819,6047 2817,6048 2813,6051 2809,6054
 2807,6055 2806,6056 2804,6057 2799,6059 2793,6060 2789,6061 2786,6061 2783,6061
 2782,6061 2778,6060 2773,6060 2769,6059 2768,6059 2766,6058 2763,6056 2759,6054
 2754,6051 2750,6048 2748,6047 2748,6046 2746,6045 2743,6041 2740,6037 2739,6035
 2739,6034 2738,6032 2736,6027 2734,6021 2734,6017 2733,6014 2733,6011 2733,6010
 2734,6006 2735,6000 2736,5996 2736,5995 2737,5993 2738,5990 2740,5986 2743,5982
 2746,5978 2748,5976 2750,5974 2754,5971 2758,5968 2760,5967 2761,5967 2763,5966
 2768,5964 2773,5962 2777,5962 2781,5961 2783,5961 2784,5961 2788,5962 2794,5963
 2798,5964 2799,5964 2801,5965 2804,5966 2808,5968 2813,5971 2817,5974 2819,5976
 2821,5978 2824,5982 2827,5986 2828,5988 2829,5990 2831,5995 2832,6000 2833,6005
 2833,6008 2833,6011"
	stroke="#000000" stroke-width="8px" stroke-linejoin="bevel"/>
<!-- Line -->
<!-- spline -->
<polyline points=" 3028,6229 3028,6230 3027,6234 3026,6240 3025,6244 3025,6245 3024,6247 3023,6250
 3021,6254 3018,6259 3015,6263 3013,6265 3011,6267 3007,6270 3003,6273 3001,6274
 2999,6275 2994,6277 2989,6278 2984,6279 2981,6279 2978,6279 2977,6279 2973,6278
 2967,6278 2963,6277 2962,6277 2960,6276 2957,6275 2953,6273 2948,6270 2944,6267
 2942,6265 2940,6263 2937,6259 2934,6255 2933,6253 2933,6252 2932,6250 2930,6245
 2929,6239 2928,6235 2928,6232 2928,6229 2928,6228 2929,6224 2929,6218 2930,6214
 2930,6213 2931,6211 2932,6208 2934,6204 2937,6200 2940,6196 2942,6194 2944,6192
 2948,6189 2952,6186 2954,6185 2955,6185 2957,6184 2962,6182 2968,6180 2972,6180
 2975,6179 2978,6179 2979,6179 2983,6180 2989,6181 2993,6182 2994,6182 2996,6183
 2999,6184 3003,6186 3007,6189 3011,6192 3013,6194 3015,6196 3018,6200 3021,6204
 3022,6206 3023,6208 3025,6213 3027,6218 3027,6223 3028,6226 3028,6229"
	stroke="#000000" stroke-width="8px" stroke-linejoin="bevel"/>
<!-- Line -->
<!-- spline -->
<polyline points=" 3224,6471 3224,6472 3223,6476 3222,6482 3221,6486 3221,6487 3220,6489 3219,6492
 3217,6496 3214,6500 3211,6504 3209,6506 3207,6508 3203,6511 3199,6514 3197,6515
 3196,6515 3194,6516 3189,6518 3184,6520 3180,6520 3176,6521 3174,6521 3173,6521
 3169,6520 3163,6519 3159,6518 3158,6518 3156,6517 3153,6516 3149,6514 3144,6511
 3140,6508 3138,6506 3136,6504 3133,6500 3130,6496 3129,6494 3128,6492 3126,6487
 3125,6482 3124,6477 3124,6474 3124,6471 3124,6470 3125,6466 3125,6460 3126,6456
 3126,6455 3127,6453 3128,6450 3130,6446 3133,6441 3136,6437 3138,6435 3140,6433
 3144,6430 3148,6427 3150,6426 3151,6426 3153,6425 3158,6423 3164,6422 3168,6421
 3171,6421 3174,6421 3175,6421 3179,6422 3184,6422 3188,6423 3189,6423 3191,6424
 3194,6425 3198,6427 3203,6430 3207,6433 3209,6435 3211,6437 3214,6441 3217,6445
 3218,6447 3218,6448 3219,6450 3221,6455 3223,6461 3223,6465 3224,6468 3224,6471
"
	stroke="#000000" stroke-width="8px" stroke-linejoin="bevel"/>
<!-- Line -->
<!-- spline -->
<polyline points=" 3418,6632 3418,6633 3417,6637 3416,6643 3415,6647 3415,6648 3414,6650 3413,6653
 3411,6657 3408,6661 3405,6665 3404,6667 3403,6667 3402,6669 3398,6672 3394,6675
 3392,6676 3391,6676 3389,6677 3384,6679 3378,6681 3374,6681 3371,6682 3368,6682
 3367,6682 3363,6681 3357,6680 3353,6679 3352,6679 3350,6678 3347,6677 3343,6675
 3339,6672 3335,6669 3333,6667 3331,6665 3328,6661 3325,6657 3324,6655 3323,6653
 3321,6648 3319,6643 3319,6638 3318,6635 3318,6632 3318,6631 3319,6627 3320,6621
 3321,6617 3321,6616 3322,6614 3323,6610 3325,6607 3328,6602 3331,6598 3333,6597
 3333,6596 3335,6595 3339,6592 3343,6589 3345,6588 3347,6587 3352,6585 3357,6583
 3362,6583 3365,6582 3368,6582 3369,6582 3373,6583 3379,6584 3383,6585 3384,6585
 3386,6586 3390,6587 3393,6589 3398,6592 3402,6595 3403,6596 3404,6597 3405,6598
 3408,6602 3411,6606 3412,6608 3412,6609 3413,6611 3415,6616 3417,6622 3417,6626
 3418,6629 3418,6632"
	stroke="#000000" stroke-width="8px" stroke-linejoin="bevel"/>
<!-- Line -->
<!-- spline -->
<polyline points=" 3614,6604 3614,6605 3613,6609 3612,6615 3611,6619 3611,6620 3610,6622 3609,6625
 3607,6629 3604,6634 3601,6638 3599,6640 3597,6642 3593,6645 3589,6648 3587,6649
 3585,6650 3580,6652 3575,6653 3570,6654 3567,6654 3564,6654 3563,6654 3559,6653
 3553,6653 3549,6652 3548,6652 3546,6651 3542,6650 3539,6648 3534,6645 3530,6642
 3529,6640 3528,6640 3527,6638 3524,6634 3521,6630 3520,6628 3519,6627 3518,6625
 3516,6620 3515,6614 3514,6610 3514,6607 3514,6604 3514,6603 3515,6599 3515,6593
 3516,6589 3516,6588 3517,6586 3519,6583 3521,6579 3524,6575 3527,6571 3528,6569
 3529,6569 3530,6567 3534,6564 3538,6561 3540,6560 3541,6560 3543,6559 3548,6557
 3554,6555 3558,6555 3561,6554 3564,6554 3565,6554 3569,6555 3575,6556 3579,6557
 3580,6557 3582,6558 3585,6559 3589,6561 3593,6564 3597,6567 3599,6569 3601,6571
 3604,6575 3607,6579 3608,6581 3609,6583 3611,6588 3613,6593 3613,6598 3614,6601
 3614,6604"
	stroke="#000000" stroke-width="8px" stroke-linejoin="bevel"/>
<!-- Line -->
<!-- spline -->
<polyline points=" 3808,6332 3808,6333 3807,6337 3807,6343 3806,6347 3806,6348 3805,6350 3804,6353
 3802,6357 3799,6361 3796,6365 3794,6367 3792,6369 3788,6372 3784,6375 3782,6376
 3781,6376 3779,6377 3774,6379 3768,6381 3764,6381 3761,6382 3758,6382 3757,6382
 3753,6381 3748,6380 3744,6379 3743,6379 3741,6378 3738,6377 3734,6375 3729,6372
 3725,6369 3723,6367 3721,6365 3718,6361 3715,6357 3714,6355 3713,6353 3711,6348
 3709,6343 3709,6338 3708,6335 3708,6332 3708,6331 3709,6327 3710,6321 3711,6317
 3711,6316 3712,6314 3713,6310 3715,6307 3718,6302 3721,6298 3723,6297 3723,6296
 3725,6295 3729,6292 3733,6289 3735,6288 3736,6288 3738,6287 3743,6285 3748,6283
 3752,6283 3756,6282 3758,6282 3759,6282 3763,6283 3769,6284 3773,6285 3774,6285
 3776,6286 3779,6287 3783,6289 3788,6292 3792,6295 3794,6296 3794,6297 3796,6298
 3799,6302 3802,6306 3803,6308 3803,6309 3804,6311 3806,6316 3807,6322 3808,6326
 3808,6329 3808,6332"
	stroke="#000000" stroke-width="8px" stroke-linejoin="bevel"/>
<!-- Line -->
<!-- spline -->
<polyline points=" 4004,5854 4004,5855 4003,5859 4003,5865 4002,5869 4002,5870 4001,5872 4000,5875
 3998,5879 3995,5884 3992,5888 3990,5890 3988,5892 3984,5895 3980,5898 3978,5899
 3977,5899 3975,5900 3970,5902 3964,5903 3960,5904 3957,5904 3954,5904 3953,5904
 3949,5903 3943,5903 3939,5902 3938,5902 3936,5901 3933,5900 3929,5898 3925,5895
 3921,5892 3919,5890 3917,5888 3914,5884 3911,5880 3910,5878 3910,5877 3909,5875
 3907,5870 3905,5864 3905,5860 3904,5857 3904,5854 3904,5853 3905,5849 3906,5843
 3907,5839 3907,5838 3908,5836 3909,5833 3911,5829 3914,5825 3917,5821 3919,5819
 3921,5817 3925,5814 3929,5811 3931,5810 3933,5809 3938,5807 3943,5805 3948,5805
 3951,5804 3954,5804 3955,5804 3959,5805 3965,5806 3969,5807 3970,5807 3972,5808
 3975,5809 3979,5811 3984,5814 3988,5817 3990,5819 3992,5821 3995,5825 3998,5829
 3999,5831 4000,5833 4002,5838 4003,5843 4004,5848 4004,5851 4004,5854"
	stroke="#000000" stroke-width="8px" stroke-linejoin="bevel"/>
<!-- Line -->
<!-- spline -->
<polyline points=" 4199,5324 4199,5325 4198,5329 4197,5334 4196,5338 4196,5339 4195,5341 4194,5344
 4192,5348 4189,5353 4186,5357 4184,5359 4182,5361 4178,5364 4174,5367 4172,5368
 4171,5368 4169,5369 4164,5371 4159,5373 4155,5373 4151,5374 4149,5374 4148,5374
 4144,5373 4138,5372 4134,5371 4133,5371 4131,5370 4128,5369 4124,5367 4119,5364
 4115,5361 4113,5359 4111,5357 4108,5353 4105,5349 4104,5347 4104,5346 4103,5344
 4101,5339 4100,5334 4099,5330 4099,5326 4099,5324 4099,5323 4100,5319 4100,5313
 4101,5309 4101,5308 4102,5306 4103,5303 4105,5299 4108,5294 4111,5290 4113,5288
 4115,5286 4119,5283 4123,5280 4125,5279 4126,5279 4128,5278 4133,5276 4139,5275
 4143,5274 4146,5274 4149,5274 4150,5274 4154,5275 4159,5275 4163,5276 4164,5276
 4166,5277 4169,5278 4173,5280 4178,5283 4182,5286 4184,5288 4186,5290 4189,5294
 4192,5298 4193,5300 4193,5301 4194,5303 4196,5308 4198,5314 4198,5318 4199,5321
 4199,5324"
	stroke="#000000" stroke-width="8px" stroke-linejoin="bevel"/>
<!-- Line -->
<!-- spline -->
<polyline points=" 4394,4972 4394,4973 4393,4977 4393,4983 4392,4987 4392,4988 4391,4990 4390,4993
 4388,4997 4385,5002 4382,5006 4380,5008 4378,5010 4374,5013 4370,5016 4368,5017
 4367,5017 4365,5018 4360,5020 4354,5021 4350,5022 4347,5022 4344,5022 4343,5022
 4339,5021 4334,5021 4330,5020 4329,5020 4327,5019 4324,5018 4320,5016 4315,5013
 4311,5010 4309,5008 4307,5006 4304,5002 4301,4998 4300,4996 4300,4995 4299,4993
 4297,4988 4295,4982 4295,4978 4294,4975 4294,4972 4294,4971 4295,4967 4296,4961
 4297,4957 4297,4956 4298,4954 4299,4951 4301,4947 4304,4943 4307,4939 4309,4937
 4311,4935 4315,4932 4319,4929 4321,4928 4322,4928 4324,4927 4329,4925 4334,4923
 4338,4923 4342,4922 4344,4922 4345,4922 4349,4923 4355,4924 4359,4925 4360,4925
 4362,4926 4365,4927 4369,4929 4374,4932 4378,4935 4380,4937 4382,4939 4385,4943
 4388,4947 4389,4949 4390,4951 4392,4956 4393,4961 4394,4966 4394,4969 4394,4972
"
	stroke="#000000" stroke-width="8px" stroke-linejoin="bevel"/>
<!-- Line -->
<!-- spline -->
<polyline points=" 4589,5033 4589,5034 4588,5038 4587,5044 4586,5048 4586,5049 4585,5051 4584,5054
 4582,5058 4579,5063 4576,5067 4574,5069 4572,5071 4568,5074 4564,5077 4562,5078
 4560,5079 4555,5081 4550,5082 4545,5083 4542,5083 4539,5083 4538,5083 4534,5082
 4528,5082 4524,5081 4523,5081 4521,5080 4517,5079 4514,5077 4509,5074 4505,5071
 4504,5069 4503,5069 4502,5067 4499,5063 4496,5059 4495,5057 4494,5056 4493,5054
 4491,5049 4490,5043 4489,5039 4489,5036 4489,5033 4489,5032 4490,5028 4490,5023
 4491,5019 4491,5018 4492,5016 4494,5013 4496,5009 4499,5004 4502,5000 4503,4998
 4504,4998 4505,4996 4509,4993 4513,4990 4515,4989 4516,4989 4518,4988 4523,4986
 4529,4984 4533,4984 4536,4983 4539,4983 4540,4983 4544,4984 4550,4985 4554,4986
 4555,4986 4557,4987 4560,4988 4564,4990 4568,4993 4572,4996 4574,4998 4576,5000
 4579,5004 4582,5008 4583,5010 4583,5011 4584,5013 4586,5018 4588,5023 4588,5027
 4589,5031 4589,5033"
	stroke="#000000" stroke-width="8px" stroke-linejoin="bevel"/>
<!-- Line -->
<!-- spline -->
<polyline points=" 4785,5629 4785,5630 4784,5634 4783,5640 4782,5644 4782,5645 4781,5647 4780,5650
 4778,5654 4775,5659 4772,5663 4770,5665 4768,5667 4764,5670 4760,5673 4758,5674
 4757,5674 4755,5675 4750,5677 4745,5678 4741,5679 4737,5679 4735,5679 4734,5679
 4730,5678 4724,5678 4720,5677 4719,5677 4717,5676 4714,5675 4710,5673 4705,5670
 4701,5667 4699,5665 4697,5663 4694,5659 4691,5655 4690,5653 4690,5652 4689,5650
 4687,5645 4686,5639 4685,5635 4685,5632 4685,5629 4685,5628 4686,5624 4686,5618
 4687,5614 4687,5613 4688,5611 4689,5608 4691,5604 4694,5600 4697,5596 4699,5594
 4701,5592 4705,5589 4709,5586 4711,5585 4712,5585 4714,5584 4719,5582 4725,5580
 4729,5580 4732,5579 4735,5579 4736,5579 4740,5580 4745,5581 4749,5582 4750,5582
 4752,5583 4755,5584 4759,5586 4764,5589 4768,5592 4770,5594 4772,5596 4775,5600
 4778,5604 4779,5606 4780,5608 4782,5613 4784,5618 4784,5623 4785,5626 4785,5629
"
	stroke="#000000" stroke-width="8px" stroke-linejoin="bevel"/>
<!-- Line -->
<!-- spline -->
<polyline points=" 4979,6676 4979,6677 4978,6681 4978,6687 4977,6691 4977,6692 4976,6694 4975,6697
 4973,6701 4970,6706 4967,6710 4965,6712 4963,6714 4959,6717 4955,6720 4953,6721
 4952,6721 4950,6722 4945,6724 4939,6725 4935,6726 4932,6726 4929,6726 4928,6726
 4924,6725 4918,6725 4914,6724 4913,6724 4911,6723 4908,6722 4904,6720 4900,6717
 4896,6714 4894,6712 4892,6710 4889,6706 4886,6702 4885,6700 4885,6699 4884,6697
 4882,6692 4880,6686 4880,6682 4879,6679 4879,6676 4879,6675 4880,6671 4881,6666
 4882,6662 4882,6661 4883,6659 4884,6656 4886,6652 4889,6647 4892,6643 4894,6641
 4896,6639 4900,6636 4904,6633 4906,6632 4908,6631 4913,6629 4918,6627 4923,6627
 4926,6626 4929,6626 4930,6626 4934,6627 4940,6628 4944,6629 4945,6629 4947,6630
 4950,6631 4954,6633 4959,6636 4963,6639 4965,6641 4967,6643 4970,6647 4973,6651
 4974,6653 4974,6654 4975,6656 4977,6661 4978,6666 4979,6670 4979,6674 4979,6676
"
	stroke="#000000" stroke-width="8px" stroke-linejoin="bevel"/>
<!-- Line -->
<!-- polyline -->
<polyline points=" -143,6113 -143,6121"
	stroke="#000000" stroke-width="8px" stroke-linejoin="round"/>
<!-- Line -->
<!-- polyline -->
<polyline points=" 51,6113 51,6100"
	stroke="#000000" stroke-width="8px" stroke-linejoin="round"/>
<!-- Line -->
<!-- polyline -->
<polyline points=" 247,6113 247,6078"
	stroke="#000000" stroke-width="8px" stroke-linejoin="round"/>
<!-- Line -->
<!-- polyline -->
<polyline points=" 441,6113 441,6063"
	stroke="#000000" stroke-width="15px" stroke-linejoin="round"/>
<!-- Line -->
<!-- polyline -->
<polyline points=" 637,6113 637,6065"
	stroke="#000000" stroke-width="15px" stroke-linejoin="round"/>
<!-- Line -->
<!-- polyline -->
<polyline points=" 832,6113 832,6090"
	stroke="#000000" stroke-width="8px" stroke-linejoin="round"/>
<!-- Line -->
<!-- polyline -->
<polyline points=" 1026,6113 1026,6136"
	stroke="#000000" stroke-width="8px" stroke-linejoin="round"/>
<!-- Line -->
<!-- polyline -->
<polyline points=" 1221,6113 1221,6186"
	stroke="#000000" stroke-width="15px" stroke-linejoin="round"/>
<!-- Line -->
<!-- polyline -->
<polyline points=" 1417,6113 1417,6219"
	stroke="#000000" stroke-width="15px" stroke-linejoin="round"/>
<!-- Line -->
<!-- polyline -->
<polyline points=" 1611,6113 1611,6214"
	stroke="#000000" stroke-width="15px" stroke-linejoin="round"/>
<!-- Line -->
<!-- polyline -->
<polyline points=" 1807,6113 1807,6157"
	stroke="#000000" stroke-width="15px" stroke-linejoin="round"/>
<!-- Line -->
<!-- polyline -->
<polyline points=" 2001,6113 2001,6058"
	stroke="#000000" stroke-width="15px" stroke-linejoin="round"/>
<!-- Line -->
<!-- polyline -->
<polyline points=" 2197,6113 2197,5947"
	stroke="#000000" stroke-width="15px" stroke-linejoin="round"/>
<!-- Line -->
<!-- polyline -->
<polyline points=" 2393,6113 2393,5875"
	stroke="#000000" stroke-width="15px" stroke-linejoin="round"/>
<!-- Line -->
<!-- polyline -->
<polyline points=" 2587,6113 2587,5888"
	stroke="#000000" stroke-width="15px" stroke-linejoin="round"/>
<!-- Line -->
<!-- polyline -->
<polyline points=" 2783,6113 2783,6011"
	stroke="#000000" stroke-width="15px" stroke-linejoin="round"/>
<!-- Line -->
<!-- polyline -->
<polyline points=" 2978,6113 2978,6229"
	stroke="#000000" stroke-width="15px" stroke-linejoin="round"/>
<!-- Line -->
<!-- polyline -->
<polyline points=" 3174,6113 3174,6471"
	stroke="#000000" stroke-width="15px" stroke-linejoin="round"/>
<!-- Line -->
<!-- polyline -->
<polyline points=" 3368,6113 3368,6632"
	stroke="#000000" stroke-width="15px" stroke-linejoin="round"/>
<!-- Line -->
<!-- polyline -->
<polyline points=" 3564,6113 3564,6604"
	stroke="#000000" stroke-width="15px" stroke-linejoin="round"/>
<!-- Line -->
<!-- polyline -->
<polyline points=" 3758,6113 3758,6332"
	stroke="#000000" stroke-width="15px" stroke-linejoin="round"/>
<!-- Line -->
<!-- polyline -->
<polyline points=" 3954,6113 3954,5854"
	stroke="#000000" stroke-width="15px" stroke-linejoin="round"/>
<!-- Line -->
<!-- polyline -->
<polyline points=" 4149,6113 4149,5324"
	stroke="#000000" stroke-width="15px" stroke-linejoin="round"/>
<!-- Line -->
<!-- polyline -->
<polyline points=" 4344,6113 4344,4972"
	stroke="#000000" stroke-width="15px" stroke-linejoin="round"/>
<!-- Line -->
<!-- polyline -->
<polyline points=" 4539,6113 4539,5033"
	stroke="#000000" stroke-width="15px" stroke-linejoin="round"/>
<!-- Line -->
<!-- polyline -->
<polyline points=" 4735,6113 4735,5629"
	stroke="#000000" stroke-width="15px" stroke-linejoin="round"/>
<!-- Line -->
<!-- polyline -->
<polyline points=" 4929,6113 4929,6676"
	stroke="#000000" stroke-width="15px" stroke-linejoin="round"/>
<!-- Line -->
<!-- polyline -->
<defs>
<clipPath id="cp1">
	<path clip-rule="evenodd" d="M -471,3981 H 12462 V 7962 H -471 z
		M 5226,6083 5256,6113 5226,6143 5403,6120 5403,6106z
		M 2363,4220 2393,4190 2423,4220 2400,4043 2386,4043z"/>
</clipPath>
</defs>
<polyline points=" -459,6113 5396,6113" clip-path="url(#cp1)"
	stroke="#000000" stroke-width="8px" stroke-linejoin="round"/>
<!-- Forward arrow to point 5396,6113 -->
<polygon points=" 5226,6143 5376,6113 5226,6083 5256,6113 5226,6143"
	stroke="#000000" stroke-width="8px" stroke-miterlimit="8" fill="#000000"/>
<!-- Line -->
<!-- polyline -->
<polyline points=" 1126,6163 1139,6167 1153,6169 1165,6172 1178,6176 1190,6179 1203,6182 1215,6185
 1229,6189 1242,6192 1254,6194 1267,6197 1279,6200 1292,6201 1306,6204 1318,6207
 1331,6208 1343,6211 1356,6213 1368,6215 1381,6217 1394,6218 1407,6219 1419,6221
 1432,6221 1444,6222 1457,6222 1471,6224 1483,6224 1496,6224 1508,6224 1521,6222
 1533,6222 1547,6221 1560,6221 1572,6219 1585,6218 1597,6217 1610,6214 1622,6213
 1636,6210 1649,6207 1661,6204 1674,6201 1686,6199 1699,6194 1712,6192 1725,6188
 1737,6183 1750,6179 1762,6175 1775,6169 1789,6165 1801,6160 1814,6154 1826,6149
 1839,6143 1851,6138 1864,6132 1878,6125 1890,6119 1903,6113 1915,6106 1928,6100
 1940,6093 1954,6086 1967,6079 1979,6071 1992,6064 2004,6057 2017,6050 2031,6042
 2043,6035 2056,6028 2068,6019 2081,6013 2093,6006 2106,5997 2119,5990 2132,5983
 2144,5976 2157,5969 2169,5963 2182,5956 2196,5949 2208,5942 2221,5936 2233,5929
 2246,5924 2258,5918 2272,5913 2285,5907 2297,5903 2310,5897 2322,5893 2335,5889
 2347,5885 2361,5882 2374,5879 2386,5876 2399,5874 2411,5871 2424,5869 2437,5868
 2450,5868 2462,5867 2475,5867 2487,5868 2500,5868 2512,5869 2526,5872 2539,5874
 2551,5876 2564,5881 2576,5883 2589,5888 2603,5893 2615,5897 2628,5904 2640,5910
 2653,5917 2665,5924 2679,5931 2692,5939 2704,5949 2717,5957 2729,5967 2742,5976
 2754,5988 2768,5999 2781,6010 2793,6021 2806,6033 2818,6046 2831,6058 2844,6072
 2857,6086 2869,6100 2882,6114 2894,6128 2907,6143 2921,6158 2933,6174 2946,6189
 2958,6204 2971,6221 2983,6236 2996,6253 3010,6269 3022,6285 3035,6301 3047,6318
 3060,6333 3072,6350 3086,6365 3099,6382 3111,6397 3124,6414 3136,6429 3149,6443
 3162,6458 3175,6474 3187,6488 3200,6501 3212,6514 3225,6528 3237,6540 3251,6551
 3264,6563 3276,6574 3289,6583 3301,6593 3314,6603 3328,6611 3340,6618 3353,6625
 3365,6631 3378,6636 3390,6640 3404,6643 3417,6646 3429,6647 3442,6649 3454,6647
 3467,6646 3479,6644 3493,6642 3506,6636 3518,6632 3531,6625 3543,6618 3556,6610
 3569,6600 3582,6589 3594,6578 3607,6565 3619,6551 3632,6536 3646,6519 3658,6503
 3671,6485 3683,6465 3696,6446 3708,6425 3721,6403 3735,6379 3747,6356 3760,6329
 3772,6304 3785,6276 3797,6249 3811,6221 3824,6192 3836,6161 3849,6131 3861,6099
 3874,6067 3887,6035 3900,6001 3912,5968 3925,5933 3937,5899 3950,5864 3962,5829
 3976,5793 3989,5758 4001,5722 4014,5686 4026,5651 4039,5615 4053,5581 4065,5546
 4078,5510 4090,5476 4103,5442 4115,5408 4129,5375 4142,5343 4154,5311 4167,5281
 4179,5251 4192,5222 4204,5193 4218,5167 4231,5140 4243,5117 4256,5093 4268,5071
 4281,5050 4294,5032 4307,5014 4319,4999 4332,4983 4344,4971 4357,4961 4371,4951
 4383,4944 4396,4940 4408,4938 4421,4936 4433,4938 4446,4940 4460,4946 4472,4954
 4485,4964 4497,4976 4510,4990 4522,5007 4536,5026 4549,5049 4561,5072 4574,5099
 4586,5126 4599,5157 4611,5190 4625,5226 4637,5264 4650,5306 4662,5347 4675,5392
 4687,5439 4701,5489 4714,5540 4726,5593 4739,5649 4751,5707 4764,5765 4778,5828
 4790,5890 4803,5956 4815,6021 4828,6089 4840,6158 4853,6229 4867,6301 4879,6375
 4892,6449 4904,6524 4917,6600 4929,6676"
	stroke="#000000" stroke-width="8px" stroke-linejoin="round" stroke-dasharray="40 40"/>
<!-- Line -->
<!-- polyline -->
<polyline points=" -143,6121 -131,6121 -118,6119 -106,6118 -93,6117 -81,6115 -67,6114 -55,6113
 -42,6111 -30,6110 -17,6108 -5,6107 8,6106 22,6104 34,6103 47,6101 59,6100 72,6099
 84,6097 98,6094 111,6093 123,6092 136,6090 148,6089 161,6088 175,6086 187,6085
 200,6083 212,6082 225,6081 237,6079 250,6078 264,6076 276,6075 289,6074 301,6072
 314,6071 326,6069 340,6069 352,6068 365,6067 377,6065 390,6065 402,6064 415,6064
 429,6063 441,6063 454,6063 466,6061 479,6061 491,6061 505,6061 518,6061 530,6061
 543,6061 555,6061 568,6061 582,6063 594,6063 607,6064 619,6064 632,6065 644,6065
 657,6067 670,6068 683,6069 695,6071 708,6072 720,6074 733,6075 747,6076 759,6079
 772,6081 784,6082 797,6085 809,6088 823,6089 836,6092 848,6094 861,6097 873,6099
 886,6101 898,6104 912,6108 925,6111 937,6114 950,6117 962,6119 975,6124 987,6126
 1000,6129 1012,6133 1025,6136 1037,6139 1050,6143 1064,6146 1076,6150 1089,6153
 1101,6156 1114,6160 1126,6163"
	stroke="#000000" stroke-width="8px" stroke-linejoin="round" stroke-dasharray="40 40"/>
<!-- Line -->
<!-- polyline -->
<polyline points=" 1126,6026 1139,6025 1153,6025 1165,6024 1178,6022 1190,6022 1203,6021 1215,6019
 1229,6019 1242,6018 1254,6017 1267,6015 1279,6015 1292,6014 1306,6013 1318,6013
 1331,6011 1343,6010 1356,6008 1368,6008 1381,6007 1394,6006 1407,6004 1419,6003
 1432,6003 1444,6001 1457,6000 1471,5999 1483,5997 1496,5996 1508,5996 1521,5994
 1533,5993 1547,5992 1560,5990 1572,5989 1585,5988 1597,5986 1610,5985 1622,5985
 1636,5983 1649,5982 1661,5981 1674,5979 1686,5978 1699,5976 1712,5975 1725,5974
 1737,5972 1750,5971 1762,5969 1775,5968 1789,5965 1801,5964 1814,5963 1826,5961
 1839,5960 1851,5958 1864,5957 1878,5956 1890,5954 1903,5951 1915,5950 1928,5949
 1940,5947 1954,5946 1967,5943 1979,5942 1992,5940 2004,5939 2017,5936 2031,5935
 2043,5933 2056,5931 2068,5929 2081,5928 2093,5925 2106,5924 2119,5921 2132,5919
 2144,5918 2157,5915 2169,5914 2182,5911 2196,5910 2208,5907 2221,5906 2233,5903
 2246,5901 2258,5899 2272,5897 2285,5894 2297,5892 2310,5890 2322,5888 2335,5885
 2347,5883 2361,5881 2374,5878 2386,5876 2399,5874 2411,5871 2424,5868 2437,5867
 2450,5864 2462,5861 2475,5858 2487,5856 2500,5853 2512,5850 2526,5847 2539,5844
 2551,5842 2564,5839 2576,5836 2589,5833 2603,5831 2615,5828 2628,5825 2640,5822
 2653,5819 2665,5817 2679,5814 2692,5810 2704,5807 2717,5804 2729,5801 2742,5797
 2754,5794 2768,5792 2781,5788 2793,5785 2806,5781 2818,5778 2831,5774 2844,5771
 2857,5767 2869,5764 2882,5760 2894,5757 2907,5753 2921,5749 2933,5746 2946,5742
 2958,5738 2971,5735 2983,5731 2996,5726 3010,5722 3022,5718 3035,5714 3047,5710
 3060,5706 3072,5701 3086,5697 3099,5693 3111,5689 3124,5685 3136,5681 3149,5676
 3162,5671 3175,5667 3187,5663 3200,5658 3212,5653 3225,5649 3237,5643 3251,5639
 3264,5633 3276,5629 3289,5624 3301,5619 3314,5614 3328,5608 3340,5604 3353,5599
 3365,5593 3378,5588 3390,5582 3404,5576 3417,5571 3429,5565 3442,5560 3454,5554
 3467,5549 3479,5543 3493,5538 3506,5532 3518,5525 3531,5519 3543,5514 3556,5507
 3569,5501 3582,5494 3594,5489 3607,5482 3619,5475 3632,5469 3646,5463 3658,5456
 3671,5449 3683,5442 3696,5435 3708,5428 3721,5421 3735,5414 3747,5407 3760,5400
 3772,5392 3785,5385 3797,5378 3811,5369 3824,5363 3836,5354 3849,5347 3861,5339
 3874,5331 3887,5322 3900,5315 3912,5307 3925,5299 3937,5290 3950,5282 3962,5272
 3976,5264 3989,5256 4001,5247 4014,5238 4026,5229 4039,5219 4053,5211 4065,5201
 4078,5192 4090,5182 4103,5172 4115,5164 4129,5153 4142,5143 4154,5133 4167,5124
 4179,5114 4192,5103 4204,5093 4218,5082 4231,5072 4243,5061 4256,5050 4268,5039
 4281,5028 4294,5017 4307,5006 4319,4994 4332,4983 4344,4971 4357,4960 4371,4947
 4383,4936 4396,4924 4408,4911 4421,4899 4433,4886 4446,4874 4460,4861 4472,4849
 4485,4836 4497,4822 4510,4810 4522,4796 4536,4782 4549,4768 4561,4754 4574,4740
 4586,4726 4599,4713 4611,4699 4625,4683 4637,4669 4650,4654 4662,4639 4675,4624
 4687,4608 4701,4593 4714,4578 4726,4561 4739,4546 4751,4529 4764,4514 4778,4497
 4790,4481 4803,4464 4815,4447 4828,4429 4840,4413 4853,4394 4867,4378 4879,4360
 4892,4342 4904,4324 4917,4304 4929,4286"
	stroke="#000000" stroke-width="8px" stroke-linejoin="round" stroke-dasharray="40 40"/>
<!-- Line -->
<!-- polyline -->
<polyline points=" -143,6081 -131,6081 -118,6081 -106,6081 -93,6079 -81,6079 -67,6079 -55,6079
 -42,6078 -30,6078 -17,6078 -5,6078 8,6076 22,6076 34,6076 47,6076 59,6075 72,6075
 84,6075 98,6075 111,6074 123,6074 136,6074 148,6072 161,6072 175,6072 187,6072
 200,6071 212,6071 225,6071 237,6069 250,6069 264,6069 276,6068 289,6068 301,6068
 314,6067 326,6067 340,6067 352,6065 365,6065 377,6065 390,6064 402,6064 415,6064
 429,6063 441,6063 454,6063 466,6061 479,6061 491,6061 505,6060 518,6060 530,6058
 543,6058 555,6058 568,6057 582,6057 594,6056 607,6056 619,6056 632,6054 644,6054
 657,6053 670,6053 683,6051 695,6051 708,6050 720,6050 733,6050 747,6049 759,6049
 772,6047 784,6047 797,6046 809,6046 823,6044 836,6044 848,6043 861,6043 873,6042
 886,6042 898,6040 912,6040 925,6039 937,6039 950,6038 962,6036 975,6036 987,6035
 1000,6035 1012,6033 1025,6033 1037,6032 1050,6031 1064,6031 1076,6029 1089,6029
 1101,6028 1114,6026 1126,6026"
	stroke="#000000" stroke-width="8px" stroke-linejoin="round"/>
<!-- Line -->
<!-- polyline -->
<polyline points=" 1126,6197 1139,6199 1153,6199 1165,6200 1178,6201 1190,6201 1203,6203 1215,6204
 1229,6204 1242,6206 1254,6207 1267,6208 1279,6208 1292,6210 1306,6211 1318,6211
 1331,6213 1343,6214 1356,6215 1368,6215 1381,6217 1394,6218 1407,6219 1419,6221
 1432,6221 1444,6222 1457,6224 1471,6225 1483,6226 1496,6228 1508,6228 1521,6229
 1533,6231 1547,6232 1560,6233 1572,6235 1585,6236 1597,6238 1610,6239 1622,6239
 1636,6240 1649,6242 1661,6243 1674,6244 1686,6246 1699,6247 1712,6249 1725,6250
 1737,6251 1750,6253 1762,6254 1775,6256 1789,6258 1801,6260 1814,6261 1826,6263
 1839,6264 1851,6265 1864,6267 1878,6268 1890,6269 1903,6272 1915,6274 1928,6275
 1940,6276 1954,6278 1967,6281 1979,6282 1992,6283 2004,6285 2017,6288 2031,6289
 2043,6290 2056,6293 2068,6294 2081,6296 2093,6299 2106,6300 2119,6303 2132,6304
 2144,6306 2157,6308 2169,6310 2182,6313 2196,6314 2208,6317 2221,6318 2233,6321
 2246,6322 2258,6325 2272,6326 2285,6329 2297,6332 2310,6333 2322,6336 2335,6339
 2347,6340 2361,6343 2374,6346 2386,6347 2399,6350 2411,6353 2424,6356 2437,6357
 2450,6360 2462,6363 2475,6365 2487,6368 2500,6371 2512,6374 2526,6376 2539,6379
 2551,6382 2564,6385 2576,6388 2589,6390 2603,6393 2615,6396 2628,6399 2640,6401
 2653,6404 2665,6407 2679,6410 2692,6414 2704,6417 2717,6419 2729,6422 2742,6426
 2754,6429 2768,6432 2781,6436 2793,6439 2806,6443 2818,6446 2831,6450 2844,6453
 2857,6457 2869,6460 2882,6464 2894,6467 2907,6471 2921,6475 2933,6478 2946,6482
 2958,6486 2971,6489 2983,6493 2996,6497 3010,6501 3022,6506 3035,6510 3047,6514
 3060,6518 3072,6522 3086,6526 3099,6531 3111,6535 3124,6539 3136,6543 3149,6547
 3162,6553 3175,6557 3187,6561 3200,6565 3212,6571 3225,6575 3237,6581 3251,6585
 3264,6590 3276,6594 3289,6600 3301,6604 3314,6610 3328,6615 3340,6619 3353,6625
 3365,6631 3378,6636 3390,6642 3404,6647 3417,6653 3429,6658 3442,6664 3454,6669
 3467,6675 3479,6681 3493,6686 3506,6692 3518,6699 3531,6704 3543,6710 3556,6717
 3569,6722 3582,6729 3594,6735 3607,6742 3619,6749 3632,6754 3646,6761 3658,6768
 3671,6775 3683,6782 3696,6789 3708,6796 3721,6803 3735,6810 3747,6817 3760,6824
 3772,6832 3785,6839 3797,6846 3811,6854 3824,6861 3836,6869 3849,6876 3861,6885
 3874,6893 3887,6901 3900,6908 3912,6917 3925,6925 3937,6933 3950,6942 3962,6951
 3976,6960 3989,6968 4001,6976 4014,6986 4026,6994 4039,7004 4053,7013 4065,7022
 4078,7032 4090,7042 4103,7051 4115,7060 4129,7071 4142,7081 4154,7090 4167,7100
 4179,7110 4192,7121 4204,7131 4218,7142 4231,7151 4243,7163 4256,7174 4268,7185
 4281,7196 4294,7207 4307,7218 4319,7229 4332,7240 4344,7253 4357,7264 4371,7276
 4383,7288 4396,7300 4408,7313 4421,7325 4433,7338 4446,7350 4460,7363 4472,7375
 4485,7388 4497,7401 4510,7414 4522,7428 4536,7442 4549,7456 4561,7469 4574,7483
 4586,7497 4599,7511 4611,7525 4625,7540 4637,7554 4650,7569 4662,7585 4675,7600
 4687,7615 4701,7631 4714,7646 4726,7663 4739,7678 4751,7694 4764,7710 4778,7726
 4790,7743 4803,7760 4815,7776 4828,7794 4840,7811 4853,7829 4867,7846 4879,7864
 4892,7882 4904,7900 4917,7919 4929,7938"
	stroke="#000000" stroke-width="8px" stroke-linejoin="round" stroke-dasharray="40 40"/>
<!-- Line -->
<!-- polyline -->
<polyline points=" -143,6143 -131,6143 -118,6143 -106,6143 -93,6144 -81,6144 -67,6144 -55,6144
 -42,6146 -30,6146 -17,6146 -5,6146 8,6147 22,6147 34,6147 47,6147 59,6149 72,6149
 84,6149 98,6149 111,6150 123,6150 136,6150 148,6151 161,6151 175,6151 187,6151
 200,6153 212,6153 225,6153 237,6154 250,6154 264,6154 276,6156 289,6156 301,6156
 314,6157 326,6157 340,6157 352,6158 365,6158 377,6158 390,6160 402,6160 415,6160
 429,6161 441,6161 454,6161 466,6163 479,6163 491,6163 505,6164 518,6164 530,6165
 543,6165 555,6165 568,6167 582,6167 594,6168 607,6168 619,6168 632,6169 644,6169
 657,6171 670,6171 683,6172 695,6172 708,6174 720,6174 733,6174 747,6175 759,6175
 772,6176 784,6176 797,6178 809,6178 823,6179 836,6179 848,6181 861,6181 873,6182
 886,6182 898,6183 912,6183 925,6185 937,6185 950,6186 962,6188 975,6188 987,6189
 1000,6189 1012,6190 1025,6190 1037,6192 1050,6193 1064,6193 1076,6194 1089,6194
 1101,6196 1114,6197 1126,6197"
	stroke="#000000" stroke-width="8px" stroke-linejoin="round" stroke-dasharray="40 40"/>
<!-- Line -->
<!-- polyline -->
<defs>
<clipPath id="cp2">
	<path clip-rule="evenodd" d="M -471,3981 H 12462 V 7962 H -471 z
		M 5226,6083 5256,6113 5226,6143 5403,6120 5403,6106z
		M 9091,4220 9121,4190 9151,4220 9128,4043 9114,4043z"/>
</clipPath>
</defs>
<polyline points=" 9121,4050 9121,7950" clip-path="url(#cp2)"
	stroke="#000000" stroke-width="8px" stroke-linejoin="round"/>
<!-- Backward arrow to point 9121,4050 -->
<polygon points=" 9151,4220 9121,4070 9091,4220 9121,4190 9151,4220"
	stroke="#000000" stroke-width="8px" stroke-miterlimit="8" fill="#000000"/>
<!-- Line -->
<!-- spline -->
<polyline points=" 6635,6676 6635,6677 6634,6681 6633,6687 6632,6691 6632,6692 6631,6694 6630,6697
 6628,6701 6625,6706 6622,6710 6620,6712 6618,6714 6614,6717 6610,6720 6608,6721
 6607,6721 6605,6722 6600,6724 6595,6725 6591,6726 6587,6726 6585,6726 6584,6726
 6580,6725 6574,6725 6570,6724 6569,6724 6567,6723 6564,6722 6560,6720 6555,6717
 6551,6714 6549,6712 6547,6710 6544,6706 6541,6702 6540,6700 6540,6699 6539,6697
 6537,6692 6536,6686 6535,6682 6535,6679 6535,6676 6535,6675 6536,6671 6536,6666
 6537,6662 6537,6661 6538,6659 6539,6656 6541,6652 6544,6647 6547,6643 6549,6641
 6551,6639 6555,6636 6559,6633 6561,6632 6562,6632 6564,6631 6569,6629 6575,6627
 6579,6627 6582,6626 6585,6626 6586,6626 6590,6627 6595,6628 6599,6629 6600,6629
 6602,6630 6605,6631 6609,6633 6614,6636 6618,6639 6620,6641 6622,6643 6625,6647
 6628,6651 6629,6653 6629,6654 6630,6656 6632,6661 6634,6666 6634,6670 6635,6674
 6635,6676"
	stroke="#000000" stroke-width="8px" stroke-linejoin="bevel"/>
<!-- Line -->
<!-- spline -->
<polyline points=" 6829,5629 6829,5630 6828,5634 6828,5640 6827,5644 6827,5645 6826,5647 6825,5650
 6823,5654 6820,5659 6817,5663 6815,5665 6813,5667 6809,5670 6805,5673 6803,5674
 6802,5674 6800,5675 6795,5677 6789,5678 6785,5679 6782,5679 6779,5679 6778,5679
 6774,5678 6768,5678 6764,5677 6763,5677 6761,5676 6758,5675 6754,5673 6750,5670
 6746,5667 6744,5665 6742,5663 6739,5659 6736,5655 6735,5653 6735,5652 6734,5650
 6732,5645 6730,5639 6730,5635 6729,5632 6729,5629 6729,5628 6730,5624 6731,5618
 6732,5614 6732,5613 6733,5611 6734,5608 6736,5604 6739,5600 6742,5596 6744,5594
 6746,5592 6750,5589 6754,5586 6756,5585 6758,5584 6763,5582 6768,5580 6773,5580
 6776,5579 6779,5579 6780,5579 6784,5580 6790,5581 6794,5582 6795,5582 6797,5583
 6800,5584 6804,5586 6809,5589 6813,5592 6815,5594 6817,5596 6820,5600 6823,5604
 6824,5606 6825,5608 6827,5613 6828,5618 6829,5623 6829,5626 6829,5629"
	stroke="#000000" stroke-width="8px" stroke-linejoin="bevel"/>
<!-- Line -->
<!-- spline -->
<polyline points=" 7025,5033 7025,5034 7024,5038 7023,5044 7022,5048 7022,5049 7021,5051 7020,5054
 7018,5058 7015,5063 7012,5067 7011,5069 7010,5069 7009,5071 7005,5074 7001,5077
 6999,5078 6998,5078 6996,5079 6991,5081 6985,5082 6981,5083 6978,5083 6975,5083
 6974,5083 6970,5082 6964,5082 6960,5081 6959,5081 6957,5080 6953,5079 6950,5077
 6945,5074 6941,5071 6940,5069 6939,5069 6938,5067 6935,5063 6932,5059 6931,5057
 6931,5056 6930,5054 6928,5049 6926,5043 6926,5039 6925,5036 6925,5033 6925,5032
 6926,5028 6927,5023 6928,5019 6928,5018 6929,5016 6930,5013 6932,5009 6935,5004
 6938,5000 6939,4998 6940,4998 6941,4996 6945,4993 6949,4990 6951,4989 6952,4989
 6954,4988 6959,4986 6965,4984 6969,4984 6972,4983 6975,4983 6976,4983 6980,4984
 6986,4985 6990,4986 6991,4986 6993,4987 6997,4988 7000,4990 7005,4993 7009,4996
 7010,4998 7011,4998 7012,5000 7015,5004 7018,5008 7019,5010 7019,5011 7020,5013
 7022,5018 7024,5023 7024,5027 7025,5031 7025,5033"
	stroke="#000000" stroke-width="8px" stroke-linejoin="bevel"/>
<!-- Line -->
<!-- spline -->
<polyline points=" 7219,4972 7219,4973 7218,4977 7218,4983 7217,4987 7217,4988 7216,4990 7215,4993
 7213,4997 7210,5002 7207,5006 7205,5008 7203,5010 7199,5013 7195,5016 7193,5017
 7192,5017 7190,5018 7185,5020 7179,5021 7175,5022 7172,5022 7169,5022 7168,5022
 7164,5021 7159,5021 7155,5020 7154,5020 7152,5019 7149,5018 7145,5016 7140,5013
 7136,5010 7134,5008 7132,5006 7129,5002 7126,4998 7125,4996 7125,4995 7124,4993
 7122,4988 7120,4982 7120,4978 7119,4975 7119,4972 7119,4971 7120,4967 7121,4961
 7122,4957 7122,4956 7123,4954 7124,4951 7126,4947 7129,4943 7132,4939 7134,4937
 7136,4935 7140,4932 7144,4929 7146,4928 7147,4928 7149,4927 7154,4925 7159,4923
 7163,4923 7167,4922 7169,4922 7170,4922 7174,4923 7180,4924 7184,4925 7185,4925
 7187,4926 7190,4927 7194,4929 7199,4932 7203,4935 7205,4937 7207,4939 7210,4943
 7213,4947 7214,4949 7215,4951 7217,4956 7218,4961 7219,4966 7219,4969 7219,4972
"
	stroke="#000000" stroke-width="8px" stroke-linejoin="bevel"/>
<!-- Line -->
<!-- spline -->
<polyline points=" 7415,5324 7415,5325 7414,5329 7414,5334 7413,5338 7413,5339 7412,5341 7411,5344
 7409,5348 7406,5353 7403,5357 7401,5359 7399,5361 7395,5364 7391,5367 7389,5368
 7388,5368 7386,5369 7381,5371 7375,5373 7371,5373 7368,5374 7365,5374 7364,5374
 7360,5373 7355,5372 7351,5371 7350,5371 7348,5370 7345,5369 7341,5367 7336,5364
 7332,5361 7330,5359 7328,5357 7325,5353 7322,5349 7321,5347 7321,5346 7320,5344
 7318,5339 7316,5334 7316,5330 7315,5326 7315,5324 7315,5323 7316,5319 7317,5313
 7318,5309 7318,5308 7319,5306 7320,5303 7322,5299 7325,5294 7328,5290 7330,5288
 7332,5286 7336,5283 7340,5280 7342,5279 7343,5279 7345,5278 7350,5276 7355,5275
 7359,5274 7363,5274 7365,5274 7366,5274 7370,5275 7376,5275 7380,5276 7381,5276
 7383,5277 7386,5278 7390,5280 7395,5283 7399,5286 7401,5288 7403,5290 7406,5294
 7409,5298 7410,5300 7410,5301 7411,5303 7413,5308 7414,5314 7415,5318 7415,5321
 7415,5324"
	stroke="#000000" stroke-width="8px" stroke-linejoin="bevel"/>
<!-- Line -->
<!-- spline -->
<polyline points=" 7610,5854 7610,5855 7609,5859 7608,5865 7607,5869 7607,5870 7606,5872 7605,5875
 7603,5879 7600,5884 7597,5888 7595,5890 7593,5892 7589,5895 7585,5898 7583,5899
 7582,5899 7580,5900 7575,5902 7570,5903 7566,5904 7562,5904 7560,5904 7559,5904
 7555,5903 7549,5903 7545,5902 7544,5902 7542,5901 7539,5900 7535,5898 7530,5895
 7526,5892 7524,5890 7522,5888 7519,5884 7516,5880 7515,5878 7515,5877 7514,5875
 7512,5870 7511,5864 7510,5860 7510,5857 7510,5854 7510,5853 7511,5849 7511,5843
 7512,5839 7512,5838 7513,5836 7514,5833 7516,5829 7519,5825 7522,5821 7524,5819
 7526,5817 7530,5814 7534,5811 7536,5810 7537,5810 7539,5809 7544,5807 7550,5805
 7554,5805 7557,5804 7560,5804 7561,5804 7565,5805 7570,5806 7574,5807 7575,5807
 7577,5808 7580,5809 7584,5811 7589,5814 7593,5817 7595,5819 7597,5821 7600,5825
 7603,5829 7604,5831 7605,5833 7607,5838 7609,5843 7609,5848 7610,5851 7610,5854
"
	stroke="#000000" stroke-width="8px" stroke-linejoin="bevel"/>
<!-- Line -->
<!-- spline -->
<polyline points=" 7806,6332 7806,6333 7805,6337 7804,6343 7803,6347 7803,6348 7802,6350 7801,6353
 7799,6357 7796,6361 7793,6365 7791,6367 7789,6369 7785,6372 7781,6375 7779,6376
 7778,6376 7776,6377 7771,6379 7766,6381 7762,6381 7758,6382 7756,6382 7755,6382
 7751,6381 7745,6380 7741,6379 7740,6379 7738,6378 7735,6377 7731,6375 7726,6372
 7722,6369 7720,6367 7718,6365 7715,6361 7712,6357 7711,6355 7710,6353 7708,6348
 7707,6343 7706,6338 7706,6335 7706,6332 7706,6331 7707,6327 7707,6321 7708,6317
 7708,6316 7709,6314 7710,6310 7712,6307 7715,6302 7718,6298 7720,6297 7720,6296
 7722,6295 7726,6292 7730,6289 7732,6288 7733,6288 7735,6287 7740,6285 7746,6283
 7750,6283 7753,6282 7756,6282 7757,6282 7761,6283 7766,6284 7770,6285 7771,6285
 7773,6286 7776,6287 7780,6289 7785,6292 7789,6295 7791,6296 7791,6297 7793,6298
 7796,6302 7799,6306 7800,6308 7800,6309 7801,6311 7803,6316 7805,6322 7805,6326
 7806,6329 7806,6332"
	stroke="#000000" stroke-width="8px" stroke-linejoin="bevel"/>
<!-- Line -->
<!-- spline -->
<polyline points=" 8000,6604 8000,6605 7999,6609 7998,6615 7997,6619 7997,6620 7996,6622 7995,6625
 7993,6629 7990,6634 7987,6638 7986,6640 7985,6640 7984,6642 7980,6645 7976,6648
 7974,6649 7973,6649 7971,6650 7966,6652 7960,6653 7956,6654 7953,6654 7950,6654
 7949,6654 7945,6653 7939,6653 7935,6652 7934,6652 7932,6651 7928,6650 7925,6648
 7920,6645 7916,6642 7915,6640 7914,6640 7913,6638 7910,6634 7907,6630 7906,6628
 7906,6627 7905,6625 7903,6620 7901,6614 7901,6610 7900,6607 7900,6604 7900,6603
 7901,6599 7902,6593 7903,6589 7903,6588 7904,6586 7905,6583 7907,6579 7910,6575
 7913,6571 7914,6569 7915,6569 7916,6567 7920,6564 7924,6561 7926,6560 7927,6560
 7929,6559 7934,6557 7940,6555 7944,6555 7947,6554 7950,6554 7951,6554 7955,6555
 7961,6556 7965,6557 7966,6557 7968,6558 7972,6559 7975,6561 7980,6564 7984,6567
 7985,6569 7986,6569 7987,6571 7990,6575 7993,6579 7994,6581 7995,6583 7997,6588
 7999,6593 7999,6598 8000,6601 8000,6604"
	stroke="#000000" stroke-width="8px" stroke-linejoin="bevel"/>
<!-- Line -->
<!-- spline -->
<polyline points=" 8196,6632 8196,6633 8195,6637 8194,6643 8193,6647 8193,6648 8192,6650 8191,6653
 8189,6657 8186,6661 8183,6665 8181,6667 8179,6669 8175,6672 8171,6675 8169,6676
 8167,6677 8162,6679 8157,6681 8152,6681 8149,6682 8146,6682 8145,6682 8141,6681
 8135,6680 8131,6679 8130,6679 8128,6678 8125,6677 8121,6675 8116,6672 8112,6669
 8110,6667 8108,6665 8105,6661 8102,6657 8101,6655 8100,6653 8098,6648 8097,6643
 8096,6638 8096,6635 8096,6632 8096,6631 8097,6627 8097,6621 8098,6617 8098,6616
 8099,6614 8100,6610 8102,6607 8105,6602 8108,6598 8110,6597 8110,6596 8112,6595
 8116,6592 8120,6589 8122,6588 8123,6588 8125,6587 8130,6585 8136,6583 8140,6583
 8143,6582 8146,6582 8147,6582 8151,6583 8157,6584 8161,6585 8162,6585 8164,6586
 8167,6587 8171,6589 8175,6592 8179,6595 8181,6596 8181,6597 8183,6598 8186,6602
 8189,6606 8190,6608 8190,6609 8191,6611 8193,6616 8195,6622 8195,6626 8196,6629
 8196,6632"
	stroke="#000000" stroke-width="8px" stroke-linejoin="bevel"/>
<!-- Line -->
<!-- spline -->
<polyline points=" 8390,6471 8390,6472 8389,6476 8389,6482 8388,6486 8388,6487 8387,6489 8386,6492
 8384,6496 8381,6500 8378,6504 8376,6506 8374,6508 8370,6511 8366,6514 8364,6515
 8363,6515 8361,6516 8356,6518 8350,6520 8346,6520 8343,6521 8340,6521 8339,6521
 8335,6520 8330,6519 8326,6518 8325,6518 8323,6517 8320,6516 8316,6514 8311,6511
 8307,6508 8305,6506 8303,6504 8300,6500 8297,6496 8296,6494 8295,6492 8293,6487
 8291,6482 8291,6477 8290,6474 8290,6471 8290,6470 8291,6466 8292,6460 8293,6456
 8293,6455 8294,6453 8295,6450 8297,6446 8300,6441 8303,6437 8305,6435 8307,6433
 8311,6430 8315,6427 8317,6426 8318,6426 8320,6425 8325,6423 8330,6422 8334,6421
 8338,6421 8340,6421 8341,6421 8345,6422 8351,6422 8355,6423 8356,6423 8358,6424
 8361,6425 8365,6427 8370,6430 8374,6433 8376,6435 8378,6437 8381,6441 8384,6445
 8385,6447 8385,6448 8386,6450 8388,6455 8389,6461 8390,6465 8390,6468 8390,6471
"
	stroke="#000000" stroke-width="8px" stroke-linejoin="bevel"/>
<!-- Line -->
<!-- spline -->
<polyline points=" 8586,6229 8586,6230 8585,6234 8585,6240 8584,6244 8584,6245 8583,6247 8581,6250
 8579,6254 8576,6259 8573,6263 8572,6265 8571,6265 8570,6267 8566,6270 8562,6273
 8560,6274 8559,6274 8557,6275 8552,6277 8546,6278 8542,6279 8539,6279 8536,6279
 8535,6279 8531,6278 8525,6278 8521,6277 8520,6277 8518,6276 8515,6275 8511,6273
 8507,6270 8503,6267 8501,6265 8499,6263 8496,6259 8493,6255 8492,6253 8492,6252
 8491,6250 8489,6245 8487,6239 8487,6235 8486,6232 8486,6229 8486,6228 8487,6224
 8488,6218 8489,6214 8489,6213 8490,6211 8491,6208 8493,6204 8496,6200 8499,6196
 8501,6194 8503,6192 8507,6189 8511,6186 8513,6185 8515,6184 8520,6182 8525,6180
 8530,6180 8533,6179 8536,6179 8537,6179 8541,6180 8547,6181 8551,6182 8552,6182
 8554,6183 8558,6184 8561,6186 8566,6189 8570,6192 8571,6194 8572,6194 8573,6196
 8576,6200 8579,6204 8580,6206 8581,6206 8582,6208 8584,6213 8585,6218 8586,6223
 8586,6226 8586,6229"
	stroke="#000000" stroke-width="8px" stroke-linejoin="bevel"/>
<!-- Line -->
<!-- spline -->
<polyline points=" 8781,6011 8781,6012 8780,6016 8779,6022 8778,6026 8778,6027 8777,6029 8776,6033
 8774,6036 8771,6041 8768,6045 8766,6046 8766,6047 8764,6048 8760,6051 8756,6054
 8754,6055 8753,6056 8751,6057 8746,6059 8741,6060 8737,6061 8733,6061 8731,6061
 8730,6061 8726,6060 8720,6060 8716,6059 8715,6059 8713,6058 8710,6056 8706,6054
 8701,6051 8697,6048 8695,6047 8695,6046 8693,6045 8690,6041 8687,6037 8686,6035
 8686,6034 8685,6032 8683,6027 8682,6021 8681,6017 8681,6014 8681,6011 8681,6010
 8682,6006 8682,6000 8683,5996 8683,5995 8684,5993 8685,5990 8687,5986 8690,5982
 8693,5978 8695,5976 8697,5974 8701,5971 8705,5968 8707,5967 8708,5967 8710,5966
 8715,5964 8721,5962 8725,5962 8728,5961 8731,5961 8732,5961 8736,5962 8741,5963
 8745,5964 8746,5964 8748,5965 8751,5966 8755,5968 8760,5971 8764,5974 8766,5976
 8768,5978 8771,5982 8774,5986 8775,5988 8776,5990 8778,5995 8780,6000 8780,6005
 8781,6008 8781,6011"
	stroke="#000000" stroke-width="8px" stroke-linejoin="bevel"/>
<!-- Line -->
<!-- spline -->
<polyline points=" 8976,5888 8976,5889 8975,5893 8975,5898 8974,5902 8974,5903 8973,5905 8972,5908
 8970,5912 8967,5917 8964,5921 8962,5923 8960,5925 8956,5928 8952,5931 8950,5932
 8949,5932 8947,5933 8942,5935 8936,5937 8932,5937 8929,5938 8926,5938 8925,5938
 8921,5937 8916,5936 8912,5935 8911,5935 8909,5934 8906,5933 8902,5931 8897,5928
 8893,5925 8891,5923 8889,5921 8886,5917 8883,5913 8882,5911 8882,5910 8881,5908
 8879,5903 8877,5898 8877,5894 8876,5890 8876,5888 8876,5887 8877,5883 8878,5877
 8879,5873 8879,5872 8880,5870 8881,5867 8883,5863 8886,5858 8889,5854 8891,5852
 8893,5850 8897,5847 8901,5844 8903,5843 8904,5843 8906,5842 8911,5840 8916,5839
 8920,5838 8924,5838 8926,5838 8927,5838 8931,5839 8937,5839 8941,5840 8942,5840
 8944,5841 8947,5842 8951,5844 8956,5847 8960,5850 8962,5852 8964,5854 8967,5858
 8970,5862 8971,5864 8971,5865 8972,5867 8974,5872 8975,5878 8976,5882 8976,5885
 8976,5888"
	stroke="#000000" stroke-width="8px" stroke-linejoin="bevel"/>
<!-- Line -->
<!-- spline -->
<polyline points=" 9171,5875 9171,5876 9170,5880 9169,5886 9168,5890 9168,5891 9167,5893 9166,5897
 9164,5900 9161,5905 9158,5909 9156,5910 9156,5911 9154,5912 9150,5915 9146,5918
 9144,5919 9142,5920 9137,5922 9132,5924 9127,5924 9124,5925 9121,5925 9120,5925
 9116,5924 9110,5923 9106,5922 9105,5922 9103,5921 9100,5920 9096,5918 9091,5915
 9087,5912 9085,5911 9085,5910 9083,5909 9080,5905 9077,5901 9076,5899 9076,5898
 9075,5896 9073,5891 9072,5885 9071,5881 9071,5878 9071,5875 9071,5874 9072,5870
 9072,5864 9073,5860 9073,5859 9074,5857 9075,5853 9077,5850 9080,5845 9083,5841
 9085,5840 9085,5839 9087,5838 9091,5835 9095,5832 9097,5831 9098,5831 9100,5830
 9105,5828 9111,5826 9115,5826 9118,5825 9121,5825 9122,5825 9126,5826 9132,5827
 9136,5828 9137,5828 9139,5829 9142,5830 9146,5832 9150,5835 9154,5838 9156,5839
 9156,5840 9158,5841 9161,5845 9164,5849 9165,5851 9165,5852 9166,5854 9168,5859
 9170,5865 9170,5869 9171,5872 9171,5875"
	stroke="#000000" stroke-width="8px" stroke-linejoin="bevel"/>
<!-- Line -->
<!-- spline -->
<polyline points=" 9367,5947 9367,5948 9366,5952 9365,5958 9364,5962 9364,5963 9363,5965 9362,5968
 9360,5972 9357,5977 9354,5981 9352,5983 9350,5985 9346,5988 9342,5991 9340,5992
 9339,5992 9337,5993 9332,5995 9327,5996 9323,5997 9319,5997 9317,5997 9316,5997
 9312,5996 9306,5996 9302,5995 9301,5995 9299,5994 9296,5993 9292,5991 9287,5988
 9283,5985 9281,5983 9279,5981 9276,5977 9273,5973 9272,5971 9272,5970 9271,5968
 9269,5963 9268,5957 9267,5953 9267,5950 9267,5947 9267,5946 9268,5942 9268,5936
 9269,5932 9269,5931 9270,5929 9271,5926 9273,5922 9276,5918 9279,5914 9281,5912
 9283,5910 9287,5907 9291,5904 9293,5903 9294,5903 9296,5902 9301,5900 9307,5898
 9311,5898 9314,5897 9317,5897 9318,5897 9322,5898 9327,5899 9331,5900 9332,5900
 9334,5901 9337,5902 9341,5904 9346,5907 9350,5910 9352,5912 9354,5914 9357,5918
 9360,5922 9361,5924 9362,5926 9364,5931 9366,5936 9366,5941 9367,5944 9367,5947
"
	stroke="#000000" stroke-width="8px" stroke-linejoin="bevel"/>
<!-- Line -->
<!-- spline -->
<polyline points=" 9561,6058 9561,6059 9560,6063 9560,6069 9559,6073 9559,6074 9558,6076 9556,6079
 9554,6083 9551,6088 9548,6092 9547,6094 9546,6094 9545,6096 9541,6099 9537,6102
 9535,6103 9534,6103 9532,6104 9527,6106 9521,6107 9517,6108 9514,6108 9511,6108
 9510,6108 9506,6107 9500,6107 9496,6106 9495,6106 9493,6105 9490,6104 9486,6102
 9482,6099 9478,6096 9476,6094 9474,6092 9471,6088 9468,6084 9467,6082 9467,6081
 9466,6079 9464,6074 9462,6068 9462,6064 9461,6061 9461,6058 9461,6057 9462,6053
 9463,6048 9464,6044 9464,6043 9465,6041 9466,6038 9468,6034 9471,6029 9474,6025
 9476,6023 9478,6021 9482,6018 9486,6015 9488,6014 9490,6013 9495,6011 9500,6009
 9505,6009 9508,6008 9511,6008 9512,6008 9516,6009 9522,6010 9526,6011 9527,6011
 9529,6012 9533,6013 9536,6015 9541,6018 9545,6021 9546,6023 9547,6023 9548,6025
 9551,6029 9554,6033 9555,6035 9556,6036 9557,6038 9559,6043 9560,6048 9561,6052
 9561,6056 9561,6058"
	stroke="#000000" stroke-width="8px" stroke-linejoin="bevel"/>
<!-- Line -->
<!-- spline -->
<polyline points=" 9757,6157 9757,6158 9756,6162 9755,6168 9754,6172 9754,6173 9753,6175 9752,6178
 9750,6182 9747,6186 9744,6190 9742,6192 9740,6194 9736,6197 9732,6200 9730,6201
 9728,6202 9723,6204 9718,6206 9713,6206 9710,6207 9707,6207 9706,6207 9702,6206
 9696,6205 9692,6204 9691,6204 9689,6203 9685,6202 9682,6200 9677,6197 9673,6194
 9672,6192 9671,6192 9670,6190 9667,6186 9664,6182 9663,6180 9662,6178 9660,6173
 9658,6168 9658,6163 9657,6160 9657,6157 9657,6156 9658,6152 9659,6146 9660,6142
 9660,6141 9661,6139 9662,6135 9664,6132 9667,6127 9670,6123 9671,6122 9672,6121
 9673,6120 9677,6117 9681,6114 9683,6113 9684,6113 9686,6112 9691,6110 9697,6108
 9701,6108 9704,6107 9707,6107 9708,6107 9712,6108 9718,6109 9722,6110 9723,6110
 9725,6111 9728,6112 9732,6114 9736,6117 9740,6120 9742,6121 9742,6122 9744,6123
 9747,6127 9750,6131 9751,6133 9751,6134 9752,6136 9754,6141 9756,6147 9756,6151
 9757,6154 9757,6157"
	stroke="#000000" stroke-width="8px" stroke-linejoin="bevel"/>
<!-- Line -->
<!-- spline -->
<polyline points=" 9951,6214 9951,6215 9950,6219 9950,6225 9949,6229 9949,6230 9948,6232 9947,6235
 9945,6239 9942,6243 9939,6247 9937,6249 9935,6251 9931,6254 9927,6257 9925,6258
 9924,6258 9922,6259 9917,6261 9911,6263 9907,6263 9904,6264 9901,6264 9900,6264
 9896,6263 9891,6262 9887,6261 9886,6261 9884,6260 9881,6259 9877,6257 9872,6254
 9868,6251 9866,6249 9864,6247 9861,6243 9858,6239 9857,6237 9856,6235 9854,6230
 9852,6225 9852,6220 9851,6217 9851,6214 9851,6213 9852,6209 9853,6203 9854,6199
 9854,6198 9855,6196 9856,6192 9858,6189 9861,6184 9864,6180 9866,6179 9866,6178
 9868,6177 9872,6174 9876,6171 9878,6170 9879,6169 9881,6168 9886,6166 9891,6165
 9895,6164 9899,6164 9901,6164 9902,6164 9906,6165 9912,6165 9916,6166 9917,6166
 9919,6167 9922,6169 9926,6171 9931,6174 9935,6177 9937,6178 9937,6179 9939,6180
 9942,6184 9945,6188 9946,6190 9946,6191 9947,6193 9949,6198 9950,6204 9951,6208
 9951,6211 9951,6214"
	stroke="#000000" stroke-width="8px" stroke-linejoin="bevel"/>
<!-- Line -->
<!-- spline -->
<polyline points=" 10147,6219 10147,6220 10146,6224 10146,6230 10145,6234 10145,6235 10144,6237
 10143,6240 10141,6244 10138,6249 10135,6253 10133,6255 10131,6257 10127,6260
 10123,6263 10121,6264 10120,6264 10118,6265 10113,6267 10107,6268 10103,6269
 10100,6269 10097,6269 10096,6269 10092,6268 10086,6268 10082,6267 10081,6267
 10079,6266 10076,6265 10072,6263 10068,6260 10064,6257 10062,6255 10060,6253
 10057,6249 10054,6245 10053,6243 10053,6242 10052,6240 10050,6235 10048,6229
 10048,6225 10047,6222 10047,6219 10047,6218 10048,6214 10049,6209 10050,6205
 10050,6204 10051,6202 10052,6199 10054,6195 10057,6190 10060,6186 10062,6184
 10064,6182 10068,6179 10072,6176 10074,6175 10076,6174 10081,6172 10086,6170
 10091,6170 10094,6169 10097,6169 10098,6169 10102,6170 10108,6171 10112,6172
 10113,6172 10115,6173 10118,6174 10122,6176 10127,6179 10131,6182 10133,6184
 10135,6186 10138,6190 10141,6194 10142,6196 10142,6197 10143,6199 10145,6204
 10146,6209 10147,6213 10147,6217 10147,6219"
	stroke="#000000" stroke-width="8px" stroke-linejoin="bevel"/>
<!-- Line -->
<!-- spline -->
<polyline points=" 10342,6186 10342,6187 10341,6191 10340,6197 10339,6201 10339,6202 10338,6204
 10337,6208 10335,6211 10332,6216 10329,6220 10327,6221 10327,6222 10325,6223
 10321,6226 10317,6229 10315,6230 10314,6231 10312,6232 10307,6234 10302,6235
 10298,6236 10294,6236 10292,6236 10291,6236 10287,6235 10281,6235 10277,6234
 10276,6234 10274,6233 10271,6231 10267,6229 10262,6226 10258,6223 10256,6222
 10256,6221 10254,6220 10251,6216 10248,6212 10247,6210 10247,6209 10246,6207
 10244,6202 10243,6196 10242,6192 10242,6189 10242,6186 10242,6185 10243,6181
 10243,6175 10244,6171 10244,6170 10245,6168 10246,6165 10248,6161 10251,6157
 10254,6153 10256,6151 10258,6149 10262,6146 10266,6143 10268,6142 10269,6142
 10271,6141 10276,6139 10282,6137 10286,6137 10289,6136 10292,6136 10293,6136
 10297,6137 10302,6138 10306,6139 10307,6139 10309,6140 10312,6141 10316,6143
 10321,6146 10325,6149 10327,6151 10329,6153 10332,6157 10335,6161 10336,6163
 10337,6165 10339,6170 10341,6175 10341,6180 10342,6183 10342,6186"
	stroke="#000000" stroke-width="8px" stroke-linejoin="bevel"/>
<!-- Line -->
<!-- spline -->
<polyline points=" 10537,6136 10537,6137 10536,6141 10536,6147 10535,6151 10535,6152 10534,6154
 10533,6158 10531,6161 10528,6166 10525,6170 10523,6171 10523,6172 10521,6173
 10517,6176 10513,6179 10511,6180 10510,6181 10508,6182 10503,6184 10497,6185
 10493,6186 10490,6186 10487,6186 10486,6186 10482,6185 10477,6185 10473,6184
 10472,6184 10470,6183 10467,6181 10463,6179 10458,6176 10454,6173 10452,6172
 10452,6171 10450,6170 10447,6166 10444,6162 10443,6160 10443,6159 10442,6157
 10440,6152 10438,6146 10438,6142 10437,6139 10437,6136 10437,6135 10438,6131
 10439,6125 10440,6121 10440,6120 10441,6118 10442,6115 10444,6111 10447,6107
 10450,6103 10452,6101 10454,6099 10458,6096 10462,6093 10464,6092 10465,6092
 10467,6091 10472,6089 10477,6087 10481,6087 10485,6086 10487,6086 10488,6086
 10492,6087 10498,6088 10502,6089 10503,6089 10505,6090 10508,6091 10512,6093
 10517,6096 10521,6099 10523,6101 10525,6103 10528,6107 10531,6111 10532,6113
 10533,6115 10535,6120 10536,6125 10537,6130 10537,6133 10537,6136"
	stroke="#000000" stroke-width="8px" stroke-linejoin="bevel"/>
<!-- Line -->
<!-- spline -->
<polyline points=" 10732,6090 10732,6091 10731,6095 10730,6101 10729,6105 10729,6106 10728,6108
 10727,6111 10725,6115 10722,6120 10719,6124 10717,6126 10715,6128 10711,6131
 10707,6134 10705,6135 10703,6136 10698,6138 10693,6139 10688,6140 10685,6140
 10682,6140 10681,6140 10677,6139 10671,6139 10667,6138 10666,6138 10664,6137
 10660,6136 10657,6134 10652,6131 10648,6128 10647,6126 10646,6126 10645,6124
 10642,6120 10639,6116 10638,6114 10638,6113 10637,6111 10635,6106 10633,6100
 10633,6096 10632,6093 10632,6090 10632,6089 10633,6085 10634,6080 10635,6076
 10635,6075 10636,6073 10637,6070 10639,6066 10642,6061 10645,6057 10646,6055
 10647,6055 10648,6053 10652,6050 10656,6047 10658,6046 10659,6046 10661,6045
 10666,6043 10672,6041 10676,6041 10679,6040 10682,6040 10683,6040 10687,6041
 10693,6042 10697,6043 10698,6043 10700,6044 10703,6045 10707,6047 10711,6050
 10715,6053 10717,6055 10719,6057 10722,6061 10725,6065 10726,6067 10726,6068
 10727,6070 10729,6075 10731,6080 10731,6084 10732,6088 10732,6090"
	stroke="#000000" stroke-width="8px" stroke-linejoin="bevel"/>
<!-- Line -->
<!-- spline -->
<polyline points=" 10928,6065 10928,6066 10927,6070 10926,6076 10925,6080 10925,6081 10924,6083
 10923,6086 10921,6090 10918,6095 10915,6099 10913,6101 10911,6103 10907,6106
 10903,6109 10901,6110 10899,6111 10894,6113 10889,6114 10884,6115 10881,6115
 10878,6115 10877,6115 10873,6114 10867,6114 10863,6113 10862,6113 10860,6112
 10857,6111 10853,6109 10848,6106 10844,6103 10842,6101 10840,6099 10837,6095
 10834,6091 10833,6089 10833,6088 10832,6086 10830,6081 10829,6075 10828,6071
 10828,6068 10828,6065 10828,6064 10829,6060 10829,6055 10830,6051 10830,6050
 10831,6048 10832,6045 10834,6041 10837,6036 10840,6032 10842,6030 10844,6028
 10848,6025 10852,6022 10854,6021 10855,6021 10857,6020 10862,6018 10868,6016
 10872,6016 10875,6015 10878,6015 10879,6015 10883,6016 10889,6017 10893,6018
 10894,6018 10896,6019 10899,6020 10903,6022 10907,6025 10911,6028 10913,6030
 10915,6032 10918,6036 10921,6040 10922,6042 10922,6043 10923,6045 10925,6050
 10927,6055 10927,6059 10928,6063 10928,6065"
	stroke="#000000" stroke-width="8px" stroke-linejoin="bevel"/>
<!-- Line -->
<!-- spline -->
<polyline points=" 11122,6063 11122,6064 11121,6068 11121,6073 11120,6077 11120,6078 11119,6080
 11118,6083 11116,6087 11113,6092 11110,6096 11108,6098 11106,6100 11102,6103
 11098,6106 11096,6107 11095,6107 11093,6108 11088,6110 11082,6112 11078,6112
 11075,6113 11072,6113 11071,6113 11067,6112 11061,6111 11057,6110 11056,6110
 11054,6109 11051,6108 11047,6106 11043,6103 11039,6100 11037,6098 11035,6096
 11032,6092 11029,6088 11028,6086 11028,6085 11027,6083 11025,6078 11023,6073
 11023,6069 11022,6065 11022,6063 11022,6062 11023,6058 11024,6052 11025,6048
 11025,6047 11026,6045 11027,6042 11029,6038 11032,6033 11035,6029 11037,6027
 11039,6025 11043,6022 11047,6019 11049,6018 11051,6017 11056,6015 11061,6014
 11066,6013 11069,6013 11072,6013 11073,6013 11077,6014 11083,6014 11087,6015
 11088,6015 11090,6016 11093,6017 11097,6019 11102,6022 11106,6025 11108,6027
 11110,6029 11113,6033 11116,6037 11117,6039 11117,6040 11118,6042 11120,6047
 11121,6053 11122,6057 11122,6060 11122,6063"
	stroke="#000000" stroke-width="8px" stroke-linejoin="bevel"/>
<!-- Line -->
<!-- spline -->
<polyline points=" 11318,6078 11318,6079 11317,6083 11316,6089 11315,6093 11315,6094 11314,6096
 11313,6099 11311,6103 11308,6107 11305,6111 11304,6113 11303,6113 11302,6115
 11298,6118 11294,6121 11292,6122 11291,6122 11289,6123 11284,6125 11278,6127
 11274,6127 11271,6128 11268,6128 11267,6128 11263,6127 11257,6126 11253,6125
 11252,6125 11250,6124 11247,6123 11243,6121 11239,6118 11235,6115 11233,6113
 11231,6111 11228,6107 11225,6103 11224,6101 11223,6099 11221,6094 11219,6089
 11219,6084 11218,6081 11218,6078 11218,6077 11219,6073 11220,6067 11221,6063
 11221,6062 11222,6060 11223,6057 11225,6053 11228,6048 11231,6044 11233,6042
 11235,6040 11239,6037 11243,6034 11245,6033 11247,6032 11252,6030 11257,6029
 11262,6028 11265,6028 11268,6028 11269,6028 11273,6029 11279,6029 11283,6030
 11284,6030 11286,6031 11290,6032 11293,6034 11298,6037 11302,6040 11303,6042
 11304,6042 11305,6044 11308,6048 11311,6052 11312,6054 11312,6055 11313,6057
 11315,6062 11317,6068 11317,6072 11318,6075 11318,6078"
	stroke="#000000" stroke-width="8px" stroke-linejoin="bevel"/>
<!-- Line -->
<!-- spline -->
<polyline points=" 11512,6100 11512,6101 11511,6105 11511,6111 11510,6115 11510,6116 11509,6118
 11508,6122 11506,6125 11503,6130 11500,6134 11498,6135 11498,6136 11496,6137
 11492,6140 11488,6143 11486,6144 11485,6144 11483,6145 11478,6147 11472,6149
 11468,6149 11465,6150 11462,6150 11461,6150 11457,6149 11452,6148 11448,6147
 11447,6147 11445,6146 11442,6145 11438,6143 11433,6140 11429,6137 11427,6136
 11427,6135 11425,6134 11422,6130 11419,6126 11418,6124 11418,6123 11417,6121
 11415,6116 11413,6110 11413,6106 11412,6103 11412,6100 11412,6099 11413,6095
 11414,6089 11415,6085 11415,6084 11416,6082 11417,6078 11419,6075 11422,6070
 11425,6066 11427,6065 11427,6064 11429,6063 11433,6060 11437,6057 11439,6056
 11440,6056 11442,6055 11447,6053 11452,6051 11456,6051 11460,6050 11462,6050
 11463,6050 11467,6051 11473,6052 11477,6053 11478,6053 11480,6054 11483,6055
 11487,6057 11492,6060 11496,6063 11498,6064 11498,6065 11500,6066 11503,6070
 11506,6074 11507,6076 11507,6077 11508,6079 11510,6084 11511,6090 11512,6094
 11512,6097 11512,6100"
	stroke="#000000" stroke-width="8px" stroke-linejoin="bevel"/>
<!-- Line -->
<!-- spline -->
<polyline points=" 11708,6121 11708,6122 11707,6126 11707,6132 11706,6136 11706,6137 11705,6139
 11704,6142 11702,6146 11699,6150 11696,6154 11694,6156 11692,6158 11688,6161
 11684,6164 11682,6165 11681,6165 11679,6166 11674,6168 11668,6170 11664,6170
 11661,6171 11658,6171 11657,6171 11653,6170 11648,6169 11644,6168 11643,6168
 11641,6167 11638,6166 11634,6164 11629,6161 11625,6158 11623,6156 11621,6154
 11618,6150 11615,6146 11614,6144 11613,6142 11611,6137 11609,6132 11609,6127
 11608,6124 11608,6121 11608,6120 11609,6116 11610,6110 11611,6106 11611,6105
 11612,6103 11613,6100 11615,6096 11618,6091 11621,6087 11623,6085 11625,6083
 11629,6080 11633,6077 11635,6076 11636,6076 11638,6075 11643,6073 11648,6072
 11652,6071 11656,6071 11658,6071 11659,6071 11663,6072 11669,6072 11673,6073
 11674,6073 11676,6074 11679,6075 11683,6077 11688,6080 11692,6083 11694,6085
 11696,6087 11699,6091 11702,6095 11703,6097 11703,6098 11704,6100 11706,6105
 11707,6111 11708,6115 11708,6118 11708,6121"
	stroke="#000000" stroke-width="8px" stroke-linejoin="bevel"/>
<!-- Line -->
<!-- polyline -->
<polyline points=" 6585,6113 6585,6676"
	stroke="#000000" stroke-width="15px" stroke-linejoin="round"/>
<!-- Line -->
<!-- polyline -->
<polyline points=" 6779,6113 6779,5629"
	stroke="#000000" stroke-width="15px" stroke-linejoin="round"/>
<!-- Line -->
<!-- polyline -->
<polyline points=" 6975,6113 6975,5033"
	stroke="#000000" stroke-width="15px" stroke-linejoin="round"/>
<!-- Line -->
<!-- polyline -->
<polyline points=" 7169,6113 7169,4972"
	stroke="#000000" stroke-width="15px" stroke-linejoin="round"/>
<!-- Line -->
<!-- polyline -->
<polyline points=" 7365,6113 7365,5324"
	stroke="#000000" stroke-width="15px" stroke-linejoin="round"/>
<!-- Line -->
<!-- polyline -->
<polyline points=" 7560,6113 7560,5854"
	stroke="#000000" stroke-width="15px" stroke-linejoin="round"/>
<!-- Line -->
<!-- polyline -->
<polyline points=" 7756,6113 7756,6332"
	stroke="#000000" stroke-width="15px" stroke-linejoin="round"/>
<!-- Line -->
<!-- polyline -->
<polyline points=" 7950,6113 7950,6604"
	stroke="#000000" stroke-width="15px" stroke-linejoin="round"/>
<!-- Line -->
<!-- polyline -->
<polyline points=" 8146,6113 8146,6632"
	stroke="#000000" stroke-width="15px" stroke-linejoin="round"/>
<!-- Line -->
<!-- polyline -->
<polyline points=" 8340,6113 8340,6471"
	stroke="#000000" stroke-width="15px" stroke-linejoin="round"/>
<!-- Line -->
<!-- polyline -->
<polyline points=" 8536,6113 8536,6229"
	stroke="#000000" stroke-width="15px" stroke-linejoin="round" stroke-dasharray="40 40"/>
<!-- Line -->
<!-- polyline -->
<polyline points=" 8731,6113 8731,6011"
	stroke="#000000" stroke-width="15px" stroke-linejoin="round"/>
<!-- Line -->
<!-- polyline -->
<polyline points=" 8926,6113 8926,5888"
	stroke="#000000" stroke-width="15px" stroke-linejoin="round"/>
<!-- Line -->
<!-- polyline -->
<polyline points=" 9121,6113 9121,5875"
	stroke="#000000" stroke-width="15px" stroke-linejoin="round"/>
<!-- Line -->
<!-- polyline -->
<polyline points=" 9317,6113 9317,5947"
	stroke="#000000" stroke-width="15px" stroke-linejoin="round"/>
<!-- Line -->
<!-- polyline -->
<polyline points=" 9511,6113 9511,6058"
	stroke="#000000" stroke-width="15px" stroke-linejoin="round"/>
<!-- Line -->
<!-- polyline -->
<polyline points=" 9707,6113 9707,6157"
	stroke="#000000" stroke-width="15px" stroke-linejoin="round"/>
<!-- Line -->
<!-- polyline -->
<polyline points=" 9901,6113 9901,6214"
	stroke="#000000" stroke-width="15px" stroke-linejoin="round"/>
<!-- Line -->
<!-- polyline -->
<polyline points=" 10097,6113 10097,6219"
	stroke="#000000" stroke-width="15px" stroke-linejoin="round"/>
<!-- Line -->
<!-- polyline -->
<polyline points=" 10292,6113 10292,6186"
	stroke="#000000" stroke-width="15px" stroke-linejoin="round"/>
<!-- Line -->
<!-- polyline -->
<polyline points=" 10487,6113 10487,6136"
	stroke="#000000" stroke-width="8px" stroke-linejoin="round"/>
<!-- Line -->
<!-- polyline -->
<polyline points=" 10682,6113 10682,6090"
	stroke="#000000" stroke-width="8px" stroke-linejoin="round"/>
<!-- Line -->
<!-- polyline -->
<polyline points=" 10878,6113 10878,6065"
	stroke="#000000" stroke-width="15px" stroke-linejoin="round"/>
<!-- Line -->
<!-- polyline -->
<polyline points=" 11072,6113 11072,6063"
	stroke="#000000" stroke-width="15px" stroke-linejoin="round"/>
<!-- Line -->
<!-- polyline -->
<polyline points=" 11268,6113 11268,6078"
	stroke="#000000" stroke-width="8px" stroke-linejoin="round"/>
<!-- Line -->
<!-- polyline -->
<polyline points=" 11462,6113 11462,6100"
	stroke="#000000" stroke-width="8px" stroke-linejoin="round"/>
<!-- Line -->
<!-- polyline -->
<polyline points=" 11658,6113 11658,6121"
	stroke="#000000" stroke-width="8px" stroke-linejoin="round"/>
<!-- Line -->
<!-- polyline -->
<defs>
<clipPath id="cp3">
	<path clip-rule="evenodd" d="M -471,3981 H 12462 V 7962 H -471 z
		M 12280,6083 12310,6113 12280,6143 12457,6120 12457,6106z
		M 9091,4220 9121,4190 9151,4220 9128,4043 9114,4043z"/>
</clipPath>
</defs>
<polyline points=" 6450,6113 12450,6113" clip-path="url(#cp3)"
	stroke="#000000" stroke-width="8px" stroke-linejoin="round"/>
<!-- Forward arrow to point 12450,6113 -->
<polygon points=" 12280,6143 12430,6113 12280,6083 12310,6113 12280,6143"
	stroke="#000000" stroke-width="8px" stroke-miterlimit="8" fill="#000000"/>
<!-- Line -->
<!-- polyline -->
<polyline points=" 7856,6503 7868,6519 7881,6536 7894,6551 7907,6565 7919,6578 7932,6589 7944,6600
 7957,6610 7969,6618 7983,6625 7996,6632 8008,6636 8021,6642 8033,6644 8046,6646
 8060,6647 8072,6649 8085,6647 8097,6646 8110,6643 8122,6640 8135,6636 8149,6631
 8161,6625 8174,6618 8186,6611 8199,6603 8211,6593 8225,6583 8237,6574 8250,6563
 8262,6551 8275,6540 8287,6528 8300,6514 8314,6501 8326,6488 8339,6474 8351,6458
 8364,6443 8376,6429 8390,6414 8403,6397 8415,6382 8428,6365 8440,6350 8453,6333
 8465,6318 8479,6301 8492,6285 8504,6269 8517,6253 8529,6236 8542,6221 8556,6204
 8568,6189 8581,6174 8593,6158 8606,6143 8618,6128 8632,6114 8644,6100 8657,6086
 8669,6072 8682,6058 8694,6046 8707,6033 8721,6021 8733,6010 8746,5999 8758,5988
 8771,5976 8783,5967 8797,5957 8810,5949 8822,5939 8835,5931 8847,5924 8860,5917
 8872,5910 8886,5904 8899,5897 8911,5893 8924,5888 8936,5883 8949,5881 8962,5876
 8975,5874 8987,5872 9000,5869 9012,5868 9025,5868 9037,5867 9051,5867 9064,5868
 9076,5868 9089,5869 9101,5871 9114,5874 9128,5876 9140,5879 9153,5882 9165,5885
 9178,5889 9190,5893 9204,5897 9217,5903 9229,5907 9242,5913 9254,5918 9267,5924
 9279,5929 9293,5936 9306,5942 9318,5949 9331,5956 9343,5963 9356,5969 9369,5976
 9382,5983 9394,5990 9407,5997 9419,6006 9432,6013 9444,6019 9458,6028 9471,6035
 9483,6042 9496,6050 9508,6057 9521,6064 9535,6071 9547,6079 9560,6086 9572,6093
 9585,6100 9597,6106 9610,6113 9624,6119 9636,6125 9649,6132 9661,6138 9674,6143
 9686,6149 9700,6154 9712,6160 9725,6165 9737,6169 9750,6175 9762,6179 9776,6183
 9789,6188 9801,6192 9814,6194 9826,6199 9839,6201 9851,6204 9865,6207 9878,6210
 9890,6213 9903,6214 9915,6217 9928,6218 9942,6219 9954,6221 9967,6221 9979,6222
 9992,6222 10004,6224 10017,6224 10031,6224 10043,6224 10056,6222 10068,6222 10081,6221
 10093,6221 10107,6219 10119,6218 10132,6217 10144,6215 10157,6213 10169,6211
 10182,6208 10196,6207 10208,6204 10221,6201 10233,6200 10246,6197 10258,6194
 10272,6192 10285,6189 10297,6185 10310,6182 10322,6179 10335,6176 10347,6172
 10361,6169 10374,6167 10386,6163 10399,6160 10411,6156 10424,6153 10437,6150
 10450,6146 10462,6143 10475,6139 10487,6136 10500,6133 10514,6129 10526,6126
 10539,6124 10551,6119 10564,6117 10576,6114 10589,6111 10603,6108 10615,6104
 10628,6101 10640,6099 10653,6097 10665,6094 10679,6092 10692,6089 10704,6088
 10717,6085 10729,6082 10742,6081 10754,6079 10768,6076 10781,6075 10793,6074
 10806,6072 10818,6071 10831,6069 10844,6068 10857,6067 10869,6065 10882,6065
 10894,6064 10907,6064 10919,6063 10933,6063 10946,6061 10958,6061 10971,6061
 10983,6061 10996,6061 11010,6061 11022,6061 11035,6061 11047,6061 11060,6063
 11072,6063 11086,6063 11099,6064 11111,6064 11124,6065 11136,6065 11149,6067
 11161,6068 11175,6069 11187,6069 11200,6071 11212,6072 11225,6074 11237,6075
 11251,6076 11264,6078 11276,6079 11289,6081 11301,6082 11314,6083 11326,6085
 11340,6086 11353,6088 11365,6089 11378,6090 11390,6092 11403,6093 11417,6094
 11429,6097 11442,6099 11454,6100 11467,6101 11479,6103 11492,6104 11506,6106
 11518,6107 11531,6108 11543,6110 11556,6111 11568,6113 11582,6114 11594,6115
 11607,6117 11619,6118 11632,6119 11644,6121 11658,6121"
	stroke="#000000" stroke-width="8px" stroke-linejoin="round"/>
<!-- Line -->
<!-- polyline -->
<polyline points=" 6585,6676 6597,6600 6610,6524 6622,6449 6635,6375 6647,6301 6660,6229 6674,6158
 6686,6089 6699,6021 6711,5956 6724,5890 6736,5828 6750,5765 6762,5707 6775,5649
 6787,5593 6800,5540 6812,5489 6825,5439 6839,5392 6851,5347 6864,5306 6876,5264
 6889,5226 6901,5190 6915,5157 6928,5126 6940,5099 6953,5072 6965,5049 6978,5026
 6990,5007 7004,4990 7017,4976 7029,4964 7042,4954 7054,4946 7067,4940 7081,4938
 7093,4936 7106,4938 7118,4940 7131,4944 7143,4951 7156,4961 7169,4971 7182,4983
 7194,4999 7207,5014 7219,5032 7232,5050 7246,5071 7258,5093 7271,5117 7283,5140
 7296,5167 7308,5193 7322,5222 7335,5251 7347,5281 7360,5311 7372,5343 7385,5375
 7397,5408 7411,5442 7424,5476 7436,5510 7449,5546 7461,5581 7474,5615 7487,5651
 7500,5686 7512,5722 7525,5758 7537,5793 7550,5829 7562,5864 7576,5899 7589,5933
 7601,5968 7614,6001 7626,6035 7639,6067 7653,6099 7665,6131 7678,6161 7690,6192
 7703,6221 7715,6249 7728,6276 7742,6304 7754,6329 7767,6356 7779,6379 7792,6403
 7804,6425 7818,6446 7831,6465 7843,6485 7856,6503"
	stroke="#000000" stroke-width="8px" stroke-linejoin="round" stroke-dasharray="40 40"/>
<!-- Line -->
<!-- polyline -->
<polyline points=" 7856,5456 7868,5463 7881,5469 7894,5475 7907,5482 7919,5489 7932,5494 7944,5501
 7957,5507 7969,5514 7983,5519 7996,5525 8008,5532 8021,5538 8033,5543 8046,5549
 8060,5554 8072,5560 8085,5565 8097,5571 8110,5576 8122,5582 8135,5588 8149,5593
 8161,5599 8174,5604 8186,5608 8199,5614 8211,5619 8225,5624 8237,5629 8250,5633
 8262,5639 8275,5643 8287,5649 8300,5653 8314,5658 8326,5663 8339,5667 8351,5671
 8364,5676 8376,5681 8390,5685 8403,5689 8415,5693 8428,5697 8440,5701 8453,5706
 8465,5710 8479,5714 8492,5718 8504,5722 8517,5726 8529,5731 8542,5735 8556,5738
 8568,5742 8581,5746 8593,5749 8606,5753 8618,5757 8632,5760 8644,5764 8657,5767
 8669,5771 8682,5774 8694,5778 8707,5781 8721,5785 8733,5788 8746,5792 8758,5794
 8771,5797 8783,5801 8797,5804 8810,5807 8822,5810 8835,5814 8847,5817 8860,5819
 8872,5822 8886,5825 8899,5828 8911,5831 8924,5833 8936,5836 8949,5839 8962,5842
 8975,5844 8987,5847 9000,5850 9012,5853 9025,5856 9037,5858 9051,5861 9064,5864
 9076,5867 9089,5868 9101,5871 9114,5874 9128,5876 9140,5878 9153,5881 9165,5883
 9178,5885 9190,5888 9204,5890 9217,5892 9229,5894 9242,5897 9254,5899 9267,5901
 9279,5903 9293,5906 9306,5907 9318,5910 9331,5911 9343,5914 9356,5915 9369,5918
 9382,5919 9394,5921 9407,5924 9419,5925 9432,5928 9444,5929 9458,5931 9471,5933
 9483,5935 9496,5936 9508,5939 9521,5940 9535,5942 9547,5943 9560,5946 9572,5947
 9585,5949 9597,5950 9610,5951 9624,5954 9636,5956 9649,5957 9661,5958 9674,5960
 9686,5961 9700,5963 9712,5964 9725,5965 9737,5968 9750,5969 9762,5971 9776,5972
 9789,5974 9801,5975 9814,5976 9826,5978 9839,5979 9851,5981 9865,5982 9878,5983
 9890,5985 9903,5985 9915,5986 9928,5988 9942,5989 9954,5990 9967,5992 9979,5993
 9992,5994 10004,5996 10017,5996 10031,5997 10043,5999 10056,6000 10068,6001 10081,6003
 10093,6003 10107,6004 10119,6006 10132,6007 10144,6008 10157,6008 10169,6010
 10182,6011 10196,6013 10208,6013 10221,6014 10233,6015 10246,6015 10258,6017
 10272,6018 10285,6019 10297,6019 10310,6021 10322,6022 10335,6022 10347,6024
 10361,6025 10374,6025 10386,6026 10399,6026 10411,6028 10424,6029 10437,6029
 10450,6031 10462,6031 10475,6032 10487,6033 10500,6033 10514,6035 10526,6035
 10539,6036 10551,6036 10564,6038 10576,6039 10589,6039 10603,6040 10615,6040
 10628,6042 10640,6042 10653,6043 10665,6043 10679,6044 10692,6044 10704,6046
 10717,6046 10729,6047 10742,6047 10754,6049 10768,6049 10781,6050 10793,6050
 10806,6050 10818,6051 10831,6051 10844,6053 10857,6053 10869,6054 10882,6054
 10894,6056 10907,6056 10919,6056 10933,6057 10946,6057 10958,6058 10971,6058
 10983,6058 10996,6060 11010,6060 11022,6061 11035,6061 11047,6061 11060,6063
 11072,6063 11086,6063 11099,6064 11111,6064 11124,6064 11136,6065 11149,6065
 11161,6065 11175,6067 11187,6067 11200,6067 11212,6068 11225,6068 11237,6068
 11251,6069 11264,6069 11276,6069 11289,6071 11301,6071 11314,6071 11326,6072
 11340,6072 11353,6072 11365,6072 11378,6074 11390,6074 11403,6074 11417,6075
 11429,6075 11442,6075 11454,6075 11467,6076 11479,6076 11492,6076 11506,6076
 11518,6078 11531,6078 11543,6078 11556,6078 11568,6079 11582,6079 11594,6079
 11607,6079 11619,6081 11632,6081 11644,6081 11658,6081"
	stroke="#000000" stroke-width="8px" stroke-linejoin="round" stroke-dasharray="40 40"/>
<!-- Line -->
<!-- polyline -->
<polyline points=" 6585,4286 6597,4304 6610,4324 6622,4342 6635,4360 6647,4378 6660,4394 6674,4413
 6686,4429 6699,4447 6711,4464 6724,4481 6736,4497 6750,4514 6762,4529 6775,4546
 6787,4561 6800,4578 6812,4593 6825,4608 6839,4624 6851,4639 6864,4654 6876,4669
 6889,4683 6901,4699 6915,4713 6928,4726 6940,4740 6953,4754 6965,4768 6978,4782
 6990,4796 7004,4810 7017,4822 7029,4836 7042,4849 7054,4861 7067,4874 7081,4886
 7093,4899 7106,4911 7118,4924 7131,4936 7143,4947 7156,4960 7169,4971 7182,4983
 7194,4994 7207,5006 7219,5017 7232,5028 7246,5039 7258,5050 7271,5061 7283,5072
 7296,5082 7308,5093 7322,5103 7335,5114 7347,5124 7360,5133 7372,5143 7385,5153
 7397,5164 7411,5172 7424,5182 7436,5192 7449,5201 7461,5211 7474,5219 7487,5229
 7500,5238 7512,5247 7525,5256 7537,5264 7550,5272 7562,5282 7576,5290 7589,5299
 7601,5307 7614,5315 7626,5322 7639,5331 7653,5339 7665,5347 7678,5354 7690,5363
 7703,5369 7715,5378 7728,5385 7742,5392 7754,5400 7767,5407 7779,5414 7792,5421
 7804,5428 7818,5435 7831,5442 7843,5449 7856,5456"
	stroke="#000000" stroke-width="8px" stroke-linejoin="round" stroke-dasharray="40 40"/>
<!-- Line -->
<!-- polyline -->
<polyline points=" 7856,6768 7868,6761 7881,6754 7894,6749 7907,6742 7919,6735 7932,6729 7944,6722
 7957,6717 7969,6710 7983,6704 7996,6699 8008,6692 8021,6686 8033,6681 8046,6675
 8060,6669 8072,6664 8085,6658 8097,6653 8110,6647 8122,6642 8135,6636 8149,6631
 8161,6625 8174,6619 8186,6615 8199,6610 8211,6604 8225,6600 8237,6594 8250,6590
 8262,6585 8275,6581 8287,6575 8300,6571 8314,6565 8326,6561 8339,6557 8351,6553
 8364,6547 8376,6543 8390,6539 8403,6535 8415,6531 8428,6526 8440,6522 8453,6518
 8465,6514 8479,6510 8492,6506 8504,6501 8517,6497 8529,6493 8542,6489 8556,6486
 8568,6482 8581,6478 8593,6475 8606,6471 8618,6467 8632,6464 8644,6460 8657,6457
 8669,6453 8682,6450 8694,6446 8707,6443 8721,6439 8733,6436 8746,6432 8758,6429
 8771,6426 8783,6422 8797,6419 8810,6417 8822,6414 8835,6410 8847,6407 8860,6404
 8872,6401 8886,6399 8899,6396 8911,6393 8924,6390 8936,6388 8949,6385 8962,6382
 8975,6379 8987,6376 9000,6374 9012,6371 9025,6368 9037,6365 9051,6363 9064,6360
 9076,6357 9089,6356 9101,6353 9114,6350 9128,6347 9140,6346 9153,6343 9165,6340
 9178,6339 9190,6336 9204,6333 9217,6332 9229,6329 9242,6326 9254,6325 9267,6322
 9279,6321 9293,6318 9306,6317 9318,6314 9331,6313 9343,6310 9356,6308 9369,6306
 9382,6304 9394,6303 9407,6300 9419,6299 9432,6296 9444,6294 9458,6293 9471,6290
 9483,6289 9496,6288 9508,6285 9521,6283 9535,6282 9547,6281 9560,6278 9572,6276
 9585,6275 9597,6274 9610,6272 9624,6269 9636,6268 9649,6267 9661,6265 9674,6264
 9686,6263 9700,6261 9712,6260 9725,6258 9737,6256 9750,6254 9762,6253 9776,6251
 9789,6250 9801,6249 9814,6247 9826,6246 9839,6244 9851,6243 9865,6242 9878,6240
 9890,6239 9903,6239 9915,6238 9928,6236 9942,6235 9954,6233 9967,6232 9979,6231
 9992,6229 10004,6228 10017,6228 10031,6226 10043,6225 10056,6224 10068,6222 10081,6221
 10093,6221 10107,6219 10119,6218 10132,6217 10144,6215 10157,6215 10169,6214
 10182,6213 10196,6211 10208,6211 10221,6210 10233,6208 10246,6208 10258,6207
 10272,6206 10285,6204 10297,6204 10310,6203 10322,6201 10335,6201 10347,6200
 10361,6199 10374,6199 10386,6197 10399,6197 10411,6196 10424,6194 10437,6194
 10450,6193 10462,6193 10475,6192 10487,6190 10500,6190 10514,6189 10526,6189
 10539,6188 10551,6188 10564,6186 10576,6185 10589,6185 10603,6183 10615,6183
 10628,6182 10640,6182 10653,6181 10665,6181 10679,6179 10692,6179 10704,6178
 10717,6178 10729,6176 10742,6176 10754,6175 10768,6175 10781,6174 10793,6174
 10806,6174 10818,6172 10831,6172 10844,6171 10857,6171 10869,6169 10882,6169
 10894,6168 10907,6168 10919,6168 10933,6167 10946,6167 10958,6165 10971,6165
 10983,6165 10996,6164 11010,6164 11022,6163 11035,6163 11047,6163 11060,6161
 11072,6161 11086,6161 11099,6160 11111,6160 11124,6160 11136,6158 11149,6158
 11161,6158 11175,6157 11187,6157 11200,6157 11212,6156 11225,6156 11237,6156
 11251,6154 11264,6154 11276,6154 11289,6153 11301,6153 11314,6153 11326,6151
 11340,6151 11353,6151 11365,6151 11378,6150 11390,6150 11403,6150 11417,6149
 11429,6149 11442,6149 11454,6149 11467,6147 11479,6147 11492,6147 11506,6147
 11518,6146 11531,6146 11543,6146 11556,6146 11568,6144 11582,6144 11594,6144
 11607,6144 11619,6143 11632,6143 11644,6143 11658,6143"
	stroke="#000000" stroke-width="8px" stroke-linejoin="round" stroke-dasharray="40 40"/>
<!-- Line -->
<!-- polyline -->
<polyline points=" 6585,7938 6597,7919 6610,7900 6622,7882 6635,7864 6647,7846 6660,7829 6674,7811
 6686,7794 6699,7776 6711,7760 6724,7743 6736,7726 6750,7710 6762,7694 6775,7678
 6787,7663 6800,7646 6812,7631 6825,7615 6839,7600 6851,7585 6864,7569 6876,7554
 6889,7540 6901,7525 6915,7511 6928,7497 6940,7483 6953,7469 6965,7456 6978,7442
 6990,7428 7004,7414 7017,7401 7029,7388 7042,7375 7054,7363 7067,7350 7081,7338
 7093,7325 7106,7313 7118,7300 7131,7288 7143,7276 7156,7264 7169,7253 7182,7240
 7194,7229 7207,7218 7219,7207 7232,7196 7246,7185 7258,7174 7271,7163 7283,7151
 7296,7142 7308,7131 7322,7121 7335,7110 7347,7100 7360,7090 7372,7081 7385,7071
 7397,7060 7411,7051 7424,7042 7436,7032 7449,7022 7461,7013 7474,7004 7487,6994
 7500,6986 7512,6976 7525,6968 7537,6960 7550,6951 7562,6942 7576,6933 7589,6925
 7601,6917 7614,6908 7626,6901 7639,6893 7653,6885 7665,6876 7678,6869 7690,6861
 7703,6854 7715,6846 7728,6839 7742,6832 7754,6824 7767,6817 7779,6810 7792,6803
 7804,6796 7818,6789 7831,6782 7843,6775 7856,6768"
	stroke="#000000" stroke-width="8px" stroke-linejoin="round" stroke-dasharray="40 40"/>
<!-- Text -->
<text xml:space="preserve" x="2550" y="4200" fill="#000000" font-family="Times" font-style="italic" font-weight="normal" font-size="216" text-anchor="start">x[n]</text>
<!-- Text -->
<text xml:space="preserve" x="825" y="5400" fill="#000000" font-family="Times" font-style="italic" font-weight="normal" font-size="216" text-anchor="start">|z|&gt;1</text>
<!-- Text -->
<text xml:space="preserve" x="5175" y="6000" fill="#000000" font-family="Times" font-style="italic" font-weight="normal" font-size="216" text-anchor="start">n</text>
<!-- Text -->
<text xml:space="preserve" x="9225" y="4200" fill="#000000" font-family="Times" font-style="italic" font-weight="normal" font-size="216" text-anchor="start">x[n]</text>
<!-- Text -->
<text xml:space="preserve" x="10050" y="5400" fill="#000000" font-family="Times" font-style="italic" font-weight="normal" font-size="216" text-anchor="start">|z|&lt;1</text>
<!-- Text -->
<text xml:space="preserve" x="12150" y="6000" fill="#000000" font-family="Times" font-style="italic" font-weight="normal" font-size="216" text-anchor="start">n</text>
</g>
</svg>
