<?xml version="1.0" encoding="UTF-8" standalone="no"?>
<!-- Creator: fig2dev Version 3.2.8b -->
<!-- CreationDate: 2025-10-30 19:43:16 -->
<!-- Magnification: 1.05 -->
<svg	xmlns="http://www.w3.org/2000/svg"
	xmlns:xlink="http://www.w3.org/1999/xlink"
	width="186pt" height="68pt"
	viewBox="213 1404 2949 1077">
<g fill="none">
<!-- Line -->
<defs>
<clipPath id="cp0">
	<path clip-rule="evenodd" d="M 213,1404 H 3162 V 2481 H 213 z
		M 3055,2235 3070,2250 3055,2265 3157,2257 3157,2243z"/>
</clipPath>
</defs>
<polyline points=" 225,2250 3150,2250" clip-path="url(#cp0)"
	stroke="#000000" stroke-width="8px"/>
<!-- Forward arrow to point 3150,2250 -->
<polygon points=" 3055,2265 3130,2250 3055,2235 3070,2250 3055,2265"
	stroke="#000000" stroke-width="8px" stroke-miterlimit="8" fill="#000000"/>
<!-- Text -->
<text xml:space="preserve" x="1620" y="2430" fill="#000000" font-family="Times" font-style="normal" font-weight="normal" font-size="96" text-anchor="middle">0</text>
<!-- Text -->
<text xml:space="preserve" x="1890" y="2430" fill="#000000" font-family="Times" font-style="normal" font-weight="normal" font-size="96" text-anchor="middle">1</text>
<!-- Text -->
<text xml:space="preserve" x="2160" y="2430" fill="#000000" font-family="Times" font-style="normal" font-weight="normal" font-size="96" text-anchor="middle">2</text>
<!-- Text -->
<text xml:space="preserve" x="2430" y="2430" fill="#000000" font-family="Times" font-style="normal" font-weight="normal" font-size="96" text-anchor="middle">3</text>
<!-- Text -->
<text xml:space="preserve" x="1305" y="2430" fill="#000000" font-family="Times" font-style="normal" font-weight="normal" font-size="96" text-anchor="middle">-1</text>
<!-- Text -->
<text xml:space="preserve" x="1035" y="2430" fill="#000000" font-family="Times" font-style="normal" font-weight="normal" font-size="96" text-anchor="middle">-2</text>
<!-- Text -->
<text xml:space="preserve" x="765" y="2430" fill="#000000" font-family="Times" font-style="normal" font-weight="normal" font-size="96" text-anchor="middle">-3</text>
<!-- Text -->
<text xml:space="preserve" x="450" y="2025" fill="#000000" font-family="Times" font-style="normal" font-weight="normal" font-size="132" text-anchor="end">\cdots</text>
<!-- Text -->
<text xml:space="preserve" x="1485" y="1845" fill="#000000" font-family="Times" font-style="italic" font-weight="normal" font-size="132" text-anchor="end">1</text>
<!-- Text -->
<text xml:space="preserve" x="2880" y="1890" fill="#000000" font-family="Times" font-style="italic" font-weight="normal" font-size="132" text-anchor="start">\cdots</text>
<!-- Line -->
<defs>
<clipPath id="cp1">
	<path clip-rule="evenodd" d="M 213,1404 H 3162 V 2481 H 213 z
		M 1351,2213 1345,2214 1339,2216 1334,2218 1329,2222 1325,2226 1321,2231 1319,2237 1317,2242 1316,2248 1317,2255 1318,2260 1320,2266 1323,2271 1327,2276 1331,2280 1336,2283 1342,2286 1348,2287 1354,2288 1398,2257 1398,2243z
		M 1079,2287 1085,2286 1091,2284 1096,2282 1101,2278 1105,2274 1109,2269 1111,2263 1113,2258 1114,2252 1113,2245 1112,2240 1110,2234 1107,2229 1103,2224 1099,2220 1094,2217 1088,2214 1082,2213 1076,2213 1032,2243 1032,2257z"/>
</clipPath>
</defs>
<polyline points=" 1035,2250 1395,2250" clip-path="url(#cp1)"
	stroke="#000000" stroke-width="8px"/>
<!-- Forward arrow to point 1395,2250 -->
<polygon points=" 1354,2288 1360,2287 1366,2286 1371,2283 1376,2280 1381,2276
 1385,2271 1388,2266 1390,2260 1391,2255 1391,2248 1390,2242 1389,2237 1386,2231
 1383,2226 1379,2222 1374,2218 1368,2216 1363,2214 1357,2213 1351,2213 1345,2214
 1339,2216 1334,2218 1329,2222 1325,2226 1321,2231 1319,2237 1317,2242 1316,2248
 1317,2255 1318,2260 1320,2266 1323,2271 1327,2276 1331,2280 1336,2283 1342,2286
 1348,2287 1354,2288"
	stroke="#000000" stroke-width="8px" stroke-miterlimit="8"/>
<!-- Backward arrow to point 1035,2250 -->
<polygon points=" 1076,2213 1070,2213 1064,2214 1059,2217 1054,2220 1049,2224
 1045,2229 1042,2234 1040,2240 1039,2245 1039,2252 1040,2258 1041,2263 1044,2269
 1047,2274 1051,2278 1056,2282 1062,2284 1067,2286 1073,2287 1079,2287 1085,2286
 1091,2284 1096,2282 1101,2278 1105,2274 1109,2269 1111,2263 1113,2258 1114,2252
 1113,2245 1112,2240 1110,2234 1107,2229 1103,2224 1099,2220 1094,2217 1088,2214
 1082,2213 1076,2213"
	stroke="#000000" stroke-width="8px" stroke-miterlimit="8"/>
<!-- Line -->
<defs>
<clipPath id="cp2">
	<path clip-rule="evenodd" d="M 213,1404 H 3162 V 2481 H 213 z
		M 811,2213 805,2214 799,2216 794,2218 789,2222 785,2226 781,2231 779,2237 777,2242 776,2248 777,2255 778,2260 780,2266 783,2271 787,2276 791,2280 796,2283 802,2286 808,2287 814,2288 858,2257 858,2243z
		M 539,2287 545,2286 551,2284 556,2282 561,2278 565,2274 569,2269 571,2263 573,2258 574,2252 573,2245 572,2240 570,2234 567,2229 563,2224 559,2220 554,2217 548,2214 542,2213 536,2213 492,2243 492,2257z"/>
</clipPath>
</defs>
<polyline points=" 495,2250 855,2250" clip-path="url(#cp2)"
	stroke="#000000" stroke-width="8px"/>
<!-- Forward arrow to point 855,2250 -->
<polygon points=" 814,2288 820,2287 826,2286 831,2283 836,2280 841,2276 845,2271
 848,2266 850,2260 851,2255 851,2248 850,2242 849,2237 846,2231 843,2226 839,2222
 834,2218 828,2216 823,2214 817,2213 811,2213 805,2214 799,2216 794,2218 789,2222
 785,2226 781,2231 779,2237 777,2242 776,2248 777,2255 778,2260 780,2266 783,2271
 787,2276 791,2280 796,2283 802,2286 808,2287 814,2288"
	stroke="#000000" stroke-width="8px" stroke-miterlimit="8"/>
<!-- Backward arrow to point 495,2250 -->
<polygon points=" 536,2213 530,2213 524,2214 519,2217 514,2220 509,2224 505,2229
 502,2234 500,2240 499,2245 499,2252 500,2258 501,2263 504,2269 507,2274 511,2278
 516,2282 522,2284 527,2286 533,2287 539,2287 545,2286 551,2284 556,2282 561,2278
 565,2274 569,2269 571,2263 573,2258 574,2252 573,2245 572,2240 570,2234 567,2229
 563,2224 559,2220 554,2217 548,2214 542,2213 536,2213"
	stroke="#000000" stroke-width="8px" stroke-miterlimit="8"/>
<!-- Line -->
<defs>
<clipPath id="cp3">
	<path clip-rule="evenodd" d="M 213,1404 H 3162 V 2481 H 213 z
		M 1583,1799 1584,1805 1586,1811 1588,1816 1592,1821 1596,1825 1601,1829 1607,1831 1612,1833 1618,1834 1625,1833 1630,1832 1636,1830 1641,1827 1646,1823 1650,1819 1653,1814 1656,1808 1657,1802 1658,1796 1631,1748 1610,1748z
		M 539,2287 545,2286 551,2284 556,2282 561,2278 565,2274 569,2269 571,2263 573,2258 574,2252 573,2245 572,2240 570,2234 567,2229 563,2224 559,2220 554,2217 548,2214 542,2213 536,2213 492,2243 492,2257z"/>
</clipPath>
</defs>
<polyline points=" 1620,2250 1620,1755" clip-path="url(#cp3)"
	stroke="#000000" stroke-width="15px"/>
<!-- Forward arrow to point 1620,1755 -->
<polygon points=" 1658,1796 1657,1790 1656,1784 1653,1779 1650,1774 1646,1769
 1641,1765 1636,1762 1630,1760 1625,1759 1618,1759 1612,1760 1607,1761 1601,1764
 1596,1767 1592,1771 1588,1776 1586,1782 1584,1787 1583,1793 1583,1799 1584,1805
 1586,1811 1588,1816 1592,1821 1596,1825 1601,1829 1607,1831 1612,1833 1618,1834
 1625,1833 1630,1832 1636,1830 1641,1827 1646,1823 1650,1819 1653,1814 1656,1808
 1657,1802 1658,1796"
	stroke="#000000" stroke-width="8px" stroke-miterlimit="8"/>
<!-- Line -->
<defs>
<clipPath id="cp4">
	<path clip-rule="evenodd" d="M 213,1404 H 3162 V 2481 H 213 z
		M 1853,1799 1854,1805 1856,1811 1858,1816 1862,1821 1866,1825 1871,1829 1877,1831 1882,1833 1888,1834 1895,1833 1900,1832 1906,1830 1911,1827 1916,1823 1920,1819 1923,1814 1926,1808 1927,1802 1928,1796 1901,1748 1880,1748z
		M 539,2287 545,2286 551,2284 556,2282 561,2278 565,2274 569,2269 571,2263 573,2258 574,2252 573,2245 572,2240 570,2234 567,2229 563,2224 559,2220 554,2217 548,2214 542,2213 536,2213 492,2243 492,2257z"/>
</clipPath>
</defs>
<polyline points=" 1890,2250 1890,1755" clip-path="url(#cp4)"
	stroke="#000000" stroke-width="15px"/>
<!-- Forward arrow to point 1890,1755 -->
<polygon points=" 1928,1796 1927,1790 1926,1784 1923,1779 1920,1774 1916,1769
 1911,1765 1906,1762 1900,1760 1895,1759 1888,1759 1882,1760 1877,1761 1871,1764
 1866,1767 1862,1771 1858,1776 1856,1782 1854,1787 1853,1793 1853,1799 1854,1805
 1856,1811 1858,1816 1862,1821 1866,1825 1871,1829 1877,1831 1882,1833 1888,1834
 1895,1833 1900,1832 1906,1830 1911,1827 1916,1823 1920,1819 1923,1814 1926,1808
 1927,1802 1928,1796"
	stroke="#000000" stroke-width="8px" stroke-miterlimit="8"/>
<!-- Line -->
<defs>
<clipPath id="cp5">
	<path clip-rule="evenodd" d="M 213,1404 H 3162 V 2481 H 213 z
		M 2123,1799 2124,1805 2126,1811 2128,1816 2132,1821 2136,1825 2141,1829 2147,1831 2152,1833 2158,1834 2165,1833 2170,1832 2176,1830 2181,1827 2186,1823 2190,1819 2193,1814 2196,1808 2197,1802 2198,1796 2171,1748 2150,1748z
		M 539,2287 545,2286 551,2284 556,2282 561,2278 565,2274 569,2269 571,2263 573,2258 574,2252 573,2245 572,2240 570,2234 567,2229 563,2224 559,2220 554,2217 548,2214 542,2213 536,2213 492,2243 492,2257z"/>
</clipPath>
</defs>
<polyline points=" 2160,2250 2160,1755" clip-path="url(#cp5)"
	stroke="#000000" stroke-width="15px"/>
<!-- Forward arrow to point 2160,1755 -->
<polygon points=" 2198,1796 2197,1790 2196,1784 2193,1779 2190,1774 2186,1769
 2181,1765 2176,1762 2170,1760 2165,1759 2158,1759 2152,1760 2147,1761 2141,1764
 2136,1767 2132,1771 2128,1776 2126,1782 2124,1787 2123,1793 2123,1799 2124,1805
 2126,1811 2128,1816 2132,1821 2136,1825 2141,1829 2147,1831 2152,1833 2158,1834
 2165,1833 2170,1832 2176,1830 2181,1827 2186,1823 2190,1819 2193,1814 2196,1808
 2197,1802 2198,1796"
	stroke="#000000" stroke-width="8px" stroke-miterlimit="8"/>
<!-- Line -->
<defs>
<clipPath id="cp6">
	<path clip-rule="evenodd" d="M 213,1404 H 3162 V 2481 H 213 z
		M 2393,1799 2394,1805 2396,1811 2398,1816 2402,1821 2406,1825 2411,1829 2417,1831 2422,1833 2428,1834 2435,1833 2440,1832 2446,1830 2451,1827 2456,1823 2460,1819 2463,1814 2466,1808 2467,1802 2468,1796 2441,1748 2420,1748z
		M 539,2287 545,2286 551,2284 556,2282 561,2278 565,2274 569,2269 571,2263 573,2258 574,2252 573,2245 572,2240 570,2234 567,2229 563,2224 559,2220 554,2217 548,2214 542,2213 536,2213 492,2243 492,2257z"/>
</clipPath>
</defs>
<polyline points=" 2430,2250 2430,1755" clip-path="url(#cp6)"
	stroke="#000000" stroke-width="15px"/>
<!-- Forward arrow to point 2430,1755 -->
<polygon points=" 2468,1796 2467,1790 2466,1784 2463,1779 2460,1774 2456,1769
 2451,1765 2446,1762 2440,1760 2435,1759 2428,1759 2422,1760 2417,1761 2411,1764
 2406,1767 2402,1771 2398,1776 2396,1782 2394,1787 2393,1793 2393,1799 2394,1805
 2396,1811 2398,1816 2402,1821 2406,1825 2411,1829 2417,1831 2422,1833 2428,1834
 2435,1833 2440,1832 2446,1830 2451,1827 2456,1823 2460,1819 2463,1814 2466,1808
 2467,1802 2468,1796"
	stroke="#000000" stroke-width="8px" stroke-miterlimit="8"/>
<!-- Line -->
<defs>
<clipPath id="cp7">
	<path clip-rule="evenodd" d="M 213,1404 H 3162 V 2481 H 213 z
		M 2663,1799 2664,1805 2666,1811 2668,1816 2672,1821 2676,1825 2681,1829 2687,1831 2692,1833 2698,1834 2705,1833 2710,1832 2716,1830 2721,1827 2726,1823 2730,1819 2733,1814 2736,1808 2737,1802 2738,1796 2711,1748 2690,1748z
		M 539,2287 545,2286 551,2284 556,2282 561,2278 565,2274 569,2269 571,2263 573,2258 574,2252 573,2245 572,2240 570,2234 567,2229 563,2224 559,2220 554,2217 548,2214 542,2213 536,2213 492,2243 492,2257z"/>
</clipPath>
</defs>
<polyline points=" 2700,2250 2700,1755" clip-path="url(#cp7)"
	stroke="#000000" stroke-width="15px"/>
<!-- Forward arrow to point 2700,1755 -->
<polygon points=" 2738,1796 2737,1790 2736,1784 2733,1779 2730,1774 2726,1769
 2721,1765 2716,1762 2710,1760 2705,1759 2698,1759 2692,1760 2687,1761 2681,1764
 2676,1767 2672,1771 2668,1776 2666,1782 2664,1787 2663,1793 2663,1799 2664,1805
 2666,1811 2668,1816 2672,1821 2676,1825 2681,1829 2687,1831 2692,1833 2698,1834
 2705,1833 2710,1832 2716,1830 2721,1827 2726,1823 2730,1819 2733,1814 2736,1808
 2737,1802 2738,1796"
	stroke="#000000" stroke-width="8px" stroke-miterlimit="8"/>
<!-- Text -->
<text xml:space="preserve" x="3060" y="2205" fill="#000000" font-family="Times" font-style="italic" font-weight="normal" font-size="132" text-anchor="start">n</text>
<!-- Text -->
<text xml:space="preserve" x="1575" y="1575" fill="#000000" font-family="Times" font-style="italic" font-weight="normal" font-size="132" text-anchor="start">u[n]</text>
</g>
</svg>
