<?xml version="1.0" encoding="UTF-8" standalone="no"?>
<!-- Creator: fig2dev Version 3.2.8b -->
<!-- CreationDate: 2025-10-30 19:43:16 -->
<!-- Magnification: 1.05 -->
<svg	xmlns="http://www.w3.org/2000/svg"
	xmlns:xlink="http://www.w3.org/1999/xlink"
	width="172pt" height="94pt"
	viewBox="4038 1101 2724 1483">
<g fill="none">
<!-- Line -->
<polyline points=" 4140,2250 5220,2250 5490,1620 6570,1620"
	stroke="#000000" stroke-width="15px"/>
<!-- Line -->
<defs>
<clipPath id="cp0">
	<path clip-rule="evenodd" d="M 4038,1101 H 6762 V 2584 H 4038 z
		M 6655,2235 6670,2250 6655,2265 6757,2257 6757,2243z"/>
</clipPath>
</defs>
<polyline points=" 4050,2250 6750,2250" clip-path="url(#cp0)"
	stroke="#000000" stroke-width="8px"/>
<!-- Forward arrow to point 6750,2250 -->
<polygon points=" 6655,2265 6730,2250 6655,2235 6670,2250 6655,2265"
	stroke="#000000" stroke-width="8px" stroke-miterlimit="8" fill="#000000"/>
<!-- Line -->
<defs>
<clipPath id="cp1">
	<path clip-rule="evenodd" d="M 4038,1101 H 6762 V 2584 H 4038 z
		M 5205,1265 5220,1250 5235,1265 5227,1163 5213,1163z"/>
</clipPath>
</defs>
<polyline points=" 5220,2385 5220,1170" clip-path="url(#cp1)"
	stroke="#000000" stroke-width="8px"/>
<!-- Forward arrow to point 5220,1170 -->
<polygon points=" 5235,1265 5220,1190 5205,1265 5220,1250 5235,1265"
	stroke="#000000" stroke-width="8px" stroke-miterlimit="8" fill="#000000"/>
<!-- Line -->
<polyline points=" 5175,1620 5265,1620"
	stroke="#000000" stroke-width="8px"/>
<!-- Line -->
<polyline points=" 5490,2205 5490,2295"
	stroke="#000000" stroke-width="8px"/>
<!-- Text -->
<text xml:space="preserve" x="6660" y="2205" fill="#000000" font-family="Times" font-style="normal" font-weight="normal" font-size="144" text-anchor="start">t</text>
<!-- Text -->
<text xml:space="preserve" x="5130" y="1665" fill="#000000" font-family="Times" font-style="normal" font-weight="normal" font-size="144" text-anchor="end">1</text>
<!-- Text -->
<text xml:space="preserve" x="5175" y="2520" fill="#000000" font-family="Times" font-style="normal" font-weight="normal" font-size="144" text-anchor="middle">0</text>
<!-- Text -->
<text xml:space="preserve" x="5490" y="2520" fill="#000000" font-family="Times" font-style="normal" font-weight="normal" font-size="144" text-anchor="middle">\Delta</text>
<!-- Text -->
<text xml:space="preserve" x="5310" y="1260" fill="#000000" font-family="Times" font-style="normal" font-weight="normal" font-size="144" text-anchor="start">u<tspan font-size="96" baseline-shift="sub">\</tspan>Delta(t)</text>
</g>
</svg>
