<?xml version="1.0" encoding="UTF-8" standalone="no"?>
<!-- Creator: fig2dev Version 3.2.8b -->
<!-- CreationDate: 2025-10-30 19:43:16 -->
<!-- Magnification: 1.05 -->
<svg	xmlns="http://www.w3.org/2000/svg"
	xmlns:xlink="http://www.w3.org/1999/xlink"
	width="186pt" height="66pt"
	viewBox="213 1449 2949 1032">
<g fill="none">
<!-- Line -->
<defs>
<clipPath id="cp0">
	<path clip-rule="evenodd" d="M 213,1449 H 3162 V 2481 H 213 z
		M 3055,2235 3070,2250 3055,2265 3157,2257 3157,2243z"/>
</clipPath>
</defs>
<polyline points=" 225,2250 3150,2250" clip-path="url(#cp0)"
	stroke="#000000" stroke-width="8px"/>
<!-- Forward arrow to point 3150,2250 -->
<polygon points=" 3055,2265 3130,2250 3055,2235 3070,2250 3055,2265"
	stroke="#000000" stroke-width="8px" stroke-miterlimit="8" fill="#000000"/>
<!-- Text -->
<text xml:space="preserve" x="1620" y="2430" fill="#000000" font-family="Times" font-style="normal" font-weight="normal" font-size="96" text-anchor="middle">0</text>
<!-- Text -->
<text xml:space="preserve" x="1890" y="2430" fill="#000000" font-family="Times" font-style="normal" font-weight="normal" font-size="96" text-anchor="middle">1</text>
<!-- Text -->
<text xml:space="preserve" x="2160" y="2430" fill="#000000" font-family="Times" font-style="normal" font-weight="normal" font-size="96" text-anchor="middle">2</text>
<!-- Text -->
<text xml:space="preserve" x="2430" y="2430" fill="#000000" font-family="Times" font-style="normal" font-weight="normal" font-size="96" text-anchor="middle">3</text>
<!-- Text -->
<text xml:space="preserve" x="1305" y="2430" fill="#000000" font-family="Times" font-style="normal" font-weight="normal" font-size="96" text-anchor="middle">-1</text>
<!-- Text -->
<text xml:space="preserve" x="1035" y="2430" fill="#000000" font-family="Times" font-style="normal" font-weight="normal" font-size="96" text-anchor="middle">-2</text>
<!-- Text -->
<text xml:space="preserve" x="765" y="2430" fill="#000000" font-family="Times" font-style="normal" font-weight="normal" font-size="96" text-anchor="middle">-3</text>
<!-- Text -->
<text xml:space="preserve" x="450" y="2025" fill="#000000" font-family="Times" font-style="normal" font-weight="normal" font-size="132" text-anchor="end">\cdots</text>
<!-- Text -->
<text xml:space="preserve" x="2700" y="2025" fill="#000000" font-family="Times" font-style="italic" font-weight="normal" font-size="132" text-anchor="start">\cdots</text>
<!-- Text -->
<text xml:space="preserve" x="1755" y="1845" fill="#000000" font-family="Times" font-style="italic" font-weight="normal" font-size="132" text-anchor="start">1</text>
<!-- Line -->
<defs>
<clipPath id="cp1">
	<path clip-rule="evenodd" d="M 213,1449 H 3162 V 2481 H 213 z
		M 1351,2213 1345,2214 1339,2216 1334,2218 1329,2222 1325,2226 1321,2231 1319,2237 1317,2242 1316,2248 1317,2255 1318,2260 1320,2266 1323,2271 1327,2276 1331,2280 1336,2283 1342,2286 1348,2287 1354,2288 1398,2257 1398,2243z
		M 1079,2287 1085,2286 1091,2284 1096,2282 1101,2278 1105,2274 1109,2269 1111,2263 1113,2258 1114,2252 1113,2245 1112,2240 1110,2234 1107,2229 1103,2224 1099,2220 1094,2217 1088,2214 1082,2213 1076,2213 1032,2243 1032,2257z"/>
</clipPath>
</defs>
<polyline points=" 1035,2250 1395,2250" clip-path="url(#cp1)"
	stroke="#000000" stroke-width="8px"/>
<!-- Forward arrow to point 1395,2250 -->
<polygon points=" 1354,2288 1360,2287 1366,2286 1371,2283 1376,2280 1381,2276
 1385,2271 1388,2266 1390,2260 1391,2255 1391,2248 1390,2242 1389,2237 1386,2231
 1383,2226 1379,2222 1374,2218 1368,2216 1363,2214 1357,2213 1351,2213 1345,2214
 1339,2216 1334,2218 1329,2222 1325,2226 1321,2231 1319,2237 1317,2242 1316,2248
 1317,2255 1318,2260 1320,2266 1323,2271 1327,2276 1331,2280 1336,2283 1342,2286
 1348,2287 1354,2288"
	stroke="#000000" stroke-width="8px" stroke-miterlimit="8"/>
<!-- Backward arrow to point 1035,2250 -->
<polygon points=" 1076,2213 1070,2213 1064,2214 1059,2217 1054,2220 1049,2224
 1045,2229 1042,2234 1040,2240 1039,2245 1039,2252 1040,2258 1041,2263 1044,2269
 1047,2274 1051,2278 1056,2282 1062,2284 1067,2286 1073,2287 1079,2287 1085,2286
 1091,2284 1096,2282 1101,2278 1105,2274 1109,2269 1111,2263 1113,2258 1114,2252
 1113,2245 1112,2240 1110,2234 1107,2229 1103,2224 1099,2220 1094,2217 1088,2214
 1082,2213 1076,2213"
	stroke="#000000" stroke-width="8px" stroke-miterlimit="8"/>
<!-- Line -->
<defs>
<clipPath id="cp2">
	<path clip-rule="evenodd" d="M 213,1449 H 3162 V 2481 H 213 z
		M 811,2213 805,2214 799,2216 794,2218 789,2222 785,2226 781,2231 779,2237 777,2242 776,2248 777,2255 778,2260 780,2266 783,2271 787,2276 791,2280 796,2283 802,2286 808,2287 814,2288 858,2257 858,2243z
		M 539,2287 545,2286 551,2284 556,2282 561,2278 565,2274 569,2269 571,2263 573,2258 574,2252 573,2245 572,2240 570,2234 567,2229 563,2224 559,2220 554,2217 548,2214 542,2213 536,2213 492,2243 492,2257z"/>
</clipPath>
</defs>
<polyline points=" 495,2250 855,2250" clip-path="url(#cp2)"
	stroke="#000000" stroke-width="8px"/>
<!-- Forward arrow to point 855,2250 -->
<polygon points=" 814,2288 820,2287 826,2286 831,2283 836,2280 841,2276 845,2271
 848,2266 850,2260 851,2255 851,2248 850,2242 849,2237 846,2231 843,2226 839,2222
 834,2218 828,2216 823,2214 817,2213 811,2213 805,2214 799,2216 794,2218 789,2222
 785,2226 781,2231 779,2237 777,2242 776,2248 777,2255 778,2260 780,2266 783,2271
 787,2276 791,2280 796,2283 802,2286 808,2287 814,2288"
	stroke="#000000" stroke-width="8px" stroke-miterlimit="8"/>
<!-- Backward arrow to point 495,2250 -->
<polygon points=" 536,2213 530,2213 524,2214 519,2217 514,2220 509,2224 505,2229
 502,2234 500,2240 499,2245 499,2252 500,2258 501,2263 504,2269 507,2274 511,2278
 516,2282 522,2284 527,2286 533,2287 539,2287 545,2286 551,2284 556,2282 561,2278
 565,2274 569,2269 571,2263 573,2258 574,2252 573,2245 572,2240 570,2234 567,2229
 563,2224 559,2220 554,2217 548,2214 542,2213 536,2213"
	stroke="#000000" stroke-width="8px" stroke-miterlimit="8"/>
<!-- Line -->
<defs>
<clipPath id="cp3">
	<path clip-rule="evenodd" d="M 213,1449 H 3162 V 2481 H 213 z
		M 1583,1799 1584,1805 1586,1811 1588,1816 1592,1821 1596,1825 1601,1829 1607,1831 1612,1833 1618,1834 1625,1833 1630,1832 1636,1830 1641,1827 1646,1823 1650,1819 1653,1814 1656,1808 1657,1802 1658,1796 1631,1748 1610,1748z
		M 539,2287 545,2286 551,2284 556,2282 561,2278 565,2274 569,2269 571,2263 573,2258 574,2252 573,2245 572,2240 570,2234 567,2229 563,2224 559,2220 554,2217 548,2214 542,2213 536,2213 492,2243 492,2257z"/>
</clipPath>
</defs>
<polyline points=" 1620,2250 1620,1755" clip-path="url(#cp3)"
	stroke="#000000" stroke-width="15px"/>
<!-- Forward arrow to point 1620,1755 -->
<polygon points=" 1658,1796 1657,1790 1656,1784 1653,1779 1650,1774 1646,1769
 1641,1765 1636,1762 1630,1760 1625,1759 1618,1759 1612,1760 1607,1761 1601,1764
 1596,1767 1592,1771 1588,1776 1586,1782 1584,1787 1583,1793 1583,1799 1584,1805
 1586,1811 1588,1816 1592,1821 1596,1825 1601,1829 1607,1831 1612,1833 1618,1834
 1625,1833 1630,1832 1636,1830 1641,1827 1646,1823 1650,1819 1653,1814 1656,1808
 1657,1802 1658,1796"
	stroke="#000000" stroke-width="8px" stroke-miterlimit="8"/>
<!-- Line -->
<defs>
<clipPath id="cp4">
	<path clip-rule="evenodd" d="M 213,1449 H 3162 V 2481 H 213 z
		M 2161,2213 2155,2214 2149,2216 2144,2218 2139,2222 2135,2226 2131,2231 2129,2237 2127,2242 2126,2248 2127,2255 2128,2260 2130,2266 2133,2271 2137,2276 2141,2280 2146,2283 2152,2286 2158,2287 2164,2288 2208,2257 2208,2243z
		M 1889,2287 1895,2286 1901,2284 1906,2282 1911,2278 1915,2274 1919,2269 1921,2263 1923,2258 1924,2252 1923,2245 1922,2240 1920,2234 1917,2229 1913,2224 1909,2220 1904,2217 1898,2214 1892,2213 1886,2213 1842,2243 1842,2257z"/>
</clipPath>
</defs>
<polyline points=" 1845,2250 2205,2250" clip-path="url(#cp4)"
	stroke="#000000" stroke-width="8px"/>
<!-- Forward arrow to point 2205,2250 -->
<polygon points=" 2164,2288 2170,2287 2176,2286 2181,2283 2186,2280 2191,2276
 2195,2271 2198,2266 2200,2260 2201,2255 2201,2248 2200,2242 2199,2237 2196,2231
 2193,2226 2189,2222 2184,2218 2178,2216 2173,2214 2167,2213 2161,2213 2155,2214
 2149,2216 2144,2218 2139,2222 2135,2226 2131,2231 2129,2237 2127,2242 2126,2248
 2127,2255 2128,2260 2130,2266 2133,2271 2137,2276 2141,2280 2146,2283 2152,2286
 2158,2287 2164,2288"
	stroke="#000000" stroke-width="8px" stroke-miterlimit="8"/>
<!-- Backward arrow to point 1845,2250 -->
<polygon points=" 1886,2213 1880,2213 1874,2214 1869,2217 1864,2220 1859,2224
 1855,2229 1852,2234 1850,2240 1849,2245 1849,2252 1850,2258 1851,2263 1854,2269
 1857,2274 1861,2278 1866,2282 1872,2284 1877,2286 1883,2287 1889,2287 1895,2286
 1901,2284 1906,2282 1911,2278 1915,2274 1919,2269 1921,2263 1923,2258 1924,2252
 1923,2245 1922,2240 1920,2234 1917,2229 1913,2224 1909,2220 1904,2217 1898,2214
 1892,2213 1886,2213"
	stroke="#000000" stroke-width="8px" stroke-miterlimit="8"/>
<!-- Line -->
<defs>
<clipPath id="cp5">
	<path clip-rule="evenodd" d="M 213,1449 H 3162 V 2481 H 213 z
		M 2701,2213 2695,2214 2689,2216 2684,2218 2679,2222 2675,2226 2671,2231 2669,2237 2667,2242 2666,2248 2667,2255 2668,2260 2670,2266 2673,2271 2677,2276 2681,2280 2686,2283 2692,2286 2698,2287 2704,2288 2748,2257 2748,2243z
		M 2429,2287 2435,2286 2441,2284 2446,2282 2451,2278 2455,2274 2459,2269 2461,2263 2463,2258 2464,2252 2463,2245 2462,2240 2460,2234 2457,2229 2453,2224 2449,2220 2444,2217 2438,2214 2432,2213 2426,2213 2382,2243 2382,2257z"/>
</clipPath>
</defs>
<polyline points=" 2385,2250 2745,2250" clip-path="url(#cp5)"
	stroke="#000000" stroke-width="8px"/>
<!-- Forward arrow to point 2745,2250 -->
<polygon points=" 2704,2288 2710,2287 2716,2286 2721,2283 2726,2280 2731,2276
 2735,2271 2738,2266 2740,2260 2741,2255 2741,2248 2740,2242 2739,2237 2736,2231
 2733,2226 2729,2222 2724,2218 2718,2216 2713,2214 2707,2213 2701,2213 2695,2214
 2689,2216 2684,2218 2679,2222 2675,2226 2671,2231 2669,2237 2667,2242 2666,2248
 2667,2255 2668,2260 2670,2266 2673,2271 2677,2276 2681,2280 2686,2283 2692,2286
 2698,2287 2704,2288"
	stroke="#000000" stroke-width="8px" stroke-miterlimit="8"/>
<!-- Backward arrow to point 2385,2250 -->
<polygon points=" 2426,2213 2420,2213 2414,2214 2409,2217 2404,2220 2399,2224
 2395,2229 2392,2234 2390,2240 2389,2245 2389,2252 2390,2258 2391,2263 2394,2269
 2397,2274 2401,2278 2406,2282 2412,2284 2417,2286 2423,2287 2429,2287 2435,2286
 2441,2284 2446,2282 2451,2278 2455,2274 2459,2269 2461,2263 2463,2258 2464,2252
 2463,2245 2462,2240 2460,2234 2457,2229 2453,2224 2449,2220 2444,2217 2438,2214
 2432,2213 2426,2213"
	stroke="#000000" stroke-width="8px" stroke-miterlimit="8"/>
<!-- Text -->
<text xml:space="preserve" x="3060" y="2205" fill="#000000" font-family="Times" font-style="italic" font-weight="normal" font-size="132" text-anchor="start">n</text>
<!-- Text -->
<text xml:space="preserve" x="1620" y="1620" fill="#000000" font-family="Times" font-style="italic" font-weight="normal" font-size="132" text-anchor="middle">\delta[n]</text>
</g>
</svg>
