<?xml version="1.0" encoding="UTF-8" standalone="no"?>
<!-- Creator: fig2dev Version 3.2.8b -->
<!-- CreationDate: 2025-10-30 19:43:17 -->
<!-- Magnification: 1.05 -->
<svg	xmlns="http://www.w3.org/2000/svg"
	xmlns:xlink="http://www.w3.org/1999/xlink"
	width="198pt" height="93pt"
	viewBox="213 1395 3129 1462">
<g fill="none">
<!-- Line -->
<defs>
<clipPath id="cp0">
	<path clip-rule="evenodd" d="M 213,1395 H 3342 V 2857 H 213 z
		M 3235,2235 3250,2250 3235,2265 3337,2257 3337,2243z"/>
</clipPath>
</defs>
<polyline points=" 225,2250 3330,2250" clip-path="url(#cp0)"
	stroke="#000000" stroke-width="8px"/>
<!-- Forward arrow to point 3330,2250 -->
<polygon points=" 3235,2265 3310,2250 3235,2235 3250,2250 3235,2265"
	stroke="#000000" stroke-width="8px" stroke-miterlimit="8" fill="#000000"/>
<!-- Text -->
<text xml:space="preserve" x="2430" y="2430" fill="#000000" font-family="Times" font-style="normal" font-weight="normal" font-size="96" text-anchor="middle">3</text>
<!-- Text -->
<text xml:space="preserve" x="1305" y="2430" fill="#000000" font-family="Times" font-style="normal" font-weight="normal" font-size="96" text-anchor="middle">-1</text>
<!-- Text -->
<text xml:space="preserve" x="765" y="2430" fill="#000000" font-family="Times" font-style="normal" font-weight="normal" font-size="96" text-anchor="middle">-3</text>
<!-- Text -->
<text xml:space="preserve" x="1035" y="2205" fill="#000000" font-family="Times" font-style="normal" font-weight="normal" font-size="96" text-anchor="middle">-2</text>
<!-- Text -->
<text xml:space="preserve" x="1575" y="2430" fill="#000000" font-family="Times" font-style="normal" font-weight="normal" font-size="96" text-anchor="middle">0</text>
<!-- Text -->
<text xml:space="preserve" x="1890" y="2205" fill="#000000" font-family="Times" font-style="normal" font-weight="normal" font-size="96" text-anchor="middle">1</text>
<!-- Text -->
<text xml:space="preserve" x="2160" y="2205" fill="#000000" font-family="Times" font-style="normal" font-weight="normal" font-size="96" text-anchor="middle">2</text>
<!-- Text -->
<text xml:space="preserve" x="495" y="2430" fill="#000000" font-family="Times" font-style="normal" font-weight="normal" font-size="96" text-anchor="middle">-4</text>
<!-- Text -->
<text xml:space="preserve" x="2745" y="2430" fill="#000000" font-family="Times" font-style="normal" font-weight="normal" font-size="96" text-anchor="middle">4</text>
<!-- Line -->
<defs>
<clipPath id="cp1">
	<path clip-rule="evenodd" d="M 213,1395 H 3342 V 2857 H 213 z
		M 1117,2476 1116,2470 1114,2464 1112,2459 1108,2454 1104,2450 1099,2446 1093,2444 1088,2442 1082,2441 1075,2442 1070,2443 1064,2445 1059,2448 1054,2452 1050,2456 1047,2461 1044,2467 1043,2473 1043,2479 1070,2527 1091,2527z"/>
</clipPath>
</defs>
<polyline points=" 1080,2250 1080,2520" clip-path="url(#cp1)"
	stroke="#000000" stroke-width="15px"/>
<!-- Forward arrow to point 1080,2520 -->
<polygon points=" 1043,2479 1043,2485 1044,2491 1047,2496 1050,2501 1054,2506
 1059,2510 1064,2513 1070,2515 1075,2516 1082,2516 1088,2515 1093,2514 1099,2511
 1104,2508 1108,2504 1112,2499 1114,2493 1116,2488 1117,2482 1117,2476 1116,2470
 1114,2464 1112,2459 1108,2454 1104,2450 1099,2446 1093,2444 1088,2442 1082,2441
 1075,2442 1070,2443 1064,2445 1059,2448 1054,2452 1050,2456 1047,2461 1044,2467
 1043,2473 1043,2479"
	stroke="#000000" stroke-width="8px" stroke-miterlimit="8"/>
<!-- Line -->
<defs>
<clipPath id="cp2">
	<path clip-rule="evenodd" d="M 213,1395 H 3342 V 2857 H 213 z
		M 1657,2791 1656,2785 1654,2779 1652,2774 1648,2769 1644,2765 1639,2761 1633,2759 1628,2757 1622,2756 1615,2757 1610,2758 1604,2760 1599,2763 1594,2767 1590,2771 1587,2776 1584,2782 1583,2788 1583,2794 1610,2842 1631,2842z"/>
</clipPath>
</defs>
<polyline points=" 1620,2250 1620,2835" clip-path="url(#cp2)"
	stroke="#000000" stroke-width="15px"/>
<!-- Forward arrow to point 1620,2835 -->
<polygon points=" 1583,2794 1583,2800 1584,2806 1587,2811 1590,2816 1594,2821
 1599,2825 1604,2828 1610,2830 1615,2831 1622,2831 1628,2830 1633,2829 1639,2826
 1644,2823 1648,2819 1652,2814 1654,2808 1656,2803 1657,2797 1657,2791 1656,2785
 1654,2779 1652,2774 1648,2769 1644,2765 1639,2761 1633,2759 1628,2757 1622,2756
 1615,2757 1610,2758 1604,2760 1599,2763 1594,2767 1590,2771 1587,2776 1584,2782
 1583,2788 1583,2794"
	stroke="#000000" stroke-width="8px" stroke-miterlimit="8"/>
<!-- Line -->
<defs>
<clipPath id="cp3">
	<path clip-rule="evenodd" d="M 213,1395 H 3342 V 2857 H 213 z
		M 1927,2611 1926,2605 1924,2599 1922,2594 1918,2589 1914,2585 1909,2581 1903,2579 1898,2577 1892,2576 1885,2577 1880,2578 1874,2580 1869,2583 1864,2587 1860,2591 1857,2596 1854,2602 1853,2608 1853,2614 1880,2662 1901,2662z"/>
</clipPath>
</defs>
<polyline points=" 1890,2250 1890,2655" clip-path="url(#cp3)"
	stroke="#000000" stroke-width="15px"/>
<!-- Forward arrow to point 1890,2655 -->
<polygon points=" 1853,2614 1853,2620 1854,2626 1857,2631 1860,2636 1864,2641
 1869,2645 1874,2648 1880,2650 1885,2651 1892,2651 1898,2650 1903,2649 1909,2646
 1914,2643 1918,2639 1922,2634 1924,2628 1926,2623 1927,2617 1927,2611 1926,2605
 1924,2599 1922,2594 1918,2589 1914,2585 1909,2581 1903,2579 1898,2577 1892,2576
 1885,2577 1880,2578 1874,2580 1869,2583 1864,2587 1860,2591 1857,2596 1854,2602
 1853,2608 1853,2614"
	stroke="#000000" stroke-width="8px" stroke-miterlimit="8"/>
<!-- Line -->
<defs>
<clipPath id="cp4">
	<path clip-rule="evenodd" d="M 213,1395 H 3342 V 2857 H 213 z
		M 2197,2341 2196,2335 2194,2329 2192,2324 2188,2319 2184,2315 2179,2311 2173,2309 2168,2307 2162,2306 2155,2307 2150,2308 2144,2310 2139,2313 2134,2317 2130,2321 2127,2326 2124,2332 2123,2338 2123,2344 2150,2392 2171,2392z"/>
</clipPath>
</defs>
<polyline points=" 2160,2250 2160,2385" clip-path="url(#cp4)"
	stroke="#000000" stroke-width="15px"/>
<!-- Forward arrow to point 2160,2385 -->
<polygon points=" 2123,2344 2123,2350 2124,2356 2127,2361 2130,2366 2134,2371
 2139,2375 2144,2378 2150,2380 2155,2381 2162,2381 2168,2380 2173,2379 2179,2376
 2184,2373 2188,2369 2192,2364 2194,2358 2196,2353 2197,2347 2197,2341 2196,2335
 2194,2329 2192,2324 2188,2319 2184,2315 2179,2311 2173,2309 2168,2307 2162,2306
 2155,2307 2150,2308 2144,2310 2139,2313 2134,2317 2130,2321 2127,2326 2124,2332
 2123,2338 2123,2344"
	stroke="#000000" stroke-width="8px" stroke-miterlimit="8"/>
<!-- Line -->
<defs>
<clipPath id="cp5">
	<path clip-rule="evenodd" d="M 213,1395 H 3342 V 2857 H 213 z
		M 1313,1709 1314,1715 1316,1721 1318,1726 1322,1731 1326,1735 1331,1739 1337,1741 1342,1743 1348,1744 1355,1743 1360,1742 1366,1740 1371,1737 1376,1733 1380,1729 1383,1724 1386,1718 1387,1712 1388,1706 1361,1658 1340,1658z"/>
</clipPath>
</defs>
<polyline points=" 1350,2250 1350,1665" clip-path="url(#cp5)"
	stroke="#000000" stroke-width="15px"/>
<!-- Forward arrow to point 1350,1665 -->
<polygon points=" 1388,1706 1387,1700 1386,1694 1383,1689 1380,1684 1376,1679
 1371,1675 1366,1672 1360,1670 1355,1669 1348,1669 1342,1670 1337,1671 1331,1674
 1326,1677 1322,1681 1318,1686 1316,1692 1314,1697 1313,1703 1313,1709 1314,1715
 1316,1721 1318,1726 1322,1731 1326,1735 1331,1739 1337,1741 1342,1743 1348,1744
 1355,1743 1360,1742 1366,1740 1371,1737 1376,1733 1380,1729 1383,1724 1386,1718
 1387,1712 1388,1706"
	stroke="#000000" stroke-width="8px" stroke-miterlimit="8"/>
<!-- Line -->
<defs>
<clipPath id="cp6">
	<path clip-rule="evenodd" d="M 213,1395 H 3342 V 2857 H 213 z
		M 773,2114 774,2120 776,2126 778,2131 782,2136 786,2140 791,2144 797,2146 802,2148 808,2149 815,2148 820,2147 826,2145 831,2142 836,2138 840,2134 843,2129 846,2123 847,2117 848,2111 821,2063 800,2063z"/>
</clipPath>
</defs>
<polyline points=" 810,2250 810,2070" clip-path="url(#cp6)"
	stroke="#000000" stroke-width="15px"/>
<!-- Forward arrow to point 810,2070 -->
<polygon points=" 848,2111 847,2105 846,2099 843,2094 840,2089 836,2084 831,2080
 826,2077 820,2075 815,2074 808,2074 802,2075 797,2076 791,2079 786,2082 782,2086
 778,2091 776,2097 774,2102 773,2108 773,2114 774,2120 776,2126 778,2131 782,2136
 786,2140 791,2144 797,2146 802,2148 808,2149 815,2148 820,2147 826,2145 831,2142
 836,2138 840,2134 843,2129 846,2123 847,2117 848,2111"
	stroke="#000000" stroke-width="8px" stroke-miterlimit="8"/>
<!-- Line -->
<defs>
<clipPath id="cp7">
	<path clip-rule="evenodd" d="M 213,1395 H 3342 V 2857 H 213 z
		M 503,1844 504,1850 506,1856 508,1861 512,1866 516,1870 521,1874 527,1876 532,1878 538,1879 545,1878 550,1877 556,1875 561,1872 566,1868 570,1864 573,1859 576,1853 577,1847 578,1841 551,1793 530,1793z"/>
</clipPath>
</defs>
<polyline points=" 540,2250 540,1800" clip-path="url(#cp7)"
	stroke="#000000" stroke-width="15px"/>
<!-- Forward arrow to point 540,1800 -->
<polygon points=" 578,1841 577,1835 576,1829 573,1824 570,1819 566,1814 561,1810
 556,1807 550,1805 545,1804 538,1804 532,1805 527,1806 521,1809 516,1812 512,1816
 508,1821 506,1827 504,1832 503,1838 503,1844 504,1850 506,1856 508,1861 512,1866
 516,1870 521,1874 527,1876 532,1878 538,1879 545,1878 550,1877 556,1875 561,1872
 566,1868 570,1864 573,1859 576,1853 577,1847 578,1841"
	stroke="#000000" stroke-width="8px" stroke-miterlimit="8"/>
<!-- Line -->
<defs>
<clipPath id="cp8">
	<path clip-rule="evenodd" d="M 213,1395 H 3342 V 2857 H 213 z
		M 2393,2069 2394,2075 2396,2081 2398,2086 2402,2091 2406,2095 2411,2099 2417,2101 2422,2103 2428,2104 2435,2103 2440,2102 2446,2100 2451,2097 2456,2093 2460,2089 2463,2084 2466,2078 2467,2072 2468,2066 2441,2018 2420,2018z"/>
</clipPath>
</defs>
<polyline points=" 2430,2250 2430,2025" clip-path="url(#cp8)"
	stroke="#000000" stroke-width="15px"/>
<!-- Forward arrow to point 2430,2025 -->
<polygon points=" 2468,2066 2467,2060 2466,2054 2463,2049 2460,2044 2456,2039
 2451,2035 2446,2032 2440,2030 2435,2029 2428,2029 2422,2030 2417,2031 2411,2034
 2406,2037 2402,2041 2398,2046 2396,2052 2394,2057 2393,2063 2393,2069 2394,2075
 2396,2081 2398,2086 2402,2091 2406,2095 2411,2099 2417,2101 2422,2103 2428,2104
 2435,2103 2440,2102 2446,2100 2451,2097 2456,2093 2460,2089 2463,2084 2466,2078
 2467,2072 2468,2066"
	stroke="#000000" stroke-width="8px" stroke-miterlimit="8"/>
<!-- Line -->
<defs>
<clipPath id="cp9">
	<path clip-rule="evenodd" d="M 213,1395 H 3342 V 2857 H 213 z
		M 2708,1754 2709,1760 2711,1766 2713,1771 2717,1776 2721,1780 2726,1784 2732,1786 2737,1788 2743,1789 2750,1788 2755,1787 2761,1785 2766,1782 2771,1778 2775,1774 2778,1769 2781,1763 2782,1757 2783,1751 2756,1703 2735,1703z"/>
</clipPath>
</defs>
<polyline points=" 2745,2250 2745,1710" clip-path="url(#cp9)"
	stroke="#000000" stroke-width="15px"/>
<!-- Forward arrow to point 2745,1710 -->
<polygon points=" 2783,1751 2782,1745 2781,1739 2778,1734 2775,1729 2771,1724
 2766,1720 2761,1717 2755,1715 2750,1714 2743,1714 2737,1715 2732,1716 2726,1719
 2721,1722 2717,1726 2713,1731 2711,1737 2709,1742 2708,1748 2708,1754 2709,1760
 2711,1766 2713,1771 2717,1776 2721,1780 2726,1784 2732,1786 2737,1788 2743,1789
 2750,1788 2755,1787 2761,1785 2766,1782 2771,1778 2775,1774 2778,1769 2781,1763
 2782,1757 2783,1751"
	stroke="#000000" stroke-width="8px" stroke-miterlimit="8"/>
<!-- Text -->
<text xml:space="preserve" x="3195" y="2160" fill="#000000" font-family="Times" font-style="normal" font-weight="normal" font-size="108" text-anchor="start">n</text>
<!-- Text -->
<text xml:space="preserve" x="1665" y="1530" fill="#000000" font-family="Times" font-style="normal" font-weight="normal" font-size="108" text-anchor="start">x[n]</text>
</g>
</svg>
