<?xml version="1.0" encoding="UTF-8" standalone="no"?>
<!-- Creator: fig2dev Version 3.2.8b -->
<!-- CreationDate: 2025-10-30 19:43:16 -->
<!-- Magnification: 1.05 -->
<svg	xmlns="http://www.w3.org/2000/svg"
	xmlns:xlink="http://www.w3.org/1999/xlink"
	width="257pt" height="169pt"
	viewBox="-372 1248 4077 2673">
<g fill="none">
<!-- Line -->
<polyline points=" 3060,1710 1620,1710 1620,2250"
	stroke="#000000" stroke-width="8px" stroke-dasharray="40 40"/>
<!-- Line -->
<defs>
<clipPath id="cp0">
	<path clip-rule="evenodd" d="M -372,1248 H 3705 V 3921 H -372 z
		M 1605,1355 1620,1340 1635,1355 1627,1253 1613,1253z"/>
</clipPath>
</defs>
<polyline points=" 1620,1710 1620,1260" clip-path="url(#cp0)"
	stroke="#000000" stroke-width="8px"/>
<!-- Forward arrow to point 1620,1260 -->
<polygon points=" 1635,1355 1620,1280 1605,1355 1620,1340 1635,1355"
	stroke="#000000" stroke-width="8px" stroke-miterlimit="8" fill="#000000"/>
<!-- Line -->
<polyline points=" 1620,2250 1620,2385"
	stroke="#000000" stroke-width="8px"/>
<!-- Line -->
<polyline points=" 3060,3150 1620,3150 1620,3690"
	stroke="#000000" stroke-width="8px" stroke-dasharray="40 40"/>
<!-- Line -->
<defs>
<clipPath id="cp1">
	<path clip-rule="evenodd" d="M -372,1248 H 3705 V 3921 H -372 z
		M 1605,2795 1620,2780 1635,2795 1627,2693 1613,2693z"/>
</clipPath>
</defs>
<polyline points=" 1620,3150 1620,2700" clip-path="url(#cp1)"
	stroke="#000000" stroke-width="8px"/>
<!-- Forward arrow to point 1620,2700 -->
<polygon points=" 1635,2795 1620,2720 1605,2795 1620,2780 1635,2795"
	stroke="#000000" stroke-width="8px" stroke-miterlimit="8" fill="#000000"/>
<!-- Line -->
<polyline points=" 1620,3690 1620,3825"
	stroke="#000000" stroke-width="8px"/>
<!-- Line -->
<defs>
<clipPath id="cp2">
	<path clip-rule="evenodd" d="M -372,1248 H 3705 V 3921 H -372 z
		M 3055,3675 3070,3690 3055,3705 3157,3697 3157,3683z"/>
</clipPath>
</defs>
<polyline points=" -360,3690 3150,3690" clip-path="url(#cp2)"
	stroke="#000000" stroke-width="8px"/>
<!-- Forward arrow to point 3150,3690 -->
<polygon points=" 3055,3705 3130,3690 3055,3675 3070,3690 3055,3705"
	stroke="#000000" stroke-width="8px" stroke-miterlimit="8" fill="#000000"/>
<!-- Line -->
<defs>
<clipPath id="cp3">
	<path clip-rule="evenodd" d="M -372,1248 H 3705 V 3921 H -372 z
		M 3055,2235 3070,2250 3055,2265 3157,2257 3157,2243z"/>
</clipPath>
</defs>
<polyline points=" -360,2250 3150,2250" clip-path="url(#cp3)"
	stroke="#000000" stroke-width="8px"/>
<!-- Forward arrow to point 3150,2250 -->
<polygon points=" 3055,2265 3130,2250 3055,2235 3070,2250 3055,2265"
	stroke="#000000" stroke-width="8px" stroke-miterlimit="8" fill="#000000"/>
<!-- Line -->
<defs>
<clipPath id="cp4">
	<path clip-rule="evenodd" d="M -372,1248 H 3705 V 3921 H -372 z
		M 1600,3169 1603,3190 1582,3192 1666,3249 1674,3239z"/>
</clipPath>
</defs>
<polyline points=" 1440,3060 1665,3240" clip-path="url(#cp4)"
	stroke="#000000" stroke-width="8px"/>
<!-- Forward arrow to point 1665,3240 -->
<polygon points=" 1582,3192 1649,3228 1600,3169 1603,3190 1582,3192"
	stroke="#000000" stroke-width="8px" stroke-miterlimit="8" fill="#000000"/>
<!-- Text -->
<text xml:space="preserve" x="1620" y="2430" fill="#000000" font-family="Times" font-style="normal" font-weight="normal" font-size="96" text-anchor="middle">0</text>
<!-- Text -->
<text xml:space="preserve" x="1620" y="3870" fill="#000000" font-family="Times" font-style="normal" font-weight="normal" font-size="96" text-anchor="middle">0</text>
<!-- Text -->
<text xml:space="preserve" x="2250" y="1575" fill="#000000" font-family="Times" font-style="normal" font-weight="normal" font-size="120" text-anchor="start">Intervalo de integraci\'on</text>
<!-- Text -->
<text xml:space="preserve" x="-270" y="3060" fill="#000000" font-family="Times" font-style="normal" font-weight="normal" font-size="120" text-anchor="start">Intervalo de integraci\'on</text>
<!-- Text -->
<text xml:space="preserve" x="1080" y="2430" fill="#000000" font-family="Times" font-style="normal" font-weight="normal" font-size="96" text-anchor="middle">t</text>
<!-- Text -->
<text xml:space="preserve" x="2295" y="3870" fill="#000000" font-family="Times" font-style="normal" font-weight="normal" font-size="96" text-anchor="middle">t</text>
<!-- Text -->
<text xml:space="preserve" x="945" y="1845" fill="#000000" font-family="Times" font-style="italic" font-weight="normal" font-size="132" text-anchor="end">1</text>
<!-- Text -->
<text xml:space="preserve" x="2205" y="3285" fill="#000000" font-family="Times" font-style="italic" font-weight="normal" font-size="132" text-anchor="end">1</text>
<!-- Line -->
<defs>
<clipPath id="cp5">
	<path clip-rule="evenodd" d="M -372,1248 H 3705 V 3921 H -372 z
		M 1050,1925 1080,1895 1110,1925 1091,1745 1070,1745z"/>
</clipPath>
</defs>
<polyline points=" 1080,2250 1080,1755" clip-path="url(#cp5)"
	stroke="#000000" stroke-width="15px"/>
<!-- Forward arrow to point 1080,1755 -->
<polygon points=" 1110,1925 1080,1775 1050,1925 1080,1895 1110,1925"
	stroke="#000000" stroke-width="8px" stroke-miterlimit="8" fill="#000000"/>
<!-- Line -->
<defs>
<clipPath id="cp6">
	<path clip-rule="evenodd" d="M -372,1248 H 3705 V 3921 H -372 z
		M 2265,3365 2295,3335 2325,3365 2306,3185 2285,3185z"/>
</clipPath>
</defs>
<polyline points=" 2295,3690 2295,3195" clip-path="url(#cp6)"
	stroke="#000000" stroke-width="15px"/>
<!-- Forward arrow to point 2295,3195 -->
<polygon points=" 2325,3365 2295,3215 2265,3365 2295,3335 2325,3365"
	stroke="#000000" stroke-width="8px" stroke-miterlimit="8" fill="#000000"/>
<!-- Text -->
<text xml:space="preserve" x="3690" y="1800" fill="#000000" font-family="Times" font-style="italic" font-weight="normal" font-size="132" text-anchor="start">t&lt;0\ \rightarrow\ u(t)=0,</text>
<!-- Text -->
<text xml:space="preserve" x="3690" y="3240" fill="#000000" font-family="Times" font-style="italic" font-weight="normal" font-size="132" text-anchor="start">t&gt;0\ \rightarrow\ u(t)=1.</text>
<!-- Text -->
<text xml:space="preserve" x="3060" y="2205" fill="#000000" font-family="Times" font-style="italic" font-weight="normal" font-size="132" text-anchor="start">\sigma</text>
<!-- Text -->
<text xml:space="preserve" x="3060" y="3645" fill="#000000" font-family="Times" font-style="italic" font-weight="normal" font-size="132" text-anchor="start">\sigma</text>
<!-- Text -->
<text xml:space="preserve" x="1035" y="1620" fill="#000000" font-family="Times" font-style="italic" font-weight="normal" font-size="132" text-anchor="start">\delta(t-\sigma)</text>
<!-- Text -->
<text xml:space="preserve" x="2250" y="3060" fill="#000000" font-family="Times" font-style="italic" font-weight="normal" font-size="132" text-anchor="start">\delta(t-\sigma)</text>
</g>
</svg>
