<?xml version="1.0" encoding="UTF-8" standalone="no"?>
<!-- Creator: fig2dev Version 3.2.8b -->
<!-- CreationDate: 2025-10-30 19:43:17 -->
<!-- Magnification: 1.05 -->
<svg	xmlns="http://www.w3.org/2000/svg"
	xmlns:xlink="http://www.w3.org/1999/xlink"
	width="257pt" height="156pt"
	viewBox="-372 1449 4077 2472">
<g fill="none">
<!-- Line -->
<defs>
<clipPath id="cp0">
	<path clip-rule="evenodd" d="M -372,1449 H 3705 V 3921 H -372 z
		M 3055,2235 3070,2250 3055,2265 3157,2257 3157,2243z"/>
</clipPath>
</defs>
<polyline points=" -360,2250 3150,2250" clip-path="url(#cp0)"
	stroke="#000000" stroke-width="8px"/>
<!-- Forward arrow to point 3150,2250 -->
<polygon points=" 3055,2265 3130,2250 3055,2235 3070,2250 3055,2265"
	stroke="#000000" stroke-width="8px" stroke-miterlimit="8" fill="#000000"/>
<!-- Line -->
<polyline points=" -360,1710 540,1710 540,2250"
	stroke="#000000" stroke-width="8px" stroke-dasharray="40 40"/>
<!-- Line -->
<defs>
<clipPath id="cp1">
	<path clip-rule="evenodd" d="M -372,1449 H 3705 V 3921 H -372 z
		M 3055,3675 3070,3690 3055,3705 3157,3697 3157,3683z"/>
</clipPath>
</defs>
<polyline points=" -360,3690 3150,3690" clip-path="url(#cp1)"
	stroke="#000000" stroke-width="8px"/>
<!-- Forward arrow to point 3150,3690 -->
<polygon points=" 3055,3705 3130,3690 3055,3675 3070,3690 3055,3705"
	stroke="#000000" stroke-width="8px" stroke-miterlimit="8" fill="#000000"/>
<!-- Line -->
<polyline points=" -360,3150 2430,3150 2430,3690"
	stroke="#000000" stroke-width="8px" stroke-dasharray="40 40"/>
<!-- Text -->
<text xml:space="preserve" x="1620" y="2430" fill="#000000" font-family="Times" font-style="normal" font-weight="normal" font-size="96" text-anchor="middle">0</text>
<!-- Text -->
<text xml:space="preserve" x="1755" y="1845" fill="#000000" font-family="Times" font-style="italic" font-weight="normal" font-size="132" text-anchor="start">1</text>
<!-- Text -->
<text xml:space="preserve" x="-270" y="1575" fill="#000000" font-family="Times" font-style="normal" font-weight="normal" font-size="120" text-anchor="start">Intervalo de suma</text>
<!-- Text -->
<text xml:space="preserve" x="1620" y="3870" fill="#000000" font-family="Times" font-style="normal" font-weight="normal" font-size="96" text-anchor="middle">0</text>
<!-- Text -->
<text xml:space="preserve" x="1755" y="3285" fill="#000000" font-family="Times" font-style="italic" font-weight="normal" font-size="132" text-anchor="start">1</text>
<!-- Text -->
<text xml:space="preserve" x="-270" y="3015" fill="#000000" font-family="Times" font-style="normal" font-weight="normal" font-size="120" text-anchor="start">Intervalo de suma</text>
<!-- Text -->
<text xml:space="preserve" x="540" y="2430" fill="#000000" font-family="Times" font-style="normal" font-weight="normal" font-size="96" text-anchor="middle">n</text>
<!-- Text -->
<text xml:space="preserve" x="2430" y="3870" fill="#000000" font-family="Times" font-style="normal" font-weight="normal" font-size="96" text-anchor="middle">n</text>
<!-- Line -->
<defs>
<clipPath id="cp2">
	<path clip-rule="evenodd" d="M -372,1449 H 3705 V 3921 H -372 z
		M 1351,2213 1345,2214 1339,2216 1334,2218 1329,2222 1325,2226 1321,2231 1319,2237 1317,2242 1316,2248 1317,2255 1318,2260 1320,2266 1323,2271 1327,2276 1331,2280 1336,2283 1342,2286 1348,2287 1354,2288 1398,2257 1398,2243z
		M 1079,2287 1085,2286 1091,2284 1096,2282 1101,2278 1105,2274 1109,2269 1111,2263 1113,2258 1114,2252 1113,2245 1112,2240 1110,2234 1107,2229 1103,2224 1099,2220 1094,2217 1088,2214 1082,2213 1076,2213 1032,2243 1032,2257z"/>
</clipPath>
</defs>
<polyline points=" 1035,2250 1395,2250" clip-path="url(#cp2)"
	stroke="#000000" stroke-width="8px"/>
<!-- Forward arrow to point 1395,2250 -->
<polygon points=" 1354,2288 1360,2287 1366,2286 1371,2283 1376,2280 1381,2276
 1385,2271 1388,2266 1390,2260 1391,2255 1391,2248 1390,2242 1389,2237 1386,2231
 1383,2226 1379,2222 1374,2218 1368,2216 1363,2214 1357,2213 1351,2213 1345,2214
 1339,2216 1334,2218 1329,2222 1325,2226 1321,2231 1319,2237 1317,2242 1316,2248
 1317,2255 1318,2260 1320,2266 1323,2271 1327,2276 1331,2280 1336,2283 1342,2286
 1348,2287 1354,2288"
	stroke="#000000" stroke-width="8px" stroke-miterlimit="8"/>
<!-- Backward arrow to point 1035,2250 -->
<polygon points=" 1076,2213 1070,2213 1064,2214 1059,2217 1054,2220 1049,2224
 1045,2229 1042,2234 1040,2240 1039,2245 1039,2252 1040,2258 1041,2263 1044,2269
 1047,2274 1051,2278 1056,2282 1062,2284 1067,2286 1073,2287 1079,2287 1085,2286
 1091,2284 1096,2282 1101,2278 1105,2274 1109,2269 1111,2263 1113,2258 1114,2252
 1113,2245 1112,2240 1110,2234 1107,2229 1103,2224 1099,2220 1094,2217 1088,2214
 1082,2213 1076,2213"
	stroke="#000000" stroke-width="8px" stroke-miterlimit="8"/>
<!-- Line -->
<defs>
<clipPath id="cp3">
	<path clip-rule="evenodd" d="M -372,1449 H 3705 V 3921 H -372 z
		M 811,2213 805,2214 799,2216 794,2218 789,2222 785,2226 781,2231 779,2237 777,2242 776,2248 777,2255 778,2260 780,2266 783,2271 787,2276 791,2280 796,2283 802,2286 808,2287 814,2288 858,2257 858,2243z
		M 539,2287 545,2286 551,2284 556,2282 561,2278 565,2274 569,2269 571,2263 573,2258 574,2252 573,2245 572,2240 570,2234 567,2229 563,2224 559,2220 554,2217 548,2214 542,2213 536,2213 492,2243 492,2257z"/>
</clipPath>
</defs>
<polyline points=" 495,2250 855,2250" clip-path="url(#cp3)"
	stroke="#000000" stroke-width="8px"/>
<!-- Forward arrow to point 855,2250 -->
<polygon points=" 814,2288 820,2287 826,2286 831,2283 836,2280 841,2276 845,2271
 848,2266 850,2260 851,2255 851,2248 850,2242 849,2237 846,2231 843,2226 839,2222
 834,2218 828,2216 823,2214 817,2213 811,2213 805,2214 799,2216 794,2218 789,2222
 785,2226 781,2231 779,2237 777,2242 776,2248 777,2255 778,2260 780,2266 783,2271
 787,2276 791,2280 796,2283 802,2286 808,2287 814,2288"
	stroke="#000000" stroke-width="8px" stroke-miterlimit="8"/>
<!-- Backward arrow to point 495,2250 -->
<polygon points=" 536,2213 530,2213 524,2214 519,2217 514,2220 509,2224 505,2229
 502,2234 500,2240 499,2245 499,2252 500,2258 501,2263 504,2269 507,2274 511,2278
 516,2282 522,2284 527,2286 533,2287 539,2287 545,2286 551,2284 556,2282 561,2278
 565,2274 569,2269 571,2263 573,2258 574,2252 573,2245 572,2240 570,2234 567,2229
 563,2224 559,2220 554,2217 548,2214 542,2213 536,2213"
	stroke="#000000" stroke-width="8px" stroke-miterlimit="8"/>
<!-- Line -->
<defs>
<clipPath id="cp4">
	<path clip-rule="evenodd" d="M -372,1449 H 3705 V 3921 H -372 z
		M 1583,1799 1584,1805 1586,1811 1588,1816 1592,1821 1596,1825 1601,1829 1607,1831 1612,1833 1618,1834 1625,1833 1630,1832 1636,1830 1641,1827 1646,1823 1650,1819 1653,1814 1656,1808 1657,1802 1658,1796 1631,1748 1610,1748z
		M 539,2287 545,2286 551,2284 556,2282 561,2278 565,2274 569,2269 571,2263 573,2258 574,2252 573,2245 572,2240 570,2234 567,2229 563,2224 559,2220 554,2217 548,2214 542,2213 536,2213 492,2243 492,2257z"/>
</clipPath>
</defs>
<polyline points=" 1620,2250 1620,1755" clip-path="url(#cp4)"
	stroke="#000000" stroke-width="15px"/>
<!-- Forward arrow to point 1620,1755 -->
<polygon points=" 1658,1796 1657,1790 1656,1784 1653,1779 1650,1774 1646,1769
 1641,1765 1636,1762 1630,1760 1625,1759 1618,1759 1612,1760 1607,1761 1601,1764
 1596,1767 1592,1771 1588,1776 1586,1782 1584,1787 1583,1793 1583,1799 1584,1805
 1586,1811 1588,1816 1592,1821 1596,1825 1601,1829 1607,1831 1612,1833 1618,1834
 1625,1833 1630,1832 1636,1830 1641,1827 1646,1823 1650,1819 1653,1814 1656,1808
 1657,1802 1658,1796"
	stroke="#000000" stroke-width="8px" stroke-miterlimit="8"/>
<!-- Line -->
<defs>
<clipPath id="cp5">
	<path clip-rule="evenodd" d="M -372,1449 H 3705 V 3921 H -372 z
		M 2161,2213 2155,2214 2149,2216 2144,2218 2139,2222 2135,2226 2131,2231 2129,2237 2127,2242 2126,2248 2127,2255 2128,2260 2130,2266 2133,2271 2137,2276 2141,2280 2146,2283 2152,2286 2158,2287 2164,2288 2208,2257 2208,2243z
		M 1889,2287 1895,2286 1901,2284 1906,2282 1911,2278 1915,2274 1919,2269 1921,2263 1923,2258 1924,2252 1923,2245 1922,2240 1920,2234 1917,2229 1913,2224 1909,2220 1904,2217 1898,2214 1892,2213 1886,2213 1842,2243 1842,2257z"/>
</clipPath>
</defs>
<polyline points=" 1845,2250 2205,2250" clip-path="url(#cp5)"
	stroke="#000000" stroke-width="8px"/>
<!-- Forward arrow to point 2205,2250 -->
<polygon points=" 2164,2288 2170,2287 2176,2286 2181,2283 2186,2280 2191,2276
 2195,2271 2198,2266 2200,2260 2201,2255 2201,2248 2200,2242 2199,2237 2196,2231
 2193,2226 2189,2222 2184,2218 2178,2216 2173,2214 2167,2213 2161,2213 2155,2214
 2149,2216 2144,2218 2139,2222 2135,2226 2131,2231 2129,2237 2127,2242 2126,2248
 2127,2255 2128,2260 2130,2266 2133,2271 2137,2276 2141,2280 2146,2283 2152,2286
 2158,2287 2164,2288"
	stroke="#000000" stroke-width="8px" stroke-miterlimit="8"/>
<!-- Backward arrow to point 1845,2250 -->
<polygon points=" 1886,2213 1880,2213 1874,2214 1869,2217 1864,2220 1859,2224
 1855,2229 1852,2234 1850,2240 1849,2245 1849,2252 1850,2258 1851,2263 1854,2269
 1857,2274 1861,2278 1866,2282 1872,2284 1877,2286 1883,2287 1889,2287 1895,2286
 1901,2284 1906,2282 1911,2278 1915,2274 1919,2269 1921,2263 1923,2258 1924,2252
 1923,2245 1922,2240 1920,2234 1917,2229 1913,2224 1909,2220 1904,2217 1898,2214
 1892,2213 1886,2213"
	stroke="#000000" stroke-width="8px" stroke-miterlimit="8"/>
<!-- Line -->
<defs>
<clipPath id="cp6">
	<path clip-rule="evenodd" d="M -372,1449 H 3705 V 3921 H -372 z
		M 2701,2213 2695,2214 2689,2216 2684,2218 2679,2222 2675,2226 2671,2231 2669,2237 2667,2242 2666,2248 2667,2255 2668,2260 2670,2266 2673,2271 2677,2276 2681,2280 2686,2283 2692,2286 2698,2287 2704,2288 2748,2257 2748,2243z
		M 2429,2287 2435,2286 2441,2284 2446,2282 2451,2278 2455,2274 2459,2269 2461,2263 2463,2258 2464,2252 2463,2245 2462,2240 2460,2234 2457,2229 2453,2224 2449,2220 2444,2217 2438,2214 2432,2213 2426,2213 2382,2243 2382,2257z"/>
</clipPath>
</defs>
<polyline points=" 2385,2250 2745,2250" clip-path="url(#cp6)"
	stroke="#000000" stroke-width="8px"/>
<!-- Forward arrow to point 2745,2250 -->
<polygon points=" 2704,2288 2710,2287 2716,2286 2721,2283 2726,2280 2731,2276
 2735,2271 2738,2266 2740,2260 2741,2255 2741,2248 2740,2242 2739,2237 2736,2231
 2733,2226 2729,2222 2724,2218 2718,2216 2713,2214 2707,2213 2701,2213 2695,2214
 2689,2216 2684,2218 2679,2222 2675,2226 2671,2231 2669,2237 2667,2242 2666,2248
 2667,2255 2668,2260 2670,2266 2673,2271 2677,2276 2681,2280 2686,2283 2692,2286
 2698,2287 2704,2288"
	stroke="#000000" stroke-width="8px" stroke-miterlimit="8"/>
<!-- Backward arrow to point 2385,2250 -->
<polygon points=" 2426,2213 2420,2213 2414,2214 2409,2217 2404,2220 2399,2224
 2395,2229 2392,2234 2390,2240 2389,2245 2389,2252 2390,2258 2391,2263 2394,2269
 2397,2274 2401,2278 2406,2282 2412,2284 2417,2286 2423,2287 2429,2287 2435,2286
 2441,2284 2446,2282 2451,2278 2455,2274 2459,2269 2461,2263 2463,2258 2464,2252
 2463,2245 2462,2240 2460,2234 2457,2229 2453,2224 2449,2220 2444,2217 2438,2214
 2432,2213 2426,2213"
	stroke="#000000" stroke-width="8px" stroke-miterlimit="8"/>
<!-- Line -->
<defs>
<clipPath id="cp7">
	<path clip-rule="evenodd" d="M -372,1449 H 3705 V 3921 H -372 z
		M 271,2213 265,2214 259,2216 254,2218 249,2222 245,2226 241,2231 239,2237 237,2242 236,2248 237,2255 238,2260 240,2266 243,2271 247,2276 251,2280 256,2283 262,2286 268,2287 274,2288 318,2257 318,2243z
		M -1,2287 5,2286 11,2284 16,2282 21,2278 25,2274 29,2269 31,2263 33,2258 34,2252 33,2245 32,2240 30,2234 27,2229 23,2224 19,2220 14,2217 8,2214 2,2213 -4,2213 -48,2243 -48,2257z"/>
</clipPath>
</defs>
<polyline points=" -45,2250 315,2250" clip-path="url(#cp7)"
	stroke="#000000" stroke-width="8px"/>
<!-- Forward arrow to point 315,2250 -->
<polygon points=" 274,2288 280,2287 286,2286 291,2283 296,2280 301,2276 305,2271
 308,2266 310,2260 311,2255 311,2248 310,2242 309,2237 306,2231 303,2226 299,2222
 294,2218 288,2216 283,2214 277,2213 271,2213 265,2214 259,2216 254,2218 249,2222
 245,2226 241,2231 239,2237 237,2242 236,2248 237,2255 238,2260 240,2266 243,2271
 247,2276 251,2280 256,2283 262,2286 268,2287 274,2288"
	stroke="#000000" stroke-width="8px" stroke-miterlimit="8"/>
<!-- Backward arrow to point -45,2250 -->
<polygon points=" -4,2213 -10,2213 -16,2214 -21,2217 -26,2220 -31,2224 -35,2229
 -38,2234 -40,2240 -41,2245 -41,2252 -40,2258 -39,2263 -36,2269 -33,2274 -29,2278
 -24,2282 -18,2284 -13,2286 -7,2287 -1,2287 5,2286 11,2284 16,2282 21,2278 25,2274
 29,2269 31,2263 33,2258 34,2252 33,2245 32,2240 30,2234 27,2229 23,2224 19,2220
 14,2217 8,2214 2,2213 -4,2213"
	stroke="#000000" stroke-width="8px" stroke-miterlimit="8"/>
<!-- Line -->
<defs>
<clipPath id="cp8">
	<path clip-rule="evenodd" d="M -372,1449 H 3705 V 3921 H -372 z
		M 1351,3653 1345,3654 1339,3656 1334,3658 1329,3662 1325,3666 1321,3671 1319,3677 1317,3682 1316,3688 1317,3695 1318,3700 1320,3706 1323,3711 1327,3716 1331,3720 1336,3723 1342,3726 1348,3727 1354,3728 1398,3697 1398,3683z
		M 1079,3727 1085,3726 1091,3724 1096,3722 1101,3718 1105,3714 1109,3709 1111,3703 1113,3698 1114,3692 1113,3685 1112,3680 1110,3674 1107,3669 1103,3664 1099,3660 1094,3657 1088,3654 1082,3653 1076,3653 1032,3683 1032,3697z"/>
</clipPath>
</defs>
<polyline points=" 1035,3690 1395,3690" clip-path="url(#cp8)"
	stroke="#000000" stroke-width="8px"/>
<!-- Forward arrow to point 1395,3690 -->
<polygon points=" 1354,3728 1360,3727 1366,3726 1371,3723 1376,3720 1381,3716
 1385,3711 1388,3706 1390,3700 1391,3695 1391,3688 1390,3682 1389,3677 1386,3671
 1383,3666 1379,3662 1374,3658 1368,3656 1363,3654 1357,3653 1351,3653 1345,3654
 1339,3656 1334,3658 1329,3662 1325,3666 1321,3671 1319,3677 1317,3682 1316,3688
 1317,3695 1318,3700 1320,3706 1323,3711 1327,3716 1331,3720 1336,3723 1342,3726
 1348,3727 1354,3728"
	stroke="#000000" stroke-width="8px" stroke-miterlimit="8"/>
<!-- Backward arrow to point 1035,3690 -->
<polygon points=" 1076,3653 1070,3653 1064,3654 1059,3657 1054,3660 1049,3664
 1045,3669 1042,3674 1040,3680 1039,3685 1039,3692 1040,3698 1041,3703 1044,3709
 1047,3714 1051,3718 1056,3722 1062,3724 1067,3726 1073,3727 1079,3727 1085,3726
 1091,3724 1096,3722 1101,3718 1105,3714 1109,3709 1111,3703 1113,3698 1114,3692
 1113,3685 1112,3680 1110,3674 1107,3669 1103,3664 1099,3660 1094,3657 1088,3654
 1082,3653 1076,3653"
	stroke="#000000" stroke-width="8px" stroke-miterlimit="8"/>
<!-- Line -->
<defs>
<clipPath id="cp9">
	<path clip-rule="evenodd" d="M -372,1449 H 3705 V 3921 H -372 z
		M 811,3653 805,3654 799,3656 794,3658 789,3662 785,3666 781,3671 779,3677 777,3682 776,3688 777,3695 778,3700 780,3706 783,3711 787,3716 791,3720 796,3723 802,3726 808,3727 814,3728 858,3697 858,3683z
		M 539,3727 545,3726 551,3724 556,3722 561,3718 565,3714 569,3709 571,3703 573,3698 574,3692 573,3685 572,3680 570,3674 567,3669 563,3664 559,3660 554,3657 548,3654 542,3653 536,3653 492,3683 492,3697z"/>
</clipPath>
</defs>
<polyline points=" 495,3690 855,3690" clip-path="url(#cp9)"
	stroke="#000000" stroke-width="8px"/>
<!-- Forward arrow to point 855,3690 -->
<polygon points=" 814,3728 820,3727 826,3726 831,3723 836,3720 841,3716 845,3711
 848,3706 850,3700 851,3695 851,3688 850,3682 849,3677 846,3671 843,3666 839,3662
 834,3658 828,3656 823,3654 817,3653 811,3653 805,3654 799,3656 794,3658 789,3662
 785,3666 781,3671 779,3677 777,3682 776,3688 777,3695 778,3700 780,3706 783,3711
 787,3716 791,3720 796,3723 802,3726 808,3727 814,3728"
	stroke="#000000" stroke-width="8px" stroke-miterlimit="8"/>
<!-- Backward arrow to point 495,3690 -->
<polygon points=" 536,3653 530,3653 524,3654 519,3657 514,3660 509,3664 505,3669
 502,3674 500,3680 499,3685 499,3692 500,3698 501,3703 504,3709 507,3714 511,3718
 516,3722 522,3724 527,3726 533,3727 539,3727 545,3726 551,3724 556,3722 561,3718
 565,3714 569,3709 571,3703 573,3698 574,3692 573,3685 572,3680 570,3674 567,3669
 563,3664 559,3660 554,3657 548,3654 542,3653 536,3653"
	stroke="#000000" stroke-width="8px" stroke-miterlimit="8"/>
<!-- Line -->
<defs>
<clipPath id="cp10">
	<path clip-rule="evenodd" d="M -372,1449 H 3705 V 3921 H -372 z
		M 1583,3239 1584,3245 1586,3251 1588,3256 1592,3261 1596,3265 1601,3269 1607,3271 1612,3273 1618,3274 1625,3273 1630,3272 1636,3270 1641,3267 1646,3263 1650,3259 1653,3254 1656,3248 1657,3242 1658,3236 1631,3188 1610,3188z
		M 539,3727 545,3726 551,3724 556,3722 561,3718 565,3714 569,3709 571,3703 573,3698 574,3692 573,3685 572,3680 570,3674 567,3669 563,3664 559,3660 554,3657 548,3654 542,3653 536,3653 492,3683 492,3697z"/>
</clipPath>
</defs>
<polyline points=" 1620,3690 1620,3195" clip-path="url(#cp10)"
	stroke="#000000" stroke-width="15px"/>
<!-- Forward arrow to point 1620,3195 -->
<polygon points=" 1658,3236 1657,3230 1656,3224 1653,3219 1650,3214 1646,3209
 1641,3205 1636,3202 1630,3200 1625,3199 1618,3199 1612,3200 1607,3201 1601,3204
 1596,3207 1592,3211 1588,3216 1586,3222 1584,3227 1583,3233 1583,3239 1584,3245
 1586,3251 1588,3256 1592,3261 1596,3265 1601,3269 1607,3271 1612,3273 1618,3274
 1625,3273 1630,3272 1636,3270 1641,3267 1646,3263 1650,3259 1653,3254 1656,3248
 1657,3242 1658,3236"
	stroke="#000000" stroke-width="8px" stroke-miterlimit="8"/>
<!-- Line -->
<defs>
<clipPath id="cp11">
	<path clip-rule="evenodd" d="M -372,1449 H 3705 V 3921 H -372 z
		M 2161,3653 2155,3654 2149,3656 2144,3658 2139,3662 2135,3666 2131,3671 2129,3677 2127,3682 2126,3688 2127,3695 2128,3700 2130,3706 2133,3711 2137,3716 2141,3720 2146,3723 2152,3726 2158,3727 2164,3728 2208,3697 2208,3683z
		M 1889,3727 1895,3726 1901,3724 1906,3722 1911,3718 1915,3714 1919,3709 1921,3703 1923,3698 1924,3692 1923,3685 1922,3680 1920,3674 1917,3669 1913,3664 1909,3660 1904,3657 1898,3654 1892,3653 1886,3653 1842,3683 1842,3697z"/>
</clipPath>
</defs>
<polyline points=" 1845,3690 2205,3690" clip-path="url(#cp11)"
	stroke="#000000" stroke-width="8px"/>
<!-- Forward arrow to point 2205,3690 -->
<polygon points=" 2164,3728 2170,3727 2176,3726 2181,3723 2186,3720 2191,3716
 2195,3711 2198,3706 2200,3700 2201,3695 2201,3688 2200,3682 2199,3677 2196,3671
 2193,3666 2189,3662 2184,3658 2178,3656 2173,3654 2167,3653 2161,3653 2155,3654
 2149,3656 2144,3658 2139,3662 2135,3666 2131,3671 2129,3677 2127,3682 2126,3688
 2127,3695 2128,3700 2130,3706 2133,3711 2137,3716 2141,3720 2146,3723 2152,3726
 2158,3727 2164,3728"
	stroke="#000000" stroke-width="8px" stroke-miterlimit="8"/>
<!-- Backward arrow to point 1845,3690 -->
<polygon points=" 1886,3653 1880,3653 1874,3654 1869,3657 1864,3660 1859,3664
 1855,3669 1852,3674 1850,3680 1849,3685 1849,3692 1850,3698 1851,3703 1854,3709
 1857,3714 1861,3718 1866,3722 1872,3724 1877,3726 1883,3727 1889,3727 1895,3726
 1901,3724 1906,3722 1911,3718 1915,3714 1919,3709 1921,3703 1923,3698 1924,3692
 1923,3685 1922,3680 1920,3674 1917,3669 1913,3664 1909,3660 1904,3657 1898,3654
 1892,3653 1886,3653"
	stroke="#000000" stroke-width="8px" stroke-miterlimit="8"/>
<!-- Line -->
<defs>
<clipPath id="cp12">
	<path clip-rule="evenodd" d="M -372,1449 H 3705 V 3921 H -372 z
		M 2701,3653 2695,3654 2689,3656 2684,3658 2679,3662 2675,3666 2671,3671 2669,3677 2667,3682 2666,3688 2667,3695 2668,3700 2670,3706 2673,3711 2677,3716 2681,3720 2686,3723 2692,3726 2698,3727 2704,3728 2748,3697 2748,3683z
		M 2429,3727 2435,3726 2441,3724 2446,3722 2451,3718 2455,3714 2459,3709 2461,3703 2463,3698 2464,3692 2463,3685 2462,3680 2460,3674 2457,3669 2453,3664 2449,3660 2444,3657 2438,3654 2432,3653 2426,3653 2382,3683 2382,3697z"/>
</clipPath>
</defs>
<polyline points=" 2385,3690 2745,3690" clip-path="url(#cp12)"
	stroke="#000000" stroke-width="8px"/>
<!-- Forward arrow to point 2745,3690 -->
<polygon points=" 2704,3728 2710,3727 2716,3726 2721,3723 2726,3720 2731,3716
 2735,3711 2738,3706 2740,3700 2741,3695 2741,3688 2740,3682 2739,3677 2736,3671
 2733,3666 2729,3662 2724,3658 2718,3656 2713,3654 2707,3653 2701,3653 2695,3654
 2689,3656 2684,3658 2679,3662 2675,3666 2671,3671 2669,3677 2667,3682 2666,3688
 2667,3695 2668,3700 2670,3706 2673,3711 2677,3716 2681,3720 2686,3723 2692,3726
 2698,3727 2704,3728"
	stroke="#000000" stroke-width="8px" stroke-miterlimit="8"/>
<!-- Backward arrow to point 2385,3690 -->
<polygon points=" 2426,3653 2420,3653 2414,3654 2409,3657 2404,3660 2399,3664
 2395,3669 2392,3674 2390,3680 2389,3685 2389,3692 2390,3698 2391,3703 2394,3709
 2397,3714 2401,3718 2406,3722 2412,3724 2417,3726 2423,3727 2429,3727 2435,3726
 2441,3724 2446,3722 2451,3718 2455,3714 2459,3709 2461,3703 2463,3698 2464,3692
 2463,3685 2462,3680 2460,3674 2457,3669 2453,3664 2449,3660 2444,3657 2438,3654
 2432,3653 2426,3653"
	stroke="#000000" stroke-width="8px" stroke-miterlimit="8"/>
<!-- Line -->
<defs>
<clipPath id="cp13">
	<path clip-rule="evenodd" d="M -372,1449 H 3705 V 3921 H -372 z
		M 271,3653 265,3654 259,3656 254,3658 249,3662 245,3666 241,3671 239,3677 237,3682 236,3688 237,3695 238,3700 240,3706 243,3711 247,3716 251,3720 256,3723 262,3726 268,3727 274,3728 318,3697 318,3683z
		M -1,3727 5,3726 11,3724 16,3722 21,3718 25,3714 29,3709 31,3703 33,3698 34,3692 33,3685 32,3680 30,3674 27,3669 23,3664 19,3660 14,3657 8,3654 2,3653 -4,3653 -48,3683 -48,3697z"/>
</clipPath>
</defs>
<polyline points=" -45,3690 315,3690" clip-path="url(#cp13)"
	stroke="#000000" stroke-width="8px"/>
<!-- Forward arrow to point 315,3690 -->
<polygon points=" 274,3728 280,3727 286,3726 291,3723 296,3720 301,3716 305,3711
 308,3706 310,3700 311,3695 311,3688 310,3682 309,3677 306,3671 303,3666 299,3662
 294,3658 288,3656 283,3654 277,3653 271,3653 265,3654 259,3656 254,3658 249,3662
 245,3666 241,3671 239,3677 237,3682 236,3688 237,3695 238,3700 240,3706 243,3711
 247,3716 251,3720 256,3723 262,3726 268,3727 274,3728"
	stroke="#000000" stroke-width="8px" stroke-miterlimit="8"/>
<!-- Backward arrow to point -45,3690 -->
<polygon points=" -4,3653 -10,3653 -16,3654 -21,3657 -26,3660 -31,3664 -35,3669
 -38,3674 -40,3680 -41,3685 -41,3692 -40,3698 -39,3703 -36,3709 -33,3714 -29,3718
 -24,3722 -18,3724 -13,3726 -7,3727 -1,3727 5,3726 11,3724 16,3722 21,3718 25,3714
 29,3709 31,3703 33,3698 34,3692 33,3685 32,3680 30,3674 27,3669 23,3664 19,3660
 14,3657 8,3654 2,3653 -4,3653"
	stroke="#000000" stroke-width="8px" stroke-miterlimit="8"/>
<!-- Text -->
<text xml:space="preserve" x="3060" y="2205" fill="#000000" font-family="Times" font-style="italic" font-weight="normal" font-size="132" text-anchor="start">m</text>
<!-- Text -->
<text xml:space="preserve" x="3690" y="1800" fill="#000000" font-family="Times" font-style="italic" font-weight="normal" font-size="132" text-anchor="start">n&lt;0\ \rightarrow\ u[n]=0,</text>
<!-- Text -->
<text xml:space="preserve" x="3060" y="3645" fill="#000000" font-family="Times" font-style="italic" font-weight="normal" font-size="132" text-anchor="start">m</text>
<!-- Text -->
<text xml:space="preserve" x="3690" y="3240" fill="#000000" font-family="Times" font-style="italic" font-weight="normal" font-size="132" text-anchor="start">n\ge0\ \rightarrow\ u[n]=1.</text>
<!-- Text -->
<text xml:space="preserve" x="1620" y="1620" fill="#000000" font-family="Times" font-style="italic" font-weight="normal" font-size="132" text-anchor="middle">\delta[m]</text>
<!-- Text -->
<text xml:space="preserve" x="1620" y="3060" fill="#000000" font-family="Times" font-style="italic" font-weight="normal" font-size="132" text-anchor="middle">\delta[m]</text>
</g>
</svg>
