<?xml version="1.0" encoding="UTF-8" standalone="no"?>
<!-- Creator: fig2dev Version 3.2.8b -->
<!-- CreationDate: 2025-10-30 19:43:17 -->
<!-- Magnification: 1.05 -->
<svg	xmlns="http://www.w3.org/2000/svg"
	xmlns:xlink="http://www.w3.org/1999/xlink"
	width="419pt" height="185pt"
	viewBox="213 1338 6639 2922">
<g fill="none">
<!-- Line -->
<polyline points=" 3195,1350 3197,1352 3203,1356 3211,1363 3223,1374 3238,1388 3253,1404 3268,1423
 3283,1443 3296,1464 3307,1486 3317,1510 3326,1537 3333,1566 3340,1598 3345,1635
 3348,1658 3351,1682 3353,1708 3355,1735 3358,1763 3360,1793 3362,1824 3364,1857
 3366,1890 3368,1925 3370,1960 3371,1997 3373,2033 3375,2070 3377,2107 3379,2143
 3380,2180 3382,2215 3384,2250 3386,2283 3388,2316 3390,2347 3392,2377 3395,2405
 3397,2432 3399,2458 3402,2482 3405,2505 3410,2542 3417,2574 3424,2603 3433,2630
 3443,2654 3454,2676 3467,2697 3482,2717 3497,2736 3512,2752 3527,2766 3539,2777
 3547,2784 3553,2788 3555,2790"
	stroke="#000000" stroke-width="8px" stroke-linejoin="bevel"/>
<!-- Line -->
<polyline points=" 3555,2790 3553,2792 3547,2796 3539,2803 3527,2814 3512,2828 3497,2844 3482,2863
 3467,2883 3454,2904 3443,2926 3433,2950 3424,2977 3417,3006 3410,3038 3405,3075
 3402,3098 3399,3122 3397,3148 3395,3175 3392,3203 3390,3233 3388,3264 3386,3297
 3384,3330 3382,3365 3380,3401 3379,3437 3377,3474 3375,3510 3373,3547 3371,3584
 3370,3620 3368,3656 3366,3691 3364,3725 3362,3757 3360,3789 3358,3819 3355,3847
 3353,3875 3351,3901 3348,3925 3345,3948 3340,3981 3335,4011 3328,4039 3321,4064
 3313,4087 3304,4109 3293,4129 3281,4149 3268,4168 3255,4186 3241,4202 3228,4216
 3216,4228 3207,4237 3201,4243 3197,4246 3195,4248"
	stroke="#000000" stroke-width="8px" stroke-linejoin="bevel"/>
<!-- Line -->
<polyline points=" 3600,2700 3780,2880"
	stroke="#000000" stroke-width="8px"/>
<!-- Line -->
<polyline points=" 3600,2880 3780,2700"
	stroke="#000000" stroke-width="8px"/>
<!-- Line -->
<defs>
<clipPath id="cp0">
	<path clip-rule="evenodd" d="M 213,1338 H 6852 V 4260 H 213 z
		M 6745,2850 6760,2865 6745,2880 6847,2872 6847,2858z"/>
</clipPath>
</defs>
<polyline points=" 4230,2865 6840,2865" clip-path="url(#cp0)"
	stroke="#000000" stroke-width="8px"/>
<!-- Forward arrow to point 6840,2865 -->
<polygon points=" 6745,2880 6820,2865 6745,2850 6760,2865 6745,2880"
	stroke="#000000" stroke-width="8px" stroke-miterlimit="8" fill="#000000"/>
<!-- Text -->
<text xml:space="preserve" x="5445" y="3045" fill="#000000" font-family="Times" font-style="normal" font-weight="normal" font-size="96" text-anchor="middle">0</text>
<!-- Text -->
<text xml:space="preserve" x="5715" y="3045" fill="#000000" font-family="Times" font-style="normal" font-weight="normal" font-size="96" text-anchor="middle">1</text>
<!-- Text -->
<text xml:space="preserve" x="5985" y="3045" fill="#000000" font-family="Times" font-style="normal" font-weight="normal" font-size="96" text-anchor="middle">2</text>
<!-- Text -->
<text xml:space="preserve" x="6255" y="3045" fill="#000000" font-family="Times" font-style="normal" font-weight="normal" font-size="96" text-anchor="middle">3</text>
<!-- Text -->
<text xml:space="preserve" x="5130" y="3045" fill="#000000" font-family="Times" font-style="normal" font-weight="normal" font-size="96" text-anchor="middle">-1</text>
<!-- Text -->
<text xml:space="preserve" x="4860" y="3045" fill="#000000" font-family="Times" font-style="normal" font-weight="normal" font-size="96" text-anchor="middle">-2</text>
<!-- Text -->
<text xml:space="preserve" x="4590" y="3045" fill="#000000" font-family="Times" font-style="normal" font-weight="normal" font-size="96" text-anchor="middle">-3</text>
<!-- Text -->
<text xml:space="preserve" x="5580" y="2640" fill="#000000" font-family="Times" font-style="italic" font-weight="normal" font-size="132" text-anchor="start">x[0]</text>
<!-- Text -->
<text xml:space="preserve" x="3870" y="2880" fill="#000000" font-family="Times" font-style="normal" font-weight="normal" font-size="192" text-anchor="start">\Rightarrow</text>
<!-- Line -->
<defs>
<clipPath id="cp1">
	<path clip-rule="evenodd" d="M 213,1338 H 6852 V 4260 H 213 z
		M 3055,2235 3070,2250 3055,2265 3157,2257 3157,2243z"/>
</clipPath>
</defs>
<polyline points=" 225,2250 3150,2250" clip-path="url(#cp1)"
	stroke="#000000" stroke-width="8px"/>
<!-- Forward arrow to point 3150,2250 -->
<polygon points=" 3055,2265 3130,2250 3055,2235 3070,2250 3055,2265"
	stroke="#000000" stroke-width="8px" stroke-miterlimit="8" fill="#000000"/>
<!-- Line -->
<defs>
<clipPath id="cp2">
	<path clip-rule="evenodd" d="M 213,1338 H 6852 V 4260 H 213 z
		M 3055,3855 3070,3870 3055,3885 3157,3877 3157,3863z"/>
</clipPath>
</defs>
<polyline points=" 225,3870 3150,3870" clip-path="url(#cp2)"
	stroke="#000000" stroke-width="8px"/>
<!-- Forward arrow to point 3150,3870 -->
<polygon points=" 3055,3885 3130,3870 3055,3855 3070,3870 3055,3885"
	stroke="#000000" stroke-width="8px" stroke-miterlimit="8" fill="#000000"/>
<!-- Text -->
<text xml:space="preserve" x="2430" y="2430" fill="#000000" font-family="Times" font-style="normal" font-weight="normal" font-size="96" text-anchor="middle">3</text>
<!-- Text -->
<text xml:space="preserve" x="1305" y="2430" fill="#000000" font-family="Times" font-style="normal" font-weight="normal" font-size="96" text-anchor="middle">-1</text>
<!-- Text -->
<text xml:space="preserve" x="765" y="2430" fill="#000000" font-family="Times" font-style="normal" font-weight="normal" font-size="96" text-anchor="middle">-3</text>
<!-- Text -->
<text xml:space="preserve" x="1035" y="2205" fill="#000000" font-family="Times" font-style="normal" font-weight="normal" font-size="96" text-anchor="middle">-2</text>
<!-- Text -->
<text xml:space="preserve" x="1575" y="2430" fill="#000000" font-family="Times" font-style="normal" font-weight="normal" font-size="96" text-anchor="middle">0</text>
<!-- Text -->
<text xml:space="preserve" x="1890" y="2205" fill="#000000" font-family="Times" font-style="normal" font-weight="normal" font-size="96" text-anchor="middle">1</text>
<!-- Text -->
<text xml:space="preserve" x="2160" y="2205" fill="#000000" font-family="Times" font-style="normal" font-weight="normal" font-size="96" text-anchor="middle">2</text>
<!-- Text -->
<text xml:space="preserve" x="495" y="2430" fill="#000000" font-family="Times" font-style="normal" font-weight="normal" font-size="96" text-anchor="middle">-4</text>
<!-- Text -->
<text xml:space="preserve" x="2745" y="2430" fill="#000000" font-family="Times" font-style="normal" font-weight="normal" font-size="96" text-anchor="middle">4</text>
<!-- Text -->
<text xml:space="preserve" x="1620" y="4050" fill="#000000" font-family="Times" font-style="normal" font-weight="normal" font-size="96" text-anchor="middle">0</text>
<!-- Text -->
<text xml:space="preserve" x="1890" y="4050" fill="#000000" font-family="Times" font-style="normal" font-weight="normal" font-size="96" text-anchor="middle">1</text>
<!-- Text -->
<text xml:space="preserve" x="2160" y="4050" fill="#000000" font-family="Times" font-style="normal" font-weight="normal" font-size="96" text-anchor="middle">2</text>
<!-- Text -->
<text xml:space="preserve" x="2430" y="4050" fill="#000000" font-family="Times" font-style="normal" font-weight="normal" font-size="96" text-anchor="middle">3</text>
<!-- Text -->
<text xml:space="preserve" x="1305" y="4050" fill="#000000" font-family="Times" font-style="normal" font-weight="normal" font-size="96" text-anchor="middle">-1</text>
<!-- Text -->
<text xml:space="preserve" x="1035" y="4050" fill="#000000" font-family="Times" font-style="normal" font-weight="normal" font-size="96" text-anchor="middle">-2</text>
<!-- Text -->
<text xml:space="preserve" x="765" y="4050" fill="#000000" font-family="Times" font-style="normal" font-weight="normal" font-size="96" text-anchor="middle">-3</text>
<!-- Text -->
<text xml:space="preserve" x="1755" y="3465" fill="#000000" font-family="Times" font-style="italic" font-weight="normal" font-size="132" text-anchor="start">1</text>
<!-- Line -->
<defs>
<clipPath id="cp3">
	<path clip-rule="evenodd" d="M 213,1338 H 6852 V 4260 H 213 z
		M 5176,2828 5170,2829 5164,2831 5159,2833 5154,2837 5150,2841 5146,2846 5144,2852 5142,2857 5141,2863 5142,2870 5143,2875 5145,2881 5148,2886 5152,2891 5156,2895 5161,2898 5167,2901 5173,2902 5179,2903 5223,2872 5223,2858z
		M 4904,2902 4910,2901 4916,2899 4921,2897 4926,2893 4930,2889 4934,2884 4936,2878 4938,2873 4939,2867 4938,2860 4937,2855 4935,2849 4932,2844 4928,2839 4924,2835 4919,2832 4913,2829 4907,2828 4901,2828 4857,2858 4857,2872z"/>
</clipPath>
</defs>
<polyline points=" 4860,2865 5220,2865" clip-path="url(#cp3)"
	stroke="#000000" stroke-width="8px"/>
<!-- Forward arrow to point 5220,2865 -->
<polygon points=" 5179,2903 5185,2902 5191,2901 5196,2898 5201,2895 5206,2891
 5210,2886 5213,2881 5215,2875 5216,2870 5216,2863 5215,2857 5214,2852 5211,2846
 5208,2841 5204,2837 5199,2833 5193,2831 5188,2829 5182,2828 5176,2828 5170,2829
 5164,2831 5159,2833 5154,2837 5150,2841 5146,2846 5144,2852 5142,2857 5141,2863
 5142,2870 5143,2875 5145,2881 5148,2886 5152,2891 5156,2895 5161,2898 5167,2901
 5173,2902 5179,2903"
	stroke="#000000" stroke-width="8px" stroke-miterlimit="8"/>
<!-- Backward arrow to point 4860,2865 -->
<polygon points=" 4901,2828 4895,2828 4889,2829 4884,2832 4879,2835 4874,2839
 4870,2844 4867,2849 4865,2855 4864,2860 4864,2867 4865,2873 4866,2878 4869,2884
 4872,2889 4876,2893 4881,2897 4887,2899 4892,2901 4898,2902 4904,2902 4910,2901
 4916,2899 4921,2897 4926,2893 4930,2889 4934,2884 4936,2878 4938,2873 4939,2867
 4938,2860 4937,2855 4935,2849 4932,2844 4928,2839 4924,2835 4919,2832 4913,2829
 4907,2828 4901,2828"
	stroke="#000000" stroke-width="8px" stroke-miterlimit="8"/>
<!-- Line -->
<defs>
<clipPath id="cp4">
	<path clip-rule="evenodd" d="M 213,1338 H 6852 V 4260 H 213 z
		M 4636,2828 4630,2829 4624,2831 4619,2833 4614,2837 4610,2841 4606,2846 4604,2852 4602,2857 4601,2863 4602,2870 4603,2875 4605,2881 4608,2886 4612,2891 4616,2895 4621,2898 4627,2901 4633,2902 4639,2903 4683,2872 4683,2858z
		M 4364,2902 4370,2901 4376,2899 4381,2897 4386,2893 4390,2889 4394,2884 4396,2878 4398,2873 4399,2867 4398,2860 4397,2855 4395,2849 4392,2844 4388,2839 4384,2835 4379,2832 4373,2829 4367,2828 4361,2828 4317,2858 4317,2872z"/>
</clipPath>
</defs>
<polyline points=" 4320,2865 4680,2865" clip-path="url(#cp4)"
	stroke="#000000" stroke-width="8px"/>
<!-- Forward arrow to point 4680,2865 -->
<polygon points=" 4639,2903 4645,2902 4651,2901 4656,2898 4661,2895 4666,2891
 4670,2886 4673,2881 4675,2875 4676,2870 4676,2863 4675,2857 4674,2852 4671,2846
 4668,2841 4664,2837 4659,2833 4653,2831 4648,2829 4642,2828 4636,2828 4630,2829
 4624,2831 4619,2833 4614,2837 4610,2841 4606,2846 4604,2852 4602,2857 4601,2863
 4602,2870 4603,2875 4605,2881 4608,2886 4612,2891 4616,2895 4621,2898 4627,2901
 4633,2902 4639,2903"
	stroke="#000000" stroke-width="8px" stroke-miterlimit="8"/>
<!-- Backward arrow to point 4320,2865 -->
<polygon points=" 4361,2828 4355,2828 4349,2829 4344,2832 4339,2835 4334,2839
 4330,2844 4327,2849 4325,2855 4324,2860 4324,2867 4325,2873 4326,2878 4329,2884
 4332,2889 4336,2893 4341,2897 4347,2899 4352,2901 4358,2902 4364,2902 4370,2901
 4376,2899 4381,2897 4386,2893 4390,2889 4394,2884 4396,2878 4398,2873 4399,2867
 4398,2860 4397,2855 4395,2849 4392,2844 4388,2839 4384,2835 4379,2832 4373,2829
 4367,2828 4361,2828"
	stroke="#000000" stroke-width="8px" stroke-miterlimit="8"/>
<!-- Line -->
<defs>
<clipPath id="cp5">
	<path clip-rule="evenodd" d="M 213,1338 H 6852 V 4260 H 213 z
		M 5408,2594 5409,2600 5411,2606 5413,2611 5417,2616 5421,2620 5426,2624 5432,2626 5437,2628 5443,2629 5450,2628 5455,2627 5461,2625 5466,2622 5471,2618 5475,2614 5478,2609 5481,2603 5482,2597 5483,2591 5456,2543 5435,2543z
		M 4364,2902 4370,2901 4376,2899 4381,2897 4386,2893 4390,2889 4394,2884 4396,2878 4398,2873 4399,2867 4398,2860 4397,2855 4395,2849 4392,2844 4388,2839 4384,2835 4379,2832 4373,2829 4367,2828 4361,2828 4317,2858 4317,2872z"/>
</clipPath>
</defs>
<polyline points=" 5445,2865 5445,2550" clip-path="url(#cp5)"
	stroke="#000000" stroke-width="15px"/>
<!-- Forward arrow to point 5445,2550 -->
<polygon points=" 5483,2591 5482,2585 5481,2579 5478,2574 5475,2569 5471,2564
 5466,2560 5461,2557 5455,2555 5450,2554 5443,2554 5437,2555 5432,2556 5426,2559
 5421,2562 5417,2566 5413,2571 5411,2577 5409,2582 5408,2588 5408,2594 5409,2600
 5411,2606 5413,2611 5417,2616 5421,2620 5426,2624 5432,2626 5437,2628 5443,2629
 5450,2628 5455,2627 5461,2625 5466,2622 5471,2618 5475,2614 5478,2609 5481,2603
 5482,2597 5483,2591"
	stroke="#000000" stroke-width="8px" stroke-miterlimit="8"/>
<!-- Line -->
<defs>
<clipPath id="cp6">
	<path clip-rule="evenodd" d="M 213,1338 H 6852 V 4260 H 213 z
		M 5986,2828 5980,2829 5974,2831 5969,2833 5964,2837 5960,2841 5956,2846 5954,2852 5952,2857 5951,2863 5952,2870 5953,2875 5955,2881 5958,2886 5962,2891 5966,2895 5971,2898 5977,2901 5983,2902 5989,2903 6033,2872 6033,2858z
		M 5714,2902 5720,2901 5726,2899 5731,2897 5736,2893 5740,2889 5744,2884 5746,2878 5748,2873 5749,2867 5748,2860 5747,2855 5745,2849 5742,2844 5738,2839 5734,2835 5729,2832 5723,2829 5717,2828 5711,2828 5667,2858 5667,2872z"/>
</clipPath>
</defs>
<polyline points=" 5670,2865 6030,2865" clip-path="url(#cp6)"
	stroke="#000000" stroke-width="8px"/>
<!-- Forward arrow to point 6030,2865 -->
<polygon points=" 5989,2903 5995,2902 6001,2901 6006,2898 6011,2895 6016,2891
 6020,2886 6023,2881 6025,2875 6026,2870 6026,2863 6025,2857 6024,2852 6021,2846
 6018,2841 6014,2837 6009,2833 6003,2831 5998,2829 5992,2828 5986,2828 5980,2829
 5974,2831 5969,2833 5964,2837 5960,2841 5956,2846 5954,2852 5952,2857 5951,2863
 5952,2870 5953,2875 5955,2881 5958,2886 5962,2891 5966,2895 5971,2898 5977,2901
 5983,2902 5989,2903"
	stroke="#000000" stroke-width="8px" stroke-miterlimit="8"/>
<!-- Backward arrow to point 5670,2865 -->
<polygon points=" 5711,2828 5705,2828 5699,2829 5694,2832 5689,2835 5684,2839
 5680,2844 5677,2849 5675,2855 5674,2860 5674,2867 5675,2873 5676,2878 5679,2884
 5682,2889 5686,2893 5691,2897 5697,2899 5702,2901 5708,2902 5714,2902 5720,2901
 5726,2899 5731,2897 5736,2893 5740,2889 5744,2884 5746,2878 5748,2873 5749,2867
 5748,2860 5747,2855 5745,2849 5742,2844 5738,2839 5734,2835 5729,2832 5723,2829
 5717,2828 5711,2828"
	stroke="#000000" stroke-width="8px" stroke-miterlimit="8"/>
<!-- Line -->
<defs>
<clipPath id="cp7">
	<path clip-rule="evenodd" d="M 213,1338 H 6852 V 4260 H 213 z
		M 6526,2828 6520,2829 6514,2831 6509,2833 6504,2837 6500,2841 6496,2846 6494,2852 6492,2857 6491,2863 6492,2870 6493,2875 6495,2881 6498,2886 6502,2891 6506,2895 6511,2898 6517,2901 6523,2902 6529,2903 6573,2872 6573,2858z
		M 6254,2902 6260,2901 6266,2899 6271,2897 6276,2893 6280,2889 6284,2884 6286,2878 6288,2873 6289,2867 6288,2860 6287,2855 6285,2849 6282,2844 6278,2839 6274,2835 6269,2832 6263,2829 6257,2828 6251,2828 6207,2858 6207,2872z"/>
</clipPath>
</defs>
<polyline points=" 6210,2865 6570,2865" clip-path="url(#cp7)"
	stroke="#000000" stroke-width="8px"/>
<!-- Forward arrow to point 6570,2865 -->
<polygon points=" 6529,2903 6535,2902 6541,2901 6546,2898 6551,2895 6556,2891
 6560,2886 6563,2881 6565,2875 6566,2870 6566,2863 6565,2857 6564,2852 6561,2846
 6558,2841 6554,2837 6549,2833 6543,2831 6538,2829 6532,2828 6526,2828 6520,2829
 6514,2831 6509,2833 6504,2837 6500,2841 6496,2846 6494,2852 6492,2857 6491,2863
 6492,2870 6493,2875 6495,2881 6498,2886 6502,2891 6506,2895 6511,2898 6517,2901
 6523,2902 6529,2903"
	stroke="#000000" stroke-width="8px" stroke-miterlimit="8"/>
<!-- Backward arrow to point 6210,2865 -->
<polygon points=" 6251,2828 6245,2828 6239,2829 6234,2832 6229,2835 6224,2839
 6220,2844 6217,2849 6215,2855 6214,2860 6214,2867 6215,2873 6216,2878 6219,2884
 6222,2889 6226,2893 6231,2897 6237,2899 6242,2901 6248,2902 6254,2902 6260,2901
 6266,2899 6271,2897 6276,2893 6280,2889 6284,2884 6286,2878 6288,2873 6289,2867
 6288,2860 6287,2855 6285,2849 6282,2844 6278,2839 6274,2835 6269,2832 6263,2829
 6257,2828 6251,2828"
	stroke="#000000" stroke-width="8px" stroke-miterlimit="8"/>
<!-- Line -->
<defs>
<clipPath id="cp8">
	<path clip-rule="evenodd" d="M 213,1338 H 6852 V 4260 H 213 z
		M 1117,2476 1116,2470 1114,2464 1112,2459 1108,2454 1104,2450 1099,2446 1093,2444 1088,2442 1082,2441 1075,2442 1070,2443 1064,2445 1059,2448 1054,2452 1050,2456 1047,2461 1044,2467 1043,2473 1043,2479 1070,2527 1091,2527z
		M 6254,2902 6260,2901 6266,2899 6271,2897 6276,2893 6280,2889 6284,2884 6286,2878 6288,2873 6289,2867 6288,2860 6287,2855 6285,2849 6282,2844 6278,2839 6274,2835 6269,2832 6263,2829 6257,2828 6251,2828 6207,2858 6207,2872z"/>
</clipPath>
</defs>
<polyline points=" 1080,2250 1080,2520" clip-path="url(#cp8)"
	stroke="#000000" stroke-width="15px"/>
<!-- Forward arrow to point 1080,2520 -->
<polygon points=" 1043,2479 1043,2485 1044,2491 1047,2496 1050,2501 1054,2506
 1059,2510 1064,2513 1070,2515 1075,2516 1082,2516 1088,2515 1093,2514 1099,2511
 1104,2508 1108,2504 1112,2499 1114,2493 1116,2488 1117,2482 1117,2476 1116,2470
 1114,2464 1112,2459 1108,2454 1104,2450 1099,2446 1093,2444 1088,2442 1082,2441
 1075,2442 1070,2443 1064,2445 1059,2448 1054,2452 1050,2456 1047,2461 1044,2467
 1043,2473 1043,2479"
	stroke="#000000" stroke-width="8px" stroke-miterlimit="8"/>
<!-- Line -->
<defs>
<clipPath id="cp9">
	<path clip-rule="evenodd" d="M 213,1338 H 6852 V 4260 H 213 z
		M 1583,1979 1584,1985 1586,1991 1588,1996 1592,2001 1596,2005 1601,2009 1607,2011 1612,2013 1618,2014 1625,2013 1630,2012 1636,2010 1641,2007 1646,2003 1650,1999 1653,1994 1656,1988 1657,1982 1658,1976 1631,1928 1610,1928z
		M 6254,2902 6260,2901 6266,2899 6271,2897 6276,2893 6280,2889 6284,2884 6286,2878 6288,2873 6289,2867 6288,2860 6287,2855 6285,2849 6282,2844 6278,2839 6274,2835 6269,2832 6263,2829 6257,2828 6251,2828 6207,2858 6207,2872z"/>
</clipPath>
</defs>
<polyline points=" 1620,2250 1620,1935" clip-path="url(#cp9)"
	stroke="#000000" stroke-width="15px"/>
<!-- Forward arrow to point 1620,1935 -->
<polygon points=" 1658,1976 1657,1970 1656,1964 1653,1959 1650,1954 1646,1949
 1641,1945 1636,1942 1630,1940 1625,1939 1618,1939 1612,1940 1607,1941 1601,1944
 1596,1947 1592,1951 1588,1956 1586,1962 1584,1967 1583,1973 1583,1979 1584,1985
 1586,1991 1588,1996 1592,2001 1596,2005 1601,2009 1607,2011 1612,2013 1618,2014
 1625,2013 1630,2012 1636,2010 1641,2007 1646,2003 1650,1999 1653,1994 1656,1988
 1657,1982 1658,1976"
	stroke="#000000" stroke-width="8px" stroke-miterlimit="8"/>
<!-- Line -->
<defs>
<clipPath id="cp10">
	<path clip-rule="evenodd" d="M 213,1338 H 6852 V 4260 H 213 z
		M 1927,2611 1926,2605 1924,2599 1922,2594 1918,2589 1914,2585 1909,2581 1903,2579 1898,2577 1892,2576 1885,2577 1880,2578 1874,2580 1869,2583 1864,2587 1860,2591 1857,2596 1854,2602 1853,2608 1853,2614 1880,2662 1901,2662z
		M 6254,2902 6260,2901 6266,2899 6271,2897 6276,2893 6280,2889 6284,2884 6286,2878 6288,2873 6289,2867 6288,2860 6287,2855 6285,2849 6282,2844 6278,2839 6274,2835 6269,2832 6263,2829 6257,2828 6251,2828 6207,2858 6207,2872z"/>
</clipPath>
</defs>
<polyline points=" 1890,2250 1890,2655" clip-path="url(#cp10)"
	stroke="#000000" stroke-width="15px"/>
<!-- Forward arrow to point 1890,2655 -->
<polygon points=" 1853,2614 1853,2620 1854,2626 1857,2631 1860,2636 1864,2641
 1869,2645 1874,2648 1880,2650 1885,2651 1892,2651 1898,2650 1903,2649 1909,2646
 1914,2643 1918,2639 1922,2634 1924,2628 1926,2623 1927,2617 1927,2611 1926,2605
 1924,2599 1922,2594 1918,2589 1914,2585 1909,2581 1903,2579 1898,2577 1892,2576
 1885,2577 1880,2578 1874,2580 1869,2583 1864,2587 1860,2591 1857,2596 1854,2602
 1853,2608 1853,2614"
	stroke="#000000" stroke-width="8px" stroke-miterlimit="8"/>
<!-- Line -->
<defs>
<clipPath id="cp11">
	<path clip-rule="evenodd" d="M 213,1338 H 6852 V 4260 H 213 z
		M 2197,2341 2196,2335 2194,2329 2192,2324 2188,2319 2184,2315 2179,2311 2173,2309 2168,2307 2162,2306 2155,2307 2150,2308 2144,2310 2139,2313 2134,2317 2130,2321 2127,2326 2124,2332 2123,2338 2123,2344 2150,2392 2171,2392z
		M 6254,2902 6260,2901 6266,2899 6271,2897 6276,2893 6280,2889 6284,2884 6286,2878 6288,2873 6289,2867 6288,2860 6287,2855 6285,2849 6282,2844 6278,2839 6274,2835 6269,2832 6263,2829 6257,2828 6251,2828 6207,2858 6207,2872z"/>
</clipPath>
</defs>
<polyline points=" 2160,2250 2160,2385" clip-path="url(#cp11)"
	stroke="#000000" stroke-width="15px"/>
<!-- Forward arrow to point 2160,2385 -->
<polygon points=" 2123,2344 2123,2350 2124,2356 2127,2361 2130,2366 2134,2371
 2139,2375 2144,2378 2150,2380 2155,2381 2162,2381 2168,2380 2173,2379 2179,2376
 2184,2373 2188,2369 2192,2364 2194,2358 2196,2353 2197,2347 2197,2341 2196,2335
 2194,2329 2192,2324 2188,2319 2184,2315 2179,2311 2173,2309 2168,2307 2162,2306
 2155,2307 2150,2308 2144,2310 2139,2313 2134,2317 2130,2321 2127,2326 2124,2332
 2123,2338 2123,2344"
	stroke="#000000" stroke-width="8px" stroke-miterlimit="8"/>
<!-- Line -->
<defs>
<clipPath id="cp12">
	<path clip-rule="evenodd" d="M 213,1338 H 6852 V 4260 H 213 z
		M 1313,1709 1314,1715 1316,1721 1318,1726 1322,1731 1326,1735 1331,1739 1337,1741 1342,1743 1348,1744 1355,1743 1360,1742 1366,1740 1371,1737 1376,1733 1380,1729 1383,1724 1386,1718 1387,1712 1388,1706 1361,1658 1340,1658z
		M 6254,2902 6260,2901 6266,2899 6271,2897 6276,2893 6280,2889 6284,2884 6286,2878 6288,2873 6289,2867 6288,2860 6287,2855 6285,2849 6282,2844 6278,2839 6274,2835 6269,2832 6263,2829 6257,2828 6251,2828 6207,2858 6207,2872z"/>
</clipPath>
</defs>
<polyline points=" 1350,2250 1350,1665" clip-path="url(#cp12)"
	stroke="#000000" stroke-width="15px"/>
<!-- Forward arrow to point 1350,1665 -->
<polygon points=" 1388,1706 1387,1700 1386,1694 1383,1689 1380,1684 1376,1679
 1371,1675 1366,1672 1360,1670 1355,1669 1348,1669 1342,1670 1337,1671 1331,1674
 1326,1677 1322,1681 1318,1686 1316,1692 1314,1697 1313,1703 1313,1709 1314,1715
 1316,1721 1318,1726 1322,1731 1326,1735 1331,1739 1337,1741 1342,1743 1348,1744
 1355,1743 1360,1742 1366,1740 1371,1737 1376,1733 1380,1729 1383,1724 1386,1718
 1387,1712 1388,1706"
	stroke="#000000" stroke-width="8px" stroke-miterlimit="8"/>
<!-- Line -->
<defs>
<clipPath id="cp13">
	<path clip-rule="evenodd" d="M 213,1338 H 6852 V 4260 H 213 z
		M 773,2114 774,2120 776,2126 778,2131 782,2136 786,2140 791,2144 797,2146 802,2148 808,2149 815,2148 820,2147 826,2145 831,2142 836,2138 840,2134 843,2129 846,2123 847,2117 848,2111 821,2063 800,2063z
		M 6254,2902 6260,2901 6266,2899 6271,2897 6276,2893 6280,2889 6284,2884 6286,2878 6288,2873 6289,2867 6288,2860 6287,2855 6285,2849 6282,2844 6278,2839 6274,2835 6269,2832 6263,2829 6257,2828 6251,2828 6207,2858 6207,2872z"/>
</clipPath>
</defs>
<polyline points=" 810,2250 810,2070" clip-path="url(#cp13)"
	stroke="#000000" stroke-width="15px"/>
<!-- Forward arrow to point 810,2070 -->
<polygon points=" 848,2111 847,2105 846,2099 843,2094 840,2089 836,2084 831,2080
 826,2077 820,2075 815,2074 808,2074 802,2075 797,2076 791,2079 786,2082 782,2086
 778,2091 776,2097 774,2102 773,2108 773,2114 774,2120 776,2126 778,2131 782,2136
 786,2140 791,2144 797,2146 802,2148 808,2149 815,2148 820,2147 826,2145 831,2142
 836,2138 840,2134 843,2129 846,2123 847,2117 848,2111"
	stroke="#000000" stroke-width="8px" stroke-miterlimit="8"/>
<!-- Line -->
<defs>
<clipPath id="cp14">
	<path clip-rule="evenodd" d="M 213,1338 H 6852 V 4260 H 213 z
		M 503,1844 504,1850 506,1856 508,1861 512,1866 516,1870 521,1874 527,1876 532,1878 538,1879 545,1878 550,1877 556,1875 561,1872 566,1868 570,1864 573,1859 576,1853 577,1847 578,1841 551,1793 530,1793z
		M 6254,2902 6260,2901 6266,2899 6271,2897 6276,2893 6280,2889 6284,2884 6286,2878 6288,2873 6289,2867 6288,2860 6287,2855 6285,2849 6282,2844 6278,2839 6274,2835 6269,2832 6263,2829 6257,2828 6251,2828 6207,2858 6207,2872z"/>
</clipPath>
</defs>
<polyline points=" 540,2250 540,1800" clip-path="url(#cp14)"
	stroke="#000000" stroke-width="15px"/>
<!-- Forward arrow to point 540,1800 -->
<polygon points=" 578,1841 577,1835 576,1829 573,1824 570,1819 566,1814 561,1810
 556,1807 550,1805 545,1804 538,1804 532,1805 527,1806 521,1809 516,1812 512,1816
 508,1821 506,1827 504,1832 503,1838 503,1844 504,1850 506,1856 508,1861 512,1866
 516,1870 521,1874 527,1876 532,1878 538,1879 545,1878 550,1877 556,1875 561,1872
 566,1868 570,1864 573,1859 576,1853 577,1847 578,1841"
	stroke="#000000" stroke-width="8px" stroke-miterlimit="8"/>
<!-- Line -->
<defs>
<clipPath id="cp15">
	<path clip-rule="evenodd" d="M 213,1338 H 6852 V 4260 H 213 z
		M 2393,2069 2394,2075 2396,2081 2398,2086 2402,2091 2406,2095 2411,2099 2417,2101 2422,2103 2428,2104 2435,2103 2440,2102 2446,2100 2451,2097 2456,2093 2460,2089 2463,2084 2466,2078 2467,2072 2468,2066 2441,2018 2420,2018z
		M 6254,2902 6260,2901 6266,2899 6271,2897 6276,2893 6280,2889 6284,2884 6286,2878 6288,2873 6289,2867 6288,2860 6287,2855 6285,2849 6282,2844 6278,2839 6274,2835 6269,2832 6263,2829 6257,2828 6251,2828 6207,2858 6207,2872z"/>
</clipPath>
</defs>
<polyline points=" 2430,2250 2430,2025" clip-path="url(#cp15)"
	stroke="#000000" stroke-width="15px"/>
<!-- Forward arrow to point 2430,2025 -->
<polygon points=" 2468,2066 2467,2060 2466,2054 2463,2049 2460,2044 2456,2039
 2451,2035 2446,2032 2440,2030 2435,2029 2428,2029 2422,2030 2417,2031 2411,2034
 2406,2037 2402,2041 2398,2046 2396,2052 2394,2057 2393,2063 2393,2069 2394,2075
 2396,2081 2398,2086 2402,2091 2406,2095 2411,2099 2417,2101 2422,2103 2428,2104
 2435,2103 2440,2102 2446,2100 2451,2097 2456,2093 2460,2089 2463,2084 2466,2078
 2467,2072 2468,2066"
	stroke="#000000" stroke-width="8px" stroke-miterlimit="8"/>
<!-- Line -->
<defs>
<clipPath id="cp16">
	<path clip-rule="evenodd" d="M 213,1338 H 6852 V 4260 H 213 z
		M 2708,1754 2709,1760 2711,1766 2713,1771 2717,1776 2721,1780 2726,1784 2732,1786 2737,1788 2743,1789 2750,1788 2755,1787 2761,1785 2766,1782 2771,1778 2775,1774 2778,1769 2781,1763 2782,1757 2783,1751 2756,1703 2735,1703z
		M 6254,2902 6260,2901 6266,2899 6271,2897 6276,2893 6280,2889 6284,2884 6286,2878 6288,2873 6289,2867 6288,2860 6287,2855 6285,2849 6282,2844 6278,2839 6274,2835 6269,2832 6263,2829 6257,2828 6251,2828 6207,2858 6207,2872z"/>
</clipPath>
</defs>
<polyline points=" 2745,2250 2745,1710" clip-path="url(#cp16)"
	stroke="#000000" stroke-width="15px"/>
<!-- Forward arrow to point 2745,1710 -->
<polygon points=" 2783,1751 2782,1745 2781,1739 2778,1734 2775,1729 2771,1724
 2766,1720 2761,1717 2755,1715 2750,1714 2743,1714 2737,1715 2732,1716 2726,1719
 2721,1722 2717,1726 2713,1731 2711,1737 2709,1742 2708,1748 2708,1754 2709,1760
 2711,1766 2713,1771 2717,1776 2721,1780 2726,1784 2732,1786 2737,1788 2743,1789
 2750,1788 2755,1787 2761,1785 2766,1782 2771,1778 2775,1774 2778,1769 2781,1763
 2782,1757 2783,1751"
	stroke="#000000" stroke-width="8px" stroke-miterlimit="8"/>
<!-- Line -->
<defs>
<clipPath id="cp17">
	<path clip-rule="evenodd" d="M 213,1338 H 6852 V 4260 H 213 z
		M 1351,3833 1345,3834 1339,3836 1334,3838 1329,3842 1325,3846 1321,3851 1319,3857 1317,3862 1316,3868 1317,3875 1318,3880 1320,3886 1323,3891 1327,3896 1331,3900 1336,3903 1342,3906 1348,3907 1354,3908 1398,3877 1398,3863z
		M 1079,3907 1085,3906 1091,3904 1096,3902 1101,3898 1105,3894 1109,3889 1111,3883 1113,3878 1114,3872 1113,3865 1112,3860 1110,3854 1107,3849 1103,3844 1099,3840 1094,3837 1088,3834 1082,3833 1076,3833 1032,3863 1032,3877z"/>
</clipPath>
</defs>
<polyline points=" 1035,3870 1395,3870" clip-path="url(#cp17)"
	stroke="#000000" stroke-width="8px"/>
<!-- Forward arrow to point 1395,3870 -->
<polygon points=" 1354,3908 1360,3907 1366,3906 1371,3903 1376,3900 1381,3896
 1385,3891 1388,3886 1390,3880 1391,3875 1391,3868 1390,3862 1389,3857 1386,3851
 1383,3846 1379,3842 1374,3838 1368,3836 1363,3834 1357,3833 1351,3833 1345,3834
 1339,3836 1334,3838 1329,3842 1325,3846 1321,3851 1319,3857 1317,3862 1316,3868
 1317,3875 1318,3880 1320,3886 1323,3891 1327,3896 1331,3900 1336,3903 1342,3906
 1348,3907 1354,3908"
	stroke="#000000" stroke-width="8px" stroke-miterlimit="8"/>
<!-- Backward arrow to point 1035,3870 -->
<polygon points=" 1076,3833 1070,3833 1064,3834 1059,3837 1054,3840 1049,3844
 1045,3849 1042,3854 1040,3860 1039,3865 1039,3872 1040,3878 1041,3883 1044,3889
 1047,3894 1051,3898 1056,3902 1062,3904 1067,3906 1073,3907 1079,3907 1085,3906
 1091,3904 1096,3902 1101,3898 1105,3894 1109,3889 1111,3883 1113,3878 1114,3872
 1113,3865 1112,3860 1110,3854 1107,3849 1103,3844 1099,3840 1094,3837 1088,3834
 1082,3833 1076,3833"
	stroke="#000000" stroke-width="8px" stroke-miterlimit="8"/>
<!-- Line -->
<defs>
<clipPath id="cp18">
	<path clip-rule="evenodd" d="M 213,1338 H 6852 V 4260 H 213 z
		M 811,3833 805,3834 799,3836 794,3838 789,3842 785,3846 781,3851 779,3857 777,3862 776,3868 777,3875 778,3880 780,3886 783,3891 787,3896 791,3900 796,3903 802,3906 808,3907 814,3908 858,3877 858,3863z
		M 539,3907 545,3906 551,3904 556,3902 561,3898 565,3894 569,3889 571,3883 573,3878 574,3872 573,3865 572,3860 570,3854 567,3849 563,3844 559,3840 554,3837 548,3834 542,3833 536,3833 492,3863 492,3877z"/>
</clipPath>
</defs>
<polyline points=" 495,3870 855,3870" clip-path="url(#cp18)"
	stroke="#000000" stroke-width="8px"/>
<!-- Forward arrow to point 855,3870 -->
<polygon points=" 814,3908 820,3907 826,3906 831,3903 836,3900 841,3896 845,3891
 848,3886 850,3880 851,3875 851,3868 850,3862 849,3857 846,3851 843,3846 839,3842
 834,3838 828,3836 823,3834 817,3833 811,3833 805,3834 799,3836 794,3838 789,3842
 785,3846 781,3851 779,3857 777,3862 776,3868 777,3875 778,3880 780,3886 783,3891
 787,3896 791,3900 796,3903 802,3906 808,3907 814,3908"
	stroke="#000000" stroke-width="8px" stroke-miterlimit="8"/>
<!-- Backward arrow to point 495,3870 -->
<polygon points=" 536,3833 530,3833 524,3834 519,3837 514,3840 509,3844 505,3849
 502,3854 500,3860 499,3865 499,3872 500,3878 501,3883 504,3889 507,3894 511,3898
 516,3902 522,3904 527,3906 533,3907 539,3907 545,3906 551,3904 556,3902 561,3898
 565,3894 569,3889 571,3883 573,3878 574,3872 573,3865 572,3860 570,3854 567,3849
 563,3844 559,3840 554,3837 548,3834 542,3833 536,3833"
	stroke="#000000" stroke-width="8px" stroke-miterlimit="8"/>
<!-- Line -->
<defs>
<clipPath id="cp19">
	<path clip-rule="evenodd" d="M 213,1338 H 6852 V 4260 H 213 z
		M 1583,3419 1584,3425 1586,3431 1588,3436 1592,3441 1596,3445 1601,3449 1607,3451 1612,3453 1618,3454 1625,3453 1630,3452 1636,3450 1641,3447 1646,3443 1650,3439 1653,3434 1656,3428 1657,3422 1658,3416 1631,3368 1610,3368z
		M 539,3907 545,3906 551,3904 556,3902 561,3898 565,3894 569,3889 571,3883 573,3878 574,3872 573,3865 572,3860 570,3854 567,3849 563,3844 559,3840 554,3837 548,3834 542,3833 536,3833 492,3863 492,3877z"/>
</clipPath>
</defs>
<polyline points=" 1620,3870 1620,3375" clip-path="url(#cp19)"
	stroke="#000000" stroke-width="15px"/>
<!-- Forward arrow to point 1620,3375 -->
<polygon points=" 1658,3416 1657,3410 1656,3404 1653,3399 1650,3394 1646,3389
 1641,3385 1636,3382 1630,3380 1625,3379 1618,3379 1612,3380 1607,3381 1601,3384
 1596,3387 1592,3391 1588,3396 1586,3402 1584,3407 1583,3413 1583,3419 1584,3425
 1586,3431 1588,3436 1592,3441 1596,3445 1601,3449 1607,3451 1612,3453 1618,3454
 1625,3453 1630,3452 1636,3450 1641,3447 1646,3443 1650,3439 1653,3434 1656,3428
 1657,3422 1658,3416"
	stroke="#000000" stroke-width="8px" stroke-miterlimit="8"/>
<!-- Line -->
<defs>
<clipPath id="cp20">
	<path clip-rule="evenodd" d="M 213,1338 H 6852 V 4260 H 213 z
		M 2161,3833 2155,3834 2149,3836 2144,3838 2139,3842 2135,3846 2131,3851 2129,3857 2127,3862 2126,3868 2127,3875 2128,3880 2130,3886 2133,3891 2137,3896 2141,3900 2146,3903 2152,3906 2158,3907 2164,3908 2208,3877 2208,3863z
		M 1889,3907 1895,3906 1901,3904 1906,3902 1911,3898 1915,3894 1919,3889 1921,3883 1923,3878 1924,3872 1923,3865 1922,3860 1920,3854 1917,3849 1913,3844 1909,3840 1904,3837 1898,3834 1892,3833 1886,3833 1842,3863 1842,3877z"/>
</clipPath>
</defs>
<polyline points=" 1845,3870 2205,3870" clip-path="url(#cp20)"
	stroke="#000000" stroke-width="8px"/>
<!-- Forward arrow to point 2205,3870 -->
<polygon points=" 2164,3908 2170,3907 2176,3906 2181,3903 2186,3900 2191,3896
 2195,3891 2198,3886 2200,3880 2201,3875 2201,3868 2200,3862 2199,3857 2196,3851
 2193,3846 2189,3842 2184,3838 2178,3836 2173,3834 2167,3833 2161,3833 2155,3834
 2149,3836 2144,3838 2139,3842 2135,3846 2131,3851 2129,3857 2127,3862 2126,3868
 2127,3875 2128,3880 2130,3886 2133,3891 2137,3896 2141,3900 2146,3903 2152,3906
 2158,3907 2164,3908"
	stroke="#000000" stroke-width="8px" stroke-miterlimit="8"/>
<!-- Backward arrow to point 1845,3870 -->
<polygon points=" 1886,3833 1880,3833 1874,3834 1869,3837 1864,3840 1859,3844
 1855,3849 1852,3854 1850,3860 1849,3865 1849,3872 1850,3878 1851,3883 1854,3889
 1857,3894 1861,3898 1866,3902 1872,3904 1877,3906 1883,3907 1889,3907 1895,3906
 1901,3904 1906,3902 1911,3898 1915,3894 1919,3889 1921,3883 1923,3878 1924,3872
 1923,3865 1922,3860 1920,3854 1917,3849 1913,3844 1909,3840 1904,3837 1898,3834
 1892,3833 1886,3833"
	stroke="#000000" stroke-width="8px" stroke-miterlimit="8"/>
<!-- Line -->
<defs>
<clipPath id="cp21">
	<path clip-rule="evenodd" d="M 213,1338 H 6852 V 4260 H 213 z
		M 2701,3833 2695,3834 2689,3836 2684,3838 2679,3842 2675,3846 2671,3851 2669,3857 2667,3862 2666,3868 2667,3875 2668,3880 2670,3886 2673,3891 2677,3896 2681,3900 2686,3903 2692,3906 2698,3907 2704,3908 2748,3877 2748,3863z
		M 2429,3907 2435,3906 2441,3904 2446,3902 2451,3898 2455,3894 2459,3889 2461,3883 2463,3878 2464,3872 2463,3865 2462,3860 2460,3854 2457,3849 2453,3844 2449,3840 2444,3837 2438,3834 2432,3833 2426,3833 2382,3863 2382,3877z"/>
</clipPath>
</defs>
<polyline points=" 2385,3870 2745,3870" clip-path="url(#cp21)"
	stroke="#000000" stroke-width="8px"/>
<!-- Forward arrow to point 2745,3870 -->
<polygon points=" 2704,3908 2710,3907 2716,3906 2721,3903 2726,3900 2731,3896
 2735,3891 2738,3886 2740,3880 2741,3875 2741,3868 2740,3862 2739,3857 2736,3851
 2733,3846 2729,3842 2724,3838 2718,3836 2713,3834 2707,3833 2701,3833 2695,3834
 2689,3836 2684,3838 2679,3842 2675,3846 2671,3851 2669,3857 2667,3862 2666,3868
 2667,3875 2668,3880 2670,3886 2673,3891 2677,3896 2681,3900 2686,3903 2692,3906
 2698,3907 2704,3908"
	stroke="#000000" stroke-width="8px" stroke-miterlimit="8"/>
<!-- Backward arrow to point 2385,3870 -->
<polygon points=" 2426,3833 2420,3833 2414,3834 2409,3837 2404,3840 2399,3844
 2395,3849 2392,3854 2390,3860 2389,3865 2389,3872 2390,3878 2391,3883 2394,3889
 2397,3894 2401,3898 2406,3902 2412,3904 2417,3906 2423,3907 2429,3907 2435,3906
 2441,3904 2446,3902 2451,3898 2455,3894 2459,3889 2461,3883 2463,3878 2464,3872
 2463,3865 2462,3860 2460,3854 2457,3849 2453,3844 2449,3840 2444,3837 2438,3834
 2432,3833 2426,3833"
	stroke="#000000" stroke-width="8px" stroke-miterlimit="8"/>
<!-- Text -->
<text xml:space="preserve" x="5445" y="2415" fill="#000000" font-family="Times" font-style="italic" font-weight="normal" font-size="132" text-anchor="middle">x[0]\delta[n]</text>
<!-- Text -->
<text xml:space="preserve" x="6750" y="2820" fill="#000000" font-family="Times" font-style="italic" font-weight="normal" font-size="132" text-anchor="start">n</text>
<!-- Text -->
<text xml:space="preserve" x="1665" y="1530" fill="#000000" font-family="Times" font-style="normal" font-weight="normal" font-size="108" text-anchor="start">x[n]</text>
<!-- Text -->
<text xml:space="preserve" x="3060" y="3825" fill="#000000" font-family="Times" font-style="italic" font-weight="normal" font-size="132" text-anchor="start">n</text>
<!-- Text -->
<text xml:space="preserve" x="1620" y="3240" fill="#000000" font-family="Times" font-style="italic" font-weight="normal" font-size="132" text-anchor="middle">\delta[n]</text>
<!-- Text -->
<text xml:space="preserve" x="3060" y="2160" fill="#000000" font-family="Times" font-style="normal" font-weight="normal" font-size="108" text-anchor="start">n</text>
</g>
</svg>
