<?xml version="1.0" encoding="UTF-8" standalone="no"?>
<!-- Creator: fig2dev Version 3.2.8b -->
<!-- CreationDate: 2025-10-30 19:43:16 -->
<!-- Magnification: 1.05 -->
<svg	xmlns="http://www.w3.org/2000/svg"
	xmlns:xlink="http://www.w3.org/1999/xlink"
	width="186pt" height="148pt"
	viewBox="213 1404 2949 2337">
<g fill="none">
<!-- Line -->
<defs>
<clipPath id="cp0">
	<path clip-rule="evenodd" d="M 213,1404 H 3162 V 3741 H 213 z
		M 3055,3495 3070,3510 3055,3525 3157,3517 3157,3503z"/>
</clipPath>
</defs>
<polyline points=" 225,3510 3150,3510" clip-path="url(#cp0)"
	stroke="#000000" stroke-width="8px"/>
<!-- Forward arrow to point 3150,3510 -->
<polygon points=" 3055,3525 3130,3510 3055,3495 3070,3510 3055,3525"
	stroke="#000000" stroke-width="8px" stroke-miterlimit="8" fill="#000000"/>
<!-- Line -->
<defs>
<clipPath id="cp1">
	<path clip-rule="evenodd" d="M 213,1404 H 3162 V 3741 H 213 z
		M 3055,2235 3070,2250 3055,2265 3157,2257 3157,2243z"/>
</clipPath>
</defs>
<polyline points=" 225,2250 3150,2250" clip-path="url(#cp1)"
	stroke="#000000" stroke-width="8px"/>
<!-- Forward arrow to point 3150,2250 -->
<polygon points=" 3055,2265 3130,2250 3055,2235 3070,2250 3055,2265"
	stroke="#000000" stroke-width="8px" stroke-miterlimit="8" fill="#000000"/>
<!-- Text -->
<text xml:space="preserve" x="1620" y="3690" fill="#000000" font-family="Times" font-style="normal" font-weight="normal" font-size="96" text-anchor="middle">0</text>
<!-- Text -->
<text xml:space="preserve" x="1890" y="3690" fill="#000000" font-family="Times" font-style="normal" font-weight="normal" font-size="96" text-anchor="middle">1</text>
<!-- Text -->
<text xml:space="preserve" x="2160" y="3690" fill="#000000" font-family="Times" font-style="normal" font-weight="normal" font-size="96" text-anchor="middle">2</text>
<!-- Text -->
<text xml:space="preserve" x="2430" y="3690" fill="#000000" font-family="Times" font-style="normal" font-weight="normal" font-size="96" text-anchor="middle">3</text>
<!-- Text -->
<text xml:space="preserve" x="1305" y="3690" fill="#000000" font-family="Times" font-style="normal" font-weight="normal" font-size="96" text-anchor="middle">-1</text>
<!-- Text -->
<text xml:space="preserve" x="1035" y="3690" fill="#000000" font-family="Times" font-style="normal" font-weight="normal" font-size="96" text-anchor="middle">-2</text>
<!-- Text -->
<text xml:space="preserve" x="765" y="3690" fill="#000000" font-family="Times" font-style="normal" font-weight="normal" font-size="96" text-anchor="middle">-3</text>
<!-- Text -->
<text xml:space="preserve" x="450" y="3285" fill="#000000" font-family="Times" font-style="normal" font-weight="normal" font-size="132" text-anchor="end">\cdots</text>
<!-- Text -->
<text xml:space="preserve" x="2880" y="3150" fill="#000000" font-family="Times" font-style="italic" font-weight="normal" font-size="132" text-anchor="start">\cdots</text>
<!-- Text -->
<text xml:space="preserve" x="1620" y="2430" fill="#000000" font-family="Times" font-style="normal" font-weight="normal" font-size="96" text-anchor="middle">0</text>
<!-- Text -->
<text xml:space="preserve" x="1890" y="2430" fill="#000000" font-family="Times" font-style="normal" font-weight="normal" font-size="96" text-anchor="middle">1</text>
<!-- Text -->
<text xml:space="preserve" x="2160" y="2430" fill="#000000" font-family="Times" font-style="normal" font-weight="normal" font-size="96" text-anchor="middle">2</text>
<!-- Text -->
<text xml:space="preserve" x="2430" y="2430" fill="#000000" font-family="Times" font-style="normal" font-weight="normal" font-size="96" text-anchor="middle">3</text>
<!-- Text -->
<text xml:space="preserve" x="1305" y="2430" fill="#000000" font-family="Times" font-style="normal" font-weight="normal" font-size="96" text-anchor="middle">-1</text>
<!-- Text -->
<text xml:space="preserve" x="1035" y="2430" fill="#000000" font-family="Times" font-style="normal" font-weight="normal" font-size="96" text-anchor="middle">-2</text>
<!-- Text -->
<text xml:space="preserve" x="765" y="2430" fill="#000000" font-family="Times" font-style="normal" font-weight="normal" font-size="96" text-anchor="middle">-3</text>
<!-- Text -->
<text xml:space="preserve" x="450" y="2025" fill="#000000" font-family="Times" font-style="normal" font-weight="normal" font-size="132" text-anchor="end">\cdots</text>
<!-- Text -->
<text xml:space="preserve" x="1485" y="1845" fill="#000000" font-family="Times" font-style="italic" font-weight="normal" font-size="132" text-anchor="end">1</text>
<!-- Text -->
<text xml:space="preserve" x="2880" y="1890" fill="#000000" font-family="Times" font-style="italic" font-weight="normal" font-size="132" text-anchor="start">\cdots</text>
<!-- Text -->
<text xml:space="preserve" x="1800" y="3105" fill="#000000" font-family="Times" font-style="italic" font-weight="normal" font-size="132" text-anchor="end">1</text>
<!-- Text -->
<text xml:space="preserve" x="2700" y="2430" fill="#000000" font-family="Times" font-style="normal" font-weight="normal" font-size="96" text-anchor="middle">4</text>
<!-- Text -->
<text xml:space="preserve" x="2700" y="3690" fill="#000000" font-family="Times" font-style="normal" font-weight="normal" font-size="96" text-anchor="middle">4</text>
<!-- Line -->
<defs>
<clipPath id="cp2">
	<path clip-rule="evenodd" d="M 213,1404 H 3162 V 3741 H 213 z
		M 1351,3473 1345,3474 1339,3476 1334,3478 1329,3482 1325,3486 1321,3491 1319,3497 1317,3502 1316,3508 1317,3515 1318,3520 1320,3526 1323,3531 1327,3536 1331,3540 1336,3543 1342,3546 1348,3547 1354,3548 1398,3517 1398,3503z
		M 1079,3547 1085,3546 1091,3544 1096,3542 1101,3538 1105,3534 1109,3529 1111,3523 1113,3518 1114,3512 1113,3505 1112,3500 1110,3494 1107,3489 1103,3484 1099,3480 1094,3477 1088,3474 1082,3473 1076,3473 1032,3503 1032,3517z"/>
</clipPath>
</defs>
<polyline points=" 1035,3510 1395,3510" clip-path="url(#cp2)"
	stroke="#000000" stroke-width="8px"/>
<!-- Forward arrow to point 1395,3510 -->
<polygon points=" 1354,3548 1360,3547 1366,3546 1371,3543 1376,3540 1381,3536
 1385,3531 1388,3526 1390,3520 1391,3515 1391,3508 1390,3502 1389,3497 1386,3491
 1383,3486 1379,3482 1374,3478 1368,3476 1363,3474 1357,3473 1351,3473 1345,3474
 1339,3476 1334,3478 1329,3482 1325,3486 1321,3491 1319,3497 1317,3502 1316,3508
 1317,3515 1318,3520 1320,3526 1323,3531 1327,3536 1331,3540 1336,3543 1342,3546
 1348,3547 1354,3548"
	stroke="#000000" stroke-width="8px" stroke-miterlimit="8"/>
<!-- Backward arrow to point 1035,3510 -->
<polygon points=" 1076,3473 1070,3473 1064,3474 1059,3477 1054,3480 1049,3484
 1045,3489 1042,3494 1040,3500 1039,3505 1039,3512 1040,3518 1041,3523 1044,3529
 1047,3534 1051,3538 1056,3542 1062,3544 1067,3546 1073,3547 1079,3547 1085,3546
 1091,3544 1096,3542 1101,3538 1105,3534 1109,3529 1111,3523 1113,3518 1114,3512
 1113,3505 1112,3500 1110,3494 1107,3489 1103,3484 1099,3480 1094,3477 1088,3474
 1082,3473 1076,3473"
	stroke="#000000" stroke-width="8px" stroke-miterlimit="8"/>
<!-- Line -->
<defs>
<clipPath id="cp3">
	<path clip-rule="evenodd" d="M 213,1404 H 3162 V 3741 H 213 z
		M 811,3473 805,3474 799,3476 794,3478 789,3482 785,3486 781,3491 779,3497 777,3502 776,3508 777,3515 778,3520 780,3526 783,3531 787,3536 791,3540 796,3543 802,3546 808,3547 814,3548 858,3517 858,3503z
		M 539,3547 545,3546 551,3544 556,3542 561,3538 565,3534 569,3529 571,3523 573,3518 574,3512 573,3505 572,3500 570,3494 567,3489 563,3484 559,3480 554,3477 548,3474 542,3473 536,3473 492,3503 492,3517z"/>
</clipPath>
</defs>
<polyline points=" 495,3510 855,3510" clip-path="url(#cp3)"
	stroke="#000000" stroke-width="8px"/>
<!-- Forward arrow to point 855,3510 -->
<polygon points=" 814,3548 820,3547 826,3546 831,3543 836,3540 841,3536 845,3531
 848,3526 850,3520 851,3515 851,3508 850,3502 849,3497 846,3491 843,3486 839,3482
 834,3478 828,3476 823,3474 817,3473 811,3473 805,3474 799,3476 794,3478 789,3482
 785,3486 781,3491 779,3497 777,3502 776,3508 777,3515 778,3520 780,3526 783,3531
 787,3536 791,3540 796,3543 802,3546 808,3547 814,3548"
	stroke="#000000" stroke-width="8px" stroke-miterlimit="8"/>
<!-- Backward arrow to point 495,3510 -->
<polygon points=" 536,3473 530,3473 524,3474 519,3477 514,3480 509,3484 505,3489
 502,3494 500,3500 499,3505 499,3512 500,3518 501,3523 504,3529 507,3534 511,3538
 516,3542 522,3544 527,3546 533,3547 539,3547 545,3546 551,3544 556,3542 561,3538
 565,3534 569,3529 571,3523 573,3518 574,3512 573,3505 572,3500 570,3494 567,3489
 563,3484 559,3480 554,3477 548,3474 542,3473 536,3473"
	stroke="#000000" stroke-width="8px" stroke-miterlimit="8"/>
<!-- Line -->
<defs>
<clipPath id="cp4">
	<path clip-rule="evenodd" d="M 213,1404 H 3162 V 3741 H 213 z
		M 1853,3059 1854,3065 1856,3071 1858,3076 1862,3081 1866,3085 1871,3089 1877,3091 1882,3093 1888,3094 1895,3093 1900,3092 1906,3090 1911,3087 1916,3083 1920,3079 1923,3074 1926,3068 1927,3062 1928,3056 1901,3008 1880,3008z
		M 539,3547 545,3546 551,3544 556,3542 561,3538 565,3534 569,3529 571,3523 573,3518 574,3512 573,3505 572,3500 570,3494 567,3489 563,3484 559,3480 554,3477 548,3474 542,3473 536,3473 492,3503 492,3517z"/>
</clipPath>
</defs>
<polyline points=" 1890,3510 1890,3015" clip-path="url(#cp4)"
	stroke="#000000" stroke-width="15px"/>
<!-- Forward arrow to point 1890,3015 -->
<polygon points=" 1928,3056 1927,3050 1926,3044 1923,3039 1920,3034 1916,3029
 1911,3025 1906,3022 1900,3020 1895,3019 1888,3019 1882,3020 1877,3021 1871,3024
 1866,3027 1862,3031 1858,3036 1856,3042 1854,3047 1853,3053 1853,3059 1854,3065
 1856,3071 1858,3076 1862,3081 1866,3085 1871,3089 1877,3091 1882,3093 1888,3094
 1895,3093 1900,3092 1906,3090 1911,3087 1916,3083 1920,3079 1923,3074 1926,3068
 1927,3062 1928,3056"
	stroke="#000000" stroke-width="8px" stroke-miterlimit="8"/>
<!-- Line -->
<defs>
<clipPath id="cp5">
	<path clip-rule="evenodd" d="M 213,1404 H 3162 V 3741 H 213 z
		M 2123,3059 2124,3065 2126,3071 2128,3076 2132,3081 2136,3085 2141,3089 2147,3091 2152,3093 2158,3094 2165,3093 2170,3092 2176,3090 2181,3087 2186,3083 2190,3079 2193,3074 2196,3068 2197,3062 2198,3056 2171,3008 2150,3008z
		M 539,3547 545,3546 551,3544 556,3542 561,3538 565,3534 569,3529 571,3523 573,3518 574,3512 573,3505 572,3500 570,3494 567,3489 563,3484 559,3480 554,3477 548,3474 542,3473 536,3473 492,3503 492,3517z"/>
</clipPath>
</defs>
<polyline points=" 2160,3510 2160,3015" clip-path="url(#cp5)"
	stroke="#000000" stroke-width="15px"/>
<!-- Forward arrow to point 2160,3015 -->
<polygon points=" 2198,3056 2197,3050 2196,3044 2193,3039 2190,3034 2186,3029
 2181,3025 2176,3022 2170,3020 2165,3019 2158,3019 2152,3020 2147,3021 2141,3024
 2136,3027 2132,3031 2128,3036 2126,3042 2124,3047 2123,3053 2123,3059 2124,3065
 2126,3071 2128,3076 2132,3081 2136,3085 2141,3089 2147,3091 2152,3093 2158,3094
 2165,3093 2170,3092 2176,3090 2181,3087 2186,3083 2190,3079 2193,3074 2196,3068
 2197,3062 2198,3056"
	stroke="#000000" stroke-width="8px" stroke-miterlimit="8"/>
<!-- Line -->
<defs>
<clipPath id="cp6">
	<path clip-rule="evenodd" d="M 213,1404 H 3162 V 3741 H 213 z
		M 2393,3059 2394,3065 2396,3071 2398,3076 2402,3081 2406,3085 2411,3089 2417,3091 2422,3093 2428,3094 2435,3093 2440,3092 2446,3090 2451,3087 2456,3083 2460,3079 2463,3074 2466,3068 2467,3062 2468,3056 2441,3008 2420,3008z
		M 539,3547 545,3546 551,3544 556,3542 561,3538 565,3534 569,3529 571,3523 573,3518 574,3512 573,3505 572,3500 570,3494 567,3489 563,3484 559,3480 554,3477 548,3474 542,3473 536,3473 492,3503 492,3517z"/>
</clipPath>
</defs>
<polyline points=" 2430,3510 2430,3015" clip-path="url(#cp6)"
	stroke="#000000" stroke-width="15px"/>
<!-- Forward arrow to point 2430,3015 -->
<polygon points=" 2468,3056 2467,3050 2466,3044 2463,3039 2460,3034 2456,3029
 2451,3025 2446,3022 2440,3020 2435,3019 2428,3019 2422,3020 2417,3021 2411,3024
 2406,3027 2402,3031 2398,3036 2396,3042 2394,3047 2393,3053 2393,3059 2394,3065
 2396,3071 2398,3076 2402,3081 2406,3085 2411,3089 2417,3091 2422,3093 2428,3094
 2435,3093 2440,3092 2446,3090 2451,3087 2456,3083 2460,3079 2463,3074 2466,3068
 2467,3062 2468,3056"
	stroke="#000000" stroke-width="8px" stroke-miterlimit="8"/>
<!-- Line -->
<defs>
<clipPath id="cp7">
	<path clip-rule="evenodd" d="M 213,1404 H 3162 V 3741 H 213 z
		M 2663,3059 2664,3065 2666,3071 2668,3076 2672,3081 2676,3085 2681,3089 2687,3091 2692,3093 2698,3094 2705,3093 2710,3092 2716,3090 2721,3087 2726,3083 2730,3079 2733,3074 2736,3068 2737,3062 2738,3056 2711,3008 2690,3008z
		M 539,3547 545,3546 551,3544 556,3542 561,3538 565,3534 569,3529 571,3523 573,3518 574,3512 573,3505 572,3500 570,3494 567,3489 563,3484 559,3480 554,3477 548,3474 542,3473 536,3473 492,3503 492,3517z"/>
</clipPath>
</defs>
<polyline points=" 2700,3510 2700,3015" clip-path="url(#cp7)"
	stroke="#000000" stroke-width="15px"/>
<!-- Forward arrow to point 2700,3015 -->
<polygon points=" 2738,3056 2737,3050 2736,3044 2733,3039 2730,3034 2726,3029
 2721,3025 2716,3022 2710,3020 2705,3019 2698,3019 2692,3020 2687,3021 2681,3024
 2676,3027 2672,3031 2668,3036 2666,3042 2664,3047 2663,3053 2663,3059 2664,3065
 2666,3071 2668,3076 2672,3081 2676,3085 2681,3089 2687,3091 2692,3093 2698,3094
 2705,3093 2710,3092 2716,3090 2721,3087 2726,3083 2730,3079 2733,3074 2736,3068
 2737,3062 2738,3056"
	stroke="#000000" stroke-width="8px" stroke-miterlimit="8"/>
<!-- Line -->
<defs>
<clipPath id="cp8">
	<path clip-rule="evenodd" d="M 213,1404 H 3162 V 3741 H 213 z
		M 1351,2213 1345,2214 1339,2216 1334,2218 1329,2222 1325,2226 1321,2231 1319,2237 1317,2242 1316,2248 1317,2255 1318,2260 1320,2266 1323,2271 1327,2276 1331,2280 1336,2283 1342,2286 1348,2287 1354,2288 1398,2257 1398,2243z
		M 1079,2287 1085,2286 1091,2284 1096,2282 1101,2278 1105,2274 1109,2269 1111,2263 1113,2258 1114,2252 1113,2245 1112,2240 1110,2234 1107,2229 1103,2224 1099,2220 1094,2217 1088,2214 1082,2213 1076,2213 1032,2243 1032,2257z"/>
</clipPath>
</defs>
<polyline points=" 1035,2250 1395,2250" clip-path="url(#cp8)"
	stroke="#000000" stroke-width="8px"/>
<!-- Forward arrow to point 1395,2250 -->
<polygon points=" 1354,2288 1360,2287 1366,2286 1371,2283 1376,2280 1381,2276
 1385,2271 1388,2266 1390,2260 1391,2255 1391,2248 1390,2242 1389,2237 1386,2231
 1383,2226 1379,2222 1374,2218 1368,2216 1363,2214 1357,2213 1351,2213 1345,2214
 1339,2216 1334,2218 1329,2222 1325,2226 1321,2231 1319,2237 1317,2242 1316,2248
 1317,2255 1318,2260 1320,2266 1323,2271 1327,2276 1331,2280 1336,2283 1342,2286
 1348,2287 1354,2288"
	stroke="#000000" stroke-width="8px" stroke-miterlimit="8"/>
<!-- Backward arrow to point 1035,2250 -->
<polygon points=" 1076,2213 1070,2213 1064,2214 1059,2217 1054,2220 1049,2224
 1045,2229 1042,2234 1040,2240 1039,2245 1039,2252 1040,2258 1041,2263 1044,2269
 1047,2274 1051,2278 1056,2282 1062,2284 1067,2286 1073,2287 1079,2287 1085,2286
 1091,2284 1096,2282 1101,2278 1105,2274 1109,2269 1111,2263 1113,2258 1114,2252
 1113,2245 1112,2240 1110,2234 1107,2229 1103,2224 1099,2220 1094,2217 1088,2214
 1082,2213 1076,2213"
	stroke="#000000" stroke-width="8px" stroke-miterlimit="8"/>
<!-- Line -->
<defs>
<clipPath id="cp9">
	<path clip-rule="evenodd" d="M 213,1404 H 3162 V 3741 H 213 z
		M 811,2213 805,2214 799,2216 794,2218 789,2222 785,2226 781,2231 779,2237 777,2242 776,2248 777,2255 778,2260 780,2266 783,2271 787,2276 791,2280 796,2283 802,2286 808,2287 814,2288 858,2257 858,2243z
		M 539,2287 545,2286 551,2284 556,2282 561,2278 565,2274 569,2269 571,2263 573,2258 574,2252 573,2245 572,2240 570,2234 567,2229 563,2224 559,2220 554,2217 548,2214 542,2213 536,2213 492,2243 492,2257z"/>
</clipPath>
</defs>
<polyline points=" 495,2250 855,2250" clip-path="url(#cp9)"
	stroke="#000000" stroke-width="8px"/>
<!-- Forward arrow to point 855,2250 -->
<polygon points=" 814,2288 820,2287 826,2286 831,2283 836,2280 841,2276 845,2271
 848,2266 850,2260 851,2255 851,2248 850,2242 849,2237 846,2231 843,2226 839,2222
 834,2218 828,2216 823,2214 817,2213 811,2213 805,2214 799,2216 794,2218 789,2222
 785,2226 781,2231 779,2237 777,2242 776,2248 777,2255 778,2260 780,2266 783,2271
 787,2276 791,2280 796,2283 802,2286 808,2287 814,2288"
	stroke="#000000" stroke-width="8px" stroke-miterlimit="8"/>
<!-- Backward arrow to point 495,2250 -->
<polygon points=" 536,2213 530,2213 524,2214 519,2217 514,2220 509,2224 505,2229
 502,2234 500,2240 499,2245 499,2252 500,2258 501,2263 504,2269 507,2274 511,2278
 516,2282 522,2284 527,2286 533,2287 539,2287 545,2286 551,2284 556,2282 561,2278
 565,2274 569,2269 571,2263 573,2258 574,2252 573,2245 572,2240 570,2234 567,2229
 563,2224 559,2220 554,2217 548,2214 542,2213 536,2213"
	stroke="#000000" stroke-width="8px" stroke-miterlimit="8"/>
<!-- Line -->
<defs>
<clipPath id="cp10">
	<path clip-rule="evenodd" d="M 213,1404 H 3162 V 3741 H 213 z
		M 1583,1799 1584,1805 1586,1811 1588,1816 1592,1821 1596,1825 1601,1829 1607,1831 1612,1833 1618,1834 1625,1833 1630,1832 1636,1830 1641,1827 1646,1823 1650,1819 1653,1814 1656,1808 1657,1802 1658,1796 1631,1748 1610,1748z
		M 539,2287 545,2286 551,2284 556,2282 561,2278 565,2274 569,2269 571,2263 573,2258 574,2252 573,2245 572,2240 570,2234 567,2229 563,2224 559,2220 554,2217 548,2214 542,2213 536,2213 492,2243 492,2257z"/>
</clipPath>
</defs>
<polyline points=" 1620,2250 1620,1755" clip-path="url(#cp10)"
	stroke="#000000" stroke-width="15px"/>
<!-- Forward arrow to point 1620,1755 -->
<polygon points=" 1658,1796 1657,1790 1656,1784 1653,1779 1650,1774 1646,1769
 1641,1765 1636,1762 1630,1760 1625,1759 1618,1759 1612,1760 1607,1761 1601,1764
 1596,1767 1592,1771 1588,1776 1586,1782 1584,1787 1583,1793 1583,1799 1584,1805
 1586,1811 1588,1816 1592,1821 1596,1825 1601,1829 1607,1831 1612,1833 1618,1834
 1625,1833 1630,1832 1636,1830 1641,1827 1646,1823 1650,1819 1653,1814 1656,1808
 1657,1802 1658,1796"
	stroke="#000000" stroke-width="8px" stroke-miterlimit="8"/>
<!-- Line -->
<defs>
<clipPath id="cp11">
	<path clip-rule="evenodd" d="M 213,1404 H 3162 V 3741 H 213 z
		M 1853,1799 1854,1805 1856,1811 1858,1816 1862,1821 1866,1825 1871,1829 1877,1831 1882,1833 1888,1834 1895,1833 1900,1832 1906,1830 1911,1827 1916,1823 1920,1819 1923,1814 1926,1808 1927,1802 1928,1796 1901,1748 1880,1748z
		M 539,2287 545,2286 551,2284 556,2282 561,2278 565,2274 569,2269 571,2263 573,2258 574,2252 573,2245 572,2240 570,2234 567,2229 563,2224 559,2220 554,2217 548,2214 542,2213 536,2213 492,2243 492,2257z"/>
</clipPath>
</defs>
<polyline points=" 1890,2250 1890,1755" clip-path="url(#cp11)"
	stroke="#000000" stroke-width="15px"/>
<!-- Forward arrow to point 1890,1755 -->
<polygon points=" 1928,1796 1927,1790 1926,1784 1923,1779 1920,1774 1916,1769
 1911,1765 1906,1762 1900,1760 1895,1759 1888,1759 1882,1760 1877,1761 1871,1764
 1866,1767 1862,1771 1858,1776 1856,1782 1854,1787 1853,1793 1853,1799 1854,1805
 1856,1811 1858,1816 1862,1821 1866,1825 1871,1829 1877,1831 1882,1833 1888,1834
 1895,1833 1900,1832 1906,1830 1911,1827 1916,1823 1920,1819 1923,1814 1926,1808
 1927,1802 1928,1796"
	stroke="#000000" stroke-width="8px" stroke-miterlimit="8"/>
<!-- Line -->
<defs>
<clipPath id="cp12">
	<path clip-rule="evenodd" d="M 213,1404 H 3162 V 3741 H 213 z
		M 2123,1799 2124,1805 2126,1811 2128,1816 2132,1821 2136,1825 2141,1829 2147,1831 2152,1833 2158,1834 2165,1833 2170,1832 2176,1830 2181,1827 2186,1823 2190,1819 2193,1814 2196,1808 2197,1802 2198,1796 2171,1748 2150,1748z
		M 539,2287 545,2286 551,2284 556,2282 561,2278 565,2274 569,2269 571,2263 573,2258 574,2252 573,2245 572,2240 570,2234 567,2229 563,2224 559,2220 554,2217 548,2214 542,2213 536,2213 492,2243 492,2257z"/>
</clipPath>
</defs>
<polyline points=" 2160,2250 2160,1755" clip-path="url(#cp12)"
	stroke="#000000" stroke-width="15px"/>
<!-- Forward arrow to point 2160,1755 -->
<polygon points=" 2198,1796 2197,1790 2196,1784 2193,1779 2190,1774 2186,1769
 2181,1765 2176,1762 2170,1760 2165,1759 2158,1759 2152,1760 2147,1761 2141,1764
 2136,1767 2132,1771 2128,1776 2126,1782 2124,1787 2123,1793 2123,1799 2124,1805
 2126,1811 2128,1816 2132,1821 2136,1825 2141,1829 2147,1831 2152,1833 2158,1834
 2165,1833 2170,1832 2176,1830 2181,1827 2186,1823 2190,1819 2193,1814 2196,1808
 2197,1802 2198,1796"
	stroke="#000000" stroke-width="8px" stroke-miterlimit="8"/>
<!-- Line -->
<defs>
<clipPath id="cp13">
	<path clip-rule="evenodd" d="M 213,1404 H 3162 V 3741 H 213 z
		M 2393,1799 2394,1805 2396,1811 2398,1816 2402,1821 2406,1825 2411,1829 2417,1831 2422,1833 2428,1834 2435,1833 2440,1832 2446,1830 2451,1827 2456,1823 2460,1819 2463,1814 2466,1808 2467,1802 2468,1796 2441,1748 2420,1748z
		M 539,2287 545,2286 551,2284 556,2282 561,2278 565,2274 569,2269 571,2263 573,2258 574,2252 573,2245 572,2240 570,2234 567,2229 563,2224 559,2220 554,2217 548,2214 542,2213 536,2213 492,2243 492,2257z"/>
</clipPath>
</defs>
<polyline points=" 2430,2250 2430,1755" clip-path="url(#cp13)"
	stroke="#000000" stroke-width="15px"/>
<!-- Forward arrow to point 2430,1755 -->
<polygon points=" 2468,1796 2467,1790 2466,1784 2463,1779 2460,1774 2456,1769
 2451,1765 2446,1762 2440,1760 2435,1759 2428,1759 2422,1760 2417,1761 2411,1764
 2406,1767 2402,1771 2398,1776 2396,1782 2394,1787 2393,1793 2393,1799 2394,1805
 2396,1811 2398,1816 2402,1821 2406,1825 2411,1829 2417,1831 2422,1833 2428,1834
 2435,1833 2440,1832 2446,1830 2451,1827 2456,1823 2460,1819 2463,1814 2466,1808
 2467,1802 2468,1796"
	stroke="#000000" stroke-width="8px" stroke-miterlimit="8"/>
<!-- Line -->
<defs>
<clipPath id="cp14">
	<path clip-rule="evenodd" d="M 213,1404 H 3162 V 3741 H 213 z
		M 2663,1799 2664,1805 2666,1811 2668,1816 2672,1821 2676,1825 2681,1829 2687,1831 2692,1833 2698,1834 2705,1833 2710,1832 2716,1830 2721,1827 2726,1823 2730,1819 2733,1814 2736,1808 2737,1802 2738,1796 2711,1748 2690,1748z
		M 539,2287 545,2286 551,2284 556,2282 561,2278 565,2274 569,2269 571,2263 573,2258 574,2252 573,2245 572,2240 570,2234 567,2229 563,2224 559,2220 554,2217 548,2214 542,2213 536,2213 492,2243 492,2257z"/>
</clipPath>
</defs>
<polyline points=" 2700,2250 2700,1755" clip-path="url(#cp14)"
	stroke="#000000" stroke-width="15px"/>
<!-- Forward arrow to point 2700,1755 -->
<polygon points=" 2738,1796 2737,1790 2736,1784 2733,1779 2730,1774 2726,1769
 2721,1765 2716,1762 2710,1760 2705,1759 2698,1759 2692,1760 2687,1761 2681,1764
 2676,1767 2672,1771 2668,1776 2666,1782 2664,1787 2663,1793 2663,1799 2664,1805
 2666,1811 2668,1816 2672,1821 2676,1825 2681,1829 2687,1831 2692,1833 2698,1834
 2705,1833 2710,1832 2716,1830 2721,1827 2726,1823 2730,1819 2733,1814 2736,1808
 2737,1802 2738,1796"
	stroke="#000000" stroke-width="8px" stroke-miterlimit="8"/>
<!-- Line -->
<defs>
<clipPath id="cp15">
	<path clip-rule="evenodd" d="M 213,1404 H 3162 V 3741 H 213 z
		M 2663,1799 2664,1805 2666,1811 2668,1816 2672,1821 2676,1825 2681,1829 2687,1831 2692,1833 2698,1834 2705,1833 2710,1832 2716,1830 2721,1827 2726,1823 2730,1819 2733,1814 2736,1808 2737,1802 2738,1796 2711,1748 2690,1748z
		M 1619,3547 1625,3546 1631,3544 1636,3542 1641,3538 1645,3534 1649,3529 1651,3523 1653,3518 1654,3512 1653,3505 1652,3500 1650,3494 1647,3489 1643,3484 1639,3480 1634,3477 1628,3474 1622,3473 1616,3473 1572,3503 1572,3517z"/>
</clipPath>
</defs>
<polyline points=" 1575,3510 1935,3510" clip-path="url(#cp15)"
	stroke="#000000" stroke-width="8px"/>
<!-- Backward arrow to point 1575,3510 -->
<polygon points=" 1616,3473 1610,3473 1604,3474 1599,3477 1594,3480 1589,3484
 1585,3489 1582,3494 1580,3500 1579,3505 1579,3512 1580,3518 1581,3523 1584,3529
 1587,3534 1591,3538 1596,3542 1602,3544 1607,3546 1613,3547 1619,3547 1625,3546
 1631,3544 1636,3542 1641,3538 1645,3534 1649,3529 1651,3523 1653,3518 1654,3512
 1653,3505 1652,3500 1650,3494 1647,3489 1643,3484 1639,3480 1634,3477 1628,3474
 1622,3473 1616,3473"
	stroke="#000000" stroke-width="8px" stroke-miterlimit="8"/>
<!-- Text -->
<text xml:space="preserve" x="3060" y="3465" fill="#000000" font-family="Times" font-style="italic" font-weight="normal" font-size="132" text-anchor="start">n</text>
<!-- Text -->
<text xml:space="preserve" x="3060" y="2205" fill="#000000" font-family="Times" font-style="italic" font-weight="normal" font-size="132" text-anchor="start">n</text>
<!-- Text -->
<text xml:space="preserve" x="1575" y="1575" fill="#000000" font-family="Times" font-style="italic" font-weight="normal" font-size="132" text-anchor="start">u[n]</text>
<!-- Text -->
<text xml:space="preserve" x="1845" y="2835" fill="#000000" font-family="Times" font-style="italic" font-weight="normal" font-size="132" text-anchor="start">u[n-1]</text>
</g>
</svg>
