<?xml version="1.0" encoding="UTF-8" standalone="no"?>
<!-- Creator: fig2dev Version 3.2.8b -->
<!-- CreationDate: 2025-10-30 19:43:17 -->
<!-- Magnification: 1.05 -->
<svg	xmlns="http://www.w3.org/2000/svg"
	xmlns:xlink="http://www.w3.org/1999/xlink"
	width="184pt" height="70pt"
	viewBox="750 1428 2910 1104">
<g fill="none">
<!-- Line -->
<rect x="1710" y="2160" width="630" height="360"
	stroke="#000000" stroke-width="8px"/>
<!-- Text -->
<text xml:space="preserve" x="2025" y="2385" fill="#000000" font-family="Times" font-style="normal" font-weight="normal" font-size="144" text-anchor="middle">T<tspan font-size="96" baseline-shift="sub">2</tspan></text>
<!-- Line -->
<polyline points=" 2798,1912 2798,2058"
	stroke="#000000" stroke-width="8px"/>
<!-- Line -->
<polyline points=" 2875,1980 2729,1979"
	stroke="#000000" stroke-width="8px"/>
<!-- Line -->
<rect x="1710" y="1440" width="630" height="360"
	stroke="#000000" stroke-width="8px"/>
<!-- Line -->
<defs>
<clipPath id="cp0">
	<path clip-rule="evenodd" d="M 750,1428 H 3660 V 2532 H 750 z
		M 1540,1590 1570,1620 1540,1650 1717,1627 1717,1613z
		M 1540,2310 1570,2340 1540,2370 1717,2347 1717,2333z"/>
</clipPath>
</defs>
<polyline points=" 1710,2340 1260,2340 1260,1620 1710,1620" clip-path="url(#cp0)"
	stroke="#000000" stroke-width="8px"/>
<!-- Forward arrow to point 1710,1620 -->
<polygon points=" 1540,1650 1690,1620 1540,1590 1570,1620 1540,1650"
	stroke="#000000" stroke-width="8px" stroke-miterlimit="8" fill="#000000"/>
<!-- Backward arrow to point 1710,2340 -->
<polygon points=" 1540,2370 1690,2340 1540,2310 1570,2340 1540,2370"
	stroke="#000000" stroke-width="8px" stroke-miterlimit="8" fill="#000000"/>
<!-- Line -->
<defs>
<clipPath id="cp1">
	<path clip-rule="evenodd" d="M 750,1428 H 3660 V 2532 H 750 z
		M 1090,1950 1120,1980 1090,2010 1267,1987 1267,1973z
		M 1540,2310 1570,2340 1540,2370 1717,2347 1717,2333z"/>
</clipPath>
</defs>
<polyline points=" 810,1980 1260,1980" clip-path="url(#cp1)"
	stroke="#000000" stroke-width="8px"/>
<!-- Forward arrow to point 1260,1980 -->
<polygon points=" 1090,2010 1240,1980 1090,1950 1120,1980 1090,2010"
	stroke="#000000" stroke-width="8px" stroke-miterlimit="8" fill="#000000"/>
<!-- Line -->
<defs>
<clipPath id="cp2">
	<path clip-rule="evenodd" d="M 750,1428 H 3660 V 2532 H 750 z
		M 2820,1720 2790,1750 2760,1720 2783,1897 2797,1897z
		M 1540,2310 1570,2340 1540,2370 1717,2347 1717,2333z"/>
</clipPath>
</defs>
<polyline points=" 2340,1620 2790,1620 2790,1890" clip-path="url(#cp2)"
	stroke="#000000" stroke-width="8px"/>
<!-- Forward arrow to point 2790,1890 -->
<polygon points=" 2760,1720 2790,1870 2820,1720 2790,1750 2760,1720"
	stroke="#000000" stroke-width="8px" stroke-miterlimit="8" fill="#000000"/>
<!-- Line -->
<defs>
<clipPath id="cp3">
	<path clip-rule="evenodd" d="M 750,1428 H 3660 V 2532 H 750 z
		M 2760,2240 2790,2210 2820,2240 2797,2063 2783,2063z
		M 1540,2310 1570,2340 1540,2370 1717,2347 1717,2333z"/>
</clipPath>
</defs>
<polyline points=" 2340,2340 2790,2340 2790,2070" clip-path="url(#cp3)"
	stroke="#000000" stroke-width="8px"/>
<!-- Forward arrow to point 2790,2070 -->
<polygon points=" 2820,2240 2790,2090 2760,2240 2790,2210 2820,2240"
	stroke="#000000" stroke-width="8px" stroke-miterlimit="8" fill="#000000"/>
<!-- Line -->
<defs>
<clipPath id="cp4">
	<path clip-rule="evenodd" d="M 750,1428 H 3660 V 2532 H 750 z
		M 3182,1950 3212,1980 3182,2010 3359,1987 3359,1973z
		M 1540,2310 1570,2340 1540,2370 1717,2347 1717,2333z"/>
</clipPath>
</defs>
<polyline points=" 2902,1980 3352,1980" clip-path="url(#cp4)"
	stroke="#000000" stroke-width="8px"/>
<!-- Forward arrow to point 3352,1980 -->
<polygon points=" 3182,2010 3332,1980 3182,1950 3212,1980 3182,2010"
	stroke="#000000" stroke-width="8px" stroke-miterlimit="8" fill="#000000"/>
<!-- Text -->
<text xml:space="preserve" x="2025" y="1665" fill="#000000" font-family="Times" font-style="normal" font-weight="normal" font-size="144" text-anchor="middle">T<tspan font-size="96" baseline-shift="sub">1</tspan></text>
<!-- Text -->
<text xml:space="preserve" x="765" y="2025" fill="#000000" font-family="Times" font-style="normal" font-weight="normal" font-size="144" text-anchor="end">x(t)</text>
<!-- Text -->
<text xml:space="preserve" x="3645" y="2025" fill="#000000" font-family="Times" font-style="normal" font-weight="normal" font-size="144" text-anchor="middle">y(t)</text>
<!-- Circle -->
<circle cx="2797" cy="1982" r="103"
	stroke="#000000" stroke-width="8px"/>
</g>
</svg>
