<?xml version="1.0" encoding="utf-8" standalone="no"?>
<!DOCTYPE svg PUBLIC "-//W3C//DTD SVG 1.1//EN"
  "http://www.w3.org/Graphics/SVG/1.1/DTD/svg11.dtd">
<svg xmlns:xlink="http://www.w3.org/1999/xlink" width="712.8pt" height="280.8pt" viewBox="0 0 712.8 280.8" xmlns="http://www.w3.org/2000/svg" version="1.1">
 <metadata>
  <rdf:RDF xmlns:dc="http://purl.org/dc/elements/1.1/" xmlns:cc="http://creativecommons.org/ns#" xmlns:rdf="http://www.w3.org/1999/02/22-rdf-syntax-ns#">
   <cc:Work>
    <dc:type rdf:resource="http://purl.org/dc/dcmitype/StillImage"/>
    <dc:date>2026-01-29T18:08:54.912375</dc:date>
    <dc:format>image/svg+xml</dc:format>
    <dc:creator>
     <cc:Agent>
      <dc:title>Matplotlib v3.10.8, https://matplotlib.org/</dc:title>
     </cc:Agent>
    </dc:creator>
   </cc:Work>
  </rdf:RDF>
 </metadata>
 <defs>
  <style type="text/css">*{stroke-linejoin: round; stroke-linecap: butt}</style>
 </defs>
 <g id="figure_1">
  <g id="patch_1">
   <path d="M 0 280.8 
L 712.8 280.8 
L 712.8 0 
L 0 0 
z
" style="fill: #ffffff"/>
  </g>
  <g id="axes_1">
   <g id="patch_2">
    <path d="M 7.2 273.6 
L 705.6 273.6 
L 705.6 7.2 
L 7.2 7.2 
z
" style="fill: #ffffff"/>
   </g>
   <g id="matplotlib.axis_1"/>
   <g id="matplotlib.axis_2"/>
   <g id="line2d_1">
    <path d="M 156.857143 152.715573 
L 156.857143 149.115573 
" style="fill: none; stroke: #000000; stroke-width: 1.2; stroke-linecap: square"/>
   </g>
   <g id="line2d_2">
    <path d="M 256.628571 152.715573 
L 256.628571 149.115573 
" style="fill: none; stroke: #000000; stroke-width: 1.2; stroke-linecap: square"/>
   </g>
   <g id="line2d_3">
    <path d="M 356.4 152.715573 
L 356.4 149.115573 
" style="fill: none; stroke: #000000; stroke-width: 1.2; stroke-linecap: square"/>
   </g>
   <g id="line2d_4">
    <path d="M 456.171429 152.715573 
L 456.171429 149.115573 
" style="fill: none; stroke: #000000; stroke-width: 1.2; stroke-linecap: square"/>
   </g>
   <g id="line2d_5">
    <path d="M 555.942857 152.715573 
L 555.942857 149.115573 
" style="fill: none; stroke: #000000; stroke-width: 1.2; stroke-linecap: square"/>
   </g>
   <g id="line2d_6">
    <path d="M 354.6 238.547368 
L 358.2 238.547368 
" style="fill: none; stroke: #000000; stroke-width: 1.2; stroke-linecap: square"/>
   </g>
   <g id="line2d_7">
    <path d="M 354.6 63.283777 
L 358.2 63.283777 
" style="fill: none; stroke: #000000; stroke-width: 1.2; stroke-linecap: square"/>
   </g>
   <g id="patch_3">
    <path d="M 7.2 273.6 
L 7.2 7.2 
" style="fill: none"/>
   </g>
   <g id="patch_4">
    <path d="M 705.6 273.6 
L 705.6 7.2 
" style="fill: none"/>
   </g>
   <g id="patch_5">
    <path d="M 7.2 273.6 
L 705.6 273.6 
" style="fill: none"/>
   </g>
   <g id="patch_6">
    <path d="M 7.2 7.2 
L 705.6 7.2 
" style="fill: none"/>
   </g>
   <g id="patch_7">
    <path d="M 9.200803 150.915573 
Q 356.400209 150.915573 701.922565 150.915573 
" style="fill: none; stroke: #000000; stroke-width: 1.5; stroke-linecap: round"/>
    <path d="M 695.522565 148.355573 
L 701.922565 150.915573 
L 695.522565 153.475573 
z
" style="stroke: #000000; stroke-width: 1.5; stroke-linecap: round"/>
   </g>
   <g id="patch_8">
    <path d="M 356.4 271.595984 
Q 356.4 140.396497 356.4 12.551111 
" style="fill: none; stroke: #000000; stroke-width: 1.5; stroke-linecap: round"/>
    <path d="M 354 22.151111 
L 356.4 12.551111 
L 358.8 22.151111 
z
" style="stroke: #000000; stroke-width: 1.5; stroke-linecap: round"/>
   </g>
   <g id="text_1">
    <!-- $t$ -->
    <g transform="translate(690.616 141.428198) scale(0.2 -0.2)">
     <defs>
      <path id="DejaVuSans-Oblique-74" d="M 2706 3500 
L 2619 3053 
L 1472 3053 
L 1100 1153 
Q 1081 1047 1072 975 
Q 1063 903 1063 863 
Q 1063 663 1183 572 
Q 1303 481 1569 481 
L 2150 481 
L 2053 0 
L 1503 0 
Q 991 0 739 200 
Q 488 400 488 806 
Q 488 878 497 964 
Q 506 1050 525 1153 
L 897 3053 
L 409 3053 
L 500 3500 
L 978 3500 
L 1172 4494 
L 1747 4494 
L 1556 3500 
L 2706 3500 
z
" transform="scale(0.015625)"/>
     </defs>
     <use xlink:href="#DejaVuSans-Oblique-74" transform="translate(0 0.78125)"/>
    </g>
   </g>
   <g id="text_2">
    <!-- $\tilde{x}(t)$ -->
    <g transform="translate(363.384 29.680625) scale(0.2 -0.2)">
     <defs>
      <path id="DejaVuSans-303" d="M -1621 4281 
L -1799 4453 
Q -1867 4516 -1919 4545 
Q -1971 4575 -2011 4575 
Q -2130 4575 -2186 4461 
Q -2242 4347 -2249 4091 
L -2639 4091 
Q -2633 4513 -2473 4742 
Q -2314 4972 -2030 4972 
Q -1911 4972 -1811 4928 
Q -1711 4884 -1596 4781 
L -1417 4609 
Q -1349 4547 -1297 4517 
Q -1246 4488 -1205 4488 
Q -1086 4488 -1030 4602 
Q -974 4716 -967 4972 
L -577 4972 
Q -583 4550 -742 4320 
Q -902 4091 -1186 4091 
Q -1305 4091 -1405 4134 
Q -1505 4178 -1621 4281 
z
" transform="scale(0.015625)"/>
      <path id="DejaVuSans-Oblique-78" d="M 3841 3500 
L 2234 1784 
L 3219 0 
L 2559 0 
L 1819 1388 
L 531 0 
L -166 0 
L 1556 1844 
L 641 3500 
L 1300 3500 
L 1972 2234 
L 3144 3500 
L 3841 3500 
z
" transform="scale(0.015625)"/>
      <path id="DejaVuSans-28" d="M 1984 4856 
Q 1566 4138 1362 3434 
Q 1159 2731 1159 2009 
Q 1159 1288 1364 580 
Q 1569 -128 1984 -844 
L 1484 -844 
Q 1016 -109 783 600 
Q 550 1309 550 2009 
Q 550 2706 781 3412 
Q 1013 4119 1484 4856 
L 1984 4856 
z
" transform="scale(0.015625)"/>
      <path id="DejaVuSans-29" d="M 513 4856 
L 1013 4856 
Q 1481 4119 1714 3412 
Q 1947 2706 1947 2009 
Q 1947 1309 1714 600 
Q 1481 -109 1013 -844 
L 513 -844 
Q 928 -128 1133 580 
Q 1338 1288 1338 2009 
Q 1338 2731 1133 3434 
Q 928 4138 513 4856 
z
" transform="scale(0.015625)"/>
     </defs>
     <use xlink:href="#DejaVuSans-303" transform="translate(62.029297 3.3125)"/>
     <use xlink:href="#DejaVuSans-Oblique-78" transform="translate(0 0.046875)"/>
     <use xlink:href="#DejaVuSans-28" transform="translate(59.179688 0.046875)"/>
     <use xlink:href="#DejaVuSans-Oblique-74" transform="translate(98.193359 0.046875)"/>
     <use xlink:href="#DejaVuSans-29" transform="translate(137.402344 0.046875)"/>
    </g>
   </g>
   <g id="line2d_8">
    <path d="M 106.971429 238.547368 
L 107.970142 238.374101 
L 108.968855 237.854983 
L 109.967568 236.992069 
L 110.966281 235.788769 
L 111.964994 234.249843 
L 112.963707 232.381376 
L 114.461776 228.977299 
L 115.959846 224.878954 
L 117.457915 220.12279 
L 119.455341 212.831875 
L 121.452767 204.562549 
L 123.94955 193.050381 
L 126.945689 177.890429 
L 130.940541 156.285996 
L 137.432175 121.07325 
L 140.428314 106.148533 
L 142.925097 94.904225 
L 144.922523 86.891554 
L 146.919949 79.8906 
L 148.418018 75.371027 
L 149.916088 71.523335 
L 151.414157 68.381744 
L 152.41287 66.693693 
L 153.411583 65.338693 
L 154.410296 64.322102 
L 155.409009 63.64794 
L 156.407722 63.318873 
L 157.406435 63.336203 
L 158.405148 63.69986 
L 159.403861 64.408407 
L 160.402574 65.459042 
L 161.401287 66.847611 
L 162.4 68.568621 
L 163.898069 71.758226 
L 165.396139 75.651843 
L 166.894208 80.214843 
L 168.392278 85.406644 
L 170.389704 93.226616 
L 172.38713 101.958197 
L 174.883912 113.943227 
L 177.880051 129.501676 
L 183.372973 159.582121 
L 187.367825 181.016855 
L 190.363964 195.919297 
L 192.860746 207.138583 
L 194.858172 215.127441 
L 196.855598 222.101614 
L 198.353668 226.599406 
L 199.851737 230.424079 
L 201.349807 233.541616 
L 202.34852 235.213163 
L 203.347233 236.551358 
L 204.345946 237.550912 
L 205.344659 238.207871 
L 206.343372 238.519638 
L 207.342085 238.484979 
L 208.340798 238.104031 
L 209.339511 237.378302 
L 210.338224 236.31066 
L 211.336937 234.905329 
L 212.33565 233.167864 
L 213.833719 229.9543 
L 215.331789 226.037778 
L 216.829858 221.453132 
L 218.327928 216.241136 
L 220.325354 208.396804 
L 222.32278 199.644144 
L 224.819562 187.637885 
L 227.815701 172.06214 
L 233.308623 141.97484 
L 237.303475 120.555629 
L 240.299614 105.675609 
L 242.796396 94.481457 
L 244.793822 86.516491 
L 246.791248 79.569168 
L 248.289318 75.0932 
L 249.787387 71.291585 
L 251.285457 68.198132 
L 252.28417 66.543107 
L 253.282883 65.221728 
L 254.281596 64.239222 
L 255.280309 63.599472 
L 256.279022 63.305009 
L 257.277735 63.356997 
L 258.276448 63.75523 
L 259.275161 64.498135 
L 260.273874 65.582772 
L 261.272587 67.004854 
L 262.2713 68.758756 
L 263.769369 71.996248 
L 265.267439 75.935635 
L 266.765508 80.541882 
L 268.263578 85.774021 
L 270.261004 93.642636 
L 272.25843 102.416287 
L 274.755212 114.443657 
L 277.751351 130.036545 
L 283.743629 162.865906 
L 287.738481 184.100419 
L 290.235264 196.391329 
L 292.732046 207.560236 
L 294.729472 215.501232 
L 296.726898 222.421637 
L 298.224968 226.875735 
L 299.723037 230.654256 
L 301.221107 233.723594 
L 302.21982 235.362081 
L 303.218533 236.666628 
L 304.217246 237.632078 
L 305.215959 238.254613 
L 306.214672 238.53177 
L 307.213385 238.462453 
L 308.212098 238.046937 
L 309.210811 237.286865 
L 310.209524 236.185242 
L 311.208237 234.746425 
L 312.20695 232.976103 
L 313.705019 229.714716 
L 315.203089 225.752501 
L 316.701158 221.124699 
L 318.199228 215.872469 
L 320.196654 207.979649 
L 322.19408 199.185093 
L 324.690862 187.136732 
L 327.687001 171.526855 
L 333.679279 138.692295 
L 337.674131 117.475835 
L 340.170914 105.204474 
L 342.667696 94.060922 
L 344.665122 86.143975 
L 346.662548 79.250557 
L 348.160618 74.818373 
L 349.658687 71.062984 
L 351.156757 68.017791 
L 352.15547 66.395858 
L 353.154183 65.108154 
L 354.152896 64.15977 
L 355.151609 63.554458 
L 356.150322 63.29461 
L 357.149035 63.381254 
L 358.147748 63.814048 
L 359.146461 64.591281 
L 360.145174 65.709878 
L 361.143887 67.165416 
L 362.1426 68.95214 
L 363.640669 72.237392 
L 365.138739 76.222394 
L 366.636808 80.871705 
L 368.134878 86.143975 
L 370.132304 94.060922 
L 372.12973 102.876295 
L 374.626512 114.945529 
L 377.622651 130.57224 
L 389.107851 192.080539 
L 391.604633 203.686711 
L 393.602059 212.046929 
L 395.599485 219.441141 
L 397.097555 224.281941 
L 398.595624 228.470232 
L 400.093694 231.968766 
L 401.591763 234.746425 
L 402.590476 236.185242 
L 403.589189 237.286865 
L 404.587902 238.046937 
L 405.586615 238.462453 
L 406.585328 238.53177 
L 407.584041 238.254613 
L 408.582754 237.632078 
L 409.581467 236.666628 
L 410.58018 235.362081 
L 411.578893 233.723594 
L 412.577606 231.757647 
L 414.075676 228.212092 
L 415.573745 223.979075 
L 417.071815 219.096243 
L 419.069241 211.650821 
L 421.066667 203.245652 
L 423.563449 191.593166 
L 426.559588 176.312532 
L 431.053797 151.88008 
L 436.546718 122.112014 
L 439.542857 107.099675 
L 442.03964 95.756389 
L 444.037066 87.649264 
L 446.034492 80.541882 
L 447.532561 75.935635 
L 449.030631 71.996248 
L 450.5287 68.758756 
L 451.527413 67.004854 
L 452.526126 65.582772 
L 453.524839 64.498135 
L 454.523552 63.75523 
L 455.522265 63.356997 
L 456.520978 63.305009 
L 457.519691 63.599472 
L 458.518404 64.239222 
L 459.517117 65.221728 
L 460.51583 66.543107 
L 461.514543 68.198132 
L 462.513256 70.180258 
L 464.011326 73.749271 
L 465.509395 78.004588 
L 467.007465 82.908364 
L 469.004891 90.37928 
L 471.002317 98.8068 
L 473.499099 110.482271 
L 476.495238 125.782491 
L 480.989447 150.226632 
L 486.482368 179.979257 
L 489.478507 194.969912 
L 491.97529 206.288621 
L 493.972716 214.372252 
L 495.970142 221.453132 
L 497.468211 226.037778 
L 498.966281 229.9543 
L 500.46435 233.167864 
L 501.463063 234.905329 
L 502.461776 236.31066 
L 503.460489 237.378302 
L 504.459202 238.104031 
L 505.457915 238.484979 
L 506.456628 238.519638 
L 507.455341 238.207871 
L 508.454054 237.550912 
L 509.452767 236.551358 
L 510.45148 235.213163 
L 511.450193 233.541616 
L 512.448906 231.54333 
L 513.946976 227.950894 
L 515.445045 223.673319 
L 516.943115 218.748648 
L 518.940541 211.252311 
L 520.937967 202.802524 
L 523.434749 191.104184 
L 526.430888 175.784529 
L 530.925097 151.32894 
L 536.418018 121.592052 
L 539.414157 106.623228 
L 541.91094 95.329208 
L 543.908366 87.26915 
L 545.905792 80.214843 
L 547.403861 75.651843 
L 548.901931 71.758226 
L 550.4 68.568621 
L 551.398713 66.847611 
L 552.397426 65.459042 
L 553.396139 64.408407 
L 554.394852 63.69986 
L 555.393565 63.336203 
L 556.392278 63.318873 
L 557.390991 63.64794 
L 558.389704 64.322102 
L 559.388417 65.338693 
L 560.38713 66.693693 
L 561.385843 68.381744 
L 562.883912 71.523335 
L 564.381982 75.371027 
L 565.880051 79.8906 
L 567.378121 85.041858 
L 569.375547 92.812878 
L 571.372973 101.502044 
L 573.869755 113.44426 
L 576.865894 128.967654 
L 582.358816 159.033497 
L 586.853024 183.077599 
L 589.849163 197.796556 
L 592.345946 208.811685 
L 594.343372 216.60722 
L 596.340798 223.364685 
L 597.838867 227.686649 
L 599.336937 231.325824 
L 600.835006 234.249843 
L 601.833719 235.788769 
L 602.832432 236.992069 
L 603.831145 237.854983 
L 604.829858 238.374101 
L 605.828571 238.547368 
L 605.828571 238.547368 
" clip-path="url(#p5d9bea8246)" style="fill: none; stroke: #0000ff; stroke-width: 2.5; stroke-linecap: square"/>
   </g>
   <g id="text_3">
    <!-- $\cdots$ -->
    <g style="fill: #0000ff" transform="translate(57.085714 126.672138) scale(0.18 -0.18)">
     <defs>
      <path id="DejaVuSans-22ef" d="M 740 2363 
L 1400 2363 
L 1400 1569 
L 740 1569 
L 740 2363 
z
M 2868 2363 
L 3528 2363 
L 3528 1569 
L 2868 1569 
L 2868 2363 
z
M 4996 2363 
L 5656 2363 
L 5656 1569 
L 4996 1569 
L 4996 2363 
z
" transform="scale(0.015625)"/>
     </defs>
     <use xlink:href="#DejaVuSans-22ef" transform="translate(0 0.078125)"/>
    </g>
   </g>
   <g id="text_4">
    <!-- $\cdots$ -->
    <g style="fill: #0000ff" transform="translate(637.714286 126.672138) scale(0.18 -0.18)">
     <use xlink:href="#DejaVuSans-22ef" transform="translate(0 0.078125)"/>
    </g>
   </g>
   <g id="text_5">
    <g id="patch_9">
     <path d="M 145.017143 176.000573 
L 168.697143 176.000573 
Q 170.297143 176.000573 170.297143 174.400573 
L 170.297143 158.915573 
Q 170.297143 157.315573 168.697143 157.315573 
L 145.017143 157.315573 
Q 143.417143 157.315573 143.417143 158.915573 
L 143.417143 174.400573 
Q 143.417143 176.000573 145.017143 176.000573 
z
" style="fill: #ffffff; opacity: 0.7"/>
    </g>
    <!-- $-2$ -->
    <g transform="translate(145.017143 171.073073) scale(0.16 -0.16)">
     <defs>
      <path id="DejaVuSans-2212" d="M 678 2272 
L 4684 2272 
L 4684 1741 
L 678 1741 
L 678 2272 
z
" transform="scale(0.015625)"/>
      <path id="DejaVuSans-32" d="M 1228 531 
L 3431 531 
L 3431 0 
L 469 0 
L 469 531 
Q 828 903 1448 1529 
Q 2069 2156 2228 2338 
Q 2531 2678 2651 2914 
Q 2772 3150 2772 3378 
Q 2772 3750 2511 3984 
Q 2250 4219 1831 4219 
Q 1534 4219 1204 4116 
Q 875 4013 500 3803 
L 500 4441 
Q 881 4594 1212 4672 
Q 1544 4750 1819 4750 
Q 2544 4750 2975 4387 
Q 3406 4025 3406 3419 
Q 3406 3131 3298 2873 
Q 3191 2616 2906 2266 
Q 2828 2175 2409 1742 
Q 1991 1309 1228 531 
z
" transform="scale(0.015625)"/>
     </defs>
     <use xlink:href="#DejaVuSans-2212" transform="translate(0 0.78125)"/>
     <use xlink:href="#DejaVuSans-32" transform="translate(83.789062 0.78125)"/>
    </g>
   </g>
   <g id="text_6">
    <g id="patch_10">
     <path d="M 244.788571 176.000573 
L 268.468571 176.000573 
Q 270.068571 176.000573 270.068571 174.400573 
L 270.068571 158.915573 
Q 270.068571 157.315573 268.468571 157.315573 
L 244.788571 157.315573 
Q 243.188571 157.315573 243.188571 158.915573 
L 243.188571 174.400573 
Q 243.188571 176.000573 244.788571 176.000573 
z
" style="fill: #ffffff; opacity: 0.7"/>
    </g>
    <!-- $-1$ -->
    <g transform="translate(244.788571 171.073073) scale(0.16 -0.16)">
     <defs>
      <path id="DejaVuSans-31" d="M 794 531 
L 1825 531 
L 1825 4091 
L 703 3866 
L 703 4441 
L 1819 4666 
L 2450 4666 
L 2450 531 
L 3481 531 
L 3481 0 
L 794 0 
L 794 531 
z
" transform="scale(0.015625)"/>
     </defs>
     <use xlink:href="#DejaVuSans-2212" transform="translate(0 0.09375)"/>
     <use xlink:href="#DejaVuSans-31" transform="translate(83.789062 0.09375)"/>
    </g>
   </g>
   <g id="text_7">
    <g id="patch_11">
     <path d="M 343.28 176.000573 
L 353.52 176.000573 
Q 355.12 176.000573 355.12 174.400573 
L 355.12 158.915573 
Q 355.12 157.315573 353.52 157.315573 
L 343.28 157.315573 
Q 341.68 157.315573 341.68 158.915573 
L 341.68 174.400573 
Q 341.68 176.000573 343.28 176.000573 
z
" style="fill: #ffffff; opacity: 0.7"/>
    </g>
    <!-- $0$ -->
    <g transform="translate(343.28 171.073073) scale(0.16 -0.16)">
     <defs>
      <path id="DejaVuSans-30" d="M 2034 4250 
Q 1547 4250 1301 3770 
Q 1056 3291 1056 2328 
Q 1056 1369 1301 889 
Q 1547 409 2034 409 
Q 2525 409 2770 889 
Q 3016 1369 3016 2328 
Q 3016 3291 2770 3770 
Q 2525 4250 2034 4250 
z
M 2034 4750 
Q 2819 4750 3233 4129 
Q 3647 3509 3647 2328 
Q 3647 1150 3233 529 
Q 2819 -91 2034 -91 
Q 1250 -91 836 529 
Q 422 1150 422 2328 
Q 422 3509 836 4129 
Q 1250 4750 2034 4750 
z
" transform="scale(0.015625)"/>
     </defs>
     <use xlink:href="#DejaVuSans-30" transform="translate(0 0.78125)"/>
    </g>
   </g>
   <g id="text_8">
    <g id="patch_12">
     <path d="M 451.051429 176.000573 
L 461.291429 176.000573 
Q 462.891429 176.000573 462.891429 174.400573 
L 462.891429 158.915573 
Q 462.891429 157.315573 461.291429 157.315573 
L 451.051429 157.315573 
Q 449.451429 157.315573 449.451429 158.915573 
L 449.451429 174.400573 
Q 449.451429 176.000573 451.051429 176.000573 
z
" style="fill: #ffffff; opacity: 0.7"/>
    </g>
    <!-- $1$ -->
    <g transform="translate(451.051429 171.073073) scale(0.16 -0.16)">
     <use xlink:href="#DejaVuSans-31" transform="translate(0 0.09375)"/>
    </g>
   </g>
   <g id="text_9">
    <g id="patch_13">
     <path d="M 550.822857 176.000573 
L 561.062857 176.000573 
Q 562.662857 176.000573 562.662857 174.400573 
L 562.662857 158.915573 
Q 562.662857 157.315573 561.062857 157.315573 
L 550.822857 157.315573 
Q 549.222857 157.315573 549.222857 158.915573 
L 549.222857 174.400573 
Q 549.222857 176.000573 550.822857 176.000573 
z
" style="fill: #ffffff; opacity: 0.7"/>
    </g>
    <!-- $2$ -->
    <g transform="translate(550.822857 171.073073) scale(0.16 -0.16)">
     <use xlink:href="#DejaVuSans-32" transform="translate(0 0.78125)"/>
    </g>
   </g>
   <g id="text_10">
    <g id="patch_14">
     <path d="M 328.72 247.889868 
L 352.4 247.889868 
Q 354 247.889868 354 246.289868 
L 354 230.804868 
Q 354 229.204868 352.4 229.204868 
L 328.72 229.204868 
Q 327.12 229.204868 327.12 230.804868 
L 327.12 246.289868 
Q 327.12 247.889868 328.72 247.889868 
z
" style="fill: #ffffff; opacity: 0.7"/>
    </g>
    <!-- $-1$ -->
    <g transform="translate(328.72 242.962368) scale(0.16 -0.16)">
     <use xlink:href="#DejaVuSans-2212" transform="translate(0 0.09375)"/>
     <use xlink:href="#DejaVuSans-31" transform="translate(83.789062 0.09375)"/>
    </g>
   </g>
   <g id="text_11">
    <g id="patch_15">
     <path d="M 342.16 72.626277 
L 352.4 72.626277 
Q 354 72.626277 354 71.026277 
L 354 55.541277 
Q 354 53.941277 352.4 53.941277 
L 342.16 53.941277 
Q 340.56 53.941277 340.56 55.541277 
L 340.56 71.026277 
Q 340.56 72.626277 342.16 72.626277 
z
" style="fill: #ffffff; opacity: 0.7"/>
    </g>
    <!-- $1$ -->
    <g transform="translate(342.16 67.698777) scale(0.16 -0.16)">
     <use xlink:href="#DejaVuSans-31" transform="translate(0 0.09375)"/>
    </g>
   </g>
  </g>
 </g>
 <defs>
  <clipPath id="p5d9bea8246">
   <rect x="7.2" y="7.2" width="698.4" height="266.4"/>
  </clipPath>
 </defs>
</svg>
