<?xml version="1.0" encoding="utf-8" standalone="no"?>
<!DOCTYPE svg PUBLIC "-//W3C//DTD SVG 1.1//EN"
  "http://www.w3.org/Graphics/SVG/1.1/DTD/svg11.dtd">
<svg xmlns:xlink="http://www.w3.org/1999/xlink" width="568.8pt" height="208.8pt" viewBox="0 0 568.8 208.8" xmlns="http://www.w3.org/2000/svg" version="1.1">
 <metadata>
  <rdf:RDF xmlns:dc="http://purl.org/dc/elements/1.1/" xmlns:cc="http://creativecommons.org/ns#" xmlns:rdf="http://www.w3.org/1999/02/22-rdf-syntax-ns#">
   <cc:Work>
    <dc:type rdf:resource="http://purl.org/dc/dcmitype/StillImage"/>
    <dc:date>2026-02-01T02:02:07.109517</dc:date>
    <dc:format>image/svg+xml</dc:format>
    <dc:creator>
     <cc:Agent>
      <dc:title>Matplotlib v3.10.8, https://matplotlib.org/</dc:title>
     </cc:Agent>
    </dc:creator>
   </cc:Work>
  </rdf:RDF>
 </metadata>
 <defs>
  <style type="text/css">*{stroke-linejoin: round; stroke-linecap: butt}</style>
 </defs>
 <g id="figure_1">
  <g id="patch_1">
   <path d="M 0 208.8 
L 568.8 208.8 
L 568.8 0 
L 0 0 
z
" style="fill: #ffffff"/>
  </g>
  <g id="axes_1">
   <g id="patch_2">
    <path d="M 7.2 201.6 
L 561.6 201.6 
L 561.6 7.2 
L 7.2 7.2 
z
" style="fill: #ffffff"/>
   </g>
   <g id="matplotlib.axis_1"/>
   <g id="matplotlib.axis_2"/>
   <g id="LineCollection_1">
    <path d="M 86.4 156.505875 
L 86.4 152.60284 
" clip-path="url(#p277fae8ad2)" style="fill: none; stroke: #0000ff; stroke-width: 3"/>
    <path d="M 106.2 156.505875 
L 106.2 162.172055 
" clip-path="url(#p277fae8ad2)" style="fill: none; stroke: #0000ff; stroke-width: 3"/>
    <path d="M 126 156.505875 
L 126 156.505875 
" clip-path="url(#p277fae8ad2)" style="fill: none; stroke: #0000ff; stroke-width: 3"/>
    <path d="M 145.8 156.505875 
L 145.8 149.220788 
" clip-path="url(#p277fae8ad2)" style="fill: none; stroke: #0000ff; stroke-width: 3"/>
    <path d="M 165.6 156.505875 
L 165.6 163.010935 
" clip-path="url(#p277fae8ad2)" style="fill: none; stroke: #0000ff; stroke-width: 3"/>
    <path d="M 185.4 156.505875 
L 185.4 160.730491 
" clip-path="url(#p277fae8ad2)" style="fill: none; stroke: #0000ff; stroke-width: 3"/>
    <path d="M 205.2 156.505875 
L 205.2 142.706561 
" clip-path="url(#p277fae8ad2)" style="fill: none; stroke: #0000ff; stroke-width: 3"/>
    <path d="M 225 156.505875 
L 225 163.546901 
" clip-path="url(#p277fae8ad2)" style="fill: none; stroke: #0000ff; stroke-width: 3"/>
    <path d="M 244.8 156.505875 
L 244.8 176.021053 
" clip-path="url(#p277fae8ad2)" style="fill: none; stroke: #0000ff; stroke-width: 3"/>
    <path d="M 264.6 156.505875 
L 264.6 105.51026 
" clip-path="url(#p277fae8ad2)" style="fill: none; stroke: #0000ff; stroke-width: 3"/>
    <path d="M 284.4 156.505875 
L 284.4 48.126316 
" clip-path="url(#p277fae8ad2)" style="fill: none; stroke: #0000ff; stroke-width: 3"/>
    <path d="M 304.2 156.505875 
L 304.2 105.51026 
" clip-path="url(#p277fae8ad2)" style="fill: none; stroke: #0000ff; stroke-width: 3"/>
    <path d="M 324 156.505875 
L 324 176.021053 
" clip-path="url(#p277fae8ad2)" style="fill: none; stroke: #0000ff; stroke-width: 3"/>
    <path d="M 343.8 156.505875 
L 343.8 163.546901 
" clip-path="url(#p277fae8ad2)" style="fill: none; stroke: #0000ff; stroke-width: 3"/>
    <path d="M 363.6 156.505875 
L 363.6 142.706561 
" clip-path="url(#p277fae8ad2)" style="fill: none; stroke: #0000ff; stroke-width: 3"/>
    <path d="M 383.4 156.505875 
L 383.4 160.730491 
" clip-path="url(#p277fae8ad2)" style="fill: none; stroke: #0000ff; stroke-width: 3"/>
    <path d="M 403.2 156.505875 
L 403.2 163.010935 
" clip-path="url(#p277fae8ad2)" style="fill: none; stroke: #0000ff; stroke-width: 3"/>
    <path d="M 423 156.505875 
L 423 149.220788 
" clip-path="url(#p277fae8ad2)" style="fill: none; stroke: #0000ff; stroke-width: 3"/>
    <path d="M 442.8 156.505875 
L 442.8 156.505875 
" clip-path="url(#p277fae8ad2)" style="fill: none; stroke: #0000ff; stroke-width: 3"/>
    <path d="M 462.6 156.505875 
L 462.6 162.172055 
" clip-path="url(#p277fae8ad2)" style="fill: none; stroke: #0000ff; stroke-width: 3"/>
    <path d="M 482.4 156.505875 
L 482.4 152.60284 
" clip-path="url(#p277fae8ad2)" style="fill: none; stroke: #0000ff; stroke-width: 3"/>
   </g>
   <g id="line2d_1">
    <defs>
     <path id="mae0b0535cb" d="M 0 3 
C 0.795609 3 1.55874 2.683901 2.12132 2.12132 
C 2.683901 1.55874 3 0.795609 3 0 
C 3 -0.795609 2.683901 -1.55874 2.12132 -2.12132 
C 1.55874 -2.683901 0.795609 -3 0 -3 
C -0.795609 -3 -1.55874 -2.683901 -2.12132 -2.12132 
C -2.683901 -1.55874 -3 -0.795609 -3 0 
C -3 0.795609 -2.683901 1.55874 -2.12132 2.12132 
C -1.55874 2.683901 -0.795609 3 0 3 
z
" style="stroke: #0000ff"/>
    </defs>
    <g clip-path="url(#p277fae8ad2)">
     <use xlink:href="#mae0b0535cb" x="86.4" y="152.60284" style="fill: #0000ff; stroke: #0000ff"/>
     <use xlink:href="#mae0b0535cb" x="106.2" y="162.172055" style="fill: #0000ff; stroke: #0000ff"/>
     <use xlink:href="#mae0b0535cb" x="126" y="156.505875" style="fill: #0000ff; stroke: #0000ff"/>
     <use xlink:href="#mae0b0535cb" x="145.8" y="149.220788" style="fill: #0000ff; stroke: #0000ff"/>
     <use xlink:href="#mae0b0535cb" x="165.6" y="163.010935" style="fill: #0000ff; stroke: #0000ff"/>
     <use xlink:href="#mae0b0535cb" x="185.4" y="160.730491" style="fill: #0000ff; stroke: #0000ff"/>
     <use xlink:href="#mae0b0535cb" x="205.2" y="142.706561" style="fill: #0000ff; stroke: #0000ff"/>
     <use xlink:href="#mae0b0535cb" x="225" y="163.546901" style="fill: #0000ff; stroke: #0000ff"/>
     <use xlink:href="#mae0b0535cb" x="244.8" y="176.021053" style="fill: #0000ff; stroke: #0000ff"/>
     <use xlink:href="#mae0b0535cb" x="264.6" y="105.51026" style="fill: #0000ff; stroke: #0000ff"/>
     <use xlink:href="#mae0b0535cb" x="284.4" y="48.126316" style="fill: #0000ff; stroke: #0000ff"/>
     <use xlink:href="#mae0b0535cb" x="304.2" y="105.51026" style="fill: #0000ff; stroke: #0000ff"/>
     <use xlink:href="#mae0b0535cb" x="324" y="176.021053" style="fill: #0000ff; stroke: #0000ff"/>
     <use xlink:href="#mae0b0535cb" x="343.8" y="163.546901" style="fill: #0000ff; stroke: #0000ff"/>
     <use xlink:href="#mae0b0535cb" x="363.6" y="142.706561" style="fill: #0000ff; stroke: #0000ff"/>
     <use xlink:href="#mae0b0535cb" x="383.4" y="160.730491" style="fill: #0000ff; stroke: #0000ff"/>
     <use xlink:href="#mae0b0535cb" x="403.2" y="163.010935" style="fill: #0000ff; stroke: #0000ff"/>
     <use xlink:href="#mae0b0535cb" x="423" y="149.220788" style="fill: #0000ff; stroke: #0000ff"/>
     <use xlink:href="#mae0b0535cb" x="442.8" y="156.505875" style="fill: #0000ff; stroke: #0000ff"/>
     <use xlink:href="#mae0b0535cb" x="462.6" y="162.172055" style="fill: #0000ff; stroke: #0000ff"/>
     <use xlink:href="#mae0b0535cb" x="482.4" y="152.60284" style="fill: #0000ff; stroke: #0000ff"/>
    </g>
   </g>
   <g id="line2d_2">
    <path d="M 86.4 156.505875 
L 482.4 156.505875 
" clip-path="url(#p277fae8ad2)" style="fill: none; stroke: #000000; stroke-width: 1.5; stroke-linecap: square"/>
   </g>
   <g id="line2d_3">
    <path d="M 282.494263 156.505875 
L 286.305737 156.505875 
" style="fill: none; stroke: #000000; stroke-width: 1.2; stroke-linecap: square"/>
   </g>
   <g id="line2d_4">
    <path d="M 282.494263 48.126316 
L 286.305737 48.126316 
" style="fill: none; stroke: #000000; stroke-width: 1.2; stroke-linecap: square"/>
   </g>
   <g id="patch_3">
    <path d="M 7.2 201.6 
L 7.2 7.2 
" style="fill: none"/>
   </g>
   <g id="patch_4">
    <path d="M 561.6 201.6 
L 561.6 7.2 
" style="fill: none"/>
   </g>
   <g id="patch_5">
    <path d="M 7.2 201.6 
L 561.6 201.6 
" style="fill: none"/>
   </g>
   <g id="patch_6">
    <path d="M 7.2 7.2 
L 561.6 7.2 
" style="fill: none"/>
   </g>
   <g id="patch_7">
    <path d="M 9.200665 156.505875 
Q 284.399395 156.505875 557.921075 156.505875 
" style="fill: none; stroke: #000000; stroke-width: 1.5; stroke-linecap: round"/>
    <path d="M 551.521075 153.945875 
L 557.921075 156.505875 
L 551.521075 159.065875 
z
" style="stroke: #000000; stroke-width: 1.5; stroke-linecap: round"/>
   </g>
   <g id="patch_8">
    <path d="M 284.4 199.597742 
Q 284.4 104.398496 284.4 12.553352 
" style="fill: none; stroke: #000000; stroke-width: 1.5; stroke-linecap: round"/>
    <path d="M 282 22.153352 
L 284.4 12.553352 
L 286.8 22.153352 
z
" style="stroke: #000000; stroke-width: 1.5; stroke-linecap: round"/>
   </g>
   <g id="text_1">
    <!-- $k$ -->
    <g transform="translate(546.776 149.290375) scale(0.16 -0.16)">
     <defs>
      <path id="DejaVuSans-Oblique-6b" d="M 1172 4863 
L 1747 4863 
L 1197 2028 
L 3169 3500 
L 3916 3500 
L 1716 1825 
L 3322 0 
L 2625 0 
L 1131 1709 
L 800 0 
L 225 0 
L 1172 4863 
z
" transform="scale(0.015625)"/>
     </defs>
     <use xlink:href="#DejaVuSans-Oblique-6b" transform="translate(0 0.015625)"/>
    </g>
   </g>
   <g id="text_2">
    <!-- $c_k$ -->
    <g transform="translate(289.944 23.3125) scale(0.16 -0.16)">
     <defs>
      <path id="DejaVuSans-Oblique-63" d="M 3431 3366 
L 3316 2797 
Q 3109 2947 2876 3022 
Q 2644 3097 2394 3097 
Q 2119 3097 1870 3000 
Q 1622 2903 1453 2725 
Q 1184 2453 1037 2087 
Q 891 1722 891 1331 
Q 891 859 1127 628 
Q 1363 397 1844 397 
Q 2081 397 2348 469 
Q 2616 541 2906 684 
L 2797 116 
Q 2547 13 2283 -39 
Q 2019 -91 1741 -91 
Q 1044 -91 669 257 
Q 294 606 294 1253 
Q 294 1797 489 2255 
Q 684 2713 1069 3078 
Q 1331 3328 1684 3456 
Q 2038 3584 2456 3584 
Q 2700 3584 2940 3529 
Q 3181 3475 3431 3366 
z
" transform="scale(0.015625)"/>
     </defs>
     <use xlink:href="#DejaVuSans-Oblique-63"/>
     <use xlink:href="#DejaVuSans-Oblique-6b" transform="translate(54.980469 -16.40625) scale(0.7)"/>
    </g>
   </g>
   <g id="text_3">
    <!-- $\cdots$ -->
    <g style="fill: #0000ff" transform="translate(46.8 106.179221) scale(0.14 -0.14)">
     <defs>
      <path id="DejaVuSans-22ef" d="M 740 2363 
L 1400 2363 
L 1400 1569 
L 740 1569 
L 740 2363 
z
M 2868 2363 
L 3528 2363 
L 3528 1569 
L 2868 1569 
L 2868 2363 
z
M 4996 2363 
L 5656 2363 
L 5656 1569 
L 4996 1569 
L 4996 2363 
z
" transform="scale(0.015625)"/>
     </defs>
     <use xlink:href="#DejaVuSans-22ef" transform="translate(0 0.078125)"/>
    </g>
   </g>
   <g id="text_4">
    <!-- $\cdots$ -->
    <g style="fill: #0000ff" transform="translate(508 106.179221) scale(0.14 -0.14)">
     <use xlink:href="#DejaVuSans-22ef" transform="translate(0 0.078125)"/>
    </g>
   </g>
   <g id="text_5">
    <g id="patch_9">
     <path d="M 272.72 171.51275 
L 280.4 171.51275 
Q 281.6 171.51275 281.6 170.31275 
L 281.6 158.699 
Q 281.6 157.499 280.4 157.499 
L 272.72 157.499 
Q 271.52 157.499 271.52 158.699 
L 271.52 170.31275 
Q 271.52 171.51275 272.72 171.51275 
z
" style="fill: #ffffff; opacity: 0.5"/>
    </g>
    <!-- $0$ -->
    <g transform="translate(272.72 167.817125) scale(0.12 -0.12)">
     <defs>
      <path id="DejaVuSans-30" d="M 2034 4250 
Q 1547 4250 1301 3770 
Q 1056 3291 1056 2328 
Q 1056 1369 1301 889 
Q 1547 409 2034 409 
Q 2525 409 2770 889 
Q 3016 1369 3016 2328 
Q 3016 3291 2770 3770 
Q 2525 4250 2034 4250 
z
M 2034 4750 
Q 2819 4750 3233 4129 
Q 3647 3509 3647 2328 
Q 3647 1150 3233 529 
Q 2819 -91 2034 -91 
Q 1250 -91 836 529 
Q 422 1150 422 2328 
Q 422 3509 836 4129 
Q 1250 4750 2034 4750 
z
" transform="scale(0.015625)"/>
     </defs>
     <use xlink:href="#DejaVuSans-30" transform="translate(0 0.78125)"/>
    </g>
   </g>
   <g id="text_6">
    <g id="patch_10">
     <path d="M 264.44 58.866316 
L 280.4 58.866316 
Q 281.6 58.866316 281.6 57.666316 
L 281.6 38.586316 
Q 281.6 37.386316 280.4 37.386316 
L 264.44 37.386316 
Q 263.24 37.386316 263.24 38.586316 
L 263.24 57.666316 
Q 263.24 58.866316 264.44 58.866316 
z
" style="fill: #ffffff; opacity: 0.5"/>
    </g>
    <!-- $\frac{2T_1}{T_0}$ -->
    <g transform="translate(264.44 51.546316) scale(0.12 -0.12)">
     <defs>
      <path id="DejaVuSans-32" d="M 1228 531 
L 3431 531 
L 3431 0 
L 469 0 
L 469 531 
Q 828 903 1448 1529 
Q 2069 2156 2228 2338 
Q 2531 2678 2651 2914 
Q 2772 3150 2772 3378 
Q 2772 3750 2511 3984 
Q 2250 4219 1831 4219 
Q 1534 4219 1204 4116 
Q 875 4013 500 3803 
L 500 4441 
Q 881 4594 1212 4672 
Q 1544 4750 1819 4750 
Q 2544 4750 2975 4387 
Q 3406 4025 3406 3419 
Q 3406 3131 3298 2873 
Q 3191 2616 2906 2266 
Q 2828 2175 2409 1742 
Q 1991 1309 1228 531 
z
" transform="scale(0.015625)"/>
      <path id="DejaVuSans-Oblique-54" d="M 378 4666 
L 4325 4666 
L 4225 4134 
L 2559 4134 
L 1759 0 
L 1125 0 
L 1925 4134 
L 275 4134 
L 378 4666 
z
" transform="scale(0.015625)"/>
      <path id="DejaVuSans-31" d="M 794 531 
L 1825 531 
L 1825 4091 
L 703 3866 
L 703 4441 
L 1819 4666 
L 2450 4666 
L 2450 531 
L 3481 531 
L 3481 0 
L 794 0 
L 794 531 
z
" transform="scale(0.015625)"/>
     </defs>
     <use xlink:href="#DejaVuSans-32" transform="translate(0 56.046875) scale(0.7)"/>
     <use xlink:href="#DejaVuSans-Oblique-54" transform="translate(44.536133 56.046875) scale(0.7)"/>
     <use xlink:href="#DejaVuSans-31" transform="translate(87.294922 44.5625) scale(0.49)"/>
     <use xlink:href="#DejaVuSans-Oblique-54" transform="translate(22 -37.721875) scale(0.7)"/>
     <use xlink:href="#DejaVuSans-30" transform="translate(64.758789 -49.20625) scale(0.49)"/>
     <path d="M 0 19.5625 
L 0 25.8125 
L 120.384277 25.8125 
L 120.384277 19.5625 
L 0 19.5625 
z
"/>
    </g>
   </g>
   <g id="text_7">
    <g id="patch_11">
     <path d="M 255.72 177.319625 
L 273.48 177.319625 
Q 274.68 177.319625 274.68 176.119625 
L 274.68 164.505875 
Q 274.68 163.305875 273.48 163.305875 
L 255.72 163.305875 
Q 254.52 163.305875 254.52 164.505875 
L 254.52 176.119625 
Q 254.52 177.319625 255.72 177.319625 
z
" style="fill: #ffffff; opacity: 0.5"/>
    </g>
    <!-- $-1$ -->
    <g transform="translate(255.72 173.624) scale(0.12 -0.12)">
     <defs>
      <path id="DejaVuSans-2212" d="M 678 2272 
L 4684 2272 
L 4684 1741 
L 678 1741 
L 678 2272 
z
" transform="scale(0.015625)"/>
     </defs>
     <use xlink:href="#DejaVuSans-2212" transform="translate(0 0.09375)"/>
     <use xlink:href="#DejaVuSans-31" transform="translate(83.789062 0.09375)"/>
    </g>
   </g>
   <g id="text_8">
    <g id="patch_12">
     <path d="M 300.36 177.319625 
L 308.04 177.319625 
Q 309.24 177.319625 309.24 176.119625 
L 309.24 164.505875 
Q 309.24 163.305875 308.04 163.305875 
L 300.36 163.305875 
Q 299.16 163.305875 299.16 164.505875 
L 299.16 176.119625 
Q 299.16 177.319625 300.36 177.319625 
z
" style="fill: #ffffff; opacity: 0.5"/>
    </g>
    <!-- $1$ -->
    <g transform="translate(300.36 173.624) scale(0.12 -0.12)">
     <use xlink:href="#DejaVuSans-31" transform="translate(0 0.09375)"/>
    </g>
   </g>
  </g>
 </g>
 <defs>
  <clipPath id="p277fae8ad2">
   <rect x="7.2" y="7.2" width="554.4" height="194.4"/>
  </clipPath>
 </defs>
</svg>
