<?xml version="1.0" encoding="utf-8" standalone="no"?>
<!DOCTYPE svg PUBLIC "-//W3C//DTD SVG 1.1//EN"
  "http://www.w3.org/Graphics/SVG/1.1/DTD/svg11.dtd">
<svg xmlns:xlink="http://www.w3.org/1999/xlink" width="712.8pt" height="206.354875pt" viewBox="0 0 712.8 206.354875" xmlns="http://www.w3.org/2000/svg" version="1.1">
 <metadata>
  <rdf:RDF xmlns:dc="http://purl.org/dc/elements/1.1/" xmlns:cc="http://creativecommons.org/ns#" xmlns:rdf="http://www.w3.org/1999/02/22-rdf-syntax-ns#">
   <cc:Work>
    <dc:type rdf:resource="http://purl.org/dc/dcmitype/StillImage"/>
    <dc:date>2026-02-01T00:37:43.365000</dc:date>
    <dc:format>image/svg+xml</dc:format>
    <dc:creator>
     <cc:Agent>
      <dc:title>Matplotlib v3.10.8, https://matplotlib.org/</dc:title>
     </cc:Agent>
    </dc:creator>
   </cc:Work>
  </rdf:RDF>
 </metadata>
 <defs>
  <style type="text/css">*{stroke-linejoin: round; stroke-linecap: butt}</style>
 </defs>
 <g id="figure_1">
  <g id="patch_1">
   <path d="M 0 206.354875 
L 712.8 206.354875 
L 712.8 0 
L 0 0 
z
" style="fill: #ffffff"/>
  </g>
  <g id="axes_1">
   <g id="patch_2">
    <path d="M 7.2 199.154875 
L 705.6 199.154875 
L 705.6 7.378625 
L 7.2 7.378625 
z
" style="fill: #ffffff"/>
   </g>
   <g id="matplotlib.axis_1"/>
   <g id="matplotlib.axis_2"/>
   <g id="line2d_1">
    <path d="M 129.646753 112.612571 
L 129.646753 109.061159 
" style="fill: none; stroke: #000000; stroke-width: 1.2; stroke-linecap: square"/>
   </g>
   <g id="line2d_2">
    <path d="M 243.023377 112.612571 
L 243.023377 109.061159 
" style="fill: none; stroke: #000000; stroke-width: 1.2; stroke-linecap: square"/>
   </g>
   <g id="line2d_3">
    <path d="M 299.711688 112.612571 
L 299.711688 109.061159 
" style="fill: none; stroke: #000000; stroke-width: 1.2; stroke-linecap: square"/>
   </g>
   <g id="line2d_4">
    <path d="M 356.4 112.612571 
L 356.4 109.061159 
" style="fill: none; stroke: #000000; stroke-width: 1.2; stroke-linecap: square"/>
   </g>
   <g id="line2d_5">
    <path d="M 413.088312 112.612571 
L 413.088312 109.061159 
" style="fill: none; stroke: #000000; stroke-width: 1.2; stroke-linecap: square"/>
   </g>
   <g id="line2d_6">
    <path d="M 469.776623 112.612571 
L 469.776623 109.061159 
" style="fill: none; stroke: #000000; stroke-width: 1.2; stroke-linecap: square"/>
   </g>
   <g id="line2d_7">
    <path d="M 583.153247 112.612571 
L 583.153247 109.061159 
" style="fill: none; stroke: #000000; stroke-width: 1.2; stroke-linecap: square"/>
   </g>
   <g id="line2d_8">
    <path d="M 354.6 173.921158 
L 358.2 173.921158 
" style="fill: none; stroke: #000000; stroke-width: 1.2; stroke-linecap: square"/>
   </g>
   <g id="line2d_9">
    <path d="M 354.6 47.752572 
L 358.2 47.752572 
" style="fill: none; stroke: #000000; stroke-width: 1.2; stroke-linecap: square"/>
   </g>
   <g id="patch_3">
    <path d="M 7.2 199.154875 
L 7.2 7.378625 
" style="fill: none"/>
   </g>
   <g id="patch_4">
    <path d="M 705.6 199.154875 
L 705.6 7.378625 
" style="fill: none"/>
   </g>
   <g id="patch_5">
    <path d="M 7.2 199.154875 
L 705.6 199.154875 
" style="fill: none"/>
   </g>
   <g id="patch_6">
    <path d="M 7.2 7.378625 
L 705.6 7.378625 
" style="fill: none"/>
   </g>
   <g id="patch_7">
    <path d="M 9.200803 110.836865 
Q 356.400209 110.836865 701.922565 110.836865 
" style="fill: none; stroke: #000000; stroke-width: 1.5; stroke-linecap: round"/>
    <path d="M 695.522565 108.276865 
L 701.922565 110.836865 
L 695.522565 113.396865 
z
" style="stroke: #000000; stroke-width: 1.5; stroke-linecap: round"/>
   </g>
   <g id="patch_8">
    <path d="M 356.4 197.15623 
Q 356.4 103.267918 356.4 12.733708 
" style="fill: none; stroke: #000000; stroke-width: 1.5; stroke-linecap: round"/>
    <path d="M 354 22.333708 
L 356.4 12.733708 
L 358.8 22.333708 
z
" style="stroke: #000000; stroke-width: 1.5; stroke-linecap: round"/>
   </g>
   <g id="text_1">
    <!-- $t$ -->
    <g transform="translate(690.616 102.841965) scale(0.2 -0.2)">
     <defs>
      <path id="DejaVuSans-Oblique-74" d="M 2706 3500 
L 2619 3053 
L 1472 3053 
L 1100 1153 
Q 1081 1047 1072 975 
Q 1063 903 1063 863 
Q 1063 663 1183 572 
Q 1303 481 1569 481 
L 2150 481 
L 2053 0 
L 1503 0 
Q 991 0 739 200 
Q 488 400 488 806 
Q 488 878 497 964 
Q 506 1050 525 1153 
L 897 3053 
L 409 3053 
L 500 3500 
L 978 3500 
L 1172 4494 
L 1747 4494 
L 1556 3500 
L 2706 3500 
z
" transform="scale(0.015625)"/>
     </defs>
     <use xlink:href="#DejaVuSans-Oblique-74" transform="translate(0 0.78125)"/>
    </g>
   </g>
   <g id="text_2">
    <!-- $\tilde{x}(t)$ -->
    <g transform="translate(363.384 22.396875) scale(0.2 -0.2)">
     <defs>
      <path id="DejaVuSans-303" d="M -1621 4281 
L -1799 4453 
Q -1867 4516 -1919 4545 
Q -1971 4575 -2011 4575 
Q -2130 4575 -2186 4461 
Q -2242 4347 -2249 4091 
L -2639 4091 
Q -2633 4513 -2473 4742 
Q -2314 4972 -2030 4972 
Q -1911 4972 -1811 4928 
Q -1711 4884 -1596 4781 
L -1417 4609 
Q -1349 4547 -1297 4517 
Q -1246 4488 -1205 4488 
Q -1086 4488 -1030 4602 
Q -974 4716 -967 4972 
L -577 4972 
Q -583 4550 -742 4320 
Q -902 4091 -1186 4091 
Q -1305 4091 -1405 4134 
Q -1505 4178 -1621 4281 
z
" transform="scale(0.015625)"/>
      <path id="DejaVuSans-Oblique-78" d="M 3841 3500 
L 2234 1784 
L 3219 0 
L 2559 0 
L 1819 1388 
L 531 0 
L -166 0 
L 1556 1844 
L 641 3500 
L 1300 3500 
L 1972 2234 
L 3144 3500 
L 3841 3500 
z
" transform="scale(0.015625)"/>
      <path id="DejaVuSans-28" d="M 1984 4856 
Q 1566 4138 1362 3434 
Q 1159 2731 1159 2009 
Q 1159 1288 1364 580 
Q 1569 -128 1984 -844 
L 1484 -844 
Q 1016 -109 783 600 
Q 550 1309 550 2009 
Q 550 2706 781 3412 
Q 1013 4119 1484 4856 
L 1984 4856 
z
" transform="scale(0.015625)"/>
      <path id="DejaVuSans-29" d="M 513 4856 
L 1013 4856 
Q 1481 4119 1714 3412 
Q 1947 2706 1947 2009 
Q 1947 1309 1714 600 
Q 1481 -109 1013 -844 
L 513 -844 
Q 928 -128 1133 580 
Q 1338 1288 1338 2009 
Q 1338 2731 1133 3434 
Q 928 4138 513 4856 
z
" transform="scale(0.015625)"/>
     </defs>
     <use xlink:href="#DejaVuSans-303" transform="translate(62.029297 3.3125)"/>
     <use xlink:href="#DejaVuSans-Oblique-78" transform="translate(0 0.046875)"/>
     <use xlink:href="#DejaVuSans-28" transform="translate(59.179688 0.046875)"/>
     <use xlink:href="#DejaVuSans-Oblique-74" transform="translate(98.193359 0.046875)"/>
     <use xlink:href="#DejaVuSans-29" transform="translate(137.402344 0.046875)"/>
    </g>
   </g>
   <g id="line2d_10">
    <path d="M 106.971429 47.752572 
L 129.442471 47.752572 
L 129.941828 173.921158 
L 185.869755 173.921158 
L 186.369112 47.752572 
L 242.796396 47.752572 
L 243.295753 173.921158 
L 299.223681 173.921158 
L 299.723037 47.752572 
L 356.150322 47.752572 
L 356.649678 173.921158 
L 413.076963 173.921158 
L 413.576319 47.752572 
L 469.504247 47.752572 
L 470.003604 173.921158 
L 526.430888 173.921158 
L 526.930245 47.752572 
L 582.858172 47.752572 
L 583.357529 173.921158 
L 605.828571 173.921158 
L 605.828571 173.921158 
" clip-path="url(#p9677f912f0)" style="fill: none; stroke: #0000ff; stroke-width: 2.5; stroke-linecap: square"/>
   </g>
   <g id="text_3">
    <!-- $\cdots$ -->
    <g style="fill: #0000ff" transform="translate(57.085714 94.775643) scale(0.18 -0.18)">
     <defs>
      <path id="DejaVuSans-22ef" d="M 740 2363 
L 1400 2363 
L 1400 1569 
L 740 1569 
L 740 2363 
z
M 2868 2363 
L 3528 2363 
L 3528 1569 
L 2868 1569 
L 2868 2363 
z
M 4996 2363 
L 5656 2363 
L 5656 1569 
L 4996 1569 
L 4996 2363 
z
" transform="scale(0.015625)"/>
     </defs>
     <use xlink:href="#DejaVuSans-22ef" transform="translate(0 0.078125)"/>
    </g>
   </g>
   <g id="text_4">
    <!-- $\cdots$ -->
    <g style="fill: #0000ff" transform="translate(637.714286 94.775643) scale(0.18 -0.18)">
     <use xlink:href="#DejaVuSans-22ef" transform="translate(0 0.078125)"/>
    </g>
   </g>
   <g id="text_5">
    <g id="patch_9">
     <path d="M 109.166753 135.921865 
L 150.126753 135.921865 
Q 151.726753 135.921865 151.726753 134.321865 
L 151.726753 118.836865 
Q 151.726753 117.236865 150.126753 117.236865 
L 109.166753 117.236865 
Q 107.566753 117.236865 107.566753 118.836865 
L 107.566753 134.321865 
Q 107.566753 135.921865 109.166753 135.921865 
z
" style="fill: #ffffff; opacity: 0.7"/>
    </g>
    <!-- $-2T_0$ -->
    <g transform="translate(109.166753 130.994365) scale(0.16 -0.16)">
     <defs>
      <path id="DejaVuSans-2212" d="M 678 2272 
L 4684 2272 
L 4684 1741 
L 678 1741 
L 678 2272 
z
" transform="scale(0.015625)"/>
      <path id="DejaVuSans-32" d="M 1228 531 
L 3431 531 
L 3431 0 
L 469 0 
L 469 531 
Q 828 903 1448 1529 
Q 2069 2156 2228 2338 
Q 2531 2678 2651 2914 
Q 2772 3150 2772 3378 
Q 2772 3750 2511 3984 
Q 2250 4219 1831 4219 
Q 1534 4219 1204 4116 
Q 875 4013 500 3803 
L 500 4441 
Q 881 4594 1212 4672 
Q 1544 4750 1819 4750 
Q 2544 4750 2975 4387 
Q 3406 4025 3406 3419 
Q 3406 3131 3298 2873 
Q 3191 2616 2906 2266 
Q 2828 2175 2409 1742 
Q 1991 1309 1228 531 
z
" transform="scale(0.015625)"/>
      <path id="DejaVuSans-Oblique-54" d="M 378 4666 
L 4325 4666 
L 4225 4134 
L 2559 4134 
L 1759 0 
L 1125 0 
L 1925 4134 
L 275 4134 
L 378 4666 
z
" transform="scale(0.015625)"/>
      <path id="DejaVuSans-30" d="M 2034 4250 
Q 1547 4250 1301 3770 
Q 1056 3291 1056 2328 
Q 1056 1369 1301 889 
Q 1547 409 2034 409 
Q 2525 409 2770 889 
Q 3016 1369 3016 2328 
Q 3016 3291 2770 3770 
Q 2525 4250 2034 4250 
z
M 2034 4750 
Q 2819 4750 3233 4129 
Q 3647 3509 3647 2328 
Q 3647 1150 3233 529 
Q 2819 -91 2034 -91 
Q 1250 -91 836 529 
Q 422 1150 422 2328 
Q 422 3509 836 4129 
Q 1250 4750 2034 4750 
z
" transform="scale(0.015625)"/>
     </defs>
     <use xlink:href="#DejaVuSans-2212" transform="translate(0 0.78125)"/>
     <use xlink:href="#DejaVuSans-32" transform="translate(83.789062 0.78125)"/>
     <use xlink:href="#DejaVuSans-Oblique-54" transform="translate(147.412109 0.78125)"/>
     <use xlink:href="#DejaVuSans-30" transform="translate(208.496094 -15.625) scale(0.7)"/>
    </g>
   </g>
   <g id="text_6">
    <g id="patch_10">
     <path d="M 227.583377 135.921865 
L 258.463377 135.921865 
Q 260.063377 135.921865 260.063377 134.321865 
L 260.063377 118.836865 
Q 260.063377 117.236865 258.463377 117.236865 
L 227.583377 117.236865 
Q 225.983377 117.236865 225.983377 118.836865 
L 225.983377 134.321865 
Q 225.983377 135.921865 227.583377 135.921865 
z
" style="fill: #ffffff; opacity: 0.7"/>
    </g>
    <!-- $-T_0$ -->
    <g transform="translate(227.583377 130.994365) scale(0.16 -0.16)">
     <use xlink:href="#DejaVuSans-2212" transform="translate(0 0.09375)"/>
     <use xlink:href="#DejaVuSans-Oblique-54" transform="translate(83.789062 0.09375)"/>
     <use xlink:href="#DejaVuSans-30" transform="translate(144.873047 -16.3125) scale(0.7)"/>
    </g>
   </g>
   <g id="text_7">
    <g id="patch_11">
     <path d="M 285.871688 144.116865 
L 313.551688 144.116865 
Q 315.151688 144.116865 315.151688 142.516865 
L 315.151688 118.836865 
Q 315.151688 117.236865 313.551688 117.236865 
L 285.871688 117.236865 
Q 284.271688 117.236865 284.271688 118.836865 
L 284.271688 142.516865 
Q 284.271688 144.116865 285.871688 144.116865 
z
" style="fill: #ffffff; opacity: 0.7"/>
    </g>
    <!-- $-\frac{T_0}{2}$ -->
    <g transform="translate(285.871688 136.116865) scale(0.16 -0.16)">
     <use xlink:href="#DejaVuSans-2212" transform="translate(0 0.987656)"/>
     <use xlink:href="#DejaVuSans-Oblique-54" transform="translate(83.789062 56.965625) scale(0.7)"/>
     <use xlink:href="#DejaVuSans-30" transform="translate(126.547852 45.48125) scale(0.49)"/>
     <use xlink:href="#DejaVuSans-32" transform="translate(99.789062 -38.418594) scale(0.7)"/>
     <path d="M 83.789062 19.784531 
L 83.789062 26.034531 
L 159.637207 26.034531 
L 159.637207 19.784531 
L 83.789062 19.784531 
z
"/>
    </g>
   </g>
   <g id="text_8">
    <g id="patch_12">
     <path d="M 343.28 135.921865 
L 353.52 135.921865 
Q 355.12 135.921865 355.12 134.321865 
L 355.12 118.836865 
Q 355.12 117.236865 353.52 117.236865 
L 343.28 117.236865 
Q 341.68 117.236865 341.68 118.836865 
L 341.68 134.321865 
Q 341.68 135.921865 343.28 135.921865 
z
" style="fill: #ffffff; opacity: 0.7"/>
    </g>
    <!-- $0$ -->
    <g transform="translate(343.28 130.994365) scale(0.16 -0.16)">
     <use xlink:href="#DejaVuSans-30" transform="translate(0 0.78125)"/>
    </g>
   </g>
   <g id="text_9">
    <g id="patch_13">
     <path d="M 405.968312 144.116865 
L 420.208312 144.116865 
Q 421.808312 144.116865 421.808312 142.516865 
L 421.808312 118.836865 
Q 421.808312 117.236865 420.208312 117.236865 
L 405.968312 117.236865 
Q 404.368312 117.236865 404.368312 118.836865 
L 404.368312 142.516865 
Q 404.368312 144.116865 405.968312 144.116865 
z
" style="fill: #ffffff; opacity: 0.7"/>
    </g>
    <!-- $\frac{T_0}{2}$ -->
    <g transform="translate(405.968312 136.116865) scale(0.16 -0.16)">
     <use xlink:href="#DejaVuSans-Oblique-54" transform="translate(0 56.965625) scale(0.7)"/>
     <use xlink:href="#DejaVuSans-30" transform="translate(42.758789 45.48125) scale(0.49)"/>
     <use xlink:href="#DejaVuSans-32" transform="translate(16 -38.418594) scale(0.7)"/>
     <path d="M 0 19.784531 
L 0 26.034531 
L 75.848145 26.034531 
L 75.848145 19.784531 
L 0 19.784531 
z
"/>
    </g>
   </g>
   <g id="text_10">
    <g id="patch_14">
     <path d="M 461.056623 135.921865 
L 478.496623 135.921865 
Q 480.096623 135.921865 480.096623 134.321865 
L 480.096623 118.836865 
Q 480.096623 117.236865 478.496623 117.236865 
L 461.056623 117.236865 
Q 459.456623 117.236865 459.456623 118.836865 
L 459.456623 134.321865 
Q 459.456623 135.921865 461.056623 135.921865 
z
" style="fill: #ffffff; opacity: 0.7"/>
    </g>
    <!-- $T_0$ -->
    <g transform="translate(461.056623 130.994365) scale(0.16 -0.16)">
     <use xlink:href="#DejaVuSans-Oblique-54" transform="translate(0 0.09375)"/>
     <use xlink:href="#DejaVuSans-30" transform="translate(61.083984 -16.3125) scale(0.7)"/>
    </g>
   </g>
   <g id="text_11">
    <g id="patch_15">
     <path d="M 569.393247 135.921865 
L 596.913247 135.921865 
Q 598.513247 135.921865 598.513247 134.321865 
L 598.513247 118.836865 
Q 598.513247 117.236865 596.913247 117.236865 
L 569.393247 117.236865 
Q 567.793247 117.236865 567.793247 118.836865 
L 567.793247 134.321865 
Q 567.793247 135.921865 569.393247 135.921865 
z
" style="fill: #ffffff; opacity: 0.7"/>
    </g>
    <!-- $2T_0$ -->
    <g transform="translate(569.393247 130.994365) scale(0.16 -0.16)">
     <use xlink:href="#DejaVuSans-32" transform="translate(0 0.78125)"/>
     <use xlink:href="#DejaVuSans-Oblique-54" transform="translate(63.623047 0.78125)"/>
     <use xlink:href="#DejaVuSans-30" transform="translate(124.707031 -15.625) scale(0.7)"/>
    </g>
   </g>
   <g id="text_12">
    <g id="patch_16">
     <path d="M 328.72 183.263658 
L 352.4 183.263658 
Q 354 183.263658 354 181.663658 
L 354 166.178658 
Q 354 164.578658 352.4 164.578658 
L 328.72 164.578658 
Q 327.12 164.578658 327.12 166.178658 
L 327.12 181.663658 
Q 327.12 183.263658 328.72 183.263658 
z
" style="fill: #ffffff; opacity: 0.7"/>
    </g>
    <!-- $-1$ -->
    <g transform="translate(328.72 178.336158) scale(0.16 -0.16)">
     <defs>
      <path id="DejaVuSans-31" d="M 794 531 
L 1825 531 
L 1825 4091 
L 703 3866 
L 703 4441 
L 1819 4666 
L 2450 4666 
L 2450 531 
L 3481 531 
L 3481 0 
L 794 0 
L 794 531 
z
" transform="scale(0.015625)"/>
     </defs>
     <use xlink:href="#DejaVuSans-2212" transform="translate(0 0.09375)"/>
     <use xlink:href="#DejaVuSans-31" transform="translate(83.789062 0.09375)"/>
    </g>
   </g>
   <g id="text_13">
    <g id="patch_17">
     <path d="M 342.16 57.095072 
L 352.4 57.095072 
Q 354 57.095072 354 55.495072 
L 354 40.010072 
Q 354 38.410072 352.4 38.410072 
L 342.16 38.410072 
Q 340.56 38.410072 340.56 40.010072 
L 340.56 55.495072 
Q 340.56 57.095072 342.16 57.095072 
z
" style="fill: #ffffff; opacity: 0.7"/>
    </g>
    <!-- $1$ -->
    <g transform="translate(342.16 52.167572) scale(0.16 -0.16)">
     <use xlink:href="#DejaVuSans-31" transform="translate(0 0.09375)"/>
    </g>
   </g>
  </g>
 </g>
 <defs>
  <clipPath id="p9677f912f0">
   <rect x="7.2" y="7.378625" width="698.4" height="191.77625"/>
  </clipPath>
 </defs>
</svg>
