<?xml version="1.0" encoding="utf-8" standalone="no"?>
<!DOCTYPE svg PUBLIC "-//W3C//DTD SVG 1.1//EN"
  "http://www.w3.org/Graphics/SVG/1.1/DTD/svg11.dtd">
<svg xmlns:xlink="http://www.w3.org/1999/xlink" width="568.8pt" height="208.8pt" viewBox="0 0 568.8 208.8" xmlns="http://www.w3.org/2000/svg" version="1.1">
 <metadata>
  <rdf:RDF xmlns:dc="http://purl.org/dc/elements/1.1/" xmlns:cc="http://creativecommons.org/ns#" xmlns:rdf="http://www.w3.org/1999/02/22-rdf-syntax-ns#">
   <cc:Work>
    <dc:type rdf:resource="http://purl.org/dc/dcmitype/StillImage"/>
    <dc:date>2026-02-01T01:53:51.943561</dc:date>
    <dc:format>image/svg+xml</dc:format>
    <dc:creator>
     <cc:Agent>
      <dc:title>Matplotlib v3.10.8, https://matplotlib.org/</dc:title>
     </cc:Agent>
    </dc:creator>
   </cc:Work>
  </rdf:RDF>
 </metadata>
 <defs>
  <style type="text/css">*{stroke-linejoin: round; stroke-linecap: butt}</style>
 </defs>
 <g id="figure_1">
  <g id="patch_1">
   <path d="M 0 208.8 
L 568.8 208.8 
L 568.8 0 
L 0 0 
z
" style="fill: #ffffff"/>
  </g>
  <g id="axes_1">
   <g id="patch_2">
    <path d="M 7.2 201.6 
L 561.6 201.6 
L 561.6 7.2 
L 7.2 7.2 
z
" style="fill: #ffffff"/>
   </g>
   <g id="matplotlib.axis_1"/>
   <g id="matplotlib.axis_2"/>
   <g id="LineCollection_1">
    <path d="M 86.4 176.021053 
L 86.4 176.021053 
" clip-path="url(#p8225fe2e58)" style="fill: none; stroke: #0000ff; stroke-width: 3"/>
    <path d="M 126 176.021053 
L 126 176.021053 
" clip-path="url(#p8225fe2e58)" style="fill: none; stroke: #0000ff; stroke-width: 3"/>
    <path d="M 165.6 176.021053 
L 165.6 176.021053 
" clip-path="url(#p8225fe2e58)" style="fill: none; stroke: #0000ff; stroke-width: 3"/>
    <path d="M 205.2 176.021053 
L 205.2 176.021053 
" clip-path="url(#p8225fe2e58)" style="fill: none; stroke: #0000ff; stroke-width: 3"/>
    <path d="M 244.8 176.021053 
L 244.8 48.126316 
" clip-path="url(#p8225fe2e58)" style="fill: none; stroke: #0000ff; stroke-width: 3"/>
    <path d="M 284.4 176.021053 
L 284.4 176.021053 
" clip-path="url(#p8225fe2e58)" style="fill: none; stroke: #0000ff; stroke-width: 3"/>
    <path d="M 324 176.021053 
L 324 48.126316 
" clip-path="url(#p8225fe2e58)" style="fill: none; stroke: #0000ff; stroke-width: 3"/>
    <path d="M 363.6 176.021053 
L 363.6 176.021053 
" clip-path="url(#p8225fe2e58)" style="fill: none; stroke: #0000ff; stroke-width: 3"/>
    <path d="M 403.2 176.021053 
L 403.2 176.021053 
" clip-path="url(#p8225fe2e58)" style="fill: none; stroke: #0000ff; stroke-width: 3"/>
    <path d="M 442.8 176.021053 
L 442.8 176.021053 
" clip-path="url(#p8225fe2e58)" style="fill: none; stroke: #0000ff; stroke-width: 3"/>
    <path d="M 482.4 176.021053 
L 482.4 176.021053 
" clip-path="url(#p8225fe2e58)" style="fill: none; stroke: #0000ff; stroke-width: 3"/>
   </g>
   <g id="line2d_1">
    <defs>
     <path id="m878067a4cf" d="M 0 3 
C 0.795609 3 1.55874 2.683901 2.12132 2.12132 
C 2.683901 1.55874 3 0.795609 3 0 
C 3 -0.795609 2.683901 -1.55874 2.12132 -2.12132 
C 1.55874 -2.683901 0.795609 -3 0 -3 
C -0.795609 -3 -1.55874 -2.683901 -2.12132 -2.12132 
C -2.683901 -1.55874 -3 -0.795609 -3 0 
C -3 0.795609 -2.683901 1.55874 -2.12132 2.12132 
C -1.55874 2.683901 -0.795609 3 0 3 
z
" style="stroke: #0000ff"/>
    </defs>
    <g clip-path="url(#p8225fe2e58)">
     <use xlink:href="#m878067a4cf" x="86.4" y="176.021053" style="fill: #0000ff; stroke: #0000ff"/>
     <use xlink:href="#m878067a4cf" x="126" y="176.021053" style="fill: #0000ff; stroke: #0000ff"/>
     <use xlink:href="#m878067a4cf" x="165.6" y="176.021053" style="fill: #0000ff; stroke: #0000ff"/>
     <use xlink:href="#m878067a4cf" x="205.2" y="176.021053" style="fill: #0000ff; stroke: #0000ff"/>
     <use xlink:href="#m878067a4cf" x="244.8" y="48.126316" style="fill: #0000ff; stroke: #0000ff"/>
     <use xlink:href="#m878067a4cf" x="284.4" y="176.021053" style="fill: #0000ff; stroke: #0000ff"/>
     <use xlink:href="#m878067a4cf" x="324" y="48.126316" style="fill: #0000ff; stroke: #0000ff"/>
     <use xlink:href="#m878067a4cf" x="363.6" y="176.021053" style="fill: #0000ff; stroke: #0000ff"/>
     <use xlink:href="#m878067a4cf" x="403.2" y="176.021053" style="fill: #0000ff; stroke: #0000ff"/>
     <use xlink:href="#m878067a4cf" x="442.8" y="176.021053" style="fill: #0000ff; stroke: #0000ff"/>
     <use xlink:href="#m878067a4cf" x="482.4" y="176.021053" style="fill: #0000ff; stroke: #0000ff"/>
    </g>
   </g>
   <g id="line2d_2">
    <path d="M 86.4 176.021053 
L 482.4 176.021053 
" clip-path="url(#p8225fe2e58)" style="fill: none; stroke: #000000; stroke-width: 1.5; stroke-linecap: square"/>
   </g>
   <g id="line2d_3">
    <path d="M 282.494263 176.021053 
L 286.305737 176.021053 
" style="fill: none; stroke: #000000; stroke-width: 1.2; stroke-linecap: square"/>
   </g>
   <g id="line2d_4">
    <path d="M 282.494263 48.126316 
L 286.305737 48.126316 
" style="fill: none; stroke: #000000; stroke-width: 1.2; stroke-linecap: square"/>
   </g>
   <g id="patch_3">
    <path d="M 7.2 201.6 
L 7.2 7.2 
" style="fill: none"/>
   </g>
   <g id="patch_4">
    <path d="M 561.6 201.6 
L 561.6 7.2 
" style="fill: none"/>
   </g>
   <g id="patch_5">
    <path d="M 7.2 201.6 
L 561.6 201.6 
" style="fill: none"/>
   </g>
   <g id="patch_6">
    <path d="M 7.2 7.2 
L 561.6 7.2 
" style="fill: none"/>
   </g>
   <g id="patch_7">
    <path d="M 9.200665 176.021053 
Q 284.399395 176.021053 557.921075 176.021053 
" style="fill: none; stroke: #000000; stroke-width: 1.5; stroke-linecap: round"/>
    <path d="M 551.521075 173.461053 
L 557.921075 176.021053 
L 551.521075 178.581053 
z
" style="stroke: #000000; stroke-width: 1.5; stroke-linecap: round"/>
   </g>
   <g id="patch_8">
    <path d="M 284.4 199.597742 
Q 284.4 104.398496 284.4 12.553352 
" style="fill: none; stroke: #000000; stroke-width: 1.5; stroke-linecap: round"/>
    <path d="M 282 22.153352 
L 284.4 12.553352 
L 286.8 22.153352 
z
" style="stroke: #000000; stroke-width: 1.5; stroke-linecap: round"/>
   </g>
   <g id="text_1">
    <!-- $k$ -->
    <g transform="translate(546.776 168.805553) scale(0.16 -0.16)">
     <defs>
      <path id="DejaVuSans-Oblique-6b" d="M 1172 4863 
L 1747 4863 
L 1197 2028 
L 3169 3500 
L 3916 3500 
L 1716 1825 
L 3322 0 
L 2625 0 
L 1131 1709 
L 800 0 
L 225 0 
L 1172 4863 
z
" transform="scale(0.015625)"/>
     </defs>
     <use xlink:href="#DejaVuSans-Oblique-6b" transform="translate(0 0.015625)"/>
    </g>
   </g>
   <g id="text_2">
    <!-- $c_k$ -->
    <g transform="translate(289.944 23.3125) scale(0.16 -0.16)">
     <defs>
      <path id="DejaVuSans-Oblique-63" d="M 3431 3366 
L 3316 2797 
Q 3109 2947 2876 3022 
Q 2644 3097 2394 3097 
Q 2119 3097 1870 3000 
Q 1622 2903 1453 2725 
Q 1184 2453 1037 2087 
Q 891 1722 891 1331 
Q 891 859 1127 628 
Q 1363 397 1844 397 
Q 2081 397 2348 469 
Q 2616 541 2906 684 
L 2797 116 
Q 2547 13 2283 -39 
Q 2019 -91 1741 -91 
Q 1044 -91 669 257 
Q 294 606 294 1253 
Q 294 1797 489 2255 
Q 684 2713 1069 3078 
Q 1331 3328 1684 3456 
Q 2038 3584 2456 3584 
Q 2700 3584 2940 3529 
Q 3181 3475 3431 3366 
z
" transform="scale(0.015625)"/>
     </defs>
     <use xlink:href="#DejaVuSans-Oblique-63"/>
     <use xlink:href="#DejaVuSans-Oblique-6b" transform="translate(54.980469 -16.40625) scale(0.7)"/>
    </g>
   </g>
   <g id="text_3">
    <g id="patch_9">
     <path d="M 272.72 191.027928 
L 280.4 191.027928 
Q 281.6 191.027928 281.6 189.827928 
L 281.6 178.214178 
Q 281.6 177.014178 280.4 177.014178 
L 272.72 177.014178 
Q 271.52 177.014178 271.52 178.214178 
L 271.52 189.827928 
Q 271.52 191.027928 272.72 191.027928 
z
" style="fill: #ffffff; opacity: 0.5"/>
    </g>
    <!-- $0$ -->
    <g transform="translate(272.72 187.332303) scale(0.12 -0.12)">
     <defs>
      <path id="DejaVuSans-30" d="M 2034 4250 
Q 1547 4250 1301 3770 
Q 1056 3291 1056 2328 
Q 1056 1369 1301 889 
Q 1547 409 2034 409 
Q 2525 409 2770 889 
Q 3016 1369 3016 2328 
Q 3016 3291 2770 3770 
Q 2525 4250 2034 4250 
z
M 2034 4750 
Q 2819 4750 3233 4129 
Q 3647 3509 3647 2328 
Q 3647 1150 3233 529 
Q 2819 -91 2034 -91 
Q 1250 -91 836 529 
Q 422 1150 422 2328 
Q 422 3509 836 4129 
Q 1250 4750 2034 4750 
z
" transform="scale(0.015625)"/>
     </defs>
     <use xlink:href="#DejaVuSans-30" transform="translate(0 0.78125)"/>
    </g>
   </g>
   <g id="text_4">
    <g id="patch_10">
     <path d="M 273.44 57.426316 
L 280.4 57.426316 
Q 281.6 57.426316 281.6 56.226316 
L 281.6 40.026316 
Q 281.6 38.826316 280.4 38.826316 
L 273.44 38.826316 
Q 272.24 38.826316 272.24 40.026316 
L 272.24 56.226316 
Q 272.24 57.426316 273.44 57.426316 
z
" style="fill: #ffffff; opacity: 0.5"/>
    </g>
    <!-- $\frac{1}{2}$ -->
    <g transform="translate(273.44 51.426316) scale(0.12 -0.12)">
     <defs>
      <path id="DejaVuSans-31" d="M 794 531 
L 1825 531 
L 1825 4091 
L 703 3866 
L 703 4441 
L 1819 4666 
L 2450 4666 
L 2450 531 
L 3481 531 
L 3481 0 
L 794 0 
L 794 531 
z
" transform="scale(0.015625)"/>
      <path id="DejaVuSans-32" d="M 1228 531 
L 3431 531 
L 3431 0 
L 469 0 
L 469 531 
Q 828 903 1448 1529 
Q 2069 2156 2228 2338 
Q 2531 2678 2651 2914 
Q 2772 3150 2772 3378 
Q 2772 3750 2511 3984 
Q 2250 4219 1831 4219 
Q 1534 4219 1204 4116 
Q 875 4013 500 3803 
L 500 4441 
Q 881 4594 1212 4672 
Q 1544 4750 1819 4750 
Q 2544 4750 2975 4387 
Q 3406 4025 3406 3419 
Q 3406 3131 3298 2873 
Q 3191 2616 2906 2266 
Q 2828 2175 2409 1742 
Q 1991 1309 1228 531 
z
" transform="scale(0.015625)"/>
     </defs>
     <use xlink:href="#DejaVuSans-31" transform="translate(0 43.965625) scale(0.7)"/>
     <use xlink:href="#DejaVuSans-32" transform="translate(0 -39.2375) scale(0.7)"/>
     <path d="M 0 18.965625 
L 0 25.215625 
L 44.536133 25.215625 
L 44.536133 18.965625 
L 0 18.965625 
z
"/>
    </g>
   </g>
   <g id="text_5">
    <g id="patch_11">
     <path d="M 235.92 196.834803 
L 253.68 196.834803 
Q 254.88 196.834803 254.88 195.634803 
L 254.88 184.021053 
Q 254.88 182.821053 253.68 182.821053 
L 235.92 182.821053 
Q 234.72 182.821053 234.72 184.021053 
L 234.72 195.634803 
Q 234.72 196.834803 235.92 196.834803 
z
" style="fill: #ffffff; opacity: 0.5"/>
    </g>
    <!-- $-1$ -->
    <g transform="translate(235.92 193.139178) scale(0.12 -0.12)">
     <defs>
      <path id="DejaVuSans-2212" d="M 678 2272 
L 4684 2272 
L 4684 1741 
L 678 1741 
L 678 2272 
z
" transform="scale(0.015625)"/>
     </defs>
     <use xlink:href="#DejaVuSans-2212" transform="translate(0 0.09375)"/>
     <use xlink:href="#DejaVuSans-31" transform="translate(83.789062 0.09375)"/>
    </g>
   </g>
   <g id="text_6">
    <g id="patch_12">
     <path d="M 320.16 196.834803 
L 327.84 196.834803 
Q 329.04 196.834803 329.04 195.634803 
L 329.04 184.021053 
Q 329.04 182.821053 327.84 182.821053 
L 320.16 182.821053 
Q 318.96 182.821053 318.96 184.021053 
L 318.96 195.634803 
Q 318.96 196.834803 320.16 196.834803 
z
" style="fill: #ffffff; opacity: 0.5"/>
    </g>
    <!-- $1$ -->
    <g transform="translate(320.16 193.139178) scale(0.12 -0.12)">
     <use xlink:href="#DejaVuSans-31" transform="translate(0 0.09375)"/>
    </g>
   </g>
  </g>
 </g>
 <defs>
  <clipPath id="p8225fe2e58">
   <rect x="7.2" y="7.2" width="554.4" height="194.4"/>
  </clipPath>
 </defs>
</svg>
