<?xml version="1.0" encoding="utf-8" standalone="no"?>
<!DOCTYPE svg PUBLIC "-//W3C//DTD SVG 1.1//EN"
  "http://www.w3.org/Graphics/SVG/1.1/DTD/svg11.dtd">
<svg xmlns:xlink="http://www.w3.org/1999/xlink" width="712.8pt" height="205.581494pt" viewBox="0 0 712.8 205.581494" xmlns="http://www.w3.org/2000/svg" version="1.1">
 <metadata>
  <rdf:RDF xmlns:dc="http://purl.org/dc/elements/1.1/" xmlns:cc="http://creativecommons.org/ns#" xmlns:rdf="http://www.w3.org/1999/02/22-rdf-syntax-ns#">
   <cc:Work>
    <dc:type rdf:resource="http://purl.org/dc/dcmitype/StillImage"/>
    <dc:date>2026-01-31T19:16:44.220996</dc:date>
    <dc:format>image/svg+xml</dc:format>
    <dc:creator>
     <cc:Agent>
      <dc:title>Matplotlib v3.10.8, https://matplotlib.org/</dc:title>
     </cc:Agent>
    </dc:creator>
   </cc:Work>
  </rdf:RDF>
 </metadata>
 <defs>
  <style type="text/css">*{stroke-linejoin: round; stroke-linecap: butt}</style>
 </defs>
 <g id="figure_1">
  <g id="patch_1">
   <path d="M 0 205.581494 
L 712.8 205.581494 
L 712.8 0 
L 0 0 
z
" style="fill: #ffffff"/>
  </g>
  <g id="axes_1">
   <g id="patch_2">
    <path d="M 7.2 190.698968 
L 705.6 190.698968 
L 705.6 8.31817 
L 7.2 8.31817 
z
" style="fill: #ffffff"/>
   </g>
   <g id="matplotlib.axis_1"/>
   <g id="matplotlib.axis_2"/>
   <g id="line2d_1">
    <path d="M 129.646753 168.390205 
L 129.646753 165.012783 
" style="fill: none; stroke: #000000; stroke-width: 1.2; stroke-linecap: square"/>
   </g>
   <g id="line2d_2">
    <path d="M 243.023377 168.390205 
L 243.023377 165.012783 
" style="fill: none; stroke: #000000; stroke-width: 1.2; stroke-linecap: square"/>
   </g>
   <g id="line2d_3">
    <path d="M 299.711688 168.390205 
L 299.711688 165.012783 
" style="fill: none; stroke: #000000; stroke-width: 1.2; stroke-linecap: square"/>
   </g>
   <g id="line2d_4">
    <path d="M 356.4 168.390205 
L 356.4 165.012783 
" style="fill: none; stroke: #000000; stroke-width: 1.2; stroke-linecap: square"/>
   </g>
   <g id="line2d_5">
    <path d="M 413.088312 168.390205 
L 413.088312 165.012783 
" style="fill: none; stroke: #000000; stroke-width: 1.2; stroke-linecap: square"/>
   </g>
   <g id="line2d_6">
    <path d="M 469.776623 168.390205 
L 469.776623 165.012783 
" style="fill: none; stroke: #000000; stroke-width: 1.2; stroke-linecap: square"/>
   </g>
   <g id="line2d_7">
    <path d="M 583.153247 168.390205 
L 583.153247 165.012783 
" style="fill: none; stroke: #000000; stroke-width: 1.2; stroke-linecap: square"/>
   </g>
   <g id="line2d_8">
    <path d="M 354.6 46.280177 
L 358.2 46.280177 
" style="fill: none; stroke: #000000; stroke-width: 1.2; stroke-linecap: square"/>
   </g>
   <g id="patch_3">
    <path d="M 7.2 190.698968 
L 7.2 8.31817 
" style="fill: none"/>
   </g>
   <g id="patch_4">
    <path d="M 705.6 190.698968 
L 705.6 8.31817 
" style="fill: none"/>
   </g>
   <g id="patch_5">
    <path d="M 7.2 190.698968 
L 705.6 190.698968 
" style="fill: none"/>
   </g>
   <g id="patch_6">
    <path d="M 7.2 8.31817 
L 705.6 8.31817 
" style="fill: none"/>
   </g>
   <g id="patch_7">
    <path d="M 9.200803 166.701494 
Q 356.400209 166.701494 701.922565 166.701494 
" style="fill: none; stroke: #000000; stroke-width: 1.5; stroke-linecap: round"/>
    <path d="M 695.522565 164.141494 
L 701.922565 166.701494 
L 695.522565 169.261494 
z
" style="stroke: #000000; stroke-width: 1.5; stroke-linecap: round"/>
   </g>
   <g id="patch_8">
    <path d="M 356.4 188.698055 
Q 356.4 99.508602 356.4 13.673251 
" style="fill: none; stroke: #000000; stroke-width: 1.5; stroke-linecap: round"/>
    <path d="M 354 23.273251 
L 356.4 13.673251 
L 358.8 23.273251 
z
" style="stroke: #000000; stroke-width: 1.5; stroke-linecap: round"/>
   </g>
   <g id="text_1">
    <!-- $t$ -->
    <g transform="translate(690.616 158.894503) scale(0.2 -0.2)">
     <defs>
      <path id="DejaVuSans-Oblique-74" d="M 2706 3500 
L 2619 3053 
L 1472 3053 
L 1100 1153 
Q 1081 1047 1072 975 
Q 1063 903 1063 863 
Q 1063 663 1183 572 
Q 1303 481 1569 481 
L 2150 481 
L 2053 0 
L 1503 0 
Q 991 0 739 200 
Q 488 400 488 806 
Q 488 878 497 964 
Q 506 1050 525 1153 
L 897 3053 
L 409 3053 
L 500 3500 
L 978 3500 
L 1172 4494 
L 1747 4494 
L 1556 3500 
L 2706 3500 
z
" transform="scale(0.015625)"/>
     </defs>
     <use xlink:href="#DejaVuSans-Oblique-74" transform="translate(0 0.78125)"/>
    </g>
   </g>
   <g id="text_2">
    <!-- $\tilde{z}(t)$ -->
    <g transform="translate(363.384 22.396875) scale(0.2 -0.2)">
     <defs>
      <path id="DejaVuSans-303" d="M -1621 4281 
L -1799 4453 
Q -1867 4516 -1919 4545 
Q -1971 4575 -2011 4575 
Q -2130 4575 -2186 4461 
Q -2242 4347 -2249 4091 
L -2639 4091 
Q -2633 4513 -2473 4742 
Q -2314 4972 -2030 4972 
Q -1911 4972 -1811 4928 
Q -1711 4884 -1596 4781 
L -1417 4609 
Q -1349 4547 -1297 4517 
Q -1246 4488 -1205 4488 
Q -1086 4488 -1030 4602 
Q -974 4716 -967 4972 
L -577 4972 
Q -583 4550 -742 4320 
Q -902 4091 -1186 4091 
Q -1305 4091 -1405 4134 
Q -1505 4178 -1621 4281 
z
" transform="scale(0.015625)"/>
      <path id="DejaVuSans-Oblique-7a" d="M 744 3500 
L 3475 3500 
L 3372 2975 
L 738 459 
L 2913 459 
L 2822 0 
L -19 0 
L 84 525 
L 2719 3041 
L 653 3041 
L 744 3500 
z
" transform="scale(0.015625)"/>
      <path id="DejaVuSans-28" d="M 1984 4856 
Q 1566 4138 1362 3434 
Q 1159 2731 1159 2009 
Q 1159 1288 1364 580 
Q 1569 -128 1984 -844 
L 1484 -844 
Q 1016 -109 783 600 
Q 550 1309 550 2009 
Q 550 2706 781 3412 
Q 1013 4119 1484 4856 
L 1984 4856 
z
" transform="scale(0.015625)"/>
      <path id="DejaVuSans-29" d="M 513 4856 
L 1013 4856 
Q 1481 4119 1714 3412 
Q 1947 2706 1947 2009 
Q 1947 1309 1714 600 
Q 1481 -109 1013 -844 
L 513 -844 
Q 928 -128 1133 580 
Q 1338 1288 1338 2009 
Q 1338 2731 1133 3434 
Q 928 4138 513 4856 
z
" transform="scale(0.015625)"/>
     </defs>
     <use xlink:href="#DejaVuSans-303" transform="translate(58.356934 3.3125)"/>
     <use xlink:href="#DejaVuSans-Oblique-7a" transform="translate(0 0.046875)"/>
     <use xlink:href="#DejaVuSans-28" transform="translate(52.490234 0.046875)"/>
     <use xlink:href="#DejaVuSans-Oblique-74" transform="translate(91.503906 0.046875)"/>
     <use xlink:href="#DejaVuSans-29" transform="translate(130.712891 0.046875)"/>
    </g>
   </g>
   <g id="line2d_9">
    <path d="M 106.971429 94.448704 
L 129.442471 46.714128 
L 129.941828 46.906995 
L 186.369112 166.629169 
L 242.796396 46.762344 
L 243.295753 46.858778 
L 299.723037 166.677386 
L 356.150322 46.810561 
L 356.649678 46.810561 
L 413.076963 166.677386 
L 416.073102 160.360992 
L 469.504247 46.858778 
L 470.003604 46.762344 
L 526.430888 166.629169 
L 527.429601 164.652283 
L 582.858172 46.906995 
L 583.357529 46.714128 
L 605.828571 94.448704 
L 605.828571 94.448704 
" clip-path="url(#pd8794c414a)" style="fill: none; stroke: #0000ff; stroke-width: 2.5; stroke-linecap: square"/>
   </g>
   <g id="text_3">
    <!-- $\cdots$ -->
    <g style="fill: #0000ff" transform="translate(57.085714 91.676792) scale(0.18 -0.18)">
     <defs>
      <path id="DejaVuSans-22ef" d="M 740 2363 
L 1400 2363 
L 1400 1569 
L 740 1569 
L 740 2363 
z
M 2868 2363 
L 3528 2363 
L 3528 1569 
L 2868 1569 
L 2868 2363 
z
M 4996 2363 
L 5656 2363 
L 5656 1569 
L 4996 1569 
L 4996 2363 
z
" transform="scale(0.015625)"/>
     </defs>
     <use xlink:href="#DejaVuSans-22ef" transform="translate(0 0.078125)"/>
    </g>
   </g>
   <g id="text_4">
    <!-- $\cdots$ -->
    <g style="fill: #0000ff" transform="translate(637.714286 91.676792) scale(0.18 -0.18)">
     <use xlink:href="#DejaVuSans-22ef" transform="translate(0 0.078125)"/>
    </g>
   </g>
   <g id="text_5">
    <g id="patch_9">
     <path d="M 109.166753 191.786494 
L 150.126753 191.786494 
Q 151.726753 191.786494 151.726753 190.186494 
L 151.726753 174.701494 
Q 151.726753 173.101494 150.126753 173.101494 
L 109.166753 173.101494 
Q 107.566753 173.101494 107.566753 174.701494 
L 107.566753 190.186494 
Q 107.566753 191.786494 109.166753 191.786494 
z
" style="fill: #ffffff; opacity: 0.7"/>
    </g>
    <!-- $-2T_0$ -->
    <g transform="translate(109.166753 186.858994) scale(0.16 -0.16)">
     <defs>
      <path id="DejaVuSans-2212" d="M 678 2272 
L 4684 2272 
L 4684 1741 
L 678 1741 
L 678 2272 
z
" transform="scale(0.015625)"/>
      <path id="DejaVuSans-32" d="M 1228 531 
L 3431 531 
L 3431 0 
L 469 0 
L 469 531 
Q 828 903 1448 1529 
Q 2069 2156 2228 2338 
Q 2531 2678 2651 2914 
Q 2772 3150 2772 3378 
Q 2772 3750 2511 3984 
Q 2250 4219 1831 4219 
Q 1534 4219 1204 4116 
Q 875 4013 500 3803 
L 500 4441 
Q 881 4594 1212 4672 
Q 1544 4750 1819 4750 
Q 2544 4750 2975 4387 
Q 3406 4025 3406 3419 
Q 3406 3131 3298 2873 
Q 3191 2616 2906 2266 
Q 2828 2175 2409 1742 
Q 1991 1309 1228 531 
z
" transform="scale(0.015625)"/>
      <path id="DejaVuSans-Oblique-54" d="M 378 4666 
L 4325 4666 
L 4225 4134 
L 2559 4134 
L 1759 0 
L 1125 0 
L 1925 4134 
L 275 4134 
L 378 4666 
z
" transform="scale(0.015625)"/>
      <path id="DejaVuSans-30" d="M 2034 4250 
Q 1547 4250 1301 3770 
Q 1056 3291 1056 2328 
Q 1056 1369 1301 889 
Q 1547 409 2034 409 
Q 2525 409 2770 889 
Q 3016 1369 3016 2328 
Q 3016 3291 2770 3770 
Q 2525 4250 2034 4250 
z
M 2034 4750 
Q 2819 4750 3233 4129 
Q 3647 3509 3647 2328 
Q 3647 1150 3233 529 
Q 2819 -91 2034 -91 
Q 1250 -91 836 529 
Q 422 1150 422 2328 
Q 422 3509 836 4129 
Q 1250 4750 2034 4750 
z
" transform="scale(0.015625)"/>
     </defs>
     <use xlink:href="#DejaVuSans-2212" transform="translate(0 0.78125)"/>
     <use xlink:href="#DejaVuSans-32" transform="translate(83.789062 0.78125)"/>
     <use xlink:href="#DejaVuSans-Oblique-54" transform="translate(147.412109 0.78125)"/>
     <use xlink:href="#DejaVuSans-30" transform="translate(208.496094 -15.625) scale(0.7)"/>
    </g>
   </g>
   <g id="text_6">
    <g id="patch_10">
     <path d="M 227.583377 191.786494 
L 258.463377 191.786494 
Q 260.063377 191.786494 260.063377 190.186494 
L 260.063377 174.701494 
Q 260.063377 173.101494 258.463377 173.101494 
L 227.583377 173.101494 
Q 225.983377 173.101494 225.983377 174.701494 
L 225.983377 190.186494 
Q 225.983377 191.786494 227.583377 191.786494 
z
" style="fill: #ffffff; opacity: 0.7"/>
    </g>
    <!-- $-T_0$ -->
    <g transform="translate(227.583377 186.858994) scale(0.16 -0.16)">
     <use xlink:href="#DejaVuSans-2212" transform="translate(0 0.09375)"/>
     <use xlink:href="#DejaVuSans-Oblique-54" transform="translate(83.789062 0.09375)"/>
     <use xlink:href="#DejaVuSans-30" transform="translate(144.873047 -16.3125) scale(0.7)"/>
    </g>
   </g>
   <g id="text_7">
    <g id="patch_11">
     <path d="M 285.871688 199.981494 
L 313.551688 199.981494 
Q 315.151688 199.981494 315.151688 198.381494 
L 315.151688 174.701494 
Q 315.151688 173.101494 313.551688 173.101494 
L 285.871688 173.101494 
Q 284.271688 173.101494 284.271688 174.701494 
L 284.271688 198.381494 
Q 284.271688 199.981494 285.871688 199.981494 
z
" style="fill: #ffffff; opacity: 0.7"/>
    </g>
    <!-- $-\frac{T_0}{2}$ -->
    <g transform="translate(285.871688 191.981494) scale(0.16 -0.16)">
     <use xlink:href="#DejaVuSans-2212" transform="translate(0 0.987656)"/>
     <use xlink:href="#DejaVuSans-Oblique-54" transform="translate(83.789062 56.965625) scale(0.7)"/>
     <use xlink:href="#DejaVuSans-30" transform="translate(126.547852 45.48125) scale(0.49)"/>
     <use xlink:href="#DejaVuSans-32" transform="translate(99.789062 -38.418594) scale(0.7)"/>
     <path d="M 83.789062 19.784531 
L 83.789062 26.034531 
L 159.637207 26.034531 
L 159.637207 19.784531 
L 83.789062 19.784531 
z
"/>
    </g>
   </g>
   <g id="text_8">
    <g id="patch_12">
     <path d="M 343.28 191.786494 
L 353.52 191.786494 
Q 355.12 191.786494 355.12 190.186494 
L 355.12 174.701494 
Q 355.12 173.101494 353.52 173.101494 
L 343.28 173.101494 
Q 341.68 173.101494 341.68 174.701494 
L 341.68 190.186494 
Q 341.68 191.786494 343.28 191.786494 
z
" style="fill: #ffffff; opacity: 0.7"/>
    </g>
    <!-- $0$ -->
    <g transform="translate(343.28 186.858994) scale(0.16 -0.16)">
     <use xlink:href="#DejaVuSans-30" transform="translate(0 0.78125)"/>
    </g>
   </g>
   <g id="text_9">
    <g id="patch_13">
     <path d="M 405.968312 199.981494 
L 420.208312 199.981494 
Q 421.808312 199.981494 421.808312 198.381494 
L 421.808312 174.701494 
Q 421.808312 173.101494 420.208312 173.101494 
L 405.968312 173.101494 
Q 404.368312 173.101494 404.368312 174.701494 
L 404.368312 198.381494 
Q 404.368312 199.981494 405.968312 199.981494 
z
" style="fill: #ffffff; opacity: 0.7"/>
    </g>
    <!-- $\frac{T_0}{2}$ -->
    <g transform="translate(405.968312 191.981494) scale(0.16 -0.16)">
     <use xlink:href="#DejaVuSans-Oblique-54" transform="translate(0 56.965625) scale(0.7)"/>
     <use xlink:href="#DejaVuSans-30" transform="translate(42.758789 45.48125) scale(0.49)"/>
     <use xlink:href="#DejaVuSans-32" transform="translate(16 -38.418594) scale(0.7)"/>
     <path d="M 0 19.784531 
L 0 26.034531 
L 75.848145 26.034531 
L 75.848145 19.784531 
L 0 19.784531 
z
"/>
    </g>
   </g>
   <g id="text_10">
    <g id="patch_14">
     <path d="M 461.056623 191.786494 
L 478.496623 191.786494 
Q 480.096623 191.786494 480.096623 190.186494 
L 480.096623 174.701494 
Q 480.096623 173.101494 478.496623 173.101494 
L 461.056623 173.101494 
Q 459.456623 173.101494 459.456623 174.701494 
L 459.456623 190.186494 
Q 459.456623 191.786494 461.056623 191.786494 
z
" style="fill: #ffffff; opacity: 0.7"/>
    </g>
    <!-- $T_0$ -->
    <g transform="translate(461.056623 186.858994) scale(0.16 -0.16)">
     <use xlink:href="#DejaVuSans-Oblique-54" transform="translate(0 0.09375)"/>
     <use xlink:href="#DejaVuSans-30" transform="translate(61.083984 -16.3125) scale(0.7)"/>
    </g>
   </g>
   <g id="text_11">
    <g id="patch_15">
     <path d="M 569.393247 191.786494 
L 596.913247 191.786494 
Q 598.513247 191.786494 598.513247 190.186494 
L 598.513247 174.701494 
Q 598.513247 173.101494 596.913247 173.101494 
L 569.393247 173.101494 
Q 567.793247 173.101494 567.793247 174.701494 
L 567.793247 190.186494 
Q 567.793247 191.786494 569.393247 191.786494 
z
" style="fill: #ffffff; opacity: 0.7"/>
    </g>
    <!-- $2T_0$ -->
    <g transform="translate(569.393247 186.858994) scale(0.16 -0.16)">
     <use xlink:href="#DejaVuSans-32" transform="translate(0 0.78125)"/>
     <use xlink:href="#DejaVuSans-Oblique-54" transform="translate(63.623047 0.78125)"/>
     <use xlink:href="#DejaVuSans-30" transform="translate(124.707031 -15.625) scale(0.7)"/>
    </g>
   </g>
   <g id="text_12">
    <g id="patch_16">
     <path d="M 338.16 59.720177 
L 352.4 59.720177 
Q 354 59.720177 354 58.120177 
L 354 34.440177 
Q 354 32.840177 352.4 32.840177 
L 338.16 32.840177 
Q 336.56 32.840177 336.56 34.440177 
L 336.56 58.120177 
Q 336.56 59.720177 338.16 59.720177 
z
" style="fill: #ffffff; opacity: 0.7"/>
    </g>
    <!-- $\frac{T_0}{2}$ -->
    <g transform="translate(338.16 51.720177) scale(0.16 -0.16)">
     <use xlink:href="#DejaVuSans-Oblique-54" transform="translate(0 56.965625) scale(0.7)"/>
     <use xlink:href="#DejaVuSans-30" transform="translate(42.758789 45.48125) scale(0.49)"/>
     <use xlink:href="#DejaVuSans-32" transform="translate(16 -38.418594) scale(0.7)"/>
     <path d="M 0 19.784531 
L 0 26.034531 
L 75.848145 26.034531 
L 75.848145 19.784531 
L 0 19.784531 
z
"/>
    </g>
   </g>
  </g>
 </g>
 <defs>
  <clipPath id="pd8794c414a">
   <rect x="7.2" y="8.31817" width="698.4" height="182.380797"/>
  </clipPath>
 </defs>
</svg>
