<?xml version="1.0" encoding="utf-8" standalone="no"?>
<!DOCTYPE svg PUBLIC "-//W3C//DTD SVG 1.1//EN"
  "http://www.w3.org/Graphics/SVG/1.1/DTD/svg11.dtd">
<svg xmlns:xlink="http://www.w3.org/1999/xlink" width="568.8pt" height="208.8pt" viewBox="0 0 568.8 208.8" xmlns="http://www.w3.org/2000/svg" version="1.1">
 <metadata>
  <rdf:RDF xmlns:dc="http://purl.org/dc/elements/1.1/" xmlns:cc="http://creativecommons.org/ns#" xmlns:rdf="http://www.w3.org/1999/02/22-rdf-syntax-ns#">
   <cc:Work>
    <dc:type rdf:resource="http://purl.org/dc/dcmitype/StillImage"/>
    <dc:date>2026-02-01T01:08:03.301833</dc:date>
    <dc:format>image/svg+xml</dc:format>
    <dc:creator>
     <cc:Agent>
      <dc:title>Matplotlib v3.10.8, https://matplotlib.org/</dc:title>
     </cc:Agent>
    </dc:creator>
   </cc:Work>
  </rdf:RDF>
 </metadata>
 <defs>
  <style type="text/css">*{stroke-linejoin: round; stroke-linecap: butt}</style>
 </defs>
 <g id="figure_1">
  <g id="patch_1">
   <path d="M 0 208.8 
L 568.8 208.8 
L 568.8 0 
L 0 0 
z
" style="fill: #ffffff"/>
  </g>
  <g id="axes_1">
   <g id="patch_2">
    <path d="M 7.2 201.6 
L 561.6 201.6 
L 561.6 7.2 
L 7.2 7.2 
z
" style="fill: #ffffff"/>
   </g>
   <g id="matplotlib.axis_1"/>
   <g id="matplotlib.axis_2"/>
   <g id="LineCollection_1">
    <path d="M 86.4 112.073684 
L 86.4 112.073684 
" clip-path="url(#p1ff8fa015d)" style="fill: none; stroke: #0000ff; stroke-width: 3"/>
    <path d="M 106.2 112.073684 
L 106.2 119.178947 
" clip-path="url(#p1ff8fa015d)" style="fill: none; stroke: #0000ff; stroke-width: 3"/>
    <path d="M 126 112.073684 
L 126 112.073684 
" clip-path="url(#p1ff8fa015d)" style="fill: none; stroke: #0000ff; stroke-width: 3"/>
    <path d="M 145.8 112.073684 
L 145.8 121.209023 
" clip-path="url(#p1ff8fa015d)" style="fill: none; stroke: #0000ff; stroke-width: 3"/>
    <path d="M 165.6 112.073684 
L 165.6 112.073684 
" clip-path="url(#p1ff8fa015d)" style="fill: none; stroke: #0000ff; stroke-width: 3"/>
    <path d="M 185.4 112.073684 
L 185.4 124.863158 
" clip-path="url(#p1ff8fa015d)" style="fill: none; stroke: #0000ff; stroke-width: 3"/>
    <path d="M 205.2 112.073684 
L 205.2 112.073684 
" clip-path="url(#p1ff8fa015d)" style="fill: none; stroke: #0000ff; stroke-width: 3"/>
    <path d="M 225 112.073684 
L 225 133.389474 
" clip-path="url(#p1ff8fa015d)" style="fill: none; stroke: #0000ff; stroke-width: 3"/>
    <path d="M 244.8 112.073684 
L 244.8 112.073684 
" clip-path="url(#p1ff8fa015d)" style="fill: none; stroke: #0000ff; stroke-width: 3"/>
    <path d="M 264.6 112.073684 
L 264.6 176.021053 
" clip-path="url(#p1ff8fa015d)" style="fill: none; stroke: #0000ff; stroke-width: 3"/>
    <path d="M 284.4 112.073684 
L 284.4 112.073684 
" clip-path="url(#p1ff8fa015d)" style="fill: none; stroke: #0000ff; stroke-width: 3"/>
    <path d="M 304.2 112.073684 
L 304.2 48.126316 
" clip-path="url(#p1ff8fa015d)" style="fill: none; stroke: #0000ff; stroke-width: 3"/>
    <path d="M 324 112.073684 
L 324 112.073684 
" clip-path="url(#p1ff8fa015d)" style="fill: none; stroke: #0000ff; stroke-width: 3"/>
    <path d="M 343.8 112.073684 
L 343.8 90.757895 
" clip-path="url(#p1ff8fa015d)" style="fill: none; stroke: #0000ff; stroke-width: 3"/>
    <path d="M 363.6 112.073684 
L 363.6 112.073684 
" clip-path="url(#p1ff8fa015d)" style="fill: none; stroke: #0000ff; stroke-width: 3"/>
    <path d="M 383.4 112.073684 
L 383.4 99.284211 
" clip-path="url(#p1ff8fa015d)" style="fill: none; stroke: #0000ff; stroke-width: 3"/>
    <path d="M 403.2 112.073684 
L 403.2 112.073684 
" clip-path="url(#p1ff8fa015d)" style="fill: none; stroke: #0000ff; stroke-width: 3"/>
    <path d="M 423 112.073684 
L 423 102.938346 
" clip-path="url(#p1ff8fa015d)" style="fill: none; stroke: #0000ff; stroke-width: 3"/>
    <path d="M 442.8 112.073684 
L 442.8 112.073684 
" clip-path="url(#p1ff8fa015d)" style="fill: none; stroke: #0000ff; stroke-width: 3"/>
    <path d="M 462.6 112.073684 
L 462.6 104.968421 
" clip-path="url(#p1ff8fa015d)" style="fill: none; stroke: #0000ff; stroke-width: 3"/>
    <path d="M 482.4 112.073684 
L 482.4 112.073684 
" clip-path="url(#p1ff8fa015d)" style="fill: none; stroke: #0000ff; stroke-width: 3"/>
   </g>
   <g id="line2d_1">
    <defs>
     <path id="m9b93a096b6" d="M 0 3 
C 0.795609 3 1.55874 2.683901 2.12132 2.12132 
C 2.683901 1.55874 3 0.795609 3 0 
C 3 -0.795609 2.683901 -1.55874 2.12132 -2.12132 
C 1.55874 -2.683901 0.795609 -3 0 -3 
C -0.795609 -3 -1.55874 -2.683901 -2.12132 -2.12132 
C -2.683901 -1.55874 -3 -0.795609 -3 0 
C -3 0.795609 -2.683901 1.55874 -2.12132 2.12132 
C -1.55874 2.683901 -0.795609 3 0 3 
z
" style="stroke: #0000ff"/>
    </defs>
    <g clip-path="url(#p1ff8fa015d)">
     <use xlink:href="#m9b93a096b6" x="86.4" y="112.073684" style="fill: #0000ff; stroke: #0000ff"/>
     <use xlink:href="#m9b93a096b6" x="106.2" y="119.178947" style="fill: #0000ff; stroke: #0000ff"/>
     <use xlink:href="#m9b93a096b6" x="126" y="112.073684" style="fill: #0000ff; stroke: #0000ff"/>
     <use xlink:href="#m9b93a096b6" x="145.8" y="121.209023" style="fill: #0000ff; stroke: #0000ff"/>
     <use xlink:href="#m9b93a096b6" x="165.6" y="112.073684" style="fill: #0000ff; stroke: #0000ff"/>
     <use xlink:href="#m9b93a096b6" x="185.4" y="124.863158" style="fill: #0000ff; stroke: #0000ff"/>
     <use xlink:href="#m9b93a096b6" x="205.2" y="112.073684" style="fill: #0000ff; stroke: #0000ff"/>
     <use xlink:href="#m9b93a096b6" x="225" y="133.389474" style="fill: #0000ff; stroke: #0000ff"/>
     <use xlink:href="#m9b93a096b6" x="244.8" y="112.073684" style="fill: #0000ff; stroke: #0000ff"/>
     <use xlink:href="#m9b93a096b6" x="264.6" y="176.021053" style="fill: #0000ff; stroke: #0000ff"/>
     <use xlink:href="#m9b93a096b6" x="284.4" y="112.073684" style="fill: #0000ff; stroke: #0000ff"/>
     <use xlink:href="#m9b93a096b6" x="304.2" y="48.126316" style="fill: #0000ff; stroke: #0000ff"/>
     <use xlink:href="#m9b93a096b6" x="324" y="112.073684" style="fill: #0000ff; stroke: #0000ff"/>
     <use xlink:href="#m9b93a096b6" x="343.8" y="90.757895" style="fill: #0000ff; stroke: #0000ff"/>
     <use xlink:href="#m9b93a096b6" x="363.6" y="112.073684" style="fill: #0000ff; stroke: #0000ff"/>
     <use xlink:href="#m9b93a096b6" x="383.4" y="99.284211" style="fill: #0000ff; stroke: #0000ff"/>
     <use xlink:href="#m9b93a096b6" x="403.2" y="112.073684" style="fill: #0000ff; stroke: #0000ff"/>
     <use xlink:href="#m9b93a096b6" x="423" y="102.938346" style="fill: #0000ff; stroke: #0000ff"/>
     <use xlink:href="#m9b93a096b6" x="442.8" y="112.073684" style="fill: #0000ff; stroke: #0000ff"/>
     <use xlink:href="#m9b93a096b6" x="462.6" y="104.968421" style="fill: #0000ff; stroke: #0000ff"/>
     <use xlink:href="#m9b93a096b6" x="482.4" y="112.073684" style="fill: #0000ff; stroke: #0000ff"/>
    </g>
   </g>
   <g id="line2d_2">
    <path d="M 86.4 112.073684 
L 482.4 112.073684 
" clip-path="url(#p1ff8fa015d)" style="fill: none; stroke: #000000; stroke-width: 1.5; stroke-linecap: square"/>
   </g>
   <g id="line2d_3">
    <path d="M 282.494263 176.021053 
L 286.305737 176.021053 
" style="fill: none; stroke: #000000; stroke-width: 1.2; stroke-linecap: square"/>
   </g>
   <g id="line2d_4">
    <path d="M 282.494263 48.126316 
L 286.305737 48.126316 
" style="fill: none; stroke: #000000; stroke-width: 1.2; stroke-linecap: square"/>
   </g>
   <g id="patch_3">
    <path d="M 7.2 201.6 
L 7.2 7.2 
" style="fill: none"/>
   </g>
   <g id="patch_4">
    <path d="M 561.6 201.6 
L 561.6 7.2 
" style="fill: none"/>
   </g>
   <g id="patch_5">
    <path d="M 7.2 201.6 
L 561.6 201.6 
" style="fill: none"/>
   </g>
   <g id="patch_6">
    <path d="M 7.2 7.2 
L 561.6 7.2 
" style="fill: none"/>
   </g>
   <g id="patch_7">
    <path d="M 9.200665 112.073684 
Q 284.399395 112.073684 557.921075 112.073684 
" style="fill: none; stroke: #000000; stroke-width: 1.5; stroke-linecap: round"/>
    <path d="M 551.521075 109.513684 
L 557.921075 112.073684 
L 551.521075 114.633684 
z
" style="stroke: #000000; stroke-width: 1.5; stroke-linecap: round"/>
   </g>
   <g id="patch_8">
    <path d="M 284.4 199.597742 
Q 284.4 104.398496 284.4 12.553352 
" style="fill: none; stroke: #000000; stroke-width: 1.5; stroke-linecap: round"/>
    <path d="M 282 22.153352 
L 284.4 12.553352 
L 286.8 22.153352 
z
" style="stroke: #000000; stroke-width: 1.5; stroke-linecap: round"/>
   </g>
   <g id="text_1">
    <!-- $k$ -->
    <g transform="translate(546.776 104.858184) scale(0.16 -0.16)">
     <defs>
      <path id="DejaVuSans-Oblique-6b" d="M 1172 4863 
L 1747 4863 
L 1197 2028 
L 3169 3500 
L 3916 3500 
L 1716 1825 
L 3322 0 
L 2625 0 
L 1131 1709 
L 800 0 
L 225 0 
L 1172 4863 
z
" transform="scale(0.015625)"/>
     </defs>
     <use xlink:href="#DejaVuSans-Oblique-6b" transform="translate(0 0.015625)"/>
    </g>
   </g>
   <g id="text_2">
    <!-- $\mathcal{Im}\{b_k\}$ -->
    <g transform="translate(289.944 23.3125) scale(0.16 -0.16)">
     <defs>
      <path id="STIXNonUnicode-Italic-e235" d="M 3782 4237 
L 3744 4083 
Q 3482 4083 3347 4067 
Q 3213 4051 3069 3977 
Q 2925 3904 2838 3753 
Q 2752 3603 2675 3334 
L 1920 710 
Q 1901 634 1901 557 
Q 1901 352 2208 352 
Q 2790 352 3283 819 
L 3398 698 
Q 3008 320 2566 160 
Q 2125 0 1549 0 
L 243 0 
L 282 154 
Q 467 154 556 160 
Q 646 166 777 201 
Q 909 237 982 310 
Q 1056 384 1139 521 
Q 1222 659 1280 870 
L 1946 3187 
Q 2061 3590 2061 3674 
Q 2061 3878 1754 3878 
Q 1523 3878 1203 3750 
Q 883 3622 678 3411 
L 570 3533 
Q 947 3904 1385 4070 
Q 1824 4237 2579 4237 
L 3782 4237 
z
" transform="scale(0.015625)"/>
      <path id="STIXGeneral-Italic-1d62e" d="M 1619 2938 
L 1530 2573 
Q 1939 2963 2515 2963 
Q 3078 2963 3251 2547 
Q 3725 2963 4262 2963 
Q 4576 2963 4768 2796 
Q 4960 2630 4960 2310 
Q 4960 2176 4922 2016 
L 4422 0 
L 3930 0 
L 4397 1875 
Q 4435 2029 4435 2144 
Q 4435 2509 4045 2509 
Q 3872 2509 3584 2345 
Q 3296 2182 3149 1933 
L 2669 0 
L 2176 0 
L 2630 1856 
Q 2675 2061 2675 2144 
Q 2675 2509 2298 2509 
Q 2125 2509 1833 2349 
Q 1542 2189 1389 1933 
L 909 0 
L 416 0 
L 1114 2816 
L 1568 2970 
L 1619 2938 
z
" transform="scale(0.015625)"/>
      <path id="DejaVuSans-7b" d="M 3272 -594 
L 3272 -1044 
L 3078 -1044 
Q 2300 -1044 2036 -812 
Q 1772 -581 1772 109 
L 1772 856 
Q 1772 1328 1603 1509 
Q 1434 1691 991 1691 
L 800 1691 
L 800 2138 
L 991 2138 
Q 1438 2138 1605 2317 
Q 1772 2497 1772 2963 
L 1772 3713 
Q 1772 4403 2036 4633 
Q 2300 4863 3078 4863 
L 3272 4863 
L 3272 4416 
L 3059 4416 
Q 2619 4416 2484 4278 
Q 2350 4141 2350 3700 
L 2350 2925 
Q 2350 2434 2208 2212 
Q 2066 1991 1722 1913 
Q 2069 1828 2209 1606 
Q 2350 1384 2350 897 
L 2350 122 
Q 2350 -319 2484 -456 
Q 2619 -594 3059 -594 
L 3272 -594 
z
" transform="scale(0.015625)"/>
      <path id="DejaVuSans-Oblique-62" d="M 3169 2138 
Q 3169 2591 2961 2847 
Q 2753 3103 2388 3103 
Q 2122 3103 1889 2973 
Q 1656 2844 1484 2597 
Q 1303 2338 1198 1995 
Q 1094 1653 1094 1313 
Q 1094 881 1298 636 
Q 1503 391 1863 391 
Q 2134 391 2365 517 
Q 2597 644 2772 891 
Q 2950 1147 3059 1487 
Q 3169 1828 3169 2138 
z
M 1381 2969 
Q 1594 3256 1914 3420 
Q 2234 3584 2584 3584 
Q 3122 3584 3439 3221 
Q 3756 2859 3756 2241 
Q 3756 1734 3570 1259 
Q 3384 784 3041 416 
Q 2816 172 2522 40 
Q 2228 -91 1906 -91 
Q 1566 -91 1316 65 
Q 1066 222 909 531 
L 806 0 
L 231 0 
L 1178 4863 
L 1753 4863 
L 1381 2969 
z
" transform="scale(0.015625)"/>
      <path id="DejaVuSans-7d" d="M 800 -594 
L 1019 -594 
Q 1456 -594 1589 -459 
Q 1722 -325 1722 122 
L 1722 897 
Q 1722 1384 1862 1606 
Q 2003 1828 2350 1913 
Q 2003 1991 1862 2212 
Q 1722 2434 1722 2925 
L 1722 3700 
Q 1722 4144 1589 4280 
Q 1456 4416 1019 4416 
L 800 4416 
L 800 4863 
L 997 4863 
Q 1775 4863 2036 4633 
Q 2297 4403 2297 3713 
L 2297 2963 
Q 2297 2497 2465 2317 
Q 2634 2138 3078 2138 
L 3272 2138 
L 3272 1691 
L 3078 1691 
Q 2634 1691 2465 1509 
Q 2297 1328 2297 856 
L 2297 109 
Q 2297 -581 2036 -812 
Q 1775 -1044 997 -1044 
L 800 -1044 
L 800 -594 
z
" transform="scale(0.015625)"/>
     </defs>
     <use xlink:href="#STIXNonUnicode-Italic-e235" transform="translate(0 0.015625)"/>
     <use xlink:href="#STIXGeneral-Italic-1d62e" transform="translate(57.499985 0.015625)"/>
     <use xlink:href="#DejaVuSans-7b" transform="translate(133.099976 0.015625)"/>
     <use xlink:href="#DejaVuSans-Oblique-62" transform="translate(196.723022 0.015625)"/>
     <use xlink:href="#DejaVuSans-Oblique-6b" transform="translate(260.199585 -16.390625) scale(0.7)"/>
     <use xlink:href="#DejaVuSans-7d" transform="translate(303.471069 0.015625)"/>
    </g>
   </g>
   <g id="text_3">
    <!-- $\cdots$ -->
    <g style="fill: #0000ff" transform="translate(46.8 83.963125) scale(0.14 -0.14)">
     <defs>
      <path id="DejaVuSans-22ef" d="M 740 2363 
L 1400 2363 
L 1400 1569 
L 740 1569 
L 740 2363 
z
M 2868 2363 
L 3528 2363 
L 3528 1569 
L 2868 1569 
L 2868 2363 
z
M 4996 2363 
L 5656 2363 
L 5656 1569 
L 4996 1569 
L 4996 2363 
z
" transform="scale(0.015625)"/>
     </defs>
     <use xlink:href="#DejaVuSans-22ef" transform="translate(0 0.078125)"/>
    </g>
   </g>
   <g id="text_4">
    <!-- $\cdots$ -->
    <g style="fill: #0000ff" transform="translate(508 83.963125) scale(0.14 -0.14)">
     <use xlink:href="#DejaVuSans-22ef" transform="translate(0 0.078125)"/>
    </g>
   </g>
   <g id="text_5">
    <g id="patch_9">
     <path d="M 263.48 184.661053 
L 280.4 184.661053 
Q 281.6 184.661053 281.6 183.461053 
L 281.6 168.581053 
Q 281.6 167.381053 280.4 167.381053 
L 263.48 167.381053 
Q 262.28 167.381053 262.28 168.581053 
L 262.28 183.461053 
Q 262.28 184.661053 263.48 184.661053 
z
" style="fill: #ffffff; opacity: 0.5"/>
    </g>
    <!-- $-\frac{2}{\pi}$ -->
    <g transform="translate(263.48 180.101053) scale(0.12 -0.12)">
     <defs>
      <path id="DejaVuSans-2212" d="M 678 2272 
L 4684 2272 
L 4684 1741 
L 678 1741 
L 678 2272 
z
" transform="scale(0.015625)"/>
      <path id="DejaVuSans-32" d="M 1228 531 
L 3431 531 
L 3431 0 
L 469 0 
L 469 531 
Q 828 903 1448 1529 
Q 2069 2156 2228 2338 
Q 2531 2678 2651 2914 
Q 2772 3150 2772 3378 
Q 2772 3750 2511 3984 
Q 2250 4219 1831 4219 
Q 1534 4219 1204 4116 
Q 875 4013 500 3803 
L 500 4441 
Q 881 4594 1212 4672 
Q 1544 4750 1819 4750 
Q 2544 4750 2975 4387 
Q 3406 4025 3406 3419 
Q 3406 3131 3298 2873 
Q 3191 2616 2906 2266 
Q 2828 2175 2409 1742 
Q 1991 1309 1228 531 
z
" transform="scale(0.015625)"/>
      <path id="DejaVuSans-Oblique-3c0" d="M 584 3500 
L 3938 3500 
L 3825 2925 
L 3384 2925 
L 2966 775 
Q 2922 550 2981 450 
Q 3038 353 3209 353 
Q 3256 353 3325 363 
Q 3397 369 3419 372 
L 3338 -44 
Q 3222 -84 3103 -103 
Q 2981 -122 2866 -122 
Q 2491 -122 2388 81 
Q 2284 288 2391 838 
L 2797 2925 
L 1506 2925 
L 938 0 
L 350 0 
L 919 2925 
L 472 2925 
L 584 3500 
z
" transform="scale(0.015625)"/>
     </defs>
     <use xlink:href="#DejaVuSans-2212" transform="translate(0 0.25)"/>
     <use xlink:href="#DejaVuSans-32" transform="translate(83.789062 44.046875) scale(0.7)"/>
     <use xlink:href="#DejaVuSans-Oblique-3c0" transform="translate(84.789062 -25.484375) scale(0.7)"/>
     <path d="M 83.789062 19.046875 
L 83.789062 25.296875 
L 128.325195 25.296875 
L 128.325195 19.046875 
L 83.789062 19.046875 
z
"/>
    </g>
   </g>
   <g id="text_6">
    <g id="patch_10">
     <path d="M 273.44 56.766316 
L 280.4 56.766316 
Q 281.6 56.766316 281.6 55.566316 
L 281.6 40.686316 
Q 281.6 39.486316 280.4 39.486316 
L 273.44 39.486316 
Q 272.24 39.486316 272.24 40.686316 
L 272.24 55.566316 
Q 272.24 56.766316 273.44 56.766316 
z
" style="fill: #ffffff; opacity: 0.5"/>
    </g>
    <!-- $\frac{2}{\pi}$ -->
    <g transform="translate(273.44 52.206316) scale(0.12 -0.12)">
     <use xlink:href="#DejaVuSans-32" transform="translate(0 44.046875) scale(0.7)"/>
     <use xlink:href="#DejaVuSans-Oblique-3c0" transform="translate(1 -25.484375) scale(0.7)"/>
     <path d="M 0 19.046875 
L 0 25.296875 
L 44.536133 25.296875 
L 44.536133 19.046875 
L 0 19.046875 
z
"/>
    </g>
   </g>
   <g id="text_7">
    <g id="patch_11">
     <path d="M 176.52 105.273684 
L 194.28 105.273684 
Q 195.48 105.273684 195.48 104.073684 
L 195.48 92.459934 
Q 195.48 91.259934 194.28 91.259934 
L 176.52 91.259934 
Q 175.32 91.259934 175.32 92.459934 
L 175.32 104.073684 
Q 175.32 105.273684 176.52 105.273684 
z
" style="fill: #ffffff; opacity: 0.5"/>
    </g>
    <!-- $-5$ -->
    <g transform="translate(176.52 101.578059) scale(0.12 -0.12)">
     <defs>
      <path id="DejaVuSans-35" d="M 691 4666 
L 3169 4666 
L 3169 4134 
L 1269 4134 
L 1269 2991 
Q 1406 3038 1543 3061 
Q 1681 3084 1819 3084 
Q 2600 3084 3056 2656 
Q 3513 2228 3513 1497 
Q 3513 744 3044 326 
Q 2575 -91 1722 -91 
Q 1428 -91 1123 -41 
Q 819 9 494 109 
L 494 744 
Q 775 591 1075 516 
Q 1375 441 1709 441 
Q 2250 441 2565 725 
Q 2881 1009 2881 1497 
Q 2881 1984 2565 2268 
Q 2250 2553 1709 2553 
Q 1456 2553 1204 2497 
Q 953 2441 691 2322 
L 691 4666 
z
" transform="scale(0.015625)"/>
     </defs>
     <use xlink:href="#DejaVuSans-2212" transform="translate(0 0.09375)"/>
     <use xlink:href="#DejaVuSans-35" transform="translate(83.789062 0.09375)"/>
    </g>
   </g>
   <g id="text_8">
    <g id="patch_12">
     <path d="M 216.12 105.273684 
L 233.88 105.273684 
Q 235.08 105.273684 235.08 104.073684 
L 235.08 92.459934 
Q 235.08 91.259934 233.88 91.259934 
L 216.12 91.259934 
Q 214.92 91.259934 214.92 92.459934 
L 214.92 104.073684 
Q 214.92 105.273684 216.12 105.273684 
z
" style="fill: #ffffff; opacity: 0.5"/>
    </g>
    <!-- $-3$ -->
    <g transform="translate(216.12 101.578059) scale(0.12 -0.12)">
     <defs>
      <path id="DejaVuSans-33" d="M 2597 2516 
Q 3050 2419 3304 2112 
Q 3559 1806 3559 1356 
Q 3559 666 3084 287 
Q 2609 -91 1734 -91 
Q 1441 -91 1130 -33 
Q 819 25 488 141 
L 488 750 
Q 750 597 1062 519 
Q 1375 441 1716 441 
Q 2309 441 2620 675 
Q 2931 909 2931 1356 
Q 2931 1769 2642 2001 
Q 2353 2234 1838 2234 
L 1294 2234 
L 1294 2753 
L 1863 2753 
Q 2328 2753 2575 2939 
Q 2822 3125 2822 3475 
Q 2822 3834 2567 4026 
Q 2313 4219 1838 4219 
Q 1578 4219 1281 4162 
Q 984 4106 628 3988 
L 628 4550 
Q 988 4650 1302 4700 
Q 1616 4750 1894 4750 
Q 2613 4750 3031 4423 
Q 3450 4097 3450 3541 
Q 3450 3153 3228 2886 
Q 3006 2619 2597 2516 
z
" transform="scale(0.015625)"/>
     </defs>
     <use xlink:href="#DejaVuSans-2212" transform="translate(0 0.78125)"/>
     <use xlink:href="#DejaVuSans-33" transform="translate(83.789062 0.78125)"/>
    </g>
   </g>
   <g id="text_9">
    <g id="patch_13">
     <path d="M 255.72 105.273684 
L 273.48 105.273684 
Q 274.68 105.273684 274.68 104.073684 
L 274.68 92.459934 
Q 274.68 91.259934 273.48 91.259934 
L 255.72 91.259934 
Q 254.52 91.259934 254.52 92.459934 
L 254.52 104.073684 
Q 254.52 105.273684 255.72 105.273684 
z
" style="fill: #ffffff; opacity: 0.5"/>
    </g>
    <!-- $-1$ -->
    <g transform="translate(255.72 101.578059) scale(0.12 -0.12)">
     <defs>
      <path id="DejaVuSans-31" d="M 794 531 
L 1825 531 
L 1825 4091 
L 703 3866 
L 703 4441 
L 1819 4666 
L 2450 4666 
L 2450 531 
L 3481 531 
L 3481 0 
L 794 0 
L 794 531 
z
" transform="scale(0.015625)"/>
     </defs>
     <use xlink:href="#DejaVuSans-2212" transform="translate(0 0.09375)"/>
     <use xlink:href="#DejaVuSans-31" transform="translate(83.789062 0.09375)"/>
    </g>
   </g>
   <g id="text_10">
    <g id="patch_14">
     <path d="M 300.36 132.887434 
L 308.04 132.887434 
Q 309.24 132.887434 309.24 131.687434 
L 309.24 120.073684 
Q 309.24 118.873684 308.04 118.873684 
L 300.36 118.873684 
Q 299.16 118.873684 299.16 120.073684 
L 299.16 131.687434 
Q 299.16 132.887434 300.36 132.887434 
z
" style="fill: #ffffff; opacity: 0.5"/>
    </g>
    <!-- $1$ -->
    <g transform="translate(300.36 129.191809) scale(0.12 -0.12)">
     <use xlink:href="#DejaVuSans-31" transform="translate(0 0.09375)"/>
    </g>
   </g>
   <g id="text_11">
    <g id="patch_15">
     <path d="M 339.96 132.887434 
L 347.64 132.887434 
Q 348.84 132.887434 348.84 131.687434 
L 348.84 120.073684 
Q 348.84 118.873684 347.64 118.873684 
L 339.96 118.873684 
Q 338.76 118.873684 338.76 120.073684 
L 338.76 131.687434 
Q 338.76 132.887434 339.96 132.887434 
z
" style="fill: #ffffff; opacity: 0.5"/>
    </g>
    <!-- $3$ -->
    <g transform="translate(339.96 129.191809) scale(0.12 -0.12)">
     <use xlink:href="#DejaVuSans-33" transform="translate(0 0.78125)"/>
    </g>
   </g>
   <g id="text_12">
    <g id="patch_16">
     <path d="M 379.56 132.887434 
L 387.24 132.887434 
Q 388.44 132.887434 388.44 131.687434 
L 388.44 120.073684 
Q 388.44 118.873684 387.24 118.873684 
L 379.56 118.873684 
Q 378.36 118.873684 378.36 120.073684 
L 378.36 131.687434 
Q 378.36 132.887434 379.56 132.887434 
z
" style="fill: #ffffff; opacity: 0.5"/>
    </g>
    <!-- $5$ -->
    <g transform="translate(379.56 129.191809) scale(0.12 -0.12)">
     <use xlink:href="#DejaVuSans-35" transform="translate(0 0.09375)"/>
    </g>
   </g>
  </g>
 </g>
 <defs>
  <clipPath id="p1ff8fa015d">
   <rect x="7.2" y="7.2" width="554.4" height="194.4"/>
  </clipPath>
 </defs>
</svg>
