<?xml version="1.0" encoding="utf-8" standalone="no"?>
<!DOCTYPE svg PUBLIC "-//W3C//DTD SVG 1.1//EN"
  "http://www.w3.org/Graphics/SVG/1.1/DTD/svg11.dtd">
<svg xmlns:xlink="http://www.w3.org/1999/xlink" width="712.8pt" height="280.8pt" viewBox="0 0 712.8 280.8" xmlns="http://www.w3.org/2000/svg" version="1.1">
 <metadata>
  <rdf:RDF xmlns:dc="http://purl.org/dc/elements/1.1/" xmlns:cc="http://creativecommons.org/ns#" xmlns:rdf="http://www.w3.org/1999/02/22-rdf-syntax-ns#">
   <cc:Work>
    <dc:type rdf:resource="http://purl.org/dc/dcmitype/StillImage"/>
    <dc:date>2026-01-23T19:01:51.994771</dc:date>
    <dc:format>image/svg+xml</dc:format>
    <dc:creator>
     <cc:Agent>
      <dc:title>Matplotlib v3.10.3, https://matplotlib.org/</dc:title>
     </cc:Agent>
    </dc:creator>
   </cc:Work>
  </rdf:RDF>
 </metadata>
 <defs>
  <style type="text/css">*{stroke-linejoin: round; stroke-linecap: butt}</style>
 </defs>
 <g id="figure_1">
  <g id="patch_1">
   <path d="M 0 280.8 
L 712.8 280.8 
L 712.8 0 
L 0 0 
L 0 280.8 
z
" style="fill: none"/>
  </g>
  <g id="axes_1">
   <g id="patch_2">
    <path d="M 7.2 273.6 
L 705.6 273.6 
L 705.6 7.2 
L 7.2 7.2 
z
" style="fill: #ffffff"/>
   </g>
   <g id="matplotlib.axis_1"/>
   <g id="matplotlib.axis_2"/>
   <g id="line2d_1">
    <path d="M 126.158242 169.142669 
L 126.158242 164.142669 
" style="fill: none; stroke: #000000; stroke-width: 1.2; stroke-linecap: square"/>
   </g>
   <g id="line2d_2">
    <path d="M 202.905495 169.142669 
L 202.905495 164.142669 
" style="fill: none; stroke: #000000; stroke-width: 1.2; stroke-linecap: square"/>
   </g>
   <g id="line2d_3">
    <path d="M 279.652747 169.142669 
L 279.652747 164.142669 
" style="fill: none; stroke: #000000; stroke-width: 1.2; stroke-linecap: square"/>
   </g>
   <g id="line2d_4">
    <path d="M 356.4 169.142669 
L 356.4 164.142669 
" style="fill: none; stroke: #000000; stroke-width: 1.2; stroke-linecap: square"/>
   </g>
   <g id="line2d_5">
    <path d="M 433.147253 169.142669 
L 433.147253 164.142669 
" style="fill: none; stroke: #000000; stroke-width: 1.2; stroke-linecap: square"/>
   </g>
   <g id="line2d_6">
    <path d="M 509.894505 169.142669 
L 509.894505 164.142669 
" style="fill: none; stroke: #000000; stroke-width: 1.2; stroke-linecap: square"/>
   </g>
   <g id="line2d_7">
    <path d="M 586.641758 169.142669 
L 586.641758 164.142669 
" style="fill: none; stroke: #000000; stroke-width: 1.2; stroke-linecap: square"/>
   </g>
   <g id="line2d_8">
    <path d="M 353.9 63.546244 
L 358.9 63.546244 
" style="fill: none; stroke: #000000; stroke-width: 1.2; stroke-linecap: square"/>
   </g>
   <g id="patch_3">
    <path d="M 7.2 273.6 
L 7.2 7.2 
" style="fill: none"/>
   </g>
   <g id="patch_4">
    <path d="M 705.6 273.6 
L 705.6 7.2 
" style="fill: none"/>
   </g>
   <g id="patch_5">
    <path d="M 7.2 273.6 
L 705.6 273.6 
" style="fill: none"/>
   </g>
   <g id="patch_6">
    <path d="M 7.2 7.2 
L 705.6 7.2 
" style="fill: none"/>
   </g>
   <g id="patch_7">
    <path d="M 9.200803 166.642669 
Q 356.400209 166.642669 701.922565 166.642669 
" style="fill: none; stroke: #000000; stroke-width: 1.5; stroke-linecap: round"/>
    <path d="M 695.522565 164.082669 
L 701.922565 166.642669 
L 695.522565 169.202669 
z
" style="stroke: #000000; stroke-width: 1.5; stroke-linecap: round"/>
   </g>
   <g id="patch_8">
    <path d="M 356.4 271.595984 
Q 356.4 140.396497 356.4 12.551111 
" style="fill: none; stroke: #000000; stroke-width: 1.5; stroke-linecap: round"/>
    <path d="M 354 22.151111 
L 356.4 12.551111 
L 358.8 22.151111 
z
" style="stroke: #000000; stroke-width: 1.5; stroke-linecap: round"/>
   </g>
   <g id="text_1">
    <!-- $t$ -->
    <g transform="translate(690.616 157.155294) scale(0.2 -0.2)">
     <defs>
      <path id="DejaVuSans-Oblique-74" d="M 2706 3500 
L 2619 3053 
L 1472 3053 
L 1100 1153 
Q 1081 1047 1072 975 
Q 1063 903 1063 863 
Q 1063 663 1183 572 
Q 1303 481 1569 481 
L 2150 481 
L 2053 0 
L 1503 0 
Q 991 0 739 200 
Q 488 400 488 806 
Q 488 878 497 964 
Q 506 1050 525 1153 
L 897 3053 
L 409 3053 
L 500 3500 
L 978 3500 
L 1172 4494 
L 1747 4494 
L 1556 3500 
L 2706 3500 
z
" transform="scale(0.015625)"/>
     </defs>
     <use xlink:href="#DejaVuSans-Oblique-74" transform="translate(0 0.78125)"/>
    </g>
   </g>
   <g id="text_2">
    <!-- $\tilde{x}(t)$ -->
    <g transform="translate(363.384 29.680625) scale(0.2 -0.2)">
     <defs>
      <path id="DejaVuSans-303" d="M -1621 4281 
L -1799 4453 
Q -1867 4516 -1919 4545 
Q -1971 4575 -2011 4575 
Q -2130 4575 -2186 4461 
Q -2242 4347 -2249 4091 
L -2639 4091 
Q -2633 4513 -2473 4742 
Q -2314 4972 -2030 4972 
Q -1911 4972 -1811 4928 
Q -1711 4884 -1596 4781 
L -1417 4609 
Q -1349 4547 -1297 4517 
Q -1246 4488 -1205 4488 
Q -1086 4488 -1030 4602 
Q -974 4716 -967 4972 
L -577 4972 
Q -583 4550 -742 4320 
Q -902 4091 -1186 4091 
Q -1305 4091 -1405 4134 
Q -1505 4178 -1621 4281 
z
" transform="scale(0.015625)"/>
      <path id="DejaVuSans-Oblique-78" d="M 3841 3500 
L 2234 1784 
L 3219 0 
L 2559 0 
L 1819 1388 
L 531 0 
L -166 0 
L 1556 1844 
L 641 3500 
L 1300 3500 
L 1972 2234 
L 3144 3500 
L 3841 3500 
z
" transform="scale(0.015625)"/>
      <path id="DejaVuSans-28" d="M 1984 4856 
Q 1566 4138 1362 3434 
Q 1159 2731 1159 2009 
Q 1159 1288 1364 580 
Q 1569 -128 1984 -844 
L 1484 -844 
Q 1016 -109 783 600 
Q 550 1309 550 2009 
Q 550 2706 781 3412 
Q 1013 4119 1484 4856 
L 1984 4856 
z
" transform="scale(0.015625)"/>
      <path id="DejaVuSans-29" d="M 513 4856 
L 1013 4856 
Q 1481 4119 1714 3412 
Q 1947 2706 1947 2009 
Q 1947 1309 1714 600 
Q 1481 -109 1013 -844 
L 513 -844 
Q 928 -128 1133 580 
Q 1338 1288 1338 2009 
Q 1338 2731 1133 3434 
Q 928 4138 513 4856 
z
" transform="scale(0.015625)"/>
     </defs>
     <use xlink:href="#DejaVuSans-303" transform="translate(62.029297 3.3125)"/>
     <use xlink:href="#DejaVuSans-Oblique-78" transform="translate(0 0.046875)"/>
     <use xlink:href="#DejaVuSans-28" transform="translate(59.179688 0.046875)"/>
     <use xlink:href="#DejaVuSans-Oblique-74" transform="translate(98.193359 0.046875)"/>
     <use xlink:href="#DejaVuSans-29" transform="translate(137.402344 0.046875)"/>
    </g>
   </g>
   <g id="line2d_9">
    <path d="M 106.971429 153.318764 
L 107.470785 153.657003 
L 107.970142 154.328346 
L 108.469498 155.307392 
L 109.468211 158.052134 
L 110.966281 163.486246 
L 112.963707 171.103755 
L 113.96242 174.202053 
L 114.961133 176.413661 
L 115.460489 177.12216 
L 115.959846 177.54503 
L 116.459202 177.67584 
L 116.958559 177.51554 
L 117.457915 177.072315 
L 117.957272 176.361272 
L 118.955985 174.227805 
L 119.954698 171.35312 
L 123.450193 160.103337 
L 124.448906 157.90259 
L 124.948263 157.138168 
L 125.447619 156.624961 
L 125.946976 156.375692 
L 126.446332 156.396537 
L 126.945689 156.68698 
L 127.445045 157.239825 
L 127.944402 158.041362 
L 128.943115 160.305144 
L 129.941828 163.253909 
L 133.437323 174.42175 
L 134.436036 176.487302 
L 134.935393 177.158391 
L 135.434749 177.558904 
L 135.934106 177.674772 
L 136.433462 177.498908 
L 136.932819 177.031491 
L 137.432175 176.280089 
L 138.430888 173.992035 
L 139.429601 170.8365 
L 141.427027 163.186311 
L 142.925097 157.809134 
L 143.92381 155.137969 
L 144.423166 154.204311 
L 144.922523 153.582753 
L 145.421879 153.297515 
L 145.921236 153.364685 
L 146.420592 153.791587 
L 146.919949 154.576342 
L 147.419305 155.707657 
L 148.418018 158.91807 
L 149.416731 163.15093 
L 152.912227 179.603002 
L 153.91094 182.65595 
L 154.410296 183.616726 
L 154.909653 184.14611 
L 155.409009 184.215908 
L 155.908366 183.809287 
L 156.407722 182.921607 
L 156.907079 181.560965 
L 157.905792 177.517879 
L 158.904505 171.9996 
L 160.901931 158.688287 
L 162.4 149.43337 
L 163.398713 144.963917 
L 163.898069 143.477036 
L 164.397426 142.571613 
L 164.896782 142.293294 
L 165.396139 142.672361 
L 165.895495 143.722346 
L 166.394852 145.439037 
L 166.894208 147.79993 
L 167.892921 154.272923 
L 168.891634 162.605134 
L 171.887773 190.136338 
L 172.886486 196.776749 
L 173.385843 199.077942 
L 173.885199 200.574355 
L 174.384556 201.194377 
L 174.883912 200.887653 
L 175.383269 199.627282 
L 175.882625 197.411454 
L 176.381982 194.264468 
L 177.380695 185.406135 
L 178.379408 173.764108 
L 181.874903 128.769005 
L 182.873616 120.666613 
L 183.372973 118.239772 
L 183.872329 117.051998 
L 184.371686 117.184255 
L 184.871042 118.684373 
L 185.370399 121.564444 
L 185.869755 125.79908 
L 186.868468 138.039493 
L 187.867181 154.449325 
L 191.362677 219.824338 
L 192.36139 232.162593 
L 192.860746 236.047909 
L 193.360103 238.172462 
L 193.859459 238.408322 
L 194.358816 236.674537 
L 194.858172 232.941218 
L 195.357529 227.232389 
L 195.856885 219.627447 
L 196.855598 199.322212 
L 197.854311 173.730175 
L 200.85045 91.84507 
L 201.849163 73.094141 
L 202.34852 66.935905 
L 202.847876 63.284211 
L 203.347233 65.86244 
L 203.846589 71.463214 
L 204.345946 79.376174 
L 205.344659 100.904662 
L 206.842728 141.948056 
L 208.840154 196.598802 
L 209.838867 217.616312 
L 210.338224 225.641675 
L 210.83758 231.797143 
L 211.336937 235.990484 
L 211.836293 238.184974 
L 212.33565 238.398265 
L 212.835006 236.699843 
L 213.334363 233.207222 
L 213.833719 228.080999 
L 214.832432 213.749469 
L 216.330502 185.784128 
L 218.327928 147.729055 
L 219.326641 132.773127 
L 220.325354 122.42314 
L 220.82471 119.226836 
L 221.324067 117.407997 
L 221.823423 116.96306 
L 222.32278 117.85224 
L 222.822136 120.001946 
L 223.321493 123.308004 
L 224.320206 132.843542 
L 225.318919 145.175003 
L 227.815701 178.509813 
L 228.814414 189.190252 
L 229.813127 196.766451 
L 230.312484 199.200282 
L 230.81184 200.681921 
L 231.311197 201.207221 
L 231.810553 200.797416 
L 232.30991 199.497626 
L 232.809266 197.374776 
L 233.807979 191.020827 
L 234.806692 182.600053 
L 237.802831 155.152289 
L 238.801544 148.43229 
L 239.300901 145.927874 
L 239.800257 144.059853 
L 240.299614 142.854979 
L 240.79897 142.321652 
L 241.298327 142.450364 
L 241.797683 143.214588 
L 242.29704 144.572082 
L 242.796396 146.466548 
L 243.795109 151.582979 
L 245.293179 161.305129 
L 247.290605 174.268232 
L 248.289318 179.26929 
L 248.788674 181.181766 
L 249.288031 182.649034 
L 249.787387 183.647048 
L 250.286744 184.164729 
L 250.7861 184.203812 
L 251.285457 183.778381 
L 251.784813 182.914098 
L 252.28417 181.647161 
L 253.282883 178.094996 
L 254.780952 171.102562 
L 256.778378 161.424752 
L 257.777091 157.544422 
L 258.775804 154.807258 
L 259.275161 153.941181 
L 259.774517 153.43119 
L 260.273874 153.281325 
L 260.77323 153.486356 
L 261.272587 154.032167 
L 261.771943 154.896349 
L 262.770656 157.453558 
L 263.769369 160.84628 
L 267.264865 173.667331 
L 268.263578 176.067787 
L 268.762934 176.88287 
L 269.262291 177.416763 
L 269.761647 177.660193 
L 270.261004 177.61128 
L 270.76036 177.275454 
L 271.259717 176.665206 
L 271.759073 175.79968 
L 272.757786 173.409121 
L 274.255856 168.697263 
L 276.253282 162.056213 
L 277.251995 159.339341 
L 278.250708 157.40335 
L 278.750064 156.791666 
L 279.249421 156.439789 
L 279.748777 156.356438 
L 280.248134 156.543679 
L 280.74749 156.996872 
L 281.246847 157.704784 
L 282.24556 159.808552 
L 283.244273 162.646641 
L 287.239125 175.150865 
L 288.237838 176.931314 
L 288.737194 177.437927 
L 289.236551 177.664503 
L 289.735907 177.601223 
L 290.235264 177.245451 
L 290.73462 176.601908 
L 291.233977 175.682694 
L 292.23269 173.10135 
L 293.231403 169.73502 
L 296.726898 156.886086 
L 297.725611 154.528046 
L 298.224968 153.783164 
L 298.724324 153.366208 
L 299.223681 153.296479 
L 299.723037 153.584736 
L 300.222394 154.232675 
L 300.72175 155.232636 
L 301.720463 158.210984 
L 302.719176 162.274555 
L 304.716602 172.060547 
L 306.214672 178.868845 
L 307.213385 182.179386 
L 307.712741 183.296362 
L 308.212098 183.99559 
L 308.711454 184.244786 
L 309.210811 184.022633 
L 309.710167 183.319721 
L 310.209524 182.139205 
L 310.70888 180.497152 
L 311.707593 175.957045 
L 312.706306 170.078358 
L 316.201802 147.870076 
L 317.200515 143.983059 
L 317.699871 142.84781 
L 318.199228 142.32384 
L 318.698584 142.447524 
L 319.197941 143.238976 
L 319.697297 144.700899 
L 320.196654 146.817858 
L 321.195367 152.863428 
L 322.19408 160.892005 
L 325.689575 192.43273 
L 326.688288 198.283561 
L 327.187645 200.099058 
L 327.687001 201.063327 
L 328.186358 201.117551 
L 328.685714 200.225582 
L 329.185071 198.375802 
L 329.684427 195.582392 
L 330.183784 191.885935 
L 331.182497 182.076982 
L 332.680566 163.054677 
L 334.677992 136.406357 
L 335.676705 125.861534 
L 336.176062 121.907396 
L 336.675418 119.031967 
L 337.174775 117.356341 
L 337.674131 116.973357 
L 338.173488 117.943944 
L 338.672844 120.294194 
L 339.172201 124.01328 
L 339.671557 129.052303 
L 340.67027 142.70435 
L 341.668983 160.11819 
L 344.665122 216.865025 
L 345.663835 230.234091 
L 346.163192 234.753522 
L 346.662548 237.572839 
L 347.161905 238.547368 
L 347.661261 237.577541 
L 348.160618 234.613423 
L 348.659974 229.65805 
L 349.159331 222.769439 
L 350.158044 203.701439 
L 351.156757 178.957205 
L 354.652252 85.26769 
L 355.151609 76.077049 
L 355.650965 69.020756 
L 356.150322 64.377936 
L 356.649678 64.377936 
L 357.149035 69.020756 
L 357.648391 76.077049 
L 358.647104 96.267593 
L 359.645817 122.227802 
L 362.1426 191.910615 
L 363.141313 214.061168 
L 364.140026 229.65805 
L 364.639382 234.613423 
L 365.138739 237.577541 
L 365.638095 238.547368 
L 366.137452 237.572839 
L 366.636808 234.753522 
L 367.136165 230.234091 
L 368.134878 216.865025 
L 369.133591 199.295157 
L 372.12973 142.70435 
L 373.128443 129.052303 
L 373.627799 124.01328 
L 374.127156 120.294194 
L 374.626512 117.943944 
L 375.125869 116.973357 
L 375.625225 117.356341 
L 376.124582 119.031967 
L 376.623938 121.907396 
L 377.123295 125.861534 
L 378.122008 136.406357 
L 379.620077 156.168688 
L 381.118147 176.173251 
L 382.11686 187.353331 
L 383.115573 195.582392 
L 383.614929 198.375802 
L 384.114286 200.225582 
L 384.613642 201.117551 
L 385.112999 201.063327 
L 385.612355 200.099058 
L 386.111712 198.283561 
L 386.611068 195.695936 
L 387.609781 188.604758 
L 389.107851 174.981116 
L 391.105277 156.670628 
L 392.10399 149.556031 
L 392.603346 146.817858 
L 393.102703 144.700899 
L 393.602059 143.238976 
L 394.101416 142.447524 
L 394.600772 142.32384 
L 395.100129 142.84781 
L 395.599485 143.983059 
L 396.098842 145.678476 
L 397.097555 150.483122 
L 398.595624 159.992047 
L 400.59305 173.154151 
L 401.591763 178.422562 
L 402.590476 182.139205 
L 403.089833 183.319721 
L 403.589189 184.022633 
L 404.088546 184.244786 
L 404.587902 183.99559 
L 405.087259 183.296362 
L 405.586615 182.179386 
L 406.585328 178.868845 
L 407.584041 174.49164 
L 410.58018 160.127801 
L 411.578893 156.567525 
L 412.07825 155.232636 
L 412.577606 154.232675 
L 413.076963 153.584736 
L 413.576319 153.296479 
L 414.075676 153.366208 
L 414.575032 153.783164 
L 415.074389 154.528046 
L 415.573745 155.573716 
L 416.572458 158.425142 
L 418.070528 163.938009 
L 420.067954 171.49792 
L 421.066667 174.507116 
L 422.06538 176.601908 
L 422.564736 177.245451 
L 423.064093 177.601223 
L 423.563449 177.664503 
L 424.062806 177.437927 
L 424.562162 176.931314 
L 425.061519 176.161304 
L 426.060232 173.92864 
L 427.058945 170.987089 
L 430.55444 159.808552 
L 431.553153 157.704784 
L 432.05251 156.996872 
L 432.551866 156.543679 
L 433.051223 156.356438 
L 433.550579 156.439789 
L 434.049936 156.791666 
L 434.549292 157.40335 
L 435.048649 158.259667 
L 436.047362 160.615481 
L 437.046075 163.625413 
L 440.042214 173.409121 
L 441.040927 175.79968 
L 441.540283 176.665206 
L 442.03964 177.275454 
L 442.538996 177.61128 
L 443.038353 177.660193 
L 443.537709 177.416763 
L 444.037066 176.88287 
L 444.536422 176.067787 
L 445.535135 173.667331 
L 446.533848 170.429285 
L 450.5287 156.048978 
L 451.028057 154.896349 
L 451.527413 154.032167 
L 452.02677 153.486356 
L 452.526126 153.281325 
L 453.025483 153.43119 
L 453.524839 153.941181 
L 454.024196 154.807258 
L 454.523552 156.015948 
L 455.522265 159.360808 
L 456.520978 163.688207 
L 460.016474 180.023037 
L 461.015187 182.914098 
L 461.514543 183.778381 
L 462.0139 184.203812 
L 462.513256 184.164729 
L 463.012613 183.647048 
L 463.511969 182.649034 
L 464.011326 181.181766 
L 465.010039 176.948425 
L 466.008752 171.289125 
L 469.504247 148.8296 
L 470.50296 144.572082 
L 471.002317 143.214588 
L 471.501673 142.450364 
L 472.00103 142.321652 
L 472.500386 142.854979 
L 472.999743 144.059853 
L 473.499099 145.927874 
L 473.998456 148.43229 
L 474.997169 155.152289 
L 475.995882 163.6528 
L 478.992021 191.020827 
L 479.990734 197.374776 
L 480.49009 199.497626 
L 480.989447 200.797416 
L 481.488803 201.207221 
L 481.98816 200.681921 
L 482.487516 199.200282 
L 482.986873 196.766451 
L 483.486229 193.41083 
L 484.484942 184.187454 
L 485.483655 172.287358 
L 488.479794 132.843542 
L 489.478507 123.308004 
L 489.977864 120.001946 
L 490.47722 117.85224 
L 490.976577 116.96306 
L 491.475933 117.407997 
L 491.97529 119.226836 
L 492.474646 122.42314 
L 492.974003 126.962726 
L 493.972716 139.744076 
L 494.971429 156.547898 
L 498.466924 221.518969 
L 499.465637 233.207222 
L 499.964994 236.699843 
L 500.46435 238.398265 
L 500.963707 238.184974 
L 501.463063 235.990484 
L 501.96242 231.797143 
L 502.461776 225.641675 
L 503.460489 207.868458 
L 504.459202 184.057909 
L 507.954698 89.303336 
L 508.953411 71.463214 
L 509.452767 65.86244 
L 509.952124 63.284211 
L 510.45148 66.935905 
L 510.950837 73.094141 
L 511.450193 81.500061 
L 512.448906 103.780909 
L 513.946976 145.283764 
L 515.445045 187.049997 
L 516.443758 210.261174 
L 517.442471 227.232389 
L 517.941828 232.941218 
L 518.441184 236.674537 
L 518.940541 238.408322 
L 519.439897 238.172462 
L 519.939254 236.047909 
L 520.43861 232.162593 
L 520.937967 226.68625 
L 521.93668 211.811233 
L 523.434749 183.487116 
L 525.432175 145.805283 
L 526.430888 131.324644 
L 526.930245 125.79908 
L 527.429601 121.564444 
L 527.928958 118.684373 
L 528.428314 117.184255 
L 528.927671 117.051998 
L 529.427027 118.239772 
L 529.926384 120.666613 
L 530.42574 124.221823 
L 531.424453 134.150648 
L 532.922523 153.515995 
L 534.919949 179.873472 
L 535.918662 190.237081 
L 536.917375 197.411454 
L 537.416731 199.627282 
L 537.916088 200.887653 
L 538.415444 201.194377 
L 538.914801 200.574355 
L 539.414157 199.077942 
L 539.913514 196.776749 
L 540.912227 190.136338 
L 541.91094 181.540684 
L 544.907079 154.272923 
L 545.905792 147.79993 
L 546.405148 145.439037 
L 546.904505 143.722346 
L 547.403861 142.672361 
L 547.903218 142.293294 
L 548.402574 142.571613 
L 548.901931 143.477036 
L 549.401287 144.963917 
L 550.4 149.43337 
L 551.398713 155.380354 
L 554.394852 174.915642 
L 555.393565 179.74842 
L 555.892921 181.560965 
L 556.392278 182.921607 
L 556.891634 183.809287 
L 557.390991 184.215908 
L 557.890347 184.14611 
L 558.389704 183.616726 
L 558.88906 182.65595 
L 559.388417 181.302241 
L 560.38713 177.613079 
L 561.885199 170.524239 
L 563.882625 160.928884 
L 564.881338 157.164841 
L 565.880051 154.576342 
L 566.379408 153.791587 
L 566.878764 153.364685 
L 567.378121 153.297515 
L 567.877477 153.582753 
L 568.376834 154.204311 
L 568.87619 155.137969 
L 569.874903 157.809134 
L 570.873616 161.274702 
L 573.869755 172.506069 
L 574.868468 175.259605 
L 575.367825 176.280089 
L 575.867181 177.031491 
L 576.366538 177.498908 
L 576.865894 177.674772 
L 577.365251 177.558904 
L 577.864607 177.158391 
L 578.363964 176.487302 
L 579.362677 174.42175 
L 580.36139 171.593925 
L 584.356242 159.071683 
L 585.354955 157.239825 
L 585.854311 156.68698 
L 586.353668 156.396537 
L 586.853024 156.375692 
L 587.352381 156.624961 
L 587.851737 157.138168 
L 588.351094 157.90259 
L 589.349807 160.103337 
L 590.34852 163.009125 
L 593.844015 174.227805 
L 594.842728 176.361272 
L 595.342085 177.072315 
L 595.841441 177.51554 
L 596.340798 177.67584 
L 596.840154 177.54503 
L 597.339511 177.12216 
L 597.838867 176.413661 
L 598.338224 175.433315 
L 599.336937 172.747566 
L 600.33565 169.310009 
L 603.331789 158.052134 
L 604.330502 155.307392 
L 604.829858 154.328346 
L 605.329215 153.657003 
L 605.828571 153.318764 
L 605.828571 153.318764 
" clip-path="url(#p70e5932ebe)" style="fill: none; stroke: #0000ff; stroke-width: 2.5; stroke-linecap: square"/>
   </g>
   <g id="text_3">
    <!-- $\cdots$ -->
    <g style="fill: #0000ff" transform="translate(57.085714 126.672138) scale(0.18 -0.18)">
     <defs>
      <path id="DejaVuSans-22ef" d="M 740 2363 
L 1400 2363 
L 1400 1569 
L 740 1569 
L 740 2363 
z
M 2868 2363 
L 3528 2363 
L 3528 1569 
L 2868 1569 
L 2868 2363 
z
M 4996 2363 
L 5656 2363 
L 5656 1569 
L 4996 1569 
L 4996 2363 
z
" transform="scale(0.015625)"/>
     </defs>
     <use xlink:href="#DejaVuSans-22ef" transform="translate(0 0.078125)"/>
    </g>
   </g>
   <g id="text_4">
    <!-- $\cdots$ -->
    <g style="fill: #0000ff" transform="translate(637.714286 126.672138) scale(0.18 -0.18)">
     <use xlink:href="#DejaVuSans-22ef" transform="translate(0 0.078125)"/>
    </g>
   </g>
   <g id="text_5">
    <g id="patch_9">
     <path d="M 114.318242 191.727669 
L 137.998242 191.727669 
Q 139.598242 191.727669 139.598242 190.127669 
L 139.598242 174.642669 
Q 139.598242 173.042669 137.998242 173.042669 
L 114.318242 173.042669 
Q 112.718242 173.042669 112.718242 174.642669 
L 112.718242 190.127669 
Q 112.718242 191.727669 114.318242 191.727669 
z
" style="fill: #ffffff; opacity: 0.7"/>
    </g>
    <!-- $-6$ -->
    <g transform="translate(114.318242 186.800169) scale(0.16 -0.16)">
     <defs>
      <path id="DejaVuSans-2212" d="M 678 2272 
L 4684 2272 
L 4684 1741 
L 678 1741 
L 678 2272 
z
" transform="scale(0.015625)"/>
      <path id="DejaVuSans-36" d="M 2113 2584 
Q 1688 2584 1439 2293 
Q 1191 2003 1191 1497 
Q 1191 994 1439 701 
Q 1688 409 2113 409 
Q 2538 409 2786 701 
Q 3034 994 3034 1497 
Q 3034 2003 2786 2293 
Q 2538 2584 2113 2584 
z
M 3366 4563 
L 3366 3988 
Q 3128 4100 2886 4159 
Q 2644 4219 2406 4219 
Q 1781 4219 1451 3797 
Q 1122 3375 1075 2522 
Q 1259 2794 1537 2939 
Q 1816 3084 2150 3084 
Q 2853 3084 3261 2657 
Q 3669 2231 3669 1497 
Q 3669 778 3244 343 
Q 2819 -91 2113 -91 
Q 1303 -91 875 529 
Q 447 1150 447 2328 
Q 447 3434 972 4092 
Q 1497 4750 2381 4750 
Q 2619 4750 2861 4703 
Q 3103 4656 3366 4563 
z
" transform="scale(0.015625)"/>
     </defs>
     <use xlink:href="#DejaVuSans-2212" transform="translate(0 0.78125)"/>
     <use xlink:href="#DejaVuSans-36" transform="translate(83.789062 0.78125)"/>
    </g>
   </g>
   <g id="text_6">
    <g id="patch_10">
     <path d="M 191.065495 191.727669 
L 214.745495 191.727669 
Q 216.345495 191.727669 216.345495 190.127669 
L 216.345495 174.642669 
Q 216.345495 173.042669 214.745495 173.042669 
L 191.065495 173.042669 
Q 189.465495 173.042669 189.465495 174.642669 
L 189.465495 190.127669 
Q 189.465495 191.727669 191.065495 191.727669 
z
" style="fill: #ffffff; opacity: 0.7"/>
    </g>
    <!-- $-4$ -->
    <g transform="translate(191.065495 186.800169) scale(0.16 -0.16)">
     <defs>
      <path id="DejaVuSans-34" d="M 2419 4116 
L 825 1625 
L 2419 1625 
L 2419 4116 
z
M 2253 4666 
L 3047 4666 
L 3047 1625 
L 3713 1625 
L 3713 1100 
L 3047 1100 
L 3047 0 
L 2419 0 
L 2419 1100 
L 313 1100 
L 313 1709 
L 2253 4666 
z
" transform="scale(0.015625)"/>
     </defs>
     <use xlink:href="#DejaVuSans-2212" transform="translate(0 0.09375)"/>
     <use xlink:href="#DejaVuSans-34" transform="translate(83.789062 0.09375)"/>
    </g>
   </g>
   <g id="text_7">
    <g id="patch_11">
     <path d="M 267.812747 191.727669 
L 291.492747 191.727669 
Q 293.092747 191.727669 293.092747 190.127669 
L 293.092747 174.642669 
Q 293.092747 173.042669 291.492747 173.042669 
L 267.812747 173.042669 
Q 266.212747 173.042669 266.212747 174.642669 
L 266.212747 190.127669 
Q 266.212747 191.727669 267.812747 191.727669 
z
" style="fill: #ffffff; opacity: 0.7"/>
    </g>
    <!-- $-2$ -->
    <g transform="translate(267.812747 186.800169) scale(0.16 -0.16)">
     <defs>
      <path id="DejaVuSans-32" d="M 1228 531 
L 3431 531 
L 3431 0 
L 469 0 
L 469 531 
Q 828 903 1448 1529 
Q 2069 2156 2228 2338 
Q 2531 2678 2651 2914 
Q 2772 3150 2772 3378 
Q 2772 3750 2511 3984 
Q 2250 4219 1831 4219 
Q 1534 4219 1204 4116 
Q 875 4013 500 3803 
L 500 4441 
Q 881 4594 1212 4672 
Q 1544 4750 1819 4750 
Q 2544 4750 2975 4387 
Q 3406 4025 3406 3419 
Q 3406 3131 3298 2873 
Q 3191 2616 2906 2266 
Q 2828 2175 2409 1742 
Q 1991 1309 1228 531 
z
" transform="scale(0.015625)"/>
     </defs>
     <use xlink:href="#DejaVuSans-2212" transform="translate(0 0.78125)"/>
     <use xlink:href="#DejaVuSans-32" transform="translate(83.789062 0.78125)"/>
    </g>
   </g>
   <g id="text_8">
    <g id="patch_12">
     <path d="M 343.28 191.727669 
L 353.52 191.727669 
Q 355.12 191.727669 355.12 190.127669 
L 355.12 174.642669 
Q 355.12 173.042669 353.52 173.042669 
L 343.28 173.042669 
Q 341.68 173.042669 341.68 174.642669 
L 341.68 190.127669 
Q 341.68 191.727669 343.28 191.727669 
z
" style="fill: #ffffff; opacity: 0.7"/>
    </g>
    <!-- $0$ -->
    <g transform="translate(343.28 186.800169) scale(0.16 -0.16)">
     <defs>
      <path id="DejaVuSans-30" d="M 2034 4250 
Q 1547 4250 1301 3770 
Q 1056 3291 1056 2328 
Q 1056 1369 1301 889 
Q 1547 409 2034 409 
Q 2525 409 2770 889 
Q 3016 1369 3016 2328 
Q 3016 3291 2770 3770 
Q 2525 4250 2034 4250 
z
M 2034 4750 
Q 2819 4750 3233 4129 
Q 3647 3509 3647 2328 
Q 3647 1150 3233 529 
Q 2819 -91 2034 -91 
Q 1250 -91 836 529 
Q 422 1150 422 2328 
Q 422 3509 836 4129 
Q 1250 4750 2034 4750 
z
" transform="scale(0.015625)"/>
     </defs>
     <use xlink:href="#DejaVuSans-30" transform="translate(0 0.78125)"/>
    </g>
   </g>
   <g id="text_9">
    <g id="patch_13">
     <path d="M 428.027253 191.727669 
L 438.267253 191.727669 
Q 439.867253 191.727669 439.867253 190.127669 
L 439.867253 174.642669 
Q 439.867253 173.042669 438.267253 173.042669 
L 428.027253 173.042669 
Q 426.427253 173.042669 426.427253 174.642669 
L 426.427253 190.127669 
Q 426.427253 191.727669 428.027253 191.727669 
z
" style="fill: #ffffff; opacity: 0.7"/>
    </g>
    <!-- $2$ -->
    <g transform="translate(428.027253 186.800169) scale(0.16 -0.16)">
     <use xlink:href="#DejaVuSans-32" transform="translate(0 0.78125)"/>
    </g>
   </g>
   <g id="text_10">
    <g id="patch_14">
     <path d="M 504.774505 191.727669 
L 515.014505 191.727669 
Q 516.614505 191.727669 516.614505 190.127669 
L 516.614505 174.642669 
Q 516.614505 173.042669 515.014505 173.042669 
L 504.774505 173.042669 
Q 503.174505 173.042669 503.174505 174.642669 
L 503.174505 190.127669 
Q 503.174505 191.727669 504.774505 191.727669 
z
" style="fill: #ffffff; opacity: 0.7"/>
    </g>
    <!-- $4$ -->
    <g transform="translate(504.774505 186.800169) scale(0.16 -0.16)">
     <use xlink:href="#DejaVuSans-34" transform="translate(0 0.09375)"/>
    </g>
   </g>
   <g id="text_11">
    <g id="patch_15">
     <path d="M 581.521758 191.727669 
L 591.761758 191.727669 
Q 593.361758 191.727669 593.361758 190.127669 
L 593.361758 174.642669 
Q 593.361758 173.042669 591.761758 173.042669 
L 581.521758 173.042669 
Q 579.921758 173.042669 579.921758 174.642669 
L 579.921758 190.127669 
Q 579.921758 191.727669 581.521758 191.727669 
z
" style="fill: #ffffff; opacity: 0.7"/>
    </g>
    <!-- $6$ -->
    <g transform="translate(581.521758 186.800169) scale(0.16 -0.16)">
     <use xlink:href="#DejaVuSans-36" transform="translate(0 0.78125)"/>
    </g>
   </g>
   <g id="text_12">
    <g id="patch_16">
     <path d="M 342.16 72.888744 
L 352.4 72.888744 
Q 354 72.888744 354 71.288744 
L 354 55.803744 
Q 354 54.203744 352.4 54.203744 
L 342.16 54.203744 
Q 340.56 54.203744 340.56 55.803744 
L 340.56 71.288744 
Q 340.56 72.888744 342.16 72.888744 
z
" style="fill: #ffffff; opacity: 0.7"/>
    </g>
    <!-- $1$ -->
    <g transform="translate(342.16 67.961244) scale(0.16 -0.16)">
     <defs>
      <path id="DejaVuSans-31" d="M 794 531 
L 1825 531 
L 1825 4091 
L 703 3866 
L 703 4441 
L 1819 4666 
L 2450 4666 
L 2450 531 
L 3481 531 
L 3481 0 
L 794 0 
L 794 531 
z
" transform="scale(0.015625)"/>
     </defs>
     <use xlink:href="#DejaVuSans-31" transform="translate(0 0.09375)"/>
    </g>
   </g>
  </g>
 </g>
 <defs>
  <clipPath id="p70e5932ebe">
   <rect x="7.2" y="7.2" width="698.4" height="266.4"/>
  </clipPath>
 </defs>
</svg>
