<?xml version="1.0" encoding="utf-8" standalone="no"?>
<!DOCTYPE svg PUBLIC "-//W3C//DTD SVG 1.1//EN"
  "http://www.w3.org/Graphics/SVG/1.1/DTD/svg11.dtd">
<svg xmlns:xlink="http://www.w3.org/1999/xlink" width="712.8pt" height="206.354875pt" viewBox="0 0 712.8 206.354875" xmlns="http://www.w3.org/2000/svg" version="1.1">
 <metadata>
  <rdf:RDF xmlns:dc="http://purl.org/dc/elements/1.1/" xmlns:cc="http://creativecommons.org/ns#" xmlns:rdf="http://www.w3.org/1999/02/22-rdf-syntax-ns#">
   <cc:Work>
    <dc:type rdf:resource="http://purl.org/dc/dcmitype/StillImage"/>
    <dc:date>2026-01-31T12:37:07.201963</dc:date>
    <dc:format>image/svg+xml</dc:format>
    <dc:creator>
     <cc:Agent>
      <dc:title>Matplotlib v3.10.8, https://matplotlib.org/</dc:title>
     </cc:Agent>
    </dc:creator>
   </cc:Work>
  </rdf:RDF>
 </metadata>
 <defs>
  <style type="text/css">*{stroke-linejoin: round; stroke-linecap: butt}</style>
 </defs>
 <g id="figure_1">
  <g id="patch_1">
   <path d="M 0 206.354875 
L 712.8 206.354875 
L 712.8 0 
L 0 0 
z
" style="fill: #ffffff"/>
  </g>
  <g id="axes_1">
   <g id="patch_2">
    <path d="M 7.2 199.154875 
L 705.6 199.154875 
L 705.6 7.378625 
L 7.2 7.378625 
z
" style="fill: #ffffff"/>
   </g>
   <g id="matplotlib.axis_1"/>
   <g id="matplotlib.axis_2"/>
   <g id="line2d_1">
    <path d="M 223.371429 112.612571 
L 223.371429 109.061159 
" style="fill: none; stroke: #000000; stroke-width: 1.2; stroke-linecap: square"/>
   </g>
   <g id="line2d_2">
    <path d="M 289.885714 112.612571 
L 289.885714 109.061159 
" style="fill: none; stroke: #000000; stroke-width: 1.2; stroke-linecap: square"/>
   </g>
   <g id="line2d_3">
    <path d="M 356.4 112.612571 
L 356.4 109.061159 
" style="fill: none; stroke: #000000; stroke-width: 1.2; stroke-linecap: square"/>
   </g>
   <g id="line2d_4">
    <path d="M 422.914286 112.612571 
L 422.914286 109.061159 
" style="fill: none; stroke: #000000; stroke-width: 1.2; stroke-linecap: square"/>
   </g>
   <g id="line2d_5">
    <path d="M 489.428571 112.612571 
L 489.428571 109.061159 
" style="fill: none; stroke: #000000; stroke-width: 1.2; stroke-linecap: square"/>
   </g>
   <g id="line2d_6">
    <path d="M 354.6 174.016021 
L 358.2 174.016021 
" style="fill: none; stroke: #000000; stroke-width: 1.2; stroke-linecap: square"/>
   </g>
   <g id="line2d_7">
    <path d="M 354.6 47.657709 
L 358.2 47.657709 
" style="fill: none; stroke: #000000; stroke-width: 1.2; stroke-linecap: square"/>
   </g>
   <g id="patch_3">
    <path d="M 7.2 199.154875 
L 7.2 7.378625 
" style="fill: none"/>
   </g>
   <g id="patch_4">
    <path d="M 705.6 199.154875 
L 705.6 7.378625 
" style="fill: none"/>
   </g>
   <g id="patch_5">
    <path d="M 7.2 199.154875 
L 705.6 199.154875 
" style="fill: none"/>
   </g>
   <g id="patch_6">
    <path d="M 7.2 7.378625 
L 705.6 7.378625 
" style="fill: none"/>
   </g>
   <g id="patch_7">
    <path d="M 9.200803 110.836865 
Q 356.400209 110.836865 701.922565 110.836865 
" style="fill: none; stroke: #000000; stroke-width: 1.5; stroke-linecap: round"/>
    <path d="M 695.522565 108.276865 
L 701.922565 110.836865 
L 695.522565 113.396865 
z
" style="stroke: #000000; stroke-width: 1.5; stroke-linecap: round"/>
   </g>
   <g id="patch_8">
    <path d="M 356.4 197.15623 
Q 356.4 103.267918 356.4 12.733708 
" style="fill: none; stroke: #000000; stroke-width: 1.5; stroke-linecap: round"/>
    <path d="M 354 22.333708 
L 356.4 12.733708 
L 358.8 22.333708 
z
" style="stroke: #000000; stroke-width: 1.5; stroke-linecap: round"/>
   </g>
   <g id="text_1">
    <!-- $t$ -->
    <g transform="translate(690.616 102.841965) scale(0.2 -0.2)">
     <defs>
      <path id="DejaVuSans-Oblique-74" d="M 2706 3500 
L 2619 3053 
L 1472 3053 
L 1100 1153 
Q 1081 1047 1072 975 
Q 1063 903 1063 863 
Q 1063 663 1183 572 
Q 1303 481 1569 481 
L 2150 481 
L 2053 0 
L 1503 0 
Q 991 0 739 200 
Q 488 400 488 806 
Q 488 878 497 964 
Q 506 1050 525 1153 
L 897 3053 
L 409 3053 
L 500 3500 
L 978 3500 
L 1172 4494 
L 1747 4494 
L 1556 3500 
L 2706 3500 
z
" transform="scale(0.015625)"/>
     </defs>
     <use xlink:href="#DejaVuSans-Oblique-74" transform="translate(0 0.78125)"/>
    </g>
   </g>
   <g id="text_2">
    <!-- $\tilde{x}(t)$ -->
    <g transform="translate(363.384 22.396875) scale(0.2 -0.2)">
     <defs>
      <path id="DejaVuSans-303" d="M -1621 4281 
L -1799 4453 
Q -1867 4516 -1919 4545 
Q -1971 4575 -2011 4575 
Q -2130 4575 -2186 4461 
Q -2242 4347 -2249 4091 
L -2639 4091 
Q -2633 4513 -2473 4742 
Q -2314 4972 -2030 4972 
Q -1911 4972 -1811 4928 
Q -1711 4884 -1596 4781 
L -1417 4609 
Q -1349 4547 -1297 4517 
Q -1246 4488 -1205 4488 
Q -1086 4488 -1030 4602 
Q -974 4716 -967 4972 
L -577 4972 
Q -583 4550 -742 4320 
Q -902 4091 -1186 4091 
Q -1305 4091 -1405 4134 
Q -1505 4178 -1621 4281 
z
" transform="scale(0.015625)"/>
      <path id="DejaVuSans-Oblique-78" d="M 3841 3500 
L 2234 1784 
L 3219 0 
L 2559 0 
L 1819 1388 
L 531 0 
L -166 0 
L 1556 1844 
L 641 3500 
L 1300 3500 
L 1972 2234 
L 3144 3500 
L 3841 3500 
z
" transform="scale(0.015625)"/>
      <path id="DejaVuSans-28" d="M 1984 4856 
Q 1566 4138 1362 3434 
Q 1159 2731 1159 2009 
Q 1159 1288 1364 580 
Q 1569 -128 1984 -844 
L 1484 -844 
Q 1016 -109 783 600 
Q 550 1309 550 2009 
Q 550 2706 781 3412 
Q 1013 4119 1484 4856 
L 1984 4856 
z
" transform="scale(0.015625)"/>
      <path id="DejaVuSans-29" d="M 513 4856 
L 1013 4856 
Q 1481 4119 1714 3412 
Q 1947 2706 1947 2009 
Q 1947 1309 1714 600 
Q 1481 -109 1013 -844 
L 513 -844 
Q 928 -128 1133 580 
Q 1338 1288 1338 2009 
Q 1338 2731 1133 3434 
Q 928 4138 513 4856 
z
" transform="scale(0.015625)"/>
     </defs>
     <use xlink:href="#DejaVuSans-303" transform="translate(62.029297 3.3125)"/>
     <use xlink:href="#DejaVuSans-Oblique-78" transform="translate(0 0.046875)"/>
     <use xlink:href="#DejaVuSans-28" transform="translate(59.179688 0.046875)"/>
     <use xlink:href="#DejaVuSans-Oblique-74" transform="translate(98.193359 0.046875)"/>
     <use xlink:href="#DejaVuSans-29" transform="translate(137.402344 0.046875)"/>
    </g>
   </g>
   <g id="line2d_8">
    <path d="M 106.971429 79.247287 
L 156.907079 173.921158 
L 223.321493 47.752572 
L 224.320206 49.460117 
L 289.735907 173.731431 
L 290.235264 173.351976 
L 356.150322 48.132027 
L 356.649678 48.132027 
L 422.564736 173.351976 
L 423.064093 173.731431 
L 489.478507 47.752572 
L 555.892921 173.921158 
L 556.891634 172.213613 
L 605.828571 79.247287 
L 605.828571 79.247287 
" clip-path="url(#pdc508a3ba9)" style="fill: none; stroke: #0000ff; stroke-width: 2.5; stroke-linecap: square"/>
   </g>
   <g id="text_3">
    <!-- $\cdots$ -->
    <g style="fill: #0000ff" transform="translate(57.085714 94.775643) scale(0.18 -0.18)">
     <defs>
      <path id="DejaVuSans-22ef" d="M 740 2363 
L 1400 2363 
L 1400 1569 
L 740 1569 
L 740 2363 
z
M 2868 2363 
L 3528 2363 
L 3528 1569 
L 2868 1569 
L 2868 2363 
z
M 4996 2363 
L 5656 2363 
L 5656 1569 
L 4996 1569 
L 4996 2363 
z
" transform="scale(0.015625)"/>
     </defs>
     <use xlink:href="#DejaVuSans-22ef" transform="translate(0 0.078125)"/>
    </g>
   </g>
   <g id="text_4">
    <!-- $\cdots$ -->
    <g style="fill: #0000ff" transform="translate(637.714286 94.775643) scale(0.18 -0.18)">
     <use xlink:href="#DejaVuSans-22ef" transform="translate(0 0.078125)"/>
    </g>
   </g>
   <g id="text_5">
    <g id="patch_9">
     <path d="M 211.531429 135.921865 
L 235.211429 135.921865 
Q 236.811429 135.921865 236.811429 134.321865 
L 236.811429 118.836865 
Q 236.811429 117.236865 235.211429 117.236865 
L 211.531429 117.236865 
Q 209.931429 117.236865 209.931429 118.836865 
L 209.931429 134.321865 
Q 209.931429 135.921865 211.531429 135.921865 
z
" style="fill: #ffffff; opacity: 0.7"/>
    </g>
    <!-- $-4$ -->
    <g transform="translate(211.531429 130.994365) scale(0.16 -0.16)">
     <defs>
      <path id="DejaVuSans-2212" d="M 678 2272 
L 4684 2272 
L 4684 1741 
L 678 1741 
L 678 2272 
z
" transform="scale(0.015625)"/>
      <path id="DejaVuSans-34" d="M 2419 4116 
L 825 1625 
L 2419 1625 
L 2419 4116 
z
M 2253 4666 
L 3047 4666 
L 3047 1625 
L 3713 1625 
L 3713 1100 
L 3047 1100 
L 3047 0 
L 2419 0 
L 2419 1100 
L 313 1100 
L 313 1709 
L 2253 4666 
z
" transform="scale(0.015625)"/>
     </defs>
     <use xlink:href="#DejaVuSans-2212" transform="translate(0 0.09375)"/>
     <use xlink:href="#DejaVuSans-34" transform="translate(83.789062 0.09375)"/>
    </g>
   </g>
   <g id="text_6">
    <g id="patch_10">
     <path d="M 278.045714 135.921865 
L 301.725714 135.921865 
Q 303.325714 135.921865 303.325714 134.321865 
L 303.325714 118.836865 
Q 303.325714 117.236865 301.725714 117.236865 
L 278.045714 117.236865 
Q 276.445714 117.236865 276.445714 118.836865 
L 276.445714 134.321865 
Q 276.445714 135.921865 278.045714 135.921865 
z
" style="fill: #ffffff; opacity: 0.7"/>
    </g>
    <!-- $-2$ -->
    <g transform="translate(278.045714 130.994365) scale(0.16 -0.16)">
     <defs>
      <path id="DejaVuSans-32" d="M 1228 531 
L 3431 531 
L 3431 0 
L 469 0 
L 469 531 
Q 828 903 1448 1529 
Q 2069 2156 2228 2338 
Q 2531 2678 2651 2914 
Q 2772 3150 2772 3378 
Q 2772 3750 2511 3984 
Q 2250 4219 1831 4219 
Q 1534 4219 1204 4116 
Q 875 4013 500 3803 
L 500 4441 
Q 881 4594 1212 4672 
Q 1544 4750 1819 4750 
Q 2544 4750 2975 4387 
Q 3406 4025 3406 3419 
Q 3406 3131 3298 2873 
Q 3191 2616 2906 2266 
Q 2828 2175 2409 1742 
Q 1991 1309 1228 531 
z
" transform="scale(0.015625)"/>
     </defs>
     <use xlink:href="#DejaVuSans-2212" transform="translate(0 0.78125)"/>
     <use xlink:href="#DejaVuSans-32" transform="translate(83.789062 0.78125)"/>
    </g>
   </g>
   <g id="text_7">
    <g id="patch_11">
     <path d="M 343.28 135.921865 
L 353.52 135.921865 
Q 355.12 135.921865 355.12 134.321865 
L 355.12 118.836865 
Q 355.12 117.236865 353.52 117.236865 
L 343.28 117.236865 
Q 341.68 117.236865 341.68 118.836865 
L 341.68 134.321865 
Q 341.68 135.921865 343.28 135.921865 
z
" style="fill: #ffffff; opacity: 0.7"/>
    </g>
    <!-- $0$ -->
    <g transform="translate(343.28 130.994365) scale(0.16 -0.16)">
     <defs>
      <path id="DejaVuSans-30" d="M 2034 4250 
Q 1547 4250 1301 3770 
Q 1056 3291 1056 2328 
Q 1056 1369 1301 889 
Q 1547 409 2034 409 
Q 2525 409 2770 889 
Q 3016 1369 3016 2328 
Q 3016 3291 2770 3770 
Q 2525 4250 2034 4250 
z
M 2034 4750 
Q 2819 4750 3233 4129 
Q 3647 3509 3647 2328 
Q 3647 1150 3233 529 
Q 2819 -91 2034 -91 
Q 1250 -91 836 529 
Q 422 1150 422 2328 
Q 422 3509 836 4129 
Q 1250 4750 2034 4750 
z
" transform="scale(0.015625)"/>
     </defs>
     <use xlink:href="#DejaVuSans-30" transform="translate(0 0.78125)"/>
    </g>
   </g>
   <g id="text_8">
    <g id="patch_12">
     <path d="M 417.794286 135.921865 
L 428.034286 135.921865 
Q 429.634286 135.921865 429.634286 134.321865 
L 429.634286 118.836865 
Q 429.634286 117.236865 428.034286 117.236865 
L 417.794286 117.236865 
Q 416.194286 117.236865 416.194286 118.836865 
L 416.194286 134.321865 
Q 416.194286 135.921865 417.794286 135.921865 
z
" style="fill: #ffffff; opacity: 0.7"/>
    </g>
    <!-- $2$ -->
    <g transform="translate(417.794286 130.994365) scale(0.16 -0.16)">
     <use xlink:href="#DejaVuSans-32" transform="translate(0 0.78125)"/>
    </g>
   </g>
   <g id="text_9">
    <g id="patch_13">
     <path d="M 484.308571 135.921865 
L 494.548571 135.921865 
Q 496.148571 135.921865 496.148571 134.321865 
L 496.148571 118.836865 
Q 496.148571 117.236865 494.548571 117.236865 
L 484.308571 117.236865 
Q 482.708571 117.236865 482.708571 118.836865 
L 482.708571 134.321865 
Q 482.708571 135.921865 484.308571 135.921865 
z
" style="fill: #ffffff; opacity: 0.7"/>
    </g>
    <!-- $4$ -->
    <g transform="translate(484.308571 130.994365) scale(0.16 -0.16)">
     <use xlink:href="#DejaVuSans-34" transform="translate(0 0.09375)"/>
    </g>
   </g>
   <g id="text_10">
    <g id="patch_14">
     <path d="M 328.72 183.358521 
L 352.4 183.358521 
Q 354 183.358521 354 181.758521 
L 354 166.273521 
Q 354 164.673521 352.4 164.673521 
L 328.72 164.673521 
Q 327.12 164.673521 327.12 166.273521 
L 327.12 181.758521 
Q 327.12 183.358521 328.72 183.358521 
z
" style="fill: #ffffff; opacity: 0.7"/>
    </g>
    <!-- $-1$ -->
    <g transform="translate(328.72 178.431021) scale(0.16 -0.16)">
     <defs>
      <path id="DejaVuSans-31" d="M 794 531 
L 1825 531 
L 1825 4091 
L 703 3866 
L 703 4441 
L 1819 4666 
L 2450 4666 
L 2450 531 
L 3481 531 
L 3481 0 
L 794 0 
L 794 531 
z
" transform="scale(0.015625)"/>
     </defs>
     <use xlink:href="#DejaVuSans-2212" transform="translate(0 0.09375)"/>
     <use xlink:href="#DejaVuSans-31" transform="translate(83.789062 0.09375)"/>
    </g>
   </g>
   <g id="text_11">
    <g id="patch_15">
     <path d="M 342.16 57.000209 
L 352.4 57.000209 
Q 354 57.000209 354 55.400209 
L 354 39.915209 
Q 354 38.315209 352.4 38.315209 
L 342.16 38.315209 
Q 340.56 38.315209 340.56 39.915209 
L 340.56 55.400209 
Q 340.56 57.000209 342.16 57.000209 
z
" style="fill: #ffffff; opacity: 0.7"/>
    </g>
    <!-- $1$ -->
    <g transform="translate(342.16 52.072709) scale(0.16 -0.16)">
     <use xlink:href="#DejaVuSans-31" transform="translate(0 0.09375)"/>
    </g>
   </g>
  </g>
 </g>
 <defs>
  <clipPath id="pdc508a3ba9">
   <rect x="7.2" y="7.378625" width="698.4" height="191.77625"/>
  </clipPath>
 </defs>
</svg>
