<?xml version="1.0" encoding="UTF-8" standalone="no"?>
<svg
   xmlns:dc="http://purl.org/dc/elements/1.1/"
   xmlns:cc="http://creativecommons.org/ns#"
   xmlns:rdf="http://www.w3.org/1999/02/22-rdf-syntax-ns#"
   xmlns:svg="http://www.w3.org/2000/svg"
   xmlns="http://www.w3.org/2000/svg"
   xmlns:xlink="http://www.w3.org/1999/xlink"
   xmlns:sodipodi="http://sodipodi.sourceforge.net/DTD/sodipodi-0.dtd"
   xmlns:inkscape="http://www.inkscape.org/namespaces/inkscape"
   height="367.765425pt"
   version="1.1"
   viewBox="0 0 428.568 367.765425"
   width="428.568pt"
   id="svg190"
   sodipodi:docname="example4_inverse_causal.svg"
   inkscape:version="1.0.2 (e86c870879, 2021-01-15)"
   inkscape:export-filename="/home/sapap9/PythonCode/PID/SIL-JB-main/content/figures/T7/example4_inverse_causal.png"
   inkscape:export-xdpi="300"
   inkscape:export-ydpi="300">
  <sodipodi:namedview
     pagecolor="#ffffff"
     bordercolor="#666666"
     borderopacity="1"
     objecttolerance="10"
     gridtolerance="10"
     guidetolerance="10"
     inkscape:pageopacity="0"
     inkscape:pageshadow="2"
     inkscape:window-width="2048"
     inkscape:window-height="967"
     id="namedview192"
     showgrid="false"
     inkscape:zoom="1.6314748"
     inkscape:cx="285.712"
     inkscape:cy="245.17694"
     inkscape:window-x="0"
     inkscape:window-y="27"
     inkscape:window-maximized="1"
     inkscape:current-layer="svg190" />
  <metadata
     id="metadata2">
    <rdf:RDF>
      <cc:Work>
        <dc:type
           rdf:resource="http://purl.org/dc/dcmitype/StillImage" />
        <dc:date>2026-01-14T13:40:36.625190</dc:date>
        <dc:format>image/svg+xml</dc:format>
        <dc:creator>
          <cc:Agent>
            <dc:title>Matplotlib v3.4.3, https://matplotlib.org/</dc:title>
          </cc:Agent>
        </dc:creator>
      </cc:Work>
    </rdf:RDF>
  </metadata>
  <defs
     id="defs6">
    <style
       type="text/css"
       id="style4">*{stroke-linecap:butt;stroke-linejoin:round;}</style>
    <rect
       x="191.78645"
       y="336.76401"
       width="206.08917"
       height="27.305189"
       id="rect949" />
    <rect
       x="191.78645"
       y="336.76401"
       width="206.08917"
       height="27.305189"
       id="rect1041" />
  </defs>
  <g
     id="figure_1">
    <g
       id="patch_1">
      <path
         d="M 0 367.765425  L 428.568 367.765425  L 428.568 0  L 0 0  z "
         style="fill:#ffffff;"
         id="path8" />
    </g>
    <g
       id="axes_1">
      <g
         id="patch_2">
        <path
           d="M 7.2 360.565425  L 333.36 360.565425  L 333.36 34.405425  L 7.2 34.405425  z "
           style="fill:#ffffff;"
           id="path11" />
      </g>
      <g
         id="patch_3">
        <path
           clip-path="url(#pb956cdd920)"
           d="M 170.28 605.185425  C 278.403304 605.185425 382.112713 562.227581 458.567435 485.77286  C 535.022156 409.318138 577.98 305.608729 577.98 197.485425  C 577.98 89.362121 535.022156 -14.347288 458.567435 -90.80201  C 382.112713 -167.256731 278.403304 -210.214575 170.28 -210.214575  C 62.156696 -210.214575 -41.552713 -167.256731 -118.007435 -90.80201  C -194.462156 -14.347288 -237.42 89.362121 -237.42 197.485425  C -237.42 305.608729 -194.462156 409.318138 -118.007435 485.77286  C -41.552713 562.227581 62.156696 605.185425 170.28 605.185425  z "
           style="fill:#ffa500;opacity:0.3;stroke:#ffa500;stroke-linejoin:miter;stroke-width:2;"
           id="path14" />
      </g>
      <g
         id="patch_4">
        <path
           clip-path="url(#pb956cdd920)"
           d="M 170.28 279.025425  C 191.904661 279.025425 212.646543 270.433856 227.937487 255.142912  C 243.228431 239.851968 251.82 219.110086 251.82 197.485425  C 251.82 175.860764 243.228431 155.118882 227.937487 139.827938  C 212.646543 124.536994 191.904661 115.945425 170.28 115.945425  C 148.655339 115.945425 127.913457 124.536994 112.622513 139.827938  C 97.331569 155.118882 88.74 175.860764 88.74 197.485425  C 88.74 219.110086 97.331569 239.851968 112.622513 255.142912  C 127.913457 270.433856 148.655339 279.025425 170.28 279.025425  z "
           style="fill:#ffffff;"
           id="path17" />
      </g>
      <g
         id="matplotlib.axis_1" />
      <g
         id="matplotlib.axis_2" />
      <g
         id="patch_5">
        <path
           clip-path="url(#pb956cdd920)"
           d="M 170.28 279.025425  C 191.904661 279.025425 212.646543 270.433856 227.937487 255.142912  C 243.228431 239.851968 251.82 219.110086 251.82 197.485425  C 251.82 175.860764 243.228431 155.118882 227.937487 139.827938  C 212.646543 124.536994 191.904661 115.945425 170.28 115.945425  C 148.655339 115.945425 127.913457 124.536994 112.622513 139.827938  C 97.331569 155.118882 88.74 175.860764 88.74 197.485425  C 88.74 219.110086 97.331569 239.851968 112.622513 255.142912  C 127.913457 270.433856 148.655339 279.025425 170.28 279.025425  z "
           style="fill:none;stroke:#ffa500;stroke-linejoin:miter;stroke-width:2;"
           id="path22" />
      </g>
      <g
         id="legend_1">
        <g
           id="patch_6">
          <path
             d="M 356.668 101.5398  L 419.368 101.5398  Q 421.368 101.5398 421.368 99.5398  L 421.368 41.405425  Q 421.368 39.405425 419.368 39.405425  L 356.668 39.405425  Q 354.668 39.405425 354.668 41.405425  L 354.668 99.5398  Q 354.668 101.5398 356.668 101.5398  z "
             style="fill:#ffffff;opacity:0.8;stroke:#cccccc;stroke-linejoin:miter;"
             id="path25" />
        </g>
        <g
           id="patch_7">
          <path
             d="M 358.668 51.003862  L 378.668 51.003862  L 378.668 44.003862  L 358.668 44.003862  z "
             style="fill:none;stroke:#ffa500;stroke-linejoin:miter;stroke-width:2;"
             id="path28" />
        </g>
        <g
           id="text_1">
          <!-- ROC -->
          <g
             transform="translate(386.668 51.003862)scale(0.1 -0.1)"
             id="g42">
            <defs
               id="defs34">
              <path
                 d="M 2841 2188  Q 3044 2119 3236 1894  Q 3428 1669 3622 1275  L 4263 0  L 3584 0  L 2988 1197  Q 2756 1666 2539 1819  Q 2322 1972 1947 1972  L 1259 1972  L 1259 0  L 628 0  L 628 4666  L 2053 4666  Q 2853 4666 3247 4331  Q 3641 3997 3641 3322  Q 3641 2881 3436 2590  Q 3231 2300 2841 2188  z M 1259 4147  L 1259 2491  L 2053 2491  Q 2509 2491 2742 2702  Q 2975 2913 2975 3322  Q 2975 3731 2742 3939  Q 2509 4147 2053 4147  L 1259 4147  z "
                 id="DejaVuSans-52"
                 transform="scale(0.015625)" />
              <path
                 d="M 2522 4238  Q 1834 4238 1429 3725  Q 1025 3213 1025 2328  Q 1025 1447 1429 934  Q 1834 422 2522 422  Q 3209 422 3611 934  Q 4013 1447 4013 2328  Q 4013 3213 3611 3725  Q 3209 4238 2522 4238  z M 2522 4750  Q 3503 4750 4090 4092  Q 4678 3434 4678 2328  Q 4678 1225 4090 567  Q 3503 -91 2522 -91  Q 1538 -91 948 565  Q 359 1222 359 2328  Q 359 3434 948 4092  Q 1538 4750 2522 4750  z "
                 id="DejaVuSans-4f"
                 transform="scale(0.015625)" />
              <path
                 d="M 4122 4306  L 4122 3641  Q 3803 3938 3442 4084  Q 3081 4231 2675 4231  Q 1875 4231 1450 3742  Q 1025 3253 1025 2328  Q 1025 1406 1450 917  Q 1875 428 2675 428  Q 3081 428 3442 575  Q 3803 722 4122 1019  L 4122 359  Q 3791 134 3420 21  Q 3050 -91 2638 -91  Q 1578 -91 968 557  Q 359 1206 359 2328  Q 359 3453 968 4101  Q 1578 4750 2638 4750  Q 3056 4750 3426 4639  Q 3797 4528 4122 4306  z "
                 id="DejaVuSans-43"
                 transform="scale(0.015625)" />
            </defs>
            <use
               xlink:href="#DejaVuSans-52"
               id="use36" />
            <use
               x="69.482422"
               xlink:href="#DejaVuSans-4f"
               id="use38" />
            <use
               x="148.193359"
               xlink:href="#DejaVuSans-43"
               id="use40" />
          </g>
        </g>
        <g
           id="patch_8">
          <path
             d="M 358.668 65.78355  L 378.668 65.78355  L 378.668 58.78355  L 358.668 58.78355  z "
             style="fill:none;stroke:#ff0000;stroke-dasharray:4.44,1.92;stroke-dashoffset:0;stroke-linejoin:miter;stroke-width:1.2;"
             id="path45" />
        </g>
        <g
           id="text_2">
          <!-- $|z|=1$ -->
          <g
             transform="translate(386.668 65.78355)scale(0.1 -0.1)"
             id="g64">
            <defs
               id="defs52">
              <path
                 d="M 1344 4891  L 1344 -1509  L 813 -1509  L 813 4891  L 1344 4891  z "
                 id="DejaVuSans-7c"
                 transform="scale(0.015625)" />
              <path
                 d="M 744 3500  L 3475 3500  L 3372 2975  L 738 459  L 2913 459  L 2822 0  L -19 0  L 84 525  L 2719 3041  L 653 3041  L 744 3500  z "
                 id="DejaVuSans-Oblique-7a"
                 transform="scale(0.015625)" />
              <path
                 d="M 678 2906  L 4684 2906  L 4684 2381  L 678 2381  L 678 2906  z M 678 1631  L 4684 1631  L 4684 1100  L 678 1100  L 678 1631  z "
                 id="DejaVuSans-3d"
                 transform="scale(0.015625)" />
              <path
                 d="M 794 531  L 1825 531  L 1825 4091  L 703 3866  L 703 4441  L 1819 4666  L 2450 4666  L 2450 531  L 3481 531  L 3481 0  L 794 0  L 794 531  z "
                 id="DejaVuSans-31"
                 transform="scale(0.015625)" />
            </defs>
            <use
               transform="translate(0 0.578125)"
               xlink:href="#DejaVuSans-7c"
               id="use54" />
            <use
               transform="translate(33.691406 0.578125)"
               xlink:href="#DejaVuSans-Oblique-7a"
               id="use56" />
            <use
               transform="translate(86.181641 0.578125)"
               xlink:href="#DejaVuSans-7c"
               id="use58" />
            <use
               transform="translate(139.355469 0.578125)"
               xlink:href="#DejaVuSans-3d"
               id="use60" />
            <use
               transform="translate(242.626953 0.578125)"
               xlink:href="#DejaVuSans-31"
               id="use62" />
          </g>
        </g>
        <g
           id="PathCollection_1">
          <defs
             id="defs68">
            <path
               d="M -5 5  L 5 -5  M -5 -5  L 5 5  "
               id="meea9397421"
               style="stroke:#ff0000;stroke-opacity:0.55;stroke-width:3;" />
          </defs>
          <g
             id="g72">
            <use
               style="fill:#ff0000;fill-opacity:0.55;stroke:#ff0000;stroke-opacity:0.55;stroke-width:3;"
               x="368.668"
               xlink:href="#meea9397421"
               y="78.156987"
               id="use70" />
          </g>
        </g>
        <g
           id="text_3">
          <!-- Pole -->
          <g
             transform="translate(386.668 80.781987)scale(0.1 -0.1)"
             id="g89">
            <defs
               id="defs79">
              <path
                 d="M 1259 4147  L 1259 2394  L 2053 2394  Q 2494 2394 2734 2622  Q 2975 2850 2975 3272  Q 2975 3691 2734 3919  Q 2494 4147 2053 4147  L 1259 4147  z M 628 4666  L 2053 4666  Q 2838 4666 3239 4311  Q 3641 3956 3641 3272  Q 3641 2581 3239 2228  Q 2838 1875 2053 1875  L 1259 1875  L 1259 0  L 628 0  L 628 4666  z "
                 id="DejaVuSans-50"
                 transform="scale(0.015625)" />
              <path
                 d="M 1959 3097  Q 1497 3097 1228 2736  Q 959 2375 959 1747  Q 959 1119 1226 758  Q 1494 397 1959 397  Q 2419 397 2687 759  Q 2956 1122 2956 1747  Q 2956 2369 2687 2733  Q 2419 3097 1959 3097  z M 1959 3584  Q 2709 3584 3137 3096  Q 3566 2609 3566 1747  Q 3566 888 3137 398  Q 2709 -91 1959 -91  Q 1206 -91 779 398  Q 353 888 353 1747  Q 353 2609 779 3096  Q 1206 3584 1959 3584  z "
                 id="DejaVuSans-6f"
                 transform="scale(0.015625)" />
              <path
                 d="M 603 4863  L 1178 4863  L 1178 0  L 603 0  L 603 4863  z "
                 id="DejaVuSans-6c"
                 transform="scale(0.015625)" />
              <path
                 d="M 3597 1894  L 3597 1613  L 953 1613  Q 991 1019 1311 708  Q 1631 397 2203 397  Q 2534 397 2845 478  Q 3156 559 3463 722  L 3463 178  Q 3153 47 2828 -22  Q 2503 -91 2169 -91  Q 1331 -91 842 396  Q 353 884 353 1716  Q 353 2575 817 3079  Q 1281 3584 2069 3584  Q 2775 3584 3186 3129  Q 3597 2675 3597 1894  z M 3022 2063  Q 3016 2534 2758 2815  Q 2500 3097 2075 3097  Q 1594 3097 1305 2825  Q 1016 2553 972 2059  L 3022 2063  z "
                 id="DejaVuSans-65"
                 transform="scale(0.015625)" />
            </defs>
            <use
               xlink:href="#DejaVuSans-50"
               id="use81" />
            <use
               x="56.677734"
               xlink:href="#DejaVuSans-6f"
               id="use83" />
            <use
               x="117.859375"
               xlink:href="#DejaVuSans-6c"
               id="use85" />
            <use
               x="145.642578"
               xlink:href="#DejaVuSans-65"
               id="use87" />
          </g>
        </g>
        <g
           id="PathCollection_2">
          <path
             d="M 368.668 97.835112  C 369.994015 97.835112 371.265899 97.308281 372.203534 96.370646  C 373.141168 95.433012 373.668 94.161128 373.668 92.835112  C 373.668 91.509097 373.141168 90.237213 372.203534 89.299579  C 371.265899 88.361944 369.994015 87.835112 368.668 87.835112  C 367.341985 87.835112 366.070101 88.361944 365.132466 89.299579  C 364.194832 90.237213 363.668 91.509097 363.668 92.835112  C 363.668 94.161128 364.194832 95.433012 365.132466 96.370646  C 366.070101 97.308281 367.341985 97.835112 368.668 97.835112  z "
             style="fill:none;stroke:#0000ff;stroke-opacity:0.55;stroke-width:2;"
             id="path92" />
        </g>
        <g
           id="text_4">
          <!-- Zero -->
          <g
             transform="translate(386.668 95.460112)scale(0.1 -0.1)"
             id="g107">
            <defs
               id="defs97">
              <path
                 d="M 359 4666  L 4025 4666  L 4025 4184  L 1075 531  L 4097 531  L 4097 0  L 288 0  L 288 481  L 3238 4134  L 359 4134  L 359 4666  z "
                 id="DejaVuSans-5a"
                 transform="scale(0.015625)" />
              <path
                 d="M 2631 2963  Q 2534 3019 2420 3045  Q 2306 3072 2169 3072  Q 1681 3072 1420 2755  Q 1159 2438 1159 1844  L 1159 0  L 581 0  L 581 3500  L 1159 3500  L 1159 2956  Q 1341 3275 1631 3429  Q 1922 3584 2338 3584  Q 2397 3584 2469 3576  Q 2541 3569 2628 3553  L 2631 2963  z "
                 id="DejaVuSans-72"
                 transform="scale(0.015625)" />
            </defs>
            <use
               xlink:href="#DejaVuSans-5a"
               id="use99" />
            <use
               x="68.505859"
               xlink:href="#DejaVuSans-65"
               id="use101" />
            <use
               x="130.029297"
               xlink:href="#DejaVuSans-72"
               id="use103" />
            <use
               x="168.892578"
               xlink:href="#DejaVuSans-6f"
               id="use105" />
          </g>
        </g>
      </g>
      <g
         id="patch_9">
        <path
           clip-path="url(#pb956cdd920)"
           d="M 170.28 306.205425  C 199.112881 306.205425 226.768724 294.75 247.156649 274.362074  C 267.544575 253.974149 279 226.318306 279 197.485425  C 279 168.652544 267.544575 140.996701 247.156649 120.608776  C 226.768724 100.22085 199.112881 88.765425 170.28 88.765425  C 141.447119 88.765425 113.791276 100.22085 93.403351 120.608776  C 73.015425 140.996701 61.56 168.652544 61.56 197.485425  C 61.56 226.318306 73.015425 253.974149 93.403351 274.362074  C 113.791276 294.75 141.447119 306.205425 170.28 306.205425  z "
           style="fill:none;stroke:#ff0000;stroke-dasharray:4.44,1.92;stroke-dashoffset:0;stroke-linejoin:miter;stroke-width:1.2;"
           id="path111" />
      </g>
      <g
         id="line2d_1">
        <path
           clip-path="url(#pb956cdd920)"
           d="M 170.28 197.485425  L 251.373315 188.962174  "
           style="fill:none;stroke:#0000ff;stroke-linecap:square;stroke-width:2;"
           id="path114" />
      </g>
      <g
         id="PathCollection_3">
        <g
           clip-path="url(#pb956cdd920)"
           id="g119">
          <use
             style="fill:#ff0000;fill-opacity:0.55;stroke:#ff0000;stroke-opacity:0.55;stroke-width:3;"
             x="170.28"
             xlink:href="#meea9397421"
             y="115.945425"
             id="use117" />
        </g>
      </g>
      <g
         id="PathCollection_4">
        <path
           clip-path="url(#pb956cdd920)"
           d="M 170.28 202.485425  C 171.606016 202.485425 172.877899 201.958593 173.815534 201.020959  C 174.753168 200.083324 175.28 198.81144 175.28 197.485425  C 175.28 196.159409 174.753168 194.887526 173.815534 193.949891  C 172.877899 193.012257 171.606016 192.485425 170.28 192.485425  C 168.953985 192.485425 167.682101 193.012257 166.744466 193.949891  C 165.806832 194.887526 165.28 196.159409 165.28 197.485425  C 165.28 198.81144 165.806832 200.083324 166.744466 201.020959  C 167.682101 201.958593 168.953985 202.485425 170.28 202.485425  z "
           style="fill:none;stroke:#0000ff;stroke-opacity:0.55;stroke-width:2;"
           id="path122" />
      </g>
      <g
         id="text_5">
        <!-- $|a|&lt;1$ -->
        <g
           style="fill:#0000ff;"
           transform="translate(182.090892 186.464254)rotate(-6)scale(0.18 -0.18)"
           id="g139">
          <defs
             id="defs127">
            <path
               d="M 3438 1997  L 3047 0  L 2472 0  L 2578 531  Q 2325 219 2001 64  Q 1678 -91 1281 -91  Q 834 -91 548 182  Q 263 456 263 884  Q 263 1497 752 1853  Q 1241 2209 2100 2209  L 2900 2209  L 2931 2363  Q 2938 2388 2941 2417  Q 2944 2447 2944 2509  Q 2944 2788 2717 2942  Q 2491 3097 2081 3097  Q 1800 3097 1504 3025  Q 1209 2953 897 2809  L 997 3341  Q 1322 3463 1633 3523  Q 1944 3584 2234 3584  Q 2853 3584 3176 3315  Q 3500 3047 3500 2534  Q 3500 2431 3484 2292  Q 3469 2153 3438 1997  z M 2816 1759  L 2241 1759  Q 1534 1759 1195 1570  Q 856 1381 856 984  Q 856 709 1029 553  Q 1203 397 1509 397  Q 1978 397 2328 733  Q 2678 1069 2791 1631  L 2816 1759  z "
               id="DejaVuSans-Oblique-61"
               transform="scale(0.015625)" />
            <path
               d="M 4684 3150  L 1459 2003  L 4684 863  L 4684 294  L 678 1747  L 678 2266  L 4684 3719  L 4684 3150  z "
               id="DejaVuSans-3c"
               transform="scale(0.015625)" />
          </defs>
          <use
             transform="translate(0 0.578125)"
             xlink:href="#DejaVuSans-7c"
             id="use129" />
          <use
             transform="translate(33.691406 0.578125)"
             xlink:href="#DejaVuSans-Oblique-61"
             id="use131" />
          <use
             transform="translate(94.970703 0.578125)"
             xlink:href="#DejaVuSans-7c"
             id="use133" />
          <use
             transform="translate(148.144531 0.578125)"
             xlink:href="#DejaVuSans-3c"
             id="use135" />
          <use
             transform="translate(251.416016 0.578125)"
             xlink:href="#DejaVuSans-31"
             id="use137" />
        </g>
      </g>
      <g
         id="text_6">
        <!-- $1$ -->
        <g
           style="fill:#ff0000;"
           transform="translate(281.6832 188.4666)scale(0.12 -0.12)"
           id="g144">
          <use
             transform="translate(0 0.09375)"
             xlink:href="#DejaVuSans-31"
             id="use142" />
        </g>
      </g>
      <g
         id="line2d_2">
        <path
           clip-path="url(#pb956cdd920)"
           d="M 7.2 197.485425  L 333.36 197.485425  "
           style="fill:none;stroke:#000000;stroke-linecap:square;"
           id="path147" />
      </g>
      <g
         id="line2d_3">
        <path
           clip-path="url(#pb956cdd920)"
           d="M 170.28 360.565425  L 170.28 34.405425  "
           style="fill:none;stroke:#000000;stroke-linecap:square;"
           id="path150" />
      </g>
      <g
         id="text_7">
        <!-- $\Re\{z\}$ -->
        <g
           transform="translate(343.1448 202.4523)scale(0.18 -0.18)"
           id="g166">
          <defs
             id="defs156">
            <path
               d="M 4006 -91  Q 3750 481 3750 978  Q 3750 1416 3681 1700  Q 3556 2219 3309 2219  Q 3178 2219 2891 2084  L 2516 1909  L 2516 1288  Q 2516 644 2194 275  Q 1872 -91 1434 -91  Q 994 -91 675 275  Q 353 644 353 1194  Q 494 1156 638 1119  Q 638 738 838 469  Q 1038 197 1263 197  Q 1488 197 1684 469  Q 1884 741 1884 1209  L 1884 3294  Q 1884 3759 1684 4034  Q 1488 4306 1200 4306  Q 947 4306 744 4034  Q 544 3766 544 3450  Q 544 3134 744 2866  Q 944 2594 1203 2594  L 1372 2306  Q 900 2306 581 2672  Q 259 3041 259 3528  Q 259 4019 581 4384  Q 900 4750 1372 4750  Q 1878 4750 2194 4384  Q 2288 4275 2338 4175  L 2997 4481  Q 3581 4753 3931 4753  Q 4078 4753 4191 4709  Q 4584 4556 4584 4003  Q 4584 3731 4381 3347  Q 4175 2959 3784 2666  Q 3966 2666 4119 2513  Q 4231 2400 4316 2075  Q 4416 1691 4416 1281  Q 4416 881 4556 513  L 5006 722  L 5138 438  L 4006 -91  z M 2450 3897  Q 2516 3663 2516 3375  L 2516 2241  L 2997 2463  Q 3447 2672 3688 2997  Q 3919 3316 3919 3694  Q 3919 4166 3688 4266  Q 3613 4297 3516 4297  Q 3316 4297 2997 4150  L 2450 3897  z "
               id="DejaVuSans-Oblique-211c"
               transform="scale(0.015625)" />
            <path
               d="M 3272 -594  L 3272 -1044  L 3078 -1044  Q 2300 -1044 2036 -812  Q 1772 -581 1772 109  L 1772 856  Q 1772 1328 1603 1509  Q 1434 1691 991 1691  L 800 1691  L 800 2138  L 991 2138  Q 1438 2138 1605 2317  Q 1772 2497 1772 2963  L 1772 3713  Q 1772 4403 2036 4633  Q 2300 4863 3078 4863  L 3272 4863  L 3272 4416  L 3059 4416  Q 2619 4416 2484 4278  Q 2350 4141 2350 3700  L 2350 2925  Q 2350 2434 2208 2212  Q 2066 1991 1722 1913  Q 2069 1828 2209 1606  Q 2350 1384 2350 897  L 2350 122  Q 2350 -319 2484 -456  Q 2619 -594 3059 -594  L 3272 -594  z "
               id="DejaVuSans-7b"
               transform="scale(0.015625)" />
            <path
               d="M 800 -594  L 1019 -594  Q 1456 -594 1589 -459  Q 1722 -325 1722 122  L 1722 897  Q 1722 1384 1862 1606  Q 2003 1828 2350 1913  Q 2003 1991 1862 2212  Q 1722 2434 1722 2925  L 1722 3700  Q 1722 4144 1589 4280  Q 1456 4416 1019 4416  L 800 4416  L 800 4863  L 997 4863  Q 1775 4863 2036 4633  Q 2297 4403 2297 3713  L 2297 2963  Q 2297 2497 2465 2317  Q 2634 2138 3078 2138  L 3272 2138  L 3272 1691  L 3078 1691  Q 2634 1691 2465 1509  Q 2297 1328 2297 856  L 2297 109  Q 2297 -581 2036 -812  Q 1775 -1044 997 -1044  L 800 -1044  L 800 -594  z "
               id="DejaVuSans-7d"
               transform="scale(0.015625)" />
          </defs>
          <use
             transform="translate(0 0.015625)"
             xlink:href="#DejaVuSans-Oblique-211c"
             id="use158" />
          <use
             transform="translate(81.396484 0.015625)"
             xlink:href="#DejaVuSans-7b"
             id="use160" />
          <use
             transform="translate(145.019531 0.015625)"
             xlink:href="#DejaVuSans-Oblique-7a"
             id="use162" />
          <use
             transform="translate(197.509766 0.015625)"
             xlink:href="#DejaVuSans-7d"
             id="use164" />
        </g>
      </g>
      <g
         id="text_8">
        <!-- $\Im\{z\}$ -->
        <g
           transform="translate(147.78 20.877187)scale(0.18 -0.18)"
           id="g180">
          <defs
             id="defs170">
            <path
               d="M 331 281  L 769 797  Q 1116 919 1481 919  Q 1659 919 2072 669  Q 2522 400 2625 400  Q 3003 400 3316 828  Q 3538 1131 3538 1366  Q 3538 1759 3344 2109  Q 3094 2566 3094 2906  Q 3094 3219 3344 3719  L 4009 4156  Q 3759 3722 3759 3344  Q 3759 3009 4009 2547  Q 4175 2241 4175 1653  Q 4175 1359 3544 603  Q 2963 -91 2206 -91  Q 2038 -91 1634 156  Q 1219 406 1044 406  Q 750 406 331 281  z M 1094 4575  Q 1434 4750 1875 4750  Q 2259 4750 2656 4597  Q 3038 4450 3438 4450  Q 3828 4450 4219 4631  L 3594 4100  Q 3159 3919 2813 3919  Q 2366 3919 2031 4072  Q 1697 4225 1250 4225  Q 869 4225 469 4044  L 1094 4575  z "
               id="DejaVuSans-Oblique-2111"
               transform="scale(0.015625)" />
          </defs>
          <use
             transform="translate(0 0.015625)"
             xlink:href="#DejaVuSans-Oblique-2111"
             id="use172" />
          <use
             transform="translate(69.726562 0.015625)"
             xlink:href="#DejaVuSans-7b"
             id="use174" />
          <use
             transform="translate(133.349609 0.015625)"
             xlink:href="#DejaVuSans-Oblique-7a"
             id="use176" />
          <use
             transform="translate(185.839844 0.015625)"
             xlink:href="#DejaVuSans-7d"
             id="use178" />
        </g>
      </g>
    </g>
  </g>
  <defs
     id="defs188">
    <clipPath
       id="pb956cdd920">
      <rect
         height="326.16"
         width="326.16"
         x="7.2"
         y="34.405425"
         id="rect185" />
    </clipPath>
  </defs>
  <text
     xml:space="preserve"
     id="text947"
     style="font-style:normal;font-weight:normal;font-size:12px;line-height:1;font-family:sans-serif;letter-spacing:0px;word-spacing:0px;white-space:pre;shape-inside:url(#rect949);fill:#000000;fill-opacity:1;stroke:none;stroke-linecap:butt;stroke-linejoin:round;"
     transform="translate(-15.326545,-234.87641)"><tspan
       x="191.78711"
       y="345.88086"><tspan
         style="fill:#ff0000;fill-opacity:1;stroke-linecap:butt;stroke-linejoin:round">-a</tspan></tspan></text>
</svg>
