<?xml version="1.0" encoding="UTF-8" standalone="no"?>
<svg
   xmlns:dc="http://purl.org/dc/elements/1.1/"
   xmlns:cc="http://creativecommons.org/ns#"
   xmlns:rdf="http://www.w3.org/1999/02/22-rdf-syntax-ns#"
   xmlns:svg="http://www.w3.org/2000/svg"
   xmlns="http://www.w3.org/2000/svg"
   xmlns:xlink="http://www.w3.org/1999/xlink"
   xmlns:sodipodi="http://sodipodi.sourceforge.net/DTD/sodipodi-0.dtd"
   xmlns:inkscape="http://www.inkscape.org/namespaces/inkscape"
   height="367.765425pt"
   version="1.1"
   viewBox="0 0 428.568 367.765425"
   width="428.568pt"
   id="svg197"
   sodipodi:docname="example5_anticausal.svg"
   inkscape:export-filename="/home/sapap9/PythonCode/PID/SIL-JB-main/content/figures/T7/example5_anticausal.png"
   inkscape:export-xdpi="300"
   inkscape:export-ydpi="300"
   inkscape:version="1.0.2 (e86c870879, 2021-01-15)">
  <sodipodi:namedview
     pagecolor="#ffffff"
     bordercolor="#666666"
     borderopacity="1"
     objecttolerance="10"
     gridtolerance="10"
     guidetolerance="10"
     inkscape:pageopacity="0"
     inkscape:pageshadow="2"
     inkscape:window-width="1536"
     inkscape:window-height="679"
     id="namedview199"
     showgrid="false"
     inkscape:zoom="1.0441439"
     inkscape:cx="285.712"
     inkscape:cy="245.17694"
     inkscape:window-x="0"
     inkscape:window-y="27"
     inkscape:window-maximized="1"
     inkscape:current-layer="svg197" />
  <metadata
     id="metadata2">
    <rdf:RDF>
      <cc:Work>
        <dc:type
           rdf:resource="http://purl.org/dc/dcmitype/StillImage" />
        <dc:date>2026-01-15T08:35:05.782401</dc:date>
        <dc:format>image/svg+xml</dc:format>
        <dc:creator>
          <cc:Agent>
            <dc:title>Matplotlib v3.4.3, https://matplotlib.org/</dc:title>
          </cc:Agent>
        </dc:creator>
      </cc:Work>
    </rdf:RDF>
  </metadata>
  <defs
     id="defs6">
    <style
       type="text/css"
       id="style4">*{stroke-linecap:butt;stroke-linejoin:round;}</style>
  </defs>
  <g
     id="figure_1">
    <g
       id="patch_1">
      <path
         d="M 0 367.765425  L 428.568 367.765425  L 428.568 0  L 0 0  z "
         style="fill:#ffffff;"
         id="path8" />
    </g>
    <g
       id="axes_1">
      <g
         id="patch_2">
        <path
           d="M 7.2 360.565425  L 333.36 360.565425  L 333.36 34.405425  L 7.2 34.405425  z "
           style="fill:#ffffff;"
           id="path11" />
      </g>
      <g
         id="patch_3">
        <path
           clip-path="url(#pa9ca1aa9b1)"
           d="M 170.28 219.229425  C 176.046576 219.229425 181.577745 216.93834 185.65533 212.860755  C 189.732915 208.78317 192.024 203.252001 192.024 197.485425  C 192.024 191.718849 189.732915 186.18768 185.65533 182.110095  C 181.577745 178.03251 176.046576 175.741425 170.28 175.741425  C 164.513424 175.741425 158.982255 178.03251 154.90467 182.110095  C 150.827085 186.18768 148.536 191.718849 148.536 197.485425  C 148.536 203.252001 150.827085 208.78317 154.90467 212.860755  C 158.982255 216.93834 164.513424 219.229425 170.28 219.229425  z "
           style="fill:#ffa500;opacity:0.3;stroke:#ffa500;stroke-linejoin:miter;stroke-width:2;"
           id="path14" />
      </g>
      <g
         id="matplotlib.axis_1" />
      <g
         id="matplotlib.axis_2" />
      <g
         id="legend_1">
        <g
           id="patch_4">
          <path
             d="M 356.668 101.5398  L 419.368 101.5398  Q 421.368 101.5398 421.368 99.5398  L 421.368 41.405425  Q 421.368 39.405425 419.368 39.405425  L 356.668 39.405425  Q 354.668 39.405425 354.668 41.405425  L 354.668 99.5398  Q 354.668 101.5398 356.668 101.5398  z "
             style="fill:#ffffff;opacity:0.8;stroke:#cccccc;stroke-linejoin:miter;"
             id="path19" />
        </g>
        <g
           id="patch_5">
          <path
             d="M 358.668 51.003862  L 378.668 51.003862  L 378.668 44.003862  L 358.668 44.003862  z "
             style="fill:#ffa500;opacity:0.3;stroke:#ffa500;stroke-linejoin:miter;stroke-width:2;"
             id="path22" />
        </g>
        <g
           id="text_1">
          <!-- ROC -->
          <g
             transform="translate(386.668 51.003862)scale(0.1 -0.1)"
             id="g36">
            <defs
               id="defs28">
              <path
                 d="M 2841 2188  Q 3044 2119 3236 1894  Q 3428 1669 3622 1275  L 4263 0  L 3584 0  L 2988 1197  Q 2756 1666 2539 1819  Q 2322 1972 1947 1972  L 1259 1972  L 1259 0  L 628 0  L 628 4666  L 2053 4666  Q 2853 4666 3247 4331  Q 3641 3997 3641 3322  Q 3641 2881 3436 2590  Q 3231 2300 2841 2188  z M 1259 4147  L 1259 2491  L 2053 2491  Q 2509 2491 2742 2702  Q 2975 2913 2975 3322  Q 2975 3731 2742 3939  Q 2509 4147 2053 4147  L 1259 4147  z "
                 id="DejaVuSans-52"
                 transform="scale(0.015625)" />
              <path
                 d="M 2522 4238  Q 1834 4238 1429 3725  Q 1025 3213 1025 2328  Q 1025 1447 1429 934  Q 1834 422 2522 422  Q 3209 422 3611 934  Q 4013 1447 4013 2328  Q 4013 3213 3611 3725  Q 3209 4238 2522 4238  z M 2522 4750  Q 3503 4750 4090 4092  Q 4678 3434 4678 2328  Q 4678 1225 4090 567  Q 3503 -91 2522 -91  Q 1538 -91 948 565  Q 359 1222 359 2328  Q 359 3434 948 4092  Q 1538 4750 2522 4750  z "
                 id="DejaVuSans-4f"
                 transform="scale(0.015625)" />
              <path
                 d="M 4122 4306  L 4122 3641  Q 3803 3938 3442 4084  Q 3081 4231 2675 4231  Q 1875 4231 1450 3742  Q 1025 3253 1025 2328  Q 1025 1406 1450 917  Q 1875 428 2675 428  Q 3081 428 3442 575  Q 3803 722 4122 1019  L 4122 359  Q 3791 134 3420 21  Q 3050 -91 2638 -91  Q 1578 -91 968 557  Q 359 1206 359 2328  Q 359 3453 968 4101  Q 1578 4750 2638 4750  Q 3056 4750 3426 4639  Q 3797 4528 4122 4306  z "
                 id="DejaVuSans-43"
                 transform="scale(0.015625)" />
            </defs>
            <use
               xlink:href="#DejaVuSans-52"
               id="use30" />
            <use
               x="69.482422"
               xlink:href="#DejaVuSans-4f"
               id="use32" />
            <use
               x="148.193359"
               xlink:href="#DejaVuSans-43"
               id="use34" />
          </g>
        </g>
        <g
           id="patch_6">
          <path
             d="M 358.668 65.78355  L 378.668 65.78355  L 378.668 58.78355  L 358.668 58.78355  z "
             style="fill:none;stroke:#ff0000;stroke-dasharray:4.44,1.92;stroke-dashoffset:0;stroke-linejoin:miter;stroke-width:1.2;"
             id="path39" />
        </g>
        <g
           id="text_2">
          <!-- $|z|=1$ -->
          <g
             transform="translate(386.668 65.78355)scale(0.1 -0.1)"
             id="g58">
            <defs
               id="defs46">
              <path
                 d="M 1344 4891  L 1344 -1509  L 813 -1509  L 813 4891  L 1344 4891  z "
                 id="DejaVuSans-7c"
                 transform="scale(0.015625)" />
              <path
                 d="M 744 3500  L 3475 3500  L 3372 2975  L 738 459  L 2913 459  L 2822 0  L -19 0  L 84 525  L 2719 3041  L 653 3041  L 744 3500  z "
                 id="DejaVuSans-Oblique-7a"
                 transform="scale(0.015625)" />
              <path
                 d="M 678 2906  L 4684 2906  L 4684 2381  L 678 2381  L 678 2906  z M 678 1631  L 4684 1631  L 4684 1100  L 678 1100  L 678 1631  z "
                 id="DejaVuSans-3d"
                 transform="scale(0.015625)" />
              <path
                 d="M 794 531  L 1825 531  L 1825 4091  L 703 3866  L 703 4441  L 1819 4666  L 2450 4666  L 2450 531  L 3481 531  L 3481 0  L 794 0  L 794 531  z "
                 id="DejaVuSans-31"
                 transform="scale(0.015625)" />
            </defs>
            <use
               transform="translate(0 0.578125)"
               xlink:href="#DejaVuSans-7c"
               id="use48" />
            <use
               transform="translate(33.691406 0.578125)"
               xlink:href="#DejaVuSans-Oblique-7a"
               id="use50" />
            <use
               transform="translate(86.181641 0.578125)"
               xlink:href="#DejaVuSans-7c"
               id="use52" />
            <use
               transform="translate(139.355469 0.578125)"
               xlink:href="#DejaVuSans-3d"
               id="use54" />
            <use
               transform="translate(242.626953 0.578125)"
               xlink:href="#DejaVuSans-31"
               id="use56" />
          </g>
        </g>
        <g
           id="PathCollection_1">
          <defs
             id="defs62">
            <path
               d="M -5 5  L 5 -5  M -5 -5  L 5 5  "
               id="me504bf5a1e"
               style="stroke:#ff0000;stroke-opacity:0.55;stroke-width:3;" />
          </defs>
          <g
             id="g66">
            <use
               style="fill:#ff0000;fill-opacity:0.55;stroke:#ff0000;stroke-opacity:0.55;stroke-width:3;"
               x="368.668"
               xlink:href="#me504bf5a1e"
               y="78.156987"
               id="use64" />
          </g>
        </g>
        <g
           id="text_3">
          <!-- Pole -->
          <g
             transform="translate(386.668 80.781987)scale(0.1 -0.1)"
             id="g83">
            <defs
               id="defs73">
              <path
                 d="M 1259 4147  L 1259 2394  L 2053 2394  Q 2494 2394 2734 2622  Q 2975 2850 2975 3272  Q 2975 3691 2734 3919  Q 2494 4147 2053 4147  L 1259 4147  z M 628 4666  L 2053 4666  Q 2838 4666 3239 4311  Q 3641 3956 3641 3272  Q 3641 2581 3239 2228  Q 2838 1875 2053 1875  L 1259 1875  L 1259 0  L 628 0  L 628 4666  z "
                 id="DejaVuSans-50"
                 transform="scale(0.015625)" />
              <path
                 d="M 1959 3097  Q 1497 3097 1228 2736  Q 959 2375 959 1747  Q 959 1119 1226 758  Q 1494 397 1959 397  Q 2419 397 2687 759  Q 2956 1122 2956 1747  Q 2956 2369 2687 2733  Q 2419 3097 1959 3097  z M 1959 3584  Q 2709 3584 3137 3096  Q 3566 2609 3566 1747  Q 3566 888 3137 398  Q 2709 -91 1959 -91  Q 1206 -91 779 398  Q 353 888 353 1747  Q 353 2609 779 3096  Q 1206 3584 1959 3584  z "
                 id="DejaVuSans-6f"
                 transform="scale(0.015625)" />
              <path
                 d="M 603 4863  L 1178 4863  L 1178 0  L 603 0  L 603 4863  z "
                 id="DejaVuSans-6c"
                 transform="scale(0.015625)" />
              <path
                 d="M 3597 1894  L 3597 1613  L 953 1613  Q 991 1019 1311 708  Q 1631 397 2203 397  Q 2534 397 2845 478  Q 3156 559 3463 722  L 3463 178  Q 3153 47 2828 -22  Q 2503 -91 2169 -91  Q 1331 -91 842 396  Q 353 884 353 1716  Q 353 2575 817 3079  Q 1281 3584 2069 3584  Q 2775 3584 3186 3129  Q 3597 2675 3597 1894  z M 3022 2063  Q 3016 2534 2758 2815  Q 2500 3097 2075 3097  Q 1594 3097 1305 2825  Q 1016 2553 972 2059  L 3022 2063  z "
                 id="DejaVuSans-65"
                 transform="scale(0.015625)" />
            </defs>
            <use
               xlink:href="#DejaVuSans-50"
               id="use75" />
            <use
               x="56.677734"
               xlink:href="#DejaVuSans-6f"
               id="use77" />
            <use
               x="117.859375"
               xlink:href="#DejaVuSans-6c"
               id="use79" />
            <use
               x="145.642578"
               xlink:href="#DejaVuSans-65"
               id="use81" />
          </g>
        </g>
        <g
           id="PathCollection_2">
          <path
             d="M 368.668 97.835112  C 369.994015 97.835112 371.265899 97.308281 372.203534 96.370646  C 373.141168 95.433012 373.668 94.161128 373.668 92.835112  C 373.668 91.509097 373.141168 90.237213 372.203534 89.299579  C 371.265899 88.361944 369.994015 87.835112 368.668 87.835112  C 367.341985 87.835112 366.070101 88.361944 365.132466 89.299579  C 364.194832 90.237213 363.668 91.509097 363.668 92.835112  C 363.668 94.161128 364.194832 95.433012 365.132466 96.370646  C 366.070101 97.308281 367.341985 97.835112 368.668 97.835112  z "
             style="fill:none;stroke:#0000ff;stroke-opacity:0.55;stroke-width:2;"
             id="path86" />
        </g>
        <g
           id="text_4">
          <!-- Zero -->
          <g
             transform="translate(386.668 95.460112)scale(0.1 -0.1)"
             id="g101">
            <defs
               id="defs91">
              <path
                 d="M 359 4666  L 4025 4666  L 4025 4184  L 1075 531  L 4097 531  L 4097 0  L 288 0  L 288 481  L 3238 4134  L 359 4134  L 359 4666  z "
                 id="DejaVuSans-5a"
                 transform="scale(0.015625)" />
              <path
                 d="M 2631 2963  Q 2534 3019 2420 3045  Q 2306 3072 2169 3072  Q 1681 3072 1420 2755  Q 1159 2438 1159 1844  L 1159 0  L 581 0  L 581 3500  L 1159 3500  L 1159 2956  Q 1341 3275 1631 3429  Q 1922 3584 2338 3584  Q 2397 3584 2469 3576  Q 2541 3569 2628 3553  L 2631 2963  z "
                 id="DejaVuSans-72"
                 transform="scale(0.015625)" />
            </defs>
            <use
               xlink:href="#DejaVuSans-5a"
               id="use93" />
            <use
               x="68.505859"
               xlink:href="#DejaVuSans-65"
               id="use95" />
            <use
               x="130.029297"
               xlink:href="#DejaVuSans-72"
               id="use97" />
            <use
               x="168.892578"
               xlink:href="#DejaVuSans-6f"
               id="use99" />
          </g>
        </g>
      </g>
      <g
         id="patch_7">
        <path
           clip-path="url(#pa9ca1aa9b1)"
           d="M 170.28 262.717425  C 187.579729 262.717425 204.173234 255.84417 216.40599 243.611415  C 228.638745 231.378659 235.512 214.785154 235.512 197.485425  C 235.512 180.185696 228.638745 163.592191 216.40599 151.359435  C 204.173234 139.12668 187.579729 132.253425 170.28 132.253425  C 152.980271 132.253425 136.386766 139.12668 124.15401 151.359435  C 111.921255 163.592191 105.048 180.185696 105.048 197.485425  C 105.048 214.785154 111.921255 231.378659 124.15401 243.611415  C 136.386766 255.84417 152.980271 262.717425 170.28 262.717425  z "
           style="fill:none;stroke:#ff0000;stroke-dasharray:4.44,1.92;stroke-dashoffset:0;stroke-linejoin:miter;stroke-width:1.2;"
           id="path105" />
      </g>
      <g
         id="line2d_1">
        <path
           clip-path="url(#pa9ca1aa9b1)"
           d="M 170.28 197.485425  L 187.871266 184.704622  "
           style="fill:none;stroke:#0000ff;stroke-linecap:square;stroke-width:2;"
           id="path108" />
      </g>
      <g
         id="PathCollection_3">
        <g
           clip-path="url(#pa9ca1aa9b1)"
           id="g113">
          <use
             style="fill:#ff0000;fill-opacity:0.55;stroke:#ff0000;stroke-opacity:0.55;stroke-width:3;"
             x="300.744"
             xlink:href="#me504bf5a1e"
             y="197.485425"
             id="use111" />
        </g>
      </g>
      <g
         id="PathCollection_4">
        <g
           clip-path="url(#pa9ca1aa9b1)"
           id="g118">
          <use
             style="fill:#ff0000;fill-opacity:0.55;stroke:#ff0000;stroke-opacity:0.55;stroke-width:3;"
             x="192.023978"
             xlink:href="#me504bf5a1e"
             y="197.485425"
             id="use116" />
        </g>
      </g>
      <g
         id="PathCollection_5">
        <path
           clip-path="url(#pa9ca1aa9b1)"
           d="M 170.28 202.485425  C 171.606016 202.485425 172.877899 201.958593 173.815534 201.020959  C 174.753168 200.083324 175.28 198.81144 175.28 197.485425  C 175.28 196.159409 174.753168 194.887526 173.815534 193.949891  C 172.877899 193.012257 171.606016 192.485425 170.28 192.485425  C 168.953985 192.485425 167.682101 193.012257 166.744466 193.949891  C 165.806832 194.887526 165.28 196.159409 165.28 197.485425  C 165.28 198.81144 165.806832 200.083324 166.744466 201.020959  C 167.682101 201.958593 168.953985 202.485425 170.28 202.485425  z "
           style="fill:none;stroke:#0000ff;stroke-opacity:0.55;stroke-width:2;"
           id="path121" />
      </g>
      <g
         id="PathCollection_6">
        <path
           clip-path="url(#pa9ca1aa9b1)"
           d="M 202.896 202.485425  C 204.222016 202.485425 205.493899 201.958593 206.431534 201.020959  C 207.369168 200.083324 207.896 198.81144 207.896 197.485425  C 207.896 196.159409 207.369168 194.887526 206.431534 193.949891  C 205.493899 193.012257 204.222016 192.485425 202.896 192.485425  C 201.569985 192.485425 200.298101 193.012257 199.360466 193.949891  C 198.422832 194.887526 197.896 196.159409 197.896 197.485425  C 197.896 198.81144 198.422832 200.083324 199.360466 201.020959  C 200.298101 201.958593 201.569985 202.485425 202.896 202.485425  z "
           style="fill:none;stroke:#0000ff;stroke-opacity:0.55;stroke-width:2;"
           id="path124" />
      </g>
      <g
         id="text_5">
        <!-- $|a|=1/3$ -->
        <g
           style="fill:#0000ff;"
           transform="translate(146.465239 206.186448)rotate(-36)scale(0.18 -0.18)"
           id="g146">
          <defs
             id="defs130">
            <path
               d="M 3438 1997  L 3047 0  L 2472 0  L 2578 531  Q 2325 219 2001 64  Q 1678 -91 1281 -91  Q 834 -91 548 182  Q 263 456 263 884  Q 263 1497 752 1853  Q 1241 2209 2100 2209  L 2900 2209  L 2931 2363  Q 2938 2388 2941 2417  Q 2944 2447 2944 2509  Q 2944 2788 2717 2942  Q 2491 3097 2081 3097  Q 1800 3097 1504 3025  Q 1209 2953 897 2809  L 997 3341  Q 1322 3463 1633 3523  Q 1944 3584 2234 3584  Q 2853 3584 3176 3315  Q 3500 3047 3500 2534  Q 3500 2431 3484 2292  Q 3469 2153 3438 1997  z M 2816 1759  L 2241 1759  Q 1534 1759 1195 1570  Q 856 1381 856 984  Q 856 709 1029 553  Q 1203 397 1509 397  Q 1978 397 2328 733  Q 2678 1069 2791 1631  L 2816 1759  z "
               id="DejaVuSans-Oblique-61"
               transform="scale(0.015625)" />
            <path
               d="M 1625 4666  L 2156 4666  L 531 -594  L 0 -594  L 1625 4666  z "
               id="DejaVuSans-2f"
               transform="scale(0.015625)" />
            <path
               d="M 2597 2516  Q 3050 2419 3304 2112  Q 3559 1806 3559 1356  Q 3559 666 3084 287  Q 2609 -91 1734 -91  Q 1441 -91 1130 -33  Q 819 25 488 141  L 488 750  Q 750 597 1062 519  Q 1375 441 1716 441  Q 2309 441 2620 675  Q 2931 909 2931 1356  Q 2931 1769 2642 2001  Q 2353 2234 1838 2234  L 1294 2234  L 1294 2753  L 1863 2753  Q 2328 2753 2575 2939  Q 2822 3125 2822 3475  Q 2822 3834 2567 4026  Q 2313 4219 1838 4219  Q 1578 4219 1281 4162  Q 984 4106 628 3988  L 628 4550  Q 988 4650 1302 4700  Q 1616 4750 1894 4750  Q 2613 4750 3031 4423  Q 3450 4097 3450 3541  Q 3450 3153 3228 2886  Q 3006 2619 2597 2516  z "
               id="DejaVuSans-33"
               transform="scale(0.015625)" />
          </defs>
          <use
             transform="translate(0 0.578125)"
             xlink:href="#DejaVuSans-7c"
             id="use132" />
          <use
             transform="translate(33.691406 0.578125)"
             xlink:href="#DejaVuSans-Oblique-61"
             id="use134" />
          <use
             transform="translate(94.970703 0.578125)"
             xlink:href="#DejaVuSans-7c"
             id="use136" />
          <use
             transform="translate(148.144531 0.578125)"
             xlink:href="#DejaVuSans-3d"
             id="use138" />
          <use
             transform="translate(251.416016 0.578125)"
             xlink:href="#DejaVuSans-31"
             id="use140" />
          <use
             transform="translate(315.039062 0.578125)"
             xlink:href="#DejaVuSans-2f"
             id="use142" />
          <use
             transform="translate(348.730469 0.578125)"
             xlink:href="#DejaVuSans-33"
             id="use144" />
        </g>
      </g>
      <g
         id="text_6">
        <!-- $1$ -->
        <g
           style="fill:#ff0000;"
           transform="translate(238.1952 188.4666)scale(0.12 -0.12)"
           id="g151">
          <use
             transform="translate(0 0.09375)"
             xlink:href="#DejaVuSans-31"
             id="use149" />
        </g>
      </g>
      <g
         id="line2d_2">
        <path
           clip-path="url(#pa9ca1aa9b1)"
           d="M 7.2 197.485425  L 333.36 197.485425  "
           style="fill:none;stroke:#000000;stroke-linecap:square;"
           id="path154" />
      </g>
      <g
         id="line2d_3">
        <path
           clip-path="url(#pa9ca1aa9b1)"
           d="M 170.28 360.565425  L 170.28 34.405425  "
           style="fill:none;stroke:#000000;stroke-linecap:square;"
           id="path157" />
      </g>
      <g
         id="text_7">
        <!-- $\Re\{z\}$ -->
        <g
           transform="translate(343.1448 202.4523)scale(0.18 -0.18)"
           id="g173">
          <defs
             id="defs163">
            <path
               d="M 4006 -91  Q 3750 481 3750 978  Q 3750 1416 3681 1700  Q 3556 2219 3309 2219  Q 3178 2219 2891 2084  L 2516 1909  L 2516 1288  Q 2516 644 2194 275  Q 1872 -91 1434 -91  Q 994 -91 675 275  Q 353 644 353 1194  Q 494 1156 638 1119  Q 638 738 838 469  Q 1038 197 1263 197  Q 1488 197 1684 469  Q 1884 741 1884 1209  L 1884 3294  Q 1884 3759 1684 4034  Q 1488 4306 1200 4306  Q 947 4306 744 4034  Q 544 3766 544 3450  Q 544 3134 744 2866  Q 944 2594 1203 2594  L 1372 2306  Q 900 2306 581 2672  Q 259 3041 259 3528  Q 259 4019 581 4384  Q 900 4750 1372 4750  Q 1878 4750 2194 4384  Q 2288 4275 2338 4175  L 2997 4481  Q 3581 4753 3931 4753  Q 4078 4753 4191 4709  Q 4584 4556 4584 4003  Q 4584 3731 4381 3347  Q 4175 2959 3784 2666  Q 3966 2666 4119 2513  Q 4231 2400 4316 2075  Q 4416 1691 4416 1281  Q 4416 881 4556 513  L 5006 722  L 5138 438  L 4006 -91  z M 2450 3897  Q 2516 3663 2516 3375  L 2516 2241  L 2997 2463  Q 3447 2672 3688 2997  Q 3919 3316 3919 3694  Q 3919 4166 3688 4266  Q 3613 4297 3516 4297  Q 3316 4297 2997 4150  L 2450 3897  z "
               id="DejaVuSans-Oblique-211c"
               transform="scale(0.015625)" />
            <path
               d="M 3272 -594  L 3272 -1044  L 3078 -1044  Q 2300 -1044 2036 -812  Q 1772 -581 1772 109  L 1772 856  Q 1772 1328 1603 1509  Q 1434 1691 991 1691  L 800 1691  L 800 2138  L 991 2138  Q 1438 2138 1605 2317  Q 1772 2497 1772 2963  L 1772 3713  Q 1772 4403 2036 4633  Q 2300 4863 3078 4863  L 3272 4863  L 3272 4416  L 3059 4416  Q 2619 4416 2484 4278  Q 2350 4141 2350 3700  L 2350 2925  Q 2350 2434 2208 2212  Q 2066 1991 1722 1913  Q 2069 1828 2209 1606  Q 2350 1384 2350 897  L 2350 122  Q 2350 -319 2484 -456  Q 2619 -594 3059 -594  L 3272 -594  z "
               id="DejaVuSans-7b"
               transform="scale(0.015625)" />
            <path
               d="M 800 -594  L 1019 -594  Q 1456 -594 1589 -459  Q 1722 -325 1722 122  L 1722 897  Q 1722 1384 1862 1606  Q 2003 1828 2350 1913  Q 2003 1991 1862 2212  Q 1722 2434 1722 2925  L 1722 3700  Q 1722 4144 1589 4280  Q 1456 4416 1019 4416  L 800 4416  L 800 4863  L 997 4863  Q 1775 4863 2036 4633  Q 2297 4403 2297 3713  L 2297 2963  Q 2297 2497 2465 2317  Q 2634 2138 3078 2138  L 3272 2138  L 3272 1691  L 3078 1691  Q 2634 1691 2465 1509  Q 2297 1328 2297 856  L 2297 109  Q 2297 -581 2036 -812  Q 1775 -1044 997 -1044  L 800 -1044  L 800 -594  z "
               id="DejaVuSans-7d"
               transform="scale(0.015625)" />
          </defs>
          <use
             transform="translate(0 0.015625)"
             xlink:href="#DejaVuSans-Oblique-211c"
             id="use165" />
          <use
             transform="translate(81.396484 0.015625)"
             xlink:href="#DejaVuSans-7b"
             id="use167" />
          <use
             transform="translate(145.019531 0.015625)"
             xlink:href="#DejaVuSans-Oblique-7a"
             id="use169" />
          <use
             transform="translate(197.509766 0.015625)"
             xlink:href="#DejaVuSans-7d"
             id="use171" />
        </g>
      </g>
      <g
         id="text_8">
        <!-- $\Im\{z\}$ -->
        <g
           transform="translate(147.78 20.877187)scale(0.18 -0.18)"
           id="g187">
          <defs
             id="defs177">
            <path
               d="M 331 281  L 769 797  Q 1116 919 1481 919  Q 1659 919 2072 669  Q 2522 400 2625 400  Q 3003 400 3316 828  Q 3538 1131 3538 1366  Q 3538 1759 3344 2109  Q 3094 2566 3094 2906  Q 3094 3219 3344 3719  L 4009 4156  Q 3759 3722 3759 3344  Q 3759 3009 4009 2547  Q 4175 2241 4175 1653  Q 4175 1359 3544 603  Q 2963 -91 2206 -91  Q 2038 -91 1634 156  Q 1219 406 1044 406  Q 750 406 331 281  z M 1094 4575  Q 1434 4750 1875 4750  Q 2259 4750 2656 4597  Q 3038 4450 3438 4450  Q 3828 4450 4219 4631  L 3594 4100  Q 3159 3919 2813 3919  Q 2366 3919 2031 4072  Q 1697 4225 1250 4225  Q 869 4225 469 4044  L 1094 4575  z "
               id="DejaVuSans-Oblique-2111"
               transform="scale(0.015625)" />
          </defs>
          <use
             transform="translate(0 0.015625)"
             xlink:href="#DejaVuSans-Oblique-2111"
             id="use179" />
          <use
             transform="translate(69.726562 0.015625)"
             xlink:href="#DejaVuSans-7b"
             id="use181" />
          <use
             transform="translate(133.349609 0.015625)"
             xlink:href="#DejaVuSans-Oblique-7a"
             id="use183" />
          <use
             transform="translate(185.839844 0.015625)"
             xlink:href="#DejaVuSans-7d"
             id="use185" />
        </g>
      </g>
    </g>
  </g>
  <defs
     id="defs195">
    <clipPath
       id="pa9ca1aa9b1">
      <rect
         height="326.16"
         width="326.16"
         x="7.2"
         y="34.405425"
         id="rect192" />
    </clipPath>
  </defs>
</svg>
