<?xml version="1.0" encoding="UTF-8" standalone="no"?>
<svg
   xmlns:dc="http://purl.org/dc/elements/1.1/"
   xmlns:cc="http://creativecommons.org/ns#"
   xmlns:rdf="http://www.w3.org/1999/02/22-rdf-syntax-ns#"
   xmlns:svg="http://www.w3.org/2000/svg"
   xmlns="http://www.w3.org/2000/svg"
   xmlns:xlink="http://www.w3.org/1999/xlink"
   xmlns:sodipodi="http://sodipodi.sourceforge.net/DTD/sodipodi-0.dtd"
   xmlns:inkscape="http://www.inkscape.org/namespaces/inkscape"
   height="367.765425pt"
   version="1.1"
   viewBox="0 0 428.568 367.765425"
   width="428.568pt"
   id="svg169"
   sodipodi:docname="stable_causal.svg"
   inkscape:version="1.0.2 (e86c870879, 2021-01-15)"
   inkscape:export-filename="/home/sapap9/PythonCode/PID/SIL-JB-main/content/figures/T7/stable_causal.png"
   inkscape:export-xdpi="300"
   inkscape:export-ydpi="300">
  <sodipodi:namedview
     pagecolor="#ffffff"
     bordercolor="#666666"
     borderopacity="1"
     objecttolerance="10"
     gridtolerance="10"
     guidetolerance="10"
     inkscape:pageopacity="0"
     inkscape:pageshadow="2"
     inkscape:window-width="2048"
     inkscape:window-height="967"
     id="namedview171"
     showgrid="false"
     inkscape:zoom="1.6314748"
     inkscape:cx="285.712"
     inkscape:cy="245.17694"
     inkscape:window-x="0"
     inkscape:window-y="27"
     inkscape:window-maximized="1"
     inkscape:current-layer="figure_1" />
  <metadata
     id="metadata2">
    <rdf:RDF>
      <cc:Work>
        <dc:type
           rdf:resource="http://purl.org/dc/dcmitype/StillImage" />
        <dc:date>2026-01-14T12:59:11.530300</dc:date>
        <dc:format>image/svg+xml</dc:format>
        <dc:creator>
          <cc:Agent>
            <dc:title>Matplotlib v3.4.3, https://matplotlib.org/</dc:title>
          </cc:Agent>
        </dc:creator>
      </cc:Work>
    </rdf:RDF>
  </metadata>
  <defs
     id="defs6">
    <style
       type="text/css"
       id="style4">*{stroke-linecap:butt;stroke-linejoin:round;}</style>
    <rect
       x="191.78645"
       y="336.76401"
       width="206.08917"
       height="27.305189"
       id="rect949" />
    <rect
       x="191.78645"
       y="336.76401"
       width="206.08917"
       height="27.305189"
       id="rect1054" />
  </defs>
  <g
     id="figure_1">
    <g
       id="patch_1">
      <path
         d="M 0 367.765425  L 428.568 367.765425  L 428.568 0  L 0 0  z "
         style="fill:#ffffff;"
         id="path8" />
    </g>
    <g
       id="axes_1">
      <g
         id="patch_2">
        <path
           d="M 7.2 360.565425  L 333.36 360.565425  L 333.36 34.405425  L 7.2 34.405425  z "
           style="fill:#ffffff;"
           id="path11" />
      </g>
      <g
         id="patch_3">
        <path
           clip-path="url(#pf90f946244)"
           d="M 170.28 605.185425  C 278.403304 605.185425 382.112713 562.227581 458.567435 485.77286  C 535.022156 409.318138 577.98 305.608729 577.98 197.485425  C 577.98 89.362121 535.022156 -14.347288 458.567435 -90.80201  C 382.112713 -167.256731 278.403304 -210.214575 170.28 -210.214575  C 62.156696 -210.214575 -41.552713 -167.256731 -118.007435 -90.80201  C -194.462156 -14.347288 -237.42 89.362121 -237.42 197.485425  C -237.42 305.608729 -194.462156 409.318138 -118.007435 485.77286  C -41.552713 562.227581 62.156696 605.185425 170.28 605.185425  z "
           style="fill:#ffa500;opacity:0.3;stroke:#ffa500;stroke-linejoin:miter;stroke-width:2;"
           id="path14" />
      </g>
      <g
         id="patch_4">
        <path
           clip-path="url(#pf90f946244)"
           d="M 170.28 246.409425  C 183.254796 246.409425 195.699926 241.254484 204.874492 232.079917  C 214.049059 222.905351 219.204 210.460221 219.204 197.485425  C 219.204 184.510629 214.049059 172.065499 204.874492 162.890933  C 195.699926 153.716366 183.254796 148.561425 170.28 148.561425  C 157.305204 148.561425 144.860074 153.716366 135.685508 162.890933  C 126.510941 172.065499 121.356 184.510629 121.356 197.485425  C 121.356 210.460221 126.510941 222.905351 135.685508 232.079917  C 144.860074 241.254484 157.305204 246.409425 170.28 246.409425  z "
           style="fill:#ffffff;"
           id="path17" />
      </g>
      <g
         id="matplotlib.axis_1" />
      <g
         id="matplotlib.axis_2" />
      <g
         id="patch_5">
        <path
           clip-path="url(#pf90f946244)"
           d="M 170.28 246.409425  C 183.254796 246.409425 195.699926 241.254484 204.874492 232.079917  C 214.049059 222.905351 219.204 210.460221 219.204 197.485425  C 219.204 184.510629 214.049059 172.065499 204.874492 162.890933  C 195.699926 153.716366 183.254796 148.561425 170.28 148.561425  C 157.305204 148.561425 144.860074 153.716366 135.685508 162.890933  C 126.510941 172.065499 121.356 184.510629 121.356 197.485425  C 121.356 210.460221 126.510941 222.905351 135.685508 232.079917  C 144.860074 241.254484 157.305204 246.409425 170.28 246.409425  z "
           style="fill:none;stroke:#ffa500;stroke-linejoin:miter;stroke-width:2;"
           id="path22" />
      </g>
      <g
         id="legend_1">
        <g
           id="patch_6">
          <path
             d="M 356.668 86.861675  L 419.368 86.861675  Q 421.368 86.861675 421.368 84.861675  L 421.368 41.405425  Q 421.368 39.405425 419.368 39.405425  L 356.668 39.405425  Q 354.668 39.405425 354.668 41.405425  L 354.668 84.861675  Q 354.668 86.861675 356.668 86.861675  z "
             style="fill:#ffffff;opacity:0.8;stroke:#cccccc;stroke-linejoin:miter;"
             id="path25" />
        </g>
        <g
           id="patch_7">
          <path
             d="M 358.668 51.003862  L 378.668 51.003862  L 378.668 44.003862  L 358.668 44.003862  z "
             style="fill:none;stroke:#ffa500;stroke-linejoin:miter;stroke-width:2;"
             id="path28" />
        </g>
        <g
           id="text_1">
          <!-- ROC -->
          <g
             transform="translate(386.668 51.003862)scale(0.1 -0.1)"
             id="g42">
            <defs
               id="defs34">
              <path
                 d="M 2841 2188  Q 3044 2119 3236 1894  Q 3428 1669 3622 1275  L 4263 0  L 3584 0  L 2988 1197  Q 2756 1666 2539 1819  Q 2322 1972 1947 1972  L 1259 1972  L 1259 0  L 628 0  L 628 4666  L 2053 4666  Q 2853 4666 3247 4331  Q 3641 3997 3641 3322  Q 3641 2881 3436 2590  Q 3231 2300 2841 2188  z M 1259 4147  L 1259 2491  L 2053 2491  Q 2509 2491 2742 2702  Q 2975 2913 2975 3322  Q 2975 3731 2742 3939  Q 2509 4147 2053 4147  L 1259 4147  z "
                 id="DejaVuSans-52"
                 transform="scale(0.015625)" />
              <path
                 d="M 2522 4238  Q 1834 4238 1429 3725  Q 1025 3213 1025 2328  Q 1025 1447 1429 934  Q 1834 422 2522 422  Q 3209 422 3611 934  Q 4013 1447 4013 2328  Q 4013 3213 3611 3725  Q 3209 4238 2522 4238  z M 2522 4750  Q 3503 4750 4090 4092  Q 4678 3434 4678 2328  Q 4678 1225 4090 567  Q 3503 -91 2522 -91  Q 1538 -91 948 565  Q 359 1222 359 2328  Q 359 3434 948 4092  Q 1538 4750 2522 4750  z "
                 id="DejaVuSans-4f"
                 transform="scale(0.015625)" />
              <path
                 d="M 4122 4306  L 4122 3641  Q 3803 3938 3442 4084  Q 3081 4231 2675 4231  Q 1875 4231 1450 3742  Q 1025 3253 1025 2328  Q 1025 1406 1450 917  Q 1875 428 2675 428  Q 3081 428 3442 575  Q 3803 722 4122 1019  L 4122 359  Q 3791 134 3420 21  Q 3050 -91 2638 -91  Q 1578 -91 968 557  Q 359 1206 359 2328  Q 359 3453 968 4101  Q 1578 4750 2638 4750  Q 3056 4750 3426 4639  Q 3797 4528 4122 4306  z "
                 id="DejaVuSans-43"
                 transform="scale(0.015625)" />
            </defs>
            <use
               xlink:href="#DejaVuSans-52"
               id="use36" />
            <use
               x="69.482422"
               xlink:href="#DejaVuSans-4f"
               id="use38" />
            <use
               x="148.193359"
               xlink:href="#DejaVuSans-43"
               id="use40" />
          </g>
        </g>
        <g
           id="patch_8">
          <path
             d="M 358.668 65.78355  L 378.668 65.78355  L 378.668 58.78355  L 358.668 58.78355  z "
             style="fill:none;stroke:#ff0000;stroke-dasharray:4.44,1.92;stroke-dashoffset:0;stroke-linejoin:miter;stroke-width:1.2;"
             id="path45" />
        </g>
        <g
           id="text_2">
          <!-- $|z|=1$ -->
          <g
             transform="translate(386.668 65.78355)scale(0.1 -0.1)"
             id="g64">
            <defs
               id="defs52">
              <path
                 d="M 1344 4891  L 1344 -1509  L 813 -1509  L 813 4891  L 1344 4891  z "
                 id="DejaVuSans-7c"
                 transform="scale(0.015625)" />
              <path
                 d="M 744 3500  L 3475 3500  L 3372 2975  L 738 459  L 2913 459  L 2822 0  L -19 0  L 84 525  L 2719 3041  L 653 3041  L 744 3500  z "
                 id="DejaVuSans-Oblique-7a"
                 transform="scale(0.015625)" />
              <path
                 d="M 678 2906  L 4684 2906  L 4684 2381  L 678 2381  L 678 2906  z M 678 1631  L 4684 1631  L 4684 1100  L 678 1100  L 678 1631  z "
                 id="DejaVuSans-3d"
                 transform="scale(0.015625)" />
              <path
                 d="M 794 531  L 1825 531  L 1825 4091  L 703 3866  L 703 4441  L 1819 4666  L 2450 4666  L 2450 531  L 3481 531  L 3481 0  L 794 0  L 794 531  z "
                 id="DejaVuSans-31"
                 transform="scale(0.015625)" />
            </defs>
            <use
               transform="translate(0 0.578125)"
               xlink:href="#DejaVuSans-7c"
               id="use54" />
            <use
               transform="translate(33.691406 0.578125)"
               xlink:href="#DejaVuSans-Oblique-7a"
               id="use56" />
            <use
               transform="translate(86.181641 0.578125)"
               xlink:href="#DejaVuSans-7c"
               id="use58" />
            <use
               transform="translate(139.355469 0.578125)"
               xlink:href="#DejaVuSans-3d"
               id="use60" />
            <use
               transform="translate(242.626953 0.578125)"
               xlink:href="#DejaVuSans-31"
               id="use62" />
          </g>
        </g>
        <g
           id="PathCollection_1">
          <defs
             id="defs68">
            <path
               d="M -5 5  L 5 -5  M -5 -5  L 5 5  "
               id="m2196d7bcc4"
               style="stroke:#ff0000;stroke-opacity:0.55;stroke-width:3;" />
          </defs>
          <g
             id="g72">
            <use
               style="fill:#ff0000;fill-opacity:0.55;stroke:#ff0000;stroke-opacity:0.55;stroke-width:3;"
               x="368.668"
               xlink:href="#m2196d7bcc4"
               y="78.156987"
               id="use70" />
          </g>
        </g>
        <g
           id="text_3">
          <!-- Pole -->
          <g
             transform="translate(386.668 80.781987)scale(0.1 -0.1)"
             id="g89">
            <defs
               id="defs79">
              <path
                 d="M 1259 4147  L 1259 2394  L 2053 2394  Q 2494 2394 2734 2622  Q 2975 2850 2975 3272  Q 2975 3691 2734 3919  Q 2494 4147 2053 4147  L 1259 4147  z M 628 4666  L 2053 4666  Q 2838 4666 3239 4311  Q 3641 3956 3641 3272  Q 3641 2581 3239 2228  Q 2838 1875 2053 1875  L 1259 1875  L 1259 0  L 628 0  L 628 4666  z "
                 id="DejaVuSans-50"
                 transform="scale(0.015625)" />
              <path
                 d="M 1959 3097  Q 1497 3097 1228 2736  Q 959 2375 959 1747  Q 959 1119 1226 758  Q 1494 397 1959 397  Q 2419 397 2687 759  Q 2956 1122 2956 1747  Q 2956 2369 2687 2733  Q 2419 3097 1959 3097  z M 1959 3584  Q 2709 3584 3137 3096  Q 3566 2609 3566 1747  Q 3566 888 3137 398  Q 2709 -91 1959 -91  Q 1206 -91 779 398  Q 353 888 353 1747  Q 353 2609 779 3096  Q 1206 3584 1959 3584  z "
                 id="DejaVuSans-6f"
                 transform="scale(0.015625)" />
              <path
                 d="M 603 4863  L 1178 4863  L 1178 0  L 603 0  L 603 4863  z "
                 id="DejaVuSans-6c"
                 transform="scale(0.015625)" />
              <path
                 d="M 3597 1894  L 3597 1613  L 953 1613  Q 991 1019 1311 708  Q 1631 397 2203 397  Q 2534 397 2845 478  Q 3156 559 3463 722  L 3463 178  Q 3153 47 2828 -22  Q 2503 -91 2169 -91  Q 1331 -91 842 396  Q 353 884 353 1716  Q 353 2575 817 3079  Q 1281 3584 2069 3584  Q 2775 3584 3186 3129  Q 3597 2675 3597 1894  z M 3022 2063  Q 3016 2534 2758 2815  Q 2500 3097 2075 3097  Q 1594 3097 1305 2825  Q 1016 2553 972 2059  L 3022 2063  z "
                 id="DejaVuSans-65"
                 transform="scale(0.015625)" />
            </defs>
            <use
               xlink:href="#DejaVuSans-50"
               id="use81" />
            <use
               x="56.677734"
               xlink:href="#DejaVuSans-6f"
               id="use83" />
            <use
               x="117.859375"
               xlink:href="#DejaVuSans-6c"
               id="use85" />
            <use
               x="145.642578"
               xlink:href="#DejaVuSans-65"
               id="use87" />
          </g>
        </g>
      </g>
      <g
         id="patch_9">
        <path
           clip-path="url(#pf90f946244)"
           d="M 170.28 262.717425  C 187.579729 262.717425 204.173234 255.84417 216.40599 243.611415  C 228.638745 231.378659 235.512 214.785154 235.512 197.485425  C 235.512 180.185696 228.638745 163.592191 216.40599 151.359435  C 204.173234 139.12668 187.579729 132.253425 170.28 132.253425  C 152.980271 132.253425 136.386766 139.12668 124.15401 151.359435  C 111.921255 163.592191 105.048 180.185696 105.048 197.485425  C 105.048 214.785154 111.921255 231.378659 124.15401 243.611415  C 136.386766 255.84417 152.980271 262.717425 170.28 262.717425  z "
           style="fill:none;stroke:#ff0000;stroke-dasharray:4.44,1.92;stroke-dashoffset:0;stroke-linejoin:miter;stroke-width:1.2;"
           id="path93" />
      </g>
      <g
         id="line2d_1">
        <path
           clip-path="url(#pf90f946244)"
           d="M 170.28 197.485425  L 218.935989 192.371474  "
           style="fill:none;stroke:#0000ff;stroke-linecap:square;stroke-width:2;"
           id="path96" />
      </g>
      <g
         id="PathCollection_2">
        <g
           clip-path="url(#pf90f946244)"
           id="g101">
          <use
             style="fill:#ff0000;fill-opacity:0.55;stroke:#ff0000;stroke-opacity:0.55;stroke-width:3;"
             x="121.356"
             xlink:href="#m2196d7bcc4"
             y="197.485425"
             id="use99" />
        </g>
      </g>
      <g
         id="text_4"
         transform="translate(6)">
        <!-- $|a|&lt;1$ -->
        <g
           style="fill:#0000ff"
           transform="matrix(0.17901394,-0.01881512,-0.01881512,-0.17901394,165.87223,190.3433)"
           id="g118">
          <defs
             id="defs106">
            <path
               d="M 3438,1997 3047,0 h -575 l 106,531 Q 2325,219 2001,64 1678,-91 1281,-91 834,-91 548,182 263,456 263,884 q 0,613 489,969 489,356 1348,356 h 800 l 31,154 q 7,25 10,54 3,30 3,92 0,279 -227,433 -226,155 -636,155 -281,0 -577,-72 -295,-72 -607,-216 l 100,532 q 325,122 636,182 311,61 601,61 619,0 942,-269 324,-268 324,-781 0,-103 -16,-242 -15,-139 -46,-295 z m -622,-238 h -575 q -707,0 -1046,-189 -339,-189 -339,-586 0,-275 173,-431 174,-156 480,-156 469,0 819,336 350,336 463,898 z"
               id="DejaVuSans-Oblique-61"
               transform="scale(0.015625)" />
            <path
               d="M 4684,3150 1459,2003 4684,863 V 294 L 678,1747 v 519 l 4006,1453 z"
               id="DejaVuSans-3c"
               transform="scale(0.015625)" />
          </defs>
          <use
             transform="translate(0,0.578125)"
             xlink:href="#DejaVuSans-7c"
             id="use108"
             x="0"
             y="0"
             width="100%"
             height="100%" />
          <use
             transform="translate(33.691406,0.578125)"
             xlink:href="#DejaVuSans-Oblique-61"
             id="use110"
             x="0"
             y="0"
             width="100%"
             height="100%" />
          <use
             transform="translate(94.970703,0.578125)"
             xlink:href="#DejaVuSans-7c"
             id="use112"
             x="0"
             y="0"
             width="100%"
             height="100%" />
          <use
             transform="translate(148.14453,0.578125)"
             xlink:href="#DejaVuSans-3c"
             id="use114"
             x="0"
             y="0"
             width="100%"
             height="100%" />
          <use
             transform="translate(251.41602,0.578125)"
             xlink:href="#DejaVuSans-31"
             id="use116"
             x="0"
             y="0"
             width="100%"
             height="100%" />
        </g>
      </g>
      <g
         id="text_5">
        <!-- $1$ -->
        <g
           style="fill:#ff0000;"
           transform="translate(238.1952 188.4666)scale(0.12 -0.12)"
           id="g123">
          <use
             transform="translate(0 0.09375)"
             xlink:href="#DejaVuSans-31"
             id="use121" />
        </g>
      </g>
      <g
         id="line2d_2">
        <path
           clip-path="url(#pf90f946244)"
           d="M 7.2 197.485425  L 333.36 197.485425  "
           style="fill:none;stroke:#000000;stroke-linecap:square;"
           id="path126" />
      </g>
      <g
         id="line2d_3">
        <path
           clip-path="url(#pf90f946244)"
           d="M 170.28 360.565425  L 170.28 34.405425  "
           style="fill:none;stroke:#000000;stroke-linecap:square;"
           id="path129" />
      </g>
      <g
         id="text_6">
        <!-- $\Re\{z\}$ -->
        <g
           transform="translate(343.1448 202.4523)scale(0.18 -0.18)"
           id="g145">
          <defs
             id="defs135">
            <path
               d="M 4006 -91  Q 3750 481 3750 978  Q 3750 1416 3681 1700  Q 3556 2219 3309 2219  Q 3178 2219 2891 2084  L 2516 1909  L 2516 1288  Q 2516 644 2194 275  Q 1872 -91 1434 -91  Q 994 -91 675 275  Q 353 644 353 1194  Q 494 1156 638 1119  Q 638 738 838 469  Q 1038 197 1263 197  Q 1488 197 1684 469  Q 1884 741 1884 1209  L 1884 3294  Q 1884 3759 1684 4034  Q 1488 4306 1200 4306  Q 947 4306 744 4034  Q 544 3766 544 3450  Q 544 3134 744 2866  Q 944 2594 1203 2594  L 1372 2306  Q 900 2306 581 2672  Q 259 3041 259 3528  Q 259 4019 581 4384  Q 900 4750 1372 4750  Q 1878 4750 2194 4384  Q 2288 4275 2338 4175  L 2997 4481  Q 3581 4753 3931 4753  Q 4078 4753 4191 4709  Q 4584 4556 4584 4003  Q 4584 3731 4381 3347  Q 4175 2959 3784 2666  Q 3966 2666 4119 2513  Q 4231 2400 4316 2075  Q 4416 1691 4416 1281  Q 4416 881 4556 513  L 5006 722  L 5138 438  L 4006 -91  z M 2450 3897  Q 2516 3663 2516 3375  L 2516 2241  L 2997 2463  Q 3447 2672 3688 2997  Q 3919 3316 3919 3694  Q 3919 4166 3688 4266  Q 3613 4297 3516 4297  Q 3316 4297 2997 4150  L 2450 3897  z "
               id="DejaVuSans-Oblique-211c"
               transform="scale(0.015625)" />
            <path
               d="M 3272 -594  L 3272 -1044  L 3078 -1044  Q 2300 -1044 2036 -812  Q 1772 -581 1772 109  L 1772 856  Q 1772 1328 1603 1509  Q 1434 1691 991 1691  L 800 1691  L 800 2138  L 991 2138  Q 1438 2138 1605 2317  Q 1772 2497 1772 2963  L 1772 3713  Q 1772 4403 2036 4633  Q 2300 4863 3078 4863  L 3272 4863  L 3272 4416  L 3059 4416  Q 2619 4416 2484 4278  Q 2350 4141 2350 3700  L 2350 2925  Q 2350 2434 2208 2212  Q 2066 1991 1722 1913  Q 2069 1828 2209 1606  Q 2350 1384 2350 897  L 2350 122  Q 2350 -319 2484 -456  Q 2619 -594 3059 -594  L 3272 -594  z "
               id="DejaVuSans-7b"
               transform="scale(0.015625)" />
            <path
               d="M 800 -594  L 1019 -594  Q 1456 -594 1589 -459  Q 1722 -325 1722 122  L 1722 897  Q 1722 1384 1862 1606  Q 2003 1828 2350 1913  Q 2003 1991 1862 2212  Q 1722 2434 1722 2925  L 1722 3700  Q 1722 4144 1589 4280  Q 1456 4416 1019 4416  L 800 4416  L 800 4863  L 997 4863  Q 1775 4863 2036 4633  Q 2297 4403 2297 3713  L 2297 2963  Q 2297 2497 2465 2317  Q 2634 2138 3078 2138  L 3272 2138  L 3272 1691  L 3078 1691  Q 2634 1691 2465 1509  Q 2297 1328 2297 856  L 2297 109  Q 2297 -581 2036 -812  Q 1775 -1044 997 -1044  L 800 -1044  L 800 -594  z "
               id="DejaVuSans-7d"
               transform="scale(0.015625)" />
          </defs>
          <use
             transform="translate(0 0.015625)"
             xlink:href="#DejaVuSans-Oblique-211c"
             id="use137" />
          <use
             transform="translate(81.396484 0.015625)"
             xlink:href="#DejaVuSans-7b"
             id="use139" />
          <use
             transform="translate(145.019531 0.015625)"
             xlink:href="#DejaVuSans-Oblique-7a"
             id="use141" />
          <use
             transform="translate(197.509766 0.015625)"
             xlink:href="#DejaVuSans-7d"
             id="use143" />
        </g>
      </g>
      <g
         id="text_7">
        <!-- $\Im\{z\}$ -->
        <g
           transform="translate(147.78 20.877187)scale(0.18 -0.18)"
           id="g159">
          <defs
             id="defs149">
            <path
               d="M 331 281  L 769 797  Q 1116 919 1481 919  Q 1659 919 2072 669  Q 2522 400 2625 400  Q 3003 400 3316 828  Q 3538 1131 3538 1366  Q 3538 1759 3344 2109  Q 3094 2566 3094 2906  Q 3094 3219 3344 3719  L 4009 4156  Q 3759 3722 3759 3344  Q 3759 3009 4009 2547  Q 4175 2241 4175 1653  Q 4175 1359 3544 603  Q 2963 -91 2206 -91  Q 2038 -91 1634 156  Q 1219 406 1044 406  Q 750 406 331 281  z M 1094 4575  Q 1434 4750 1875 4750  Q 2259 4750 2656 4597  Q 3038 4450 3438 4450  Q 3828 4450 4219 4631  L 3594 4100  Q 3159 3919 2813 3919  Q 2366 3919 2031 4072  Q 1697 4225 1250 4225  Q 869 4225 469 4044  L 1094 4575  z "
               id="DejaVuSans-Oblique-2111"
               transform="scale(0.015625)" />
          </defs>
          <use
             transform="translate(0 0.015625)"
             xlink:href="#DejaVuSans-Oblique-2111"
             id="use151" />
          <use
             transform="translate(69.726562 0.015625)"
             xlink:href="#DejaVuSans-7b"
             id="use153" />
          <use
             transform="translate(133.349609 0.015625)"
             xlink:href="#DejaVuSans-Oblique-7a"
             id="use155" />
          <use
             transform="translate(185.839844 0.015625)"
             xlink:href="#DejaVuSans-7d"
             id="use157" />
        </g>
      </g>
    </g>
  </g>
  <defs
     id="defs167">
    <clipPath
       id="pf90f946244">
      <rect
         height="326.16"
         width="326.16"
         x="7.2"
         y="34.405425"
         id="rect164" />
    </clipPath>
  </defs>
  <text
     xml:space="preserve"
     id="text947"
     style="font-style:normal;font-weight:normal;font-size:12px;line-height:1;font-family:sans-serif;letter-spacing:0px;word-spacing:0px;white-space:pre;shape-inside:url(#rect949);fill:#000000;fill-opacity:1;stroke:none;stroke-linecap:butt;stroke-linejoin:round;"
     transform="translate(-11.638092,6.9238311)"><tspan
       x="191.78711"
       y="345.88086"><tspan
         style="stroke-linecap:butt;stroke-linejoin:round">Estable</tspan></tspan></text>
</svg>
