<?xml version="1.0" encoding="UTF-8" standalone="no"?>
<svg
   xmlns:dc="http://purl.org/dc/elements/1.1/"
   xmlns:cc="http://creativecommons.org/ns#"
   xmlns:rdf="http://www.w3.org/1999/02/22-rdf-syntax-ns#"
   xmlns:svg="http://www.w3.org/2000/svg"
   xmlns="http://www.w3.org/2000/svg"
   xmlns:xlink="http://www.w3.org/1999/xlink"
   xmlns:sodipodi="http://sodipodi.sourceforge.net/DTD/sodipodi-0.dtd"
   xmlns:inkscape="http://www.inkscape.org/namespaces/inkscape"
   height="367.765425pt"
   version="1.1"
   viewBox="0 0 397.5048 367.765425"
   width="397.5048pt"
   id="svg74"
   sodipodi:docname="z_plane.svg"
   inkscape:version="1.0.2 (e86c870879, 2021-01-15)">
  <sodipodi:namedview
     pagecolor="#ffffff"
     bordercolor="#666666"
     borderopacity="1"
     objecttolerance="10"
     gridtolerance="10"
     guidetolerance="10"
     inkscape:pageopacity="0"
     inkscape:pageshadow="2"
     inkscape:window-width="1996"
     inkscape:window-height="967"
     id="namedview76"
     showgrid="false"
     inkscape:zoom="1.5825306"
     inkscape:cx="263.1075"
     inkscape:cy="245.17694"
     inkscape:window-x="0"
     inkscape:window-y="27"
     inkscape:window-maximized="1"
     inkscape:current-layer="svg74" />
  <metadata
     id="metadata2">
    <rdf:RDF>
      <cc:Work>
        <dc:type
           rdf:resource="http://purl.org/dc/dcmitype/StillImage" />
        <dc:date>2025-12-02T17:30:41.528425</dc:date>
        <dc:format>image/svg+xml</dc:format>
        <dc:creator>
          <cc:Agent>
            <dc:title>Matplotlib v3.4.3, https://matplotlib.org/</dc:title>
          </cc:Agent>
        </dc:creator>
      </cc:Work>
    </rdf:RDF>
  </metadata>
  <defs
     id="defs6">
    <rect
       x="236.48833"
       y="133.64671"
       width="121.7986"
       height="25.591923"
       id="rect919" />
    <rect
       x="187.20018"
       y="182.93486"
       width="39.809658"
       height="25.591923"
       id="rect913" />
    <rect
       x="189.09588"
       y="183.40878"
       width="30.805093"
       height="16.587358"
       id="rect907" />
    <style
       type="text/css"
       id="style4">*{stroke-linecap:butt;stroke-linejoin:round;}</style>
  </defs>
  <g
     id="figure_1"
     inkscape:export-xdpi="300"
     inkscape:export-ydpi="300">
    <g
       id="patch_1">
      <path
         d="M 0 367.765425  L 397.5048 367.765425  L 397.5048 0  L 0 0  z "
         style="fill:#ffffff;"
         id="path8" />
    </g>
    <g
       id="axes_1">
      <g
         id="patch_2">
        <path
           d="M 7.2 360.565425  L 333.36 360.565425  L 333.36 34.405425  L 7.2 34.405425  z "
           style="fill:#ffffff;"
           id="path11" />
      </g>
      <g
         id="matplotlib.axis_1" />
      <g
         id="matplotlib.axis_2" />
      <g
         id="patch_3">
        <path
           clip-path="url(#p91d29df643)"
           d="M 170.28 274.362074  C 190.667926 274.362074 210.223559 266.261866 224.64 251.845425  C 239.056441 237.428984 247.156649 217.873351 247.156649 197.485425  C 247.156649 177.097499 239.056441 157.541866 224.64 143.125425  C 210.223559 128.708984 190.667926 120.608776 170.28 120.608776  C 149.892074 120.608776 130.336441 128.708984 115.92 143.125425  C 101.503559 157.541866 93.403351 177.097499 93.403351 197.485425  C 93.403351 217.873351 101.503559 237.428984 115.92 251.845425  C 130.336441 266.261866 149.892074 274.362074 170.28 274.362074  z "
           style="fill:none;stroke:#0000ff;stroke-dasharray:4.44,1.92;stroke-dashoffset:0;stroke-linejoin:miter;stroke-width:1.2;"
           id="path16" />
      </g>
      <g
         id="line2d_1">
        <path
           clip-path="url(#p91d29df643)"
           d="M 170.28 197.485425  L 224.64 143.125425  "
           style="fill:none;stroke:#0000ff;stroke-linecap:square;stroke-width:2;"
           id="path19" />
      </g>
      <g
         id="text_1">
        <!-- $r$ -->
        <g
           style="fill:#0000ff;"
           transform="translate(192.140126 164.895279)rotate(-45)scale(0.18 -0.18)"
           id="g27">
          <defs
             id="defs23">
            <path
               d="M 2853 2969  Q 2766 3016 2653 3041  Q 2541 3066 2413 3066  Q 1953 3066 1609 2717  Q 1266 2369 1153 1784  L 800 0  L 225 0  L 909 3500  L 1484 3500  L 1375 2956  Q 1603 3259 1920 3421  Q 2238 3584 2597 3584  Q 2691 3584 2781 3573  Q 2872 3563 2963 3538  L 2853 2969  z "
               id="DejaVuSans-Oblique-72"
               transform="scale(0.015625)" />
          </defs>
          <use
             xlink:href="#DejaVuSans-Oblique-72"
             id="use25" />
        </g>
      </g>
      <g
         id="line2d_2">
        <path
           clip-path="url(#p91d29df643)"
           d="M 7.2 197.485425  L 333.36 197.485425  "
           style="fill:none;stroke:#000000;stroke-linecap:square;"
           id="path30" />
      </g>
      <g
         id="line2d_3">
        <path
           clip-path="url(#p91d29df643)"
           d="M 170.28 360.565425  L 170.28 34.405425  "
           style="fill:none;stroke:#000000;stroke-linecap:square;"
           id="path33" />
      </g>
      <g
         id="text_2">
        <!-- $\Re\{z\}$ -->
        <g
           transform="translate(343.1448 202.4523)scale(0.18 -0.18)"
           id="g50">
          <defs
             id="defs40">
            <path
               d="M 4006 -91  Q 3750 481 3750 978  Q 3750 1416 3681 1700  Q 3556 2219 3309 2219  Q 3178 2219 2891 2084  L 2516 1909  L 2516 1288  Q 2516 644 2194 275  Q 1872 -91 1434 -91  Q 994 -91 675 275  Q 353 644 353 1194  Q 494 1156 638 1119  Q 638 738 838 469  Q 1038 197 1263 197  Q 1488 197 1684 469  Q 1884 741 1884 1209  L 1884 3294  Q 1884 3759 1684 4034  Q 1488 4306 1200 4306  Q 947 4306 744 4034  Q 544 3766 544 3450  Q 544 3134 744 2866  Q 944 2594 1203 2594  L 1372 2306  Q 900 2306 581 2672  Q 259 3041 259 3528  Q 259 4019 581 4384  Q 900 4750 1372 4750  Q 1878 4750 2194 4384  Q 2288 4275 2338 4175  L 2997 4481  Q 3581 4753 3931 4753  Q 4078 4753 4191 4709  Q 4584 4556 4584 4003  Q 4584 3731 4381 3347  Q 4175 2959 3784 2666  Q 3966 2666 4119 2513  Q 4231 2400 4316 2075  Q 4416 1691 4416 1281  Q 4416 881 4556 513  L 5006 722  L 5138 438  L 4006 -91  z M 2450 3897  Q 2516 3663 2516 3375  L 2516 2241  L 2997 2463  Q 3447 2672 3688 2997  Q 3919 3316 3919 3694  Q 3919 4166 3688 4266  Q 3613 4297 3516 4297  Q 3316 4297 2997 4150  L 2450 3897  z "
               id="DejaVuSans-Oblique-211c"
               transform="scale(0.015625)" />
            <path
               d="M 3272 -594  L 3272 -1044  L 3078 -1044  Q 2300 -1044 2036 -812  Q 1772 -581 1772 109  L 1772 856  Q 1772 1328 1603 1509  Q 1434 1691 991 1691  L 800 1691  L 800 2138  L 991 2138  Q 1438 2138 1605 2317  Q 1772 2497 1772 2963  L 1772 3713  Q 1772 4403 2036 4633  Q 2300 4863 3078 4863  L 3272 4863  L 3272 4416  L 3059 4416  Q 2619 4416 2484 4278  Q 2350 4141 2350 3700  L 2350 2925  Q 2350 2434 2208 2212  Q 2066 1991 1722 1913  Q 2069 1828 2209 1606  Q 2350 1384 2350 897  L 2350 122  Q 2350 -319 2484 -456  Q 2619 -594 3059 -594  L 3272 -594  z "
               id="DejaVuSans-7b"
               transform="scale(0.015625)" />
            <path
               d="M 744 3500  L 3475 3500  L 3372 2975  L 738 459  L 2913 459  L 2822 0  L -19 0  L 84 525  L 2719 3041  L 653 3041  L 744 3500  z "
               id="DejaVuSans-Oblique-7a"
               transform="scale(0.015625)" />
            <path
               d="M 800 -594  L 1019 -594  Q 1456 -594 1589 -459  Q 1722 -325 1722 122  L 1722 897  Q 1722 1384 1862 1606  Q 2003 1828 2350 1913  Q 2003 1991 1862 2212  Q 1722 2434 1722 2925  L 1722 3700  Q 1722 4144 1589 4280  Q 1456 4416 1019 4416  L 800 4416  L 800 4863  L 997 4863  Q 1775 4863 2036 4633  Q 2297 4403 2297 3713  L 2297 2963  Q 2297 2497 2465 2317  Q 2634 2138 3078 2138  L 3272 2138  L 3272 1691  L 3078 1691  Q 2634 1691 2465 1509  Q 2297 1328 2297 856  L 2297 109  Q 2297 -581 2036 -812  Q 1775 -1044 997 -1044  L 800 -1044  L 800 -594  z "
               id="DejaVuSans-7d"
               transform="scale(0.015625)" />
          </defs>
          <use
             transform="translate(0 0.015625)"
             xlink:href="#DejaVuSans-Oblique-211c"
             id="use42" />
          <use
             transform="translate(81.396484 0.015625)"
             xlink:href="#DejaVuSans-7b"
             id="use44" />
          <use
             transform="translate(145.019531 0.015625)"
             xlink:href="#DejaVuSans-Oblique-7a"
             id="use46" />
          <use
             transform="translate(197.509766 0.015625)"
             xlink:href="#DejaVuSans-7d"
             id="use48" />
        </g>
      </g>
      <g
         id="text_3">
        <!-- $\Im\{z\}$ -->
        <g
           transform="translate(147.78 20.877187)scale(0.18 -0.18)"
           id="g64">
          <defs
             id="defs54">
            <path
               d="M 331 281  L 769 797  Q 1116 919 1481 919  Q 1659 919 2072 669  Q 2522 400 2625 400  Q 3003 400 3316 828  Q 3538 1131 3538 1366  Q 3538 1759 3344 2109  Q 3094 2566 3094 2906  Q 3094 3219 3344 3719  L 4009 4156  Q 3759 3722 3759 3344  Q 3759 3009 4009 2547  Q 4175 2241 4175 1653  Q 4175 1359 3544 603  Q 2963 -91 2206 -91  Q 2038 -91 1634 156  Q 1219 406 1044 406  Q 750 406 331 281  z M 1094 4575  Q 1434 4750 1875 4750  Q 2259 4750 2656 4597  Q 3038 4450 3438 4450  Q 3828 4450 4219 4631  L 3594 4100  Q 3159 3919 2813 3919  Q 2366 3919 2031 4072  Q 1697 4225 1250 4225  Q 869 4225 469 4044  L 1094 4575  z "
               id="DejaVuSans-Oblique-2111"
               transform="scale(0.015625)" />
          </defs>
          <use
             transform="translate(0 0.015625)"
             xlink:href="#DejaVuSans-Oblique-2111"
             id="use56" />
          <use
             transform="translate(69.726562 0.015625)"
             xlink:href="#DejaVuSans-7b"
             id="use58" />
          <use
             transform="translate(133.349609 0.015625)"
             xlink:href="#DejaVuSans-Oblique-7a"
             id="use60" />
          <use
             transform="translate(185.839844 0.015625)"
             xlink:href="#DejaVuSans-7d"
             id="use62" />
        </g>
      </g>
    </g>
  </g>
  <defs
     id="defs72">
    <clipPath
       id="p91d29df643">
      <rect
         height="326.16"
         width="326.16"
         x="7.2"
         y="34.405425"
         id="rect69" />
    </clipPath>
  </defs>
  <path
     style="fill:none;fill-opacity:1;stroke:#0000ff;stroke-width:1.125;stroke-linejoin:round;stroke-miterlimit:4;stroke-dasharray:none;stroke-opacity:1"
     id="path903"
     sodipodi:type="arc"
     sodipodi:cx="-197.48543"
     sodipodi:cy="170.28"
     sodipodi:rx="13.101644"
     sodipodi:ry="13.791204"
     sodipodi:start="0.74653056"
     sodipodi:end="1.569118"
     sodipodi:arc-type="slice"
     d="m -187.86817,179.64555 a 13.101644,13.791204 0 0 1 -9.59527,4.42563 l -0.022,-13.79118 z"
     transform="rotate(-90)" />
  <text
     xml:space="preserve"
     id="text905"
     style="fill:black;fill-opacity:1;stroke:none;font-family:sans-serif;font-style:normal;font-weight:normal;font-size:12.00000012px;line-height:1;letter-spacing:0px;word-spacing:0px;white-space:pre;shape-inside:url(#rect907);" />
  <text
     xml:space="preserve"
     id="text911"
     style="font-style:normal;font-weight:normal;font-size:12px;line-height:1;font-family:sans-serif;letter-spacing:0px;word-spacing:0px;white-space:pre;shape-inside:url(#rect913);fill:#000000;fill-opacity:1;stroke:none;"><tspan
       x="187.19922"
       y="192.05273"><tspan
         style="fill:#0000ff;fill-opacity:1;stroke-linecap:butt;stroke-linejoin:round">Ω</tspan></tspan></text>
  <text
     xml:space="preserve"
     id="text917"
     style="font-style:normal;font-weight:normal;font-size:12px;line-height:1;font-family:sans-serif;letter-spacing:0px;word-spacing:0px;white-space:pre;shape-inside:url(#rect919);fill:#0000ff;fill-opacity:1;stroke:none;"
     transform="translate(-7.5,-4.5)"><tspan
       x="236.48828"
       y="142.76367"><tspan
         style="fill:#0000ff;fill-opacity:1;stroke-linecap:butt;stroke-linejoin:round">z = r e</tspan><tspan
         style="font-size:65%;baseline-shift:super;fill:#0000ff;fill-opacity:1;stroke-linecap:butt;stroke-linejoin:round">j</tspan><tspan
         style="font-size:65%;baseline-shift:super;fill:#0000ff;fill-opacity:1;stroke-linecap:butt;stroke-linejoin:round">Ω</tspan></tspan></text>
</svg>
